# Blender 5.0.0
# www.blender.org
o body
v 0.496492 -0.836496 10.430182
v 0.583336 -0.739345 11.701120
v 0.476577 0.278155 10.497440
v 0.565221 0.486406 11.736833
v 0.246627 0.341088 10.401552
v -0.000000 0.369678 10.346870
v -0.000000 0.658669 11.870478
v 0.340386 0.599495 11.825963
v 0.631619 0.554539 11.495500
v 0.646511 0.545035 11.136608
v 0.576865 0.424383 10.764829
v 0.562963 -0.631520 10.344086
v 0.591550 -0.317049 10.315383
v 0.550611 0.022595 10.386479
v 0.654626 0.225672 11.816167
v 0.703310 -0.145583 11.849062
v 0.665741 -0.502555 11.795218
v 0.654036 -0.830153 11.448217
v 0.671875 -0.892060 11.075541
v 0.600616 -0.885222 10.696046
v -0.000000 -0.970372 10.264288
v 0.267098 -0.925011 10.323348
v 0.358752 -0.817453 11.788924
v -0.000000 -0.856363 11.834112
v -0.000000 0.674132 10.718109
v -0.000000 0.858995 11.136805
v -0.000000 0.860968 11.542499
v 0.290903 0.614872 10.744061
v 0.337850 0.778810 11.140080
v 0.344425 0.778266 11.522822
v 0.749642 0.108478 10.724513
v 0.841644 0.194318 11.121935
v 0.811618 0.221481 11.507630
v 0.812126 -0.260919 10.681357
v 0.912852 -0.205322 11.102149
v 0.878665 -0.167071 11.513369
v 0.764291 -0.610046 10.684039
v 0.857600 -0.587271 11.085864
v 0.825386 -0.539852 11.479998
v 0.317045 -1.052687 10.659987
v 0.365526 -1.074153 10.944249
v 0.369003 -0.996871 11.467674
v -0.000000 -1.112858 10.682168
v -0.000000 -1.133464 10.939321
v -0.000000 -1.050111 11.487272
v -0.000000 0.004889 10.080693
v 0.255090 0.002209 10.166192
v -0.000000 -0.369840 9.965281
v 0.272938 -0.355472 10.064429
v -0.000000 -0.709899 10.031176
v 0.266506 -0.681006 10.118861
v 0.373244 0.271111 12.002775
v -0.000000 0.302962 12.066630
v 0.399412 -0.129139 12.055399
v -0.000000 -0.120306 12.125129
v 0.383312 -0.515705 11.983740
v -0.000000 -0.530811 12.048307
v -0.000000 -1.256591 10.750429
v 0.899103 0.129189 11.111279
v 0.964296 0.059744 11.132365
v 0.972883 0.157159 10.928921
v 1.038076 0.087714 10.950006
v 0.910948 0.053346 10.685780
v 0.976141 -0.016099 10.706865
v 0.775233 -0.078438 10.624994
v 0.840426 -0.147883 10.646080
v 0.701452 -0.106409 10.807353
v 0.766645 -0.175854 10.828439
v 0.763387 -0.002595 11.050495
v 0.828580 -0.072040 11.071581
v 0.000000 0.608116 7.493941
v -0.000044 0.616591 9.642533
v 0.504716 0.474077 7.308324
v 0.828771 0.244115 9.232389
v 0.598099 0.170520 7.266022
v 0.958552 0.102681 9.553480
v 0.495931 -0.139477 7.216815
v 0.866581 -0.232341 9.523761
v -0.000000 -0.261991 7.355036
v 0.000049 -0.520247 9.330793
v -0.000000 0.657830 8.127000
v 0.570516 0.468358 8.133819
v 0.767032 0.057441 8.142809
v 0.571962 -0.291827 8.150119
v -0.000000 -0.421472 8.127000
v 0.000165 0.707274 9.212676
v 0.704005 0.243521 8.798144
v 0.718637 -0.063083 8.724311
v 0.697162 -0.351998 8.924241
v 0.000471 -0.494462 9.000180
v -0.000000 0.515979 9.813276
v 0.439966 0.407964 9.763994
v 0.633965 0.100630 9.764042
v 0.435086 -0.203221 9.773631
v -0.000000 -0.334730 9.605659
v 0.958124 0.107741 9.563738
v 0.710338 0.395241 9.427555
v 0.738328 -0.257650 9.665239
v 0.614442 0.415469 8.694983
v 0.622063 -0.373273 8.959857
v 0.716595 -0.047650 8.709711
v 1.568794 -0.183387 7.615751
v 1.659810 -0.333245 7.671122
v 1.563849 -0.538646 7.750156
v 1.164839 -0.229968 7.465016
v 1.097522 -0.397256 7.458501
v 1.161297 -0.587339 7.593256
v 1.945448 -0.847287 6.311756
v 2.010754 -0.976642 6.375305
v 1.943180 -1.112480 6.460619
v 1.639433 -0.883182 6.243618
v 1.585793 -1.027074 6.272175
v 1.637716 -1.150011 6.389305
v 1.971558 -0.823632 6.208686
v 2.060464 -0.973381 6.357723
v 1.988773 -1.230702 6.457146
v 1.817558 -0.901406 6.077959
v 1.787700 -1.072608 6.158848
v 1.815962 -1.353819 6.318728
v 2.245345 -0.960170 5.804207
v 2.301768 -1.197488 5.924958
v 2.243261 -1.475846 6.081243
v 2.084697 -1.104964 5.684957
v 2.054838 -1.276166 5.765846
v 2.083100 -1.557377 5.925726
v 2.185096 -1.304975 5.329182
v 2.196159 -1.482791 5.379964
v 2.184844 -1.662475 5.521791
v 2.094646 -1.341846 5.417615
v 2.068272 -1.445491 5.448136
v 2.093715 -1.636231 5.573680
v 1.576376 -1.169642 6.105266
v 1.607758 -1.269910 6.215092
v 1.771312 -1.184685 6.054559
v 1.791502 -1.422470 6.197050
v 1.629067 -1.313505 5.939715
v 1.654781 -1.395664 6.029707
v 1.788796 -1.325831 5.898167
v 1.805340 -1.520671 6.014923
v 1.704766 -1.464833 5.766012
v 1.715545 -1.521803 5.833247
v 1.822576 -1.460983 5.760824
v 1.831672 -1.598728 5.846289
v -0.000000 0.404502 9.943818
v 0.158780 0.287954 9.915422
v 0.252719 0.101461 9.851902
v 0.182110 -0.006843 9.851902
v -0.000000 -0.116119 9.813874
v 1.513486 -0.529316 7.859880
v 1.609422 -0.308118 7.808309
v 1.078819 -0.377520 7.516466
v 1.131992 -0.581388 7.652891
v 1.520003 -0.151647 7.749840
v 1.136230 -0.203283 7.546408
v 1.698927 -0.368913 7.554509
v 1.610437 -0.225581 7.489657
v 1.199743 -0.274985 7.380629
v 1.127382 -0.437637 7.397509
v 1.197651 -0.607440 7.548576
v 1.606421 -0.558489 7.658691
v 0.508210 1.359454 4.799083
v 0.519509 0.941842 6.120389
v 0.863355 1.159017 4.706185
v 1.026829 0.705493 6.246132
v 0.863355 0.900724 4.606527
v 1.028275 0.276415 5.982526
v 0.508191 0.710643 4.535677
v 0.513592 0.087066 5.775598
v 0.152952 0.908424 4.623684
v 0.144936 0.232452 5.966874
v 0.153066 1.160378 4.733668
v 0.512164 0.920128 6.384444
v 1.018175 0.609280 6.412780
v 1.020134 0.175898 6.157614
v 0.515757 0.017156 5.888571
v 0.136937 0.154216 6.068584
v 0.000000 0.720432 6.194298
v 0.418974 0.881244 6.520458
v 0.879472 0.474710 6.774215
v 0.876436 -0.037498 6.606795
v 0.449170 -0.157323 6.224071
v 0.134332 0.066922 6.210844
v 0.000000 0.795310 6.316733
v 0.430883 2.378276 2.630344
v 0.691277 2.244369 2.562003
v 0.691277 1.976555 2.425318
v 0.430883 1.842599 2.356909
v 0.170489 1.976226 2.424938
v 0.170489 2.244369 2.562003
v 0.822906 1.248186 4.046820
v 0.822906 1.473437 4.148144
v 0.152560 1.434273 4.132485
v 0.152560 1.209126 4.031176
v 0.487733 1.661332 4.266873
v 0.487733 0.890634 4.267944
v -0.000000 -0.015582 6.336888
v -0.000000 -0.196956 6.435272
v -0.000000 -0.263018 6.678509
v 0.000000 0.810817 6.895421
v 0.000000 0.827661 6.572911
v 0.713104 0.432909 7.071276
v 0.709689 -0.104924 6.953530
v -0.000000 -0.231396 7.018891
v 0.000000 0.628045 7.244938
v 0.430883 2.911108 1.084720
v 0.625711 2.835498 1.002789
v 0.625711 2.681524 0.812677
v 0.430883 2.609843 0.726223
v 0.236055 2.677592 0.825215
v 0.236055 2.835116 1.001775
v 0.856043 1.221000 4.606268
v 0.152881 0.966565 4.519140
v 0.504509 1.425296 4.705070
v 0.856043 0.966569 4.507391
v 0.152975 1.222911 4.624519
v 0.504493 0.744300 4.488100
v 0.847217 1.044356 4.387218
v 0.152864 1.281462 4.493732
v 0.500029 0.784370 4.430640
v 0.847217 1.290480 4.484446
v 0.152796 1.033077 4.390535
v 0.500041 1.464718 4.577189
v -0.000000 0.330200 10.584720
v 0.182652 0.209765 10.584720
v 0.252719 0.101462 10.584720
v 0.182110 -0.006843 10.584720
v -0.000000 -0.127185 10.529646
v -0.496493 -0.836496 10.430182
v -0.583336 -0.739345 11.701120
v -0.476577 0.278155 10.497440
v -0.565221 0.486406 11.736833
v -0.246627 0.341088 10.401552
v -0.340386 0.599495 11.825963
v -0.631619 0.554539 11.495500
v -0.646511 0.545035 11.136608
v -0.576865 0.424383 10.764829
v -0.562963 -0.631520 10.344086
v -0.591550 -0.317049 10.315383
v -0.550611 0.022595 10.386479
v -0.654626 0.225672 11.816167
v -0.703310 -0.145583 11.849062
v -0.665741 -0.502555 11.795218
v -0.654036 -0.830153 11.448217
v -0.671875 -0.892060 11.075541
v -0.600616 -0.885222 10.696046
v -0.267098 -0.925011 10.323348
v -0.358752 -0.817453 11.788924
v -0.290903 0.614872 10.744061
v -0.337850 0.778810 11.140080
v -0.344425 0.778266 11.522822
v -0.749642 0.108478 10.724513
v -0.841644 0.194318 11.121935
v -0.811618 0.221481 11.507630
v -0.812126 -0.260919 10.681357
v -0.912852 -0.205322 11.102149
v -0.878665 -0.167071 11.513369
v -0.764291 -0.610046 10.684039
v -0.857600 -0.587271 11.085864
v -0.825386 -0.539852 11.479998
v -0.317045 -1.052687 10.659987
v -0.365526 -1.074153 10.944249
v -0.369003 -0.996871 11.467674
v -0.255090 0.002209 10.166192
v -0.272938 -0.355472 10.064429
v -0.266506 -0.681006 10.118861
v -0.373244 0.271111 12.002775
v -0.399412 -0.129139 12.055399
v -0.383312 -0.515705 11.983740
v -0.899103 0.129189 11.111279
v -0.964296 0.059744 11.132365
v -0.972883 0.157159 10.928921
v -1.038076 0.087714 10.950006
v -0.910948 0.053346 10.685780
v -0.976141 -0.016099 10.706865
v -0.775233 -0.078438 10.624994
v -0.840426 -0.147883 10.646080
v -0.701452 -0.106409 10.807353
v -0.766645 -0.175854 10.828439
v -0.763387 -0.002595 11.050495
v -0.828580 -0.072040 11.071581
v -0.504526 0.476275 7.374122
v -0.822988 0.431005 9.335919
v -0.598793 0.169840 7.331419
v -0.956870 0.141177 9.528301
v -0.495657 -0.117997 7.292441
v -0.863404 -0.135994 9.339385
v -0.568031 0.544843 8.159496
v -0.762046 0.213232 8.149855
v -0.569772 -0.215392 8.132682
v -0.690681 0.634974 8.953017
v -0.702552 0.409608 8.736315
v -0.684412 0.044569 8.766641
v -0.440486 0.387933 9.781759
v -0.634091 0.090934 9.760094
v -0.435324 -0.213400 9.756502
v -0.956596 0.139897 9.540161
v -0.708985 0.434277 9.511741
v -0.738283 -0.258514 9.590318
v -0.607521 0.615811 8.792962
v -0.616827 -0.227991 8.869033
v -0.702022 0.380380 8.720397
v -1.531142 0.991044 7.760770
v -1.621886 0.836032 7.720594
v -1.526000 0.622346 7.664913
v -1.127160 1.039004 7.607448
v -1.060267 0.906319 7.502701
v -1.123434 0.672196 7.505146
v -1.963799 1.239651 6.348646
v -2.029128 1.097718 6.323683
v -1.960982 0.938496 6.306336
v -1.661472 1.254771 6.259503
v -1.609634 1.123402 6.192775
v -1.659362 0.954233 6.213703
v -1.993459 1.320688 6.282176
v -2.079416 1.110568 6.313837
v -2.009026 0.846166 6.233989
v -1.846292 1.339186 6.124524
v -1.816703 1.154205 6.083889
v -1.844274 0.833391 6.041962
v -2.285583 1.454830 5.889910
v -2.341949 1.192416 5.844673
v -2.282918 0.876736 5.797856
v -2.132663 1.413101 5.700522
v -2.103075 1.228120 5.659887
v -2.130645 0.907306 5.617960
v -2.250924 1.468612 5.301033
v -2.263532 1.296277 5.234237
v -2.250247 1.067496 5.237704
v -2.157827 1.386433 5.345081
v -2.132348 1.285683 5.305457
v -2.156645 1.057675 5.290882
v -1.609625 1.111112 5.973408
v -1.638666 0.964567 6.001364
v -1.806662 1.128310 5.932447
v -1.825985 0.852645 5.902637
v -1.671636 1.096477 5.757028
v -1.695432 0.976398 5.779935
v -1.833088 1.110569 5.723464
v -1.848920 0.884690 5.699038
v -1.757101 1.080659 5.530646
v -1.766367 0.994523 5.550066
v -1.874924 1.085932 5.533958
v -1.883405 0.924496 5.518898
v -0.158780 0.287954 9.915422
v -0.252719 0.101461 9.851902
v -0.182110 -0.006843 9.851902
v -1.480137 0.570779 7.761718
v -1.576115 0.783100 7.842987
v -1.041404 0.887733 7.567844
v -1.095529 0.642455 7.564919
v -1.486641 0.945135 7.883821
v -1.099885 1.015015 7.691048
v -1.660346 0.871345 7.612497
v -1.571814 1.025681 7.643260
v -1.164915 1.053202 7.512095
v -1.094821 0.913508 7.424904
v -1.162296 0.685801 7.447160
v -1.567364 0.657327 7.579208
v -0.508053 -0.975705 5.007858
v -0.519458 0.329524 5.807313
v -0.866564 -1.138796 5.111952
v -1.031588 0.143110 6.128601
v -0.866564 -1.331724 5.280965
v -1.033048 -0.279622 6.417497
v -0.508034 -1.503582 5.403187
v -0.513485 -0.552461 6.484119
v -0.149427 -1.344450 5.282549
v -0.141336 -0.241684 6.274136
v -0.149542 -1.132346 5.131176
v -0.512044 0.594186 6.049926
v -1.022851 0.302832 6.289198
v -1.024829 -0.146197 6.545304
v -0.515671 -0.463886 6.528302
v -0.133260 -0.150253 6.309048
v -0.417970 0.737691 6.260096
v -0.882834 0.492317 6.808664
v -0.879769 0.030204 6.829029
v -0.448454 -0.306005 6.644135
v -0.130631 -0.049759 6.353373
v -0.429993 -0.667674 2.998719
v -0.658826 -0.794948 2.963276
v -0.658826 -1.049495 2.892392
v -0.429993 -1.176769 2.856950
v -0.201160 -1.049495 2.892392
v -0.201160 -0.794948 2.963276
v -0.825732 -1.463948 4.637445
v -0.825732 -1.219449 4.692678
v -0.149032 -1.261339 4.685053
v -0.149032 -1.507271 4.630746
v -0.487382 -1.011309 4.770071
v -0.487382 -1.755366 4.955137
v -0.714889 0.439823 7.131844
v -0.711441 -0.040505 7.061607
v -0.429993 -0.416997 1.375663
v -0.608102 -0.509435 1.327335
v -0.608103 -0.706275 1.238413
v -0.429993 -0.800757 1.196726
v -0.251883 -0.705877 1.243649
v -0.251883 -0.509732 1.326969
v -0.859183 -1.278787 5.100834
v -0.149356 -1.499220 5.175705
v -0.504316 -1.073594 5.054249
v -0.859183 -1.451323 5.172991
v -0.149450 -1.264447 5.109953
v -0.504300 -1.585353 5.323837
v -0.850273 -1.557745 5.027442
v -0.149339 -1.317206 5.029664
v -0.499794 -1.673283 5.219937
v -0.850273 -1.316153 5.025538
v -0.149269 -1.565525 5.034811
v -0.499806 -1.128245 5.032056
v -0.182652 0.209765 10.584720
v -0.252719 0.101462 10.584720
v -0.182110 -0.006843 10.584720
v 0.213411 0.609467 6.103240
v -0.199640 0.374894 5.961386
vn 0.2171 0.8930 -0.3943
vn 0.2309 0.9730 -0.0026
vn 0.2282 0.8287 0.5111
vn 0.5934 0.7171 0.3657
vn 0.6038 0.7971 0.0039
vn 0.5368 0.7678 -0.3497
vn 0.4335 0.6757 -0.5962
vn 0.2244 0.7535 -0.6180
vn 0.9488 0.1900 -0.2522
vn 0.9829 0.1719 0.0657
vn 0.9669 -0.1341 -0.2169
vn 0.9843 -0.1466 0.0981
vn 0.7198 0.4412 -0.5359
vn 0.8218 0.4872 -0.2955
vn 0.8739 0.4848 0.0339
vn 0.8176 0.4547 0.3533
vn 0.8793 0.1584 0.4492
vn 0.8717 -0.1659 0.4611
vn 0.7717 -0.4987 0.3948
vn 0.8452 -0.5193 0.1267
vn 0.8441 -0.5094 -0.1677
vn 0.7852 -0.4383 -0.4373
vn 0.8572 -0.1236 -0.4999
vn 0.8229 0.2097 -0.5281
vn 1.0000 -0.0000 -0.0000
vn 0.1564 -0.9765 0.1485
vn 0.4800 -0.7943 -0.3725
vn 0.5169 -0.8425 -0.1518
vn 0.4664 -0.8756 0.1262
vn 0.4808 -0.7739 0.4123
vn 0.1500 -0.8611 0.4857
vn 0.2261 -0.9220 -0.3144
vn 0.3148 0.2794 -0.9071
vn 0.3250 -0.1799 -0.9284
vn 0.2669 0.5681 -0.7785
vn 0.4934 0.5045 -0.7086
vn 0.5804 0.2495 -0.7751
vn 0.6137 -0.1420 -0.7766
vn 0.5175 -0.5489 -0.6564
vn 0.3026 -0.6356 -0.7102
vn 0.1733 0.1395 0.9749
vn 0.1703 -0.1865 0.9676
vn 0.5492 0.4099 0.7283
vn 0.1876 0.4801 0.8569
vn 0.1601 -0.5446 0.8233
vn 0.5064 -0.4648 0.7263
vn 0.5518 -0.1809 0.8141
vn 0.5611 0.1458 0.8148
vn 0.6237 0.6944 0.3588
vn 0.7220 0.5506 -0.4190
vn 0.3616 0.0569 -0.9306
vn -0.6237 -0.6944 -0.3589
vn 0.6532 -0.7421 0.1505
vn -0.7220 -0.5506 0.4190
vn -0.3616 -0.0569 0.9306
vn -0.6532 0.7421 -0.1505
vn 0.4093 0.9120 -0.0284
vn 0.1860 -0.9796 -0.0762
vn 0.1904 -0.9663 -0.1732
vn 0.9480 -0.2926 -0.1250
vn 0.9503 0.3026 -0.0736
vn 0.2521 0.9676 -0.0134
vn 0.2240 -0.9682 -0.1112
vn 0.8729 -0.4878 -0.0128
vn 0.9020 0.4307 -0.0300
vn 0.3138 0.9473 0.0647
vn 0.3906 0.6469 0.6550
vn 0.3567 0.8994 0.2526
vn 0.3045 -0.1698 0.9372
vn 0.0345 -0.8284 0.5591
vn 0.7888 0.5637 -0.2451
vn 0.7368 -0.2711 0.6194
vn 0.6426 0.7434 -0.1857
vn 0.3146 -0.9440 0.0995
vn 0.6953 -0.4432 -0.5658
vn 0.8701 0.1773 -0.4599
vn 0.8868 -0.2699 0.3752
vn -0.8176 -0.4519 -0.3567
vn 0.0059 0.9508 -0.3097
vn 0.8258 0.5367 0.1734
vn -0.8470 0.3562 -0.3946
vn 0.0717 -0.9905 0.1171
vn 0.8563 0.5157 -0.0286
vn -0.8550 0.2261 -0.4667
vn 0.0127 -0.9062 0.4226
vn 0.9063 -0.2269 0.3566
vn -0.8775 -0.4656 -0.1152
vn 0.0174 0.8844 -0.4664
vn 0.2809 0.4064 0.8695
vn -0.9524 -0.1487 0.2661
vn -0.0734 0.9797 -0.1866
vn 0.6380 0.6994 0.3221
vn -0.4879 0.0087 -0.8728
vn -0.5091 -0.2208 0.8319
vn 0.8148 0.4048 0.4149
vn -0.8462 -0.0998 -0.5235
vn 0.0988 -0.8016 0.5896
vn 0.8863 0.0706 0.4576
vn -0.8523 -0.3206 -0.4133
vn -0.2648 0.7709 -0.5793
vn -0.9946 -0.1038 -0.0067
vn -0.6946 0.5254 -0.4914
vn 0.9695 0.1226 -0.2120
vn -0.9679 0.2025 -0.1488
vn 0.1930 -0.9367 0.2923
vn 0.9823 -0.1501 -0.1118
vn -0.9468 -0.3209 -0.0225
vn -0.1852 0.7524 -0.6322
vn 0.9867 0.0068 -0.1624
vn -0.5254 -0.6915 0.4958
vn -0.5520 -0.7862 0.2777
vn -0.5768 -0.7365 0.3533
vn 0.9949 0.0981 0.0227
vn -0.1186 0.7305 -0.6725
vn -0.2543 -0.5220 -0.8142
vn 0.9845 0.1439 0.1006
vn -0.1216 0.7215 -0.6816
vn -0.9323 -0.3568 -0.0593
vn 0.1995 -0.1301 0.9712
vn 0.2205 0.5225 0.8236
vn -0.0709 -0.6879 0.7223
vn 0.2226 0.1407 0.9647
vn -0.5157 -0.5106 -0.6880
vn -0.6227 -0.2504 -0.7413
vn 0.0309 -0.9818 0.1872
vn -0.8702 0.3469 -0.3498
vn 0.8055 0.5462 0.2298
vn 0.0437 0.9456 -0.3224
vn -0.9446 -0.1363 -0.2985
vn 0.8776 -0.2757 0.3922
vn 0.0647 0.8913 -0.4487
vn -0.7601 -0.5258 -0.3819
vn 0.8981 -0.2334 0.3727
vn 0.0529 -0.9705 0.2352
vn -0.7728 0.2850 -0.5670
vn 0.8350 0.5420 0.0944
vn 0.5248 0.8129 0.2524
vn 0.9941 0.0391 -0.1014
vn 0.4936 -0.7761 -0.3925
vn -0.5200 -0.7640 -0.3820
vn -0.5029 -0.6656 -0.5515
vn 0.9962 0.0649 -0.0577
vn -1.0000 0.0025 -0.0047
vn 0.9972 0.0305 -0.0679
vn -0.9730 -0.1970 0.1205
vn 0.9992 -0.0186 0.0358
vn 0.4443 0.7657 0.4651
vn 0.4653 -0.7487 -0.4722
vn -0.4445 -0.5841 0.6791
vn 0.4435 -0.8282 -0.3427
vn 0.4345 0.7768 0.4559
vn -0.3677 0.9298 0.0139
vn -0.4878 -0.7400 -0.4630
vn 0.9605 -0.1380 0.2417
vn -0.9991 0.0308 -0.0275
vn -0.9999 0.0041 -0.0092
vn 0.5470 0.7736 0.3199
vn 0.5002 -0.7740 -0.3883
vn -0.5000 0.7720 0.3925
vn -0.4826 -0.7896 -0.3790
vn -0.4841 -0.7489 -0.4525
vn -0.6151 0.7260 0.3076
vn 0.4746 -0.7398 -0.4769
vn 0.5526 0.7138 0.4303
vn -1.0000 -0.0000 0.0007
vn 0.9980 0.0261 -0.0580
vn 0.1411 -0.9822 0.1240
vn -0.4696 -0.4210 -0.7760
vn -0.0381 -0.9643 -0.2619
vn -0.6782 -0.0183 -0.7347
vn -0.1203 0.9914 0.0518
vn 0.3763 0.8648 0.3324
vn 0.1828 -0.9789 0.0909
vn 0.9028 -0.1385 0.4072
vn 0.0009 0.7745 -0.6326
vn 0.4999 -0.7859 -0.3639
vn 0.4963 0.8207 0.2829
vn -0.4545 0.8392 0.2986
vn -0.4690 -0.7992 -0.3760
vn 0.9992 0.0180 -0.0352
vn 0.9980 0.0229 -0.0588
vn -1.0000 0.0001 0.0007
vn 0.5386 0.7000 0.4690
vn 0.4796 -0.7143 -0.5098
vn -0.5004 0.7511 0.4307
vn -0.5156 -0.7179 -0.4678
vn 0.9980 0.0233 -0.0590
vn 0.4861 0.8398 0.2419
vn 0.4773 -0.7213 -0.5019
vn -0.5017 0.7894 0.3538
vn -0.5013 -0.7276 -0.4684
vn 0.2815 0.9561 0.0814
vn 0.2156 -0.9725 -0.0885
vn 0.7555 0.1433 0.6393
vn 0.8931 0.4499 -0.0000
vn 0.8377 -0.5461 -0.0000
vn 0.5488 0.8323 0.0777
vn 0.5165 -0.8562 -0.0132
vn -0.2171 0.8930 -0.3943
vn -0.2332 0.9724 -0.0047
vn -0.2282 0.8287 0.5111
vn -0.5362 0.7239 0.4341
vn -0.6140 0.7893 -0.0094
vn -0.5575 0.7416 -0.3731
vn -0.4335 0.6757 -0.5962
vn -0.2244 0.7535 -0.6180
vn -0.9486 0.1818 -0.2589
vn -0.9832 0.1706 0.0645
vn -0.9679 -0.1309 -0.2144
vn -0.9842 -0.1492 0.0957
vn -0.7191 0.4598 -0.5211
vn -0.8258 0.4724 -0.3080
vn -0.8791 0.4760 0.0239
vn -0.8176 0.4547 0.3533
vn -0.8813 0.1551 0.4463
vn -0.8704 -0.1617 0.4650
vn -0.7756 -0.4470 0.4457
vn -0.8474 -0.5145 0.1312
vn -0.8444 -0.5089 -0.1672
vn -0.7852 -0.4383 -0.4373
vn -0.8583 -0.1214 -0.4987
vn -0.8209 0.2013 -0.5345
vn -0.1488 -0.9784 0.1435
vn -0.5095 -0.7887 -0.3441
vn -0.5440 -0.8308 -0.1171
vn -0.5063 -0.8464 0.1648
vn -0.4808 -0.7739 0.4123
vn -0.1500 -0.8611 0.4857
vn -0.1482 -0.9172 -0.3698
vn -0.3082 0.2745 -0.9109
vn -0.3445 -0.1614 -0.9248
vn -0.2408 0.5577 -0.7943
vn -0.4461 0.4620 -0.7665
vn -0.5707 0.2336 -0.7872
vn -0.6232 -0.1271 -0.7717
vn -0.5828 -0.4680 -0.6643
vn -0.3026 -0.6356 -0.7102
vn -0.1783 0.1347 0.9747
vn -0.1652 -0.1814 0.9694
vn -0.5146 0.4458 0.7324
vn -0.1947 0.4737 0.8589
vn -0.1601 -0.5446 0.8233
vn -0.5064 -0.4648 0.7263
vn -0.5466 -0.1746 0.8190
vn -0.5630 0.1438 0.8139
vn -0.6237 0.6944 0.3588
vn -0.7220 0.5506 -0.4190
vn -0.3616 0.0569 -0.9306
vn 0.6237 -0.6944 -0.3588
vn -0.6532 -0.7421 0.1505
vn 0.7220 -0.5506 0.4190
vn 0.3616 -0.0569 0.9306
vn 0.6532 0.7421 -0.1505
vn -0.2782 0.9399 0.1981
vn -0.3636 -0.9261 -0.1004
vn -0.2608 -0.9561 -0.1338
vn -0.9032 -0.3988 -0.1590
vn -0.9466 0.3056 -0.1032
vn -0.1987 0.9770 -0.0767
vn -0.3402 -0.9396 -0.0378
vn -0.8883 -0.4070 0.2127
vn -0.8565 0.5043 -0.1099
vn -0.1181 0.9920 -0.0452
vn -0.4534 0.4553 0.7662
vn -0.2991 0.8454 0.4425
vn -0.5723 -0.2140 0.7916
vn -0.1365 -0.8646 0.4836
vn -0.6778 0.5975 0.4284
vn -0.9499 -0.3123 -0.0117
vn -0.4648 0.8380 0.2858
vn -0.8549 -0.3543 -0.3789
vn -0.9977 -0.0454 0.0502
vn 0.9801 0.1084 -0.1664
vn -0.8723 -0.4589 0.1688
vn 0.8530 -0.1824 -0.4890
vn 0.0042 0.9374 0.3482
vn -0.8314 0.3504 0.4314
vn 0.8478 0.5144 -0.1290
vn -0.0619 -0.8928 -0.4462
vn -0.8466 0.4207 0.3259
vn 0.8043 0.5476 -0.2307
vn -0.0006 -0.9772 -0.2124
vn -0.8908 -0.4156 0.1837
vn 0.8620 -0.2957 -0.4117
vn -0.0138 0.9863 0.1642
vn -0.2384 -0.2054 0.9492
vn 0.9590 -0.2720 0.0802
vn 0.0855 0.8932 0.4415
vn -0.2100 -0.0748 0.9748
vn 0.4534 0.5393 -0.7096
vn 0.1784 -0.8848 0.4305
vn -0.7723 0.3913 0.5004
vn 0.8228 0.2443 -0.5131
vn -0.0915 -0.9957 -0.0123
vn -0.8018 -0.3580 0.4785
vn 0.8288 0.0019 -0.5595
vn 0.1290 0.9638 0.2335
vn 0.9913 -0.0706 -0.1113
vn 0.3093 0.9501 0.0404
vn -0.9745 0.2183 -0.0522
vn 0.9811 0.1751 -0.0826
vn -0.2000 -0.9239 -0.3263
vn -0.9795 -0.1663 -0.1138
vn 0.9386 -0.2343 -0.2531
vn 0.1752 0.9830 -0.0551
vn -0.9920 0.0960 -0.0822
vn 0.5394 -0.8419 0.0116
vn 0.5886 -0.7712 -0.2424
vn 0.5754 -0.7955 -0.1900
vn -0.9911 0.0564 0.1205
vn 0.1066 0.9895 -0.0975
vn -0.0371 -0.2160 -0.9757
vn -0.9767 0.0458 0.2097
vn 0.1091 0.9879 -0.1102
vn 0.9220 -0.2406 -0.3035
vn -0.2269 -0.1595 0.9608
vn -0.2098 0.5177 0.8294
vn 0.0586 -0.6885 0.7229
vn -0.2354 0.0828 0.9684
vn 0.4942 0.0029 -0.8693
vn 0.4584 0.4233 -0.7815
vn -0.1740 -0.9223 -0.3451
vn 0.9492 0.1907 -0.2503
vn -0.6427 0.6071 0.4674
vn -0.1985 0.8918 0.4065
vn 0.9491 0.0211 -0.3142
vn -0.8931 -0.4167 0.1695
vn -0.0532 0.9844 0.1677
vn 0.7862 -0.2182 -0.5781
vn -0.8629 -0.4481 0.2336
vn 0.0235 -0.9697 -0.2433
vn 0.7865 0.5748 -0.2258
vn -0.8321 0.3832 0.4010
vn -0.4359 0.4673 -0.7692
vn -0.9944 -0.0574 -0.0890
vn -0.4368 -0.6911 0.5758
vn 0.4855 -0.6551 0.5789
vn 0.6555 -0.3241 0.6821
vn 0.3183 0.4972 -0.8072
vn -0.7116 0.6404 0.2890
vn -0.9956 0.0206 -0.0910
vn 0.9693 -0.1201 0.2147
vn -0.9990 0.0276 0.0354
vn -0.5768 0.5607 -0.5941
vn -0.3323 -0.4276 0.8407
vn -0.1428 0.0649 0.9876
vn -0.2773 -0.4888 0.8272
vn -0.5701 0.7746 -0.2738
vn -0.0517 0.8354 -0.5473
vn 0.6547 -0.3193 0.6851
vn -0.9172 0.2004 0.3443
vn 0.9995 0.0082 -0.0295
vn 0.9996 0.0063 -0.0283
vn -0.5421 0.8280 0.1431
vn -0.4911 -0.8362 -0.2440
vn 0.6129 0.7717 0.1696
vn 0.4222 -0.8768 -0.2302
vn 0.4167 -0.8626 0.2869
vn 0.4404 0.8119 0.3833
vn -0.4242 -0.8704 0.2499
vn -0.4646 0.8590 0.2153
vn 1.0000 0.0003 0.0006
vn -0.9980 -0.0005 -0.0629
vn 0.1189 -0.9851 0.1244
vn 0.0138 -0.4768 -0.8789
vn 0.1119 -0.9590 -0.2605
vn -0.1188 -0.0247 -0.9926
vn -0.3474 0.9298 0.1215
vn -0.3491 0.8792 0.3242
vn -0.3239 -0.9446 -0.0528
vn -0.8069 0.0207 0.5903
vn -0.0006 0.4088 -0.9126
vn -0.4995 -0.8450 -0.1907
vn -0.4974 0.8574 0.1324
vn 0.4974 0.8574 0.1324
vn 0.4996 -0.8449 -0.1914
vn -0.9995 0.0082 -0.0296
vn -0.9989 -0.0304 -0.0347
vn 1.0000 0.0005 -0.0001
vn -0.3032 0.0595 -0.9511
vn -0.5020 -0.6140 0.6091
vn 0.3786 0.1471 -0.9138
vn 0.4811 -0.5991 0.6400
vn -0.9987 -0.0196 -0.0468
vn 1.0000 0.0005 0.0004
vn -0.4932 0.7546 -0.4328
vn -0.4895 -0.6760 0.5509
vn 0.3385 0.3779 -0.8618
vn 0.4158 -0.6852 0.5979
vn -0.2665 0.9599 0.0870
vn -0.2627 -0.9618 -0.0773
vn -0.7578 0.1445 0.6363
vn -0.8931 0.4499 -0.0000
vn -0.8377 -0.5461 -0.0000
vn -0.5999 0.7948 0.0921
vn -0.5165 -0.8562 -0.0132
vn -0.3327 0.1270 -0.9345
vn 0.9794 -0.0096 -0.2015
vn 0.0220 0.6592 -0.7517
vn 0.1152 0.5086 -0.8533
vn 0.2158 0.8929 -0.3952
vn 0.2332 0.9724 -0.0047
vn 0.2114 0.8407 0.4986
vn 0.5362 0.7239 0.4341
vn 0.6140 0.7893 -0.0094
vn 0.5575 0.7416 -0.3731
vn 0.4895 0.6746 -0.5525
vn 0.2088 0.7506 -0.6269
vn 0.9486 0.1818 -0.2589
vn 0.9832 0.1706 0.0645
vn 0.9679 -0.1309 -0.2144
vn 0.9842 -0.1492 0.0957
vn 0.7191 0.4598 -0.5211
vn 0.8258 0.4724 -0.3080
vn 0.8791 0.4760 0.0239
vn 0.8171 0.4050 0.4103
vn 0.8813 0.1551 0.4463
vn 0.8704 -0.1617 0.4650
vn 0.7756 -0.4470 0.4457
vn 0.8474 -0.5145 0.1312
vn 0.8444 -0.5089 -0.1672
vn 0.7820 -0.4824 -0.3947
vn 0.8583 -0.1214 -0.4987
vn 0.8209 0.2013 -0.5345
vn 0.1806 -0.9804 -0.0786
vn 0.1607 -0.9818 -0.1015
vn 0.1488 -0.9784 0.1435
vn 0.5095 -0.7887 -0.3441
vn 0.5440 -0.8308 -0.1171
vn 0.5063 -0.8464 0.1648
vn 0.4448 -0.7758 0.4475
vn 0.1542 -0.8626 0.4818
vn 0.1482 -0.9172 -0.3698
vn 0.3082 0.2745 -0.9109
vn 0.3445 -0.1614 -0.9248
vn 0.2408 0.5577 -0.7943
vn 0.4461 0.4620 -0.7665
vn 0.5707 0.2336 -0.7872
vn 0.6232 -0.1271 -0.7717
vn 0.5828 -0.4680 -0.6643
vn 0.2683 -0.6184 -0.7387
vn 0.1783 0.1347 0.9747
vn 0.1652 -0.1814 0.9694
vn 0.5146 0.4458 0.7324
vn 0.1947 0.4737 0.8589
vn 0.1626 -0.5423 0.8243
vn 0.4611 -0.5075 0.7279
vn 0.5466 -0.1746 0.8190
vn 0.5630 0.1438 0.8139
vn -0.6237 -0.6944 -0.3588
vn 0.3449 0.9184 0.1939
vn 0.2893 -0.9511 0.1082
vn 0.2243 -0.9544 -0.1972
vn 0.8486 -0.4787 -0.2252
vn 0.8969 0.4263 -0.1178
vn 0.3151 0.9461 -0.0743
vn 0.1856 -0.9792 -0.0820
vn 0.9350 -0.3423 -0.0923
vn 0.9678 0.2175 0.1264
vn 0.3998 0.9157 -0.0418
vn 0.7059 0.4457 0.5505
vn 0.2592 0.8321 0.4903
vn 0.5252 -0.0806 0.8471
vn 0.0471 -0.8335 0.5504
vn 0.7683 0.6394 -0.0289
vn 0.9453 -0.2751 0.1752
vn 0.9067 0.4078 -0.1074
vn 0.3031 -0.9471 0.1053
vn -0.2246 -0.5518 -0.8032
vn 0.9954 0.0646 -0.0709
vn 0.8642 -0.2768 0.4202
vn -0.8999 -0.4090 -0.1511
vn -0.0074 0.9725 -0.2329
vn 0.8053 0.5605 0.1931
vn -0.8428 0.3482 -0.4104
vn 0.0681 -0.9889 0.1321
vn 0.8921 0.4519 0.0030
vn -0.8172 0.3134 -0.4837
vn -0.0052 -0.9065 0.4223
vn 0.9002 -0.2394 0.3637
vn -0.8745 -0.4728 -0.1086
vn 0.0002 0.8844 -0.4667
vn 0.5222 0.1769 0.8343
vn -0.9783 -0.1270 0.1636
vn -0.4978 0.8643 0.0722
vn 0.2526 0.5264 0.8119
vn -0.6768 -0.2147 -0.7041
vn -0.1526 -0.4399 0.8850
vn 0.7901 0.5989 0.1304
vn 0.0033 -0.8870 0.4617
vn 0.8246 -0.0112 0.5656
vn -0.1264 0.9108 -0.3930
vn -0.9927 -0.1185 0.0212
vn -0.3148 0.7867 -0.5311
vn 0.9811 0.0059 -0.1932
vn -0.9851 0.1089 -0.1331
vn -0.1575 -0.9646 0.2113
vn 0.9749 -0.2207 -0.0282
vn -0.1333 0.6855 -0.7158
vn 0.9828 -0.0261 -0.1828
vn -0.5318 -0.6522 0.5403
vn -0.5924 -0.7487 0.2975
vn -0.0035 -0.7632 -0.6461
vn 0.9875 0.1250 0.0963
vn -0.0542 0.7050 -0.7071
vn -0.9373 -0.3251 -0.1252
vn 0.2228 -0.1153 0.9680
vn 0.5591 0.6305 0.5384
vn 0.0160 -0.3523 0.9357
vn 0.4899 -0.0497 0.8704
vn -0.5314 -0.5141 -0.6733
vn -0.4952 -0.1271 -0.8594
vn 0.0320 -0.9816 0.1880
vn -0.9405 0.0365 -0.3378
vn 0.6548 0.7529 0.0670
vn 0.3308 0.9388 -0.0963
vn -0.9159 -0.3591 -0.1796
vn 0.8741 -0.2879 0.3912
vn -0.0273 0.9452 -0.3253
vn -0.8757 -0.4681 -0.1188
vn 0.8625 -0.2293 0.4512
vn -0.0381 -0.9225 0.3840
vn -0.7920 0.3385 -0.5081
vn 0.8239 0.5567 0.1061
vn 0.3644 0.9031 0.2273
vn 0.9944 0.0578 -0.0886
vn 0.4560 -0.7886 -0.4125
vn -0.5058 -0.7693 -0.3902
vn -0.5183 -0.7316 -0.4428
vn 1.0000 -0.0029 -0.0049
vn -0.9847 0.1424 0.1007
vn 0.9973 0.0336 -0.0659
vn -0.9689 -0.2028 -0.1422
vn 0.9990 -0.0194 0.0407
vn 0.4031 0.9111 0.0861
vn 0.4696 -0.7749 -0.4231
vn -0.4826 -0.2695 0.8334
vn -0.5570 -0.1179 0.8221
vn -0.3942 -0.2030 0.8963
vn 0.4653 -0.8479 -0.2540
vn 0.4300 0.7463 0.5080
vn 0.0785 0.8505 -0.5201
vn -0.4969 -0.7257 -0.4760
vn 0.9410 -0.1102 0.3201
vn -0.9992 0.0180 -0.0352
vn -0.9999 0.0046 -0.0090
vn 0.4993 0.7948 0.3449
vn 0.5405 -0.7466 -0.3880
vn -0.6168 0.7129 0.3337
vn -0.4990 -0.7798 -0.3780
vn -0.4771 -0.7893 -0.3864
vn -0.4971 0.7239 0.4784
vn 0.4756 -0.7196 -0.5060
vn 0.4941 0.7782 0.3876
vn -1.0000 -0.0003 0.0007
vn 0.9981 0.0228 -0.0576
vn -0.3291 -0.5090 -0.7954
vn 0.2509 -0.9677 0.0229
vn 0.3635 0.7536 0.5477
vn 0.3348 0.8350 0.4366
vn 0.2431 -0.9674 -0.0712
vn 0.8737 -0.1093 0.4740
vn 0.0010 0.7361 -0.6769
vn -0.0066 0.7771 -0.6294
vn -0.0785 0.7439 -0.6637
vn 0.4626 -0.8022 -0.3774
vn 0.4520 0.8402 0.2995
vn -0.4963 0.8207 0.2829
vn -0.4988 -0.7861 -0.3651
vn 0.9991 0.0326 -0.0264
vn 0.9980 0.0226 -0.0586
vn -1.0000 -0.0000 0.0008
vn 0.5269 0.7390 0.4199
vn 0.4797 -0.6983 -0.5313
vn -0.5146 0.6927 0.5054
vn -0.5116 -0.7511 -0.4173
vn 0.9980 0.0228 -0.0586
vn -1.0000 -0.0001 0.0008
vn 0.5422 0.7462 0.3863
vn 0.4743 -0.7044 -0.5281
vn -0.5261 0.8074 0.2673
vn -0.5038 -0.7674 -0.3965
vn 0.2821 0.9563 0.0765
vn 0.1767 -0.9842 0.0143
vn 0.7519 -0.3377 0.5662
vn 0.9080 -0.0951 0.4081
vn 0.8391 0.5429 0.0335
vn 0.5999 0.7948 0.0921
vn 0.5513 -0.8343 -0.0000
vn -0.2158 0.8929 -0.3952
vn -0.2309 0.9730 -0.0026
vn -0.2114 0.8407 0.4986
vn -0.5934 0.7171 0.3657
vn -0.6038 0.7971 0.0039
vn -0.5368 0.7678 -0.3497
vn -0.4895 0.6746 -0.5525
vn -0.2088 0.7506 -0.6269
vn -0.9488 0.1900 -0.2522
vn -0.9829 0.1719 0.0657
vn -0.9669 -0.1341 -0.2169
vn -0.9843 -0.1466 0.0981
vn -0.7198 0.4412 -0.5359
vn -0.8218 0.4872 -0.2955
vn -0.8739 0.4848 0.0339
vn -0.8171 0.4050 0.4103
vn -0.8793 0.1584 0.4492
vn -0.8717 -0.1659 0.4611
vn -0.7717 -0.4987 0.3948
vn -0.8452 -0.5193 0.1267
vn -0.8441 -0.5094 -0.1677
vn -0.7820 -0.4824 -0.3947
vn -0.8572 -0.1236 -0.4999
vn -0.8229 0.2097 -0.5281
vn -0.1607 -0.9818 -0.1015
vn -0.1806 -0.9804 -0.0786
vn -0.1564 -0.9765 0.1485
vn -0.4800 -0.7943 -0.3725
vn -0.5169 -0.8425 -0.1518
vn -0.4664 -0.8756 0.1262
vn -0.4448 -0.7758 0.4475
vn -0.1542 -0.8626 0.4818
vn -0.2261 -0.9220 -0.3144
vn -0.3148 0.2794 -0.9071
vn -0.3250 -0.1799 -0.9284
vn -0.2669 0.5681 -0.7785
vn -0.4934 0.5045 -0.7086
vn -0.5804 0.2495 -0.7751
vn -0.6137 -0.1420 -0.7766
vn -0.5175 -0.5489 -0.6564
vn -0.2683 -0.6184 -0.7387
vn -0.1733 0.1395 0.9749
vn -0.1703 -0.1865 0.9676
vn -0.5492 0.4099 0.7283
vn -0.1876 0.4801 0.8569
vn -0.1626 -0.5423 0.8243
vn -0.4611 -0.5075 0.7279
vn -0.5518 -0.1809 0.8141
vn -0.5611 0.1458 0.8148
vn -0.2783 0.9399 0.1981
vn -0.3823 -0.9212 -0.0723
vn -0.3356 -0.9225 -0.1906
vn -0.9396 -0.3204 -0.1200
vn -0.8441 0.4995 -0.1949
vn -0.2285 0.9681 -0.1030
vn -0.3814 -0.9212 -0.0768
vn -0.9859 -0.1541 -0.0656
vn -0.9266 0.3758 -0.0126
vn -0.2003 0.9722 -0.1214
vn -0.6298 0.3604 0.6881
vn -0.2757 0.8281 0.4881
vn -0.4270 -0.2890 0.8568
vn -0.0371 -0.8283 0.5590
vn -0.7582 0.6462 0.0873
vn -0.8678 -0.4486 0.2137
vn 0.6755 0.6866 0.2688
vn -0.5512 -0.8245 -0.1277
vn 0.7718 -0.0469 -0.6341
vn -0.7698 0.4489 -0.4537
vn -0.8884 -0.4361 0.1436
vn 0.9091 -0.2488 -0.3342
vn -0.0084 0.9604 0.2783
vn -0.8135 0.3573 0.4588
vn 0.8538 0.5106 -0.1015
vn -0.0562 -0.9041 -0.4236
vn -0.8822 0.3508 0.3141
vn 0.8404 0.4693 -0.2712
vn -0.0140 -0.9773 -0.2115
vn -0.8959 -0.4037 0.1855
vn 0.8597 -0.3035 -0.4109
vn -0.0012 0.9866 0.1634
vn -0.4854 -0.3686 0.7928
vn 0.9813 -0.1924 0.0108
vn 0.5174 0.6479 0.5590
vn -0.6108 0.3564 0.7070
vn 0.6442 0.2610 -0.7189
vn 0.5368 -0.6755 0.5055
vn -0.7897 0.0644 0.6101
vn -0.0028 -0.9855 -0.1699
vn -0.8661 -0.2279 0.4449
vn 0.2572 0.9663 -0.0052
vn 0.9902 -0.0993 -0.0979
vn 0.6851 0.7212 -0.1026
vn -0.9877 0.1139 -0.1075
vn 0.9652 0.2589 -0.0377
vn 0.1464 -0.8943 -0.4228
vn -0.9888 -0.0595 -0.1371
vn 0.1187 0.9800 -0.1597
vn -0.9895 0.0822 -0.1185
vn 0.5306 -0.8463 -0.0473
vn 0.5467 -0.7895 -0.2791
vn 0.2117 0.0797 -0.9741
vn -0.9802 0.0333 0.1950
vn 0.0404 0.9897 -0.1376
vn 0.9250 -0.1755 -0.3370
vn -0.2360 -0.1539 0.9595
vn -0.5591 0.6305 0.5384
vn -0.0364 -0.3819 0.9235
vn -0.4495 -0.0767 0.8900
vn 0.4780 0.0144 -0.8783
vn 0.5880 0.2546 -0.7678
vn -0.0523 -0.9011 -0.4304
vn 0.8817 0.4674 -0.0644
vn -0.8111 0.3254 0.4859
vn -0.0251 0.9549 0.2957
vn 0.9167 -0.1982 -0.3469
vn -0.8806 -0.4523 0.1416
vn 0.0237 0.9611 0.2751
vn 0.8626 -0.2957 -0.4105
vn -0.8913 -0.4155 0.1814
vn -0.0506 -0.9330 -0.3564
vn 0.7706 0.5676 -0.2898
vn -0.8212 0.3876 0.4188
vn -0.5861 0.4558 -0.6698
vn -0.9943 -0.0705 -0.0804
vn -0.5051 -0.6492 0.5687
vn 0.6996 -0.4806 0.5287
vn 0.6547 -0.3194 0.6851
vn 0.4581 0.4405 -0.7721
vn -0.5082 0.8200 0.2635
vn -0.9957 0.0249 -0.0893
vn 0.9848 -0.1483 0.0907
vn -0.9992 0.0226 0.0319
vn -0.5930 0.5868 -0.5514
vn -0.3706 -0.6305 0.6820
vn 0.6482 0.3185 0.6917
vn 0.5387 0.0407 0.8415
vn 0.5381 0.2471 0.8059
vn -0.3071 -0.7298 0.6108
vn -0.5826 0.8014 -0.1353
vn -0.0469 0.8522 -0.5212
vn 0.7568 -0.5643 0.3299
vn -0.9660 0.0050 0.2586
vn 0.9995 0.0120 -0.0282
vn 0.9996 0.0078 -0.0281
vn -0.4986 0.8517 0.1609
vn -0.5000 -0.8306 -0.2451
vn 0.4999 0.8397 0.2123
vn 0.5000 -0.8337 -0.2345
vn 0.5077 -0.8528 -0.1226
vn 0.6100 0.7821 0.1273
vn -0.5005 -0.8341 -0.2321
vn -0.5485 0.7729 0.3190
vn 1.0000 -0.0002 0.0009
vn -0.9975 0.0156 -0.0690
vn -0.2078 -0.6099 -0.7647
vn -0.0185 -0.4999 0.8659
vn -0.2462 0.9679 0.0506
vn -0.2932 0.8472 0.4430
vn -0.2531 -0.9633 0.0895
vn -0.8898 -0.0723 0.4506
vn -0.0005 0.4641 -0.8858
vn 0.0342 0.3907 -0.9199
vn 0.0051 0.4117 -0.9113
vn -0.4946 -0.8477 -0.1920
vn -0.4852 0.8638 0.1357
vn 0.4864 0.8632 0.1354
vn 0.5003 -0.8445 -0.1913
vn -0.9995 0.0127 -0.0280
vn -0.9935 -0.0440 -0.1053
vn 1.0000 0.0006 0.0007
vn 0.1255 -0.4210 -0.8984
vn -0.4941 -0.5992 0.6299
vn -0.0898 -0.4293 -0.8987
vn 0.4337 -0.5118 0.7416
vn -0.9931 -0.0009 -0.1171
vn 1.0000 0.0003 0.0012
vn -0.1749 0.3580 -0.9172
vn -0.5036 -0.7118 0.4896
vn 0.4081 0.7632 -0.5010
vn 0.4495 -0.8082 0.3806
vn -0.2691 0.9600 0.0768
vn -0.2677 -0.9595 -0.0873
vn -0.9002 -0.0693 0.4299
vn -0.7408 -0.3436 0.5772
vn -0.8391 0.5429 0.0335
vn -0.5488 0.8323 0.0777
vn -0.5513 -0.8343 -0.0000
vn -0.9857 0.1620 0.0471
vn 0.8680 -0.1931 -0.4575
vn -0.7360 0.6760 0.0351
vn 0.2531 0.6499 -0.7167
vt 0.500000 0.375000
vt 0.437500 0.437500
vt 0.437500 0.375000
vt 0.562500 0.437500
vt 0.500000 0.437500
vt 0.625000 0.375000
vt 0.562500 0.375000
vt 0.625000 0.500000
vt 0.562500 0.500000
vt 0.500000 0.500000
vt 0.437500 0.500000
vt 0.375000 0.500000
vt 0.375000 0.437500
vt 0.375000 0.375000
vt 0.437500 0.562500
vt 0.500000 0.625000
vt 0.437500 0.625000
vt 0.500000 0.562500
vt 0.562500 0.625000
vt 0.500000 0.687500
vt 0.437500 0.687500
vt 0.562500 0.687500
vt 0.375000 0.562500
vt 0.562500 0.562500
vt 0.625000 0.625000
vt 0.625000 0.687500
vt 0.625000 0.750000
vt 0.562500 0.750000
vt 0.500000 0.750000
vt 0.437500 0.750000
vt 0.375000 0.750000
vt 0.375000 0.687500
vt 0.375000 0.625000
vt 0.500000 0.875000
vt 0.468750 0.875000
vt 0.437500 0.875000
vt 0.500000 0.812500
vt 0.562500 0.875000
vt 0.437500 0.812500
vt 0.375000 0.812500
vt 0.562500 0.812500
vt 0.625000 0.812500
vt 0.375000 0.875000
vt 0.250000 0.562500
vt 0.312500 0.625000
vt 0.250000 0.625000
vt 0.312500 0.687500
vt 0.250000 0.687500
vt 0.250000 0.500000
vt 0.312500 0.562500
vt 0.312500 0.500000
vt 0.312500 0.750000
vt 0.250000 0.750000
vt 0.687500 0.562500
vt 0.750000 0.625000
vt 0.687500 0.625000
vt 0.750000 0.687500
vt 0.687500 0.687500
vt 0.625000 0.562500
vt 0.687500 0.500000
vt 0.750000 0.562500
vt 0.687500 0.750000
vt 1.000000 0.500000
vt 0.833333 1.000000
vt 0.833333 0.500000
vt 0.666667 1.000000
vt 0.666667 0.500000
vt 0.500000 1.000000
vt 0.500000 0.500000
vt 0.333333 0.500000
vt 0.042154 0.130000
vt 0.250000 0.010000
vt 0.457846 0.130000
vt 0.333333 1.000000
vt 0.166667 0.500000
vt 0.166667 1.000000
vt -0.000000 0.500000
vt 0.542154 0.130000
vt 0.542154 0.370000
vt 0.957846 0.370000
vt 1.000000 0.828637
vt 0.875000 1.000000
vt 0.875000 0.828637
vt 0.625000 0.828637
vt 0.500000 1.000000
vt 0.500000 0.828637
vt 0.625000 0.645722
vt 0.500000 0.500000
vt 0.750000 0.500000
vt 0.875000 0.645722
vt 0.875000 0.500000
vt 0.500000 0.645722
vt 0.750000 0.828637
vt 0.750000 0.645722
vt 1.000000 0.645722
vt 0.750000 1.000000
vt 1.000000 1.000000
vt 0.625000 1.000000
vt 0.749520 0.964446
vt 0.653402 0.965669
vt 0.844587 0.863513
vt 0.844268 0.965118
vt 0.647775 0.863148
vt 0.750840 0.864057
vt 0.749520 0.964446
vt 0.750840 0.864057
vt 0.647775 0.863149
vt 0.844587 0.863513
vt 0.844267 0.965117
vt 0.653402 0.965669
vt 0.749520 0.964446
vt 0.844268 0.965117
vt 0.750840 0.864057
vt 0.653402 0.965669
vt 0.844587 0.863513
vt 0.000000 0.000000
vt 0.833333 0.500000
vt -0.000000 1.000000
vt 0.500000 0.500000
vt 0.500000 0.500000
vt 0.166667 0.500000
vt -0.000000 0.500000
vt 0.833333 0.500000
vt 0.042154 0.370000
vt 0.457846 0.370000
vt 0.750000 0.010000
vt 0.333333 0.500000
vt 0.457846 0.250000
vt 0.625000 0.437500
vt 0.750000 0.500000
vt 0.957846 0.130000
vt 0.250000 0.490000
vt 0.625000 0.875000
vt 0.750000 0.750000
vt 0.250000 0.490000
vt 0.750000 0.490000
vt 0.750000 0.490000
s 0
f 26/1/1 28/2/1 25/3/1
f 26/1/2 30/4/2 29/5/2
f 7/6/3 30/4/3 27/7/3
f 30/4/4 4/8/4 9/9/4
f 29/5/5 9/9/5 10/10/5
f 28/2/6 10/10/6 11/11/6
f 28/2/7 3/12/7 5/13/7
f 25/3/8 5/13/8 6/14/8
f 31/15/9 35/16/9 34/17/9
f 32/18/10 36/19/10 35/16/10
f 34/17/11 38/20/11 37/21/11
f 35/16/12 39/22/12 38/20/12
f 3/12/13 31/15/13 14/23/13
f 11/11/14 32/18/14 31/15/14
f 10/10/15 33/24/15 32/18/15
f 4/8/16 33/24/16 9/9/16
f 33/24/17 16/25/17 36/19/17
f 36/19/18 17/26/18 39/22/18
f 39/22/19 2/27/19 18/28/19
f 38/20/20 18/28/20 19/29/20
f 37/21/21 19/29/21 20/30/21
f 37/21/22 1/31/22 12/32/22
f 13/33/23 37/21/23 12/32/23
f 14/23/24 34/17/24 13/33/24
f 44/34/25 58/35/25 43/36/25
f 41/37/26 45/38/26 44/34/26
f 1/31/27 40/39/27 22/40/27
f 20/30/28 41/37/28 40/39/28
f 19/29/29 42/41/29 41/37/29
f 2/27/30 42/41/30 18/28/30
f 23/42/31 45/38/31 42/41/31
f 22/40/32 43/36/32 21/43/32
f 46/44/33 49/45/33 48/46/33
f 48/46/34 51/47/34 50/48/34
f 6/49/35 47/50/35 46/44/35
f 5/51/36 14/23/36 47/50/36
f 47/50/37 13/33/37 49/45/37
f 49/45/38 12/32/38 51/47/38
f 51/47/39 1/31/39 22/52/39
f 51/47/40 21/53/40 50/48/40
f 52/54/41 55/55/41 54/56/41
f 54/56/42 57/57/42 56/58/42
f 4/8/43 52/54/43 15/59/43
f 8/60/44 53/61/44 52/54/44
f 57/57/45 23/62/45 56/58/45
f 56/58/46 2/27/46 17/26/46
f 16/25/47 56/58/47 17/26/47
f 15/59/48 54/56/48 16/25/48
f 59/63/49 62/64/49 61/65/49
f 61/65/50 64/66/50 63/67/50
f 63/67/51 66/68/51 65/69/51
f 66/68/52 67/70/52 65/69/52
f 68/71/53 66/72/53 64/73/53
f 68/74/54 69/75/54 67/70/54
f 70/76/55 59/77/55 69/75/55
f 67/78/56 69/79/56 61/80/56
f 86/81/57 97/82/57 99/83/57
f 100/84/58 80/85/58 90/86/58
f 84/87/59 79/88/59 77/8/59
f 75/89/60 84/87/60 77/8/60
f 82/90/61 75/89/61 73/91/61
f 71/63/62 82/90/62 73/91/62
f 100/84/63 85/92/63 84/87/63
f 101/93/64 84/87/64 83/94/64
f 99/83/65 83/94/65 82/90/65
f 81/95/66 99/83/66 82/90/66
f 97/82/67 93/96/67 96/96/67
f 72/97/68 92/82/68 97/82/68
f 98/98/69 93/96/69 94/98/69
f 80/85/70 94/98/70 95/85/70
f 76/99/71 97/82/71 96/96/71
f 78/100/72 96/96/72 98/98/72
f 87/101/73 97/82/73 74/102/73
f 78/100/74 100/84/74 89/103/74
f 89/103/75 101/93/75 88/104/75
f 87/101/76 101/93/76 99/83/76
f 150/105/77 104/100/77 103/99/77
f 151/106/78 107/103/78 152/107/78
f 154/108/79 102/102/79 105/101/79
f 150/105/80 102/102/80 153/109/80
f 151/106/81 105/101/81 106/104/81
f 152/107/82 104/100/82 149/110/82
f 155/111/83 108/102/83 156/112/83
f 158/113/84 111/101/84 112/104/84
f 160/114/85 113/103/85 110/100/85
f 155/111/86 110/100/86 109/99/86
f 158/113/87 113/103/87 159/107/87
f 156/112/88 111/101/88 157/115/88
f 110/100/89 115/99/89 109/99/89
f 112/104/90 133/103/90 113/103/90
f 108/102/91 117/101/91 111/101/91
f 108/102/92 115/99/92 114/102/92
f 111/101/93 118/104/93 112/104/93
f 110/100/94 119/103/94 116/100/94
f 114/102/95 121/99/95 120/102/95
f 117/101/96 124/104/96 118/104/96
f 119/103/97 122/100/97 116/100/97
f 115/99/98 122/100/98 121/99/98
f 119/103/99 124/104/99 125/103/99
f 117/101/100 120/102/100 123/101/100
f 124/104/101 131/103/101 125/103/101
f 123/101/102 126/102/102 129/101/102
f 121/99/103 126/102/103 120/102/103
f 124/104/104 129/101/104 130/104/104
f 125/103/105 128/100/105 122/100/105
f 121/99/106 128/100/106 127/99/106
f 132/104/107 137/103/107 133/103/107
f 118/104/108 132/104/108 112/104/108
f 119/103/109 134/104/109 118/104/109
f 119/103/110 133/103/110 135/103/110
f 139/103/111 141/103/111 143/103/111
f 135/103/112 137/103/112 139/103/112
f 135/103/113 138/104/113 134/104/113
f 134/104/114 136/104/114 132/104/114
f 141/103/115 142/104/115 143/103/115
f 139/103/116 142/104/116 138/104/116
f 138/104/117 140/104/117 136/104/117
f 136/104/118 141/103/118 137/103/118
f 94/98/119 146/96/119 147/98/119
f 91/97/120 145/82/120 92/82/120
f 94/98/121 148/85/121 95/85/121
f 92/82/122 146/96/122 93/96/122
f 128/100/123 130/104/123 127/99/123
f 127/99/124 129/101/124 126/102/124
f 89/103/125 149/110/125 78/100/125
f 88/104/126 154/108/126 151/106/126
f 74/102/127 150/105/127 153/109/127
f 87/101/128 153/109/128 154/108/128
f 88/104/129 152/107/129 89/103/129
f 78/100/130 150/105/130 76/99/130
f 102/102/131 157/115/131 105/101/131
f 106/104/132 159/107/132 107/103/132
f 103/99/133 160/114/133 155/111/133
f 104/100/134 159/107/134 160/114/134
f 106/104/135 157/115/135 158/113/135
f 103/99/136 156/112/136 102/102/136
f 162/97/137 163/65/137 161/63/137
f 163/65/138 166/66/138 165/67/138
f 165/67/139 168/68/139 167/69/139
f 168/68/140 169/70/140 167/69/140
f 170/74/141 175/68/141 176/74/141
f 368/74/142 369/75/142 416/116/142
f 170/74/143 171/75/143 169/70/143
f 190/67/144 185/65/144 191/117/144
f 177/76/145 182/74/145 183/76/145
f 164/64/146 174/66/146 166/66/146
f 164/64/147 172/97/147 173/64/147
f 166/66/148 175/68/148 168/68/148
f 182/71/149 181/72/149 180/73/149
f 174/66/150 181/68/150 175/68/150
f 173/64/151 178/97/151 179/64/151
f 177/76/152 178/118/152 172/118/152
f 175/68/153 182/74/153 176/74/153
f 173/64/154 180/66/154 174/66/154
f 188/70/155 210/75/155 209/70/155
f 192/75/156 188/70/156 193/70/156
f 191/117/157 184/63/157 194/63/157
f 190/67/158 187/69/158 186/67/158
f 192/75/159 184/77/159 189/75/159
f 193/70/160 187/69/160 195/119/160
f 221/70/161 195/119/161 219/120/161
f 218/121/162 194/122/162 192/75/162
f 217/67/163 195/119/163 190/67/163
f 222/63/164 191/117/164 194/63/164
f 218/121/165 193/70/165 221/70/165
f 220/123/166 190/67/166 191/117/166
f 183/76/167 178/118/167 200/116/167
f 182/116/168 197/116/168 196/116/168
f 181/116/169 198/116/169 197/116/169
f 196/116/170 183/124/170 182/71/170
f 199/116/171 178/116/171 200/116/171
f 199/116/172 201/116/172 179/116/172
f 198/116/173 202/116/173 203/116/173
f 179/125/174 202/73/174 180/73/174
f 206/80/175 208/126/175 210/79/175
f 187/69/176 207/67/176 186/67/176
f 185/65/177 205/63/177 184/63/177
f 189/75/178 205/77/178 210/75/178
f 187/69/179 209/70/179 208/69/179
f 186/67/180 206/65/180 185/65/180
f 163/65/181 214/67/181 211/123/181
f 171/75/182 212/127/182 169/70/182
f 161/63/183 211/123/183 213/63/183
f 165/67/184 216/69/184 214/67/184
f 161/77/185 215/121/185 171/75/185
f 169/70/186 216/69/186 167/69/186
f 211/123/187 217/67/187 220/123/187
f 215/121/182 221/70/182 212/127/182
f 213/63/188 220/123/188 222/63/188
f 214/67/189 219/120/189 217/67/189
f 215/121/190 222/77/190 218/121/190
f 212/127/191 219/120/191 216/69/191
f 204/116/192 73/116/192 201/116/192
f 203/116/193 77/116/193 79/116/193
f 201/125/194 73/125/194 75/128/194
f 145/82/195 225/96/195 146/96/195
f 146/96/196 226/98/196 147/98/196
f 145/82/197 223/97/197 224/82/197
f 147/98/198 227/85/198 148/85/198
f 248/2/199 26/1/199 25/3/199
f 26/1/200 250/4/200 27/7/200
f 250/4/201 7/6/201 27/7/201
f 250/4/202 231/8/202 233/129/202
f 249/5/203 234/9/203 250/4/203
f 248/2/204 235/10/204 249/5/204
f 230/12/205 248/2/205 232/13/205
f 232/13/206 25/3/206 6/14/206
f 251/15/207 255/16/207 252/18/207
f 252/18/208 256/19/208 253/24/208
f 254/17/209 258/20/209 255/16/209
f 255/16/210 259/22/210 256/19/210
f 230/12/211 251/15/211 236/11/211
f 236/11/212 252/18/212 235/10/212
f 235/10/213 253/24/213 234/9/213
f 253/24/214 231/8/214 234/9/214
f 253/24/215 241/25/215 240/59/215
f 256/19/216 242/26/216 241/25/216
f 259/22/217 229/27/217 242/26/217
f 258/20/218 243/28/218 259/22/218
f 257/21/219 244/29/219 258/20/219
f 228/31/220 257/21/220 237/32/220
f 238/33/221 257/21/221 254/17/221
f 239/23/222 254/17/222 251/15/222
f 261/37/223 45/38/223 262/41/223
f 228/31/224 260/39/224 245/30/224
f 245/30/225 261/37/225 244/29/225
f 244/29/226 262/41/226 243/28/226
f 262/41/227 229/27/227 243/28/227
f 45/38/228 247/42/228 262/41/228
f 246/40/229 43/36/229 260/39/229
f 46/44/230 264/45/230 263/50/230
f 48/46/231 265/47/231 264/45/231
f 6/49/232 263/50/232 232/51/232
f 232/51/233 239/23/233 230/12/233
f 263/50/234 238/33/234 239/23/234
f 264/45/235 237/32/235 238/33/235
f 265/47/236 228/31/236 237/32/236
f 21/53/237 265/47/237 50/48/237
f 266/54/238 55/55/238 53/61/238
f 267/56/239 57/57/239 55/55/239
f 231/8/240 266/54/240 233/60/240
f 233/60/241 53/61/241 7/130/241
f 247/62/242 57/57/242 268/58/242
f 229/27/243 268/58/243 242/26/243
f 241/25/244 268/58/244 267/56/244
f 240/59/245 267/56/245 266/54/245
f 269/63/246 272/64/246 270/97/246
f 271/65/247 274/66/247 272/64/247
f 273/67/248 276/68/248 274/66/248
f 277/70/249 276/68/249 275/69/249
f 278/71/250 280/124/250 274/73/250
f 279/75/251 278/74/251 277/70/251
f 269/77/252 280/76/252 279/75/252
f 271/80/253 277/78/253 273/131/253
f 86/81/254 297/82/254 72/97/254
f 300/84/255 80/85/255 298/98/255
f 79/88/256 289/87/256 285/8/256
f 283/89/257 289/87/257 288/94/257
f 283/89/258 287/90/258 281/91/258
f 71/63/259 287/90/259 81/95/259
f 85/92/260 300/84/260 289/87/260
f 289/87/261 301/93/261 288/94/261
f 288/94/262 299/83/262 287/90/262
f 81/95/263 299/83/263 86/81/263
f 294/96/264 297/82/264 296/96/264
f 293/82/265 72/97/265 297/82/265
f 298/98/266 294/96/266 296/96/266
f 80/85/267 295/98/267 298/98/267
f 284/99/268 297/82/268 282/102/268
f 286/100/269 296/96/269 284/99/269
f 297/82/270 290/101/270 282/102/270
f 300/84/271 286/100/271 292/103/271
f 301/93/272 292/103/272 291/104/272
f 290/101/273 301/93/273 291/104/273
f 348/105/274 304/100/274 347/110/274
f 307/103/275 349/106/275 350/107/275
f 352/108/276 302/102/276 351/109/276
f 302/102/277 348/105/277 351/109/277
f 349/106/278 305/101/278 352/108/278
f 304/100/279 350/107/279 347/110/279
f 308/102/280 353/111/280 354/112/280
f 356/113/281 311/101/281 355/115/281
f 358/114/282 313/103/282 357/107/282
f 353/111/283 310/100/283 358/114/283
f 313/103/284 356/113/284 357/107/284
f 311/101/285 354/112/285 355/115/285
f 315/99/286 310/100/286 309/99/286
f 333/103/287 312/104/287 313/103/287
f 317/101/288 308/102/288 311/101/288
f 308/102/289 315/99/289 309/99/289
f 318/104/290 311/101/290 312/104/290
f 310/100/291 319/103/291 313/103/291
f 314/102/292 321/99/292 315/99/292
f 324/104/293 317/101/293 318/104/293
f 322/100/294 319/103/294 316/100/294
f 315/99/295 322/100/295 316/100/295
f 319/103/296 324/104/296 318/104/296
f 317/101/297 320/102/297 314/102/297
f 331/103/298 324/104/298 325/103/298
f 323/101/299 326/102/299 320/102/299
f 326/102/300 321/99/300 320/102/300
f 324/104/301 329/101/301 323/101/301
f 328/100/302 325/103/302 322/100/302
f 321/99/303 328/100/303 322/100/303
f 337/103/304 332/104/304 333/103/304
f 332/104/305 318/104/305 312/104/305
f 334/104/306 319/103/306 318/104/306
f 319/103/307 333/103/307 313/103/307
f 339/103/308 341/103/308 337/103/308
f 335/103/309 337/103/309 333/103/309
f 338/104/310 335/103/310 334/104/310
f 336/104/311 334/104/311 332/104/311
f 341/103/312 342/104/312 340/104/312
f 342/104/313 339/103/313 338/104/313
f 340/104/314 338/104/314 336/104/314
f 341/103/315 336/104/315 337/103/315
f 295/98/316 345/96/316 294/96/316
f 344/82/317 91/97/317 293/82/317
f 148/85/318 295/98/318 95/85/318
f 345/96/319 293/82/319 294/96/319
f 328/100/320 330/104/320 331/103/320
f 327/99/321 329/101/321 330/104/321
f 347/110/322 292/103/322 286/100/322
f 291/104/323 352/108/323 290/101/323
f 282/102/324 348/105/324 284/99/324
f 290/101/325 351/109/325 282/102/325
f 350/107/326 291/104/326 292/103/326
f 348/105/327 286/100/327 284/99/327
f 355/115/328 302/102/328 305/101/328
f 357/107/329 306/104/329 307/103/329
f 303/99/330 358/114/330 304/100/330
f 304/100/331 357/107/331 307/103/331
f 306/104/332 355/115/332 305/101/332
f 354/112/333 303/99/333 302/102/333
f 361/65/334 360/97/334 359/63/334
f 361/65/335 364/66/335 362/64/335
f 363/67/336 366/68/336 364/66/336
f 367/70/337 366/68/337 365/69/337
f 368/74/338 373/68/338 366/68/338
f 416/116/339 359/63/339 360/97/339
f 162/97/340 171/75/340 415/116/340
f 381/65/341 386/67/341 387/117/341
f 177/76/342 379/74/342 374/74/342
f 372/66/343 362/64/343 364/66/343
f 362/64/344 370/97/344 360/97/344
f 373/68/345 364/66/345 366/68/345
f 379/71/346 183/124/346 375/132/346
f 378/68/347 372/66/347 373/68/347
f 371/64/348 375/97/348 370/97/348
f 375/118/349 177/76/349 370/118/349
f 379/74/350 373/68/350 374/74/350
f 377/66/351 371/64/351 372/66/351
f 384/70/352 399/75/352 385/75/352
f 384/70/353 388/75/353 389/70/353
f 380/63/354 387/117/354 390/63/354
f 386/67/355 383/69/355 391/119/355
f 388/75/356 380/77/356 390/122/356
f 383/69/357 389/70/357 391/119/357
f 391/119/358 410/70/358 408/120/358
f 407/121/359 390/122/359 411/77/359
f 406/67/360 391/119/360 408/120/360
f 411/63/361 387/117/361 409/123/361
f 389/70/362 407/121/362 410/70/362
f 409/123/363 386/67/363 406/67/363
f 183/76/364 200/116/364 375/118/364
f 197/116/365 379/116/365 196/116/365
f 198/116/366 378/116/366 197/116/366
f 196/116/367 379/71/367 183/124/367
f 199/116/368 375/116/368 376/116/368
f 392/116/369 199/116/369 376/116/369
f 198/116/370 393/116/370 377/116/370
f 393/73/371 376/125/371 377/73/371
f 399/79/372 397/126/372 395/80/372
f 396/67/373 383/69/373 382/67/373
f 394/63/374 381/65/374 380/63/374
f 385/75/375 394/77/375 380/77/375
f 383/69/376 398/70/376 384/70/376
f 395/65/377 382/67/377 381/65/377
f 361/65/378 403/67/378 363/67/378
f 401/127/379 369/75/379 367/70/379
f 359/63/380 400/123/380 361/65/380
f 363/67/381 405/69/381 365/69/381
f 404/121/382 359/77/382 369/75/382
f 405/69/383 367/70/383 365/69/383
f 400/123/384 406/67/384 403/67/384
f 410/70/385 404/121/385 401/127/385
f 402/63/386 409/123/386 400/123/386
f 403/67/387 408/120/387 405/69/387
f 404/121/388 411/77/388 402/77/388
f 408/120/389 401/127/389 405/69/389
f 281/116/390 204/116/390 392/116/390
f 203/116/391 285/116/391 393/116/391
f 283/128/392 281/125/392 392/125/392
f 413/96/393 344/82/393 345/96/393
f 414/98/394 345/96/394 346/98/394
f 344/82/395 223/97/395 144/97/395
f 227/85/396 346/98/396 148/85/396
f 415/116/397 176/74/397 177/76/397
f 416/116/398 374/74/398 368/74/398
f 172/118/399 415/116/399 177/76/399
f 416/116/400 370/118/400 177/76/400
f 26/1/401 29/5/401 28/2/401
f 26/1/402 27/7/402 30/4/402
f 7/6/403 8/129/403 30/4/403
f 30/4/404 8/129/404 4/8/404
f 29/5/405 30/4/405 9/9/405
f 28/2/406 29/5/406 10/10/406
f 28/2/407 11/11/407 3/12/407
f 25/3/408 28/2/408 5/13/408
f 31/15/409 32/18/409 35/16/409
f 32/18/410 33/24/410 36/19/410
f 34/17/411 35/16/411 38/20/411
f 35/16/412 36/19/412 39/22/412
f 3/12/413 11/11/413 31/15/413
f 11/11/414 10/10/414 32/18/414
f 10/10/415 9/9/415 33/24/415
f 4/8/416 15/59/416 33/24/416
f 33/24/417 15/59/417 16/25/417
f 36/19/418 16/25/418 17/26/418
f 39/22/419 17/26/419 2/27/419
f 38/20/420 39/22/420 18/28/420
f 37/21/421 38/20/421 19/29/421
f 37/21/422 20/30/422 1/31/422
f 13/33/423 34/17/423 37/21/423
f 14/23/424 31/15/424 34/17/424
f 43/36/425 40/39/425 44/34/425
f 40/39/426 41/37/426 44/34/426
f 41/37/427 42/41/427 45/38/427
f 1/31/428 20/30/428 40/39/428
f 20/30/429 19/29/429 41/37/429
f 19/29/430 18/28/430 42/41/430
f 2/27/431 23/42/431 42/41/431
f 23/42/432 24/133/432 45/38/432
f 22/40/433 40/39/433 43/36/433
f 46/44/434 47/50/434 49/45/434
f 48/46/435 49/45/435 51/47/435
f 6/49/436 5/51/436 47/50/436
f 5/51/437 3/12/437 14/23/437
f 47/50/438 14/23/438 13/33/438
f 49/45/439 13/33/439 12/32/439
f 51/47/440 12/32/440 1/31/440
f 51/47/441 22/52/441 21/53/441
f 52/54/442 53/61/442 55/55/442
f 54/56/443 55/55/443 57/57/443
f 4/8/444 8/60/444 52/54/444
f 8/60/445 7/130/445 53/61/445
f 57/57/446 24/134/446 23/62/446
f 56/58/447 23/62/447 2/27/447
f 16/25/448 54/56/448 56/58/448
f 15/59/449 52/54/449 54/56/449
f 59/63/49 60/97/49 62/64/49
f 61/65/50 62/64/50 64/66/50
f 63/67/51 64/66/51 66/68/51
f 66/68/450 68/74/450 67/70/450
f 64/73/53 62/125/53 68/71/53
f 62/125/53 60/135/53 70/124/53
f 68/71/53 62/125/53 70/124/53
f 68/74/54 70/76/54 69/75/54
f 70/76/55 60/118/55 59/77/55
f 69/79/56 59/136/56 61/80/56
f 61/80/56 63/131/56 67/78/56
f 63/131/56 65/126/56 67/78/56
f 86/81/451 72/97/451 97/82/451
f 100/84/452 98/98/452 80/85/452
f 84/87/453 85/92/453 79/88/453
f 75/89/454 83/94/454 84/87/454
f 82/90/455 83/94/455 75/89/455
f 71/63/456 81/95/456 82/90/456
f 100/84/457 90/86/457 85/92/457
f 101/93/458 100/84/458 84/87/458
f 99/83/459 101/93/459 83/94/459
f 81/95/460 86/81/460 99/83/460
f 97/82/461 92/82/461 93/96/461
f 72/97/462 91/97/462 92/82/462
f 98/98/463 96/96/463 93/96/463
f 80/85/464 98/98/464 94/98/464
f 76/99/465 74/102/465 97/82/465
f 78/100/466 76/99/466 96/96/466
f 87/101/467 99/83/467 97/82/467
f 78/100/468 98/98/468 100/84/468
f 89/103/469 100/84/469 101/93/469
f 87/101/470 88/104/470 101/93/470
f 150/105/471 149/110/471 104/100/471
f 151/106/472 106/104/472 107/103/472
f 154/108/473 153/109/473 102/102/473
f 150/105/474 103/99/474 102/102/474
f 151/106/475 154/108/475 105/101/475
f 152/107/476 107/103/476 104/100/476
f 155/111/477 109/99/477 108/102/477
f 158/113/478 157/115/478 111/101/478
f 160/114/479 159/107/479 113/103/479
f 155/111/480 160/114/480 110/100/480
f 158/113/481 112/104/481 113/103/481
f 156/112/482 108/102/482 111/101/482
f 110/100/483 116/100/483 115/99/483
f 112/104/484 132/104/484 133/103/484
f 108/102/485 114/102/485 117/101/485
f 108/102/486 109/99/486 115/99/486
f 111/101/487 117/101/487 118/104/487
f 110/100/488 113/103/488 119/103/488
f 114/102/489 115/99/489 121/99/489
f 117/101/96 123/101/96 124/104/96
f 119/103/490 125/103/490 122/100/490
f 115/99/491 116/100/491 122/100/491
f 119/103/99 118/104/99 124/104/99
f 117/101/492 114/102/492 120/102/492
f 124/104/493 130/104/493 131/103/493
f 123/101/494 120/102/494 126/102/494
f 121/99/495 127/99/495 126/102/495
f 124/104/496 123/101/496 129/101/496
f 125/103/497 131/103/497 128/100/497
f 121/99/498 122/100/498 128/100/498
f 132/104/107 136/104/107 137/103/107
f 118/104/499 134/104/499 132/104/499
f 119/103/500 135/103/500 134/104/500
f 119/103/501 113/103/501 133/103/501
f 139/103/502 137/103/502 141/103/502
f 135/103/112 133/103/112 137/103/112
f 135/103/113 139/103/113 138/104/113
f 134/104/114 138/104/114 136/104/114
f 141/103/503 140/104/503 142/104/503
f 139/103/504 143/103/504 142/104/504
f 138/104/505 142/104/505 140/104/505
f 136/104/506 140/104/506 141/103/506
f 94/98/507 93/96/507 146/96/507
f 91/97/508 144/97/508 145/82/508
f 94/98/509 147/98/509 148/85/509
f 92/82/510 145/82/510 146/96/510
f 128/100/511 131/103/511 130/104/511
f 127/99/512 130/104/512 129/101/512
f 89/103/513 152/107/513 149/110/513
f 88/104/514 87/101/514 154/108/514
f 74/102/515 76/99/515 150/105/515
f 87/101/516 74/102/516 153/109/516
f 88/104/517 151/106/517 152/107/517
f 78/100/518 149/110/518 150/105/518
f 102/102/519 156/112/519 157/115/519
f 106/104/520 158/113/520 159/107/520
f 103/99/521 104/100/521 160/114/521
f 104/100/522 107/103/522 159/107/522
f 106/104/523 105/101/523 157/115/523
f 103/99/524 155/111/524 156/112/524
f 162/97/525 164/64/525 163/65/525
f 163/65/526 164/64/526 166/66/526
f 165/67/527 166/66/527 168/68/527
f 168/68/528 170/74/528 169/70/528
f 170/74/529 168/68/529 175/68/529
f 368/74/530 367/70/530 369/75/530
f 170/74/531 415/116/531 171/75/531
f 190/67/532 186/67/532 185/65/532
f 177/76/533 176/74/533 182/74/533
f 164/64/534 173/64/534 174/66/534
f 164/64/535 162/97/535 172/97/535
f 166/66/536 174/66/536 175/68/536
f 180/73/537 179/125/537 182/71/537
f 179/125/538 178/132/538 182/71/538
f 178/132/539 183/124/539 182/71/539
f 174/66/540 180/66/540 181/68/540
f 173/64/541 172/97/541 178/97/541
f 177/76/542 183/76/542 178/118/542
f 175/68/543 181/68/543 182/74/543
f 173/64/544 179/64/544 180/66/544
f 188/70/545 189/75/545 210/75/545
f 192/75/546 189/75/546 188/70/546
f 191/117/547 185/65/547 184/63/547
f 190/67/548 195/119/548 187/69/548
f 192/75/549 194/122/549 184/77/549
f 193/70/550 188/70/550 187/69/550
f 221/70/551 193/70/551 195/119/551
f 218/121/552 222/77/552 194/122/552
f 217/67/553 219/120/553 195/119/553
f 222/63/554 220/123/554 191/117/554
f 218/121/555 192/75/555 193/70/555
f 220/123/556 217/67/556 190/67/556
f 182/116/557 181/116/557 197/116/557
f 181/116/558 180/116/558 198/116/558
f 199/116/559 179/116/559 178/116/559
f 199/116/560 204/116/560 201/116/560
f 198/116/561 180/116/561 202/116/561
f 179/125/562 201/125/562 202/73/562
f 210/79/563 205/137/563 206/80/563
f 206/80/564 207/131/564 208/126/564
f 208/126/565 209/78/565 210/79/565
f 187/69/566 208/69/566 207/67/566
f 185/65/567 206/65/567 205/63/567
f 189/75/568 184/77/568 205/77/568
f 187/69/569 188/70/569 209/70/569
f 186/67/570 207/67/570 206/65/570
f 163/65/571 165/67/571 214/67/571
f 171/75/572 215/121/572 212/127/572
f 161/63/573 163/65/573 211/123/573
f 165/67/574 167/69/574 216/69/574
f 161/77/575 213/77/575 215/121/575
f 169/70/576 212/127/576 216/69/576
f 211/123/577 214/67/577 217/67/577
f 215/121/578 218/121/578 221/70/578
f 213/63/579 211/123/579 220/123/579
f 214/67/580 216/69/580 219/120/580
f 215/121/581 213/77/581 222/77/581
f 212/127/582 221/70/582 219/120/582
f 204/116/583 71/116/583 73/116/583
f 203/116/584 202/116/584 77/116/584
f 77/73/585 202/73/585 75/128/585
f 202/73/586 201/125/586 75/128/586
f 145/82/587 224/82/587 225/96/587
f 146/96/196 225/96/196 226/98/196
f 145/82/588 144/97/588 223/97/588
f 147/98/589 226/98/589 227/85/589
f 248/2/590 249/5/590 26/1/590
f 26/1/591 249/5/591 250/4/591
f 250/4/592 233/129/592 7/6/592
f 250/4/593 234/9/593 231/8/593
f 249/5/594 235/10/594 234/9/594
f 248/2/595 236/11/595 235/10/595
f 230/12/596 236/11/596 248/2/596
f 232/13/597 248/2/597 25/3/597
f 251/15/598 254/17/598 255/16/598
f 252/18/599 255/16/599 256/19/599
f 254/17/600 257/21/600 258/20/600
f 255/16/601 258/20/601 259/22/601
f 230/12/602 239/23/602 251/15/602
f 236/11/603 251/15/603 252/18/603
f 235/10/604 252/18/604 253/24/604
f 253/24/605 240/59/605 231/8/605
f 253/24/606 256/19/606 241/25/606
f 256/19/607 259/22/607 242/26/607
f 259/22/608 243/28/608 229/27/608
f 258/20/609 244/29/609 243/28/609
f 257/21/610 245/30/610 244/29/610
f 228/31/611 245/30/611 257/21/611
f 238/33/612 237/32/612 257/21/612
f 239/23/613 238/33/613 254/17/613
f 261/37/614 260/39/614 44/34/614
f 260/39/615 43/36/615 44/34/615
f 261/37/616 44/34/616 45/38/616
f 228/31/617 246/40/617 260/39/617
f 245/30/618 260/39/618 261/37/618
f 244/29/619 261/37/619 262/41/619
f 262/41/620 247/42/620 229/27/620
f 45/38/621 24/133/621 247/42/621
f 246/40/622 21/43/622 43/36/622
f 46/44/623 48/46/623 264/45/623
f 48/46/624 50/48/624 265/47/624
f 6/49/625 46/44/625 263/50/625
f 232/51/626 263/50/626 239/23/626
f 263/50/627 264/45/627 238/33/627
f 264/45/628 265/47/628 237/32/628
f 265/47/629 246/52/629 228/31/629
f 21/53/630 246/52/630 265/47/630
f 266/54/631 267/56/631 55/55/631
f 267/56/632 268/58/632 57/57/632
f 231/8/633 240/59/633 266/54/633
f 233/60/634 266/54/634 53/61/634
f 247/62/635 24/134/635 57/57/635
f 229/27/636 247/62/636 268/58/636
f 241/25/637 242/26/637 268/58/637
f 240/59/638 241/25/638 267/56/638
f 269/63/246 271/65/246 272/64/246
f 271/65/247 273/67/247 274/66/247
f 273/67/248 275/69/248 276/68/248
f 277/70/249 278/74/249 276/68/249
f 270/135/250 272/125/250 280/124/250
f 272/125/250 274/73/250 280/124/250
f 274/73/250 276/72/250 278/71/250
f 279/75/251 280/76/251 278/74/251
f 269/77/252 270/118/252 280/76/252
f 271/80/253 269/136/253 279/79/253
f 279/79/253 277/78/253 271/80/253
f 277/78/253 275/126/253 273/131/253
f 86/81/639 299/83/639 297/82/639
f 300/84/640 90/86/640 80/85/640
f 79/88/641 85/92/641 289/87/641
f 283/89/642 285/8/642 289/87/642
f 283/89/643 288/94/643 287/90/643
f 71/63/644 281/91/644 287/90/644
f 85/92/645 90/86/645 300/84/645
f 289/87/646 300/84/646 301/93/646
f 288/94/647 301/93/647 299/83/647
f 81/95/648 287/90/648 299/83/648
f 294/96/649 293/82/649 297/82/649
f 293/82/650 91/97/650 72/97/650
f 298/98/651 295/98/651 294/96/651
f 80/85/652 95/85/652 295/98/652
f 284/99/653 296/96/653 297/82/653
f 286/100/654 298/98/654 296/96/654
f 297/82/655 299/83/655 290/101/655
f 300/84/656 298/98/656 286/100/656
f 301/93/657 300/84/657 292/103/657
f 290/101/658 299/83/658 301/93/658
f 348/105/659 303/99/659 304/100/659
f 307/103/660 306/104/660 349/106/660
f 352/108/661 305/101/661 302/102/661
f 302/102/662 303/99/662 348/105/662
f 349/106/663 306/104/663 305/101/663
f 304/100/664 307/103/664 350/107/664
f 308/102/665 309/99/665 353/111/665
f 356/113/666 312/104/666 311/101/666
f 358/114/667 310/100/667 313/103/667
f 353/111/668 309/99/668 310/100/668
f 313/103/669 312/104/669 356/113/669
f 311/101/670 308/102/670 354/112/670
f 315/99/671 316/100/671 310/100/671
f 333/103/672 332/104/672 312/104/672
f 317/101/673 314/102/673 308/102/673
f 308/102/674 314/102/674 315/99/674
f 318/104/675 317/101/675 311/101/675
f 310/100/676 316/100/676 319/103/676
f 314/102/677 320/102/677 321/99/677
f 324/104/293 323/101/293 317/101/293
f 322/100/678 325/103/678 319/103/678
f 315/99/679 321/99/679 322/100/679
f 319/103/296 325/103/296 324/104/296
f 317/101/680 323/101/680 320/102/680
f 331/103/681 330/104/681 324/104/681
f 323/101/682 329/101/682 326/102/682
f 326/102/683 327/99/683 321/99/683
f 324/104/684 330/104/684 329/101/684
f 328/100/685 331/103/685 325/103/685
f 321/99/686 327/99/686 328/100/686
f 337/103/304 336/104/304 332/104/304
f 332/104/687 334/104/687 318/104/687
f 334/104/688 335/103/688 319/103/688
f 319/103/689 335/103/689 333/103/689
f 339/103/690 343/103/690 341/103/690
f 335/103/309 339/103/309 337/103/309
f 338/104/310 339/103/310 335/103/310
f 336/104/311 338/104/311 334/104/311
f 341/103/691 343/103/691 342/104/691
f 342/104/692 343/103/692 339/103/692
f 340/104/693 342/104/693 338/104/693
f 341/103/694 340/104/694 336/104/694
f 295/98/695 346/98/695 345/96/695
f 344/82/696 144/97/696 91/97/696
f 148/85/697 346/98/697 295/98/697
f 345/96/698 344/82/698 293/82/698
f 328/100/699 327/99/699 330/104/699
f 327/99/700 326/102/700 329/101/700
f 347/110/701 350/107/701 292/103/701
f 291/104/702 349/106/702 352/108/702
f 282/102/703 351/109/703 348/105/703
f 290/101/704 352/108/704 351/109/704
f 350/107/705 349/106/705 291/104/705
f 348/105/706 347/110/706 286/100/706
f 355/115/707 354/112/707 302/102/707
f 357/107/708 356/113/708 306/104/708
f 303/99/709 353/111/709 358/114/709
f 304/100/710 358/114/710 357/107/710
f 306/104/711 356/113/711 355/115/711
f 354/112/712 353/111/712 303/99/712
f 361/65/713 362/64/713 360/97/713
f 361/65/714 363/67/714 364/66/714
f 363/67/715 365/69/715 366/68/715
f 367/70/716 368/74/716 366/68/716
f 368/74/717 374/74/717 373/68/717
f 416/116/718 369/75/718 359/63/718
f 162/97/719 161/63/719 171/75/719
f 381/65/720 382/67/720 386/67/720
f 177/76/721 183/76/721 379/74/721
f 372/66/722 371/64/722 362/64/722
f 362/64/723 371/64/723 370/97/723
f 373/68/724 372/66/724 364/66/724
f 375/132/725 376/125/725 379/71/725
f 376/125/726 377/73/726 379/71/726
f 377/73/727 378/72/727 379/71/727
f 378/68/728 377/66/728 372/66/728
f 371/64/729 376/64/729 375/97/729
f 375/118/730 183/76/730 177/76/730
f 379/74/731 378/68/731 373/68/731
f 377/66/732 376/64/732 371/64/732
f 384/70/733 398/70/733 399/75/733
f 384/70/734 385/75/734 388/75/734
f 380/63/735 381/65/735 387/117/735
f 386/67/736 382/67/736 383/69/736
f 388/75/737 385/75/737 380/77/737
f 383/69/738 384/70/738 389/70/738
f 391/119/739 389/70/739 410/70/739
f 407/121/740 388/75/740 390/122/740
f 406/67/741 386/67/741 391/119/741
f 411/63/742 390/63/742 387/117/742
f 389/70/743 388/75/743 407/121/743
f 409/123/744 387/117/744 386/67/744
f 197/116/745 378/116/745 379/116/745
f 198/116/746 377/116/746 378/116/746
f 199/116/747 200/116/747 375/116/747
f 392/116/748 204/116/748 199/116/748
f 198/116/749 203/116/749 393/116/749
f 393/73/750 392/125/750 376/125/750
f 395/80/751 394/137/751 399/79/751
f 399/79/752 398/78/752 397/126/752
f 397/126/753 396/131/753 395/80/753
f 396/67/754 397/69/754 383/69/754
f 394/63/755 395/65/755 381/65/755
f 385/75/756 399/75/756 394/77/756
f 383/69/757 397/69/757 398/70/757
f 395/65/758 396/67/758 382/67/758
f 361/65/759 400/123/759 403/67/759
f 401/127/760 404/121/760 369/75/760
f 359/63/761 402/63/761 400/123/761
f 363/67/762 403/67/762 405/69/762
f 404/121/763 402/77/763 359/77/763
f 405/69/764 401/127/764 367/70/764
f 400/123/765 409/123/765 406/67/765
f 410/70/766 407/121/766 404/121/766
f 402/63/767 411/63/767 409/123/767
f 403/67/768 406/67/768 408/120/768
f 404/121/769 407/121/769 411/77/769
f 408/120/770 410/70/770 401/127/770
f 281/116/771 71/116/771 204/116/771
f 203/116/772 79/116/772 285/116/772
f 392/125/773 393/73/773 283/128/773
f 393/73/774 285/73/774 283/128/774
f 413/96/775 412/82/775 344/82/775
f 414/98/394 413/96/394 345/96/394
f 344/82/776 412/82/776 223/97/776
f 227/85/777 414/98/777 346/98/777
f 415/116/778 170/74/778 176/74/778
f 416/116/779 177/76/779 374/74/779
f 172/118/780 162/97/780 415/116/780
f 416/116/781 360/97/781 370/118/781
