# Blender 5.0.0
# www.blender.org
o body
v 0.496492 -0.836496 10.485999
v 0.583336 -0.739346 11.756936
v 0.476577 0.278155 10.553257
v 0.565221 0.486406 11.792649
v 0.246627 0.341088 10.457369
v -0.000000 0.369678 10.402687
v -0.000000 0.658669 11.926294
v 0.340386 0.599495 11.881780
v 0.631619 0.554538 11.551315
v 0.646511 0.545035 11.192425
v 0.576865 0.424383 10.820645
v 0.562963 -0.631520 10.399902
v 0.591550 -0.317049 10.371200
v 0.550611 0.022595 10.442296
v 0.654626 0.225672 11.871984
v 0.703310 -0.145583 11.904879
v 0.665741 -0.502555 11.851034
v 0.654036 -0.830154 11.504034
v 0.671875 -0.892060 11.131357
v 0.600616 -0.885222 10.751863
v -0.000000 -0.970373 10.320105
v 0.267098 -0.925011 10.379165
v 0.358752 -0.817453 11.844741
v -0.000000 -0.856364 11.889928
v -0.000000 0.674132 10.773926
v -0.000000 0.858995 11.192621
v -0.000000 0.860968 11.598315
v 0.290903 0.614872 10.799877
v 0.337850 0.778809 11.195897
v 0.344425 0.778265 11.578639
v 0.749642 0.108478 10.780330
v 0.841644 0.194318 11.177752
v 0.811618 0.221480 11.563447
v 0.812126 -0.260919 10.737174
v 0.912852 -0.205322 11.157966
v 0.878665 -0.167071 11.569185
v 0.764291 -0.610047 10.739856
v 0.857600 -0.587271 11.141681
v 0.825386 -0.539852 11.535814
v 0.317045 -1.052687 10.715803
v 0.365526 -1.074154 11.000066
v 0.369003 -0.996871 11.523491
v -0.000000 -1.112858 10.737985
v -0.000000 -1.133464 10.995137
v -0.000000 -1.050112 11.543089
v -0.000000 0.004889 10.136510
v 0.255090 0.002209 10.222009
v -0.000000 -0.369841 10.021097
v 0.272938 -0.355472 10.120246
v -0.000000 -0.709899 10.086992
v 0.266506 -0.681006 10.174678
v 0.373244 0.271110 12.058591
v -0.000000 0.302962 12.122447
v 0.399412 -0.129139 12.111216
v -0.000000 -0.120306 12.180945
v 0.383312 -0.515705 12.039557
v -0.000000 -0.530811 12.104124
v -0.000000 -1.256591 10.806246
v 0.899103 0.129189 11.167096
v 0.964296 0.059744 11.188182
v 0.972883 0.157159 10.984737
v 1.038076 0.087714 11.005823
v 0.910948 0.053346 10.741596
v 0.976141 -0.016099 10.762682
v 0.775233 -0.078438 10.680811
v 0.840426 -0.147883 10.701897
v 0.701452 -0.106409 10.863170
v 0.766645 -0.175854 10.884255
v 0.763387 -0.002595 11.106312
v 0.828580 -0.072040 11.127398
v 0.000000 0.608116 7.549758
v -0.000043 0.616257 9.698615
v 0.504716 0.474076 7.364141
v 0.828468 0.447095 9.417525
v 0.598099 0.170519 7.321838
v 0.958541 0.143849 9.590034
v 0.495931 -0.116535 7.283459
v 0.866706 -0.119455 9.383369
v -0.000000 -0.261991 7.410852
v 0.000043 -0.519572 9.385758
v -0.000000 0.657830 8.182817
v 0.570414 0.552837 8.220810
v 0.766879 0.231045 8.212481
v 0.571911 -0.205383 8.189058
v -0.000000 -0.421472 8.182817
v 0.000174 0.707125 9.270026
v 0.703455 0.672347 9.045483
v 0.718181 0.461518 8.815825
v 0.696979 0.095577 8.823066
v 0.000464 -0.491654 9.054517
v -0.000000 0.515979 9.869093
v 0.439964 0.384896 9.838729
v 0.633978 0.089688 9.815354
v 0.435116 -0.213957 9.809866
v -0.000000 -0.334730 9.661475
v 0.958116 0.141713 9.601922
v 0.710199 0.434783 9.581826
v 0.738416 -0.256161 9.638985
v 0.614139 0.634751 8.867718
v 0.622037 -0.208387 8.920382
v 0.716183 0.427551 8.797142
v 1.567515 1.122620 7.892231
v 1.658648 0.970826 7.842628
v 1.562849 0.760632 7.777163
v 1.163474 1.179293 7.745230
v 1.096237 1.052099 7.636323
v 1.160207 0.819476 7.624015
v 1.943556 1.411570 6.457612
v 2.008973 1.270755 6.427153
v 1.941531 1.111237 6.409771
v 1.637510 1.425447 6.381984
v 1.583964 1.294847 6.315095
v 1.636034 1.125803 6.330638
v 1.969579 1.494104 6.391462
v 2.058670 1.284265 6.415376
v 1.987181 1.020727 6.333671
v 1.815522 1.514112 6.240727
v 1.785811 1.329640 6.197921
v 1.814333 1.009937 6.148772
v 2.243139 1.638279 5.989489
v 2.299772 1.377300 5.936889
v 2.241520 1.061991 5.886712
v 2.082478 1.598606 5.806165
v 2.052766 1.414135 5.763358
v 2.081288 1.094431 5.714210
v 2.182719 1.662638 5.403039
v 2.193910 1.491698 5.332508
v 2.182791 1.262776 5.332218
v 2.092353 1.578770 5.449525
v 2.066054 1.478533 5.409144
v 2.091686 1.251077 5.389215
v 1.574497 1.286624 6.095742
v 1.606011 1.139870 6.119631
v 1.769403 1.306461 6.046596
v 1.789818 1.031593 6.010761
v 1.627141 1.276594 5.876636
v 1.652963 1.156344 5.896210
v 1.786846 1.292849 5.836364
v 1.803573 1.067623 5.807002
v 1.702790 1.265791 5.646497
v 1.713647 1.179403 5.663862
v 1.820594 1.272130 5.644788
v 1.829823 1.111088 5.626321
v -0.000000 0.404502 9.999635
v 0.158780 0.287954 9.971239
v 0.252719 0.101461 9.907719
v 0.182110 -0.006843 9.907719
v -0.000000 -0.116119 9.869691
v 1.512561 0.699813 7.869004
v 1.608347 0.905352 7.965810
v 1.077566 1.031588 7.694029
v 1.130942 0.787109 7.674479
v 1.518806 1.064256 8.017087
v 1.134911 1.149683 7.825620
v 1.697697 1.015256 7.729043
v 1.609087 1.167820 7.767160
v 1.198339 1.196391 7.651112
v 1.126073 1.058311 7.563430
v 1.196539 0.831471 7.576496
v 1.605365 0.801870 7.693115
v 0.508210 -1.034428 5.062214
v 0.519508 0.331903 5.853730
v 0.863355 -1.191841 5.163441
v 1.026829 0.090406 6.148811
v 0.863355 -1.378205 5.332214
v 1.028275 -0.318661 6.442512
v 0.508191 -1.547387 5.452313
v 0.513592 -0.576276 6.501136
v 0.152952 -1.393391 5.331986
v 0.144936 -0.248875 6.281856
v 0.153066 -1.178134 5.182595
v 0.512164 0.579121 6.085151
v 1.018174 0.259605 6.303386
v 1.020134 -0.181750 6.566666
v 0.515757 -0.495477 6.559340
v 0.136937 -0.159567 6.315698
v -0.000000 0.783634 6.308150
v 0.418974 0.719405 6.286716
v 0.879472 0.485655 6.805866
v 0.876436 0.015100 6.834085
v 0.449170 -0.303750 6.694020
v 0.134332 -0.060505 6.360279
v -0.000000 0.826172 6.412609
v 0.430883 -0.532063 3.141118
v 0.691277 -0.673770 3.090913
v 0.691277 -0.957187 2.990504
v 0.430883 -1.098945 2.940253
v 0.170489 -0.957508 2.990247
v 0.170489 -0.673770 3.090913
v 0.822906 -1.466784 4.693471
v 0.822906 -1.230197 4.764404
v 0.152560 -1.271075 4.754012
v 0.152560 -1.510213 4.684499
v 0.487733 -1.030676 4.854867
v 0.487733 -1.777678 4.990236
v -0.000000 -0.014751 6.386435
v -0.000000 -0.200957 6.493021
v -0.000000 -0.264095 6.736599
v -0.000000 0.810417 6.955685
v -0.000000 0.832728 6.641833
v 0.713104 0.436591 7.125060
v 0.709689 -0.043036 7.056454
v -0.000000 -0.231116 7.076005
v 0.000000 0.628045 7.300755
v 0.430882 -0.200260 1.541259
v 0.625710 -0.290382 1.473755
v 0.625710 -0.480254 1.324980
v 0.430882 -0.569646 1.256729
v 0.236054 -0.481564 1.335649
v 0.236054 -0.290839 1.472997
v 0.856043 -1.328650 5.156821
v 0.152881 -1.541362 5.222002
v 0.504509 -1.128079 5.116438
v 0.856043 -1.495737 5.222688
v 0.152975 -1.314356 5.164983
v 0.504492 -1.627627 5.369479
v 0.847217 -1.591590 5.073473
v 0.152864 -1.357137 5.087767
v 0.500029 -1.711634 5.260922
v 0.847217 -1.355329 5.085855
v 0.152796 -1.598199 5.080932
v 0.500040 -1.173722 5.100356
v -0.000000 0.330200 10.640536
v 0.182652 0.209765 10.640536
v 0.252719 0.101461 10.640536
v 0.182110 -0.006843 10.640536
v -0.000000 -0.127185 10.585463
v -0.496493 -0.836496 10.485999
v -0.583336 -0.739346 11.756936
v -0.476577 0.278155 10.553257
v -0.565221 0.486406 11.792649
v -0.246627 0.341088 10.457369
v -0.340386 0.599495 11.881780
v -0.631619 0.554538 11.551315
v -0.646511 0.545035 11.192425
v -0.576865 0.424383 10.820645
v -0.562963 -0.631520 10.399902
v -0.591550 -0.317049 10.371200
v -0.550611 0.022595 10.442296
v -0.654626 0.225672 11.871984
v -0.703310 -0.145583 11.904879
v -0.665741 -0.502555 11.851034
v -0.654036 -0.830154 11.504034
v -0.671875 -0.892060 11.131357
v -0.600616 -0.885222 10.751863
v -0.267098 -0.925011 10.379165
v -0.358752 -0.817453 11.844741
v -0.290903 0.614872 10.799877
v -0.337850 0.778809 11.195897
v -0.344425 0.778265 11.578639
v -0.749642 0.108478 10.780330
v -0.841644 0.194318 11.177752
v -0.811618 0.221480 11.563447
v -0.812126 -0.260919 10.737174
v -0.912852 -0.205322 11.157966
v -0.878665 -0.167071 11.569185
v -0.764291 -0.610047 10.739856
v -0.857600 -0.587271 11.141681
v -0.825386 -0.539852 11.535814
v -0.317045 -1.052687 10.715803
v -0.365526 -1.074154 11.000066
v -0.369003 -0.996871 11.523491
v -0.255090 0.002209 10.222009
v -0.272938 -0.355472 10.120246
v -0.266506 -0.681006 10.174678
v -0.373244 0.271110 12.058591
v -0.399412 -0.129139 12.111216
v -0.383312 -0.515705 12.039557
v -0.899103 0.129189 11.167096
v -0.964296 0.059744 11.188182
v -0.972883 0.157159 10.984737
v -1.038076 0.087714 11.005823
v -0.910948 0.053346 10.741596
v -0.976141 -0.016099 10.762682
v -0.775233 -0.078438 10.680811
v -0.840426 -0.147883 10.701897
v -0.701452 -0.106409 10.863170
v -0.766645 -0.175854 10.884255
v -0.763387 -0.002595 11.106312
v -0.828580 -0.072040 11.127398
v -0.504526 0.476275 7.429938
v -0.822549 0.240094 9.282409
v -0.598793 0.169840 7.387236
v -0.956848 0.100617 9.602410
v -0.495657 -0.143562 7.338021
v -0.863586 -0.234213 9.577083
v -0.567885 0.467133 8.190235
v -0.761826 0.054982 8.199677
v -0.569701 -0.292710 8.207071
v -0.689882 0.235679 8.850563
v -0.701893 -0.071909 8.779270
v -0.684153 -0.358239 8.982042
v -0.440482 0.408192 9.819489
v -0.634110 0.100632 9.819508
v -0.435368 -0.203044 9.829578
v -0.956579 0.105749 9.612613
v -0.708783 0.394091 9.480824
v -0.738412 -0.257582 9.721003
v -0.607083 0.411668 8.750679
v -0.616792 -0.375575 9.018496
v -0.701427 -0.055555 8.765265
v -1.529304 -0.204334 7.666756
v -1.620216 -0.355380 7.720361
v -1.524563 -0.563732 7.794247
v -1.125195 -0.251323 7.513118
v -1.058415 -0.419990 7.500925
v -1.121866 -0.612665 7.634499
v -1.961027 -0.772392 6.351640
v -2.026516 -0.904722 6.408525
v -1.958553 -1.047436 6.481399
v -1.658642 -0.808860 6.269116
v -1.606933 -0.955347 6.285404
v -1.656873 -1.085300 6.395617
v -1.990559 -0.741051 6.251587
v -2.076783 -0.899338 6.393192
v -2.006676 -1.164281 6.471477
v -1.843299 -0.812143 6.109759
v -1.813916 -0.989138 6.177243
v -1.841854 -1.280389 6.318070
v -2.282346 -0.843751 5.849695
v -2.339006 -1.087958 5.955702
v -2.280335 -1.377662 6.089715
v -2.129390 -0.982615 5.714360
v -2.100007 -1.159610 5.781844
v -2.127945 -1.450860 5.922671
v -2.247406 -1.155164 5.349726
v -2.260191 -1.335897 5.388353
v -2.247183 -1.525324 5.516718
v -2.154426 -1.199803 5.431720
v -2.129051 -1.305802 5.453856
v -2.153617 -1.504447 5.566670
v -1.606840 -1.085914 6.108698
v -1.636070 -1.193111 6.212403
v -1.803838 -1.093843 6.064809
v -1.823478 -1.340700 6.191021
v -1.668771 -1.216758 5.935711
v -1.692722 -1.304594 6.020687
v -1.830190 -1.223255 5.899749
v -1.846283 -1.425528 6.003166
v -1.754153 -1.354057 5.754985
v -1.763531 -1.415432 5.818448
v -1.871971 -1.347740 5.754741
v -1.880640 -1.490993 5.830661
v -0.158780 0.287954 9.971239
v -0.252719 0.101461 9.907719
v -0.182110 -0.006843 9.907719
v -1.478806 -0.549712 7.904542
v -1.574564 -0.328633 7.851059
v -1.039604 -0.398852 7.565577
v -1.094023 -0.602607 7.702145
v -1.484913 -0.171954 7.792922
v -1.097986 -0.224027 7.594809
v -1.658585 -0.387187 7.610821
v -1.569881 -0.241523 7.551332
v -1.162891 -0.291304 7.427349
v -1.092926 -0.455925 7.431509
v -1.160685 -0.633919 7.575676
v -1.565846 -0.584140 7.701545
v -0.508053 1.248699 4.845961
v -0.519458 0.974523 6.221950
v -0.866564 1.045605 4.758547
v -1.031588 0.667154 6.332076
v -0.866564 0.781636 4.668002
v -1.033048 0.223451 6.088868
v -0.508034 0.585690 4.601575
v -0.513485 0.034183 5.876757
v -0.149427 0.787284 4.682740
v -0.141336 0.218093 6.052314
v -0.149542 1.055319 4.784319
v -0.512044 0.930620 6.492116
v -1.022851 0.584159 6.507275
v -1.024829 0.132966 6.269985
v -0.515671 -0.037974 5.998058
v -0.133260 0.143491 6.158833
v -0.417970 0.888801 6.631932
v -0.882834 0.475457 6.889967
v -0.879769 -0.052714 6.727840
v -0.448454 -0.177967 6.294704
v -0.130631 0.062025 6.307015
v -0.429992 2.322411 2.715115
v -0.658825 2.208404 2.648353
v -0.658825 1.980390 2.514829
v -0.429992 1.866382 2.448068
v -0.201160 1.980390 2.514829
v -0.201160 2.208404 2.648353
v -0.825732 1.134146 4.096238
v -0.825732 1.356441 4.212062
v -0.149031 1.317885 4.193996
v -0.149031 1.095454 4.078156
v -0.487381 1.539191 4.342474
v -0.487381 0.760407 4.301916
v -0.714889 0.434035 7.190702
v -0.711441 -0.110243 7.074098
v -0.429992 2.954330 1.188491
v -0.608102 2.900707 1.104928
v -0.608102 2.806323 0.890099
v -0.429992 2.765134 0.795267
v -0.251882 2.799908 0.903876
v -0.251882 2.900476 1.103585
v -0.859182 1.090624 4.657412
v -0.149356 0.834567 4.567735
v -0.504316 1.296804 4.758389
v -0.859183 0.838930 4.560278
v -0.149450 1.092924 4.675777
v -0.504300 0.614915 4.545657
v -0.850273 0.911240 4.431239
v -0.149338 1.147800 4.546785
v -0.499794 0.651281 4.478202
v -0.850273 1.156380 4.538178
v -0.149269 0.899809 4.434329
v -0.499806 1.330245 4.637158
v -0.182652 0.209765 10.640536
v -0.252719 0.101461 10.640536
v -0.182110 -0.006843 10.640536
v 0.213411 0.473899 6.091983
v -0.199640 0.777055 6.212204
vn 0.2171 0.8930 -0.3943
vn 0.2309 0.9730 -0.0026
vn 0.2282 0.8287 0.5111
vn 0.5934 0.7171 0.3657
vn 0.6038 0.7971 0.0039
vn 0.5368 0.7678 -0.3497
vn 0.4335 0.6757 -0.5962
vn 0.2244 0.7535 -0.6180
vn 0.9488 0.1900 -0.2522
vn 0.9829 0.1719 0.0657
vn 0.9669 -0.1341 -0.2169
vn 0.9843 -0.1466 0.0981
vn 0.7198 0.4412 -0.5359
vn 0.8218 0.4872 -0.2955
vn 0.8739 0.4848 0.0339
vn 0.8176 0.4547 0.3533
vn 0.8793 0.1584 0.4492
vn 0.8717 -0.1659 0.4611
vn 0.7717 -0.4987 0.3948
vn 0.8452 -0.5193 0.1267
vn 0.8441 -0.5094 -0.1677
vn 0.7852 -0.4383 -0.4373
vn 0.8572 -0.1236 -0.4999
vn 0.8229 0.2097 -0.5281
vn 1.0000 -0.0000 -0.0000
vn 0.1564 -0.9765 0.1485
vn 0.4800 -0.7943 -0.3725
vn 0.5169 -0.8425 -0.1518
vn 0.4664 -0.8756 0.1262
vn 0.4808 -0.7739 0.4123
vn 0.1500 -0.8611 0.4857
vn 0.2261 -0.9220 -0.3144
vn 0.3148 0.2794 -0.9071
vn 0.3250 -0.1799 -0.9284
vn 0.2669 0.5681 -0.7785
vn 0.4934 0.5045 -0.7086
vn 0.5804 0.2495 -0.7751
vn 0.6137 -0.1420 -0.7766
vn 0.5175 -0.5489 -0.6564
vn 0.3026 -0.6356 -0.7102
vn 0.1733 0.1395 0.9749
vn 0.1703 -0.1865 0.9676
vn 0.5492 0.4099 0.7283
vn 0.1876 0.4801 0.8569
vn 0.1601 -0.5446 0.8233
vn 0.5064 -0.4648 0.7263
vn 0.5518 -0.1809 0.8141
vn 0.5611 0.1458 0.8148
vn 0.6237 0.6944 0.3588
vn 0.7220 0.5506 -0.4190
vn 0.3616 0.0569 -0.9306
vn -0.6237 -0.6944 -0.3589
vn 0.6532 -0.7421 0.1505
vn -0.7220 -0.5506 0.4190
vn -0.3616 -0.0569 0.9306
vn -0.6532 0.7421 -0.1505
vn 0.2599 0.9384 0.2278
vn 0.3998 -0.9134 -0.0765
vn 0.2521 -0.9608 -0.1154
vn 0.9409 -0.3201 -0.1104
vn 0.9469 0.3053 -0.1007
vn 0.2187 0.9700 -0.1060
vn 0.3536 -0.9350 -0.0281
vn 0.8875 -0.4080 0.2141
vn 0.8456 0.5195 -0.1229
vn 0.1881 0.9727 -0.1359
vn 0.4467 0.4316 0.7837
vn 0.2902 0.8350 0.4674
vn 0.4360 -0.3009 0.8482
vn 0.0406 -0.8299 0.5564
vn 0.7508 0.6449 0.1427
vn 0.8670 -0.4612 0.1885
vn 0.4183 0.8324 0.3635
vn 0.8579 -0.3360 -0.3888
vn 0.9983 -0.0579 -0.0015
vn 0.7182 0.5136 -0.4695
vn 0.8872 -0.4437 0.1264
vn -0.8177 -0.1337 -0.5600
vn 0.0052 0.9378 0.3472
vn 0.8256 0.3139 0.4688
vn -0.8475 0.5235 -0.0881
vn 0.0722 -0.8493 -0.5229
vn 0.8560 0.4229 0.2973
vn -0.8555 0.4662 -0.2254
vn 0.0134 -0.9729 -0.2310
vn 0.9067 -0.3984 0.1386
vn -0.8773 -0.2944 -0.3790
vn 0.0166 0.9829 0.1832
vn 0.2813 -0.2207 0.9339
vn -0.9521 -0.2826 0.1166
vn -0.0740 0.8840 0.4616
vn 0.6379 0.3491 0.6865
vn -0.4886 0.5480 -0.6789
vn -0.5084 -0.6898 0.5155
vn 0.8149 0.0607 0.5764
vn -0.8465 0.2459 -0.4722
vn 0.0996 -0.9944 -0.0351
vn 0.8866 -0.2278 0.4025
vn -0.8524 0.0043 -0.5228
vn -0.2656 0.9638 0.0242
vn -0.9945 -0.0780 -0.0694
vn -0.6952 0.7164 -0.0591
vn 0.9693 0.2286 -0.0904
vn -0.9681 0.2503 0.0092
vn 0.1937 -0.9157 -0.3521
vn 0.9823 -0.0475 -0.1810
vn -0.9467 -0.2385 -0.2165
vn -0.1860 0.9821 -0.0288
vn 0.9866 0.1070 -0.1234
vn -0.5247 -0.8503 -0.0402
vn -0.5514 -0.7893 -0.2700
vn -0.5762 -0.7973 -0.1799
vn 0.9949 0.0637 0.0784
vn -0.1194 0.9901 -0.0740
vn -0.2546 0.0958 -0.9623
vn 0.9845 0.0512 0.1679
vn -0.1225 0.9887 -0.0867
vn -0.9322 -0.2437 -0.2677
vn 0.2415 -0.1574 0.9576
vn 0.2117 0.5185 0.8285
vn -0.0554 -0.6886 0.7230
vn 0.2370 0.0791 0.9683
vn -0.5159 0.0261 -0.8562
vn -0.6231 0.2631 -0.7366
vn 0.1929 -0.8951 -0.4020
vn -0.8799 0.4733 -0.0414
vn 0.8041 0.2847 0.5219
vn 0.0216 0.9284 0.3709
vn -0.9436 0.0482 -0.3275
vn 0.8892 -0.4308 0.1538
vn 0.0639 0.9775 0.2012
vn -0.7601 -0.1759 -0.6256
vn 0.8985 -0.4136 0.1471
vn 0.0535 -0.9069 -0.4179
vn -0.7734 0.5747 -0.2676
vn 0.8348 0.3672 0.4102
vn 0.4239 0.4514 -0.7852
vn 0.9943 -0.0717 -0.0792
vn 0.5014 -0.6362 0.5865
vn -0.4807 -0.6422 0.5971
vn -0.6929 -0.3089 0.6515
vn 0.9947 0.0888 0.0522
vn -1.0000 -0.0029 -0.0049
vn 0.9972 0.0214 -0.0713
vn -0.9862 -0.1531 0.0623
vn 0.9990 0.0282 0.0344
vn 0.5995 0.5563 -0.5754
vn 0.3616 -0.5513 0.7519
vn -0.5265 0.3692 0.7658
vn 0.2876 -0.4817 0.8278
vn 0.6016 0.7774 -0.1836
vn 0.1010 0.8379 -0.5364
vn -0.6936 -0.3107 0.6499
vn 0.9172 0.2071 0.3404
vn -0.9992 0.0236 -0.0328
vn -0.9999 0.0028 -0.0097
vn 0.5420 0.8116 0.2181
vn 0.5001 -0.8182 -0.2835
vn -0.5000 0.8168 0.2879
vn -0.4364 -0.8577 -0.2719
vn -0.4093 -0.8819 0.2338
vn -0.6100 0.7672 0.1984
vn 0.4924 -0.8171 -0.2999
vn 0.5461 0.7354 0.4012
vn -1.0000 0.0003 0.0007
vn 0.9975 0.0203 -0.0676
vn -0.2390 -0.9706 0.0278
vn -0.3204 -0.4706 -0.8221
vn -0.1086 -0.9623 -0.2494
vn -0.1810 0.0306 -0.9830
vn 0.3133 0.9473 0.0673
vn 0.3759 0.8662 0.3291
vn 0.2575 -0.9618 0.0935
vn 0.7957 0.0311 0.6048
vn 0.0008 0.6133 -0.7899
vn 0.4999 -0.8272 -0.2566
vn 0.4965 0.8499 0.1763
vn -0.4670 0.8645 0.1857
vn -0.4838 -0.8349 -0.2625
vn 0.9992 0.0132 -0.0374
vn 0.9917 -0.0472 -0.1198
vn -1.0000 0.0005 -0.0000
vn -0.1800 -0.4875 -0.8543
vn 0.4891 -0.6107 0.6227
vn -0.3618 0.1198 -0.9245
vn -0.4792 -0.6196 0.6216
vn 0.9920 0.0066 -0.1259
vn -1.0000 0.0005 0.0004
vn 0.1274 0.3185 -0.9393
vn 0.4984 -0.7425 0.4475
vn -0.4063 0.7995 -0.4424
vn -0.4129 -0.7120 0.5680
vn 0.2797 0.9555 0.0940
vn 0.2593 -0.9617 -0.0887
vn 0.7571 0.1441 0.6373
vn 0.8931 0.4499 -0.0000
vn 0.8377 -0.5461 -0.0000
vn 0.5488 0.8323 0.0777
vn 0.5165 -0.8562 -0.0132
vn -0.2171 0.8930 -0.3943
vn -0.2332 0.9724 -0.0047
vn -0.2282 0.8287 0.5111
vn -0.5362 0.7239 0.4341
vn -0.6140 0.7893 -0.0094
vn -0.5575 0.7416 -0.3731
vn -0.4335 0.6757 -0.5962
vn -0.2244 0.7535 -0.6180
vn -0.9486 0.1818 -0.2589
vn -0.9832 0.1706 0.0645
vn -0.9679 -0.1309 -0.2144
vn -0.9842 -0.1492 0.0957
vn -0.7191 0.4598 -0.5211
vn -0.8258 0.4724 -0.3080
vn -0.8791 0.4760 0.0239
vn -0.8176 0.4547 0.3533
vn -0.8813 0.1551 0.4463
vn -0.8704 -0.1617 0.4650
vn -0.7756 -0.4470 0.4457
vn -0.8474 -0.5145 0.1312
vn -0.8444 -0.5089 -0.1672
vn -0.7852 -0.4383 -0.4373
vn -0.8583 -0.1214 -0.4987
vn -0.8209 0.2013 -0.5345
vn -0.1488 -0.9784 0.1435
vn -0.5095 -0.7887 -0.3441
vn -0.5440 -0.8308 -0.1171
vn -0.5063 -0.8464 0.1648
vn -0.4808 -0.7739 0.4123
vn -0.1500 -0.8611 0.4857
vn -0.1482 -0.9172 -0.3698
vn -0.3082 0.2745 -0.9109
vn -0.3445 -0.1614 -0.9248
vn -0.2408 0.5577 -0.7943
vn -0.4461 0.4620 -0.7665
vn -0.5707 0.2336 -0.7872
vn -0.6232 -0.1271 -0.7717
vn -0.5828 -0.4680 -0.6643
vn -0.3026 -0.6356 -0.7102
vn -0.1782 0.1347 0.9747
vn -0.1652 -0.1814 0.9694
vn -0.5146 0.4458 0.7324
vn -0.1947 0.4736 0.8589
vn -0.1601 -0.5446 0.8233
vn -0.5064 -0.4648 0.7263
vn -0.5466 -0.1746 0.8190
vn -0.5630 0.1438 0.8139
vn -0.6237 0.6944 0.3588
vn -0.7220 0.5506 -0.4190
vn -0.3616 0.0569 -0.9306
vn 0.6237 -0.6944 -0.3588
vn -0.6532 -0.7421 0.1505
vn 0.7220 -0.5506 0.4190
vn 0.3616 -0.0569 0.9306
vn 0.6532 0.7421 -0.1505
vn -0.3473 0.9174 0.1943
vn -0.2876 -0.9514 0.1100
vn -0.2031 -0.9620 -0.1824
vn -0.8481 -0.4737 -0.2372
vn -0.9501 0.3028 -0.0755
vn -0.3183 0.9451 -0.0742
vn -0.2236 -0.9682 -0.1119
vn -0.8753 -0.4837 -0.0011
vn -0.9048 0.4253 -0.0212
vn -0.4084 0.9119 -0.0413
vn -0.4055 0.6447 0.6480
vn -0.3580 0.9007 0.2461
vn -0.5394 -0.0736 0.8388
vn -0.0466 -0.8343 0.5493
vn -0.7726 0.6330 -0.0483
vn -0.9470 -0.2762 0.1639
vn -0.6424 0.7385 -0.2049
vn -0.3015 -0.9475 0.1066
vn -0.7865 -0.3886 -0.4800
vn -0.9993 0.0368 0.0097
vn -0.8730 -0.2819 0.3980
vn 0.8581 -0.4237 -0.2902
vn 0.0026 0.9684 -0.2494
vn -0.8314 0.5335 0.1556
vn 0.8475 0.3498 -0.3992
vn -0.0572 -0.9871 0.1492
vn -0.8460 0.5317 0.0405
vn 0.8055 0.3299 -0.4922
vn -0.0033 -0.9335 0.3585
vn -0.8919 -0.2449 0.3801
vn 0.8615 -0.4744 -0.1808
vn -0.0112 0.9147 -0.4040
vn -0.2390 0.3489 0.9062
vn 0.9586 -0.1842 0.2172
vn 0.0864 0.9889 -0.1205
vn -0.2105 0.4722 0.8560
vn 0.4543 0.0616 -0.8887
vn 0.1771 -0.5040 0.8454
vn -0.7720 0.6022 0.2031
vn 0.8233 -0.0777 -0.5622
vn -0.0927 -0.8393 0.5356
vn -0.8025 -0.0364 0.5956
vn 0.8291 -0.3058 -0.4680
vn 0.1301 0.9339 -0.3331
vn 0.9912 -0.1209 -0.0533
vn 0.3105 0.8165 -0.4868
vn -0.9742 0.1547 -0.1644
vn 0.9813 0.1004 -0.1640
vn -0.2010 -0.9514 0.2335
vn -0.9796 -0.2007 -0.0050
vn 0.9385 -0.3355 -0.0822
vn 0.1764 0.7917 -0.5849
vn -0.9918 0.0360 -0.1224
vn 0.5384 -0.6981 0.4719
vn 0.5878 -0.7783 0.2208
vn 0.5746 -0.7698 0.2779
vn -0.9911 0.1140 0.0688
vn 0.1079 0.7739 -0.6240
vn -0.0369 -0.7156 -0.6975
vn -0.9767 0.1540 0.1492
vn 0.1104 0.7656 -0.6338
vn 0.9218 -0.3683 -0.1209
vn -0.2236 -0.1143 0.9680
vn -0.2206 0.5225 0.8236
vn 0.0708 -0.6879 0.7223
vn -0.2234 0.1407 0.9645
vn 0.4946 -0.4746 -0.7281
vn 0.4593 -0.0749 -0.8851
vn -0.0290 -0.9803 0.1956
vn 0.9463 0.0375 -0.3213
vn -0.6605 0.7492 0.0493
vn -0.3319 0.9367 -0.1115
vn 0.9506 -0.1380 -0.2781
vn -0.8836 -0.2748 0.3790
vn -0.0477 0.9132 -0.4047
vn 0.7948 -0.5001 -0.3438
vn -0.8655 -0.2418 0.4387
vn 0.0163 -0.9438 0.3302
vn 0.7874 0.3485 -0.5085
vn -0.8318 0.5424 0.1177
vn -0.5161 0.8408 0.1633
vn -0.9944 0.0534 -0.0914
vn -0.4480 -0.8130 -0.3719
vn 0.5182 -0.7858 -0.3376
vn 0.5533 -0.7202 -0.4185
vn 0.5214 0.8360 0.1709
vn -0.4080 0.4517 -0.7934
vn -0.9956 0.0431 -0.0828
vn 0.9776 -0.1768 -0.1145
vn -0.9992 -0.0169 0.0369
vn -0.4841 0.8615 0.1533
vn -0.4635 -0.7578 -0.4592
vn 0.4325 -0.1956 0.8801
vn -0.4432 -0.8453 -0.2985
vn -0.4665 0.7108 0.5265
vn 0.3018 0.9499 0.0811
vn 0.5268 -0.7409 -0.4167
vn -0.9592 -0.1283 0.2519
vn 0.9995 0.0152 -0.0260
vn 0.9996 0.0134 -0.0257
vn -0.5458 0.7624 0.3477
vn -0.5264 -0.7229 -0.4476
vn 0.6161 0.7010 0.3591
vn 0.4659 -0.7661 -0.4426
vn 0.4836 -0.7591 -0.4358
vn 0.4965 0.6981 0.5159
vn -0.4775 -0.7316 -0.4865
vn -0.4958 0.7564 0.4267
vn 1.0000 -0.0000 0.0007
vn -0.9981 0.0247 -0.0567
vn -0.1336 -0.9906 0.0283
vn 0.2294 -0.4835 -0.8447
vn 0.0612 -0.9662 -0.2504
vn 0.5306 0.0264 -0.8472
vn -0.3234 0.7354 0.5955
vn -0.3568 0.8776 0.3201
vn -0.2329 -0.9713 -0.0482
vn -0.8999 -0.1327 0.4154
vn -0.0009 0.9159 -0.4015
vn -0.4996 -0.7658 -0.4049
vn -0.4965 0.8021 0.3320
vn 0.4965 0.8021 0.3320
vn 0.4997 -0.7656 -0.4052
vn -0.9995 0.0152 -0.0260
vn -0.9981 0.0198 -0.0578
vn 1.0000 0.0002 0.0007
vn -0.5248 0.7912 0.3139
vn -0.4932 -0.7570 -0.4286
vn 0.4925 0.8222 0.2853
vn 0.5175 -0.7720 -0.3690
vn -0.9982 0.0219 -0.0567
vn 1.0000 0.0001 0.0007
vn -0.5432 0.7517 0.3740
vn -0.4926 -0.7518 -0.4382
vn 0.5252 0.8151 0.2444
vn 0.5031 -0.7743 -0.3838
vn -0.2712 0.9601 0.0689
vn -0.1675 -0.9858 0.0125
vn -0.7556 0.1434 0.6391
vn -0.8931 0.4499 -0.0000
vn -0.8377 -0.5461 -0.0000
vn -0.5999 0.7948 0.0921
vn -0.5165 -0.8562 -0.0132
vn -0.7865 -0.1190 -0.6059
vn 0.9945 0.1044 -0.0023
vn -0.1862 0.4728 -0.8613
vn 0.1390 0.9254 -0.3526
vn 0.2158 0.8929 -0.3952
vn 0.2332 0.9724 -0.0047
vn 0.2114 0.8407 0.4986
vn 0.5362 0.7239 0.4341
vn 0.6140 0.7893 -0.0094
vn 0.5575 0.7416 -0.3731
vn 0.4895 0.6746 -0.5525
vn 0.2088 0.7506 -0.6269
vn 0.9486 0.1818 -0.2589
vn 0.9832 0.1706 0.0645
vn 0.9679 -0.1309 -0.2144
vn 0.9842 -0.1492 0.0957
vn 0.7191 0.4598 -0.5211
vn 0.8258 0.4724 -0.3080
vn 0.8791 0.4760 0.0239
vn 0.8171 0.4050 0.4103
vn 0.8813 0.1551 0.4463
vn 0.8704 -0.1617 0.4650
vn 0.7756 -0.4470 0.4457
vn 0.8474 -0.5145 0.1312
vn 0.8444 -0.5089 -0.1672
vn 0.7820 -0.4824 -0.3947
vn 0.8583 -0.1214 -0.4987
vn 0.8209 0.2013 -0.5345
vn 0.1806 -0.9804 -0.0786
vn 0.1607 -0.9818 -0.1015
vn 0.1488 -0.9784 0.1435
vn 0.5095 -0.7887 -0.3441
vn 0.5440 -0.8308 -0.1171
vn 0.5063 -0.8464 0.1648
vn 0.4448 -0.7758 0.4475
vn 0.1542 -0.8626 0.4818
vn 0.1482 -0.9172 -0.3698
vn 0.3082 0.2745 -0.9109
vn 0.3445 -0.1614 -0.9248
vn 0.2408 0.5577 -0.7943
vn 0.4461 0.4620 -0.7665
vn 0.5707 0.2336 -0.7872
vn 0.6232 -0.1271 -0.7717
vn 0.5828 -0.4680 -0.6643
vn 0.2684 -0.6184 -0.7387
vn 0.1782 0.1347 0.9747
vn 0.1652 -0.1814 0.9694
vn 0.5146 0.4458 0.7324
vn 0.1947 0.4736 0.8589
vn 0.1626 -0.5423 0.8243
vn 0.4611 -0.5075 0.7279
vn 0.5466 -0.1746 0.8190
vn 0.5630 0.1438 0.8139
vn -0.6237 -0.6944 -0.3588
vn 0.2733 0.9410 0.1996
vn 0.3701 -0.9210 -0.1212
vn 0.3488 -0.9178 -0.1896
vn 0.9063 -0.3971 -0.1448
vn 0.8352 0.5149 -0.1933
vn 0.1854 0.9796 -0.0769
vn 0.4003 -0.9134 -0.0738
vn 0.9849 -0.1590 -0.0682
vn 0.8835 0.4619 -0.0786
vn 0.0877 0.9951 -0.0451
vn 0.6121 0.3460 0.7111
vn 0.2801 0.8275 0.4867
vn 0.5606 -0.2356 0.7939
vn 0.1467 -0.8678 0.4748
vn 0.6477 0.5672 0.5087
vn 0.9493 -0.3135 -0.0224
vn -0.7718 0.5777 0.2656
vn 0.5703 -0.8084 -0.1461
vn -0.7887 -0.0024 -0.6148
vn -0.9565 0.1818 -0.2282
vn 0.8646 -0.4771 0.1575
vn -0.8998 -0.2278 -0.3721
vn -0.0081 0.9071 0.4209
vn 0.8052 0.3203 0.4991
vn -0.8433 0.5270 -0.1055
vn 0.0687 -0.8574 -0.5101
vn 0.8919 0.3532 0.2826
vn -0.8177 0.5452 -0.1846
vn -0.0044 -0.9728 -0.2314
vn 0.9006 -0.4127 0.1364
vn -0.8743 -0.3041 -0.3783
vn -0.0006 0.9831 0.1828
vn 0.5227 -0.3786 0.7638
vn -0.9781 -0.2019 0.0498
vn -0.4982 0.6325 0.5931
vn 0.2529 -0.0908 0.9632
vn -0.6772 0.2681 -0.6852
vn -0.1517 -0.8943 0.4210
vn 0.7899 0.3894 0.4737
vn 0.0041 -0.9821 -0.1885
vn 0.8250 -0.3591 0.4363
vn -0.1271 0.9580 0.2571
vn -0.9927 -0.1069 -0.0567
vn -0.3156 0.9462 0.0718
vn 0.9810 0.1253 -0.1481
vn -0.9852 0.1672 -0.0366
vn -0.1568 -0.8877 -0.4329
vn 0.9750 -0.1548 -0.1593
vn -0.1342 0.9816 -0.1358
vn 0.9827 0.0938 -0.1598
vn -0.5310 -0.8471 0.0191
vn -0.5918 -0.7722 -0.2312
vn -0.0036 -0.1975 -0.9803
vn 0.9875 0.0391 0.1529
vn -0.0550 0.9916 -0.1169
vn -0.9373 -0.1780 -0.2997
vn 0.2273 -0.1662 0.9595
vn 0.5591 0.6305 0.5384
vn 0.0397 -0.3868 0.9213
vn 0.4470 -0.0784 0.8911
vn -0.5316 0.0143 -0.8468
vn -0.4958 0.4333 -0.7527
vn 0.0567 -0.8646 -0.4992
vn -0.9448 0.2090 -0.2524
vn 0.6358 0.5692 0.5213
vn 0.1724 0.8672 0.4671
vn -0.9106 -0.1686 -0.3774
vn 0.8765 -0.4658 0.1218
vn -0.0281 0.9430 0.3315
vn -0.8755 -0.2941 -0.3834
vn 0.8629 -0.4591 0.2113
vn -0.0374 -0.9618 -0.2713
vn -0.7925 0.5801 -0.1882
vn 0.8237 0.3714 0.4285
vn 0.5986 0.4387 -0.6702
vn 0.9944 -0.0594 -0.0877
vn 0.4127 -0.6888 0.5960
vn -0.7163 -0.4486 0.5345
vn -0.7048 -0.4021 0.5845
vn 1.0000 0.0023 -0.0049
vn -0.9946 0.0755 -0.0712
vn 0.9973 0.0247 -0.0697
vn -0.9588 -0.1372 0.2489
vn 0.9993 0.0229 0.0309
vn 0.5995 0.5564 -0.5753
vn 0.3704 -0.6118 0.6989
vn -0.5412 0.0538 0.8391
vn -0.6421 0.3009 0.7051
vn 0.2846 -0.0135 0.9586
vn 0.2949 -0.6870 0.6642
vn 0.5928 0.7632 -0.2571
vn 0.1218 0.9193 -0.3743
vn -0.7774 -0.5193 0.3549
vn 0.9650 0.0095 0.2621
vn -0.9992 0.0133 -0.0374
vn -0.9999 0.0034 -0.0096
vn 0.4993 0.8332 0.2378
vn 0.5048 -0.8152 -0.2839
vn -0.6124 0.7534 0.2395
vn -0.4991 -0.8222 -0.2735
vn -0.5028 -0.8439 -0.1870
vn -0.4252 0.7726 0.4715
vn 0.4141 -0.8885 0.1980
vn 0.4527 0.8420 0.2935
vn -1.0000 -0.0002 0.0008
vn 0.9980 0.0033 -0.0628
vn 0.1249 -0.7420 -0.6587
vn 0.0446 -0.4513 0.8912
vn 0.3595 0.9279 0.0989
vn 0.3324 0.8338 0.4407
vn 0.3055 -0.9520 -0.0198
vn 0.8890 -0.0710 0.4524
vn 0.0009 0.6007 -0.7995
vn -0.0072 0.6168 -0.7871
vn -0.0644 0.5832 -0.8098
vn 0.4770 -0.8384 -0.2636
vn 0.4649 0.8655 0.1863
vn -0.4965 0.8499 0.1763
vn -0.4989 -0.8274 -0.2578
vn 0.9992 0.0252 -0.0321
vn 0.9990 -0.0306 -0.0338
vn -1.0000 0.0006 0.0007
vn 0.2867 0.0310 -0.9575
vn 0.5010 -0.6327 0.5905
vn 0.1471 -0.5000 -0.8535
vn -0.4349 -0.5370 0.7228
vn 0.9987 -0.0186 -0.0471
vn -1.0000 0.0002 0.0013
vn 0.4933 0.7922 -0.3592
vn 0.4822 -0.7023 0.5237
vn -0.3044 0.3429 -0.8887
vn -0.4449 -0.8306 0.3349
vn 0.2821 0.9563 0.0765
vn 0.2536 -0.9645 -0.0735
vn 0.7371 -0.3404 0.5838
vn 0.8988 -0.0683 0.4329
vn 0.8391 0.5429 0.0335
vn 0.5999 0.7948 0.0921
vn 0.5513 -0.8343 -0.0000
vn -0.2158 0.8929 -0.3952
vn -0.2309 0.9730 -0.0026
vn -0.2114 0.8407 0.4986
vn -0.5934 0.7171 0.3657
vn -0.6038 0.7971 0.0039
vn -0.5368 0.7678 -0.3497
vn -0.4895 0.6746 -0.5525
vn -0.2088 0.7506 -0.6269
vn -0.9488 0.1900 -0.2522
vn -0.9829 0.1719 0.0657
vn -0.9669 -0.1341 -0.2169
vn -0.9843 -0.1466 0.0981
vn -0.7198 0.4412 -0.5359
vn -0.8218 0.4872 -0.2955
vn -0.8739 0.4848 0.0339
vn -0.8171 0.4050 0.4103
vn -0.8793 0.1584 0.4492
vn -0.8717 -0.1659 0.4611
vn -0.7717 -0.4987 0.3948
vn -0.8452 -0.5193 0.1267
vn -0.8441 -0.5094 -0.1677
vn -0.7820 -0.4824 -0.3947
vn -0.8572 -0.1236 -0.4999
vn -0.8229 0.2097 -0.5281
vn -0.1607 -0.9818 -0.1015
vn -0.1806 -0.9804 -0.0786
vn -0.1564 -0.9765 0.1485
vn -0.4800 -0.7943 -0.3725
vn -0.5169 -0.8425 -0.1518
vn -0.4664 -0.8756 0.1262
vn -0.4448 -0.7758 0.4475
vn -0.1542 -0.8626 0.4818
vn -0.2261 -0.9220 -0.3144
vn -0.3148 0.2794 -0.9071
vn -0.3250 -0.1799 -0.9284
vn -0.2669 0.5681 -0.7785
vn -0.4934 0.5045 -0.7086
vn -0.5804 0.2495 -0.7751
vn -0.6137 -0.1420 -0.7766
vn -0.5175 -0.5489 -0.6564
vn -0.2683 -0.6184 -0.7387
vn -0.1733 0.1395 0.9749
vn -0.1703 -0.1865 0.9676
vn -0.5492 0.4099 0.7283
vn -0.1876 0.4801 0.8569
vn -0.1626 -0.5423 0.8243
vn -0.4611 -0.5075 0.7279
vn -0.5518 -0.1809 0.8141
vn -0.5611 0.1458 0.8148
vn -0.4125 0.9103 -0.0355
vn -0.1795 -0.9803 -0.0828
vn -0.2241 -0.9544 -0.1972
vn -0.9476 -0.2913 -0.1307
vn -0.8992 0.4204 -0.1210
vn -0.2508 0.9680 -0.0093
vn -0.1798 -0.9805 -0.0788
vn -0.9438 -0.3187 -0.0873
vn -0.9693 0.2002 0.1426
vn -0.3167 0.9458 0.0715
vn -0.7101 0.4471 0.5439
vn -0.2589 0.8325 0.4898
vn -0.3054 -0.1688 0.9371
vn -0.0362 -0.8301 0.5565
vn -0.7879 0.5582 -0.2601
vn -0.7481 -0.2681 0.6071
vn -0.9228 0.3662 -0.1197
vn -0.3002 -0.9478 0.1072
vn 0.2850 -0.5473 -0.7869
vn -0.8820 0.1643 -0.4416
vn -0.8879 -0.2775 0.3669
vn 0.9092 -0.3936 -0.1359
vn -0.0091 0.9493 -0.3142
vn -0.8159 0.5521 0.1720
vn 0.8551 0.3651 -0.3682
vn -0.0529 -0.9843 0.1681
vn -0.8820 0.4662 0.0692
vn 0.8411 0.2432 -0.4832
vn -0.0150 -0.9332 0.3592
vn -0.8965 -0.2351 0.3756
vn 0.8594 -0.4798 -0.1764
vn -0.0001 0.9145 -0.4046
vn -0.4862 0.1268 0.8646
vn 0.9810 -0.1557 0.1156
vn 0.5179 0.8480 0.1127
vn -0.6107 0.6862 0.3952
vn 0.6449 -0.1765 -0.7436
vn 0.5358 -0.2881 0.7937
vn -0.7899 0.3890 0.4741
vn -0.0040 -0.9172 0.3983
vn -0.8666 0.0540 0.4961
vn 0.2584 0.8050 -0.5340
vn 0.9902 -0.1374 -0.0264
vn 0.6860 0.5463 -0.4805
vn -0.9875 0.0371 -0.1534
vn 0.9655 0.1951 -0.1725
vn 0.1455 -0.9798 0.1370
vn -0.9888 -0.1242 -0.0831
vn 0.1200 0.7319 -0.6708
vn -0.9894 0.0045 -0.1452
vn 0.5296 -0.7341 0.4251
vn 0.5459 -0.8136 0.2001
vn 0.2122 -0.4676 -0.8581
vn -0.9803 0.1355 0.1438
vn 0.0417 0.7521 -0.6577
vn 0.9250 -0.3322 -0.1846
vn -0.1991 -0.1298 0.9713
vn -0.5591 0.6305 0.5384
vn -0.0159 -0.3522 0.9358
vn -0.4900 -0.0496 0.8703
vn 0.4784 -0.4699 -0.7419
vn 0.5886 -0.2086 -0.7810
vn -0.0311 -0.9799 0.1970
vn 0.8746 0.3484 -0.3372
vn -0.8126 0.5433 0.2111
vn -0.0427 0.9426 -0.3312
vn 0.9213 -0.3540 -0.1610
vn -0.8794 -0.2894 0.3781
vn 0.0207 0.9495 -0.3132
vn 0.8609 -0.4751 -0.1820
vn -0.8912 -0.2433 0.3828
vn -0.0465 -0.9710 0.2345
vn 0.7745 0.3153 -0.5483
vn -0.8231 0.5534 0.1276
vn -0.4833 0.8613 0.1565
vn -0.9941 0.0352 -0.1026
vn -0.4985 -0.7949 -0.3459
vn 0.5380 -0.7773 -0.3262
vn 0.5344 -0.6728 -0.5117
vn 0.4909 0.8517 0.1832
vn -0.4449 0.4517 -0.7733
vn -0.9957 0.0469 -0.0800
vn 0.9814 -0.1778 0.0724
vn -0.9990 -0.0175 0.0415
vn -0.5092 0.7677 0.3891
vn -0.4696 -0.7982 -0.3774
vn 0.5640 -0.1248 0.8163
vn 0.5030 -0.2509 0.8270
vn 0.4514 -0.6302 0.6317
vn -0.4578 -0.8649 -0.2057
vn -0.4768 0.7842 0.3972
vn -0.0590 0.9245 -0.3765
vn 0.5477 -0.7019 -0.4554
vn -0.9432 -0.1025 0.3160
vn 0.9994 0.0311 -0.0157
vn 0.9996 0.0148 -0.0252
vn -0.4986 0.7824 0.3731
vn -0.5000 -0.7405 -0.4490
vn 0.4999 0.7576 0.4196
vn 0.5000 -0.7464 -0.4392
vn 0.4818 -0.7682 -0.4216
vn 0.6149 0.7101 0.3429
vn -0.4788 -0.7143 -0.5104
vn -0.5528 0.6906 0.4664
vn 1.0000 -0.0004 0.0007
vn -0.9979 0.0297 -0.0569
vn 0.3491 -0.4193 -0.8380
vn -0.2338 -0.9711 0.0480
vn 0.1310 0.9889 0.0703
vn -0.2977 0.8440 0.4461
vn -0.1670 -0.9813 0.0954
vn -0.8743 -0.1070 0.4735
vn -0.0015 0.8430 -0.5378
vn 0.0994 0.8887 -0.4475
vn -0.0024 0.9155 -0.4022
vn -0.4160 -0.7989 -0.4344
vn -0.4197 0.8332 0.3599
vn 0.4227 0.8322 0.3589
vn 0.4200 -0.7973 -0.4335
vn -0.9994 0.0329 -0.0145
vn -0.9978 0.0240 -0.0621
vn 1.0000 -0.0000 0.0009
vn -0.5431 0.7455 0.3863
vn -0.4935 -0.7534 -0.4345
vn 0.5231 0.7374 0.4274
vn 0.5120 -0.7946 -0.3264
vn -0.9978 0.0262 -0.0601
vn 1.0000 -0.0001 0.0008
vn -0.4822 0.8489 0.2162
vn -0.4918 -0.7446 -0.4512
vn 0.5017 0.7958 0.3390
vn 0.5031 -0.7765 -0.3794
vn -0.2691 0.9600 0.0768
vn -0.2190 -0.9716 -0.0896
vn -0.9072 -0.0936 0.4101
vn -0.7495 -0.3362 0.5703
vn -0.8391 0.5429 0.0335
vn -0.5488 0.8323 0.0777
vn -0.5513 -0.8343 -0.0000
vn -0.9610 0.0185 -0.2760
vn 0.4268 0.1202 -0.8963
vn -0.2480 0.6581 -0.7109
vn 0.5241 0.8428 0.1226
vt 0.500000 0.375000
vt 0.437500 0.437500
vt 0.437500 0.375000
vt 0.562500 0.437500
vt 0.500000 0.437500
vt 0.625000 0.375000
vt 0.562500 0.375000
vt 0.625000 0.500000
vt 0.562500 0.500000
vt 0.500000 0.500000
vt 0.437500 0.500000
vt 0.375000 0.500000
vt 0.375000 0.437500
vt 0.375000 0.375000
vt 0.437500 0.562500
vt 0.500000 0.625000
vt 0.437500 0.625000
vt 0.500000 0.562500
vt 0.562500 0.625000
vt 0.500000 0.687500
vt 0.437500 0.687500
vt 0.562500 0.687500
vt 0.375000 0.562500
vt 0.562500 0.562500
vt 0.625000 0.625000
vt 0.625000 0.687500
vt 0.625000 0.750000
vt 0.562500 0.750000
vt 0.500000 0.750000
vt 0.437500 0.750000
vt 0.375000 0.750000
vt 0.375000 0.687500
vt 0.375000 0.625000
vt 0.500000 0.875000
vt 0.468750 0.875000
vt 0.437500 0.875000
vt 0.500000 0.812500
vt 0.562500 0.875000
vt 0.437500 0.812500
vt 0.375000 0.812500
vt 0.562500 0.812500
vt 0.625000 0.812500
vt 0.375000 0.875000
vt 0.250000 0.562500
vt 0.312500 0.625000
vt 0.250000 0.625000
vt 0.312500 0.687500
vt 0.250000 0.687500
vt 0.250000 0.500000
vt 0.312500 0.562500
vt 0.312500 0.500000
vt 0.312500 0.750000
vt 0.250000 0.750000
vt 0.687500 0.562500
vt 0.750000 0.625000
vt 0.687500 0.625000
vt 0.750000 0.687500
vt 0.687500 0.687500
vt 0.625000 0.562500
vt 0.687500 0.500000
vt 0.750000 0.562500
vt 0.687500 0.750000
vt 1.000000 0.500000
vt 0.833333 1.000000
vt 0.833333 0.500000
vt 0.666667 1.000000
vt 0.666667 0.500000
vt 0.500000 1.000000
vt 0.500000 0.500000
vt 0.333333 0.500000
vt 0.042154 0.130000
vt 0.250000 0.010000
vt 0.457846 0.130000
vt 0.333333 1.000000
vt 0.166667 0.500000
vt 0.166667 1.000000
vt -0.000000 0.500000
vt 0.542154 0.130000
vt 0.542154 0.370000
vt 0.957846 0.370000
vt 1.000000 0.828637
vt 0.875000 1.000000
vt 0.875000 0.828637
vt 0.625000 0.828637
vt 0.500000 1.000000
vt 0.500000 0.828637
vt 0.625000 0.645722
vt 0.500000 0.500000
vt 0.750000 0.500000
vt 0.875000 0.645722
vt 0.875000 0.500000
vt 0.500000 0.645722
vt 0.750000 0.828637
vt 0.750000 0.645722
vt 1.000000 0.645722
vt 0.750000 1.000000
vt 1.000000 1.000000
vt 0.625000 1.000000
vt 0.749520 0.964446
vt 0.653402 0.965669
vt 0.844587 0.863513
vt 0.844268 0.965118
vt 0.647775 0.863148
vt 0.750840 0.864057
vt 0.749520 0.964446
vt 0.750840 0.864057
vt 0.647775 0.863149
vt 0.844587 0.863513
vt 0.844267 0.965117
vt 0.653402 0.965669
vt 0.749520 0.964446
vt 0.844268 0.965117
vt 0.750840 0.864057
vt 0.653402 0.965669
vt 0.844587 0.863513
vt 0.000000 0.000000
vt 0.833333 0.500000
vt -0.000000 1.000000
vt 0.500000 0.500000
vt 0.500000 0.500000
vt 0.166667 0.500000
vt -0.000000 0.500000
vt 0.833333 0.500000
vt 0.042154 0.370000
vt 0.457846 0.370000
vt 0.750000 0.010000
vt 0.333333 0.500000
vt 0.457846 0.250000
vt 0.625000 0.437500
vt 0.750000 0.500000
vt 0.957846 0.130000
vt 0.250000 0.490000
vt 0.625000 0.875000
vt 0.750000 0.750000
vt 0.250000 0.490000
vt 0.750000 0.490000
vt 0.750000 0.490000
s 0
f 26/1/1 28/2/1 25/3/1
f 26/1/2 30/4/2 29/5/2
f 7/6/3 30/4/3 27/7/3
f 30/4/4 4/8/4 9/9/4
f 29/5/5 9/9/5 10/10/5
f 28/2/6 10/10/6 11/11/6
f 28/2/7 3/12/7 5/13/7
f 25/3/8 5/13/8 6/14/8
f 31/15/9 35/16/9 34/17/9
f 32/18/10 36/19/10 35/16/10
f 34/17/11 38/20/11 37/21/11
f 35/16/12 39/22/12 38/20/12
f 3/12/13 31/15/13 14/23/13
f 11/11/14 32/18/14 31/15/14
f 10/10/15 33/24/15 32/18/15
f 4/8/16 33/24/16 9/9/16
f 33/24/17 16/25/17 36/19/17
f 36/19/18 17/26/18 39/22/18
f 39/22/19 2/27/19 18/28/19
f 38/20/20 18/28/20 19/29/20
f 37/21/21 19/29/21 20/30/21
f 37/21/22 1/31/22 12/32/22
f 13/33/23 37/21/23 12/32/23
f 14/23/24 34/17/24 13/33/24
f 44/34/25 58/35/25 43/36/25
f 41/37/26 45/38/26 44/34/26
f 1/31/27 40/39/27 22/40/27
f 20/30/28 41/37/28 40/39/28
f 19/29/29 42/41/29 41/37/29
f 2/27/30 42/41/30 18/28/30
f 23/42/31 45/38/31 42/41/31
f 22/40/32 43/36/32 21/43/32
f 46/44/33 49/45/33 48/46/33
f 48/46/34 51/47/34 50/48/34
f 6/49/35 47/50/35 46/44/35
f 5/51/36 14/23/36 47/50/36
f 47/50/37 13/33/37 49/45/37
f 49/45/38 12/32/38 51/47/38
f 51/47/39 1/31/39 22/52/39
f 51/47/40 21/53/40 50/48/40
f 52/54/41 55/55/41 54/56/41
f 54/56/42 57/57/42 56/58/42
f 4/8/43 52/54/43 15/59/43
f 8/60/44 53/61/44 52/54/44
f 57/57/45 23/62/45 56/58/45
f 56/58/46 2/27/46 17/26/46
f 16/25/47 56/58/47 17/26/47
f 15/59/48 54/56/48 16/25/48
f 59/63/49 62/64/49 61/65/49
f 61/65/50 64/66/50 63/67/50
f 63/67/51 66/68/51 65/69/51
f 66/68/52 67/70/52 65/69/52
f 68/71/53 66/72/53 64/73/53
f 68/74/54 69/75/54 67/70/54
f 70/76/55 59/77/55 69/75/55
f 67/78/56 69/79/56 61/80/56
f 86/81/57 97/82/57 99/83/57
f 100/84/58 80/85/58 90/86/58
f 84/87/59 79/88/59 77/8/59
f 75/89/60 84/87/60 77/8/60
f 82/90/61 75/89/61 73/91/61
f 71/63/62 82/90/62 73/91/62
f 100/84/63 85/92/63 84/87/63
f 101/93/64 84/87/64 83/94/64
f 99/83/65 83/94/65 82/90/65
f 81/95/66 99/83/66 82/90/66
f 97/82/67 93/96/67 96/96/67
f 72/97/68 92/82/68 97/82/68
f 98/98/69 93/96/69 94/98/69
f 80/85/70 94/98/70 95/85/70
f 76/99/71 97/82/71 96/96/71
f 78/100/72 96/96/72 98/98/72
f 87/101/73 97/82/73 74/102/73
f 78/100/74 100/84/74 89/103/74
f 89/103/75 101/93/75 88/104/75
f 87/101/76 101/93/76 99/83/76
f 150/105/77 104/100/77 103/99/77
f 151/106/78 107/103/78 152/107/78
f 154/108/79 102/102/79 105/101/79
f 150/105/80 102/102/80 153/109/80
f 151/106/81 105/101/81 106/104/81
f 152/107/82 104/100/82 149/110/82
f 155/111/83 108/102/83 156/112/83
f 158/113/84 111/101/84 112/104/84
f 160/114/85 113/103/85 110/100/85
f 155/111/86 110/100/86 109/99/86
f 158/113/87 113/103/87 159/107/87
f 156/112/88 111/101/88 157/115/88
f 110/100/89 115/99/89 109/99/89
f 112/104/90 133/103/90 113/103/90
f 108/102/91 117/101/91 111/101/91
f 108/102/92 115/99/92 114/102/92
f 111/101/93 118/104/93 112/104/93
f 110/100/94 119/103/94 116/100/94
f 114/102/95 121/99/95 120/102/95
f 117/101/96 124/104/96 118/104/96
f 119/103/97 122/100/97 116/100/97
f 115/99/98 122/100/98 121/99/98
f 119/103/99 124/104/99 125/103/99
f 117/101/100 120/102/100 123/101/100
f 124/104/101 131/103/101 125/103/101
f 123/101/102 126/102/102 129/101/102
f 121/99/103 126/102/103 120/102/103
f 124/104/104 129/101/104 130/104/104
f 125/103/105 128/100/105 122/100/105
f 121/99/106 128/100/106 127/99/106
f 132/104/107 137/103/107 133/103/107
f 118/104/108 132/104/108 112/104/108
f 119/103/109 134/104/109 118/104/109
f 119/103/110 133/103/110 135/103/110
f 139/103/111 141/103/111 143/103/111
f 135/103/112 137/103/112 139/103/112
f 135/103/113 138/104/113 134/104/113
f 134/104/114 136/104/114 132/104/114
f 141/103/115 142/104/115 143/103/115
f 139/103/116 142/104/116 138/104/116
f 138/104/117 140/104/117 136/104/117
f 136/104/118 141/103/118 137/103/118
f 94/98/119 146/96/119 147/98/119
f 91/97/120 145/82/120 92/82/120
f 94/98/121 148/85/121 95/85/121
f 92/82/122 146/96/122 93/96/122
f 128/100/123 130/104/123 127/99/123
f 127/99/124 129/101/124 126/102/124
f 89/103/125 149/110/125 78/100/125
f 88/104/126 154/108/126 151/106/126
f 74/102/127 150/105/127 153/109/127
f 87/101/128 153/109/128 154/108/128
f 88/104/129 152/107/129 89/103/129
f 78/100/130 150/105/130 76/99/130
f 102/102/131 157/115/131 105/101/131
f 106/104/132 159/107/132 107/103/132
f 103/99/133 160/114/133 155/111/133
f 104/100/134 159/107/134 160/114/134
f 106/104/135 157/115/135 158/113/135
f 103/99/136 156/112/136 102/102/136
f 162/97/137 163/65/137 161/63/137
f 163/65/138 166/66/138 165/67/138
f 165/67/139 168/68/139 167/69/139
f 168/68/140 169/70/140 167/69/140
f 170/74/141 175/68/141 176/74/141
f 368/74/142 369/75/142 416/116/142
f 170/74/143 171/75/143 169/70/143
f 190/67/144 185/65/144 191/117/144
f 177/76/145 182/74/145 183/76/145
f 164/64/146 174/66/146 166/66/146
f 164/64/147 172/97/147 173/64/147
f 166/66/148 175/68/148 168/68/148
f 182/71/149 181/72/149 180/73/149
f 174/66/150 181/68/150 175/68/150
f 173/64/151 178/97/151 179/64/151
f 177/76/152 178/118/152 172/118/152
f 175/68/153 182/74/153 176/74/153
f 173/64/154 180/66/154 174/66/154
f 188/70/155 210/75/155 209/70/155
f 192/75/156 188/70/156 193/70/156
f 191/117/157 184/63/157 194/63/157
f 190/67/158 187/69/158 186/67/158
f 192/75/159 184/77/159 189/75/159
f 193/70/160 187/69/160 195/119/160
f 221/70/161 195/119/161 219/120/161
f 218/121/162 194/122/162 192/75/162
f 217/67/163 195/119/163 190/67/163
f 222/63/164 191/117/164 194/63/164
f 218/121/165 193/70/165 221/70/165
f 220/123/166 190/67/166 191/117/166
f 183/76/167 178/118/167 200/116/167
f 182/116/168 197/116/168 196/116/168
f 181/116/169 198/116/169 197/116/169
f 196/116/170 183/124/170 182/71/170
f 199/116/171 178/116/171 200/116/171
f 199/116/172 201/116/172 179/116/172
f 198/116/173 202/116/173 203/116/173
f 179/125/174 202/73/174 180/73/174
f 206/80/175 208/126/175 210/79/175
f 187/69/176 207/67/176 186/67/176
f 185/65/177 205/63/177 184/63/177
f 189/75/178 205/77/178 210/75/178
f 187/69/179 209/70/179 208/69/179
f 186/67/180 206/65/180 185/65/180
f 163/65/181 214/67/181 211/123/181
f 171/75/182 212/127/182 169/70/182
f 161/63/183 211/123/183 213/63/183
f 165/67/184 216/69/184 214/67/184
f 161/77/185 215/121/185 171/75/185
f 169/70/186 216/69/186 167/69/186
f 211/123/187 217/67/187 220/123/187
f 215/121/188 221/70/188 212/127/188
f 213/63/189 220/123/189 222/63/189
f 214/67/190 219/120/190 217/67/190
f 215/121/191 222/77/191 218/121/191
f 212/127/192 219/120/192 216/69/192
f 204/116/193 73/116/193 201/116/193
f 203/116/194 77/116/194 79/116/194
f 201/125/195 73/125/195 75/128/195
f 145/82/196 225/96/196 146/96/196
f 146/96/197 226/98/197 147/98/197
f 145/82/198 223/97/198 224/82/198
f 147/98/199 227/85/199 148/85/199
f 248/2/200 26/1/200 25/3/200
f 26/1/201 250/4/201 27/7/201
f 250/4/202 7/6/202 27/7/202
f 250/4/203 231/8/203 233/129/203
f 249/5/204 234/9/204 250/4/204
f 248/2/205 235/10/205 249/5/205
f 230/12/206 248/2/206 232/13/206
f 232/13/207 25/3/207 6/14/207
f 251/15/208 255/16/208 252/18/208
f 252/18/209 256/19/209 253/24/209
f 254/17/210 258/20/210 255/16/210
f 255/16/211 259/22/211 256/19/211
f 230/12/212 251/15/212 236/11/212
f 236/11/213 252/18/213 235/10/213
f 235/10/214 253/24/214 234/9/214
f 253/24/215 231/8/215 234/9/215
f 253/24/216 241/25/216 240/59/216
f 256/19/217 242/26/217 241/25/217
f 259/22/218 229/27/218 242/26/218
f 258/20/219 243/28/219 259/22/219
f 257/21/220 244/29/220 258/20/220
f 228/31/221 257/21/221 237/32/221
f 238/33/222 257/21/222 254/17/222
f 239/23/223 254/17/223 251/15/223
f 261/37/224 45/38/224 262/41/224
f 228/31/225 260/39/225 245/30/225
f 245/30/226 261/37/226 244/29/226
f 244/29/227 262/41/227 243/28/227
f 262/41/228 229/27/228 243/28/228
f 45/38/229 247/42/229 262/41/229
f 246/40/230 43/36/230 260/39/230
f 46/44/231 264/45/231 263/50/231
f 48/46/232 265/47/232 264/45/232
f 6/49/233 263/50/233 232/51/233
f 232/51/234 239/23/234 230/12/234
f 263/50/235 238/33/235 239/23/235
f 264/45/236 237/32/236 238/33/236
f 265/47/237 228/31/237 237/32/237
f 21/53/238 265/47/238 50/48/238
f 266/54/239 55/55/239 53/61/239
f 267/56/240 57/57/240 55/55/240
f 231/8/241 266/54/241 233/60/241
f 233/60/242 53/61/242 7/130/242
f 247/62/243 57/57/243 268/58/243
f 229/27/244 268/58/244 242/26/244
f 241/25/245 268/58/245 267/56/245
f 240/59/246 267/56/246 266/54/246
f 269/63/247 272/64/247 270/97/247
f 271/65/248 274/66/248 272/64/248
f 273/67/249 276/68/249 274/66/249
f 277/70/250 276/68/250 275/69/250
f 278/71/251 280/124/251 274/73/251
f 279/75/252 278/74/252 277/70/252
f 269/77/253 280/76/253 279/75/253
f 271/80/254 277/78/254 273/131/254
f 86/81/255 297/82/255 72/97/255
f 300/84/256 80/85/256 298/98/256
f 79/88/257 289/87/257 285/8/257
f 283/89/258 289/87/258 288/94/258
f 283/89/259 287/90/259 281/91/259
f 71/63/260 287/90/260 81/95/260
f 85/92/261 300/84/261 289/87/261
f 289/87/262 301/93/262 288/94/262
f 288/94/263 299/83/263 287/90/263
f 81/95/264 299/83/264 86/81/264
f 294/96/265 297/82/265 296/96/265
f 293/82/266 72/97/266 297/82/266
f 298/98/267 294/96/267 296/96/267
f 80/85/268 295/98/268 298/98/268
f 284/99/269 297/82/269 282/102/269
f 286/100/270 296/96/270 284/99/270
f 297/82/271 290/101/271 282/102/271
f 300/84/272 286/100/272 292/103/272
f 301/93/273 292/103/273 291/104/273
f 290/101/274 301/93/274 291/104/274
f 348/105/275 304/100/275 347/110/275
f 307/103/276 349/106/276 350/107/276
f 352/108/277 302/102/277 351/109/277
f 302/102/278 348/105/278 351/109/278
f 349/106/279 305/101/279 352/108/279
f 304/100/280 350/107/280 347/110/280
f 308/102/281 353/111/281 354/112/281
f 356/113/282 311/101/282 355/115/282
f 358/114/283 313/103/283 357/107/283
f 353/111/284 310/100/284 358/114/284
f 313/103/285 356/113/285 357/107/285
f 311/101/286 354/112/286 355/115/286
f 315/99/287 310/100/287 309/99/287
f 333/103/288 312/104/288 313/103/288
f 317/101/289 308/102/289 311/101/289
f 308/102/290 315/99/290 309/99/290
f 318/104/291 311/101/291 312/104/291
f 310/100/292 319/103/292 313/103/292
f 314/102/293 321/99/293 315/99/293
f 324/104/294 317/101/294 318/104/294
f 322/100/295 319/103/295 316/100/295
f 315/99/296 322/100/296 316/100/296
f 319/103/297 324/104/297 318/104/297
f 317/101/298 320/102/298 314/102/298
f 331/103/299 324/104/299 325/103/299
f 323/101/300 326/102/300 320/102/300
f 326/102/301 321/99/301 320/102/301
f 324/104/302 329/101/302 323/101/302
f 328/100/303 325/103/303 322/100/303
f 321/99/304 328/100/304 322/100/304
f 337/103/305 332/104/305 333/103/305
f 332/104/306 318/104/306 312/104/306
f 334/104/307 319/103/307 318/104/307
f 319/103/308 333/103/308 313/103/308
f 339/103/309 341/103/309 337/103/309
f 335/103/310 337/103/310 333/103/310
f 338/104/311 335/103/311 334/104/311
f 336/104/312 334/104/312 332/104/312
f 341/103/313 342/104/313 340/104/313
f 342/104/314 339/103/314 338/104/314
f 340/104/315 338/104/315 336/104/315
f 341/103/316 336/104/316 337/103/316
f 295/98/317 345/96/317 294/96/317
f 344/82/318 91/97/318 293/82/318
f 148/85/319 295/98/319 95/85/319
f 345/96/320 293/82/320 294/96/320
f 328/100/321 330/104/321 331/103/321
f 327/99/322 329/101/322 330/104/322
f 347/110/323 292/103/323 286/100/323
f 291/104/324 352/108/324 290/101/324
f 282/102/325 348/105/325 284/99/325
f 290/101/326 351/109/326 282/102/326
f 350/107/327 291/104/327 292/103/327
f 348/105/328 286/100/328 284/99/328
f 355/115/329 302/102/329 305/101/329
f 357/107/330 306/104/330 307/103/330
f 303/99/331 358/114/331 304/100/331
f 304/100/332 357/107/332 307/103/332
f 306/104/333 355/115/333 305/101/333
f 354/112/334 303/99/334 302/102/334
f 361/65/335 360/97/335 359/63/335
f 361/65/336 364/66/336 362/64/336
f 363/67/337 366/68/337 364/66/337
f 367/70/338 366/68/338 365/69/338
f 368/74/339 373/68/339 366/68/339
f 416/116/340 359/63/340 360/97/340
f 162/97/341 171/75/341 415/116/341
f 381/65/342 386/67/342 387/117/342
f 177/76/343 379/74/343 374/74/343
f 372/66/344 362/64/344 364/66/344
f 362/64/345 370/97/345 360/97/345
f 373/68/346 364/66/346 366/68/346
f 379/71/347 183/124/347 375/132/347
f 378/68/348 372/66/348 373/68/348
f 371/64/349 375/97/349 370/97/349
f 375/118/350 177/76/350 370/118/350
f 379/74/351 373/68/351 374/74/351
f 377/66/352 371/64/352 372/66/352
f 384/70/353 399/75/353 385/75/353
f 384/70/354 388/75/354 389/70/354
f 380/63/355 387/117/355 390/63/355
f 386/67/356 383/69/356 391/119/356
f 388/75/357 380/77/357 390/122/357
f 383/69/358 389/70/358 391/119/358
f 391/119/359 410/70/359 408/120/359
f 407/121/360 390/122/360 411/77/360
f 406/67/361 391/119/361 408/120/361
f 411/63/362 387/117/362 409/123/362
f 389/70/363 407/121/363 410/70/363
f 409/123/364 386/67/364 406/67/364
f 183/76/365 200/116/365 375/118/365
f 197/116/366 379/116/366 196/116/366
f 198/116/367 378/116/367 197/116/367
f 196/116/368 379/71/368 183/124/368
f 199/116/369 375/116/369 376/116/369
f 392/116/370 199/116/370 376/116/370
f 198/116/371 393/116/371 377/116/371
f 393/73/372 376/125/372 377/73/372
f 399/79/373 397/126/373 395/80/373
f 396/67/374 383/69/374 382/67/374
f 394/63/375 381/65/375 380/63/375
f 385/75/376 394/77/376 380/77/376
f 383/69/377 398/70/377 384/70/377
f 395/65/378 382/67/378 381/65/378
f 361/65/379 403/67/379 363/67/379
f 401/127/380 369/75/380 367/70/380
f 359/63/381 400/123/381 361/65/381
f 363/67/382 405/69/382 365/69/382
f 404/121/383 359/77/383 369/75/383
f 405/69/384 367/70/384 365/69/384
f 400/123/385 406/67/385 403/67/385
f 410/70/386 404/121/386 401/127/386
f 402/63/387 409/123/387 400/123/387
f 403/67/388 408/120/388 405/69/388
f 404/121/389 411/77/389 402/77/389
f 408/120/390 401/127/390 405/69/390
f 281/116/391 204/116/391 392/116/391
f 203/116/392 285/116/392 393/116/392
f 283/128/393 281/125/393 392/125/393
f 413/96/394 344/82/394 345/96/394
f 414/98/395 345/96/395 346/98/395
f 344/82/396 223/97/396 144/97/396
f 227/85/397 346/98/397 148/85/397
f 415/116/398 176/74/398 177/76/398
f 416/116/399 374/74/399 368/74/399
f 172/118/400 415/116/400 177/76/400
f 416/116/401 370/118/401 177/76/401
f 26/1/402 29/5/402 28/2/402
f 26/1/403 27/7/403 30/4/403
f 7/6/404 8/129/404 30/4/404
f 30/4/405 8/129/405 4/8/405
f 29/5/406 30/4/406 9/9/406
f 28/2/407 29/5/407 10/10/407
f 28/2/408 11/11/408 3/12/408
f 25/3/409 28/2/409 5/13/409
f 31/15/410 32/18/410 35/16/410
f 32/18/411 33/24/411 36/19/411
f 34/17/412 35/16/412 38/20/412
f 35/16/413 36/19/413 39/22/413
f 3/12/414 11/11/414 31/15/414
f 11/11/415 10/10/415 32/18/415
f 10/10/416 9/9/416 33/24/416
f 4/8/417 15/59/417 33/24/417
f 33/24/418 15/59/418 16/25/418
f 36/19/419 16/25/419 17/26/419
f 39/22/420 17/26/420 2/27/420
f 38/20/421 39/22/421 18/28/421
f 37/21/422 38/20/422 19/29/422
f 37/21/423 20/30/423 1/31/423
f 13/33/424 34/17/424 37/21/424
f 14/23/425 31/15/425 34/17/425
f 43/36/426 40/39/426 44/34/426
f 40/39/427 41/37/427 44/34/427
f 41/37/428 42/41/428 45/38/428
f 1/31/429 20/30/429 40/39/429
f 20/30/430 19/29/430 41/37/430
f 19/29/431 18/28/431 42/41/431
f 2/27/432 23/42/432 42/41/432
f 23/42/433 24/133/433 45/38/433
f 22/40/434 40/39/434 43/36/434
f 46/44/435 47/50/435 49/45/435
f 48/46/436 49/45/436 51/47/436
f 6/49/437 5/51/437 47/50/437
f 5/51/438 3/12/438 14/23/438
f 47/50/439 14/23/439 13/33/439
f 49/45/440 13/33/440 12/32/440
f 51/47/441 12/32/441 1/31/441
f 51/47/442 22/52/442 21/53/442
f 52/54/443 53/61/443 55/55/443
f 54/56/444 55/55/444 57/57/444
f 4/8/445 8/60/445 52/54/445
f 8/60/446 7/130/446 53/61/446
f 57/57/447 24/134/447 23/62/447
f 56/58/448 23/62/448 2/27/448
f 16/25/449 54/56/449 56/58/449
f 15/59/450 52/54/450 54/56/450
f 59/63/49 60/97/49 62/64/49
f 61/65/50 62/64/50 64/66/50
f 63/67/51 64/66/51 66/68/51
f 66/68/451 68/74/451 67/70/451
f 64/73/53 62/125/53 68/71/53
f 62/125/53 60/135/53 70/124/53
f 68/71/53 62/125/53 70/124/53
f 68/74/54 70/76/54 69/75/54
f 70/76/55 60/118/55 59/77/55
f 69/79/56 59/136/56 61/80/56
f 61/80/56 63/131/56 67/78/56
f 63/131/56 65/126/56 67/78/56
f 86/81/452 72/97/452 97/82/452
f 100/84/453 98/98/453 80/85/453
f 84/87/454 85/92/454 79/88/454
f 75/89/455 83/94/455 84/87/455
f 82/90/456 83/94/456 75/89/456
f 71/63/457 81/95/457 82/90/457
f 100/84/458 90/86/458 85/92/458
f 101/93/459 100/84/459 84/87/459
f 99/83/460 101/93/460 83/94/460
f 81/95/461 86/81/461 99/83/461
f 97/82/462 92/82/462 93/96/462
f 72/97/463 91/97/463 92/82/463
f 98/98/464 96/96/464 93/96/464
f 80/85/465 98/98/465 94/98/465
f 76/99/466 74/102/466 97/82/466
f 78/100/467 76/99/467 96/96/467
f 87/101/468 99/83/468 97/82/468
f 78/100/469 98/98/469 100/84/469
f 89/103/470 100/84/470 101/93/470
f 87/101/471 88/104/471 101/93/471
f 150/105/472 149/110/472 104/100/472
f 151/106/473 106/104/473 107/103/473
f 154/108/474 153/109/474 102/102/474
f 150/105/475 103/99/475 102/102/475
f 151/106/476 154/108/476 105/101/476
f 152/107/477 107/103/477 104/100/477
f 155/111/478 109/99/478 108/102/478
f 158/113/479 157/115/479 111/101/479
f 160/114/480 159/107/480 113/103/480
f 155/111/481 160/114/481 110/100/481
f 158/113/482 112/104/482 113/103/482
f 156/112/483 108/102/483 111/101/483
f 110/100/484 116/100/484 115/99/484
f 112/104/485 132/104/485 133/103/485
f 108/102/486 114/102/486 117/101/486
f 108/102/487 109/99/487 115/99/487
f 111/101/488 117/101/488 118/104/488
f 110/100/489 113/103/489 119/103/489
f 114/102/490 115/99/490 121/99/490
f 117/101/96 123/101/96 124/104/96
f 119/103/491 125/103/491 122/100/491
f 115/99/492 116/100/492 122/100/492
f 119/103/99 118/104/99 124/104/99
f 117/101/493 114/102/493 120/102/493
f 124/104/494 130/104/494 131/103/494
f 123/101/495 120/102/495 126/102/495
f 121/99/496 127/99/496 126/102/496
f 124/104/497 123/101/497 129/101/497
f 125/103/498 131/103/498 128/100/498
f 121/99/499 122/100/499 128/100/499
f 132/104/107 136/104/107 137/103/107
f 118/104/500 134/104/500 132/104/500
f 119/103/501 135/103/501 134/104/501
f 119/103/502 113/103/502 133/103/502
f 139/103/503 137/103/503 141/103/503
f 135/103/112 133/103/112 137/103/112
f 135/103/113 139/103/113 138/104/113
f 134/104/114 138/104/114 136/104/114
f 141/103/504 140/104/504 142/104/504
f 139/103/505 143/103/505 142/104/505
f 138/104/506 142/104/506 140/104/506
f 136/104/507 140/104/507 141/103/507
f 94/98/508 93/96/508 146/96/508
f 91/97/509 144/97/509 145/82/509
f 94/98/510 147/98/510 148/85/510
f 92/82/511 145/82/511 146/96/511
f 128/100/512 131/103/512 130/104/512
f 127/99/513 130/104/513 129/101/513
f 89/103/514 152/107/514 149/110/514
f 88/104/515 87/101/515 154/108/515
f 74/102/516 76/99/516 150/105/516
f 87/101/517 74/102/517 153/109/517
f 88/104/518 151/106/518 152/107/518
f 78/100/519 149/110/519 150/105/519
f 102/102/520 156/112/520 157/115/520
f 106/104/521 158/113/521 159/107/521
f 103/99/522 104/100/522 160/114/522
f 104/100/523 107/103/523 159/107/523
f 106/104/524 105/101/524 157/115/524
f 103/99/525 155/111/525 156/112/525
f 162/97/526 164/64/526 163/65/526
f 163/65/527 164/64/527 166/66/527
f 165/67/528 166/66/528 168/68/528
f 168/68/529 170/74/529 169/70/529
f 170/74/530 168/68/530 175/68/530
f 368/74/531 367/70/531 369/75/531
f 170/74/532 415/116/532 171/75/532
f 190/67/533 186/67/533 185/65/533
f 177/76/534 176/74/534 182/74/534
f 164/64/535 173/64/535 174/66/535
f 164/64/536 162/97/536 172/97/536
f 166/66/537 174/66/537 175/68/537
f 180/73/538 179/125/538 182/71/538
f 179/125/539 178/132/539 182/71/539
f 178/132/540 183/124/540 182/71/540
f 174/66/541 180/66/541 181/68/541
f 173/64/542 172/97/542 178/97/542
f 177/76/543 183/76/543 178/118/543
f 175/68/544 181/68/544 182/74/544
f 173/64/545 179/64/545 180/66/545
f 188/70/546 189/75/546 210/75/546
f 192/75/547 189/75/547 188/70/547
f 191/117/548 185/65/548 184/63/548
f 190/67/549 195/119/549 187/69/549
f 192/75/550 194/122/550 184/77/550
f 193/70/551 188/70/551 187/69/551
f 221/70/552 193/70/552 195/119/552
f 218/121/553 222/77/553 194/122/553
f 217/67/554 219/120/554 195/119/554
f 222/63/555 220/123/555 191/117/555
f 218/121/556 192/75/556 193/70/556
f 220/123/557 217/67/557 190/67/557
f 182/116/558 181/116/558 197/116/558
f 181/116/559 180/116/559 198/116/559
f 199/116/560 179/116/560 178/116/560
f 199/116/561 204/116/561 201/116/561
f 198/116/562 180/116/562 202/116/562
f 179/125/563 201/125/563 202/73/563
f 210/79/564 205/137/564 206/80/564
f 206/80/565 207/131/565 208/126/565
f 208/126/566 209/78/566 210/79/566
f 187/69/567 208/69/567 207/67/567
f 185/65/568 206/65/568 205/63/568
f 189/75/569 184/77/569 205/77/569
f 187/69/570 188/70/570 209/70/570
f 186/67/571 207/67/571 206/65/571
f 163/65/572 165/67/572 214/67/572
f 171/75/573 215/121/573 212/127/573
f 161/63/574 163/65/574 211/123/574
f 165/67/575 167/69/575 216/69/575
f 161/77/576 213/77/576 215/121/576
f 169/70/577 212/127/577 216/69/577
f 211/123/578 214/67/578 217/67/578
f 215/121/579 218/121/579 221/70/579
f 213/63/580 211/123/580 220/123/580
f 214/67/581 216/69/581 219/120/581
f 215/121/582 213/77/582 222/77/582
f 212/127/583 221/70/583 219/120/583
f 204/116/584 71/116/584 73/116/584
f 203/116/585 202/116/585 77/116/585
f 77/73/586 202/73/586 75/128/586
f 202/73/587 201/125/587 75/128/587
f 145/82/588 224/82/588 225/96/588
f 146/96/197 225/96/197 226/98/197
f 145/82/589 144/97/589 223/97/589
f 147/98/590 226/98/590 227/85/590
f 248/2/591 249/5/591 26/1/591
f 26/1/592 249/5/592 250/4/592
f 250/4/593 233/129/593 7/6/593
f 250/4/594 234/9/594 231/8/594
f 249/5/595 235/10/595 234/9/595
f 248/2/596 236/11/596 235/10/596
f 230/12/597 236/11/597 248/2/597
f 232/13/598 248/2/598 25/3/598
f 251/15/599 254/17/599 255/16/599
f 252/18/600 255/16/600 256/19/600
f 254/17/601 257/21/601 258/20/601
f 255/16/602 258/20/602 259/22/602
f 230/12/603 239/23/603 251/15/603
f 236/11/604 251/15/604 252/18/604
f 235/10/605 252/18/605 253/24/605
f 253/24/606 240/59/606 231/8/606
f 253/24/607 256/19/607 241/25/607
f 256/19/608 259/22/608 242/26/608
f 259/22/609 243/28/609 229/27/609
f 258/20/610 244/29/610 243/28/610
f 257/21/611 245/30/611 244/29/611
f 228/31/612 245/30/612 257/21/612
f 238/33/613 237/32/613 257/21/613
f 239/23/614 238/33/614 254/17/614
f 261/37/615 260/39/615 44/34/615
f 260/39/616 43/36/616 44/34/616
f 261/37/617 44/34/617 45/38/617
f 228/31/618 246/40/618 260/39/618
f 245/30/619 260/39/619 261/37/619
f 244/29/620 261/37/620 262/41/620
f 262/41/621 247/42/621 229/27/621
f 45/38/622 24/133/622 247/42/622
f 246/40/623 21/43/623 43/36/623
f 46/44/624 48/46/624 264/45/624
f 48/46/625 50/48/625 265/47/625
f 6/49/626 46/44/626 263/50/626
f 232/51/627 263/50/627 239/23/627
f 263/50/628 264/45/628 238/33/628
f 264/45/629 265/47/629 237/32/629
f 265/47/630 246/52/630 228/31/630
f 21/53/631 246/52/631 265/47/631
f 266/54/632 267/56/632 55/55/632
f 267/56/633 268/58/633 57/57/633
f 231/8/634 240/59/634 266/54/634
f 233/60/635 266/54/635 53/61/635
f 247/62/636 24/134/636 57/57/636
f 229/27/637 247/62/637 268/58/637
f 241/25/638 242/26/638 268/58/638
f 240/59/639 241/25/639 267/56/639
f 269/63/247 271/65/247 272/64/247
f 271/65/248 273/67/248 274/66/248
f 273/67/249 275/69/249 276/68/249
f 277/70/250 278/74/250 276/68/250
f 270/135/251 272/125/251 280/124/251
f 272/125/251 274/73/251 280/124/251
f 274/73/251 276/72/251 278/71/251
f 279/75/252 280/76/252 278/74/252
f 269/77/253 270/118/253 280/76/253
f 271/80/254 269/136/254 279/79/254
f 279/79/254 277/78/254 271/80/254
f 277/78/254 275/126/254 273/131/254
f 86/81/640 299/83/640 297/82/640
f 300/84/641 90/86/641 80/85/641
f 79/88/642 85/92/642 289/87/642
f 283/89/643 285/8/643 289/87/643
f 283/89/644 288/94/644 287/90/644
f 71/63/645 281/91/645 287/90/645
f 85/92/646 90/86/646 300/84/646
f 289/87/647 300/84/647 301/93/647
f 288/94/648 301/93/648 299/83/648
f 81/95/649 287/90/649 299/83/649
f 294/96/650 293/82/650 297/82/650
f 293/82/651 91/97/651 72/97/651
f 298/98/652 295/98/652 294/96/652
f 80/85/653 95/85/653 295/98/653
f 284/99/654 296/96/654 297/82/654
f 286/100/655 298/98/655 296/96/655
f 297/82/656 299/83/656 290/101/656
f 300/84/657 298/98/657 286/100/657
f 301/93/658 300/84/658 292/103/658
f 290/101/659 299/83/659 301/93/659
f 348/105/660 303/99/660 304/100/660
f 307/103/661 306/104/661 349/106/661
f 352/108/662 305/101/662 302/102/662
f 302/102/663 303/99/663 348/105/663
f 349/106/664 306/104/664 305/101/664
f 304/100/665 307/103/665 350/107/665
f 308/102/666 309/99/666 353/111/666
f 356/113/667 312/104/667 311/101/667
f 358/114/668 310/100/668 313/103/668
f 353/111/669 309/99/669 310/100/669
f 313/103/670 312/104/670 356/113/670
f 311/101/671 308/102/671 354/112/671
f 315/99/672 316/100/672 310/100/672
f 333/103/673 332/104/673 312/104/673
f 317/101/674 314/102/674 308/102/674
f 308/102/675 314/102/675 315/99/675
f 318/104/676 317/101/676 311/101/676
f 310/100/677 316/100/677 319/103/677
f 314/102/678 320/102/678 321/99/678
f 324/104/294 323/101/294 317/101/294
f 322/100/679 325/103/679 319/103/679
f 315/99/680 321/99/680 322/100/680
f 319/103/297 325/103/297 324/104/297
f 317/101/681 323/101/681 320/102/681
f 331/103/682 330/104/682 324/104/682
f 323/101/683 329/101/683 326/102/683
f 326/102/684 327/99/684 321/99/684
f 324/104/685 330/104/685 329/101/685
f 328/100/686 331/103/686 325/103/686
f 321/99/687 327/99/687 328/100/687
f 337/103/305 336/104/305 332/104/305
f 332/104/688 334/104/688 318/104/688
f 334/104/689 335/103/689 319/103/689
f 319/103/690 335/103/690 333/103/690
f 339/103/691 343/103/691 341/103/691
f 335/103/310 339/103/310 337/103/310
f 338/104/311 339/103/311 335/103/311
f 336/104/312 338/104/312 334/104/312
f 341/103/692 343/103/692 342/104/692
f 342/104/693 343/103/693 339/103/693
f 340/104/694 342/104/694 338/104/694
f 341/103/695 340/104/695 336/104/695
f 295/98/696 346/98/696 345/96/696
f 344/82/697 144/97/697 91/97/697
f 148/85/698 346/98/698 295/98/698
f 345/96/699 344/82/699 293/82/699
f 328/100/700 327/99/700 330/104/700
f 327/99/701 326/102/701 329/101/701
f 347/110/702 350/107/702 292/103/702
f 291/104/703 349/106/703 352/108/703
f 282/102/704 351/109/704 348/105/704
f 290/101/705 352/108/705 351/109/705
f 350/107/706 349/106/706 291/104/706
f 348/105/707 347/110/707 286/100/707
f 355/115/708 354/112/708 302/102/708
f 357/107/709 356/113/709 306/104/709
f 303/99/710 353/111/710 358/114/710
f 304/100/711 358/114/711 357/107/711
f 306/104/712 356/113/712 355/115/712
f 354/112/713 353/111/713 303/99/713
f 361/65/714 362/64/714 360/97/714
f 361/65/715 363/67/715 364/66/715
f 363/67/716 365/69/716 366/68/716
f 367/70/717 368/74/717 366/68/717
f 368/74/718 374/74/718 373/68/718
f 416/116/719 369/75/719 359/63/719
f 162/97/720 161/63/720 171/75/720
f 381/65/721 382/67/721 386/67/721
f 177/76/722 183/76/722 379/74/722
f 372/66/723 371/64/723 362/64/723
f 362/64/724 371/64/724 370/97/724
f 373/68/725 372/66/725 364/66/725
f 375/132/726 376/125/726 379/71/726
f 376/125/727 377/73/727 379/71/727
f 377/73/728 378/72/728 379/71/728
f 378/68/729 377/66/729 372/66/729
f 371/64/730 376/64/730 375/97/730
f 375/118/731 183/76/731 177/76/731
f 379/74/732 378/68/732 373/68/732
f 377/66/733 376/64/733 371/64/733
f 384/70/734 398/70/734 399/75/734
f 384/70/735 385/75/735 388/75/735
f 380/63/736 381/65/736 387/117/736
f 386/67/737 382/67/737 383/69/737
f 388/75/738 385/75/738 380/77/738
f 383/69/739 384/70/739 389/70/739
f 391/119/740 389/70/740 410/70/740
f 407/121/741 388/75/741 390/122/741
f 406/67/742 386/67/742 391/119/742
f 411/63/743 390/63/743 387/117/743
f 389/70/744 388/75/744 407/121/744
f 409/123/745 387/117/745 386/67/745
f 197/116/746 378/116/746 379/116/746
f 198/116/747 377/116/747 378/116/747
f 199/116/748 200/116/748 375/116/748
f 392/116/749 204/116/749 199/116/749
f 198/116/750 203/116/750 393/116/750
f 393/73/751 392/125/751 376/125/751
f 395/80/752 394/137/752 399/79/752
f 399/79/753 398/78/753 397/126/753
f 397/126/754 396/131/754 395/80/754
f 396/67/755 397/69/755 383/69/755
f 394/63/756 395/65/756 381/65/756
f 385/75/757 399/75/757 394/77/757
f 383/69/758 397/69/758 398/70/758
f 395/65/759 396/67/759 382/67/759
f 361/65/760 400/123/760 403/67/760
f 401/127/761 404/121/761 369/75/761
f 359/63/762 402/63/762 400/123/762
f 363/67/763 403/67/763 405/69/763
f 404/121/764 402/77/764 359/77/764
f 405/69/765 401/127/765 367/70/765
f 400/123/766 409/123/766 406/67/766
f 410/70/767 407/121/767 404/121/767
f 402/63/768 411/63/768 409/123/768
f 403/67/769 406/67/769 408/120/769
f 404/121/770 407/121/770 411/77/770
f 408/120/771 410/70/771 401/127/771
f 281/116/772 71/116/772 204/116/772
f 203/116/773 79/116/773 285/116/773
f 392/125/774 393/73/774 283/128/774
f 393/73/775 285/73/775 283/128/775
f 413/96/776 412/82/776 344/82/776
f 414/98/395 413/96/395 345/96/395
f 344/82/777 412/82/777 223/97/777
f 227/85/778 414/98/778 346/98/778
f 415/116/779 170/74/779 176/74/779
f 416/116/780 177/76/780 374/74/780
f 172/118/781 162/97/781 415/116/781
f 416/116/782 360/97/782 370/118/782
