# Blender 5.0.0
# www.blender.org
o body
v 0.496492 -0.836496 9.945472
v 0.583336 -0.739346 11.216410
v 0.476577 0.278155 10.012730
v 0.565221 0.486406 11.252122
v 0.246627 0.341088 9.916841
v -0.000000 0.369678 9.862160
v -0.000000 0.658669 11.385767
v 0.340386 0.599495 11.341252
v 0.631619 0.554539 11.010789
v 0.646511 0.545035 10.651897
v 0.576865 0.424383 10.280118
v 0.562963 -0.631520 9.859375
v 0.591550 -0.317049 9.830672
v 0.550611 0.022595 9.901769
v 0.654626 0.225672 11.331456
v 0.703310 -0.145583 11.364351
v 0.665741 -0.502555 11.310507
v 0.654036 -0.830154 10.963507
v 0.671875 -0.892060 10.590830
v 0.600616 -0.885222 10.211335
v -0.000000 -0.970373 9.779577
v 0.267098 -0.925011 9.838637
v 0.358752 -0.817453 11.304214
v -0.000000 -0.856363 11.349401
v -0.000000 0.674132 10.233398
v -0.000000 0.858995 10.652094
v -0.000000 0.860968 11.057788
v 0.290903 0.614872 10.259351
v 0.337850 0.778810 10.655371
v 0.344425 0.778265 11.038112
v 0.749642 0.108478 10.239802
v 0.841644 0.194318 10.637224
v 0.811618 0.221480 11.022920
v 0.812126 -0.260919 10.196647
v 0.912852 -0.205322 10.617438
v 0.878665 -0.167071 11.028658
v 0.764291 -0.610047 10.199328
v 0.857600 -0.587271 10.601153
v 0.825386 -0.539852 10.995287
v 0.317045 -1.052687 10.175277
v 0.365526 -1.074153 10.459538
v 0.369003 -0.996871 10.982964
v -0.000000 -1.112858 10.197457
v -0.000000 -1.133464 10.454610
v -0.000000 -1.050112 11.002562
v -0.000000 0.004889 9.595983
v 0.255090 0.002209 9.681481
v -0.000000 -0.369841 9.480570
v 0.272938 -0.355472 9.579719
v -0.000000 -0.709899 9.546465
v 0.266506 -0.681006 9.634151
v 0.373244 0.271111 11.518064
v -0.000000 0.302962 11.581920
v 0.399412 -0.129139 11.570688
v -0.000000 -0.120306 11.640418
v 0.383312 -0.515705 11.499029
v -0.000000 -0.530811 11.563597
v -0.000000 -1.256591 10.265718
v 0.899103 0.129189 10.626569
v 0.964296 0.059744 10.647655
v 0.972883 0.157159 10.444210
v 1.038076 0.087714 10.465296
v 0.910948 0.053346 10.201069
v 0.976141 -0.016099 10.222155
v 0.775233 -0.078438 10.140284
v 0.840426 -0.147883 10.161369
v 0.701452 -0.106409 10.322642
v 0.766645 -0.175854 10.343728
v 0.763387 -0.002596 10.565784
v 0.828580 -0.072040 10.586870
v 0.000000 0.608116 7.009231
v -0.000044 0.614849 9.157683
v 0.504716 0.474076 6.823613
v 0.828564 0.499720 8.967988
v 0.598099 0.170519 6.781311
v 0.958561 0.163574 9.050416
v 0.495931 -0.119391 6.743170
v 0.866768 -0.036283 8.789543
v -0.000000 -0.261991 6.870325
v 0.000045 -0.515650 8.844513
v -0.000000 0.657830 7.642289
v 0.570455 0.579341 7.709334
v 0.766964 0.295584 7.712217
v 0.571954 -0.168452 7.659354
v -0.000000 -0.421472 7.642289
v 0.000174 0.702403 8.732195
v 0.703660 0.800073 8.665425
v 0.718437 0.657708 8.394637
v 0.697203 0.300682 8.311687
v 0.000472 -0.481414 8.516811
v -0.000000 0.515979 9.328566
v 0.439952 0.372166 9.300879
v 0.633973 0.086356 9.270877
v 0.435112 -0.214169 9.259581
v -0.000000 -0.334730 9.120949
v 0.958133 0.158323 9.061485
v 0.710215 0.430320 9.087402
v 0.738420 -0.239075 9.066945
v 0.614244 0.696292 8.416564
v 0.622120 -0.125259 8.376044
v 0.716415 0.605425 8.364427
v 1.568149 1.584038 7.700323
v 1.659284 1.452563 7.609683
v 1.563488 1.269628 7.487198
v 1.164159 1.680191 7.575356
v 1.096945 1.589170 7.434795
v 1.160899 1.369606 7.356955
v 1.944661 2.268410 6.406915
v 2.010076 2.142030 6.337741
v 1.942626 1.994026 6.275759
v 1.638640 2.303244 6.338258
v 1.585104 2.197024 6.237021
v 1.637154 2.030516 6.203937
v 1.970712 2.366326 6.366932
v 2.059777 2.158320 6.330300
v 1.988291 1.928844 6.177103
v 1.816704 2.428341 6.228043
v 1.786990 2.263624 6.134607
v 1.815500 1.971032 5.996704
v 2.244410 2.618666 6.022522
v 2.301036 2.383357 5.897994
v 2.242772 2.095286 5.760330
v 2.083802 2.632711 5.835435
v 2.054088 2.467995 5.742000
v 2.082597 2.175404 5.604097
v 2.184175 2.808564 5.467114
v 2.195373 2.664688 5.350949
v 2.184234 2.445273 5.285662
v 2.093787 2.714963 5.487846
v 2.067492 2.630324 5.420657
v 2.093110 2.417886 5.336967
v 1.575704 2.251430 6.024361
v 1.607198 2.103928 6.005602
v 1.770628 2.284373 5.982924
v 1.791030 2.030992 5.870518
v 1.628415 2.304023 5.811440
v 1.654220 2.183160 5.796069
v 1.788134 2.331016 5.777487
v 1.804851 2.123397 5.685382
v 1.704135 2.359003 5.587729
v 1.714979 2.271238 5.579851
v 1.821940 2.365545 5.587923
v 1.831161 2.216375 5.524488
v -0.000000 0.404502 9.459107
v 0.158780 0.287954 9.430712
v 0.252719 0.101461 9.367191
v 0.182110 -0.006843 9.367191
v -0.000000 -0.116119 9.329164
v 1.513166 1.185241 7.557976
v 1.608939 1.354812 7.709188
v 1.078254 1.553119 7.484296
v 1.131615 1.324247 7.396141
v 1.519396 1.492630 7.803452
v 1.135568 1.628977 7.644020
v 1.698373 1.527411 7.513401
v 1.609764 1.662886 7.593247
v 1.199055 1.723305 7.489977
v 1.126804 1.615820 7.366674
v 1.197247 1.394596 7.314808
v 1.606033 1.333027 7.418332
v 0.508211 -0.773155 4.319001
v 0.519509 0.432353 5.320786
v 0.863355 -0.955424 4.435659
v 1.026829 0.159219 5.588481
v 0.863355 -1.171429 4.602748
v 1.028275 -0.283317 5.828811
v 0.508191 -1.335995 4.728021
v 0.513592 -0.546828 5.854897
v 0.152952 -1.160070 4.606831
v 0.144936 -0.198440 5.677875
v 0.153066 -0.921002 4.444029
v 0.512164 0.644373 5.571226
v 1.018174 0.303144 5.759244
v 1.020134 -0.166745 5.971371
v 0.515757 -0.475611 5.923736
v 0.136937 -0.117738 5.723683
v 0.000000 0.811302 5.800160
v 0.418974 0.759892 5.778564
v 0.879472 0.485951 6.268321
v 0.876436 0.000261 6.279763
v 0.449171 -0.309590 6.093850
v 0.134332 -0.027712 5.781837
v 0.000000 0.845286 5.903551
v 0.430883 -1.696383 2.190036
v 0.691277 -1.837541 2.241766
v 0.691277 -2.119859 2.345224
v 0.430883 -2.261065 2.396955
v 0.170489 -2.120148 2.345249
v 0.170489 -1.837541 2.241766
v 0.822906 -1.426014 3.981796
v 0.822906 -1.198564 3.885509
v 0.152560 -1.236674 3.903582
v 0.152560 -1.464528 4.000278
v 0.487733 -0.984416 3.828026
v 0.487733 -1.501858 4.400065
v -0.000000 0.012892 5.815698
v -0.000000 -0.191177 5.918681
v -0.000000 -0.268325 6.179666
v 0.000000 0.807087 6.425614
v 0.000000 0.837880 6.126764
v 0.713104 0.436346 6.584940
v 0.709689 -0.051752 6.514819
v -0.000000 -0.237192 6.530049
v 0.000000 0.628045 6.760227
v 0.430883 -2.453738 0.742562
v 0.625711 -2.566603 0.755673
v 0.625711 -2.800434 0.791411
v 0.430883 -2.911527 0.809741
v 0.236055 -2.795929 0.797523
v 0.236055 -2.567206 0.755505
v 0.856043 -1.020341 4.355753
v 0.152881 -1.238721 4.505503
v 0.504509 -0.819260 4.249876
v 0.856043 -1.236332 4.497209
v 0.152975 -1.004100 4.364030
v 0.504493 -1.373245 4.670992
v 0.847217 -1.306902 4.364072
v 0.152864 -1.074544 4.250483
v 0.500029 -1.416249 4.599830
v 0.847217 -1.075971 4.239767
v 0.152796 -1.311071 4.374921
v 0.500041 -0.893654 4.163424
v -0.000000 0.330200 10.100009
v 0.182652 0.209765 10.100009
v 0.252719 0.101461 10.100009
v 0.182110 -0.006843 10.100009
v -0.000000 -0.127185 10.044935
v -0.496493 -0.836496 9.945472
v -0.583336 -0.739346 11.216410
v -0.476577 0.278155 10.012730
v -0.565221 0.486406 11.252122
v -0.246627 0.341088 9.916841
v -0.340386 0.599495 11.341252
v -0.631619 0.554539 11.010789
v -0.646511 0.545035 10.651897
v -0.576865 0.424383 10.280118
v -0.562963 -0.631520 9.859375
v -0.591550 -0.317049 9.830672
v -0.550611 0.022595 9.901769
v -0.654626 0.225672 11.331456
v -0.703310 -0.145583 11.364351
v -0.665741 -0.502555 11.310507
v -0.654036 -0.830154 10.963507
v -0.671875 -0.892060 10.590830
v -0.600616 -0.885222 10.211335
v -0.267098 -0.925011 9.838637
v -0.358752 -0.817453 11.304214
v -0.290903 0.614872 10.259351
v -0.337850 0.778810 10.655371
v -0.344425 0.778265 11.038112
v -0.749642 0.108478 10.239802
v -0.841644 0.194318 10.637224
v -0.811618 0.221480 11.022920
v -0.812126 -0.260919 10.196647
v -0.912852 -0.205322 10.617438
v -0.878665 -0.167071 11.028658
v -0.764291 -0.610047 10.199328
v -0.857600 -0.587271 10.601153
v -0.825386 -0.539852 10.995287
v -0.317045 -1.052687 10.175277
v -0.365526 -1.074153 10.459538
v -0.369003 -0.996871 10.982964
v -0.255090 0.002209 9.681481
v -0.272938 -0.355472 9.579719
v -0.266506 -0.681006 9.634151
v -0.373244 0.271111 11.518064
v -0.399412 -0.129139 11.570688
v -0.383312 -0.515705 11.499029
v -0.899103 0.129189 10.626569
v -0.964296 0.059744 10.647655
v -0.972883 0.157159 10.444210
v -1.038076 0.087714 10.465296
v -0.910948 0.053346 10.201069
v -0.976141 -0.016099 10.222155
v -0.775233 -0.078438 10.140284
v -0.840426 -0.147883 10.161369
v -0.701452 -0.106409 10.322642
v -0.766645 -0.175854 10.343728
v -0.763387 -0.002596 10.565784
v -0.828580 -0.072040 10.586870
v -0.504526 0.476275 6.889411
v -0.822565 0.168027 8.733256
v -0.598793 0.169840 6.846708
v -0.956851 0.090588 9.072727
v -0.495657 -0.144947 6.795419
v -0.863593 -0.240684 9.104464
v -0.567892 0.440322 7.652066
v -0.761839 0.006167 7.677658
v -0.569708 -0.313788 7.682110
v -0.689916 0.094070 8.313297
v -0.701933 -0.219793 8.296744
v -0.684185 -0.460035 8.541764
v -0.440480 0.412028 9.270855
v -0.634109 0.104041 9.278824
v -0.435367 -0.197674 9.292954
v -0.956582 0.097457 9.081601
v -0.708787 0.370738 8.919115
v -0.738412 -0.247672 9.203096
v -0.607101 0.337085 8.206571
v -0.616804 -0.408328 8.525359
v -0.701463 -0.189343 8.277452
v -1.529403 -0.586525 7.233697
v -1.620315 -0.723884 7.316148
v -1.524660 -0.913432 7.429826
v -1.125302 -0.662896 7.092437
v -1.058525 -0.830636 7.113887
v -1.121971 -0.992969 7.282883
v -1.961196 -1.408891 6.060122
v -2.026684 -1.526945 6.142649
v -1.958720 -1.651931 6.242930
v -1.658815 -1.461334 5.986689
v -1.607107 -1.601481 6.032324
v -1.657044 -1.706400 6.166589
v -1.990732 -1.398478 5.955796
v -2.076952 -1.524779 6.126545
v -2.006845 -1.768360 6.256897
v -1.843480 -1.496841 5.831312
v -1.814095 -1.656487 5.933265
v -1.842031 -1.913152 6.130198
v -2.282540 -1.580490 5.583070
v -2.339198 -1.798143 5.736372
v -2.280524 -2.054677 5.926314
v -2.129592 -1.743903 5.478680
v -2.100208 -1.903549 5.580632
v -2.128143 -2.160213 5.777565
v -2.247627 -1.986768 5.156587
v -2.260413 -2.155921 5.231042
v -2.247401 -2.315402 5.395133
v -2.154644 -2.013865 5.245923
v -2.129270 -2.113178 5.289081
v -2.153832 -2.284837 5.439814
v -1.607023 -1.765151 5.885747
v -1.636250 -1.849106 6.009026
v -1.804024 -1.781807 5.844384
v -1.823662 -1.997961 6.018007
v -1.668965 -1.928337 5.742869
v -1.692913 -1.997128 5.843884
v -1.830386 -1.941983 5.708978
v -1.846477 -2.119100 5.851243
v -1.754358 -2.099412 5.593723
v -1.763734 -2.146651 5.668308
v -1.872175 -2.093273 5.592209
v -1.880842 -2.218167 5.695587
v -0.158780 0.287954 9.430712
v -0.252719 0.101461 9.367191
v -0.182110 -0.006843 9.367191
v -1.478898 -0.878653 7.534948
v -1.574656 -0.672343 7.439185
v -1.039711 -0.797126 7.172986
v -1.094126 -0.970153 7.346827
v -1.485006 -0.530126 7.351486
v -1.098089 -0.619984 7.167423
v -1.658689 -0.776616 7.215115
v -1.569986 -0.645928 7.127525
v -1.163002 -0.719667 7.016038
v -1.093039 -0.880076 7.053355
v -1.160794 -1.025257 7.230387
v -1.565949 -0.951273 7.343554
v -0.508053 1.410664 4.407133
v -0.519458 1.015019 5.747075
v -0.866564 1.220700 4.298167
v -1.031588 0.698736 5.829452
v -0.866564 0.969401 4.181267
v -1.033048 0.280750 5.545412
v -0.508033 0.780716 4.092386
v -0.513485 0.112571 5.316117
v -0.149427 0.971304 4.193964
v -0.141336 0.279065 5.506932
v -0.149542 1.224763 4.324226
v -0.512044 0.943271 6.005907
v -1.022851 0.596859 5.993296
v -1.024829 0.170802 5.719031
v -0.515671 0.026775 5.431503
v -0.133260 0.193153 5.605704
v -0.417970 0.889435 6.134032
v -0.882834 0.472890 6.350480
v -0.879769 -0.050859 6.171330
v -0.448454 -0.144393 5.719789
v -0.130631 0.097033 5.745119
v -0.429992 2.831883 2.533812
v -0.658825 2.732920 2.446284
v -0.658825 2.534995 2.271228
v -0.429992 2.436031 2.183701
v -0.201160 2.534994 2.271228
v -0.201160 2.732920 2.446284
v -0.825731 1.399199 3.659375
v -0.825731 1.594931 3.815960
v -0.149031 1.560592 3.790785
v -0.149031 1.364543 3.634118
v -0.487381 1.749076 3.978889
v -0.487381 0.992112 3.792426
v -0.714889 0.433447 6.650105
v -0.711441 -0.113232 6.526757
v -0.429992 3.757897 1.175300
v -0.608102 3.704986 1.086706
v -0.608102 3.595785 0.891787
v -0.429992 3.544494 0.801966
v -0.251883 3.591656 0.899870
v -0.251883 3.704878 1.085900
v -0.859182 1.262905 4.201660
v -0.149356 1.024550 4.076454
v -0.504316 1.452176 4.331357
v -0.859182 1.033480 4.074470
v -0.149450 1.262930 4.220127
v -0.504300 0.813987 4.033245
v -0.850273 1.117905 3.948954
v -0.149338 1.330595 4.102467
v -0.499794 0.856694 3.962330
v -0.850273 1.339702 4.095751
v -0.149269 1.106166 3.950116
v -0.499806 1.494690 4.222330
v -0.182652 0.209765 10.100009
v -0.252719 0.101461 10.100009
v -0.182110 -0.006843 10.100009
v 0.213411 0.539270 5.569739
v -0.199640 0.820883 5.718124
vn 0.2171 0.8930 -0.3943
vn 0.2309 0.9730 -0.0026
vn 0.2282 0.8287 0.5111
vn 0.5934 0.7171 0.3657
vn 0.6038 0.7971 0.0039
vn 0.5368 0.7678 -0.3497
vn 0.4335 0.6757 -0.5962
vn 0.2244 0.7535 -0.6180
vn 0.9488 0.1900 -0.2522
vn 0.9829 0.1719 0.0657
vn 0.9669 -0.1341 -0.2169
vn 0.9843 -0.1466 0.0981
vn 0.7198 0.4412 -0.5359
vn 0.8218 0.4872 -0.2955
vn 0.8739 0.4848 0.0339
vn 0.8176 0.4547 0.3533
vn 0.8793 0.1584 0.4492
vn 0.8717 -0.1659 0.4611
vn 0.7717 -0.4987 0.3948
vn 0.8452 -0.5193 0.1267
vn 0.8441 -0.5094 -0.1677
vn 0.7852 -0.4383 -0.4373
vn 0.8572 -0.1236 -0.4999
vn 0.8229 0.2097 -0.5281
vn 1.0000 -0.0000 -0.0000
vn 0.1564 -0.9765 0.1485
vn 0.4800 -0.7943 -0.3725
vn 0.5169 -0.8425 -0.1518
vn 0.4664 -0.8756 0.1262
vn 0.4808 -0.7739 0.4123
vn 0.1500 -0.8611 0.4857
vn 0.2261 -0.9220 -0.3144
vn 0.3148 0.2794 -0.9071
vn 0.3250 -0.1799 -0.9284
vn 0.2669 0.5681 -0.7785
vn 0.4934 0.5045 -0.7086
vn 0.5804 0.2495 -0.7751
vn 0.6137 -0.1420 -0.7766
vn 0.5175 -0.5489 -0.6564
vn 0.3026 -0.6356 -0.7102
vn 0.1733 0.1395 0.9749
vn 0.1703 -0.1865 0.9676
vn 0.5492 0.4099 0.7283
vn 0.1876 0.4801 0.8569
vn 0.1601 -0.5446 0.8233
vn 0.5064 -0.4648 0.7263
vn 0.5518 -0.1809 0.8141
vn 0.5611 0.1458 0.8148
vn 0.6237 0.6944 0.3588
vn 0.7220 0.5506 -0.4190
vn 0.3616 0.0569 -0.9306
vn -0.6237 -0.6944 -0.3589
vn 0.6532 -0.7421 0.1505
vn -0.7220 -0.5506 0.4190
vn -0.3616 -0.0569 0.9306
vn -0.6532 0.7421 -0.1505
vn 0.1837 0.9225 0.3395
vn 0.4796 -0.8728 -0.0906
vn 0.2583 -0.9633 -0.0730
vn 0.9427 -0.3197 -0.0953
vn 0.9461 0.3059 -0.1066
vn 0.2093 0.9691 -0.1307
vn 0.4037 -0.9145 0.0269
vn 0.8799 -0.3991 0.2578
vn 0.8143 0.5625 -0.1434
vn 0.1539 0.9733 -0.1705
vn 0.4566 0.3378 0.8230
vn 0.2608 0.7955 0.5469
vn 0.4818 -0.3490 0.8038
vn 0.0573 -0.8354 0.5467
vn 0.7148 0.6208 0.3221
vn 0.8743 -0.4827 0.0517
vn 0.2158 0.7361 0.6416
vn 0.8595 -0.2211 -0.4609
vn 0.9955 -0.0731 0.0599
vn 0.4367 0.7638 -0.4754
vn 0.8871 -0.4615 -0.0045
vn -0.8175 0.0309 -0.5751
vn 0.0052 0.8006 0.5992
vn 0.8255 0.1677 0.5389
vn -0.8474 0.5271 0.0639
vn 0.0723 -0.6659 -0.7425
vn 0.8560 0.3209 0.4054
vn -0.8554 0.5112 -0.0840
vn 0.0134 -0.8672 -0.4977
vn 0.9066 -0.4215 0.0200
vn -0.8772 -0.1745 -0.4473
vn 0.0167 0.8905 0.4547
vn 0.2810 -0.4769 0.8329
vn -0.9522 -0.3039 0.0313
vn -0.0741 0.7165 0.6936
vn 0.6377 0.1397 0.7575
vn -0.4883 0.7184 -0.4955
vn -0.5086 -0.8077 0.2982
vn 0.8148 -0.1056 0.5701
vn -0.8463 0.3700 -0.3832
vn 0.0996 -0.9435 -0.3160
vn 0.8865 -0.3329 0.3214
vn -0.8523 0.1528 -0.5003
vn -0.2655 0.9173 0.2968
vn -0.9945 -0.0549 -0.0890
vn -0.6952 0.7038 0.1466
vn 0.9694 0.2446 -0.0215
vn -0.9681 0.2376 0.0796
vn 0.1937 -0.7781 -0.5976
vn 0.9824 0.0057 -0.1868
vn -0.9466 -0.1671 -0.2756
vn -0.1859 0.9499 0.2512
vn 0.9866 0.1374 -0.0876
vn -0.5248 -0.8038 -0.2802
vn -0.5514 -0.6801 -0.4832
vn -0.5762 -0.7133 -0.3990
vn 0.9949 0.0386 0.0935
vn -0.1193 0.9704 0.2101
vn -0.2543 0.3651 -0.8956
vn 0.9844 0.0013 0.1758
vn -0.1224 0.9726 0.1976
vn -0.9321 -0.1575 -0.3261
vn 0.2632 -0.1716 0.9494
vn 0.2229 0.5236 0.8223
vn -0.0396 -0.6891 0.7235
vn 0.2469 0.0661 0.9668
vn -0.5157 0.2683 -0.8137
vn -0.6228 0.4615 -0.6317
vn 0.2443 -0.7495 -0.6152
vn -0.8838 0.4570 0.1001
vn 0.8035 0.1238 0.5822
vn 0.0119 0.7739 0.6331
vn -0.9436 0.1271 -0.3056
vn 0.8919 -0.4511 0.0318
vn 0.0639 0.8801 0.4705
vn -0.7599 0.0091 -0.6500
vn 0.8984 -0.4385 0.0239
vn 0.0536 -0.7509 -0.6582
vn -0.7733 0.6271 -0.0936
vn 0.8347 0.2354 0.4978
vn 0.5016 0.5501 -0.6676
vn 0.9941 -0.0663 -0.0857
vn 0.5029 -0.7091 0.4942
vn -0.5153 -0.7008 0.4933
vn -0.6960 -0.4054 0.5927
vn 0.9947 0.0837 0.0600
vn -1.0000 -0.0029 -0.0049
vn 0.9972 -0.0290 -0.0686
vn -0.9859 -0.1590 0.0523
vn 0.9990 0.0237 0.0377
vn 0.6047 0.6238 -0.4952
vn 0.3675 -0.6521 0.6631
vn -0.5432 0.2724 0.7942
vn 0.3096 -0.6171 0.7234
vn 0.5993 0.7913 -0.1209
vn 0.0853 0.8862 -0.4554
vn -0.6955 -0.4040 0.5942
vn 0.9251 0.1595 0.3447
vn -0.9992 -0.0072 -0.0392
vn -0.9999 -0.0039 -0.0093
vn 0.5463 0.7611 -0.3498
vn 0.5001 -0.8110 0.3036
vn -0.5000 0.8127 -0.2992
vn -0.4767 -0.8174 0.3233
vn -0.4806 -0.7949 0.3703
vn -0.6137 0.7155 -0.3338
vn 0.4815 -0.8450 0.2327
vn 0.5516 0.7998 -0.2367
vn -1.0000 0.0005 0.0004
vn 0.9979 -0.0253 -0.0597
vn -0.2089 -0.9774 -0.0324
vn -0.3397 -0.4237 -0.8397
vn -0.1408 -0.9494 -0.2807
vn -0.2139 0.1025 -0.9715
vn 0.2610 0.9603 0.0989
vn 0.3754 0.8651 0.3328
vn 0.2536 -0.9635 0.0856
vn 0.8147 0.0086 0.5798
vn 0.0007 -0.1552 -0.9879
vn 0.4998 -0.8009 0.3297
vn 0.4968 0.7690 -0.4023
vn -0.4803 0.7787 -0.4035
vn -0.4970 -0.8029 0.3290
vn 0.9992 -0.0137 -0.0374
vn 0.9975 -0.0390 -0.0596
vn -1.0000 0.0006 0.0002
vn 0.5395 0.6868 -0.4870
vn 0.5036 -0.7511 0.4270
vn -0.4768 0.6099 -0.6330
vn -0.5153 -0.7018 0.4918
vn 0.9976 -0.0325 -0.0603
vn -1.0000 0.0006 0.0003
vn 0.4736 0.6554 -0.5884
vn 0.5021 -0.7774 0.3788
vn -0.4985 0.7369 -0.4567
vn -0.4997 -0.7271 0.4707
vn 0.2798 0.9555 0.0932
vn 0.2590 -0.9633 -0.0702
vn 0.7566 0.1439 0.6379
vn 0.8931 0.4499 -0.0000
vn 0.8377 -0.5461 -0.0000
vn 0.5488 0.8323 0.0777
vn 0.5165 -0.8562 -0.0132
vn -0.2171 0.8930 -0.3943
vn -0.2332 0.9724 -0.0047
vn -0.2282 0.8287 0.5111
vn -0.5362 0.7239 0.4341
vn -0.6140 0.7893 -0.0094
vn -0.5575 0.7416 -0.3731
vn -0.4335 0.6757 -0.5962
vn -0.2244 0.7535 -0.6180
vn -0.9486 0.1818 -0.2589
vn -0.9832 0.1706 0.0645
vn -0.9679 -0.1309 -0.2144
vn -0.9842 -0.1492 0.0957
vn -0.7191 0.4598 -0.5211
vn -0.8258 0.4724 -0.3080
vn -0.8791 0.4760 0.0239
vn -0.8176 0.4547 0.3533
vn -0.8813 0.1551 0.4463
vn -0.8704 -0.1617 0.4650
vn -0.7756 -0.4470 0.4457
vn -0.8474 -0.5145 0.1312
vn -0.8444 -0.5089 -0.1672
vn -0.7852 -0.4383 -0.4373
vn -0.8583 -0.1214 -0.4987
vn -0.8209 0.2013 -0.5345
vn -0.1488 -0.9784 0.1435
vn -0.5095 -0.7887 -0.3441
vn -0.5440 -0.8308 -0.1171
vn -0.5063 -0.8464 0.1648
vn -0.4808 -0.7739 0.4123
vn -0.1500 -0.8611 0.4857
vn -0.1482 -0.9172 -0.3698
vn -0.3082 0.2745 -0.9109
vn -0.3445 -0.1614 -0.9248
vn -0.2408 0.5577 -0.7943
vn -0.4461 0.4620 -0.7665
vn -0.5707 0.2336 -0.7872
vn -0.6232 -0.1271 -0.7717
vn -0.5828 -0.4680 -0.6643
vn -0.3026 -0.6356 -0.7102
vn -0.1783 0.1347 0.9747
vn -0.1652 -0.1814 0.9694
vn -0.5146 0.4458 0.7324
vn -0.1947 0.4737 0.8589
vn -0.1601 -0.5446 0.8233
vn -0.5064 -0.4648 0.7263
vn -0.5466 -0.1746 0.8190
vn -0.5630 0.1438 0.8139
vn -0.6237 0.6944 0.3588
vn -0.7220 0.5506 -0.4190
vn -0.3616 0.0569 -0.9306
vn 0.6237 -0.6944 -0.3589
vn -0.6532 -0.7421 0.1505
vn 0.7220 -0.5506 0.4190
vn 0.3616 -0.0569 0.9306
vn 0.6532 0.7421 -0.1505
vn -0.3755 0.9078 0.1866
vn -0.2577 -0.9495 0.1788
vn -0.1966 -0.9600 -0.1992
vn -0.8261 -0.4997 -0.2605
vn -0.9512 0.3017 -0.0648
vn -0.3578 0.9309 -0.0731
vn -0.1925 -0.9739 -0.1199
vn -0.8539 -0.5139 -0.0816
vn -0.9127 0.4084 0.0115
vn -0.4924 0.8696 -0.0355
vn -0.3815 0.7029 0.6003
vn -0.3735 0.9104 0.1780
vn -0.5211 -0.0291 0.8530
vn -0.0291 -0.8285 0.5592
vn -0.7826 0.5980 -0.1732
vn -0.9446 -0.2450 0.2183
vn -0.6631 0.6729 -0.3279
vn 0.6102 -0.6527 0.4490
vn 0.9624 -0.1558 -0.2225
vn -0.9988 0.0365 0.0333
vn -0.8730 -0.1983 0.4456
vn 0.8565 -0.4741 -0.2038
vn 0.0034 0.9014 -0.4329
vn -0.8313 0.5537 0.0482
vn 0.8478 0.2650 -0.4593
vn -0.0589 -0.9398 0.3366
vn -0.8461 0.5288 -0.0679
vn 0.8054 0.2236 -0.5490
vn -0.0028 -0.8416 0.5402
vn -0.8918 -0.1631 0.4221
vn 0.8616 -0.5010 -0.0811
vn -0.0116 0.8139 -0.5808
vn -0.2390 0.5253 0.8167
vn 0.9586 -0.1363 0.2500
vn 0.0864 0.9440 -0.3184
vn -0.2105 0.6358 0.7426
vn 0.4543 -0.1198 -0.8827
vn 0.1772 -0.3222 0.9300
vn -0.7720 0.6309 0.0769
vn 0.8233 -0.1900 -0.5349
vn -0.0927 -0.7134 0.6946
vn -0.8025 0.0851 0.5906
vn 0.8291 -0.3944 -0.3964
vn 0.1301 0.8470 -0.5154
vn 0.9912 -0.1292 -0.0277
vn 0.3105 0.7008 -0.6422
vn -0.9742 0.1182 -0.1923
vn 0.9813 0.0650 -0.1810
vn -0.2010 -0.8843 0.4215
vn -0.9796 -0.1975 0.0359
vn 0.9384 -0.3452 -0.0126
vn 0.1764 0.6567 -0.7332
vn -0.9918 0.0104 -0.1271
vn 0.5384 -0.5880 0.6036
vn 0.5878 -0.7174 0.3739
vn 0.5746 -0.6976 0.4281
vn -0.9911 0.1256 0.0443
vn 0.1078 0.6314 -0.7679
vn -0.0370 -0.8421 -0.5380
vn -0.9767 0.1811 0.1150
vn 0.1104 0.6213 -0.7758
vn 0.9218 -0.3852 -0.0438
vn -0.2252 -0.1030 0.9689
vn -0.2316 0.5274 0.8174
vn 0.0688 -0.6880 0.7224
vn -0.2216 0.1642 0.9612
vn 0.4946 -0.6124 -0.6168
vn 0.4592 -0.2527 -0.8516
vn 0.0218 -0.9291 0.3691
vn 0.9455 -0.0191 -0.3249
vn -0.6653 0.7406 -0.0943
vn -0.3679 0.8889 -0.2728
vn 0.9513 -0.1829 -0.2483
vn -0.8794 -0.2065 0.4290
vn -0.0491 0.8131 -0.5800
vn 0.7922 -0.5606 -0.2411
vn -0.8649 -0.1490 0.4793
vn 0.0182 -0.8576 0.5140
vn 0.7873 0.2409 -0.5675
vn -0.8318 0.5550 0.0074
vn -0.5104 0.8259 0.2395
vn -0.9944 0.0619 -0.0860
vn -0.4477 -0.7751 -0.4459
vn 0.5159 -0.7528 -0.4087
vn 0.5529 -0.6737 -0.4904
vn 0.5191 0.8185 0.2461
vn -0.3874 0.5729 -0.7223
vn -0.9956 0.0583 -0.0729
vn 0.9765 -0.1682 -0.1344
vn -0.9992 -0.0200 0.0346
vn -0.4801 0.8417 0.2471
vn -0.4644 -0.7065 -0.5341
vn 0.4452 -0.2592 0.8571
vn -0.4437 -0.8122 -0.3788
vn -0.4559 0.6501 0.6079
vn 0.3085 0.9365 0.1670
vn 0.5257 -0.6957 -0.4896
vn -0.9606 -0.1474 0.2358
vn 0.9995 0.0202 -0.0228
vn 0.9996 0.0181 -0.0227
vn -0.5455 0.6810 0.4886
vn -0.5237 -0.6246 -0.5793
vn 0.6159 0.6186 0.4880
vn 0.4625 -0.6680 -0.5830
vn 0.4815 -0.7022 -0.5245
vn 0.4943 0.5883 0.6400
vn -0.4775 -0.6698 -0.5687
vn -0.4958 0.6628 0.5611
vn 1.0000 -0.0001 0.0006
vn -0.9981 0.0341 -0.0515
vn -0.1229 -0.9919 -0.0329
vn 0.1887 -0.4424 -0.8767
vn 0.0257 -0.9587 -0.2834
vn 0.5176 0.0898 -0.8509
vn -0.3169 0.6912 0.6495
vn -0.3593 0.8778 0.3169
vn -0.2391 -0.9693 -0.0569
vn -0.9039 -0.1431 0.4030
vn -0.0008 0.8709 -0.4914
vn -0.4995 -0.6778 -0.5396
vn -0.4970 0.7170 0.4887
vn 0.4970 0.7170 0.4887
vn 0.4995 -0.6772 -0.5403
vn -0.9995 0.0202 -0.0228
vn -0.9982 0.0251 -0.0539
vn 1.0000 0.0001 0.0007
vn -0.5170 0.7981 0.3095
vn -0.5008 -0.7405 -0.4482
vn 0.4929 0.8168 0.2999
vn 0.5159 -0.7601 -0.3951
vn -0.9983 0.0286 -0.0516
vn 1.0000 -0.0000 0.0007
vn -0.5429 0.7009 0.4626
vn -0.5033 -0.7257 -0.4690
vn 0.5225 0.7868 0.3284
vn 0.4998 -0.7556 -0.4233
vn -0.2717 0.9601 0.0670
vn -0.1717 -0.9849 0.0216
vn -0.7559 0.1435 0.6388
vn -0.8931 0.4499 -0.0000
vn -0.8377 -0.5461 -0.0000
vn -0.5999 0.7948 0.0921
vn -0.5165 -0.8562 -0.0132
vn -0.7669 -0.0604 -0.6389
vn 0.9946 0.1036 0.0088
vn -0.1877 0.5450 -0.8172
vn 0.1475 0.9577 -0.2471
vn 0.2158 0.8929 -0.3952
vn 0.2332 0.9724 -0.0047
vn 0.2114 0.8407 0.4986
vn 0.5362 0.7239 0.4341
vn 0.6140 0.7893 -0.0094
vn 0.5575 0.7416 -0.3731
vn 0.4895 0.6746 -0.5525
vn 0.2088 0.7506 -0.6269
vn 0.9486 0.1818 -0.2589
vn 0.9832 0.1706 0.0645
vn 0.9679 -0.1309 -0.2144
vn 0.9842 -0.1492 0.0957
vn 0.7191 0.4598 -0.5211
vn 0.8258 0.4724 -0.3080
vn 0.8791 0.4760 0.0239
vn 0.8171 0.4050 0.4103
vn 0.8813 0.1551 0.4463
vn 0.8704 -0.1617 0.4650
vn 0.7756 -0.4470 0.4457
vn 0.8474 -0.5145 0.1312
vn 0.8444 -0.5089 -0.1672
vn 0.7820 -0.4824 -0.3947
vn 0.8583 -0.1214 -0.4987
vn 0.8209 0.2013 -0.5345
vn 0.1806 -0.9804 -0.0786
vn 0.1607 -0.9818 -0.1015
vn 0.1488 -0.9784 0.1435
vn 0.5095 -0.7887 -0.3441
vn 0.5440 -0.8308 -0.1171
vn 0.5063 -0.8464 0.1648
vn 0.4448 -0.7758 0.4475
vn 0.1542 -0.8626 0.4818
vn 0.1482 -0.9172 -0.3698
vn 0.3082 0.2745 -0.9109
vn 0.3445 -0.1614 -0.9248
vn 0.2408 0.5577 -0.7943
vn 0.4461 0.4620 -0.7665
vn 0.5707 0.2336 -0.7872
vn 0.6232 -0.1271 -0.7717
vn 0.5828 -0.4680 -0.6643
vn 0.2684 -0.6184 -0.7387
vn 0.1783 0.1347 0.9747
vn 0.1652 -0.1814 0.9694
vn 0.5146 0.4458 0.7324
vn 0.1947 0.4737 0.8589
vn 0.1626 -0.5423 0.8243
vn 0.4611 -0.5075 0.7279
vn 0.5466 -0.1746 0.8190
vn 0.5630 0.1438 0.8139
vn -0.6237 -0.6944 -0.3588
vn 0.2646 0.9445 0.1945
vn 0.3985 -0.8918 -0.2140
vn 0.4022 -0.8966 -0.1852
vn 0.9203 -0.3734 -0.1168
vn 0.8030 0.5539 -0.2201
vn 0.1448 0.9864 -0.0775
vn 0.4860 -0.8719 -0.0600
vn 0.9898 -0.1287 -0.0615
vn 0.5272 0.7827 -0.3310
vn -0.0111 0.9991 -0.0409
vn 0.5529 0.2935 0.7799
vn 0.3000 0.8257 0.4777
vn 0.5637 -0.3011 0.7692
vn 0.2005 -0.8806 0.4295
vn 0.5308 0.3898 0.7526
vn 0.9486 -0.2987 -0.1050
vn -0.9397 0.2498 0.2335
vn 0.6502 -0.7245 -0.2288
vn -0.9377 0.1158 -0.3275
vn -0.9893 0.0998 -0.1064
vn 0.8645 -0.5023 0.0158
vn -0.8997 -0.1126 -0.4217
vn -0.0081 0.7502 0.6611
vn 0.8051 0.1653 0.5697
vn -0.8432 0.5354 0.0483
vn 0.0688 -0.6773 -0.7325
vn 0.8918 0.2583 0.3715
vn -0.8176 0.5753 -0.0224
vn -0.0044 -0.8671 -0.4981
vn 0.9005 -0.4346 0.0139
vn -0.8742 -0.1840 -0.4493
vn -0.0006 0.8908 0.4545
vn 0.5224 -0.5800 0.6250
vn -0.9782 -0.2076 -0.0099
vn -0.4983 0.4381 0.7482
vn 0.2526 -0.3607 0.8978
vn -0.6770 0.4517 -0.5810
vn -0.1519 -0.9770 0.1497
vn 0.7898 0.2387 0.5650
vn 0.0040 -0.8881 -0.4596
vn 0.8249 -0.4683 0.3166
vn -0.1271 0.8456 0.5185
vn -0.9926 -0.0862 -0.0850
vn -0.3155 0.8869 0.3375
vn 0.9811 0.1621 -0.1061
vn -0.9852 0.1709 0.0121
vn -0.1568 -0.7282 -0.6672
vn 0.9751 -0.1033 -0.1964
vn -0.1340 0.9798 0.1485
vn 0.9827 0.1352 -0.1263
vn -0.5311 -0.8176 -0.2224
vn -0.5918 -0.6747 -0.4411
vn -0.0033 0.0890 -0.9960
vn 0.9874 -0.0061 0.1579
vn -0.0549 0.9840 0.1694
vn -0.9372 -0.0854 -0.3382
vn 0.2334 -0.1903 0.9536
vn 0.5591 0.6305 0.5384
vn 0.0540 -0.4073 0.9117
vn 0.4384 -0.0840 0.8949
vn -0.5314 0.2543 -0.8081
vn -0.4955 0.6293 -0.5988
vn 0.0622 -0.6799 -0.7306
vn -0.9468 0.2607 -0.1888
vn 0.6275 0.4056 0.6646
vn 0.1012 0.7266 0.6795
vn -0.9096 -0.0534 -0.4120
vn 0.8768 -0.4806 -0.0164
vn -0.0281 0.8101 0.5856
vn -0.8754 -0.1729 -0.4514
vn 0.8628 -0.5003 0.0724
vn -0.0373 -0.8451 -0.5333
vn -0.7924 0.6098 -0.0159
vn 0.8236 0.2343 0.5165
vn 0.6010 0.5303 -0.5980
vn 0.9944 -0.0481 -0.0945
vn 0.4154 -0.7623 0.4963
vn -0.7160 -0.5221 0.4634
vn -0.7051 -0.4816 0.5205
vn 1.0000 0.0028 -0.0047
vn -0.9949 0.0842 -0.0558
vn 0.9973 -0.0254 -0.0694
vn -0.9662 -0.1591 0.2031
vn 0.9992 0.0196 0.0341
vn 0.6004 0.6189 -0.5064
vn 0.3761 -0.7067 0.5993
vn -0.5576 0.0230 0.8298
vn -0.6395 0.2342 0.7323
vn 0.2673 -0.0926 0.9592
vn 0.3122 -0.7669 0.5608
vn 0.5938 0.7862 -0.1712
vn 0.1000 0.9452 -0.3107
vn -0.7743 -0.5770 0.2600
vn 0.9648 0.0002 0.2628
vn -0.9992 -0.0137 -0.0374
vn -0.9999 -0.0035 -0.0095
vn 0.4993 0.7933 -0.3484
vn 0.5363 -0.7942 0.2858
vn -0.6161 0.7300 -0.2959
vn -0.4993 -0.8073 0.3144
vn -0.4856 -0.8088 0.3316
vn -0.4927 0.8444 -0.2104
vn 0.4761 -0.8185 0.3215
vn 0.4946 0.8103 -0.3143
vn -1.0000 0.0003 0.0007
vn 0.9981 -0.0293 -0.0544
vn 0.1003 -0.6858 -0.7208
vn 0.0953 -0.6055 0.7901
vn 0.3646 0.9156 0.1693
vn 0.3329 0.8314 0.4449
vn 0.2934 -0.9560 -0.0034
vn 0.8875 -0.0716 0.4551
vn 0.0006 -0.1144 -0.9934
vn -0.0069 -0.1511 -0.9885
vn -0.0455 -0.1805 -0.9825
vn 0.4908 -0.8062 0.3304
vn 0.4788 0.7796 -0.4036
vn -0.4968 0.7690 -0.4023
vn -0.4991 -0.8017 0.3289
vn 0.9992 -0.0060 -0.0395
vn 0.9982 -0.0363 -0.0469
vn -1.0000 0.0007 0.0004
vn 0.5157 0.6413 -0.5682
vn 0.5012 -0.7390 0.4502
vn -0.5257 0.7204 -0.4524
vn -0.5087 -0.6799 0.5281
vn 0.9983 -0.0322 -0.0491
vn -1.0000 0.0006 0.0006
vn 0.5429 0.7404 -0.3964
vn 0.5029 -0.7534 0.4237
vn -0.5223 0.6595 -0.5405
vn -0.5011 -0.7568 0.4197
vn 0.2821 0.9563 0.0765
vn 0.2515 -0.9665 -0.0509
vn 0.7351 -0.3365 0.5885
vn 0.8986 -0.0686 0.4334
vn 0.8391 0.5429 0.0335
vn 0.5999 0.7948 0.0921
vn 0.5513 -0.8343 -0.0000
vn -0.2158 0.8929 -0.3952
vn -0.2309 0.9730 -0.0026
vn -0.2114 0.8407 0.4986
vn -0.5934 0.7171 0.3657
vn -0.6038 0.7971 0.0039
vn -0.5368 0.7678 -0.3497
vn -0.4895 0.6746 -0.5525
vn -0.2088 0.7506 -0.6269
vn -0.9488 0.1900 -0.2522
vn -0.9829 0.1719 0.0657
vn -0.9669 -0.1341 -0.2169
vn -0.9843 -0.1466 0.0981
vn -0.7198 0.4412 -0.5359
vn -0.8218 0.4872 -0.2955
vn -0.8739 0.4848 0.0339
vn -0.8171 0.4050 0.4103
vn -0.8793 0.1584 0.4492
vn -0.8717 -0.1659 0.4611
vn -0.7717 -0.4987 0.3948
vn -0.8452 -0.5193 0.1267
vn -0.8441 -0.5094 -0.1677
vn -0.7820 -0.4824 -0.3947
vn -0.8572 -0.1236 -0.4999
vn -0.8229 0.2097 -0.5281
vn -0.1607 -0.9818 -0.1015
vn -0.1806 -0.9804 -0.0786
vn -0.1564 -0.9765 0.1485
vn -0.4800 -0.7943 -0.3725
vn -0.5169 -0.8425 -0.1518
vn -0.4664 -0.8756 0.1262
vn -0.4448 -0.7758 0.4475
vn -0.1542 -0.8626 0.4818
vn -0.2261 -0.9220 -0.3144
vn -0.3148 0.2794 -0.9071
vn -0.3250 -0.1799 -0.9284
vn -0.2669 0.5681 -0.7785
vn -0.4934 0.5045 -0.7086
vn -0.5804 0.2495 -0.7751
vn -0.6137 -0.1420 -0.7766
vn -0.5175 -0.5489 -0.6564
vn -0.2683 -0.6184 -0.7387
vn -0.1733 0.1395 0.9749
vn -0.1703 -0.1865 0.9676
vn -0.5492 0.4099 0.7283
vn -0.1876 0.4801 0.8569
vn -0.1626 -0.5423 0.8243
vn -0.4611 -0.5075 0.7279
vn -0.5518 -0.1809 0.8141
vn -0.5611 0.1458 0.8148
vn 0.6237 -0.6944 -0.3588
vn -0.4440 0.8898 -0.1054
vn -0.1184 -0.9876 -0.1033
vn -0.1954 -0.9604 -0.1984
vn -0.9480 -0.2887 -0.1341
vn -0.9107 0.4009 -0.0997
vn -0.2581 0.9658 0.0241
vn -0.1182 -0.9907 -0.0678
vn -0.8845 -0.4557 -0.1005
vn -0.9675 0.1951 0.1610
vn -0.3516 0.9245 0.1473
vn -0.7274 0.4703 0.4997
vn -0.2606 0.8356 0.4836
vn -0.2625 -0.1281 0.9564
vn -0.0470 -0.8358 0.5470
vn -0.7875 0.4987 -0.3621
vn -0.6186 -0.1176 0.7768
vn -0.9541 0.2600 -0.1484
vn -0.2041 -0.9601 0.1910
vn 0.3307 -0.6484 -0.6857
vn -0.8794 0.0948 -0.4665
vn -0.8882 -0.2002 0.4135
vn 0.9091 -0.4129 -0.0553
vn -0.0085 0.8692 -0.4943
vn -0.8151 0.5761 0.0611
vn 0.8549 0.2849 -0.4337
vn -0.0542 -0.9328 0.3564
vn -0.8819 0.4706 -0.0266
vn 0.8410 0.1402 -0.5225
vn -0.0150 -0.8410 0.5408
vn -0.8965 -0.1541 0.4154
vn 0.8594 -0.5056 -0.0755
vn -0.0001 0.8136 -0.5815
vn -0.4861 0.2994 0.8210
vn 0.9810 -0.1291 0.1447
vn 0.5180 0.8532 -0.0615
vn -0.6107 0.7521 0.2480
vn 0.6448 -0.3235 -0.6925
vn 0.5358 -0.1212 0.8356
vn -0.7899 0.4771 0.3854
vn -0.0040 -0.8175 0.5759
vn -0.8665 0.1534 0.4749
vn 0.2583 0.6801 -0.6861
vn 0.9902 -0.1400 0.0019
vn 0.6860 0.4375 -0.5813
vn -0.9875 0.0052 -0.1577
vn 0.9655 0.1561 -0.2085
vn 0.1455 -0.9317 0.3327
vn -0.9888 -0.1384 -0.0561
vn 0.1200 0.5807 -0.8052
vn -0.9894 -0.0250 -0.1431
vn 0.5296 -0.6327 0.5650
vn 0.5459 -0.7562 0.3608
vn 0.2122 -0.6318 -0.7455
vn -0.9803 0.1619 0.1134
vn 0.0417 0.6032 -0.7965
vn 0.9249 -0.3628 -0.1135
vn -0.1914 -0.1248 0.9736
vn -0.5591 0.6305 0.5384
vn -0.0128 -0.3477 0.9375
vn -0.5060 -0.0386 0.8617
vn 0.4783 -0.6105 -0.6313
vn 0.5886 -0.3625 -0.7226
vn -0.0228 -0.9166 0.3991
vn 0.8727 0.2749 -0.4035
vn -0.8128 0.5739 0.0997
vn -0.0470 0.8552 -0.5162
vn 0.9230 -0.3753 -0.0846
vn -0.8787 -0.2086 0.4293
vn 0.0220 0.8689 -0.4945
vn 0.8613 -0.5014 -0.0816
vn -0.8914 -0.1621 0.4232
vn -0.0480 -0.9061 0.4204
vn 0.7736 0.1973 -0.6022
vn -0.8224 0.5687 0.0156
vn -0.4830 0.8434 0.2354
vn -0.9941 0.0457 -0.0983
vn -0.5021 -0.7581 -0.4161
vn 0.5365 -0.7451 -0.3962
vn 0.5324 -0.6166 -0.5799
vn 0.4911 0.8318 0.2587
vn -0.4732 0.5657 -0.6753
vn -0.9957 0.0614 -0.0695
vn 0.9810 -0.1841 0.0605
vn -0.9990 -0.0212 0.0401
vn -0.5016 0.7224 0.4759
vn -0.4711 -0.7551 -0.4559
vn 0.5532 -0.1967 0.8095
vn 0.5159 -0.2745 0.8115
vn 0.4626 -0.6699 0.5807
vn -0.4622 -0.8458 -0.2663
vn -0.4716 0.7593 0.4484
vn -0.0717 0.9476 -0.3115
vn 0.5430 -0.6604 -0.5187
vn -0.9378 -0.1173 0.3269
vn 0.9995 0.0268 -0.0163
vn 0.9996 0.0194 -0.0219
vn -0.4986 0.6956 0.5172
vn -0.5000 -0.6398 -0.5836
vn 0.4999 0.6623 0.5581
vn 0.5000 -0.6475 -0.5752
vn 0.4861 -0.6767 -0.5529
vn 0.6143 0.6347 0.4689
vn -0.4827 -0.6074 -0.6309
vn -0.5524 0.5903 0.5886
vn 1.0000 -0.0005 0.0006
vn -0.9979 0.0405 -0.0506
vn 0.3456 -0.3642 -0.8648
vn -0.2396 -0.9705 -0.0279
vn 0.1235 0.9871 0.1017
vn -0.2984 0.8415 0.4503
vn -0.1714 -0.9813 0.0872
vn -0.8730 -0.1126 0.4745
vn -0.0009 0.8593 -0.5114
vn 0.0595 0.8527 -0.5190
vn 0.0048 0.8724 -0.4888
vn -0.4753 -0.6863 -0.5506
vn -0.4663 0.7277 0.5029
vn 0.4684 0.7271 0.5020
vn 0.4823 -0.6833 -0.5482
vn -0.9995 0.0276 -0.0155
vn -0.9975 0.0340 -0.0614
vn 1.0000 -0.0001 0.0008
vn -0.5398 0.7492 0.3838
vn -0.5032 -0.7253 -0.4699
vn 0.5261 0.7347 0.4284
vn 0.5086 -0.7844 -0.3551
vn -0.9977 0.0375 -0.0567
vn 1.0000 -0.0002 0.0008
vn -0.4748 0.8264 0.3026
vn -0.5026 -0.7004 -0.5068
vn 0.4994 0.7508 0.4323
vn 0.5011 -0.7271 -0.4693
vn -0.2691 0.9600 0.0768
vn -0.2191 -0.9731 -0.0709
vn -0.9087 -0.0973 0.4060
vn -0.7527 -0.3386 0.5646
vn -0.8391 0.5429 0.0335
vn -0.5488 0.8323 0.0777
vn -0.5513 -0.8343 -0.0000
vn -0.9644 0.0515 -0.2592
vn 0.3805 0.2019 -0.9025
vn -0.2552 0.7342 -0.6291
vn 0.5210 0.8263 0.2141
vt 0.500000 0.375000
vt 0.437500 0.437500
vt 0.437500 0.375000
vt 0.562500 0.437500
vt 0.500000 0.437500
vt 0.625000 0.375000
vt 0.562500 0.375000
vt 0.625000 0.500000
vt 0.562500 0.500000
vt 0.500000 0.500000
vt 0.437500 0.500000
vt 0.375000 0.500000
vt 0.375000 0.437500
vt 0.375000 0.375000
vt 0.437500 0.562500
vt 0.500000 0.625000
vt 0.437500 0.625000
vt 0.500000 0.562500
vt 0.562500 0.625000
vt 0.500000 0.687500
vt 0.437500 0.687500
vt 0.562500 0.687500
vt 0.375000 0.562500
vt 0.562500 0.562500
vt 0.625000 0.625000
vt 0.625000 0.687500
vt 0.625000 0.750000
vt 0.562500 0.750000
vt 0.500000 0.750000
vt 0.437500 0.750000
vt 0.375000 0.750000
vt 0.375000 0.687500
vt 0.375000 0.625000
vt 0.500000 0.875000
vt 0.468750 0.875000
vt 0.437500 0.875000
vt 0.500000 0.812500
vt 0.562500 0.875000
vt 0.437500 0.812500
vt 0.375000 0.812500
vt 0.562500 0.812500
vt 0.625000 0.812500
vt 0.375000 0.875000
vt 0.250000 0.562500
vt 0.312500 0.625000
vt 0.250000 0.625000
vt 0.312500 0.687500
vt 0.250000 0.687500
vt 0.250000 0.500000
vt 0.312500 0.562500
vt 0.312500 0.500000
vt 0.312500 0.750000
vt 0.250000 0.750000
vt 0.687500 0.562500
vt 0.750000 0.625000
vt 0.687500 0.625000
vt 0.750000 0.687500
vt 0.687500 0.687500
vt 0.625000 0.562500
vt 0.687500 0.500000
vt 0.750000 0.562500
vt 0.687500 0.750000
vt 1.000000 0.500000
vt 0.833333 1.000000
vt 0.833333 0.500000
vt 0.666667 1.000000
vt 0.666667 0.500000
vt 0.500000 1.000000
vt 0.500000 0.500000
vt 0.333333 0.500000
vt 0.042154 0.130000
vt 0.250000 0.010000
vt 0.457846 0.130000
vt 0.333333 1.000000
vt 0.166667 0.500000
vt 0.166667 1.000000
vt -0.000000 0.500000
vt 0.542154 0.130000
vt 0.542154 0.370000
vt 0.957846 0.370000
vt 1.000000 0.828637
vt 0.875000 1.000000
vt 0.875000 0.828637
vt 0.625000 0.828637
vt 0.500000 1.000000
vt 0.500000 0.828637
vt 0.625000 0.645722
vt 0.500000 0.500000
vt 0.750000 0.500000
vt 0.875000 0.645722
vt 0.875000 0.500000
vt 0.500000 0.645722
vt 0.750000 0.828637
vt 0.750000 0.645722
vt 1.000000 0.645722
vt 0.750000 1.000000
vt 1.000000 1.000000
vt 0.625000 1.000000
vt 0.749520 0.964446
vt 0.653402 0.965669
vt 0.844587 0.863513
vt 0.844268 0.965118
vt 0.647775 0.863148
vt 0.750840 0.864057
vt 0.749520 0.964446
vt 0.750840 0.864057
vt 0.647775 0.863149
vt 0.844587 0.863513
vt 0.844267 0.965117
vt 0.653402 0.965669
vt 0.749520 0.964446
vt 0.844268 0.965117
vt 0.750840 0.864057
vt 0.653402 0.965669
vt 0.844587 0.863513
vt 0.000000 0.000000
vt 0.833333 0.500000
vt -0.000000 1.000000
vt 0.500000 0.500000
vt 0.500000 0.500000
vt 0.166667 0.500000
vt -0.000000 0.500000
vt 0.833333 0.500000
vt 0.042154 0.370000
vt 0.457846 0.370000
vt 0.750000 0.010000
vt 0.333333 0.500000
vt 0.457846 0.250000
vt 0.625000 0.437500
vt 0.750000 0.500000
vt 0.957846 0.130000
vt 0.250000 0.490000
vt 0.625000 0.875000
vt 0.750000 0.750000
vt 0.250000 0.490000
vt 0.750000 0.490000
vt 0.750000 0.490000
s 0
f 26/1/1 28/2/1 25/3/1
f 26/1/2 30/4/2 29/5/2
f 7/6/3 30/4/3 27/7/3
f 30/4/4 4/8/4 9/9/4
f 29/5/5 9/9/5 10/10/5
f 28/2/6 10/10/6 11/11/6
f 28/2/7 3/12/7 5/13/7
f 25/3/8 5/13/8 6/14/8
f 31/15/9 35/16/9 34/17/9
f 32/18/10 36/19/10 35/16/10
f 34/17/11 38/20/11 37/21/11
f 35/16/12 39/22/12 38/20/12
f 3/12/13 31/15/13 14/23/13
f 11/11/14 32/18/14 31/15/14
f 10/10/15 33/24/15 32/18/15
f 4/8/16 33/24/16 9/9/16
f 33/24/17 16/25/17 36/19/17
f 36/19/18 17/26/18 39/22/18
f 39/22/19 2/27/19 18/28/19
f 38/20/20 18/28/20 19/29/20
f 37/21/21 19/29/21 20/30/21
f 37/21/22 1/31/22 12/32/22
f 13/33/23 37/21/23 12/32/23
f 14/23/24 34/17/24 13/33/24
f 44/34/25 58/35/25 43/36/25
f 41/37/26 45/38/26 44/34/26
f 1/31/27 40/39/27 22/40/27
f 20/30/28 41/37/28 40/39/28
f 19/29/29 42/41/29 41/37/29
f 2/27/30 42/41/30 18/28/30
f 23/42/31 45/38/31 42/41/31
f 22/40/32 43/36/32 21/43/32
f 46/44/33 49/45/33 48/46/33
f 48/46/34 51/47/34 50/48/34
f 6/49/35 47/50/35 46/44/35
f 5/51/36 14/23/36 47/50/36
f 47/50/37 13/33/37 49/45/37
f 49/45/38 12/32/38 51/47/38
f 51/47/39 1/31/39 22/52/39
f 51/47/40 21/53/40 50/48/40
f 52/54/41 55/55/41 54/56/41
f 54/56/42 57/57/42 56/58/42
f 4/8/43 52/54/43 15/59/43
f 8/60/44 53/61/44 52/54/44
f 57/57/45 23/62/45 56/58/45
f 56/58/46 2/27/46 17/26/46
f 16/25/47 56/58/47 17/26/47
f 15/59/48 54/56/48 16/25/48
f 59/63/49 62/64/49 61/65/49
f 61/65/50 64/66/50 63/67/50
f 63/67/51 66/68/51 65/69/51
f 66/68/52 67/70/52 65/69/52
f 68/71/53 66/72/53 64/73/53
f 68/74/54 69/75/54 67/70/54
f 70/76/55 59/77/55 69/75/55
f 67/78/56 69/79/56 61/80/56
f 86/81/57 97/82/57 99/83/57
f 100/84/58 80/85/58 90/86/58
f 84/87/59 79/88/59 77/8/59
f 75/89/60 84/87/60 77/8/60
f 82/90/61 75/89/61 73/91/61
f 71/63/62 82/90/62 73/91/62
f 100/84/63 85/92/63 84/87/63
f 101/93/64 84/87/64 83/94/64
f 99/83/65 83/94/65 82/90/65
f 81/95/66 99/83/66 82/90/66
f 97/82/67 93/96/67 96/96/67
f 72/97/68 92/82/68 97/82/68
f 98/98/69 93/96/69 94/98/69
f 80/85/70 94/98/70 95/85/70
f 76/99/71 97/82/71 96/96/71
f 78/100/72 96/96/72 98/98/72
f 87/101/73 97/82/73 74/102/73
f 78/100/74 100/84/74 89/103/74
f 89/103/75 101/93/75 88/104/75
f 87/101/76 101/93/76 99/83/76
f 150/105/77 104/100/77 103/99/77
f 151/106/78 107/103/78 152/107/78
f 154/108/79 102/102/79 105/101/79
f 150/105/80 102/102/80 153/109/80
f 151/106/81 105/101/81 106/104/81
f 152/107/82 104/100/82 149/110/82
f 155/111/83 108/102/83 156/112/83
f 158/113/84 111/101/84 112/104/84
f 160/114/85 113/103/85 110/100/85
f 155/111/86 110/100/86 109/99/86
f 158/113/87 113/103/87 159/107/87
f 156/112/88 111/101/88 157/115/88
f 110/100/89 115/99/89 109/99/89
f 112/104/90 133/103/90 113/103/90
f 108/102/91 117/101/91 111/101/91
f 108/102/92 115/99/92 114/102/92
f 111/101/93 118/104/93 112/104/93
f 110/100/94 119/103/94 116/100/94
f 114/102/95 121/99/95 120/102/95
f 117/101/96 124/104/96 118/104/96
f 119/103/97 122/100/97 116/100/97
f 115/99/98 122/100/98 121/99/98
f 119/103/99 124/104/99 125/103/99
f 117/101/100 120/102/100 123/101/100
f 124/104/101 131/103/101 125/103/101
f 123/101/102 126/102/102 129/101/102
f 121/99/103 126/102/103 120/102/103
f 124/104/104 129/101/104 130/104/104
f 125/103/105 128/100/105 122/100/105
f 121/99/106 128/100/106 127/99/106
f 132/104/107 137/103/107 133/103/107
f 118/104/108 132/104/108 112/104/108
f 119/103/109 134/104/109 118/104/109
f 119/103/110 133/103/110 135/103/110
f 139/103/111 141/103/111 143/103/111
f 135/103/112 137/103/112 139/103/112
f 135/103/113 138/104/113 134/104/113
f 134/104/114 136/104/114 132/104/114
f 141/103/115 142/104/115 143/103/115
f 139/103/116 142/104/116 138/104/116
f 138/104/117 140/104/117 136/104/117
f 136/104/118 141/103/118 137/103/118
f 94/98/119 146/96/119 147/98/119
f 91/97/120 145/82/120 92/82/120
f 94/98/121 148/85/121 95/85/121
f 92/82/122 146/96/122 93/96/122
f 128/100/123 130/104/123 127/99/123
f 127/99/124 129/101/124 126/102/124
f 89/103/125 149/110/125 78/100/125
f 88/104/126 154/108/126 151/106/126
f 74/102/127 150/105/127 153/109/127
f 87/101/128 153/109/128 154/108/128
f 88/104/129 152/107/129 89/103/129
f 78/100/130 150/105/130 76/99/130
f 102/102/131 157/115/131 105/101/131
f 106/104/132 159/107/132 107/103/132
f 103/99/133 160/114/133 155/111/133
f 104/100/134 159/107/134 160/114/134
f 106/104/135 157/115/135 158/113/135
f 103/99/136 156/112/136 102/102/136
f 162/97/137 163/65/137 161/63/137
f 163/65/138 166/66/138 165/67/138
f 165/67/139 168/68/139 167/69/139
f 168/68/140 169/70/140 167/69/140
f 170/74/141 175/68/141 176/74/141
f 368/74/142 369/75/142 416/116/142
f 170/74/143 171/75/143 169/70/143
f 190/67/144 185/65/144 191/117/144
f 177/76/145 182/74/145 183/76/145
f 164/64/146 174/66/146 166/66/146
f 164/64/147 172/97/147 173/64/147
f 166/66/148 175/68/148 168/68/148
f 182/71/149 181/72/149 180/73/149
f 174/66/150 181/68/150 175/68/150
f 173/64/151 178/97/151 179/64/151
f 177/76/152 178/118/152 172/118/152
f 175/68/153 182/74/153 176/74/153
f 173/64/154 180/66/154 174/66/154
f 188/70/155 210/75/155 209/70/155
f 192/75/156 188/70/156 193/70/156
f 191/117/157 184/63/157 194/63/157
f 190/67/158 187/69/158 186/67/158
f 192/75/159 184/77/159 189/75/159
f 193/70/160 187/69/160 195/119/160
f 221/70/161 195/119/161 219/120/161
f 218/121/162 194/122/162 192/75/162
f 217/67/163 195/119/163 190/67/163
f 222/63/164 191/117/164 194/63/164
f 218/121/165 193/70/165 221/70/165
f 220/123/166 190/67/166 191/117/166
f 183/76/167 178/118/167 200/116/167
f 182/116/168 197/116/168 196/116/168
f 181/116/169 198/116/169 197/116/169
f 196/116/170 183/124/170 182/71/170
f 199/116/171 178/116/171 200/116/171
f 199/116/172 201/116/172 179/116/172
f 198/116/173 202/116/173 203/116/173
f 179/125/174 202/73/174 180/73/174
f 206/80/175 208/126/175 210/79/175
f 187/69/176 207/67/176 186/67/176
f 185/65/177 205/63/177 184/63/177
f 189/75/178 205/77/178 210/75/178
f 187/69/179 209/70/179 208/69/179
f 186/67/180 206/65/180 185/65/180
f 163/65/181 214/67/181 211/123/181
f 171/75/182 212/127/182 169/70/182
f 161/63/183 211/123/183 213/63/183
f 165/67/184 216/69/184 214/67/184
f 161/77/185 215/121/185 171/75/185
f 169/70/186 216/69/186 167/69/186
f 211/123/187 217/67/187 220/123/187
f 215/121/188 221/70/188 212/127/188
f 213/63/189 220/123/189 222/63/189
f 214/67/190 219/120/190 217/67/190
f 215/121/191 222/77/191 218/121/191
f 212/127/192 219/120/192 216/69/192
f 204/116/193 73/116/193 201/116/193
f 203/116/194 77/116/194 79/116/194
f 201/125/195 73/125/195 75/128/195
f 145/82/196 225/96/196 146/96/196
f 146/96/197 226/98/197 147/98/197
f 145/82/198 223/97/198 224/82/198
f 147/98/199 227/85/199 148/85/199
f 248/2/200 26/1/200 25/3/200
f 26/1/201 250/4/201 27/7/201
f 250/4/202 7/6/202 27/7/202
f 250/4/203 231/8/203 233/129/203
f 249/5/204 234/9/204 250/4/204
f 248/2/205 235/10/205 249/5/205
f 230/12/206 248/2/206 232/13/206
f 232/13/207 25/3/207 6/14/207
f 251/15/208 255/16/208 252/18/208
f 252/18/209 256/19/209 253/24/209
f 254/17/210 258/20/210 255/16/210
f 255/16/211 259/22/211 256/19/211
f 230/12/212 251/15/212 236/11/212
f 236/11/213 252/18/213 235/10/213
f 235/10/214 253/24/214 234/9/214
f 253/24/215 231/8/215 234/9/215
f 253/24/216 241/25/216 240/59/216
f 256/19/217 242/26/217 241/25/217
f 259/22/218 229/27/218 242/26/218
f 258/20/219 243/28/219 259/22/219
f 257/21/220 244/29/220 258/20/220
f 228/31/221 257/21/221 237/32/221
f 238/33/222 257/21/222 254/17/222
f 239/23/223 254/17/223 251/15/223
f 261/37/224 45/38/224 262/41/224
f 228/31/225 260/39/225 245/30/225
f 245/30/226 261/37/226 244/29/226
f 244/29/227 262/41/227 243/28/227
f 262/41/228 229/27/228 243/28/228
f 45/38/229 247/42/229 262/41/229
f 246/40/230 43/36/230 260/39/230
f 46/44/231 264/45/231 263/50/231
f 48/46/232 265/47/232 264/45/232
f 6/49/233 263/50/233 232/51/233
f 232/51/234 239/23/234 230/12/234
f 263/50/235 238/33/235 239/23/235
f 264/45/236 237/32/236 238/33/236
f 265/47/237 228/31/237 237/32/237
f 21/53/238 265/47/238 50/48/238
f 266/54/239 55/55/239 53/61/239
f 267/56/240 57/57/240 55/55/240
f 231/8/241 266/54/241 233/60/241
f 233/60/242 53/61/242 7/130/242
f 247/62/243 57/57/243 268/58/243
f 229/27/244 268/58/244 242/26/244
f 241/25/245 268/58/245 267/56/245
f 240/59/246 267/56/246 266/54/246
f 269/63/247 272/64/247 270/97/247
f 271/65/248 274/66/248 272/64/248
f 273/67/249 276/68/249 274/66/249
f 277/70/250 276/68/250 275/69/250
f 278/71/251 280/124/251 274/73/251
f 279/75/252 278/74/252 277/70/252
f 269/77/253 280/76/253 279/75/253
f 271/80/254 277/78/254 273/131/254
f 86/81/255 297/82/255 72/97/255
f 300/84/256 80/85/256 298/98/256
f 79/88/257 289/87/257 285/8/257
f 283/89/258 289/87/258 288/94/258
f 283/89/259 287/90/259 281/91/259
f 71/63/260 287/90/260 81/95/260
f 85/92/261 300/84/261 289/87/261
f 289/87/262 301/93/262 288/94/262
f 288/94/263 299/83/263 287/90/263
f 81/95/264 299/83/264 86/81/264
f 294/96/265 297/82/265 296/96/265
f 293/82/266 72/97/266 297/82/266
f 298/98/267 294/96/267 296/96/267
f 80/85/268 295/98/268 298/98/268
f 284/99/269 297/82/269 282/102/269
f 286/100/270 296/96/270 284/99/270
f 297/82/271 290/101/271 282/102/271
f 300/84/272 286/100/272 292/103/272
f 301/93/273 292/103/273 291/104/273
f 290/101/274 301/93/274 291/104/274
f 348/105/275 304/100/275 347/110/275
f 307/103/276 349/106/276 350/107/276
f 352/108/277 302/102/277 351/109/277
f 302/102/278 348/105/278 351/109/278
f 349/106/279 305/101/279 352/108/279
f 304/100/280 350/107/280 347/110/280
f 308/102/281 353/111/281 354/112/281
f 356/113/282 311/101/282 355/115/282
f 358/114/283 313/103/283 357/107/283
f 353/111/284 310/100/284 358/114/284
f 313/103/285 356/113/285 357/107/285
f 311/101/286 354/112/286 355/115/286
f 315/99/287 310/100/287 309/99/287
f 333/103/288 312/104/288 313/103/288
f 317/101/289 308/102/289 311/101/289
f 308/102/290 315/99/290 309/99/290
f 318/104/291 311/101/291 312/104/291
f 310/100/292 319/103/292 313/103/292
f 314/102/293 321/99/293 315/99/293
f 324/104/294 317/101/294 318/104/294
f 322/100/295 319/103/295 316/100/295
f 315/99/296 322/100/296 316/100/296
f 319/103/297 324/104/297 318/104/297
f 317/101/298 320/102/298 314/102/298
f 331/103/299 324/104/299 325/103/299
f 323/101/300 326/102/300 320/102/300
f 326/102/301 321/99/301 320/102/301
f 324/104/302 329/101/302 323/101/302
f 328/100/303 325/103/303 322/100/303
f 321/99/304 328/100/304 322/100/304
f 337/103/305 332/104/305 333/103/305
f 332/104/306 318/104/306 312/104/306
f 334/104/307 319/103/307 318/104/307
f 319/103/308 333/103/308 313/103/308
f 339/103/309 341/103/309 337/103/309
f 335/103/310 337/103/310 333/103/310
f 338/104/311 335/103/311 334/104/311
f 336/104/312 334/104/312 332/104/312
f 341/103/313 342/104/313 340/104/313
f 342/104/314 339/103/314 338/104/314
f 340/104/315 338/104/315 336/104/315
f 341/103/316 336/104/316 337/103/316
f 295/98/317 345/96/317 294/96/317
f 344/82/318 91/97/318 293/82/318
f 148/85/319 295/98/319 95/85/319
f 345/96/320 293/82/320 294/96/320
f 328/100/321 330/104/321 331/103/321
f 327/99/322 329/101/322 330/104/322
f 347/110/323 292/103/323 286/100/323
f 291/104/324 352/108/324 290/101/324
f 282/102/325 348/105/325 284/99/325
f 290/101/326 351/109/326 282/102/326
f 350/107/327 291/104/327 292/103/327
f 348/105/328 286/100/328 284/99/328
f 355/115/329 302/102/329 305/101/329
f 357/107/330 306/104/330 307/103/330
f 303/99/331 358/114/331 304/100/331
f 304/100/332 357/107/332 307/103/332
f 306/104/333 355/115/333 305/101/333
f 354/112/334 303/99/334 302/102/334
f 361/65/335 360/97/335 359/63/335
f 361/65/336 364/66/336 362/64/336
f 363/67/337 366/68/337 364/66/337
f 367/70/338 366/68/338 365/69/338
f 368/74/339 373/68/339 366/68/339
f 416/116/340 359/63/340 360/97/340
f 162/97/341 171/75/341 415/116/341
f 381/65/342 386/67/342 387/117/342
f 177/76/343 379/74/343 374/74/343
f 372/66/344 362/64/344 364/66/344
f 362/64/345 370/97/345 360/97/345
f 373/68/346 364/66/346 366/68/346
f 379/71/347 183/124/347 375/132/347
f 378/68/348 372/66/348 373/68/348
f 371/64/349 375/97/349 370/97/349
f 375/118/350 177/76/350 370/118/350
f 379/74/351 373/68/351 374/74/351
f 377/66/352 371/64/352 372/66/352
f 384/70/353 399/75/353 385/75/353
f 384/70/354 388/75/354 389/70/354
f 380/63/355 387/117/355 390/63/355
f 386/67/356 383/69/356 391/119/356
f 388/75/357 380/77/357 390/122/357
f 383/69/358 389/70/358 391/119/358
f 391/119/359 410/70/359 408/120/359
f 407/121/360 390/122/360 411/77/360
f 406/67/361 391/119/361 408/120/361
f 411/63/362 387/117/362 409/123/362
f 389/70/363 407/121/363 410/70/363
f 409/123/364 386/67/364 406/67/364
f 183/76/365 200/116/365 375/118/365
f 197/116/366 379/116/366 196/116/366
f 198/116/367 378/116/367 197/116/367
f 196/116/368 379/71/368 183/124/368
f 199/116/369 375/116/369 376/116/369
f 392/116/370 199/116/370 376/116/370
f 198/116/371 393/116/371 377/116/371
f 393/73/372 376/125/372 377/73/372
f 399/79/373 397/126/373 395/80/373
f 396/67/374 383/69/374 382/67/374
f 394/63/375 381/65/375 380/63/375
f 385/75/376 394/77/376 380/77/376
f 383/69/377 398/70/377 384/70/377
f 395/65/378 382/67/378 381/65/378
f 361/65/379 403/67/379 363/67/379
f 401/127/380 369/75/380 367/70/380
f 359/63/381 400/123/381 361/65/381
f 363/67/382 405/69/382 365/69/382
f 404/121/383 359/77/383 369/75/383
f 405/69/384 367/70/384 365/69/384
f 400/123/385 406/67/385 403/67/385
f 410/70/386 404/121/386 401/127/386
f 402/63/387 409/123/387 400/123/387
f 403/67/388 408/120/388 405/69/388
f 404/121/389 411/77/389 402/77/389
f 408/120/390 401/127/390 405/69/390
f 281/116/391 204/116/391 392/116/391
f 203/116/392 285/116/392 393/116/392
f 283/128/393 281/125/393 392/125/393
f 413/96/394 344/82/394 345/96/394
f 414/98/395 345/96/395 346/98/395
f 344/82/396 223/97/396 144/97/396
f 227/85/397 346/98/397 148/85/397
f 415/116/398 176/74/398 177/76/398
f 416/116/399 374/74/399 368/74/399
f 172/118/400 415/116/400 177/76/400
f 416/116/401 370/118/401 177/76/401
f 26/1/402 29/5/402 28/2/402
f 26/1/403 27/7/403 30/4/403
f 7/6/404 8/129/404 30/4/404
f 30/4/405 8/129/405 4/8/405
f 29/5/406 30/4/406 9/9/406
f 28/2/407 29/5/407 10/10/407
f 28/2/408 11/11/408 3/12/408
f 25/3/409 28/2/409 5/13/409
f 31/15/410 32/18/410 35/16/410
f 32/18/411 33/24/411 36/19/411
f 34/17/412 35/16/412 38/20/412
f 35/16/413 36/19/413 39/22/413
f 3/12/414 11/11/414 31/15/414
f 11/11/415 10/10/415 32/18/415
f 10/10/416 9/9/416 33/24/416
f 4/8/417 15/59/417 33/24/417
f 33/24/418 15/59/418 16/25/418
f 36/19/419 16/25/419 17/26/419
f 39/22/420 17/26/420 2/27/420
f 38/20/421 39/22/421 18/28/421
f 37/21/422 38/20/422 19/29/422
f 37/21/423 20/30/423 1/31/423
f 13/33/424 34/17/424 37/21/424
f 14/23/425 31/15/425 34/17/425
f 43/36/426 40/39/426 44/34/426
f 40/39/427 41/37/427 44/34/427
f 41/37/428 42/41/428 45/38/428
f 1/31/429 20/30/429 40/39/429
f 20/30/430 19/29/430 41/37/430
f 19/29/431 18/28/431 42/41/431
f 2/27/432 23/42/432 42/41/432
f 23/42/433 24/133/433 45/38/433
f 22/40/434 40/39/434 43/36/434
f 46/44/435 47/50/435 49/45/435
f 48/46/436 49/45/436 51/47/436
f 6/49/437 5/51/437 47/50/437
f 5/51/438 3/12/438 14/23/438
f 47/50/439 14/23/439 13/33/439
f 49/45/440 13/33/440 12/32/440
f 51/47/441 12/32/441 1/31/441
f 51/47/442 22/52/442 21/53/442
f 52/54/443 53/61/443 55/55/443
f 54/56/444 55/55/444 57/57/444
f 4/8/445 8/60/445 52/54/445
f 8/60/446 7/130/446 53/61/446
f 57/57/447 24/134/447 23/62/447
f 56/58/448 23/62/448 2/27/448
f 16/25/449 54/56/449 56/58/449
f 15/59/450 52/54/450 54/56/450
f 59/63/49 60/97/49 62/64/49
f 61/65/50 62/64/50 64/66/50
f 63/67/51 64/66/51 66/68/51
f 66/68/451 68/74/451 67/70/451
f 64/73/53 62/125/53 68/71/53
f 62/125/53 60/135/53 70/124/53
f 68/71/53 62/125/53 70/124/53
f 68/74/54 70/76/54 69/75/54
f 70/76/55 60/118/55 59/77/55
f 69/79/56 59/136/56 61/80/56
f 61/80/56 63/131/56 67/78/56
f 63/131/56 65/126/56 67/78/56
f 86/81/452 72/97/452 97/82/452
f 100/84/453 98/98/453 80/85/453
f 84/87/454 85/92/454 79/88/454
f 75/89/455 83/94/455 84/87/455
f 82/90/456 83/94/456 75/89/456
f 71/63/457 81/95/457 82/90/457
f 100/84/458 90/86/458 85/92/458
f 101/93/459 100/84/459 84/87/459
f 99/83/460 101/93/460 83/94/460
f 81/95/461 86/81/461 99/83/461
f 97/82/462 92/82/462 93/96/462
f 72/97/463 91/97/463 92/82/463
f 98/98/464 96/96/464 93/96/464
f 80/85/465 98/98/465 94/98/465
f 76/99/466 74/102/466 97/82/466
f 78/100/467 76/99/467 96/96/467
f 87/101/468 99/83/468 97/82/468
f 78/100/469 98/98/469 100/84/469
f 89/103/470 100/84/470 101/93/470
f 87/101/471 88/104/471 101/93/471
f 150/105/472 149/110/472 104/100/472
f 151/106/473 106/104/473 107/103/473
f 154/108/474 153/109/474 102/102/474
f 150/105/475 103/99/475 102/102/475
f 151/106/476 154/108/476 105/101/476
f 152/107/477 107/103/477 104/100/477
f 155/111/478 109/99/478 108/102/478
f 158/113/479 157/115/479 111/101/479
f 160/114/480 159/107/480 113/103/480
f 155/111/481 160/114/481 110/100/481
f 158/113/482 112/104/482 113/103/482
f 156/112/483 108/102/483 111/101/483
f 110/100/484 116/100/484 115/99/484
f 112/104/485 132/104/485 133/103/485
f 108/102/486 114/102/486 117/101/486
f 108/102/487 109/99/487 115/99/487
f 111/101/488 117/101/488 118/104/488
f 110/100/489 113/103/489 119/103/489
f 114/102/490 115/99/490 121/99/490
f 117/101/96 123/101/96 124/104/96
f 119/103/491 125/103/491 122/100/491
f 115/99/492 116/100/492 122/100/492
f 119/103/99 118/104/99 124/104/99
f 117/101/493 114/102/493 120/102/493
f 124/104/494 130/104/494 131/103/494
f 123/101/495 120/102/495 126/102/495
f 121/99/496 127/99/496 126/102/496
f 124/104/497 123/101/497 129/101/497
f 125/103/498 131/103/498 128/100/498
f 121/99/499 122/100/499 128/100/499
f 132/104/107 136/104/107 137/103/107
f 118/104/500 134/104/500 132/104/500
f 119/103/501 135/103/501 134/104/501
f 119/103/502 113/103/502 133/103/502
f 139/103/503 137/103/503 141/103/503
f 135/103/112 133/103/112 137/103/112
f 135/103/113 139/103/113 138/104/113
f 134/104/114 138/104/114 136/104/114
f 141/103/504 140/104/504 142/104/504
f 139/103/505 143/103/505 142/104/505
f 138/104/506 142/104/506 140/104/506
f 136/104/507 140/104/507 141/103/507
f 94/98/508 93/96/508 146/96/508
f 91/97/509 144/97/509 145/82/509
f 94/98/510 147/98/510 148/85/510
f 92/82/511 145/82/511 146/96/511
f 128/100/512 131/103/512 130/104/512
f 127/99/513 130/104/513 129/101/513
f 89/103/514 152/107/514 149/110/514
f 88/104/515 87/101/515 154/108/515
f 74/102/516 76/99/516 150/105/516
f 87/101/517 74/102/517 153/109/517
f 88/104/518 151/106/518 152/107/518
f 78/100/519 149/110/519 150/105/519
f 102/102/520 156/112/520 157/115/520
f 106/104/521 158/113/521 159/107/521
f 103/99/522 104/100/522 160/114/522
f 104/100/523 107/103/523 159/107/523
f 106/104/524 105/101/524 157/115/524
f 103/99/525 155/111/525 156/112/525
f 162/97/526 164/64/526 163/65/526
f 163/65/527 164/64/527 166/66/527
f 165/67/528 166/66/528 168/68/528
f 168/68/529 170/74/529 169/70/529
f 170/74/530 168/68/530 175/68/530
f 368/74/531 367/70/531 369/75/531
f 170/74/532 415/116/532 171/75/532
f 190/67/533 186/67/533 185/65/533
f 177/76/534 176/74/534 182/74/534
f 164/64/535 173/64/535 174/66/535
f 164/64/536 162/97/536 172/97/536
f 166/66/537 174/66/537 175/68/537
f 180/73/538 179/125/538 182/71/538
f 179/125/539 178/132/539 182/71/539
f 178/132/540 183/124/540 182/71/540
f 174/66/541 180/66/541 181/68/541
f 173/64/542 172/97/542 178/97/542
f 177/76/543 183/76/543 178/118/543
f 175/68/544 181/68/544 182/74/544
f 173/64/545 179/64/545 180/66/545
f 188/70/546 189/75/546 210/75/546
f 192/75/547 189/75/547 188/70/547
f 191/117/548 185/65/548 184/63/548
f 190/67/549 195/119/549 187/69/549
f 192/75/550 194/122/550 184/77/550
f 193/70/551 188/70/551 187/69/551
f 221/70/552 193/70/552 195/119/552
f 218/121/553 222/77/553 194/122/553
f 217/67/554 219/120/554 195/119/554
f 222/63/555 220/123/555 191/117/555
f 218/121/556 192/75/556 193/70/556
f 220/123/557 217/67/557 190/67/557
f 182/116/558 181/116/558 197/116/558
f 181/116/559 180/116/559 198/116/559
f 199/116/560 179/116/560 178/116/560
f 199/116/561 204/116/561 201/116/561
f 198/116/562 180/116/562 202/116/562
f 179/125/563 201/125/563 202/73/563
f 210/79/564 205/137/564 206/80/564
f 206/80/565 207/131/565 208/126/565
f 208/126/566 209/78/566 210/79/566
f 187/69/567 208/69/567 207/67/567
f 185/65/568 206/65/568 205/63/568
f 189/75/569 184/77/569 205/77/569
f 187/69/570 188/70/570 209/70/570
f 186/67/571 207/67/571 206/65/571
f 163/65/572 165/67/572 214/67/572
f 171/75/573 215/121/573 212/127/573
f 161/63/574 163/65/574 211/123/574
f 165/67/575 167/69/575 216/69/575
f 161/77/576 213/77/576 215/121/576
f 169/70/577 212/127/577 216/69/577
f 211/123/578 214/67/578 217/67/578
f 215/121/579 218/121/579 221/70/579
f 213/63/580 211/123/580 220/123/580
f 214/67/581 216/69/581 219/120/581
f 215/121/582 213/77/582 222/77/582
f 212/127/583 221/70/583 219/120/583
f 204/116/584 71/116/584 73/116/584
f 203/116/585 202/116/585 77/116/585
f 77/73/586 202/73/586 75/128/586
f 202/73/587 201/125/587 75/128/587
f 145/82/588 224/82/588 225/96/588
f 146/96/197 225/96/197 226/98/197
f 145/82/589 144/97/589 223/97/589
f 147/98/590 226/98/590 227/85/590
f 248/2/591 249/5/591 26/1/591
f 26/1/592 249/5/592 250/4/592
f 250/4/593 233/129/593 7/6/593
f 250/4/594 234/9/594 231/8/594
f 249/5/595 235/10/595 234/9/595
f 248/2/596 236/11/596 235/10/596
f 230/12/597 236/11/597 248/2/597
f 232/13/598 248/2/598 25/3/598
f 251/15/599 254/17/599 255/16/599
f 252/18/600 255/16/600 256/19/600
f 254/17/601 257/21/601 258/20/601
f 255/16/602 258/20/602 259/22/602
f 230/12/603 239/23/603 251/15/603
f 236/11/604 251/15/604 252/18/604
f 235/10/605 252/18/605 253/24/605
f 253/24/606 240/59/606 231/8/606
f 253/24/607 256/19/607 241/25/607
f 256/19/608 259/22/608 242/26/608
f 259/22/609 243/28/609 229/27/609
f 258/20/610 244/29/610 243/28/610
f 257/21/611 245/30/611 244/29/611
f 228/31/612 245/30/612 257/21/612
f 238/33/613 237/32/613 257/21/613
f 239/23/614 238/33/614 254/17/614
f 261/37/615 260/39/615 44/34/615
f 260/39/616 43/36/616 44/34/616
f 261/37/617 44/34/617 45/38/617
f 228/31/618 246/40/618 260/39/618
f 245/30/619 260/39/619 261/37/619
f 244/29/620 261/37/620 262/41/620
f 262/41/621 247/42/621 229/27/621
f 45/38/622 24/133/622 247/42/622
f 246/40/623 21/43/623 43/36/623
f 46/44/624 48/46/624 264/45/624
f 48/46/625 50/48/625 265/47/625
f 6/49/626 46/44/626 263/50/626
f 232/51/627 263/50/627 239/23/627
f 263/50/628 264/45/628 238/33/628
f 264/45/629 265/47/629 237/32/629
f 265/47/630 246/52/630 228/31/630
f 21/53/631 246/52/631 265/47/631
f 266/54/632 267/56/632 55/55/632
f 267/56/633 268/58/633 57/57/633
f 231/8/634 240/59/634 266/54/634
f 233/60/635 266/54/635 53/61/635
f 247/62/636 24/134/636 57/57/636
f 229/27/637 247/62/637 268/58/637
f 241/25/638 242/26/638 268/58/638
f 240/59/639 241/25/639 267/56/639
f 269/63/247 271/65/247 272/64/247
f 271/65/248 273/67/248 274/66/248
f 273/67/249 275/69/249 276/68/249
f 277/70/640 278/74/640 276/68/640
f 270/135/251 272/125/251 280/124/251
f 272/125/251 274/73/251 280/124/251
f 274/73/251 276/72/251 278/71/251
f 279/75/252 280/76/252 278/74/252
f 269/77/253 270/118/253 280/76/253
f 271/80/254 269/136/254 279/79/254
f 279/79/254 277/78/254 271/80/254
f 277/78/254 275/126/254 273/131/254
f 86/81/641 299/83/641 297/82/641
f 300/84/642 90/86/642 80/85/642
f 79/88/643 85/92/643 289/87/643
f 283/89/644 285/8/644 289/87/644
f 283/89/645 288/94/645 287/90/645
f 71/63/646 281/91/646 287/90/646
f 85/92/647 90/86/647 300/84/647
f 289/87/648 300/84/648 301/93/648
f 288/94/649 301/93/649 299/83/649
f 81/95/650 287/90/650 299/83/650
f 294/96/651 293/82/651 297/82/651
f 293/82/652 91/97/652 72/97/652
f 298/98/653 295/98/653 294/96/653
f 80/85/654 95/85/654 295/98/654
f 284/99/655 296/96/655 297/82/655
f 286/100/656 298/98/656 296/96/656
f 297/82/657 299/83/657 290/101/657
f 300/84/658 298/98/658 286/100/658
f 301/93/659 300/84/659 292/103/659
f 290/101/660 299/83/660 301/93/660
f 348/105/661 303/99/661 304/100/661
f 307/103/662 306/104/662 349/106/662
f 352/108/663 305/101/663 302/102/663
f 302/102/664 303/99/664 348/105/664
f 349/106/665 306/104/665 305/101/665
f 304/100/666 307/103/666 350/107/666
f 308/102/667 309/99/667 353/111/667
f 356/113/668 312/104/668 311/101/668
f 358/114/669 310/100/669 313/103/669
f 353/111/670 309/99/670 310/100/670
f 313/103/671 312/104/671 356/113/671
f 311/101/672 308/102/672 354/112/672
f 315/99/673 316/100/673 310/100/673
f 333/103/674 332/104/674 312/104/674
f 317/101/675 314/102/675 308/102/675
f 308/102/676 314/102/676 315/99/676
f 318/104/677 317/101/677 311/101/677
f 310/100/678 316/100/678 319/103/678
f 314/102/679 320/102/679 321/99/679
f 324/104/294 323/101/294 317/101/294
f 322/100/680 325/103/680 319/103/680
f 315/99/681 321/99/681 322/100/681
f 319/103/297 325/103/297 324/104/297
f 317/101/682 323/101/682 320/102/682
f 331/103/683 330/104/683 324/104/683
f 323/101/684 329/101/684 326/102/684
f 326/102/685 327/99/685 321/99/685
f 324/104/686 330/104/686 329/101/686
f 328/100/687 331/103/687 325/103/687
f 321/99/688 327/99/688 328/100/688
f 337/103/305 336/104/305 332/104/305
f 332/104/689 334/104/689 318/104/689
f 334/104/690 335/103/690 319/103/690
f 319/103/691 335/103/691 333/103/691
f 339/103/692 343/103/692 341/103/692
f 335/103/310 339/103/310 337/103/310
f 338/104/311 339/103/311 335/103/311
f 336/104/312 338/104/312 334/104/312
f 341/103/693 343/103/693 342/104/693
f 342/104/694 343/103/694 339/103/694
f 340/104/695 342/104/695 338/104/695
f 341/103/696 340/104/696 336/104/696
f 295/98/697 346/98/697 345/96/697
f 344/82/698 144/97/698 91/97/698
f 148/85/699 346/98/699 295/98/699
f 345/96/700 344/82/700 293/82/700
f 328/100/701 327/99/701 330/104/701
f 327/99/702 326/102/702 329/101/702
f 347/110/703 350/107/703 292/103/703
f 291/104/704 349/106/704 352/108/704
f 282/102/705 351/109/705 348/105/705
f 290/101/706 352/108/706 351/109/706
f 350/107/707 349/106/707 291/104/707
f 348/105/708 347/110/708 286/100/708
f 355/115/709 354/112/709 302/102/709
f 357/107/710 356/113/710 306/104/710
f 303/99/711 353/111/711 358/114/711
f 304/100/712 358/114/712 357/107/712
f 306/104/713 356/113/713 355/115/713
f 354/112/714 353/111/714 303/99/714
f 361/65/715 362/64/715 360/97/715
f 361/65/716 363/67/716 364/66/716
f 363/67/717 365/69/717 366/68/717
f 367/70/718 368/74/718 366/68/718
f 368/74/719 374/74/719 373/68/719
f 416/116/720 369/75/720 359/63/720
f 162/97/721 161/63/721 171/75/721
f 381/65/722 382/67/722 386/67/722
f 177/76/723 183/76/723 379/74/723
f 372/66/724 371/64/724 362/64/724
f 362/64/725 371/64/725 370/97/725
f 373/68/726 372/66/726 364/66/726
f 375/132/727 376/125/727 379/71/727
f 376/125/728 377/73/728 379/71/728
f 377/73/729 378/72/729 379/71/729
f 378/68/730 377/66/730 372/66/730
f 371/64/731 376/64/731 375/97/731
f 375/118/732 183/76/732 177/76/732
f 379/74/733 378/68/733 373/68/733
f 377/66/734 376/64/734 371/64/734
f 384/70/735 398/70/735 399/75/735
f 384/70/736 385/75/736 388/75/736
f 380/63/737 381/65/737 387/117/737
f 386/67/738 382/67/738 383/69/738
f 388/75/739 385/75/739 380/77/739
f 383/69/740 384/70/740 389/70/740
f 391/119/741 389/70/741 410/70/741
f 407/121/742 388/75/742 390/122/742
f 406/67/743 386/67/743 391/119/743
f 411/63/744 390/63/744 387/117/744
f 389/70/745 388/75/745 407/121/745
f 409/123/746 387/117/746 386/67/746
f 197/116/747 378/116/747 379/116/747
f 198/116/748 377/116/748 378/116/748
f 199/116/749 200/116/749 375/116/749
f 392/116/750 204/116/750 199/116/750
f 198/116/751 203/116/751 393/116/751
f 393/73/752 392/125/752 376/125/752
f 395/80/753 394/137/753 399/79/753
f 399/79/754 398/78/754 397/126/754
f 397/126/755 396/131/755 395/80/755
f 396/67/756 397/69/756 383/69/756
f 394/63/757 395/65/757 381/65/757
f 385/75/758 399/75/758 394/77/758
f 383/69/759 397/69/759 398/70/759
f 395/65/760 396/67/760 382/67/760
f 361/65/761 400/123/761 403/67/761
f 401/127/762 404/121/762 369/75/762
f 359/63/763 402/63/763 400/123/763
f 363/67/764 403/67/764 405/69/764
f 404/121/765 402/77/765 359/77/765
f 405/69/766 401/127/766 367/70/766
f 400/123/767 409/123/767 406/67/767
f 410/70/768 407/121/768 404/121/768
f 402/63/769 411/63/769 409/123/769
f 403/67/770 406/67/770 408/120/770
f 404/121/771 407/121/771 411/77/771
f 408/120/772 410/70/772 401/127/772
f 281/116/773 71/116/773 204/116/773
f 203/116/774 79/116/774 285/116/774
f 392/125/775 393/73/775 283/128/775
f 393/73/776 285/73/776 283/128/776
f 413/96/777 412/82/777 344/82/777
f 414/98/395 413/96/395 345/96/395
f 344/82/778 412/82/778 223/97/778
f 227/85/779 414/98/779 346/98/779
f 415/116/780 170/74/780 176/74/780
f 416/116/781 177/76/781 374/74/781
f 172/118/782 162/97/782 415/116/782
f 416/116/783 360/97/783 370/118/783
