# Blender 5.0.0
# www.blender.org
o body
v 0.496492 -0.836496 10.378819
v 0.583336 -0.739345 11.649757
v 0.476577 0.278155 10.446077
v 0.565221 0.486406 11.685470
v 0.246627 0.341088 10.350189
v -0.000000 0.369678 10.295507
v -0.000000 0.658669 11.819115
v 0.340386 0.599495 11.774600
v 0.631619 0.554539 11.444137
v 0.646511 0.545035 11.085245
v 0.576865 0.424383 10.713466
v 0.562963 -0.631520 10.292723
v 0.591550 -0.317049 10.264020
v 0.550611 0.022595 10.335116
v 0.654626 0.225672 11.764804
v 0.703310 -0.145583 11.797699
v 0.665741 -0.502555 11.743855
v 0.654036 -0.830153 11.396854
v 0.671875 -0.892060 11.024178
v 0.600616 -0.885222 10.644683
v -0.000000 -0.970372 10.212925
v 0.267098 -0.925011 10.271985
v 0.358752 -0.817453 11.737561
v -0.000000 -0.856363 11.782749
v -0.000000 0.674132 10.666746
v -0.000000 0.858995 11.085442
v -0.000000 0.860968 11.491136
v 0.290903 0.614872 10.692698
v 0.337850 0.778810 11.088717
v 0.344425 0.778266 11.471459
v 0.749642 0.108478 10.673150
v 0.841644 0.194318 11.070572
v 0.811618 0.221481 11.456267
v 0.812126 -0.260919 10.629994
v 0.912852 -0.205322 11.050786
v 0.878665 -0.167071 11.462006
v 0.764291 -0.610046 10.632676
v 0.857600 -0.587271 11.034501
v 0.825386 -0.539852 11.428635
v 0.317045 -1.052687 10.608624
v 0.365526 -1.074153 10.892886
v 0.369003 -0.996871 11.416311
v -0.000000 -1.112858 10.630805
v -0.000000 -1.133464 10.887958
v -0.000000 -1.050111 11.435909
v -0.000000 0.004889 10.029330
v 0.255090 0.002209 10.114829
v -0.000000 -0.369840 9.913918
v 0.272938 -0.355472 10.013066
v -0.000000 -0.709899 9.979813
v 0.266506 -0.681006 10.067498
v 0.373244 0.271111 11.951412
v -0.000000 0.302962 12.015267
v 0.399412 -0.129139 12.004036
v -0.000000 -0.120306 12.073766
v 0.383312 -0.515705 11.932377
v -0.000000 -0.530811 11.996944
v -0.000000 -1.256591 10.699066
v 0.899103 0.129189 11.059916
v 0.964296 0.059744 11.081002
v 0.972883 0.157159 10.877558
v 1.038076 0.087714 10.898643
v 0.910948 0.053346 10.634417
v 0.976141 -0.016099 10.655502
v 0.775233 -0.078438 10.573631
v 0.840426 -0.147883 10.594717
v 0.701452 -0.106409 10.755990
v 0.766645 -0.175854 10.777076
v 0.763387 -0.002595 10.999132
v 0.828580 -0.072040 11.020218
v 0.000000 0.608116 7.442578
v -0.000045 0.617517 9.590778
v 0.504716 0.474077 7.256961
v 0.828603 0.323856 9.209990
v 0.598099 0.170520 7.214659
v 0.958572 0.115472 9.492351
v 0.495931 -0.129155 7.174554
v 0.866807 -0.208463 9.396283
v -0.000000 -0.261991 7.303673
v 0.000046 -0.521910 9.281589
v -0.000000 0.657830 8.075637
v 0.570473 0.499770 8.086719
v 0.767003 0.118179 8.082937
v 0.571976 -0.263412 8.086341
v -0.000000 -0.421472 8.075637
v 0.000174 0.708635 9.157770
v 0.703747 0.405630 8.779869
v 0.718558 0.120058 8.645117
v 0.697318 -0.210091 8.784659
v 0.000477 -0.500876 8.951891
v -0.000000 0.515979 9.761913
v 0.439945 0.401460 9.720901
v 0.633971 0.096520 9.711966
v 0.435110 -0.208421 9.716353
v -0.000000 -0.334730 9.554296
v 0.958142 0.118179 9.503718
v 0.710218 0.416353 9.407032
v 0.738425 -0.263412 9.585534
v 0.614287 0.499770 8.667067
v 0.622165 -0.323892 8.863111
v 0.716525 0.118179 8.632889
v 1.568440 0.283104 7.540461
v 1.659582 0.124600 7.559875
v 1.563794 -0.093545 7.589572
v 1.164474 0.272121 7.383104
v 1.097276 0.110761 7.338304
v 1.161230 -0.105165 7.425730
v 1.945185 -0.062857 6.118698
v 2.010603 -0.203308 6.150790
v 1.943154 -0.355176 6.202590
v 1.639176 -0.082359 6.044169
v 1.585648 -0.229003 6.038879
v 1.637695 -0.375539 6.124595
v 1.971247 -0.016114 6.023826
v 2.060306 -0.196053 6.134423
v 1.988831 -0.469396 6.172019
v 1.817263 -0.061863 5.878737
v 1.787554 -0.247101 5.918094
v 1.816068 -0.557518 6.009022
v 2.245010 -0.055771 5.598755
v 2.301642 -0.314452 5.661692
v 2.243384 -0.621333 5.749786
v 2.084432 -0.169388 5.449425
v 2.054722 -0.354626 5.488782
v 2.083236 -0.665042 5.579709
v 2.184869 -0.282149 5.057179
v 2.196076 -0.466870 5.065710
v 2.184935 -0.674361 5.162419
v 2.094473 -0.338437 5.134775
v 2.068182 -0.446345 5.140647
v 2.093802 -0.660822 5.218963
v 1.576284 -0.329376 5.843661
v 1.607772 -0.452188 5.927484
v 1.771216 -0.332204 5.790829
v 1.791621 -0.596368 5.874821
v 1.629030 -0.431275 5.649459
v 1.654831 -0.531906 5.718143
v 1.788756 -0.433593 5.606169
v 1.805475 -0.650047 5.674992
v 1.704786 -0.538545 5.445603
v 1.715627 -0.609441 5.497935
v 1.822592 -0.533514 5.441425
v 1.831814 -0.687214 5.492923
v -0.000000 0.404502 9.892455
v 0.158780 0.287954 9.864059
v 0.252719 0.101461 9.800539
v 0.182110 -0.006843 9.800539
v -0.000000 -0.116119 9.762511
v 1.513457 -0.109736 7.698507
v 1.609217 0.117468 7.699170
v 1.078576 0.116624 7.399256
v 1.131938 -0.113110 7.485139
v 1.519666 0.283122 7.678261
v 1.135870 0.279352 7.468454
v 1.698689 0.116733 7.438181
v 1.610076 0.271069 7.408038
v 1.199385 0.247741 7.290622
v 1.127148 0.085511 7.269656
v 1.197585 -0.114425 7.377621
v 1.606353 -0.091790 7.495990
v 0.508210 0.007354 4.496490
v 0.519509 0.710705 5.783559
v 0.863355 -0.163264 4.494818
v 1.026829 0.408068 6.022206
v 0.863355 -0.400080 4.536479
v 1.028275 -0.094632 6.052030
v 0.508191 -0.601238 4.534562
v 0.513592 -0.361532 5.966765
v 0.152952 -0.416521 4.516861
v 0.144936 -0.057406 5.939264
v 0.153066 -0.179522 4.508287
v 0.512164 0.824792 6.088649
v 1.018174 0.451981 6.222590
v 1.020134 -0.063744 6.236383
v 0.515757 -0.347782 6.067597
v 0.136937 -0.040858 6.020730
v -0.000000 0.834461 6.157346
v 0.418974 0.869244 6.293360
v 0.879472 0.484058 6.711910
v 0.876436 -0.035950 6.652719
v 0.449170 -0.310058 6.350957
v 0.134332 -0.023065 6.128219
v 0.000000 0.881494 6.284604
v 0.430883 1.731731 3.828773
v 0.691277 1.684989 3.685884
v 0.691277 1.591509 3.400108
v 0.430883 1.544769 3.257175
v 0.170489 1.591493 3.399841
v 0.170489 1.684990 3.685884
v 0.822906 -0.068419 4.036055
v 0.822906 0.019822 4.266745
v 0.152560 0.003099 4.228024
v 0.152560 -0.088840 3.996462
v 0.487733 0.069375 4.478929
v 0.487733 -0.490585 3.982576
v -0.000000 -0.036651 6.209932
v -0.000000 -0.242788 6.337549
v -0.000000 -0.293280 6.619416
v 0.000000 0.824127 6.861619
v -0.000000 0.876004 6.544310
v 0.713104 0.435134 7.019409
v 0.709689 -0.079779 6.936048
v -0.000000 -0.245502 6.972573
v 0.000000 0.628045 7.193575
v 0.430883 3.205670 3.124119
v 0.625711 3.195096 3.010850
v 0.625711 3.162166 2.777513
v 0.430883 3.145154 2.666199
v 0.236055 3.156441 2.781534
v 0.236055 3.195263 3.010298
v 0.856043 -0.312511 4.402810
v 0.152881 -0.485503 4.318430
v 0.504509 -0.154745 4.497717
v 0.856043 -0.442990 4.362776
v 0.152975 -0.306092 4.416558
v 0.504493 -0.618987 4.401617
v 0.847217 -0.435613 4.177062
v 0.152864 -0.304237 4.349773
v 0.500029 -0.620541 4.244156
v 0.847217 -0.304284 4.352490
v 0.152796 -0.444342 4.177614
v 0.500041 -0.201897 4.486251
v -0.000000 0.330200 10.533357
v 0.182652 0.209765 10.533357
v 0.252719 0.101462 10.533357
v 0.182110 -0.006843 10.533357
v -0.000000 -0.127185 10.478283
v -0.496493 -0.836496 10.378819
v -0.583336 -0.739345 11.649757
v -0.476577 0.278155 10.446077
v -0.565221 0.486406 11.685470
v -0.246627 0.341088 10.350189
v -0.340386 0.599495 11.774600
v -0.631619 0.554539 11.444137
v -0.646511 0.545035 11.085245
v -0.576865 0.424383 10.713466
v -0.562963 -0.631520 10.292723
v -0.591550 -0.317049 10.264020
v -0.550611 0.022595 10.335116
v -0.654626 0.225672 11.764804
v -0.703310 -0.145583 11.797699
v -0.665741 -0.502555 11.743855
v -0.654036 -0.830153 11.396854
v -0.671875 -0.892060 11.024178
v -0.600616 -0.885222 10.644683
v -0.267098 -0.925011 10.271985
v -0.358752 -0.817453 11.737561
v -0.290903 0.614872 10.692698
v -0.337850 0.778810 11.088717
v -0.344425 0.778266 11.471459
v -0.749642 0.108478 10.673150
v -0.841644 0.194318 11.070572
v -0.811618 0.221481 11.456267
v -0.812126 -0.260919 10.629994
v -0.912852 -0.205322 11.050786
v -0.878665 -0.167071 11.462006
v -0.764291 -0.610046 10.632676
v -0.857600 -0.587271 11.034501
v -0.825386 -0.539852 11.428635
v -0.317045 -1.052687 10.608624
v -0.365526 -1.074153 10.892886
v -0.369003 -0.996871 11.416311
v -0.255090 0.002209 10.114829
v -0.272938 -0.355472 10.013066
v -0.266506 -0.681006 10.067498
v -0.373244 0.271111 11.951412
v -0.399412 -0.129139 12.004036
v -0.383312 -0.515705 11.932377
v -0.899103 0.129189 11.059916
v -0.964296 0.059744 11.081002
v -0.972883 0.157159 10.877558
v -1.038076 0.087714 10.898643
v -0.910948 0.053346 10.634417
v -0.976141 -0.016099 10.655502
v -0.775233 -0.078438 10.573631
v -0.840426 -0.147883 10.594717
v -0.701452 -0.106409 10.755990
v -0.766645 -0.175854 10.777076
v -0.763387 -0.002595 10.999132
v -0.828580 -0.072040 11.020218
v -0.504526 0.476275 7.322759
v -0.822573 0.323856 9.204662
v -0.598793 0.169840 7.280056
v -0.956852 0.115472 9.484972
v -0.495657 -0.136594 7.237352
v -0.863596 -0.208463 9.390550
v -0.567895 0.499770 8.087347
v -0.761846 0.118179 8.083343
v -0.569711 -0.263412 8.086892
v -0.689933 0.405630 8.777061
v -0.701952 0.120059 8.642073
v -0.684200 -0.210090 8.782167
v -0.440480 0.401460 9.720970
v -0.634109 0.096520 9.711609
v -0.435366 -0.208420 9.716310
v -0.956583 0.118179 9.496300
v -0.708789 0.416354 9.405130
v -0.738411 -0.263412 9.584185
v -0.607109 0.499770 8.667552
v -0.616809 -0.323892 8.863410
v -0.701480 0.118179 8.630638
v -1.529451 0.280758 7.532187
v -1.620362 0.121283 7.548223
v -1.524707 -0.098680 7.570273
v -1.125354 0.271768 7.371741
v -1.058579 0.110877 7.319666
v -1.122022 -0.108101 7.403435
v -1.961278 0.042999 6.119548
v -2.026764 -0.099084 6.143208
v -1.958799 -0.255067 6.179905
v -1.658899 0.027284 6.030684
v -1.607191 -0.118857 6.011531
v -1.657126 -0.271361 6.087543
v -1.990816 0.097315 6.029871
v -2.077033 -0.090196 6.129607
v -2.006924 -0.366167 6.142384
v -1.843567 0.062133 5.875162
v -1.814182 -0.125854 5.898446
v -1.842115 -0.442301 5.965685
v -2.282634 0.093512 5.615103
v -2.339290 -0.168938 5.659759
v -2.280614 -0.482257 5.720744
v -2.129690 -0.009033 5.450522
v -2.100305 -0.197020 5.473806
v -2.128237 -0.513466 5.541046
v -2.247734 -0.089559 5.055250
v -2.260520 -0.274289 5.049623
v -2.247505 -0.488880 5.129062
v -2.154749 -0.152480 5.124213
v -2.129375 -0.260698 5.120406
v -2.153935 -0.480529 5.182546
v -1.607112 -0.203471 5.808767
v -1.636337 -0.332324 5.883890
v -1.804114 -0.200696 5.764269
v -1.823749 -0.470543 5.827910
v -1.669058 -0.289242 5.609553
v -1.693004 -0.394823 5.671108
v -1.830480 -0.286968 5.573092
v -1.846569 -0.508079 5.625239
v -1.754455 -0.379434 5.401285
v -1.763830 -0.454183 5.448264
v -1.872273 -0.373243 5.402564
v -1.880939 -0.530477 5.442098
v -0.158780 0.287954 9.864059
v -0.252719 0.101461 9.800539
v -0.182110 -0.006843 9.800539
v -1.478942 -0.111348 7.680746
v -1.574701 0.116108 7.681526
v -1.039762 0.115984 7.387495
v -1.094175 -0.114459 7.471545
v -1.485051 0.282131 7.662417
v -1.098139 0.278797 7.457572
v -1.658740 0.116517 7.434257
v -1.570038 0.272170 7.411242
v -1.163057 0.253415 7.278934
v -1.093094 0.092559 7.243678
v -1.160846 -0.114702 7.341207
v -1.565997 -0.096397 7.475354
v -0.508053 0.530044 4.510777
v -0.519458 0.830617 5.906725
v -0.866564 0.307691 4.504987
v -1.031588 0.516529 6.111507
v -0.866564 0.027653 4.517074
v -1.033048 0.012854 6.042676
v -0.508034 -0.177565 4.527792
v -0.513485 -0.238833 5.908569
v -0.149427 0.040591 4.529495
v -0.141336 0.034586 5.950283
v -0.149542 0.328144 4.524701
v -0.512044 0.890365 6.214326
v -1.022851 0.513708 6.312436
v -1.024829 0.001327 6.234671
v -0.515671 -0.252624 6.018209
v -0.133260 0.019893 6.042653
v -0.417970 0.902668 6.405815
v -0.882834 0.484095 6.776676
v -0.879769 -0.045643 6.681737
v -0.448454 -0.283830 6.287016
v -0.130631 0.002935 6.166569
v -0.429993 0.621602 2.102892
v -0.658826 0.490038 2.090815
v -0.658826 0.226911 2.066659
v -0.429993 0.095348 2.054582
v -0.201160 0.226911 2.066659
v -0.201160 0.490038 2.090815
v -0.825732 0.131658 3.857724
v -0.825732 0.382095 3.868279
v -0.149031 0.339517 3.868279
v -0.149031 0.089080 3.857724
v -0.487381 0.603019 3.909039
v -0.487381 -0.120388 4.200169
v -0.714889 0.436285 7.083267
v -0.711441 -0.093168 6.989650
v -0.429993 0.594332 0.459314
v -0.608102 0.491510 0.441787
v -0.608102 0.285868 0.444722
v -0.429993 0.183047 0.446189
v -0.251883 0.285868 0.444722
v -0.251883 0.491510 0.441787
v -0.859182 0.321141 4.389884
v -0.149356 0.049356 4.408052
v -0.504316 0.550145 4.401995
v -0.859182 0.046455 4.397877
v -0.149450 0.330200 4.406034
v -0.504300 -0.167228 4.468565
v -0.850273 0.069149 4.254009
v -0.149338 0.332682 4.262805
v -0.499794 -0.154752 4.397078
v -0.850273 0.337376 4.250957
v -0.149269 0.059937 4.261475
v -0.499806 0.536189 4.270699
v -0.182652 0.209765 10.533357
v -0.252719 0.101462 10.533357
v -0.182110 -0.006843 10.533357
v 0.213411 0.625475 5.938991
v -0.199640 0.712071 5.964984
vn 0.2171 0.8930 -0.3943
vn 0.2309 0.9730 -0.0026
vn 0.2282 0.8287 0.5111
vn 0.5934 0.7171 0.3657
vn 0.6038 0.7971 0.0039
vn 0.5368 0.7678 -0.3497
vn 0.4335 0.6757 -0.5962
vn 0.2244 0.7535 -0.6180
vn 0.9488 0.1900 -0.2522
vn 0.9829 0.1719 0.0657
vn 0.9669 -0.1341 -0.2169
vn 0.9843 -0.1466 0.0981
vn 0.7198 0.4412 -0.5359
vn 0.8218 0.4872 -0.2955
vn 0.8739 0.4848 0.0339
vn 0.8176 0.4547 0.3533
vn 0.8793 0.1584 0.4492
vn 0.8717 -0.1659 0.4611
vn 0.7717 -0.4987 0.3948
vn 0.8452 -0.5193 0.1267
vn 0.8441 -0.5094 -0.1677
vn 0.7852 -0.4383 -0.4373
vn 0.8572 -0.1236 -0.4999
vn 0.8229 0.2097 -0.5281
vn 1.0000 -0.0000 -0.0000
vn 0.1564 -0.9765 0.1485
vn 0.4800 -0.7943 -0.3725
vn 0.5169 -0.8425 -0.1518
vn 0.4664 -0.8756 0.1262
vn 0.4808 -0.7739 0.4123
vn 0.1500 -0.8611 0.4857
vn 0.2261 -0.9220 -0.3144
vn 0.3148 0.2794 -0.9071
vn 0.3250 -0.1799 -0.9284
vn 0.2669 0.5681 -0.7785
vn 0.4934 0.5045 -0.7086
vn 0.5804 0.2495 -0.7751
vn 0.6137 -0.1420 -0.7766
vn 0.5175 -0.5489 -0.6564
vn 0.3026 -0.6356 -0.7102
vn 0.1733 0.1395 0.9749
vn 0.1703 -0.1865 0.9676
vn 0.5492 0.4099 0.7283
vn 0.1876 0.4801 0.8569
vn 0.1601 -0.5446 0.8233
vn 0.5064 -0.4648 0.7263
vn 0.5518 -0.1809 0.8141
vn 0.5611 0.1458 0.8148
vn 0.6237 0.6944 0.3588
vn 0.7220 0.5506 -0.4190
vn 0.3616 0.0569 -0.9306
vn -0.6237 -0.6944 -0.3589
vn 0.6532 -0.7421 0.1505
vn -0.7220 -0.5506 0.4190
vn -0.3616 -0.0569 0.9306
vn -0.6532 0.7421 -0.1505
vn 0.3626 0.9302 0.0579
vn 0.2652 -0.9623 -0.0610
vn 0.2164 -0.9631 -0.1599
vn 0.9442 -0.3053 -0.1237
vn 0.9490 0.3037 -0.0846
vn 0.2395 0.9697 -0.0490
vn 0.2668 -0.9593 -0.0919
vn 0.8878 -0.4530 0.0815
vn 0.8868 0.4574 -0.0669
vn 0.2673 0.9634 -0.0202
vn 0.4151 0.5740 0.7058
vn 0.3354 0.8821 0.3307
vn 0.3531 -0.2172 0.9100
vn 0.0286 -0.8241 0.5657
vn 0.7819 0.6125 -0.1162
vn 0.8144 -0.3737 0.4439
vn 0.5948 0.8036 -0.0199
vn 0.7458 -0.6338 -0.2050
vn 0.9817 -0.1241 -0.1442
vn 0.8512 0.2685 -0.4510
vn 0.8871 -0.3483 0.3029
vn -0.8174 -0.3584 -0.4510
vn 0.0051 0.9966 -0.0827
vn 0.8254 0.4831 0.2921
vn -0.8474 0.4367 -0.3020
vn 0.0724 -0.9909 -0.1138
vn 0.8559 0.5091 0.0906
vn -0.8553 0.3267 -0.4021
vn 0.0135 -0.9791 0.2029
vn 0.9066 -0.3021 0.2947
vn -0.8772 -0.4273 -0.2190
vn 0.0166 0.9680 -0.2505
vn 0.2808 0.1958 0.9396
vn -0.9522 -0.2066 0.2249
vn -0.0741 0.9963 0.0436
vn 0.6376 0.6071 0.4743
vn -0.4882 0.2088 -0.8474
vn -0.5087 -0.4065 0.7589
vn 0.8147 0.2992 0.4968
vn -0.8463 0.0226 -0.5323
vn 0.0996 -0.9156 0.3895
vn 0.8864 -0.0358 0.4615
vn -0.8522 -0.2177 -0.4758
vn -0.2655 0.8832 -0.3865
vn -0.9945 -0.1002 -0.0303
vn -0.6951 0.6238 -0.3573
vn 0.9694 0.1689 -0.1782
vn -0.9681 0.2305 -0.0982
vn 0.1937 -0.9786 0.0691
vn 0.9824 -0.1196 -0.1434
vn -0.9466 -0.3079 -0.0955
vn -0.1859 0.8774 -0.4422
vn 0.9866 0.0448 -0.1566
vn -0.5248 -0.7873 0.3235
vn -0.5513 -0.8295 0.0896
vn -0.5762 -0.7985 0.1745
vn 0.9949 0.0910 0.0445
vn -0.1193 0.8655 -0.4865
vn -0.2542 -0.3209 -0.9124
vn 0.9844 0.1176 0.1308
vn -0.1223 0.8589 -0.4974
vn -0.9321 -0.3343 -0.1396
vn 0.2119 -0.1381 0.9675
vn 0.2122 0.5188 0.8282
vn -0.0693 -0.6880 0.7224
vn 0.2262 0.1156 0.9672
vn -0.5155 -0.3391 -0.7869
vn -0.6227 -0.0738 -0.7790
vn 0.0920 -0.9955 -0.0228
vn -0.8736 0.4154 -0.2536
vn 0.8047 0.4792 0.3503
vn 0.0361 0.9958 -0.0840
vn -0.9440 -0.0751 -0.3213
vn 0.8825 -0.3448 0.3198
vn 0.0639 0.9707 -0.2318
vn -0.7598 -0.4244 -0.4925
vn 0.8984 -0.3122 0.3089
vn 0.0537 -0.9985 0.0057
vn -0.7732 0.4071 -0.4862
vn 0.8347 0.5065 0.2164
vn 0.3861 0.8080 -0.4450
vn 0.9944 -0.0184 -0.1045
vn 0.4872 -0.8616 0.1424
vn -0.4621 -0.8744 0.1481
vn -0.6337 -0.7679 0.0937
vn 0.9963 0.0855 0.0119
vn -1.0000 0.0003 -0.0057
vn 0.9972 0.0695 -0.0266
vn -0.9860 -0.1564 0.0578
vn 0.9991 0.0054 0.0432
vn 0.6114 0.7781 -0.1441
vn 0.4428 -0.8896 0.1118
vn -0.5772 0.0006 0.8166
vn 0.4230 -0.8799 0.2165
vn 0.5767 0.8095 0.1104
vn -0.0107 0.9762 -0.2168
vn -0.6339 -0.7654 0.1113
vn 0.9455 0.0123 0.3255
vn -0.9992 0.0392 -0.0067
vn -0.9999 0.0094 -0.0037
vn 0.5399 0.3225 0.7775
vn 0.5001 -0.2749 -0.8212
vn -0.5000 0.2705 0.8227
vn -0.4139 -0.3158 -0.8538
vn -0.3515 -0.8449 -0.4032
vn -0.6095 0.2915 0.7372
vn 0.4895 -0.2842 -0.8244
vn 0.5393 0.0472 0.8408
vn -1.0000 -0.0003 0.0007
vn 0.9974 0.0679 -0.0260
vn -0.0288 -0.9994 -0.0211
vn -0.4209 -0.4775 -0.7713
vn -0.1407 -0.9745 -0.1746
vn -0.5235 0.0691 -0.8492
vn 0.1119 0.9807 0.1603
vn 0.3890 0.8537 0.3463
vn 0.2318 -0.9640 0.1304
vn 0.8643 -0.0619 0.4991
vn 0.0006 0.9896 -0.1438
vn 0.4998 -0.3011 -0.8121
vn 0.4968 0.3743 0.7830
vn -0.4825 0.3750 0.7916
vn -0.4987 -0.3003 -0.8131
vn 0.9992 0.0378 -0.0124
vn 0.9866 0.0479 -0.1561
vn -1.0000 0.0005 0.0002
vn -0.2612 -0.0013 -0.9653
vn 0.4562 -0.8682 0.1953
vn -0.3183 0.5565 -0.7675
vn -0.4625 -0.8770 0.1300
vn 0.9723 0.1870 -0.1400
vn -1.0000 0.0002 0.0007
vn -0.2824 0.2519 -0.9257
vn 0.4607 -0.8857 -0.0571
vn -0.2924 0.9559 0.0270
vn -0.3589 -0.9332 0.0194
vn 0.2803 0.9557 0.0893
vn 0.2467 -0.9679 -0.0482
vn 0.7555 0.1433 0.6393
vn 0.8931 0.4499 -0.0000
vn 0.8377 -0.5461 -0.0000
vn 0.5488 0.8323 0.0777
vn 0.5165 -0.8562 -0.0132
vn -0.2171 0.8930 -0.3943
vn -0.2332 0.9724 -0.0047
vn -0.2282 0.8287 0.5111
vn -0.5362 0.7239 0.4341
vn -0.6140 0.7893 -0.0094
vn -0.5575 0.7416 -0.3731
vn -0.4335 0.6757 -0.5962
vn -0.2244 0.7535 -0.6180
vn -0.9486 0.1818 -0.2589
vn -0.9832 0.1706 0.0645
vn -0.9679 -0.1309 -0.2144
vn -0.9842 -0.1492 0.0957
vn -0.7191 0.4598 -0.5211
vn -0.8258 0.4724 -0.3080
vn -0.8791 0.4760 0.0239
vn -0.8176 0.4547 0.3533
vn -0.8813 0.1551 0.4463
vn -0.8704 -0.1617 0.4650
vn -0.7756 -0.4470 0.4457
vn -0.8474 -0.5145 0.1312
vn -0.8444 -0.5089 -0.1672
vn -0.7852 -0.4383 -0.4373
vn -0.8583 -0.1214 -0.4987
vn -0.8209 0.2013 -0.5345
vn -0.1488 -0.9784 0.1435
vn -0.5095 -0.7887 -0.3441
vn -0.5440 -0.8308 -0.1171
vn -0.5063 -0.8464 0.1648
vn -0.4808 -0.7739 0.4123
vn -0.1500 -0.8611 0.4857
vn -0.1482 -0.9172 -0.3698
vn -0.3082 0.2745 -0.9109
vn -0.3445 -0.1614 -0.9248
vn -0.2408 0.5577 -0.7943
vn -0.4461 0.4620 -0.7665
vn -0.5707 0.2336 -0.7872
vn -0.6232 -0.1271 -0.7717
vn -0.5828 -0.4680 -0.6643
vn -0.3026 -0.6356 -0.7102
vn -0.1783 0.1347 0.9747
vn -0.1652 -0.1814 0.9694
vn -0.5146 0.4458 0.7324
vn -0.1947 0.4737 0.8589
vn -0.1601 -0.5446 0.8233
vn -0.5064 -0.4648 0.7263
vn -0.5466 -0.1746 0.8190
vn -0.5630 0.1438 0.8139
vn -0.6237 0.6944 0.3588
vn -0.7220 0.5506 -0.4190
vn -0.3616 0.0569 -0.9306
vn 0.6237 -0.6944 -0.3588
vn -0.6532 -0.7421 0.1505
vn 0.7220 -0.5506 0.4190
vn 0.3616 -0.0569 0.9306
vn 0.6532 0.7421 -0.1505
vn -0.3148 0.9289 0.1953
vn -0.3210 -0.9467 0.0253
vn -0.2215 -0.9615 -0.1628
vn -0.8733 -0.4416 -0.2057
vn -0.9486 0.3041 -0.0880
vn -0.2688 0.9602 -0.0754
vn -0.2679 -0.9591 -0.0910
vn -0.8892 -0.4468 0.0981
vn -0.8896 0.4528 -0.0601
vn -0.2924 0.9553 -0.0448
vn -0.4291 0.5707 0.7001
vn -0.3364 0.8830 0.3274
vn -0.5566 -0.1292 0.8207
vn -0.0781 -0.8441 0.5305
vn -0.7490 0.6507 0.1249
vn -0.9490 -0.3007 0.0944
vn -0.5964 0.8021 -0.0316
vn -0.7608 -0.6095 -0.2227
vn -0.9973 -0.0664 -0.0302
vn -0.9964 0.0665 -0.0520
vn -0.8730 -0.3686 0.3194
vn 0.8581 -0.3422 -0.3828
vn 0.0026 0.9999 -0.0114
vn -0.8314 0.4810 0.2784
vn 0.8475 0.4349 -0.3043
vn -0.0572 -0.9943 -0.0903
vn -0.8459 0.5067 0.1663
vn 0.8055 0.4379 -0.3993
vn -0.0033 -0.9921 0.1253
vn -0.8919 -0.3285 0.3107
vn 0.8615 -0.4175 -0.2889
vn -0.0112 0.9847 -0.1739
vn -0.2390 0.1225 0.9633
vn 0.9586 -0.2307 0.1669
vn 0.0864 0.9891 0.1191
vn -0.2105 0.2542 0.9440
vn 0.4543 0.2719 -0.8483
vn 0.1772 -0.6912 0.7006
vn -0.7720 0.5364 0.3410
vn 0.8233 0.0588 -0.5646
vn -0.0927 -0.9429 0.3198
vn -0.8024 -0.1775 0.5697
vn 0.8291 -0.1853 -0.5276
vn 0.1300 0.9864 -0.1005
vn 0.9912 -0.1046 -0.0807
vn 0.3105 0.9091 -0.2779
vn -0.9742 0.1894 -0.1227
vn 0.9813 0.1366 -0.1354
vn -0.2010 -0.9796 -0.0003
vn -0.9796 -0.1937 -0.0526
vn 0.9384 -0.3061 -0.1600
vn 0.1764 0.9084 -0.3790
vn -0.9918 0.0641 -0.1102
vn 0.5384 -0.7906 0.2916
vn 0.5878 -0.8085 0.0286
vn 0.5746 -0.8139 0.0860
vn -0.9911 0.0943 0.0941
vn 0.1078 0.9005 -0.4212
vn -0.0370 -0.5284 -0.8482
vn -0.9767 0.1139 0.1817
vn 0.1103 0.8947 -0.4327
vn 0.9218 -0.3288 -0.2054
vn -0.2235 -0.1308 0.9659
vn -0.2118 0.5186 0.8284
vn 0.0692 -0.6880 0.7224
vn -0.2270 0.1144 0.9671
vn 0.4945 -0.2871 -0.8204
vn 0.4592 0.1385 -0.8774
vn -0.0904 -0.9956 -0.0240
vn 0.9474 0.1034 -0.3030
vn -0.6537 0.7228 0.2242
vn -0.2817 0.9548 0.0952
vn 0.9499 -0.0774 -0.3028
vn -0.8882 -0.3444 0.3042
vn -0.0477 0.9834 -0.1751
vn 0.7949 -0.4036 -0.4531
vn -0.8655 -0.3395 0.3683
vn 0.0163 -0.9953 0.0954
vn 0.7873 0.4597 -0.4108
vn -0.8318 0.4987 0.2437
vn -0.5159 0.8366 -0.1843
vn -0.9944 0.0171 -0.1044
vn -0.4472 -0.8926 -0.0575
vn 0.5195 -0.8537 -0.0358
vn 0.5962 -0.7980 -0.0885
vn 0.3717 0.9082 -0.1925
vn -0.4372 0.7916 -0.4269
vn -0.9956 0.0039 -0.0933
vn 0.9869 -0.1555 -0.0422
vn -0.9991 -0.0029 0.0426
vn -0.5588 0.8165 -0.1451
vn -0.4577 -0.8810 -0.1199
vn 0.2668 -0.1672 0.9491
vn -0.4439 -0.8960 0.0070
vn -0.5514 0.8049 0.2192
vn 0.0957 0.9892 -0.1106
vn 0.5812 -0.8045 -0.1224
vn -0.9516 -0.0425 0.3043
vn 0.9995 0.0028 -0.0307
vn 0.9996 0.0012 -0.0290
vn -0.5460 0.8378 -0.0087
vn -0.5281 -0.8434 -0.0989
vn 0.6163 0.7870 0.0277
vn 0.4681 -0.8804 -0.0760
vn 0.4841 -0.8666 -0.1207
vn 0.4974 0.8499 0.1741
vn -0.4762 -0.8606 -0.1802
vn -0.4952 0.8660 0.0694
vn 1.0000 0.0003 0.0006
vn -0.9981 -0.0007 -0.0619
vn -0.0567 -0.9982 -0.0211
vn 0.1218 -0.5225 -0.8439
vn 0.1093 -0.9784 -0.1753
vn 0.3349 0.0764 -0.9392
vn -0.3566 0.8094 0.4665
vn -0.3665 0.8676 0.3361
vn -0.2710 -0.9626 -0.0004
vn -0.8797 -0.0888 0.4672
vn -0.0000 -0.0143 -0.9999
vn -0.4997 -0.8649 -0.0471
vn -0.4978 0.8672 -0.0144
vn 0.4978 0.8672 -0.0144
vn 0.4997 -0.8649 -0.0471
vn -0.9995 0.0028 -0.0307
vn -0.9981 -0.0027 -0.0622
vn 1.0000 0.0004 0.0006
vn -0.5267 0.8475 0.0653
vn -0.4846 -0.8560 -0.1799
vn 0.4902 0.8715 0.0155
vn 0.5166 -0.8484 -0.1155
vn -0.9981 -0.0018 -0.0621
vn -0.5427 0.8376 0.0631
vn -0.4808 -0.8581 -0.1801
vn 0.5260 0.8474 -0.0720
vn 0.5025 -0.8565 -0.1178
vn -0.2693 0.9600 0.0762
vn -0.2091 -0.9778 0.0107
vn -0.7553 0.1432 0.6395
vn -0.8931 0.4499 -0.0000
vn -0.8377 -0.5461 -0.0000
vn -0.5999 0.7948 0.0921
vn -0.5165 -0.8562 -0.0132
vn -0.7167 -0.0033 -0.6974
vn 0.9935 0.0871 -0.0730
vn -0.0853 0.6768 -0.7312
vn 0.0285 0.8297 -0.5575
vn 0.2158 0.8929 -0.3952
vn 0.2332 0.9724 -0.0047
vn 0.2114 0.8407 0.4986
vn 0.5362 0.7239 0.4341
vn 0.6140 0.7893 -0.0094
vn 0.5575 0.7416 -0.3731
vn 0.4895 0.6746 -0.5525
vn 0.2088 0.7506 -0.6269
vn 0.9486 0.1818 -0.2589
vn 0.9832 0.1706 0.0645
vn 0.9679 -0.1309 -0.2144
vn 0.9842 -0.1492 0.0957
vn 0.7191 0.4598 -0.5211
vn 0.8258 0.4724 -0.3080
vn 0.8791 0.4760 0.0239
vn 0.8171 0.4050 0.4103
vn 0.8813 0.1551 0.4463
vn 0.8704 -0.1617 0.4650
vn 0.7756 -0.4470 0.4457
vn 0.8474 -0.5145 0.1312
vn 0.8444 -0.5089 -0.1672
vn 0.7820 -0.4824 -0.3947
vn 0.8583 -0.1214 -0.4987
vn 0.8209 0.2013 -0.5345
vn 0.1806 -0.9804 -0.0786
vn 0.1607 -0.9818 -0.1015
vn 0.1488 -0.9784 0.1435
vn 0.5095 -0.7887 -0.3441
vn 0.5440 -0.8308 -0.1171
vn 0.5063 -0.8464 0.1648
vn 0.4448 -0.7758 0.4475
vn 0.1542 -0.8626 0.4818
vn 0.1482 -0.9172 -0.3698
vn 0.3082 0.2745 -0.9109
vn 0.3445 -0.1614 -0.9248
vn 0.2408 0.5577 -0.7943
vn 0.4461 0.4620 -0.7665
vn 0.5707 0.2336 -0.7872
vn 0.6232 -0.1271 -0.7717
vn 0.5828 -0.4680 -0.6643
vn 0.2683 -0.6184 -0.7387
vn 0.1783 0.1347 0.9747
vn 0.1652 -0.1814 0.9694
vn 0.5146 0.4458 0.7324
vn 0.1947 0.4737 0.8589
vn 0.1626 -0.5423 0.8243
vn 0.4611 -0.5075 0.7279
vn 0.5466 -0.1746 0.8190
vn 0.5630 0.1438 0.8139
vn -0.6237 -0.6944 -0.3588
vn 0.3138 0.9291 0.1957
vn 0.3201 -0.9470 0.0278
vn 0.2646 -0.9444 -0.1951
vn 0.8723 -0.4476 -0.1967
vn 0.8792 0.4542 -0.1437
vn 0.2676 0.9606 -0.0754
vn 0.2612 -0.9613 -0.0873
vn 0.9652 -0.2486 -0.0817
vn 0.9641 0.2504 0.0885
vn 0.2893 0.9562 -0.0449
vn 0.6797 0.4147 0.6050
vn 0.2620 0.8300 0.4924
vn 0.5419 -0.1342 0.8296
vn 0.0764 -0.8435 0.5317
vn 0.7438 0.6536 0.1400
vn 0.9478 -0.3003 0.1073
vn 0.7361 0.6766 -0.0192
vn 0.4071 -0.9133 0.0110
vn -0.3263 -0.3809 -0.8651
vn 0.9736 0.1368 -0.1829
vn 0.8645 -0.3654 0.3452
vn -0.8997 -0.3640 -0.2410
vn -0.0082 1.0000 -0.0030
vn 0.8050 0.5017 0.3167
vn -0.8432 0.4326 -0.3192
vn 0.0689 -0.9927 -0.0988
vn 0.8918 0.4397 0.1067
vn -0.8176 0.4156 -0.3985
vn -0.0044 -0.9793 0.2025
vn 0.9005 -0.3159 0.2988
vn -0.8742 -0.4358 -0.2143
vn -0.0006 0.9680 -0.2509
vn 0.5223 -0.0193 0.8525
vn -0.9782 -0.1619 0.1302
vn -0.4984 0.8241 0.2691
vn 0.2525 0.3258 0.9111
vn -0.6769 -0.0475 -0.7346
vn -0.1520 -0.6317 0.7601
vn 0.7897 0.5535 0.2645
vn 0.0041 -0.9694 0.2453
vn 0.8248 -0.1403 0.5477
vn -0.1272 0.9767 -0.1730
vn -0.9926 -0.1209 -0.0065
vn -0.3155 0.8875 -0.3359
vn 0.9811 0.0509 -0.1868
vn -0.9852 0.1358 -0.1044
vn -0.1567 -0.9875 -0.0161
vn 0.9751 -0.2076 -0.0783
vn -0.1340 0.8316 -0.5389
vn 0.9828 0.0174 -0.1841
vn -0.5311 -0.7593 0.3759
vn -0.5918 -0.7975 0.1174
vn -0.0031 -0.5942 -0.8043
vn 0.9874 0.1002 0.1224
vn -0.0549 0.8487 -0.5260
vn -0.9371 -0.2884 -0.1965
vn 0.2227 -0.1313 0.9660
vn 0.5591 0.6305 0.5384
vn 0.0222 -0.3614 0.9321
vn 0.4725 -0.0615 0.8792
vn -0.5312 -0.3459 -0.7734
vn -0.4954 0.0736 -0.8656
vn 0.0425 -0.9973 -0.0602
vn -0.9418 0.1022 -0.3202
vn 0.6482 0.7240 0.2360
vn 0.2791 0.9550 0.1005
vn -0.9134 -0.3105 -0.2631
vn 0.8752 -0.3698 0.3118
vn -0.0281 0.9947 -0.0992
vn -0.8754 -0.4289 -0.2232
vn 0.8628 -0.3263 0.3862
vn -0.0373 -0.9861 0.1616
vn -0.7924 0.4456 -0.4166
vn 0.8236 0.5180 0.2312
vn 0.5942 0.7304 -0.3368
vn 0.9944 -0.0034 -0.1052
vn 0.4391 -0.8888 0.1313
vn -0.6335 -0.7511 0.1861
vn -0.6372 -0.7617 0.1175
vn 1.0000 0.0003 -0.0057
vn -0.9949 0.0998 -0.0142
vn 0.9973 0.0703 -0.0230
vn -0.9879 -0.1548 0.0017
vn 0.9991 0.0049 0.0421
vn 0.5841 0.7648 -0.2719
vn 0.4407 -0.8819 0.1672
vn -0.5759 -0.0891 0.8126
vn -0.6418 0.0633 0.7643
vn -0.0257 -0.1740 0.9844
vn 0.4221 -0.8832 0.2046
vn 0.5762 0.8128 0.0858
vn 0.0346 0.9374 -0.3465
vn -0.6522 -0.7562 -0.0526
vn 0.9608 -0.0369 0.2748
vn -0.9992 0.0378 -0.0124
vn -0.9999 0.0096 -0.0032
vn 0.4993 0.3203 0.8051
vn 0.4863 -0.2813 -0.8273
vn -0.6107 0.2702 0.7444
vn -0.4994 -0.2851 -0.8181
vn -0.5027 -0.3928 -0.7701
vn -0.3680 0.0084 0.9298
vn 0.3588 -0.8291 -0.4288
vn 0.4132 0.2617 0.8722
vn -1.0000 -0.0009 0.0003
vn 0.9979 0.0513 -0.0384
vn -0.0770 -0.6626 -0.7450
vn 0.2360 -0.8619 0.4488
vn 0.3891 0.8503 0.3544
vn 0.3363 0.8109 0.4790
vn 0.2811 -0.9595 0.0170
vn 0.8820 -0.0810 0.4643
vn 0.0006 0.9958 -0.0920
vn -0.0066 0.9902 -0.1397
vn -0.0419 0.9850 -0.1672
vn 0.4927 -0.3014 -0.8163
vn 0.4810 0.3751 0.7924
vn -0.4968 0.3743 0.7830
vn -0.4992 -0.3002 -0.8128
vn 0.9992 0.0395 -0.0056
vn 0.9992 -0.0071 -0.0403
vn -1.0000 -0.0001 0.0011
vn 0.2370 0.5014 -0.8321
vn 0.4898 -0.8658 0.1020
vn 0.2301 -0.0126 -0.9731
vn -0.3999 -0.8657 0.3011
vn 0.9988 0.0144 -0.0469
vn -1.0000 -0.0015 0.0016
vn 0.4247 0.9024 0.0730
vn 0.4473 -0.8944 -0.0039
vn 0.1271 0.2230 -0.9665
vn -0.3976 -0.8808 -0.2572
vn 0.2821 0.9563 0.0765
vn 0.2275 -0.9738 0.0023
vn 0.7359 -0.3300 0.5912
vn 0.9005 -0.0753 0.4283
vn 0.8391 0.5429 0.0335
vn 0.5999 0.7948 0.0921
vn 0.5513 -0.8343 -0.0000
vn -0.2158 0.8929 -0.3952
vn -0.2309 0.9730 -0.0026
vn -0.2114 0.8407 0.4986
vn -0.5934 0.7171 0.3657
vn -0.6038 0.7971 0.0039
vn -0.5368 0.7678 -0.3497
vn -0.4895 0.6746 -0.5525
vn -0.2088 0.7506 -0.6269
vn -0.9488 0.1900 -0.2522
vn -0.9829 0.1719 0.0657
vn -0.9669 -0.1341 -0.2169
vn -0.9843 -0.1466 0.0981
vn -0.7198 0.4412 -0.5359
vn -0.8218 0.4872 -0.2955
vn -0.8739 0.4848 0.0339
vn -0.8171 0.4050 0.4103
vn -0.8793 0.1584 0.4492
vn -0.8717 -0.1659 0.4611
vn -0.7717 -0.4987 0.3948
vn -0.8452 -0.5193 0.1267
vn -0.8441 -0.5094 -0.1677
vn -0.7820 -0.4824 -0.3947
vn -0.8572 -0.1236 -0.4999
vn -0.8229 0.2097 -0.5281
vn -0.1607 -0.9818 -0.1015
vn -0.1806 -0.9804 -0.0786
vn -0.1564 -0.9765 0.1485
vn -0.4800 -0.7943 -0.3725
vn -0.5169 -0.8425 -0.1518
vn -0.4664 -0.8756 0.1262
vn -0.4448 -0.7758 0.4475
vn -0.1542 -0.8626 0.4818
vn -0.2261 -0.9220 -0.3144
vn -0.3148 0.2794 -0.9071
vn -0.3250 -0.1799 -0.9284
vn -0.2669 0.5681 -0.7785
vn -0.4934 0.5045 -0.7086
vn -0.5804 0.2495 -0.7751
vn -0.6137 -0.1420 -0.7766
vn -0.5175 -0.5489 -0.6564
vn -0.2683 -0.6184 -0.7387
vn -0.1733 0.1395 0.9749
vn -0.1703 -0.1865 0.9676
vn -0.5492 0.4099 0.7283
vn -0.1876 0.4801 0.8569
vn -0.1626 -0.5423 0.8243
vn -0.4611 -0.5075 0.7279
vn -0.5518 -0.1809 0.8141
vn -0.5611 0.1458 0.8148
vn -0.3641 0.9297 0.0550
vn -0.2669 -0.9617 -0.0617
vn -0.2658 -0.9441 -0.1950
vn -0.9453 -0.3004 -0.1272
vn -0.8808 0.4492 -0.1499
vn -0.2414 0.9691 -0.0498
vn -0.2630 -0.9609 -0.0869
vn -0.9711 -0.2263 -0.0765
vn -0.9676 0.2290 0.1067
vn -0.2684 0.9631 -0.0181
vn -0.6834 0.4155 0.6002
vn -0.2616 0.8300 0.4925
vn -0.3565 -0.2183 0.9084
vn -0.0286 -0.8241 0.5657
vn -0.7816 0.6106 -0.1273
vn -0.8239 -0.3728 0.4269
vn -0.7696 0.6376 -0.0340
vn -0.4111 -0.9115 0.0071
vn 0.3939 -0.3681 -0.8423
vn -0.8640 0.2556 -0.4337
vn -0.8879 -0.3570 0.2903
vn 0.9092 -0.3498 -0.2259
vn -0.0091 0.9969 -0.0788
vn -0.8159 0.4951 0.2987
vn 0.8550 0.4424 -0.2705
vn -0.0529 -0.9960 -0.0714
vn -0.8819 0.4362 0.1786
vn 0.8410 0.3515 -0.4112
vn -0.0150 -0.9919 0.1260
vn -0.8964 -0.3180 0.3086
vn 0.8594 -0.4239 -0.2859
vn -0.0002 0.9846 -0.1746
vn -0.4861 -0.0832 0.8699
vn 0.9810 -0.1788 0.0750
vn 0.5180 0.7965 0.3118
vn -0.6106 0.5720 0.5476
vn 0.6448 0.0061 -0.7643
vn 0.5358 -0.4692 0.7020
vn -0.7898 0.2646 0.5533
vn -0.0039 -0.9858 0.1679
vn -0.8665 -0.0660 0.4947
vn 0.2583 0.9092 -0.3264
vn 0.9902 -0.1272 -0.0585
vn 0.6860 0.6452 -0.3363
vn -0.9875 0.0726 -0.1400
vn 0.9655 0.2306 -0.1210
vn 0.1455 -0.9842 -0.1009
vn -0.9888 -0.1008 -0.1103
vn 0.1200 0.8708 -0.4767
vn -0.9894 0.0390 -0.1399
vn 0.5296 -0.8143 0.2375
vn 0.5459 -0.8379 -0.0000
vn 0.2122 -0.2493 -0.9449
vn -0.9803 0.0973 0.1721
vn 0.0417 0.8874 -0.4592
vn 0.9249 -0.2786 -0.2586
vn -0.2118 -0.1381 0.9675
vn -0.5591 0.6305 0.5384
vn -0.0223 -0.3615 0.9321
vn -0.4717 -0.0620 0.8796
vn 0.4783 -0.2792 -0.8326
vn 0.5886 -0.0161 -0.8083
vn -0.0407 -0.9974 -0.0600
vn 0.8774 0.4169 -0.2376
vn -0.8121 0.4772 0.3359
vn -0.0362 0.9958 -0.0845
vn 0.9192 -0.3070 -0.2465
vn -0.8801 -0.3715 0.2956
vn 0.0207 0.9968 -0.0777
vn 0.8608 -0.4180 -0.2903
vn -0.8912 -0.3276 0.3138
vn -0.0464 -0.9989 -0.0038
vn 0.7745 0.4371 -0.4572
vn -0.8231 0.5069 0.2560
vn -0.5624 0.8106 -0.1631
vn -0.9941 -0.0047 -0.1085
vn -0.4954 -0.8677 -0.0405
vn 0.5926 -0.8055 -0.0068
vn 0.5786 -0.7961 -0.1772
vn 0.4860 0.8485 -0.2093
vn -0.4316 0.7932 -0.4297
vn -0.9957 0.0085 -0.0923
vn 0.9864 -0.1543 0.0570
vn -0.9991 -0.0027 0.0434
vn -0.5885 0.8077 0.0369
vn -0.4575 -0.8886 -0.0338
vn 0.6273 -0.0067 0.7787
vn 0.5671 -0.1421 0.8113
vn 0.5553 -0.2877 0.7803
vn -0.4466 -0.8933 0.0511
vn -0.5514 0.8053 0.2177
vn -0.0529 0.9367 -0.3462
vn 0.5992 -0.7643 -0.2386
vn -0.9569 -0.0566 0.2850
vn 0.9995 -0.0004 -0.0313
vn 0.9996 0.0027 -0.0291
vn -0.4986 0.8668 0.0058
vn -0.5000 -0.8611 -0.0924
vn 0.4999 0.8641 0.0585
vn 0.5000 -0.8622 -0.0809
vn 0.4785 -0.8758 -0.0629
vn 0.6154 0.7881 0.0141
vn -0.4758 -0.8638 -0.1657
vn -0.5530 0.8225 0.1330
vn 1.0000 -0.0000 0.0008
vn -0.9980 0.0027 -0.0637
vn 0.1423 -0.5132 -0.8464
vn -0.2392 -0.9246 0.2965
vn 0.0095 0.9869 0.1613
vn -0.2956 0.8225 0.4859
vn -0.2045 -0.9700 0.1312
vn -0.8793 -0.0885 0.4679
vn -0.0000 0.1680 -0.9858
vn -0.4991 -0.8653 -0.0472
vn -0.4988 0.8666 -0.0146
vn 0.4988 0.8666 -0.0146
vn 0.4991 -0.8653 -0.0472
vn -0.9995 -0.0004 -0.0313
vn -0.9979 -0.0019 -0.0642
vn 1.0000 0.0003 0.0008
vn -0.5405 0.8305 0.1349
vn -0.4843 -0.8591 -0.1655
vn 0.5175 0.8381 0.1726
vn 0.5122 -0.8566 -0.0615
vn -0.9979 -0.0007 -0.0641
vn -0.4858 0.8672 -0.1089
vn -0.4820 -0.8604 -0.1656
vn 0.5024 0.8645 0.0154
vn 0.5038 -0.8616 -0.0619
vn -0.2691 0.9600 0.0768
vn -0.2389 -0.9698 -0.0483
vn -0.9025 -0.0807 0.4231
vn -0.7396 -0.3306 0.5863
vn -0.8391 0.5429 0.0335
vn -0.5488 0.8323 0.0777
vn -0.5513 -0.8343 -0.0000
vn -0.9882 0.0990 -0.1172
vn 0.6980 -0.0134 -0.7159
vn -0.4046 0.8533 -0.3288
vn 0.3711 0.9099 -0.1857
vt 0.500000 0.375000
vt 0.437500 0.437500
vt 0.437500 0.375000
vt 0.562500 0.437500
vt 0.500000 0.437500
vt 0.625000 0.375000
vt 0.562500 0.375000
vt 0.625000 0.500000
vt 0.562500 0.500000
vt 0.500000 0.500000
vt 0.437500 0.500000
vt 0.375000 0.500000
vt 0.375000 0.437500
vt 0.375000 0.375000
vt 0.437500 0.562500
vt 0.500000 0.625000
vt 0.437500 0.625000
vt 0.500000 0.562500
vt 0.562500 0.625000
vt 0.500000 0.687500
vt 0.437500 0.687500
vt 0.562500 0.687500
vt 0.375000 0.562500
vt 0.562500 0.562500
vt 0.625000 0.625000
vt 0.625000 0.687500
vt 0.625000 0.750000
vt 0.562500 0.750000
vt 0.500000 0.750000
vt 0.437500 0.750000
vt 0.375000 0.750000
vt 0.375000 0.687500
vt 0.375000 0.625000
vt 0.500000 0.875000
vt 0.468750 0.875000
vt 0.437500 0.875000
vt 0.500000 0.812500
vt 0.562500 0.875000
vt 0.437500 0.812500
vt 0.375000 0.812500
vt 0.562500 0.812500
vt 0.625000 0.812500
vt 0.375000 0.875000
vt 0.250000 0.562500
vt 0.312500 0.625000
vt 0.250000 0.625000
vt 0.312500 0.687500
vt 0.250000 0.687500
vt 0.250000 0.500000
vt 0.312500 0.562500
vt 0.312500 0.500000
vt 0.312500 0.750000
vt 0.250000 0.750000
vt 0.687500 0.562500
vt 0.750000 0.625000
vt 0.687500 0.625000
vt 0.750000 0.687500
vt 0.687500 0.687500
vt 0.625000 0.562500
vt 0.687500 0.500000
vt 0.750000 0.562500
vt 0.687500 0.750000
vt 1.000000 0.500000
vt 0.833333 1.000000
vt 0.833333 0.500000
vt 0.666667 1.000000
vt 0.666667 0.500000
vt 0.500000 1.000000
vt 0.500000 0.500000
vt 0.333333 0.500000
vt 0.042154 0.130000
vt 0.250000 0.010000
vt 0.457846 0.130000
vt 0.333333 1.000000
vt 0.166667 0.500000
vt 0.166667 1.000000
vt -0.000000 0.500000
vt 0.542154 0.130000
vt 0.542154 0.370000
vt 0.957846 0.370000
vt 1.000000 0.828637
vt 0.875000 1.000000
vt 0.875000 0.828637
vt 0.625000 0.828637
vt 0.500000 1.000000
vt 0.500000 0.828637
vt 0.625000 0.645722
vt 0.500000 0.500000
vt 0.750000 0.500000
vt 0.875000 0.645722
vt 0.875000 0.500000
vt 0.500000 0.645722
vt 0.750000 0.828637
vt 0.750000 0.645722
vt 1.000000 0.645722
vt 0.750000 1.000000
vt 1.000000 1.000000
vt 0.625000 1.000000
vt 0.749520 0.964446
vt 0.653402 0.965669
vt 0.844587 0.863513
vt 0.844268 0.965118
vt 0.647775 0.863148
vt 0.750840 0.864057
vt 0.749520 0.964446
vt 0.750840 0.864057
vt 0.647775 0.863149
vt 0.844587 0.863513
vt 0.844267 0.965117
vt 0.653402 0.965669
vt 0.749520 0.964446
vt 0.844268 0.965117
vt 0.750840 0.864057
vt 0.653402 0.965669
vt 0.844587 0.863513
vt 0.000000 0.000000
vt 0.833333 0.500000
vt -0.000000 1.000000
vt 0.500000 0.500000
vt 0.500000 0.500000
vt 0.166667 0.500000
vt -0.000000 0.500000
vt 0.833333 0.500000
vt 0.042154 0.370000
vt 0.457846 0.370000
vt 0.750000 0.010000
vt 0.333333 0.500000
vt 0.457846 0.250000
vt 0.625000 0.437500
vt 0.750000 0.500000
vt 0.957846 0.130000
vt 0.250000 0.490000
vt 0.625000 0.875000
vt 0.750000 0.750000
vt 0.250000 0.490000
vt 0.750000 0.490000
vt 0.750000 0.490000
s 0
f 26/1/1 28/2/1 25/3/1
f 26/1/2 30/4/2 29/5/2
f 7/6/3 30/4/3 27/7/3
f 30/4/4 4/8/4 9/9/4
f 29/5/5 9/9/5 10/10/5
f 28/2/6 10/10/6 11/11/6
f 28/2/7 3/12/7 5/13/7
f 25/3/8 5/13/8 6/14/8
f 31/15/9 35/16/9 34/17/9
f 32/18/10 36/19/10 35/16/10
f 34/17/11 38/20/11 37/21/11
f 35/16/12 39/22/12 38/20/12
f 3/12/13 31/15/13 14/23/13
f 11/11/14 32/18/14 31/15/14
f 10/10/15 33/24/15 32/18/15
f 4/8/16 33/24/16 9/9/16
f 33/24/17 16/25/17 36/19/17
f 36/19/18 17/26/18 39/22/18
f 39/22/19 2/27/19 18/28/19
f 38/20/20 18/28/20 19/29/20
f 37/21/21 19/29/21 20/30/21
f 37/21/22 1/31/22 12/32/22
f 13/33/23 37/21/23 12/32/23
f 14/23/24 34/17/24 13/33/24
f 44/34/25 58/35/25 43/36/25
f 41/37/26 45/38/26 44/34/26
f 1/31/27 40/39/27 22/40/27
f 20/30/28 41/37/28 40/39/28
f 19/29/29 42/41/29 41/37/29
f 2/27/30 42/41/30 18/28/30
f 23/42/31 45/38/31 42/41/31
f 22/40/32 43/36/32 21/43/32
f 46/44/33 49/45/33 48/46/33
f 48/46/34 51/47/34 50/48/34
f 6/49/35 47/50/35 46/44/35
f 5/51/36 14/23/36 47/50/36
f 47/50/37 13/33/37 49/45/37
f 49/45/38 12/32/38 51/47/38
f 51/47/39 1/31/39 22/52/39
f 51/47/40 21/53/40 50/48/40
f 52/54/41 55/55/41 54/56/41
f 54/56/42 57/57/42 56/58/42
f 4/8/43 52/54/43 15/59/43
f 8/60/44 53/61/44 52/54/44
f 57/57/45 23/62/45 56/58/45
f 56/58/46 2/27/46 17/26/46
f 16/25/47 56/58/47 17/26/47
f 15/59/48 54/56/48 16/25/48
f 59/63/49 62/64/49 61/65/49
f 61/65/50 64/66/50 63/67/50
f 63/67/51 66/68/51 65/69/51
f 66/68/52 67/70/52 65/69/52
f 68/71/53 66/72/53 64/73/53
f 68/74/54 69/75/54 67/70/54
f 70/76/55 59/77/55 69/75/55
f 67/78/56 69/79/56 61/80/56
f 86/81/57 97/82/57 99/83/57
f 100/84/58 80/85/58 90/86/58
f 84/87/59 79/88/59 77/8/59
f 75/89/60 84/87/60 77/8/60
f 82/90/61 75/89/61 73/91/61
f 71/63/62 82/90/62 73/91/62
f 100/84/63 85/92/63 84/87/63
f 101/93/64 84/87/64 83/94/64
f 99/83/65 83/94/65 82/90/65
f 81/95/66 99/83/66 82/90/66
f 97/82/67 93/96/67 96/96/67
f 72/97/68 92/82/68 97/82/68
f 98/98/69 93/96/69 94/98/69
f 80/85/70 94/98/70 95/85/70
f 76/99/71 97/82/71 96/96/71
f 78/100/72 96/96/72 98/98/72
f 87/101/73 97/82/73 74/102/73
f 78/100/74 100/84/74 89/103/74
f 89/103/75 101/93/75 88/104/75
f 87/101/76 101/93/76 99/83/76
f 150/105/77 104/100/77 103/99/77
f 151/106/78 107/103/78 152/107/78
f 154/108/79 102/102/79 105/101/79
f 150/105/80 102/102/80 153/109/80
f 151/106/81 105/101/81 106/104/81
f 152/107/82 104/100/82 149/110/82
f 155/111/83 108/102/83 156/112/83
f 158/113/84 111/101/84 112/104/84
f 160/114/85 113/103/85 110/100/85
f 155/111/86 110/100/86 109/99/86
f 158/113/87 113/103/87 159/107/87
f 156/112/88 111/101/88 157/115/88
f 110/100/89 115/99/89 109/99/89
f 112/104/90 133/103/90 113/103/90
f 108/102/91 117/101/91 111/101/91
f 108/102/92 115/99/92 114/102/92
f 111/101/93 118/104/93 112/104/93
f 110/100/94 119/103/94 116/100/94
f 114/102/95 121/99/95 120/102/95
f 117/101/96 124/104/96 118/104/96
f 119/103/97 122/100/97 116/100/97
f 115/99/98 122/100/98 121/99/98
f 119/103/99 124/104/99 125/103/99
f 117/101/100 120/102/100 123/101/100
f 124/104/101 131/103/101 125/103/101
f 123/101/102 126/102/102 129/101/102
f 121/99/103 126/102/103 120/102/103
f 124/104/104 129/101/104 130/104/104
f 125/103/105 128/100/105 122/100/105
f 121/99/106 128/100/106 127/99/106
f 132/104/107 137/103/107 133/103/107
f 118/104/108 132/104/108 112/104/108
f 119/103/109 134/104/109 118/104/109
f 119/103/110 133/103/110 135/103/110
f 139/103/111 141/103/111 143/103/111
f 135/103/112 137/103/112 139/103/112
f 135/103/113 138/104/113 134/104/113
f 134/104/114 136/104/114 132/104/114
f 141/103/115 142/104/115 143/103/115
f 139/103/116 142/104/116 138/104/116
f 138/104/117 140/104/117 136/104/117
f 136/104/118 141/103/118 137/103/118
f 94/98/119 146/96/119 147/98/119
f 91/97/120 145/82/120 92/82/120
f 94/98/121 148/85/121 95/85/121
f 92/82/122 146/96/122 93/96/122
f 128/100/123 130/104/123 127/99/123
f 127/99/124 129/101/124 126/102/124
f 89/103/125 149/110/125 78/100/125
f 88/104/126 154/108/126 151/106/126
f 74/102/127 150/105/127 153/109/127
f 87/101/128 153/109/128 154/108/128
f 88/104/129 152/107/129 89/103/129
f 78/100/130 150/105/130 76/99/130
f 102/102/131 157/115/131 105/101/131
f 106/104/132 159/107/132 107/103/132
f 103/99/133 160/114/133 155/111/133
f 104/100/134 159/107/134 160/114/134
f 106/104/135 157/115/135 158/113/135
f 103/99/136 156/112/136 102/102/136
f 162/97/137 163/65/137 161/63/137
f 163/65/138 166/66/138 165/67/138
f 165/67/139 168/68/139 167/69/139
f 168/68/140 169/70/140 167/69/140
f 170/74/141 175/68/141 176/74/141
f 368/74/142 369/75/142 416/116/142
f 170/74/143 171/75/143 169/70/143
f 190/67/144 185/65/144 191/117/144
f 177/76/145 182/74/145 183/76/145
f 164/64/146 174/66/146 166/66/146
f 164/64/147 172/97/147 173/64/147
f 166/66/148 175/68/148 168/68/148
f 182/71/149 181/72/149 180/73/149
f 174/66/150 181/68/150 175/68/150
f 173/64/151 178/97/151 179/64/151
f 177/76/152 178/118/152 172/118/152
f 175/68/153 182/74/153 176/74/153
f 173/64/154 180/66/154 174/66/154
f 188/70/155 210/75/155 209/70/155
f 192/75/156 188/70/156 193/70/156
f 191/117/157 184/63/157 194/63/157
f 190/67/158 187/69/158 186/67/158
f 192/75/159 184/77/159 189/75/159
f 193/70/160 187/69/160 195/119/160
f 221/70/161 195/119/161 219/120/161
f 218/121/162 194/122/162 192/75/162
f 217/67/163 195/119/163 190/67/163
f 222/63/164 191/117/164 194/63/164
f 218/121/165 193/70/165 221/70/165
f 220/123/166 190/67/166 191/117/166
f 183/76/167 178/118/167 200/116/167
f 182/116/168 197/116/168 196/116/168
f 181/116/169 198/116/169 197/116/169
f 196/116/170 183/124/170 182/71/170
f 199/116/171 178/116/171 200/116/171
f 199/116/172 201/116/172 179/116/172
f 198/116/173 202/116/173 203/116/173
f 179/125/174 202/73/174 180/73/174
f 206/80/175 208/126/175 210/79/175
f 187/69/176 207/67/176 186/67/176
f 185/65/177 205/63/177 184/63/177
f 189/75/178 205/77/178 210/75/178
f 187/69/179 209/70/179 208/69/179
f 186/67/180 206/65/180 185/65/180
f 163/65/181 214/67/181 211/123/181
f 171/75/182 212/127/182 169/70/182
f 161/63/183 211/123/183 213/63/183
f 165/67/184 216/69/184 214/67/184
f 161/77/185 215/121/185 171/75/185
f 169/70/186 216/69/186 167/69/186
f 211/123/187 217/67/187 220/123/187
f 215/121/188 221/70/188 212/127/188
f 213/63/189 220/123/189 222/63/189
f 214/67/190 219/120/190 217/67/190
f 215/121/191 222/77/191 218/121/191
f 212/127/192 219/120/192 216/69/192
f 204/116/193 73/116/193 201/116/193
f 203/116/194 77/116/194 79/116/194
f 201/125/195 73/125/195 75/128/195
f 145/82/196 225/96/196 146/96/196
f 146/96/197 226/98/197 147/98/197
f 145/82/198 223/97/198 224/82/198
f 147/98/199 227/85/199 148/85/199
f 248/2/200 26/1/200 25/3/200
f 26/1/201 250/4/201 27/7/201
f 250/4/202 7/6/202 27/7/202
f 250/4/203 231/8/203 233/129/203
f 249/5/204 234/9/204 250/4/204
f 248/2/205 235/10/205 249/5/205
f 230/12/206 248/2/206 232/13/206
f 232/13/207 25/3/207 6/14/207
f 251/15/208 255/16/208 252/18/208
f 252/18/209 256/19/209 253/24/209
f 254/17/210 258/20/210 255/16/210
f 255/16/211 259/22/211 256/19/211
f 230/12/212 251/15/212 236/11/212
f 236/11/213 252/18/213 235/10/213
f 235/10/214 253/24/214 234/9/214
f 253/24/215 231/8/215 234/9/215
f 253/24/216 241/25/216 240/59/216
f 256/19/217 242/26/217 241/25/217
f 259/22/218 229/27/218 242/26/218
f 258/20/219 243/28/219 259/22/219
f 257/21/220 244/29/220 258/20/220
f 228/31/221 257/21/221 237/32/221
f 238/33/222 257/21/222 254/17/222
f 239/23/223 254/17/223 251/15/223
f 261/37/224 45/38/224 262/41/224
f 228/31/225 260/39/225 245/30/225
f 245/30/226 261/37/226 244/29/226
f 244/29/227 262/41/227 243/28/227
f 262/41/228 229/27/228 243/28/228
f 45/38/229 247/42/229 262/41/229
f 246/40/230 43/36/230 260/39/230
f 46/44/231 264/45/231 263/50/231
f 48/46/232 265/47/232 264/45/232
f 6/49/233 263/50/233 232/51/233
f 232/51/234 239/23/234 230/12/234
f 263/50/235 238/33/235 239/23/235
f 264/45/236 237/32/236 238/33/236
f 265/47/237 228/31/237 237/32/237
f 21/53/238 265/47/238 50/48/238
f 266/54/239 55/55/239 53/61/239
f 267/56/240 57/57/240 55/55/240
f 231/8/241 266/54/241 233/60/241
f 233/60/242 53/61/242 7/130/242
f 247/62/243 57/57/243 268/58/243
f 229/27/244 268/58/244 242/26/244
f 241/25/245 268/58/245 267/56/245
f 240/59/246 267/56/246 266/54/246
f 269/63/247 272/64/247 270/97/247
f 271/65/248 274/66/248 272/64/248
f 273/67/249 276/68/249 274/66/249
f 277/70/250 276/68/250 275/69/250
f 278/71/251 280/124/251 274/73/251
f 279/75/252 278/74/252 277/70/252
f 269/77/253 280/76/253 279/75/253
f 271/80/254 277/78/254 273/131/254
f 86/81/255 297/82/255 72/97/255
f 300/84/256 80/85/256 298/98/256
f 79/88/257 289/87/257 285/8/257
f 283/89/258 289/87/258 288/94/258
f 283/89/259 287/90/259 281/91/259
f 71/63/260 287/90/260 81/95/260
f 85/92/261 300/84/261 289/87/261
f 289/87/262 301/93/262 288/94/262
f 288/94/263 299/83/263 287/90/263
f 81/95/264 299/83/264 86/81/264
f 294/96/265 297/82/265 296/96/265
f 293/82/266 72/97/266 297/82/266
f 298/98/267 294/96/267 296/96/267
f 80/85/268 295/98/268 298/98/268
f 284/99/269 297/82/269 282/102/269
f 286/100/270 296/96/270 284/99/270
f 297/82/271 290/101/271 282/102/271
f 300/84/272 286/100/272 292/103/272
f 301/93/273 292/103/273 291/104/273
f 290/101/274 301/93/274 291/104/274
f 348/105/275 304/100/275 347/110/275
f 307/103/276 349/106/276 350/107/276
f 352/108/277 302/102/277 351/109/277
f 302/102/278 348/105/278 351/109/278
f 349/106/279 305/101/279 352/108/279
f 304/100/280 350/107/280 347/110/280
f 308/102/281 353/111/281 354/112/281
f 356/113/282 311/101/282 355/115/282
f 358/114/283 313/103/283 357/107/283
f 353/111/284 310/100/284 358/114/284
f 313/103/285 356/113/285 357/107/285
f 311/101/286 354/112/286 355/115/286
f 315/99/287 310/100/287 309/99/287
f 333/103/288 312/104/288 313/103/288
f 317/101/289 308/102/289 311/101/289
f 308/102/290 315/99/290 309/99/290
f 318/104/291 311/101/291 312/104/291
f 310/100/292 319/103/292 313/103/292
f 314/102/293 321/99/293 315/99/293
f 324/104/294 317/101/294 318/104/294
f 322/100/295 319/103/295 316/100/295
f 315/99/296 322/100/296 316/100/296
f 319/103/297 324/104/297 318/104/297
f 317/101/298 320/102/298 314/102/298
f 331/103/299 324/104/299 325/103/299
f 323/101/300 326/102/300 320/102/300
f 326/102/301 321/99/301 320/102/301
f 324/104/302 329/101/302 323/101/302
f 328/100/303 325/103/303 322/100/303
f 321/99/304 328/100/304 322/100/304
f 337/103/305 332/104/305 333/103/305
f 332/104/306 318/104/306 312/104/306
f 334/104/307 319/103/307 318/104/307
f 319/103/308 333/103/308 313/103/308
f 339/103/309 341/103/309 337/103/309
f 335/103/310 337/103/310 333/103/310
f 338/104/311 335/103/311 334/104/311
f 336/104/312 334/104/312 332/104/312
f 341/103/313 342/104/313 340/104/313
f 342/104/314 339/103/314 338/104/314
f 340/104/315 338/104/315 336/104/315
f 341/103/316 336/104/316 337/103/316
f 295/98/317 345/96/317 294/96/317
f 344/82/318 91/97/318 293/82/318
f 148/85/319 295/98/319 95/85/319
f 345/96/320 293/82/320 294/96/320
f 328/100/321 330/104/321 331/103/321
f 327/99/322 329/101/322 330/104/322
f 347/110/323 292/103/323 286/100/323
f 291/104/324 352/108/324 290/101/324
f 282/102/325 348/105/325 284/99/325
f 290/101/326 351/109/326 282/102/326
f 350/107/327 291/104/327 292/103/327
f 348/105/328 286/100/328 284/99/328
f 355/115/329 302/102/329 305/101/329
f 357/107/330 306/104/330 307/103/330
f 303/99/331 358/114/331 304/100/331
f 304/100/332 357/107/332 307/103/332
f 306/104/333 355/115/333 305/101/333
f 354/112/334 303/99/334 302/102/334
f 361/65/335 360/97/335 359/63/335
f 361/65/336 364/66/336 362/64/336
f 363/67/337 366/68/337 364/66/337
f 367/70/338 366/68/338 365/69/338
f 368/74/339 373/68/339 366/68/339
f 416/116/340 359/63/340 360/97/340
f 162/97/341 171/75/341 415/116/341
f 381/65/342 386/67/342 387/117/342
f 177/76/343 379/74/343 374/74/343
f 372/66/344 362/64/344 364/66/344
f 362/64/345 370/97/345 360/97/345
f 373/68/346 364/66/346 366/68/346
f 379/71/347 183/124/347 375/132/347
f 378/68/348 372/66/348 373/68/348
f 371/64/349 375/97/349 370/97/349
f 375/118/350 177/76/350 370/118/350
f 379/74/351 373/68/351 374/74/351
f 377/66/352 371/64/352 372/66/352
f 384/70/353 399/75/353 385/75/353
f 384/70/354 388/75/354 389/70/354
f 380/63/355 387/117/355 390/63/355
f 386/67/356 383/69/356 391/119/356
f 388/75/357 380/77/357 390/122/357
f 383/69/358 389/70/358 391/119/358
f 391/119/359 410/70/359 408/120/359
f 407/121/360 390/122/360 411/77/360
f 406/67/361 391/119/361 408/120/361
f 411/63/362 387/117/362 409/123/362
f 389/70/363 407/121/363 410/70/363
f 409/123/364 386/67/364 406/67/364
f 183/76/365 200/116/365 375/118/365
f 197/116/366 379/116/366 196/116/366
f 198/116/367 378/116/367 197/116/367
f 196/116/368 379/71/368 183/124/368
f 199/116/369 375/116/369 376/116/369
f 392/116/370 199/116/370 376/116/370
f 198/116/371 393/116/371 377/116/371
f 393/73/372 376/125/372 377/73/372
f 399/79/373 397/126/373 395/80/373
f 396/67/374 383/69/374 382/67/374
f 394/63/375 381/65/375 380/63/375
f 385/75/376 394/77/376 380/77/376
f 383/69/377 398/70/377 384/70/377
f 395/65/378 382/67/378 381/65/378
f 361/65/379 403/67/379 363/67/379
f 401/127/380 369/75/380 367/70/380
f 359/63/381 400/123/381 361/65/381
f 363/67/382 405/69/382 365/69/382
f 404/121/383 359/77/383 369/75/383
f 405/69/384 367/70/384 365/69/384
f 400/123/385 406/67/385 403/67/385
f 410/70/363 404/121/363 401/127/363
f 402/63/386 409/123/386 400/123/386
f 403/67/387 408/120/387 405/69/387
f 404/121/388 411/77/388 402/77/388
f 408/120/389 401/127/389 405/69/389
f 281/116/390 204/116/390 392/116/390
f 203/116/391 285/116/391 393/116/391
f 283/128/392 281/125/392 392/125/392
f 413/96/393 344/82/393 345/96/393
f 414/98/394 345/96/394 346/98/394
f 344/82/395 223/97/395 144/97/395
f 227/85/396 346/98/396 148/85/396
f 415/116/397 176/74/397 177/76/397
f 416/116/398 374/74/398 368/74/398
f 172/118/399 415/116/399 177/76/399
f 416/116/400 370/118/400 177/76/400
f 26/1/401 29/5/401 28/2/401
f 26/1/402 27/7/402 30/4/402
f 7/6/403 8/129/403 30/4/403
f 30/4/404 8/129/404 4/8/404
f 29/5/405 30/4/405 9/9/405
f 28/2/406 29/5/406 10/10/406
f 28/2/407 11/11/407 3/12/407
f 25/3/408 28/2/408 5/13/408
f 31/15/409 32/18/409 35/16/409
f 32/18/410 33/24/410 36/19/410
f 34/17/411 35/16/411 38/20/411
f 35/16/412 36/19/412 39/22/412
f 3/12/413 11/11/413 31/15/413
f 11/11/414 10/10/414 32/18/414
f 10/10/415 9/9/415 33/24/415
f 4/8/416 15/59/416 33/24/416
f 33/24/417 15/59/417 16/25/417
f 36/19/418 16/25/418 17/26/418
f 39/22/419 17/26/419 2/27/419
f 38/20/420 39/22/420 18/28/420
f 37/21/421 38/20/421 19/29/421
f 37/21/422 20/30/422 1/31/422
f 13/33/423 34/17/423 37/21/423
f 14/23/424 31/15/424 34/17/424
f 43/36/425 40/39/425 44/34/425
f 40/39/426 41/37/426 44/34/426
f 41/37/427 42/41/427 45/38/427
f 1/31/428 20/30/428 40/39/428
f 20/30/429 19/29/429 41/37/429
f 19/29/430 18/28/430 42/41/430
f 2/27/431 23/42/431 42/41/431
f 23/42/432 24/133/432 45/38/432
f 22/40/433 40/39/433 43/36/433
f 46/44/434 47/50/434 49/45/434
f 48/46/435 49/45/435 51/47/435
f 6/49/436 5/51/436 47/50/436
f 5/51/437 3/12/437 14/23/437
f 47/50/438 14/23/438 13/33/438
f 49/45/439 13/33/439 12/32/439
f 51/47/440 12/32/440 1/31/440
f 51/47/441 22/52/441 21/53/441
f 52/54/442 53/61/442 55/55/442
f 54/56/443 55/55/443 57/57/443
f 4/8/444 8/60/444 52/54/444
f 8/60/445 7/130/445 53/61/445
f 57/57/446 24/134/446 23/62/446
f 56/58/447 23/62/447 2/27/447
f 16/25/448 54/56/448 56/58/448
f 15/59/449 52/54/449 54/56/449
f 59/63/49 60/97/49 62/64/49
f 61/65/50 62/64/50 64/66/50
f 63/67/51 64/66/51 66/68/51
f 66/68/450 68/74/450 67/70/450
f 64/73/53 62/125/53 68/71/53
f 62/125/53 60/135/53 70/124/53
f 68/71/53 62/125/53 70/124/53
f 68/74/54 70/76/54 69/75/54
f 70/76/55 60/118/55 59/77/55
f 69/79/56 59/136/56 61/80/56
f 61/80/56 63/131/56 67/78/56
f 63/131/56 65/126/56 67/78/56
f 86/81/451 72/97/451 97/82/451
f 100/84/452 98/98/452 80/85/452
f 84/87/453 85/92/453 79/88/453
f 75/89/454 83/94/454 84/87/454
f 82/90/455 83/94/455 75/89/455
f 71/63/456 81/95/456 82/90/456
f 100/84/457 90/86/457 85/92/457
f 101/93/458 100/84/458 84/87/458
f 99/83/459 101/93/459 83/94/459
f 81/95/460 86/81/460 99/83/460
f 97/82/461 92/82/461 93/96/461
f 72/97/462 91/97/462 92/82/462
f 98/98/463 96/96/463 93/96/463
f 80/85/464 98/98/464 94/98/464
f 76/99/465 74/102/465 97/82/465
f 78/100/466 76/99/466 96/96/466
f 87/101/467 99/83/467 97/82/467
f 78/100/468 98/98/468 100/84/468
f 89/103/469 100/84/469 101/93/469
f 87/101/470 88/104/470 101/93/470
f 150/105/471 149/110/471 104/100/471
f 151/106/472 106/104/472 107/103/472
f 154/108/473 153/109/473 102/102/473
f 150/105/474 103/99/474 102/102/474
f 151/106/475 154/108/475 105/101/475
f 152/107/476 107/103/476 104/100/476
f 155/111/477 109/99/477 108/102/477
f 158/113/478 157/115/478 111/101/478
f 160/114/479 159/107/479 113/103/479
f 155/111/480 160/114/480 110/100/480
f 158/113/481 112/104/481 113/103/481
f 156/112/482 108/102/482 111/101/482
f 110/100/483 116/100/483 115/99/483
f 112/104/484 132/104/484 133/103/484
f 108/102/485 114/102/485 117/101/485
f 108/102/486 109/99/486 115/99/486
f 111/101/487 117/101/487 118/104/487
f 110/100/488 113/103/488 119/103/488
f 114/102/489 115/99/489 121/99/489
f 117/101/96 123/101/96 124/104/96
f 119/103/490 125/103/490 122/100/490
f 115/99/491 116/100/491 122/100/491
f 119/103/99 118/104/99 124/104/99
f 117/101/492 114/102/492 120/102/492
f 124/104/493 130/104/493 131/103/493
f 123/101/494 120/102/494 126/102/494
f 121/99/495 127/99/495 126/102/495
f 124/104/496 123/101/496 129/101/496
f 125/103/497 131/103/497 128/100/497
f 121/99/498 122/100/498 128/100/498
f 132/104/107 136/104/107 137/103/107
f 118/104/499 134/104/499 132/104/499
f 119/103/500 135/103/500 134/104/500
f 119/103/501 113/103/501 133/103/501
f 139/103/502 137/103/502 141/103/502
f 135/103/112 133/103/112 137/103/112
f 135/103/113 139/103/113 138/104/113
f 134/104/114 138/104/114 136/104/114
f 141/103/503 140/104/503 142/104/503
f 139/103/504 143/103/504 142/104/504
f 138/104/505 142/104/505 140/104/505
f 136/104/506 140/104/506 141/103/506
f 94/98/507 93/96/507 146/96/507
f 91/97/508 144/97/508 145/82/508
f 94/98/509 147/98/509 148/85/509
f 92/82/510 145/82/510 146/96/510
f 128/100/511 131/103/511 130/104/511
f 127/99/512 130/104/512 129/101/512
f 89/103/513 152/107/513 149/110/513
f 88/104/514 87/101/514 154/108/514
f 74/102/515 76/99/515 150/105/515
f 87/101/516 74/102/516 153/109/516
f 88/104/517 151/106/517 152/107/517
f 78/100/518 149/110/518 150/105/518
f 102/102/519 156/112/519 157/115/519
f 106/104/520 158/113/520 159/107/520
f 103/99/521 104/100/521 160/114/521
f 104/100/522 107/103/522 159/107/522
f 106/104/523 105/101/523 157/115/523
f 103/99/524 155/111/524 156/112/524
f 162/97/525 164/64/525 163/65/525
f 163/65/526 164/64/526 166/66/526
f 165/67/527 166/66/527 168/68/527
f 168/68/528 170/74/528 169/70/528
f 170/74/529 168/68/529 175/68/529
f 368/74/530 367/70/530 369/75/530
f 170/74/531 415/116/531 171/75/531
f 190/67/532 186/67/532 185/65/532
f 177/76/533 176/74/533 182/74/533
f 164/64/534 173/64/534 174/66/534
f 164/64/535 162/97/535 172/97/535
f 166/66/536 174/66/536 175/68/536
f 180/73/537 179/125/537 182/71/537
f 179/125/538 178/132/538 182/71/538
f 178/132/539 183/124/539 182/71/539
f 174/66/540 180/66/540 181/68/540
f 173/64/541 172/97/541 178/97/541
f 177/76/542 183/76/542 178/118/542
f 175/68/543 181/68/543 182/74/543
f 173/64/544 179/64/544 180/66/544
f 188/70/545 189/75/545 210/75/545
f 192/75/546 189/75/546 188/70/546
f 191/117/547 185/65/547 184/63/547
f 190/67/548 195/119/548 187/69/548
f 192/75/549 194/122/549 184/77/549
f 193/70/550 188/70/550 187/69/550
f 221/70/551 193/70/551 195/119/551
f 218/121/552 222/77/552 194/122/552
f 217/67/553 219/120/553 195/119/553
f 222/63/554 220/123/554 191/117/554
f 218/121/555 192/75/555 193/70/555
f 220/123/556 217/67/556 190/67/556
f 182/116/557 181/116/557 197/116/557
f 181/116/558 180/116/558 198/116/558
f 199/116/559 179/116/559 178/116/559
f 199/116/560 204/116/560 201/116/560
f 198/116/561 180/116/561 202/116/561
f 179/125/562 201/125/562 202/73/562
f 210/79/563 205/137/563 206/80/563
f 206/80/564 207/131/564 208/126/564
f 208/126/565 209/78/565 210/79/565
f 187/69/566 208/69/566 207/67/566
f 185/65/567 206/65/567 205/63/567
f 189/75/568 184/77/568 205/77/568
f 187/69/569 188/70/569 209/70/569
f 186/67/570 207/67/570 206/65/570
f 163/65/571 165/67/571 214/67/571
f 171/75/572 215/121/572 212/127/572
f 161/63/573 163/65/573 211/123/573
f 165/67/574 167/69/574 216/69/574
f 161/77/575 213/77/575 215/121/575
f 169/70/576 212/127/576 216/69/576
f 211/123/577 214/67/577 217/67/577
f 215/121/578 218/121/578 221/70/578
f 213/63/579 211/123/579 220/123/579
f 214/67/580 216/69/580 219/120/580
f 215/121/581 213/77/581 222/77/581
f 212/127/582 221/70/582 219/120/582
f 204/116/583 71/116/583 73/116/583
f 203/116/584 202/116/584 77/116/584
f 77/73/585 202/73/585 75/128/585
f 202/73/586 201/125/586 75/128/586
f 145/82/587 224/82/587 225/96/587
f 146/96/197 225/96/197 226/98/197
f 145/82/588 144/97/588 223/97/588
f 147/98/589 226/98/589 227/85/589
f 248/2/590 249/5/590 26/1/590
f 26/1/591 249/5/591 250/4/591
f 250/4/592 233/129/592 7/6/592
f 250/4/593 234/9/593 231/8/593
f 249/5/594 235/10/594 234/9/594
f 248/2/595 236/11/595 235/10/595
f 230/12/596 236/11/596 248/2/596
f 232/13/597 248/2/597 25/3/597
f 251/15/598 254/17/598 255/16/598
f 252/18/599 255/16/599 256/19/599
f 254/17/600 257/21/600 258/20/600
f 255/16/601 258/20/601 259/22/601
f 230/12/602 239/23/602 251/15/602
f 236/11/603 251/15/603 252/18/603
f 235/10/604 252/18/604 253/24/604
f 253/24/605 240/59/605 231/8/605
f 253/24/606 256/19/606 241/25/606
f 256/19/607 259/22/607 242/26/607
f 259/22/608 243/28/608 229/27/608
f 258/20/609 244/29/609 243/28/609
f 257/21/610 245/30/610 244/29/610
f 228/31/611 245/30/611 257/21/611
f 238/33/612 237/32/612 257/21/612
f 239/23/613 238/33/613 254/17/613
f 261/37/614 260/39/614 44/34/614
f 260/39/615 43/36/615 44/34/615
f 261/37/616 44/34/616 45/38/616
f 228/31/617 246/40/617 260/39/617
f 245/30/618 260/39/618 261/37/618
f 244/29/619 261/37/619 262/41/619
f 262/41/620 247/42/620 229/27/620
f 45/38/621 24/133/621 247/42/621
f 246/40/622 21/43/622 43/36/622
f 46/44/623 48/46/623 264/45/623
f 48/46/624 50/48/624 265/47/624
f 6/49/625 46/44/625 263/50/625
f 232/51/626 263/50/626 239/23/626
f 263/50/627 264/45/627 238/33/627
f 264/45/628 265/47/628 237/32/628
f 265/47/629 246/52/629 228/31/629
f 21/53/630 246/52/630 265/47/630
f 266/54/631 267/56/631 55/55/631
f 267/56/632 268/58/632 57/57/632
f 231/8/633 240/59/633 266/54/633
f 233/60/634 266/54/634 53/61/634
f 247/62/635 24/134/635 57/57/635
f 229/27/636 247/62/636 268/58/636
f 241/25/637 242/26/637 268/58/637
f 240/59/638 241/25/638 267/56/638
f 269/63/247 271/65/247 272/64/247
f 271/65/248 273/67/248 274/66/248
f 273/67/249 275/69/249 276/68/249
f 277/70/250 278/74/250 276/68/250
f 270/135/251 272/125/251 280/124/251
f 272/125/251 274/73/251 280/124/251
f 274/73/251 276/72/251 278/71/251
f 279/75/252 280/76/252 278/74/252
f 269/77/253 270/118/253 280/76/253
f 271/80/254 269/136/254 279/79/254
f 279/79/254 277/78/254 271/80/254
f 277/78/254 275/126/254 273/131/254
f 86/81/639 299/83/639 297/82/639
f 300/84/640 90/86/640 80/85/640
f 79/88/641 85/92/641 289/87/641
f 283/89/642 285/8/642 289/87/642
f 283/89/643 288/94/643 287/90/643
f 71/63/644 281/91/644 287/90/644
f 85/92/645 90/86/645 300/84/645
f 289/87/646 300/84/646 301/93/646
f 288/94/647 301/93/647 299/83/647
f 81/95/648 287/90/648 299/83/648
f 294/96/649 293/82/649 297/82/649
f 293/82/650 91/97/650 72/97/650
f 298/98/651 295/98/651 294/96/651
f 80/85/652 95/85/652 295/98/652
f 284/99/653 296/96/653 297/82/653
f 286/100/654 298/98/654 296/96/654
f 297/82/655 299/83/655 290/101/655
f 300/84/656 298/98/656 286/100/656
f 301/93/657 300/84/657 292/103/657
f 290/101/658 299/83/658 301/93/658
f 348/105/659 303/99/659 304/100/659
f 307/103/660 306/104/660 349/106/660
f 352/108/661 305/101/661 302/102/661
f 302/102/662 303/99/662 348/105/662
f 349/106/663 306/104/663 305/101/663
f 304/100/664 307/103/664 350/107/664
f 308/102/665 309/99/665 353/111/665
f 356/113/666 312/104/666 311/101/666
f 358/114/667 310/100/667 313/103/667
f 353/111/668 309/99/668 310/100/668
f 313/103/669 312/104/669 356/113/669
f 311/101/670 308/102/670 354/112/670
f 315/99/671 316/100/671 310/100/671
f 333/103/672 332/104/672 312/104/672
f 317/101/673 314/102/673 308/102/673
f 308/102/674 314/102/674 315/99/674
f 318/104/675 317/101/675 311/101/675
f 310/100/676 316/100/676 319/103/676
f 314/102/677 320/102/677 321/99/677
f 324/104/294 323/101/294 317/101/294
f 322/100/678 325/103/678 319/103/678
f 315/99/679 321/99/679 322/100/679
f 319/103/297 325/103/297 324/104/297
f 317/101/680 323/101/680 320/102/680
f 331/103/681 330/104/681 324/104/681
f 323/101/682 329/101/682 326/102/682
f 326/102/683 327/99/683 321/99/683
f 324/104/684 330/104/684 329/101/684
f 328/100/685 331/103/685 325/103/685
f 321/99/686 327/99/686 328/100/686
f 337/103/305 336/104/305 332/104/305
f 332/104/687 334/104/687 318/104/687
f 334/104/688 335/103/688 319/103/688
f 319/103/689 335/103/689 333/103/689
f 339/103/690 343/103/690 341/103/690
f 335/103/310 339/103/310 337/103/310
f 338/104/311 339/103/311 335/103/311
f 336/104/312 338/104/312 334/104/312
f 341/103/691 343/103/691 342/104/691
f 342/104/692 343/103/692 339/103/692
f 340/104/693 342/104/693 338/104/693
f 341/103/694 340/104/694 336/104/694
f 295/98/695 346/98/695 345/96/695
f 344/82/696 144/97/696 91/97/696
f 148/85/697 346/98/697 295/98/697
f 345/96/698 344/82/698 293/82/698
f 328/100/699 327/99/699 330/104/699
f 327/99/700 326/102/700 329/101/700
f 347/110/701 350/107/701 292/103/701
f 291/104/702 349/106/702 352/108/702
f 282/102/703 351/109/703 348/105/703
f 290/101/704 352/108/704 351/109/704
f 350/107/705 349/106/705 291/104/705
f 348/105/706 347/110/706 286/100/706
f 355/115/707 354/112/707 302/102/707
f 357/107/708 356/113/708 306/104/708
f 303/99/709 353/111/709 358/114/709
f 304/100/710 358/114/710 357/107/710
f 306/104/711 356/113/711 355/115/711
f 354/112/712 353/111/712 303/99/712
f 361/65/713 362/64/713 360/97/713
f 361/65/714 363/67/714 364/66/714
f 363/67/715 365/69/715 366/68/715
f 367/70/716 368/74/716 366/68/716
f 368/74/717 374/74/717 373/68/717
f 416/116/718 369/75/718 359/63/718
f 162/97/719 161/63/719 171/75/719
f 381/65/720 382/67/720 386/67/720
f 177/76/721 183/76/721 379/74/721
f 372/66/722 371/64/722 362/64/722
f 362/64/723 371/64/723 370/97/723
f 373/68/724 372/66/724 364/66/724
f 375/132/725 376/125/725 379/71/725
f 376/125/726 377/73/726 379/71/726
f 377/73/727 378/72/727 379/71/727
f 378/68/728 377/66/728 372/66/728
f 371/64/729 376/64/729 375/97/729
f 375/118/730 183/76/730 177/76/730
f 379/74/731 378/68/731 373/68/731
f 377/66/732 376/64/732 371/64/732
f 384/70/733 398/70/733 399/75/733
f 384/70/734 385/75/734 388/75/734
f 380/63/735 381/65/735 387/117/735
f 386/67/736 382/67/736 383/69/736
f 388/75/737 385/75/737 380/77/737
f 383/69/738 384/70/738 389/70/738
f 391/119/739 389/70/739 410/70/739
f 407/121/740 388/75/740 390/122/740
f 406/67/741 386/67/741 391/119/741
f 411/63/742 390/63/742 387/117/742
f 389/70/743 388/75/743 407/121/743
f 409/123/744 387/117/744 386/67/744
f 197/116/745 378/116/745 379/116/745
f 198/116/746 377/116/746 378/116/746
f 199/116/747 200/116/747 375/116/747
f 392/116/748 204/116/748 199/116/748
f 198/116/749 203/116/749 393/116/749
f 393/73/750 392/125/750 376/125/750
f 395/80/751 394/137/751 399/79/751
f 399/79/373 398/78/373 397/126/373
f 397/126/373 396/131/373 395/80/373
f 396/67/752 397/69/752 383/69/752
f 394/63/753 395/65/753 381/65/753
f 385/75/754 399/75/754 394/77/754
f 383/69/755 397/69/755 398/70/755
f 395/65/756 396/67/756 382/67/756
f 361/65/757 400/123/757 403/67/757
f 401/127/758 404/121/758 369/75/758
f 359/63/759 402/63/759 400/123/759
f 363/67/760 403/67/760 405/69/760
f 404/121/761 402/77/761 359/77/761
f 405/69/762 401/127/762 367/70/762
f 400/123/763 409/123/763 406/67/763
f 410/70/758 407/121/758 404/121/758
f 402/63/764 411/63/764 409/123/764
f 403/67/765 406/67/765 408/120/765
f 404/121/766 407/121/766 411/77/766
f 408/120/767 410/70/767 401/127/767
f 281/116/768 71/116/768 204/116/768
f 203/116/769 79/116/769 285/116/769
f 392/125/770 393/73/770 283/128/770
f 393/73/771 285/73/771 283/128/771
f 413/96/772 412/82/772 344/82/772
f 414/98/394 413/96/394 345/96/394
f 344/82/773 412/82/773 223/97/773
f 227/85/774 414/98/774 346/98/774
f 415/116/775 170/74/775 176/74/775
f 416/116/776 177/76/776 374/74/776
f 172/118/777 162/97/777 415/116/777
f 416/116/778 360/97/778 370/118/778
