# Blender 5.0.0
# www.blender.org
o body
v 0.496492 -0.836496 9.739406
v 0.583336 -0.739345 11.010344
v 0.476577 0.278155 9.806664
v 0.565221 0.486406 11.046056
v 0.246627 0.341088 9.710775
v -0.000000 0.369678 9.656094
v -0.000000 0.658669 11.179701
v 0.340386 0.599495 11.135186
v 0.631619 0.554539 10.804723
v 0.646511 0.545035 10.445831
v 0.576865 0.424383 10.074052
v 0.562963 -0.631520 9.653309
v 0.591550 -0.317049 9.624606
v 0.550611 0.022595 9.695703
v 0.654626 0.225672 11.125390
v 0.703310 -0.145583 11.158285
v 0.665741 -0.502555 11.104441
v 0.654036 -0.830153 10.757441
v 0.671875 -0.892060 10.384764
v 0.600616 -0.885222 10.005269
v -0.000000 -0.970372 9.573511
v 0.267098 -0.925011 9.632571
v 0.358752 -0.817453 11.098147
v -0.000000 -0.856363 11.143335
v -0.000000 0.674132 10.027332
v -0.000000 0.858995 10.446028
v -0.000000 0.860968 10.851722
v 0.290903 0.614872 10.053285
v 0.337850 0.778810 10.449304
v 0.344425 0.778266 10.832046
v 0.749642 0.108478 10.033736
v 0.841644 0.194318 10.431158
v 0.811618 0.221481 10.816854
v 0.812126 -0.260919 9.990581
v 0.912852 -0.205322 10.411372
v 0.878665 -0.167071 10.822592
v 0.764291 -0.610046 9.993262
v 0.857600 -0.587271 10.395087
v 0.825386 -0.539852 10.789221
v 0.317045 -1.052687 9.969211
v 0.365526 -1.074153 10.253472
v 0.369003 -0.996871 10.776897
v -0.000000 -1.112858 9.991391
v -0.000000 -1.133464 10.248544
v -0.000000 -1.050111 10.796495
v -0.000000 0.004889 9.389916
v 0.255090 0.002209 9.475415
v -0.000000 -0.369840 9.274504
v 0.272938 -0.355472 9.373652
v -0.000000 -0.709899 9.340399
v 0.266506 -0.681006 9.428084
v 0.373244 0.271111 11.311998
v -0.000000 0.302962 11.375854
v 0.399412 -0.129139 11.364622
v -0.000000 -0.120306 11.434352
v 0.383312 -0.515705 11.292963
v -0.000000 -0.530811 11.357531
v -0.000000 -1.256591 10.059652
v 0.899103 0.129189 10.420503
v 0.964296 0.059744 10.441588
v 0.972883 0.157159 10.238144
v 1.038076 0.087714 10.259230
v 0.910948 0.053346 9.995003
v 0.976141 -0.016099 10.016088
v 0.775233 -0.078438 9.934217
v 0.840426 -0.147883 9.955303
v 0.701452 -0.106409 10.116576
v 0.766645 -0.175854 10.137662
v 0.763387 -0.002595 10.359718
v 0.828580 -0.072040 10.380804
v 0.000000 0.608116 6.803164
v -0.000044 0.615621 8.952076
v 0.504716 0.474077 6.617547
v 0.828603 0.474941 8.711576
v 0.598099 0.170520 6.575245
v 0.958572 0.153079 8.843224
v 0.495931 -0.119329 6.537102
v 0.866807 -0.082520 8.608921
v -0.000000 -0.261991 6.664259
v 0.000046 -0.518098 8.638256
v -0.000000 0.657830 7.436223
v 0.570473 0.566267 7.486819
v 0.767003 0.262649 7.482361
v 0.571976 -0.187735 7.446178
v -0.000000 -0.421472 7.436223
v 0.000172 0.705638 8.525261
v 0.703747 0.737786 8.369255
v 0.718558 0.557466 8.117926
v 0.697318 0.192454 8.082704
v 0.000474 -0.487060 8.307459
v -0.000000 0.515979 9.122499
v 0.439945 0.379047 9.093833
v 0.633971 0.087991 9.067033
v 0.435110 -0.214404 9.058715
v -0.000000 -0.334730 8.914883
v 0.958142 0.149459 8.854838
v 0.710218 0.434355 8.856922
v 0.738425 -0.249310 8.877056
v 0.614287 0.666722 8.160631
v 0.622165 -0.169678 8.168995
v 0.716525 0.514530 8.094510
v 1.568441 1.350635 7.292211
v 1.659582 1.206852 7.222735
v 1.563794 1.007355 7.129621
v 1.164474 1.426579 7.153956
v 1.097276 1.315155 7.028941
v 1.161230 1.086275 6.985568
v 1.945185 1.829361 5.909490
v 2.010604 1.693894 5.860446
v 1.943154 1.538160 5.821792
v 1.639176 1.853306 5.836268
v 1.585649 1.732867 5.752440
v 1.637696 1.563258 5.745190
v 1.971247 1.920018 5.855021
v 2.060307 1.708854 5.850611
v 1.988831 1.458670 5.734260
v 1.817264 1.960090 5.708263
v 1.787555 1.783033 5.641085
v 1.816069 1.472807 5.549506
v 2.245011 2.116770 5.476146
v 2.301643 1.865197 5.389038
v 2.243385 1.559477 5.296991
v 2.084433 2.102073 5.289083
v 2.054723 1.925016 5.221905
v 2.083237 1.614790 5.130327
v 2.184870 2.219587 4.898236
v 2.196077 2.059652 4.805418
v 2.184937 1.832840 4.774416
v 2.094474 2.130255 4.933011
v 2.068184 2.036345 4.879538
v 2.093803 1.813615 4.829288
v 1.576285 1.754146 5.533963
v 1.607773 1.605509 5.537964
v 1.771216 1.780366 5.488010
v 1.791621 1.512785 5.415637
v 1.629030 1.773590 5.315515
v 1.654831 1.651798 5.318793
v 1.788757 1.795075 5.277862
v 1.805476 1.575821 5.218559
v 1.704787 1.793745 5.086041
v 1.715627 1.705806 5.091667
v 1.822592 1.800237 5.085253
v 1.831815 1.643126 5.045353
v -0.000000 0.404502 9.253041
v 0.158780 0.287954 9.224646
v 0.252719 0.101461 9.161125
v 0.182110 -0.006843 9.161125
v -0.000000 -0.116119 9.123097
v 1.513457 0.934774 7.212452
v 1.609217 1.125453 7.335997
v 1.078577 1.287091 7.083365
v 1.131938 1.047436 7.031220
v 1.519667 1.276057 7.408086
v 1.135871 1.386458 7.229635
v 1.698690 1.266112 7.116154
v 1.610076 1.412197 7.174353
v 1.199386 1.456142 7.062999
v 1.127148 1.331084 6.957554
v 1.197586 1.104531 6.940104
v 1.606353 1.059488 7.051885
v 0.508211 -0.793894 4.143101
v 0.519509 0.412684 5.087372
v 0.863355 -0.973652 4.243133
v 1.026829 0.157703 5.382752
v 0.863355 -1.187172 4.399728
v 1.028275 -0.284179 5.624281
v 0.508191 -1.362228 4.515393
v 0.513592 -0.552143 5.652370
v 0.152952 -1.188018 4.403785
v 0.144936 -0.226851 5.472680
v 0.153066 -0.950355 4.258382
v 0.512164 0.637697 5.344144
v 1.018175 0.302197 5.553199
v 1.020134 -0.167143 5.766470
v 0.515757 -0.485191 5.723132
v 0.136937 -0.153116 5.520077
v -0.000000 0.793834 5.529867
v 0.418974 0.759048 5.551569
v 0.879472 0.485949 6.062190
v 0.876436 0.000564 6.074015
v 0.449171 -0.320575 5.898755
v 0.134332 -0.071374 5.582576
v -0.000000 0.841277 5.643133
v 0.430883 -0.964873 1.970318
v 0.691278 -1.115209 1.969445
v 0.691278 -1.415881 1.967697
v 0.430883 -1.566231 1.966821
v 0.170489 -1.415969 1.967683
v 0.170489 -1.115209 1.969445
v 0.822906 -1.337843 3.743564
v 0.822906 -1.091084 3.732851
v 0.152560 -1.133108 3.736462
v 0.152560 -1.381210 3.748122
v 0.487733 -0.871367 3.753107
v 0.487733 -1.547589 4.118567
v -0.000000 -0.038960 5.625290
v -0.000000 -0.224791 5.743424
v -0.000000 -0.274719 5.994527
v -0.000000 0.818090 6.209502
v -0.000000 0.848971 5.886748
v 0.713104 0.436351 6.378865
v 0.709689 -0.051564 6.308788
v -0.000000 -0.234169 6.334044
v 0.000000 0.628045 6.554161
v 0.430883 -1.155050 0.345701
v 0.625712 -1.268306 0.330713
v 0.625712 -1.496850 0.331826
v 0.430883 -1.609423 0.332961
v 0.236056 -1.495972 0.333988
v 0.236056 -1.268473 0.330616
v 0.856043 -1.063668 4.195297
v 0.152881 -1.293522 4.296773
v 0.504509 -0.852195 4.128406
v 0.856043 -1.270877 4.290486
v 0.152975 -1.048588 4.204552
v 0.504493 -1.417305 4.446348
v 0.847217 -1.347171 4.146366
v 0.152864 -1.099575 4.101163
v 0.500029 -1.477106 4.357447
v 0.847217 -1.098580 4.094059
v 0.152796 -1.353208 4.155695
v 0.500041 -0.906488 4.067354
v -0.000000 0.330200 9.893943
v 0.182652 0.209765 9.893943
v 0.252719 0.101462 9.893943
v 0.182110 -0.006843 9.893943
v -0.000000 -0.127185 9.838869
v -0.496493 -0.836496 9.739406
v -0.583336 -0.739345 11.010344
v -0.476577 0.278155 9.806664
v -0.565221 0.486406 11.046056
v -0.246627 0.341088 9.710775
v -0.340386 0.599495 11.135186
v -0.631619 0.554539 10.804723
v -0.646511 0.545035 10.445831
v -0.576865 0.424383 10.074052
v -0.562963 -0.631520 9.653309
v -0.591550 -0.317049 9.624606
v -0.550611 0.022595 9.695703
v -0.654626 0.225672 11.125390
v -0.703310 -0.145583 11.158285
v -0.665741 -0.502555 11.104441
v -0.654036 -0.830153 10.757441
v -0.671875 -0.892060 10.384764
v -0.600616 -0.885222 10.005269
v -0.267098 -0.925011 9.632571
v -0.358752 -0.817453 11.098147
v -0.290903 0.614872 10.053285
v -0.337850 0.778810 10.449304
v -0.344425 0.778266 10.832046
v -0.749642 0.108478 10.033736
v -0.841644 0.194318 10.431158
v -0.811618 0.221481 10.816854
v -0.812126 -0.260919 9.990581
v -0.912852 -0.205322 10.411372
v -0.878665 -0.167071 10.822592
v -0.764291 -0.610046 9.993262
v -0.857600 -0.587271 10.395087
v -0.825386 -0.539852 10.789221
v -0.317045 -1.052687 9.969211
v -0.365526 -1.074153 10.253472
v -0.369003 -0.996871 10.776897
v -0.255090 0.002209 9.475415
v -0.272938 -0.355472 9.373652
v -0.266506 -0.681006 9.428084
v -0.373244 0.271111 11.311998
v -0.399412 -0.129139 11.364622
v -0.383312 -0.515705 11.292963
v -0.899103 0.129189 10.420503
v -0.964296 0.059744 10.441588
v -0.972883 0.157159 10.238144
v -1.038076 0.087714 10.259230
v -0.910948 0.053346 9.995003
v -0.976141 -0.016099 10.016088
v -0.775233 -0.078438 9.934217
v -0.840426 -0.147883 9.955303
v -0.701452 -0.106409 10.116576
v -0.766645 -0.175854 10.137662
v -0.763387 -0.002595 10.359718
v -0.828580 -0.072040 10.380804
v -0.504526 0.476275 6.683345
v -0.822640 0.217224 8.531531
v -0.598793 0.169840 6.640642
v -0.956864 0.097187 8.859125
v -0.495657 -0.141146 6.594254
v -0.863616 -0.237732 8.852106
v -0.567921 0.458501 7.443809
v -0.761896 0.038964 7.457943
v -0.569734 -0.299790 7.464993
v -0.690069 0.190297 8.101965
v -0.702106 -0.120471 8.048054
v -0.684318 -0.392960 8.265327
v -0.440474 0.409592 9.070377
v -0.634106 0.101726 9.072936
v -0.435362 -0.201410 9.084345
v -0.956593 0.102903 8.868938
v -0.708807 0.387072 8.726948
v -0.738406 -0.254895 8.981860
v -0.607180 0.387876 8.001312
v -0.616850 -0.387074 8.286341
v -0.701619 -0.099495 8.032655
v -1.529842 -0.326927 6.937440
v -1.620744 -0.469471 7.007239
v -1.525077 -0.667199 7.103503
v -1.125774 -0.388410 6.791113
v -1.059003 -0.557041 6.797615
v -1.122424 -0.732056 6.949845
v -1.961921 -1.129521 5.741575
v -2.027397 -1.248381 5.822948
v -1.959417 -1.374352 5.921976
v -1.659558 -1.181249 5.667564
v -1.607847 -1.321842 5.711804
v -1.657760 -1.428078 5.845037
v -1.991480 -1.118078 5.637363
v -2.077668 -1.246054 5.806877
v -2.007544 -1.490912 5.934804
v -1.844258 -1.215214 5.511884
v -1.814859 -1.375860 5.612250
v -1.842763 -1.634454 5.806648
v -2.283373 -1.296392 5.262922
v -2.340009 -1.515545 5.414081
v -2.281306 -1.773942 5.601471
v -2.130455 -1.458773 5.156892
v -2.101057 -1.619419 5.257258
v -2.128961 -1.878012 5.451656
v -2.248569 -1.698444 4.832444
v -2.261346 -1.868323 4.905230
v -2.248307 -2.029416 5.067737
v -2.155569 -1.726425 4.921489
v -2.130189 -1.826160 4.963659
v -2.154727 -1.999296 5.112697
v -1.607801 -1.484058 5.563619
v -1.637006 -1.569223 5.686070
v -1.804811 -1.500297 5.522136
v -1.824422 -1.718153 5.693622
v -1.669780 -1.645824 5.419152
v -1.693710 -1.715608 5.519488
v -1.831209 -1.659129 5.385161
v -1.847278 -1.837639 5.525676
v -1.755212 -1.815415 5.268343
v -1.764575 -1.863388 5.342461
v -1.873030 -1.809258 5.266914
v -1.881681 -1.935165 5.369058
v -0.158780 0.287954 9.224646
v -0.252719 0.101461 9.161125
v -0.182110 -0.006843 9.161125
v -1.479292 -0.655042 7.206640
v -1.575057 -0.438680 7.137224
v -1.040174 -0.529052 6.857903
v -1.094565 -0.721878 7.008783
v -1.485416 -0.287290 7.068076
v -1.098542 -0.353081 6.874736
v -1.659143 -0.510730 6.902905
v -1.570452 -0.377688 6.819892
v -1.163495 -0.447742 6.705302
v -1.093532 -0.609111 6.739027
v -1.161256 -0.757433 6.910867
v -1.566384 -0.689181 7.024189
v -0.508053 0.902059 3.982095
v -0.519459 0.922585 5.383974
v -0.866564 0.723736 3.907220
v -1.031588 0.613738 5.534982
v -0.866565 0.475027 3.844761
v -1.033048 0.139194 5.356722
v -0.508034 0.276765 3.772935
v -0.513486 -0.078044 5.172402
v -0.149428 0.466472 3.835138
v -0.141336 0.138956 5.302491
v -0.149543 0.711556 3.923426
v -0.512044 0.919381 5.672221
v -1.022851 0.560685 5.723645
v -1.024830 0.078828 5.545496
v -0.515671 -0.128785 5.293360
v -0.133260 0.084981 5.408113
v -0.417971 0.897637 5.832928
v -0.882834 0.479070 6.141383
v -0.879769 -0.052637 6.005220
v -0.448454 -0.226406 5.587587
v -0.130631 0.026327 5.553191
v -0.429993 2.730303 3.095630
v -0.658826 2.687238 2.970728
v -0.658826 2.601107 2.720928
v -0.429993 2.558041 2.596027
v -0.201160 2.601107 2.720928
v -0.201160 2.687238 2.970728
v -0.825732 0.929178 3.370263
v -0.825732 1.022491 3.602906
v -0.149032 1.004990 3.564090
v -0.149032 0.910099 3.330793
v -0.487382 1.076921 3.818189
v -0.487382 0.502215 3.310736
v -0.714889 0.434918 6.444108
v -0.711441 -0.104619 6.337056
v -0.429993 4.204136 2.346246
v -0.608103 4.219386 2.248681
v -0.608103 4.294429 2.025257
v -0.429993 4.327946 1.927477
v -0.251884 4.279936 2.031554
v -0.251884 4.220132 2.247477
v -0.859183 0.653032 3.785663
v -0.149356 0.466253 3.646913
v -0.504316 0.807922 3.927964
v -0.859183 0.495752 3.684866
v -0.149450 0.653687 3.802639
v -0.504300 0.295523 3.660436
v -0.850273 0.554914 3.514471
v -0.149339 0.689643 3.713655
v -0.499794 0.330990 3.528899
v -0.850273 0.693622 3.712187
v -0.149270 0.544434 3.512254
v -0.499806 0.794957 3.870501
v -0.182652 0.209765 9.893943
v -0.252719 0.101462 9.893943
v -0.182110 -0.006843 9.893943
v 0.213411 0.498223 5.308737
v -0.199640 0.746124 5.399389
vn 0.2171 0.8930 -0.3943
vn 0.2309 0.9730 -0.0026
vn 0.2282 0.8287 0.5111
vn 0.5934 0.7171 0.3657
vn 0.6038 0.7971 0.0039
vn 0.5368 0.7678 -0.3497
vn 0.4335 0.6757 -0.5962
vn 0.2244 0.7535 -0.6180
vn 0.9488 0.1900 -0.2522
vn 0.9829 0.1719 0.0657
vn 0.9669 -0.1341 -0.2169
vn 0.9843 -0.1466 0.0981
vn 0.7198 0.4412 -0.5359
vn 0.8218 0.4872 -0.2955
vn 0.8739 0.4848 0.0339
vn 0.8176 0.4547 0.3533
vn 0.8793 0.1584 0.4492
vn 0.8717 -0.1659 0.4611
vn 0.7717 -0.4987 0.3948
vn 0.8452 -0.5193 0.1267
vn 0.8441 -0.5094 -0.1677
vn 0.7852 -0.4383 -0.4373
vn 0.8572 -0.1236 -0.4999
vn 0.8229 0.2097 -0.5281
vn 1.0000 -0.0000 -0.0000
vn 0.1564 -0.9765 0.1485
vn 0.4800 -0.7943 -0.3725
vn 0.5169 -0.8425 -0.1518
vn 0.4664 -0.8756 0.1262
vn 0.4808 -0.7739 0.4123
vn 0.1500 -0.8611 0.4857
vn 0.2261 -0.9220 -0.3144
vn 0.3148 0.2794 -0.9071
vn 0.3250 -0.1799 -0.9284
vn 0.2669 0.5681 -0.7785
vn 0.4934 0.5045 -0.7086
vn 0.5804 0.2495 -0.7751
vn 0.6137 -0.1420 -0.7766
vn 0.5175 -0.5489 -0.6564
vn 0.3026 -0.6356 -0.7102
vn 0.1733 0.1395 0.9749
vn 0.1703 -0.1865 0.9676
vn 0.5492 0.4099 0.7283
vn 0.1876 0.4801 0.8569
vn 0.1601 -0.5446 0.8233
vn 0.5064 -0.4648 0.7263
vn 0.5518 -0.1809 0.8141
vn 0.5611 0.1458 0.8148
vn 0.6237 0.6944 0.3588
vn 0.7220 0.5506 -0.4190
vn 0.3616 0.0569 -0.9306
vn -0.6237 -0.6944 -0.3589
vn 0.6532 -0.7421 0.1505
vn -0.7220 -0.5506 0.4190
vn -0.3616 -0.0569 0.9306
vn -0.6532 0.7421 -0.1505
vn 0.2256 0.9330 0.2803
vn 0.4383 -0.8949 -0.0834
vn 0.2530 -0.9629 -0.0936
vn 0.9423 -0.3186 -0.1028
vn 0.9464 0.3056 -0.1040
vn 0.2137 0.9696 -0.1190
vn 0.3783 -0.9257 -0.0031
vn 0.8841 -0.4020 0.2383
vn 0.8309 0.5398 -0.1345
vn 0.1700 0.9730 -0.1561
vn 0.4523 0.3877 0.8032
vn 0.2763 0.8171 0.5060
vn 0.4583 -0.3242 0.8276
vn 0.0478 -0.8326 0.5519
vn 0.7356 0.6385 0.2263
vn 0.8721 -0.4737 0.1229
vn 0.3326 0.8027 0.4950
vn 0.8615 -0.2797 -0.4237
vn 0.9979 -0.0604 0.0241
vn 0.6190 0.6234 -0.4778
vn 0.8871 -0.4568 0.0662
vn -0.8174 -0.0573 -0.5732
vn 0.0051 0.8827 0.4699
vn 0.8254 0.2481 0.5071
vn -0.8474 0.5307 -0.0175
vn 0.0724 -0.7715 -0.6321
vn 0.8559 0.3790 0.3518
vn -0.8553 0.4924 -0.1613
vn 0.0135 -0.9331 -0.3594
vn 0.9066 -0.4136 0.0843
vn -0.8772 -0.2407 -0.4155
vn 0.0166 0.9495 0.3134
vn 0.2808 -0.3440 0.8960
vn -0.9522 -0.2955 0.0772
vn -0.0741 0.8141 0.5760
vn 0.6376 0.2537 0.7274
vn -0.4882 0.6342 -0.5995
vn -0.5087 -0.7527 0.4181
vn 0.8147 -0.0173 0.5797
vn -0.8463 0.3072 -0.4353
vn 0.0996 -0.9807 -0.1681
vn 0.8864 -0.2799 0.3687
vn -0.8522 0.0746 -0.5179
vn -0.2655 0.9519 0.1532
vn -0.9945 -0.0679 -0.0797
vn -0.6951 0.7179 0.0372
vn 0.9694 0.2385 -0.0585
vn -0.9681 0.2470 0.0422
vn 0.1937 -0.8602 -0.4717
vn 0.9824 -0.0229 -0.1853
vn -0.9466 -0.2072 -0.2470
vn -0.1859 0.9771 0.1031
vn 0.9866 0.1224 -0.1074
vn -0.5248 -0.8372 -0.1542
vn -0.5513 -0.7459 -0.3737
vn -0.5762 -0.7658 -0.2855
vn 0.9949 0.0524 0.0867
vn -0.1193 0.9911 0.0594
vn -0.2542 0.2240 -0.9409
vn 0.9844 0.0281 0.1737
vn -0.1223 0.9914 0.0467
vn -0.9321 -0.2055 -0.2984
vn 0.2516 -0.1640 0.9538
vn 0.2158 0.5204 0.8262
vn -0.0486 -0.6889 0.7233
vn 0.2414 0.0718 0.9678
vn -0.5155 0.1409 -0.8452
vn -0.6227 0.3596 -0.6949
vn 0.2188 -0.8341 -0.5063
vn -0.8817 0.4711 0.0254
vn 0.8037 0.2117 0.5562
vn 0.0169 0.8662 0.4994
vn -0.9435 0.0858 -0.3202
vn 0.8906 -0.4442 0.0979
vn 0.0639 0.9416 0.3306
vn -0.7598 -0.0903 -0.6438
vn 0.8984 -0.4297 0.0907
vn 0.0537 -0.8427 -0.5358
vn -0.7732 0.6055 -0.1884
vn 0.8347 0.3087 0.4561
vn 0.4703 0.5412 -0.6971
vn 0.9942 -0.0637 -0.0869
vn 0.5084 -0.7024 0.4981
vn -0.5028 -0.7029 0.5032
vn -0.6927 -0.4416 0.5701
vn 0.9954 0.0905 0.0317
vn -1.0000 -0.0027 -0.0051
vn 0.9972 -0.0032 -0.0744
vn -0.9868 -0.1494 0.0626
vn 0.9990 0.0238 0.0376
vn 0.6131 0.6177 -0.4925
vn 0.3862 -0.6759 0.6277
vn -0.5467 0.3008 0.7814
vn 0.3315 -0.6224 0.7091
vn 0.6021 0.7892 -0.1209
vn 0.0972 0.8775 -0.4697
vn -0.6952 -0.4505 0.5602
vn 0.9249 0.1605 0.3447
vn -0.9992 -0.0006 -0.0401
vn -0.9999 -0.0005 -0.0101
vn 0.5446 0.8364 -0.0612
vn 0.5000 -0.8660 0.0010
vn -0.5000 0.8660 0.0037
vn -0.4621 -0.8866 0.0199
vn -0.4601 -0.8449 0.2730
vn -0.6117 0.7878 -0.0719
vn 0.4893 -0.8707 -0.0497
vn 0.5499 0.8322 0.0715
vn -1.0000 0.0004 0.0006
vn 0.9977 -0.0029 -0.0672
vn -0.1860 -0.9821 0.0310
vn -0.3696 -0.4985 -0.7841
vn -0.1403 -0.9711 -0.1931
vn -0.2987 0.0193 -0.9541
vn 0.2784 0.9561 0.0915
vn 0.3815 0.8614 0.3353
vn 0.2514 -0.9611 0.1148
vn 0.8143 0.0090 0.5804
vn 0.0002 -0.0067 -1.0000
vn 0.4998 -0.8658 0.0228
vn 0.4972 0.8618 -0.1009
vn -0.4947 0.8632 -0.1005
vn -0.5030 -0.8640 0.0228
vn 0.9992 0.0002 -0.0400
vn 0.9960 -0.0375 -0.0817
vn -1.0000 0.0006 0.0001
vn 0.3055 0.2144 -0.9277
vn 0.5125 -0.6978 0.5004
vn -0.4447 0.4307 -0.7853
vn -0.5002 -0.6637 0.5562
vn 0.9966 -0.0170 -0.0810
vn -1.0000 0.0005 0.0004
vn 0.4154 0.6644 -0.6213
vn 0.5164 -0.7695 0.3757
vn -0.4765 0.7887 -0.3884
vn -0.4703 -0.7211 0.5087
vn 0.2798 0.9555 0.0932
vn 0.2563 -0.9632 -0.0812
vn 0.7566 0.1439 0.6378
vn 0.8931 0.4499 -0.0000
vn 0.8377 -0.5461 -0.0000
vn 0.5488 0.8323 0.0777
vn 0.5165 -0.8562 -0.0132
vn -0.2171 0.8930 -0.3943
vn -0.2332 0.9724 -0.0047
vn -0.2282 0.8287 0.5111
vn -0.5362 0.7239 0.4341
vn -0.6140 0.7893 -0.0094
vn -0.5575 0.7416 -0.3731
vn -0.4335 0.6757 -0.5962
vn -0.2244 0.7535 -0.6180
vn -0.9486 0.1818 -0.2589
vn -0.9832 0.1706 0.0645
vn -0.9679 -0.1309 -0.2144
vn -0.9842 -0.1492 0.0957
vn -0.7191 0.4598 -0.5211
vn -0.8258 0.4724 -0.3080
vn -0.8791 0.4760 0.0239
vn -0.8176 0.4547 0.3533
vn -0.8813 0.1551 0.4463
vn -0.8704 -0.1617 0.4650
vn -0.7756 -0.4470 0.4457
vn -0.8474 -0.5145 0.1312
vn -0.8444 -0.5089 -0.1672
vn -0.7852 -0.4383 -0.4373
vn -0.8583 -0.1214 -0.4987
vn -0.8209 0.2013 -0.5345
vn -0.1488 -0.9784 0.1435
vn -0.5095 -0.7887 -0.3441
vn -0.5440 -0.8308 -0.1171
vn -0.5063 -0.8464 0.1648
vn -0.4808 -0.7739 0.4123
vn -0.1500 -0.8611 0.4857
vn -0.1482 -0.9172 -0.3698
vn -0.3082 0.2745 -0.9109
vn -0.3445 -0.1614 -0.9248
vn -0.2408 0.5577 -0.7943
vn -0.4461 0.4620 -0.7665
vn -0.5707 0.2336 -0.7872
vn -0.6232 -0.1271 -0.7717
vn -0.5828 -0.4680 -0.6643
vn -0.3026 -0.6356 -0.7102
vn -0.1783 0.1347 0.9747
vn -0.1652 -0.1814 0.9694
vn -0.5146 0.4458 0.7324
vn -0.1947 0.4737 0.8589
vn -0.1601 -0.5446 0.8233
vn -0.5064 -0.4648 0.7263
vn -0.5466 -0.1746 0.8190
vn -0.5630 0.1438 0.8139
vn -0.6237 0.6944 0.3588
vn -0.7220 0.5506 -0.4190
vn -0.3616 0.0569 -0.9306
vn 0.6237 -0.6944 -0.3588
vn -0.6532 -0.7421 0.1505
vn 0.7220 -0.5506 0.4190
vn 0.3616 -0.0569 0.9306
vn 0.6532 0.7421 -0.1505
vn -0.3561 0.9144 0.1927
vn -0.2776 -0.9515 0.1323
vn -0.2067 -0.9593 -0.1924
vn -0.8411 -0.4822 -0.2451
vn -0.9504 0.3024 -0.0722
vn -0.3311 0.9407 -0.0739
vn -0.2130 -0.9702 -0.1153
vn -0.8692 -0.4937 -0.0278
vn -0.9078 0.4193 -0.0108
vn -0.4363 0.8989 -0.0394
vn -0.3982 0.6636 0.6333
vn -0.3629 0.9045 0.2242
vn -0.5338 -0.0593 0.8435
vn -0.0398 -0.8327 0.5523
vn -0.7766 0.6236 -0.0897
vn -0.9463 -0.2673 0.1818
vn -0.6504 0.7187 -0.2458
vn 0.0043 -0.9664 0.2570
vn 0.4968 -0.5210 -0.6941
vn -0.9992 0.0357 0.0171
vn -0.8730 -0.2525 0.4173
vn 0.8250 -0.4738 -0.3081
vn 0.0150 0.9554 -0.2950
vn -0.8302 0.5450 0.1170
vn 0.8517 0.3220 -0.4134
vn -0.0906 -0.9836 0.1561
vn -0.8475 0.5274 -0.0601
vn 0.8028 0.2334 -0.5487
vn 0.0056 -0.8476 0.5307
vn -0.8886 -0.1733 0.4246
vn 0.8630 -0.4973 -0.0891
vn -0.0195 0.8208 -0.5709
vn -0.2388 0.5172 0.8219
vn 0.9586 -0.1388 0.2484
vn 0.0864 0.9471 -0.3091
vn -0.2103 0.6285 0.7488
vn 0.4541 -0.1111 -0.8840
vn 0.1773 -0.3314 0.9267
vn -0.7720 0.6302 0.0832
vn 0.8232 -0.1848 -0.5369
vn -0.0926 -0.7202 0.6876
vn -0.8023 0.0793 0.5916
vn 0.8290 -0.3905 -0.4004
vn 0.1300 0.8520 -0.5071
vn 0.9912 -0.1289 -0.0292
vn 0.3104 0.7071 -0.6353
vn -0.9742 0.1201 -0.1909
vn 0.9813 0.0668 -0.1806
vn -0.2009 -0.8884 0.4128
vn -0.9796 -0.1978 0.0341
vn 0.9384 -0.3451 -0.0162
vn 0.1762 0.6639 -0.7267
vn -0.9919 0.0117 -0.1268
vn 0.5385 -0.5939 0.5977
vn 0.5878 -0.7211 0.3667
vn 0.5746 -0.7018 0.4211
vn -0.9911 0.1252 0.0458
vn 0.1077 0.6390 -0.7617
vn -0.0371 -0.8368 -0.5463
vn -0.9767 0.1800 0.1169
vn 0.1102 0.6289 -0.7696
vn 0.9218 -0.3848 -0.0478
vn -0.2240 -0.1104 0.9683
vn -0.2238 0.5240 0.8218
vn 0.0705 -0.6880 0.7223
vn -0.2227 0.1481 0.9636
vn 0.4944 -0.6063 -0.6229
vn 0.4591 -0.2443 -0.8541
vn -0.0156 -0.9678 0.2513
vn 0.9460 0.0195 -0.3235
vn -0.6612 0.7502 0.0039
vn -0.3427 0.9251 -0.1637
vn 0.9505 -0.1534 -0.2702
vn -0.8825 -0.2540 0.3959
vn -0.0707 0.8347 -0.5461
vn 0.7350 -0.5767 -0.3568
vn -0.8531 -0.1731 0.4922
vn 0.0545 -0.8608 0.5061
vn 0.7859 0.2901 -0.5461
vn -0.8313 0.5537 0.0481
vn -0.4425 0.8966 -0.0167
vn -0.9944 0.0399 -0.0981
vn -0.4458 -0.8622 -0.2406
vn 0.4855 -0.8479 -0.2131
vn 0.5576 -0.7690 -0.3125
vn 0.4834 0.8754 -0.0089
vn -0.3812 0.5530 -0.7408
vn -0.9956 0.0866 -0.0347
vn 0.9817 -0.1697 -0.0864
vn -0.9991 -0.0118 0.0397
vn -0.5114 0.8591 0.0227
vn -0.4643 -0.8137 -0.3497
vn 0.3897 -0.1625 0.9065
vn -0.4490 -0.8737 -0.1873
vn -0.5003 0.7694 0.3970
vn 0.2363 0.9716 -0.0069
vn 0.5339 -0.7805 -0.3252
vn -0.9568 -0.0974 0.2740
vn 0.9995 0.0284 -0.0098
vn 0.9996 0.0269 -0.0109
vn -0.5421 0.3522 0.7629
vn -0.4910 -0.2738 -0.8270
vn 0.6129 0.2985 0.7316
vn 0.4221 -0.3082 -0.8526
vn 0.4165 -0.7265 -0.5465
vn 0.4402 0.1450 0.8861
vn -0.4240 -0.7006 -0.5740
vn -0.4644 0.3103 0.8295
vn 1.0000 -0.0004 0.0006
vn -0.9980 0.0515 -0.0361
vn -0.1196 -0.9923 0.0313
vn 0.1939 -0.5263 -0.8279
vn 0.0711 -0.9783 -0.1945
vn 0.4899 0.0177 -0.8716
vn -0.3380 0.7720 0.5382
vn -0.3606 0.8733 0.3274
vn -0.2450 -0.9691 -0.0275
vn -0.8930 -0.1165 0.4347
vn -0.0009 0.9475 0.3197
vn -0.4997 -0.3163 -0.8064
vn -0.4964 0.3934 0.7738
vn 0.4964 0.3934 0.7738
vn 0.4997 -0.3161 -0.8065
vn -0.9995 0.0285 -0.0098
vn -0.9989 0.0112 -0.0447
vn 1.0000 0.0003 0.0004
vn -0.3028 0.8157 -0.4929
vn -0.5019 -0.8503 -0.1584
vn 0.3783 0.8349 -0.3997
vn 0.4811 -0.8672 -0.1286
vn -0.9987 0.0274 -0.0427
vn 1.0000 -0.0000 0.0006
vn -0.4929 0.7855 0.3742
vn -0.4893 -0.8377 -0.2426
vn 0.3372 0.9237 -0.1819
vn 0.4156 -0.8817 -0.2235
vn -0.2704 0.9601 0.0718
vn -0.1791 -0.9838 0.0105
vn -0.7554 0.1433 0.6394
vn -0.8931 0.4499 -0.0000
vn -0.8377 -0.5461 -0.0000
vn -0.5999 0.7948 0.0921
vn -0.5165 -0.8562 -0.0132
vn -0.7830 -0.1069 -0.6128
vn 0.9947 0.0995 -0.0252
vn -0.1449 0.5235 -0.8396
vn 0.0890 0.8838 -0.4593
vn 0.2158 0.8929 -0.3952
vn 0.2332 0.9724 -0.0047
vn 0.2114 0.8407 0.4986
vn 0.5362 0.7239 0.4341
vn 0.6140 0.7893 -0.0094
vn 0.5575 0.7416 -0.3731
vn 0.4895 0.6746 -0.5525
vn 0.2088 0.7506 -0.6269
vn 0.9486 0.1818 -0.2589
vn 0.9832 0.1706 0.0645
vn 0.9679 -0.1309 -0.2144
vn 0.9842 -0.1492 0.0957
vn 0.7191 0.4598 -0.5211
vn 0.8258 0.4724 -0.3080
vn 0.8791 0.4760 0.0239
vn 0.8171 0.4050 0.4103
vn 0.8813 0.1551 0.4463
vn 0.8704 -0.1617 0.4650
vn 0.7756 -0.4470 0.4457
vn 0.8474 -0.5145 0.1312
vn 0.8444 -0.5089 -0.1672
vn 0.7820 -0.4824 -0.3947
vn 0.8583 -0.1214 -0.4987
vn 0.8209 0.2013 -0.5345
vn 0.1806 -0.9804 -0.0786
vn 0.1607 -0.9818 -0.1015
vn 0.1488 -0.9784 0.1435
vn 0.5095 -0.7887 -0.3441
vn 0.5440 -0.8308 -0.1171
vn 0.5063 -0.8464 0.1648
vn 0.4448 -0.7758 0.4475
vn 0.1542 -0.8626 0.4818
vn 0.1482 -0.9172 -0.3698
vn 0.3082 0.2745 -0.9109
vn 0.3445 -0.1614 -0.9248
vn 0.2408 0.5577 -0.7943
vn 0.4461 0.4620 -0.7665
vn 0.5707 0.2336 -0.7872
vn 0.6232 -0.1271 -0.7717
vn 0.5828 -0.4680 -0.6643
vn 0.2683 -0.6184 -0.7387
vn 0.1783 0.1347 0.9747
vn 0.1652 -0.1814 0.9694
vn 0.5146 0.4458 0.7324
vn 0.1947 0.4737 0.8589
vn 0.1626 -0.5423 0.8243
vn 0.4611 -0.5075 0.7279
vn 0.5466 -0.1746 0.8190
vn 0.5630 0.1438 0.8139
vn -0.6237 -0.6944 -0.3588
vn 0.2673 0.9428 0.1990
vn 0.3841 -0.9084 -0.1652
vn 0.3744 -0.9081 -0.1876
vn 0.9135 -0.3851 -0.1310
vn 0.8199 0.5338 -0.2069
vn 0.1647 0.9833 -0.0772
vn 0.4417 -0.8946 -0.0676
vn 0.9875 -0.1433 -0.0650
vn 0.7772 0.6019 -0.1836
vn 0.0372 0.9983 -0.0438
vn 0.5859 0.3221 0.7436
vn 0.2887 0.8265 0.4832
vn 0.5627 -0.2665 0.7825
vn 0.1714 -0.8743 0.4542
vn 0.5989 0.4983 0.6269
vn 0.9491 -0.3089 -0.0611
vn -0.8889 0.3836 0.2505
vn 0.6102 -0.7699 -0.1868
vn -0.8785 0.0697 -0.4726
vn -0.9804 0.1280 -0.1496
vn 0.8645 -0.4941 0.0924
vn -0.8997 -0.1756 -0.3997
vn -0.0082 0.8424 0.5388
vn 0.8050 0.2504 0.5379
vn -0.8432 0.5366 -0.0342
vn 0.0689 -0.7812 -0.6205
vn 0.8918 0.3120 0.3278
vn -0.8176 0.5651 -0.1101
vn -0.0044 -0.9330 -0.3598
vn 0.9005 -0.4274 0.0803
vn -0.8742 -0.2505 -0.4161
vn -0.0006 0.9497 0.3131
vn 0.5223 -0.4777 0.7064
vn -0.9782 -0.2066 0.0218
vn -0.4984 0.5473 0.6724
vn 0.2525 -0.2193 0.9424
vn -0.6769 0.3577 -0.6433
vn -0.1520 -0.9426 0.2972
vn 0.7897 0.3222 0.5220
vn 0.0041 -0.9479 -0.3185
vn 0.8248 -0.4145 0.3846
vn -0.1272 0.9149 0.3832
vn -0.9926 -0.0982 -0.0710
vn -0.3155 0.9280 0.1979
vn 0.9811 0.1439 -0.1295
vn -0.9852 0.1707 -0.0143
vn -0.1567 -0.8216 -0.5481
vn 0.9751 -0.1322 -0.1782
vn -0.1340 0.9910 -0.0030
vn 0.9828 0.1143 -0.1454
vn -0.5311 -0.8420 -0.0950
vn -0.5918 -0.7341 -0.3330
vn -0.0031 -0.0642 -0.9979
vn 0.9874 0.0180 0.1572
vn -0.0549 0.9983 0.0171
vn -0.9371 -0.1361 -0.3213
vn 0.2299 -0.1775 0.9569
vn 0.5591 0.6305 0.5384
vn 0.0462 -0.3961 0.9170
vn 0.4420 -0.0816 0.8933
vn -0.5312 0.1278 -0.8375
vn -0.4954 0.5304 -0.6880
vn 0.0598 -0.7864 -0.6148
vn -0.9456 0.2354 -0.2246
vn 0.6317 0.4981 0.5940
vn 0.1386 0.8093 0.5708
vn -0.9099 -0.1159 -0.3984
vn 0.8766 -0.4777 0.0579
vn -0.0281 0.8901 0.4550
vn -0.8754 -0.2398 -0.4198
vn 0.8628 -0.4834 0.1482
vn -0.0373 -0.9167 -0.3979
vn -0.7924 0.6002 -0.1090
vn 0.8235 0.3104 0.4748
vn 0.6097 0.5171 -0.6008
vn 0.9943 -0.0484 -0.0946
vn 0.4210 -0.7562 0.5009
vn -0.7011 -0.5328 0.4739
vn -0.6964 -0.5106 0.5044
vn 1.0000 0.0023 -0.0050
vn -0.9951 0.0815 -0.0552
vn 0.9973 0.0004 -0.0739
vn -0.9788 -0.1431 0.1463
vn 0.9992 0.0197 0.0341
vn 0.6050 0.6073 -0.5149
vn 0.3899 -0.6999 0.5984
vn -0.5536 0.0237 0.8325
vn -0.6491 0.2493 0.7187
vn 0.2069 -0.0344 0.9778
vn 0.3337 -0.7533 0.5667
vn 0.5957 0.7806 -0.1891
vn 0.0961 0.9181 -0.3846
vn -0.7516 -0.5989 0.2764
vn 0.9649 0.0004 0.2628
vn -0.9992 0.0002 -0.0400
vn -0.9999 0.0001 -0.0101
vn 0.4993 0.8651 -0.0491
vn 0.5252 -0.8509 -0.0065
vn -0.6147 0.7885 -0.0218
vn -0.4997 -0.8661 0.0119
vn -0.4961 -0.8662 0.0598
vn -0.4741 0.8728 0.1161
vn 0.4604 -0.8576 0.2293
vn 0.4849 0.8744 -0.0145
vn -1.0000 -0.0000 0.0008
vn 0.9981 -0.0127 -0.0605
vn 0.0678 -0.7496 -0.6584
vn 0.1113 -0.5861 0.8026
vn 0.3716 0.9154 0.1545
vn 0.3338 0.8255 0.4552
vn 0.2996 -0.9541 0.0009
vn 0.8876 -0.0716 0.4551
vn 0.0002 0.1315 -0.9913
vn -0.0030 -0.0049 -1.0000
vn -0.0139 -0.0148 -0.9998
vn 0.5003 -0.8656 0.0229
vn 0.4942 0.8635 -0.1004
vn -0.4972 0.8618 -0.1009
vn -0.4996 -0.8660 0.0224
vn 0.9992 -0.0002 -0.0400
vn 0.9986 -0.0314 -0.0428
vn -1.0000 0.0006 0.0006
vn 0.4292 0.3964 -0.8116
vn 0.5078 -0.6865 0.5204
vn -0.3364 0.2502 -0.9079
vn -0.4815 -0.6240 0.6155
vn 0.9985 -0.0226 -0.0492
vn -1.0000 0.0005 0.0008
vn 0.5325 0.7848 -0.3171
vn 0.5079 -0.7264 0.4631
vn -0.4937 0.6675 -0.5575
vn -0.4854 -0.8051 0.3409
vn 0.2821 0.9563 0.0765
vn 0.2469 -0.9674 -0.0559
vn 0.7352 -0.3366 0.5884
vn 0.8986 -0.0685 0.4334
vn 0.8391 0.5429 0.0335
vn 0.5999 0.7948 0.0921
vn 0.5513 -0.8343 -0.0000
vn -0.2158 0.8929 -0.3952
vn -0.2309 0.9730 -0.0026
vn -0.2114 0.8407 0.4986
vn -0.5934 0.7171 0.3657
vn -0.6038 0.7971 0.0039
vn -0.5368 0.7678 -0.3497
vn -0.4895 0.6746 -0.5525
vn -0.2088 0.7506 -0.6269
vn -0.9488 0.1900 -0.2522
vn -0.9829 0.1719 0.0657
vn -0.9669 -0.1341 -0.2169
vn -0.9843 -0.1466 0.0981
vn -0.7198 0.4412 -0.5359
vn -0.8218 0.4872 -0.2955
vn -0.8739 0.4848 0.0339
vn -0.8171 0.4050 0.4103
vn -0.8793 0.1584 0.4492
vn -0.8717 -0.1659 0.4611
vn -0.7717 -0.4987 0.3948
vn -0.8452 -0.5193 0.1267
vn -0.8441 -0.5094 -0.1677
vn -0.7820 -0.4824 -0.3947
vn -0.8572 -0.1236 -0.4999
vn -0.8229 0.2097 -0.5281
vn -0.1607 -0.9818 -0.1015
vn -0.1806 -0.9804 -0.0786
vn -0.1564 -0.9765 0.1485
vn -0.4800 -0.7943 -0.3725
vn -0.5169 -0.8425 -0.1518
vn -0.4664 -0.8756 0.1262
vn -0.4448 -0.7758 0.4475
vn -0.1542 -0.8626 0.4818
vn -0.2261 -0.9220 -0.3144
vn -0.3148 0.2794 -0.9071
vn -0.3250 -0.1799 -0.9284
vn -0.2669 0.5681 -0.7785
vn -0.4934 0.5045 -0.7086
vn -0.5804 0.2495 -0.7751
vn -0.6137 -0.1420 -0.7766
vn -0.5175 -0.5489 -0.6564
vn -0.2683 -0.6184 -0.7387
vn -0.1733 0.1395 0.9749
vn -0.1703 -0.1865 0.9676
vn -0.5492 0.4099 0.7283
vn -0.1876 0.4801 0.8569
vn -0.1626 -0.5423 0.8243
vn -0.4611 -0.5075 0.7279
vn -0.5518 -0.1809 0.8141
vn -0.5611 0.1458 0.8148
vn -0.4229 0.9043 -0.0582
vn -0.1561 -0.9834 -0.0925
vn -0.2143 -0.9566 -0.1976
vn -0.9464 -0.2939 -0.1341
vn -0.9032 0.4138 -0.1140
vn -0.2532 0.9674 0.0015
vn -0.1570 -0.9848 -0.0741
vn -0.9306 -0.3546 -0.0911
vn -0.9689 0.1973 0.1492
vn -0.3285 0.9396 0.0959
vn -0.7160 0.4547 0.5296
vn -0.2591 0.8338 0.4875
vn -0.2917 -0.1557 0.9438
vn -0.0402 -0.8328 0.5521
vn -0.7883 0.5408 -0.2933
vn -0.7155 -0.2279 0.6603
vn -0.9362 0.3262 -0.1308
vn -0.2697 -0.9536 0.1341
vn 0.2873 -0.5846 -0.7587
vn -0.8828 0.1423 -0.4477
vn -0.8933 -0.2505 0.3733
vn 0.9074 -0.4098 -0.0931
vn -0.0007 0.9212 -0.3890
vn -0.8009 0.5812 0.1438
vn 0.8513 0.3211 -0.4149
vn -0.0787 -0.9755 0.2056
vn -0.8818 0.4712 -0.0212
vn 0.8407 0.1451 -0.5216
vn -0.0152 -0.8467 0.5318
vn -0.8964 -0.1584 0.4139
vn 0.8596 -0.5046 -0.0803
vn 0.0003 0.8202 -0.5720
vn -0.4860 0.2913 0.8240
vn 0.9810 -0.1305 0.1432
vn 0.5180 0.8537 -0.0532
vn -0.6106 0.7496 0.2555
vn 0.6447 -0.3167 -0.6958
vn 0.5360 -0.1295 0.8342
vn -0.7897 0.4733 0.3903
vn -0.0039 -0.8231 0.5679
vn -0.8664 0.1488 0.4766
vn 0.2582 0.6868 -0.6794
vn 0.9901 -0.1400 0.0004
vn 0.6859 0.4432 -0.5771
vn -0.9875 0.0068 -0.1574
vn 0.9655 0.1581 -0.2071
vn 0.1455 -0.9350 0.3235
vn -0.9888 -0.1378 -0.0573
vn 0.1198 0.5886 -0.7995
vn -0.9894 -0.0236 -0.1431
vn 0.5297 -0.6383 0.5586
vn 0.5459 -0.7598 0.3532
vn 0.1077 0.6389 -0.7617
vn 0.2120 -0.6244 -0.7518
vn -0.9802 0.1608 0.1152
vn 0.0415 0.6111 -0.7905
vn 0.9249 -0.3617 -0.1172
vn -0.1964 -0.1280 0.9721
vn -0.5591 0.6305 0.5384
vn -0.0147 -0.3504 0.9365
vn -0.4951 -0.0461 0.8676
vn 0.4782 -0.6042 -0.6374
vn 0.5884 -0.3554 -0.7262
vn -0.0323 -0.9643 0.2630
vn 0.8747 0.3246 -0.3599
vn -0.8104 0.5594 0.1742
vn -0.0403 0.9185 -0.3933
vn 0.9206 -0.3660 -0.1359
vn -0.8800 -0.2625 0.3958
vn 0.0420 0.9119 -0.4083
vn 0.8693 -0.4880 -0.0786
vn -0.8946 -0.1901 0.4044
vn -0.0754 -0.9501 0.3026
vn 0.7572 0.1982 -0.6224
vn -0.8101 0.5824 0.0678
vn -0.5152 0.8571 0.0057
vn -0.9943 0.0260 -0.1037
vn -0.5052 -0.8361 -0.2139
vn 0.5426 -0.8192 -0.1858
vn 0.5356 -0.7347 -0.4164
vn 0.4686 0.8834 -0.0048
vn -0.4667 0.5478 -0.6944
vn -0.9957 0.0877 -0.0302
vn 0.9838 -0.1653 0.0693
vn -0.9990 -0.0118 0.0429
vn -0.5392 0.8039 0.2510
vn -0.4693 -0.8468 -0.2504
vn 0.5908 -0.0634 0.8043
vn 0.5213 -0.2089 0.8274
vn 0.4830 -0.5106 0.7113
vn -0.4592 -0.8818 -0.1073
vn -0.5043 0.7999 0.3253
vn -0.0510 0.9212 -0.3858
vn 0.5523 -0.7453 -0.3735
vn -0.9497 -0.0828 0.3021
vn 0.9994 0.0341 0.0094
vn 0.9996 0.0276 -0.0095
vn -0.4987 0.3510 0.7926
vn -0.5000 -0.2697 -0.8230
vn 0.4999 0.3018 0.8118
vn 0.5000 -0.2801 -0.8195
vn 0.5077 -0.3832 -0.7716
vn 0.6100 0.3391 0.7162
vn -0.5005 -0.2825 -0.8184
vn -0.5484 0.1758 0.8175
vn 1.0000 -0.0008 0.0003
vn -0.9975 0.0657 -0.0263
vn 0.2899 -0.4775 -0.8294
vn -0.2402 -0.9589 0.1509
vn 0.1031 0.9902 0.0947
vn -0.2969 0.8362 0.4611
vn -0.1774 -0.9772 0.1167
vn -0.8762 -0.0992 0.4716
vn -0.0015 0.9876 0.1572
vn 0.1032 0.9586 0.2655
vn -0.0036 0.9480 0.3184
vn -0.4081 -0.3226 -0.8540
vn -0.4139 0.3992 0.8181
vn 0.4170 0.3991 0.8166
vn 0.4114 -0.3221 -0.8526
vn -0.9993 0.0347 0.0117
vn -0.9935 0.0616 -0.0962
vn 1.0000 -0.0002 0.0009
vn 0.1265 0.4983 -0.8578
vn -0.4939 -0.8591 -0.1342
vn -0.0909 0.4937 -0.8649
vn 0.4335 -0.9012 0.0012
vn -0.9931 0.0960 -0.0674
vn 1.0000 -0.0008 0.0009
vn -0.1732 0.9577 -0.2297
vn -0.5034 -0.8077 -0.3068
vn 0.4077 0.8465 0.3425
vn 0.4493 -0.7727 -0.4484
vn -0.2691 0.9600 0.0768
vn -0.2252 -0.9709 -0.0818
vn -0.9052 -0.0883 0.4157
vn -0.7451 -0.3333 0.5778
vn -0.8391 0.5429 0.0335
vn -0.5488 0.8323 0.0777
vn -0.5513 -0.8343 -0.0000
vn -0.9730 0.0405 -0.2272
vn 0.5393 0.0431 -0.8410
vn -0.2613 0.7222 -0.6404
vn 0.4832 0.8755 -0.0027
vt 0.500000 0.375000
vt 0.437500 0.437500
vt 0.437500 0.375000
vt 0.562500 0.437500
vt 0.500000 0.437500
vt 0.625000 0.375000
vt 0.562500 0.375000
vt 0.625000 0.500000
vt 0.562500 0.500000
vt 0.500000 0.500000
vt 0.437500 0.500000
vt 0.375000 0.500000
vt 0.375000 0.437500
vt 0.375000 0.375000
vt 0.437500 0.562500
vt 0.500000 0.625000
vt 0.437500 0.625000
vt 0.500000 0.562500
vt 0.562500 0.625000
vt 0.500000 0.687500
vt 0.437500 0.687500
vt 0.562500 0.687500
vt 0.375000 0.562500
vt 0.562500 0.562500
vt 0.625000 0.625000
vt 0.625000 0.687500
vt 0.625000 0.750000
vt 0.562500 0.750000
vt 0.500000 0.750000
vt 0.437500 0.750000
vt 0.375000 0.750000
vt 0.375000 0.687500
vt 0.375000 0.625000
vt 0.500000 0.875000
vt 0.468750 0.875000
vt 0.437500 0.875000
vt 0.500000 0.812500
vt 0.562500 0.875000
vt 0.437500 0.812500
vt 0.375000 0.812500
vt 0.562500 0.812500
vt 0.625000 0.812500
vt 0.375000 0.875000
vt 0.250000 0.562500
vt 0.312500 0.625000
vt 0.250000 0.625000
vt 0.312500 0.687500
vt 0.250000 0.687500
vt 0.250000 0.500000
vt 0.312500 0.562500
vt 0.312500 0.500000
vt 0.312500 0.750000
vt 0.250000 0.750000
vt 0.687500 0.562500
vt 0.750000 0.625000
vt 0.687500 0.625000
vt 0.750000 0.687500
vt 0.687500 0.687500
vt 0.625000 0.562500
vt 0.687500 0.500000
vt 0.750000 0.562500
vt 0.687500 0.750000
vt 1.000000 0.500000
vt 0.833333 1.000000
vt 0.833333 0.500000
vt 0.666667 1.000000
vt 0.666667 0.500000
vt 0.500000 1.000000
vt 0.500000 0.500000
vt 0.333333 0.500000
vt 0.042154 0.130000
vt 0.250000 0.010000
vt 0.457846 0.130000
vt 0.333333 1.000000
vt 0.166667 0.500000
vt 0.166667 1.000000
vt -0.000000 0.500000
vt 0.542154 0.130000
vt 0.542154 0.370000
vt 0.957846 0.370000
vt 1.000000 0.828637
vt 0.875000 1.000000
vt 0.875000 0.828637
vt 0.625000 0.828637
vt 0.500000 1.000000
vt 0.500000 0.828637
vt 0.625000 0.645722
vt 0.500000 0.500000
vt 0.750000 0.500000
vt 0.875000 0.645722
vt 0.875000 0.500000
vt 0.500000 0.645722
vt 0.750000 0.828637
vt 0.750000 0.645722
vt 1.000000 0.645722
vt 0.750000 1.000000
vt 1.000000 1.000000
vt 0.625000 1.000000
vt 0.749520 0.964446
vt 0.653402 0.965669
vt 0.844587 0.863513
vt 0.844268 0.965118
vt 0.647775 0.863148
vt 0.750840 0.864057
vt 0.749520 0.964446
vt 0.750840 0.864057
vt 0.647775 0.863149
vt 0.844587 0.863513
vt 0.844267 0.965117
vt 0.653402 0.965669
vt 0.749520 0.964446
vt 0.844268 0.965117
vt 0.750840 0.864057
vt 0.653402 0.965669
vt 0.844587 0.863513
vt 0.000000 0.000000
vt 0.833333 0.500000
vt -0.000000 1.000000
vt 0.500000 0.500000
vt 0.500000 0.500000
vt 0.166667 0.500000
vt -0.000000 0.500000
vt 0.833333 0.500000
vt 0.042154 0.370000
vt 0.457846 0.370000
vt 0.750000 0.010000
vt 0.333333 0.500000
vt 0.457846 0.250000
vt 0.625000 0.437500
vt 0.750000 0.500000
vt 0.957846 0.130000
vt 0.250000 0.490000
vt 0.625000 0.875000
vt 0.750000 0.750000
vt 0.250000 0.490000
vt 0.750000 0.490000
vt 0.750000 0.490000
s 0
f 26/1/1 28/2/1 25/3/1
f 26/1/2 30/4/2 29/5/2
f 7/6/3 30/4/3 27/7/3
f 30/4/4 4/8/4 9/9/4
f 29/5/5 9/9/5 10/10/5
f 28/2/6 10/10/6 11/11/6
f 28/2/7 3/12/7 5/13/7
f 25/3/8 5/13/8 6/14/8
f 31/15/9 35/16/9 34/17/9
f 32/18/10 36/19/10 35/16/10
f 34/17/11 38/20/11 37/21/11
f 35/16/12 39/22/12 38/20/12
f 3/12/13 31/15/13 14/23/13
f 11/11/14 32/18/14 31/15/14
f 10/10/15 33/24/15 32/18/15
f 4/8/16 33/24/16 9/9/16
f 33/24/17 16/25/17 36/19/17
f 36/19/18 17/26/18 39/22/18
f 39/22/19 2/27/19 18/28/19
f 38/20/20 18/28/20 19/29/20
f 37/21/21 19/29/21 20/30/21
f 37/21/22 1/31/22 12/32/22
f 13/33/23 37/21/23 12/32/23
f 14/23/24 34/17/24 13/33/24
f 44/34/25 58/35/25 43/36/25
f 41/37/26 45/38/26 44/34/26
f 1/31/27 40/39/27 22/40/27
f 20/30/28 41/37/28 40/39/28
f 19/29/29 42/41/29 41/37/29
f 2/27/30 42/41/30 18/28/30
f 23/42/31 45/38/31 42/41/31
f 22/40/32 43/36/32 21/43/32
f 46/44/33 49/45/33 48/46/33
f 48/46/34 51/47/34 50/48/34
f 6/49/35 47/50/35 46/44/35
f 5/51/36 14/23/36 47/50/36
f 47/50/37 13/33/37 49/45/37
f 49/45/38 12/32/38 51/47/38
f 51/47/39 1/31/39 22/52/39
f 51/47/40 21/53/40 50/48/40
f 52/54/41 55/55/41 54/56/41
f 54/56/42 57/57/42 56/58/42
f 4/8/43 52/54/43 15/59/43
f 8/60/44 53/61/44 52/54/44
f 57/57/45 23/62/45 56/58/45
f 56/58/46 2/27/46 17/26/46
f 16/25/47 56/58/47 17/26/47
f 15/59/48 54/56/48 16/25/48
f 59/63/49 62/64/49 61/65/49
f 61/65/50 64/66/50 63/67/50
f 63/67/51 66/68/51 65/69/51
f 66/68/52 67/70/52 65/69/52
f 68/71/53 66/72/53 64/73/53
f 68/74/54 69/75/54 67/70/54
f 70/76/55 59/77/55 69/75/55
f 67/78/56 69/79/56 61/80/56
f 86/81/57 97/82/57 99/83/57
f 100/84/58 80/85/58 90/86/58
f 84/87/59 79/88/59 77/8/59
f 75/89/60 84/87/60 77/8/60
f 82/90/61 75/89/61 73/91/61
f 71/63/62 82/90/62 73/91/62
f 100/84/63 85/92/63 84/87/63
f 101/93/64 84/87/64 83/94/64
f 99/83/65 83/94/65 82/90/65
f 81/95/66 99/83/66 82/90/66
f 97/82/67 93/96/67 96/96/67
f 72/97/68 92/82/68 97/82/68
f 98/98/69 93/96/69 94/98/69
f 80/85/70 94/98/70 95/85/70
f 76/99/71 97/82/71 96/96/71
f 78/100/72 96/96/72 98/98/72
f 87/101/73 97/82/73 74/102/73
f 78/100/74 100/84/74 89/103/74
f 89/103/75 101/93/75 88/104/75
f 87/101/76 101/93/76 99/83/76
f 150/105/77 104/100/77 103/99/77
f 151/106/78 107/103/78 152/107/78
f 154/108/79 102/102/79 105/101/79
f 150/105/80 102/102/80 153/109/80
f 151/106/81 105/101/81 106/104/81
f 152/107/82 104/100/82 149/110/82
f 155/111/83 108/102/83 156/112/83
f 158/113/84 111/101/84 112/104/84
f 160/114/85 113/103/85 110/100/85
f 155/111/86 110/100/86 109/99/86
f 158/113/87 113/103/87 159/107/87
f 156/112/88 111/101/88 157/115/88
f 110/100/89 115/99/89 109/99/89
f 112/104/90 133/103/90 113/103/90
f 108/102/91 117/101/91 111/101/91
f 108/102/92 115/99/92 114/102/92
f 111/101/93 118/104/93 112/104/93
f 110/100/94 119/103/94 116/100/94
f 114/102/95 121/99/95 120/102/95
f 117/101/96 124/104/96 118/104/96
f 119/103/97 122/100/97 116/100/97
f 115/99/98 122/100/98 121/99/98
f 119/103/99 124/104/99 125/103/99
f 117/101/100 120/102/100 123/101/100
f 124/104/101 131/103/101 125/103/101
f 123/101/102 126/102/102 129/101/102
f 121/99/103 126/102/103 120/102/103
f 124/104/104 129/101/104 130/104/104
f 125/103/105 128/100/105 122/100/105
f 121/99/106 128/100/106 127/99/106
f 132/104/107 137/103/107 133/103/107
f 118/104/108 132/104/108 112/104/108
f 119/103/109 134/104/109 118/104/109
f 119/103/110 133/103/110 135/103/110
f 139/103/111 141/103/111 143/103/111
f 135/103/112 137/103/112 139/103/112
f 135/103/113 138/104/113 134/104/113
f 134/104/114 136/104/114 132/104/114
f 141/103/115 142/104/115 143/103/115
f 139/103/116 142/104/116 138/104/116
f 138/104/117 140/104/117 136/104/117
f 136/104/118 141/103/118 137/103/118
f 94/98/119 146/96/119 147/98/119
f 91/97/120 145/82/120 92/82/120
f 94/98/121 148/85/121 95/85/121
f 92/82/122 146/96/122 93/96/122
f 128/100/123 130/104/123 127/99/123
f 127/99/124 129/101/124 126/102/124
f 89/103/125 149/110/125 78/100/125
f 88/104/126 154/108/126 151/106/126
f 74/102/127 150/105/127 153/109/127
f 87/101/128 153/109/128 154/108/128
f 88/104/129 152/107/129 89/103/129
f 78/100/130 150/105/130 76/99/130
f 102/102/131 157/115/131 105/101/131
f 106/104/132 159/107/132 107/103/132
f 103/99/133 160/114/133 155/111/133
f 104/100/134 159/107/134 160/114/134
f 106/104/135 157/115/135 158/113/135
f 103/99/136 156/112/136 102/102/136
f 162/97/137 163/65/137 161/63/137
f 163/65/138 166/66/138 165/67/138
f 165/67/139 168/68/139 167/69/139
f 168/68/140 169/70/140 167/69/140
f 170/74/141 175/68/141 176/74/141
f 368/74/142 369/75/142 416/116/142
f 170/74/143 171/75/143 169/70/143
f 190/67/144 185/65/144 191/117/144
f 177/76/145 182/74/145 183/76/145
f 164/64/146 174/66/146 166/66/146
f 164/64/147 172/97/147 173/64/147
f 166/66/148 175/68/148 168/68/148
f 182/71/149 181/72/149 180/73/149
f 174/66/150 181/68/150 175/68/150
f 173/64/151 178/97/151 179/64/151
f 177/76/152 178/118/152 172/118/152
f 175/68/153 182/74/153 176/74/153
f 173/64/154 180/66/154 174/66/154
f 188/70/155 210/75/155 209/70/155
f 192/75/156 188/70/156 193/70/156
f 191/117/157 184/63/157 194/63/157
f 190/67/158 187/69/158 186/67/158
f 192/75/159 184/77/159 189/75/159
f 193/70/160 187/69/160 195/119/160
f 221/70/161 195/119/161 219/120/161
f 218/121/162 194/122/162 192/75/162
f 217/67/163 195/119/163 190/67/163
f 222/63/164 191/117/164 194/63/164
f 218/121/165 193/70/165 221/70/165
f 220/123/166 190/67/166 191/117/166
f 183/76/167 178/118/167 200/116/167
f 182/116/168 197/116/168 196/116/168
f 181/116/169 198/116/169 197/116/169
f 196/116/170 183/124/170 182/71/170
f 199/116/171 178/116/171 200/116/171
f 199/116/172 201/116/172 179/116/172
f 198/116/173 202/116/173 203/116/173
f 179/125/174 202/73/174 180/73/174
f 206/80/175 208/126/175 210/79/175
f 187/69/176 207/67/176 186/67/176
f 185/65/177 205/63/177 184/63/177
f 189/75/178 205/77/178 210/75/178
f 187/69/179 209/70/179 208/69/179
f 186/67/180 206/65/180 185/65/180
f 163/65/181 214/67/181 211/123/181
f 171/75/182 212/127/182 169/70/182
f 161/63/183 211/123/183 213/63/183
f 165/67/184 216/69/184 214/67/184
f 161/77/185 215/121/185 171/75/185
f 169/70/186 216/69/186 167/69/186
f 211/123/187 217/67/187 220/123/187
f 215/121/188 221/70/188 212/127/188
f 213/63/189 220/123/189 222/63/189
f 214/67/190 219/120/190 217/67/190
f 215/121/191 222/77/191 218/121/191
f 212/127/192 219/120/192 216/69/192
f 204/116/193 73/116/193 201/116/193
f 203/116/194 77/116/194 79/116/194
f 201/125/195 73/125/195 75/128/195
f 145/82/196 225/96/196 146/96/196
f 146/96/197 226/98/197 147/98/197
f 145/82/198 223/97/198 224/82/198
f 147/98/199 227/85/199 148/85/199
f 248/2/200 26/1/200 25/3/200
f 26/1/201 250/4/201 27/7/201
f 250/4/202 7/6/202 27/7/202
f 250/4/203 231/8/203 233/129/203
f 249/5/204 234/9/204 250/4/204
f 248/2/205 235/10/205 249/5/205
f 230/12/206 248/2/206 232/13/206
f 232/13/207 25/3/207 6/14/207
f 251/15/208 255/16/208 252/18/208
f 252/18/209 256/19/209 253/24/209
f 254/17/210 258/20/210 255/16/210
f 255/16/211 259/22/211 256/19/211
f 230/12/212 251/15/212 236/11/212
f 236/11/213 252/18/213 235/10/213
f 235/10/214 253/24/214 234/9/214
f 253/24/215 231/8/215 234/9/215
f 253/24/216 241/25/216 240/59/216
f 256/19/217 242/26/217 241/25/217
f 259/22/218 229/27/218 242/26/218
f 258/20/219 243/28/219 259/22/219
f 257/21/220 244/29/220 258/20/220
f 228/31/221 257/21/221 237/32/221
f 238/33/222 257/21/222 254/17/222
f 239/23/223 254/17/223 251/15/223
f 261/37/224 45/38/224 262/41/224
f 228/31/225 260/39/225 245/30/225
f 245/30/226 261/37/226 244/29/226
f 244/29/227 262/41/227 243/28/227
f 262/41/228 229/27/228 243/28/228
f 45/38/229 247/42/229 262/41/229
f 246/40/230 43/36/230 260/39/230
f 46/44/231 264/45/231 263/50/231
f 48/46/232 265/47/232 264/45/232
f 6/49/233 263/50/233 232/51/233
f 232/51/234 239/23/234 230/12/234
f 263/50/235 238/33/235 239/23/235
f 264/45/236 237/32/236 238/33/236
f 265/47/237 228/31/237 237/32/237
f 21/53/238 265/47/238 50/48/238
f 266/54/239 55/55/239 53/61/239
f 267/56/240 57/57/240 55/55/240
f 231/8/241 266/54/241 233/60/241
f 233/60/242 53/61/242 7/130/242
f 247/62/243 57/57/243 268/58/243
f 229/27/244 268/58/244 242/26/244
f 241/25/245 268/58/245 267/56/245
f 240/59/246 267/56/246 266/54/246
f 269/63/247 272/64/247 270/97/247
f 271/65/248 274/66/248 272/64/248
f 273/67/249 276/68/249 274/66/249
f 277/70/250 276/68/250 275/69/250
f 278/71/251 280/124/251 274/73/251
f 279/75/252 278/74/252 277/70/252
f 269/77/253 280/76/253 279/75/253
f 271/80/254 277/78/254 273/131/254
f 86/81/255 297/82/255 72/97/255
f 300/84/256 80/85/256 298/98/256
f 79/88/257 289/87/257 285/8/257
f 283/89/258 289/87/258 288/94/258
f 283/89/259 287/90/259 281/91/259
f 71/63/260 287/90/260 81/95/260
f 85/92/261 300/84/261 289/87/261
f 289/87/262 301/93/262 288/94/262
f 288/94/263 299/83/263 287/90/263
f 81/95/264 299/83/264 86/81/264
f 294/96/265 297/82/265 296/96/265
f 293/82/266 72/97/266 297/82/266
f 298/98/267 294/96/267 296/96/267
f 80/85/268 295/98/268 298/98/268
f 284/99/269 297/82/269 282/102/269
f 286/100/270 296/96/270 284/99/270
f 297/82/271 290/101/271 282/102/271
f 300/84/272 286/100/272 292/103/272
f 301/93/273 292/103/273 291/104/273
f 290/101/274 301/93/274 291/104/274
f 348/105/275 304/100/275 347/110/275
f 307/103/276 349/106/276 350/107/276
f 352/108/277 302/102/277 351/109/277
f 302/102/278 348/105/278 351/109/278
f 349/106/279 305/101/279 352/108/279
f 304/100/280 350/107/280 347/110/280
f 308/102/281 353/111/281 354/112/281
f 356/113/282 311/101/282 355/115/282
f 358/114/283 313/103/283 357/107/283
f 353/111/284 310/100/284 358/114/284
f 313/103/285 356/113/285 357/107/285
f 311/101/286 354/112/286 355/115/286
f 315/99/287 310/100/287 309/99/287
f 333/103/288 312/104/288 313/103/288
f 317/101/289 308/102/289 311/101/289
f 308/102/290 315/99/290 309/99/290
f 318/104/291 311/101/291 312/104/291
f 310/100/292 319/103/292 313/103/292
f 314/102/293 321/99/293 315/99/293
f 324/104/294 317/101/294 318/104/294
f 322/100/295 319/103/295 316/100/295
f 315/99/296 322/100/296 316/100/296
f 319/103/297 324/104/297 318/104/297
f 317/101/298 320/102/298 314/102/298
f 331/103/299 324/104/299 325/103/299
f 323/101/300 326/102/300 320/102/300
f 326/102/301 321/99/301 320/102/301
f 324/104/302 329/101/302 323/101/302
f 328/100/303 325/103/303 322/100/303
f 321/99/304 328/100/304 322/100/304
f 337/103/305 332/104/305 333/103/305
f 332/104/306 318/104/306 312/104/306
f 334/104/307 319/103/307 318/104/307
f 319/103/308 333/103/308 313/103/308
f 339/103/309 341/103/309 337/103/309
f 335/103/310 337/103/310 333/103/310
f 338/104/311 335/103/311 334/104/311
f 336/104/312 334/104/312 332/104/312
f 341/103/313 342/104/313 340/104/313
f 342/104/314 339/103/314 338/104/314
f 340/104/315 338/104/315 336/104/315
f 341/103/316 336/104/316 337/103/316
f 295/98/317 345/96/317 294/96/317
f 344/82/318 91/97/318 293/82/318
f 148/85/319 295/98/319 95/85/319
f 345/96/320 293/82/320 294/96/320
f 328/100/321 330/104/321 331/103/321
f 327/99/322 329/101/322 330/104/322
f 347/110/323 292/103/323 286/100/323
f 291/104/324 352/108/324 290/101/324
f 282/102/325 348/105/325 284/99/325
f 290/101/326 351/109/326 282/102/326
f 350/107/327 291/104/327 292/103/327
f 348/105/328 286/100/328 284/99/328
f 355/115/329 302/102/329 305/101/329
f 357/107/330 306/104/330 307/103/330
f 303/99/331 358/114/331 304/100/331
f 304/100/332 357/107/332 307/103/332
f 306/104/333 355/115/333 305/101/333
f 354/112/334 303/99/334 302/102/334
f 361/65/335 360/97/335 359/63/335
f 361/65/336 364/66/336 362/64/336
f 363/67/337 366/68/337 364/66/337
f 367/70/338 366/68/338 365/69/338
f 368/74/339 373/68/339 366/68/339
f 416/116/340 359/63/340 360/97/340
f 162/97/341 171/75/341 415/116/341
f 381/65/342 386/67/342 387/117/342
f 177/76/343 379/74/343 374/74/343
f 372/66/344 362/64/344 364/66/344
f 362/64/345 370/97/345 360/97/345
f 373/68/346 364/66/346 366/68/346
f 379/71/347 183/124/347 375/132/347
f 378/68/348 372/66/348 373/68/348
f 371/64/349 375/97/349 370/97/349
f 375/118/350 177/76/350 370/118/350
f 379/74/351 373/68/351 374/74/351
f 377/66/352 371/64/352 372/66/352
f 384/70/353 399/75/353 385/75/353
f 384/70/354 388/75/354 389/70/354
f 380/63/355 387/117/355 390/63/355
f 386/67/356 383/69/356 391/119/356
f 388/75/357 380/77/357 390/122/357
f 383/69/358 389/70/358 391/119/358
f 391/119/359 410/70/359 408/120/359
f 407/121/360 390/122/360 411/77/360
f 406/67/361 391/119/361 408/120/361
f 411/63/362 387/117/362 409/123/362
f 389/70/363 407/121/363 410/70/363
f 409/123/364 386/67/364 406/67/364
f 183/76/365 200/116/365 375/118/365
f 197/116/366 379/116/366 196/116/366
f 198/116/367 378/116/367 197/116/367
f 196/116/368 379/71/368 183/124/368
f 199/116/369 375/116/369 376/116/369
f 392/116/370 199/116/370 376/116/370
f 198/116/371 393/116/371 377/116/371
f 393/73/372 376/125/372 377/73/372
f 399/79/373 397/126/373 395/80/373
f 396/67/374 383/69/374 382/67/374
f 394/63/375 381/65/375 380/63/375
f 385/75/376 394/77/376 380/77/376
f 383/69/377 398/70/377 384/70/377
f 395/65/378 382/67/378 381/65/378
f 361/65/379 403/67/379 363/67/379
f 401/127/380 369/75/380 367/70/380
f 359/63/381 400/123/381 361/65/381
f 363/67/382 405/69/382 365/69/382
f 404/121/383 359/77/383 369/75/383
f 405/69/384 367/70/384 365/69/384
f 400/123/385 406/67/385 403/67/385
f 410/70/386 404/121/386 401/127/386
f 402/63/387 409/123/387 400/123/387
f 403/67/388 408/120/388 405/69/388
f 404/121/389 411/77/389 402/77/389
f 408/120/390 401/127/390 405/69/390
f 281/116/391 204/116/391 392/116/391
f 203/116/392 285/116/392 393/116/392
f 283/128/393 281/125/393 392/125/393
f 413/96/394 344/82/394 345/96/394
f 414/98/395 345/96/395 346/98/395
f 344/82/396 223/97/396 144/97/396
f 227/85/397 346/98/397 148/85/397
f 415/116/398 176/74/398 177/76/398
f 416/116/399 374/74/399 368/74/399
f 172/118/400 415/116/400 177/76/400
f 416/116/401 370/118/401 177/76/401
f 26/1/402 29/5/402 28/2/402
f 26/1/403 27/7/403 30/4/403
f 7/6/404 8/129/404 30/4/404
f 30/4/405 8/129/405 4/8/405
f 29/5/406 30/4/406 9/9/406
f 28/2/407 29/5/407 10/10/407
f 28/2/408 11/11/408 3/12/408
f 25/3/409 28/2/409 5/13/409
f 31/15/410 32/18/410 35/16/410
f 32/18/411 33/24/411 36/19/411
f 34/17/412 35/16/412 38/20/412
f 35/16/413 36/19/413 39/22/413
f 3/12/414 11/11/414 31/15/414
f 11/11/415 10/10/415 32/18/415
f 10/10/416 9/9/416 33/24/416
f 4/8/417 15/59/417 33/24/417
f 33/24/418 15/59/418 16/25/418
f 36/19/419 16/25/419 17/26/419
f 39/22/420 17/26/420 2/27/420
f 38/20/421 39/22/421 18/28/421
f 37/21/422 38/20/422 19/29/422
f 37/21/423 20/30/423 1/31/423
f 13/33/424 34/17/424 37/21/424
f 14/23/425 31/15/425 34/17/425
f 43/36/426 40/39/426 44/34/426
f 40/39/427 41/37/427 44/34/427
f 41/37/428 42/41/428 45/38/428
f 1/31/429 20/30/429 40/39/429
f 20/30/430 19/29/430 41/37/430
f 19/29/431 18/28/431 42/41/431
f 2/27/432 23/42/432 42/41/432
f 23/42/433 24/133/433 45/38/433
f 22/40/434 40/39/434 43/36/434
f 46/44/435 47/50/435 49/45/435
f 48/46/436 49/45/436 51/47/436
f 6/49/437 5/51/437 47/50/437
f 5/51/438 3/12/438 14/23/438
f 47/50/439 14/23/439 13/33/439
f 49/45/440 13/33/440 12/32/440
f 51/47/441 12/32/441 1/31/441
f 51/47/442 22/52/442 21/53/442
f 52/54/443 53/61/443 55/55/443
f 54/56/444 55/55/444 57/57/444
f 4/8/445 8/60/445 52/54/445
f 8/60/446 7/130/446 53/61/446
f 57/57/447 24/134/447 23/62/447
f 56/58/448 23/62/448 2/27/448
f 16/25/449 54/56/449 56/58/449
f 15/59/450 52/54/450 54/56/450
f 59/63/49 60/97/49 62/64/49
f 61/65/50 62/64/50 64/66/50
f 63/67/51 64/66/51 66/68/51
f 66/68/451 68/74/451 67/70/451
f 64/73/53 62/125/53 68/71/53
f 62/125/53 60/135/53 70/124/53
f 68/71/53 62/125/53 70/124/53
f 68/74/54 70/76/54 69/75/54
f 70/76/55 60/118/55 59/77/55
f 69/79/56 59/136/56 61/80/56
f 61/80/56 63/131/56 67/78/56
f 63/131/56 65/126/56 67/78/56
f 86/81/452 72/97/452 97/82/452
f 100/84/453 98/98/453 80/85/453
f 84/87/454 85/92/454 79/88/454
f 75/89/455 83/94/455 84/87/455
f 82/90/456 83/94/456 75/89/456
f 71/63/457 81/95/457 82/90/457
f 100/84/458 90/86/458 85/92/458
f 101/93/459 100/84/459 84/87/459
f 99/83/460 101/93/460 83/94/460
f 81/95/461 86/81/461 99/83/461
f 97/82/462 92/82/462 93/96/462
f 72/97/463 91/97/463 92/82/463
f 98/98/464 96/96/464 93/96/464
f 80/85/465 98/98/465 94/98/465
f 76/99/466 74/102/466 97/82/466
f 78/100/467 76/99/467 96/96/467
f 87/101/468 99/83/468 97/82/468
f 78/100/469 98/98/469 100/84/469
f 89/103/470 100/84/470 101/93/470
f 87/101/471 88/104/471 101/93/471
f 150/105/472 149/110/472 104/100/472
f 151/106/473 106/104/473 107/103/473
f 154/108/474 153/109/474 102/102/474
f 150/105/475 103/99/475 102/102/475
f 151/106/476 154/108/476 105/101/476
f 152/107/477 107/103/477 104/100/477
f 155/111/478 109/99/478 108/102/478
f 158/113/479 157/115/479 111/101/479
f 160/114/480 159/107/480 113/103/480
f 155/111/481 160/114/481 110/100/481
f 158/113/482 112/104/482 113/103/482
f 156/112/483 108/102/483 111/101/483
f 110/100/484 116/100/484 115/99/484
f 112/104/485 132/104/485 133/103/485
f 108/102/486 114/102/486 117/101/486
f 108/102/487 109/99/487 115/99/487
f 111/101/488 117/101/488 118/104/488
f 110/100/489 113/103/489 119/103/489
f 114/102/490 115/99/490 121/99/490
f 117/101/96 123/101/96 124/104/96
f 119/103/491 125/103/491 122/100/491
f 115/99/492 116/100/492 122/100/492
f 119/103/99 118/104/99 124/104/99
f 117/101/493 114/102/493 120/102/493
f 124/104/494 130/104/494 131/103/494
f 123/101/495 120/102/495 126/102/495
f 121/99/496 127/99/496 126/102/496
f 124/104/497 123/101/497 129/101/497
f 125/103/498 131/103/498 128/100/498
f 121/99/499 122/100/499 128/100/499
f 132/104/107 136/104/107 137/103/107
f 118/104/500 134/104/500 132/104/500
f 119/103/501 135/103/501 134/104/501
f 119/103/502 113/103/502 133/103/502
f 139/103/503 137/103/503 141/103/503
f 135/103/112 133/103/112 137/103/112
f 135/103/113 139/103/113 138/104/113
f 134/104/114 138/104/114 136/104/114
f 141/103/504 140/104/504 142/104/504
f 139/103/505 143/103/505 142/104/505
f 138/104/506 142/104/506 140/104/506
f 136/104/507 140/104/507 141/103/507
f 94/98/508 93/96/508 146/96/508
f 91/97/509 144/97/509 145/82/509
f 94/98/510 147/98/510 148/85/510
f 92/82/511 145/82/511 146/96/511
f 128/100/512 131/103/512 130/104/512
f 127/99/513 130/104/513 129/101/513
f 89/103/514 152/107/514 149/110/514
f 88/104/515 87/101/515 154/108/515
f 74/102/516 76/99/516 150/105/516
f 87/101/517 74/102/517 153/109/517
f 88/104/518 151/106/518 152/107/518
f 78/100/519 149/110/519 150/105/519
f 102/102/520 156/112/520 157/115/520
f 106/104/521 158/113/521 159/107/521
f 103/99/522 104/100/522 160/114/522
f 104/100/523 107/103/523 159/107/523
f 106/104/524 105/101/524 157/115/524
f 103/99/525 155/111/525 156/112/525
f 162/97/526 164/64/526 163/65/526
f 163/65/527 164/64/527 166/66/527
f 165/67/528 166/66/528 168/68/528
f 168/68/529 170/74/529 169/70/529
f 170/74/530 168/68/530 175/68/530
f 368/74/531 367/70/531 369/75/531
f 170/74/532 415/116/532 171/75/532
f 190/67/533 186/67/533 185/65/533
f 177/76/534 176/74/534 182/74/534
f 164/64/535 173/64/535 174/66/535
f 164/64/536 162/97/536 172/97/536
f 166/66/537 174/66/537 175/68/537
f 180/73/538 179/125/538 182/71/538
f 179/125/539 178/132/539 182/71/539
f 178/132/540 183/124/540 182/71/540
f 174/66/541 180/66/541 181/68/541
f 173/64/542 172/97/542 178/97/542
f 177/76/543 183/76/543 178/118/543
f 175/68/544 181/68/544 182/74/544
f 173/64/545 179/64/545 180/66/545
f 188/70/546 189/75/546 210/75/546
f 192/75/547 189/75/547 188/70/547
f 191/117/548 185/65/548 184/63/548
f 190/67/549 195/119/549 187/69/549
f 192/75/550 194/122/550 184/77/550
f 193/70/551 188/70/551 187/69/551
f 221/70/552 193/70/552 195/119/552
f 218/121/553 222/77/553 194/122/553
f 217/67/554 219/120/554 195/119/554
f 222/63/555 220/123/555 191/117/555
f 218/121/556 192/75/556 193/70/556
f 220/123/557 217/67/557 190/67/557
f 182/116/558 181/116/558 197/116/558
f 181/116/559 180/116/559 198/116/559
f 199/116/560 179/116/560 178/116/560
f 199/116/561 204/116/561 201/116/561
f 198/116/562 180/116/562 202/116/562
f 179/125/563 201/125/563 202/73/563
f 210/79/564 205/137/564 206/80/564
f 206/80/565 207/131/565 208/126/565
f 208/126/566 209/78/566 210/79/566
f 187/69/567 208/69/567 207/67/567
f 185/65/568 206/65/568 205/63/568
f 189/75/569 184/77/569 205/77/569
f 187/69/570 188/70/570 209/70/570
f 186/67/571 207/67/571 206/65/571
f 163/65/572 165/67/572 214/67/572
f 171/75/573 215/121/573 212/127/573
f 161/63/574 163/65/574 211/123/574
f 165/67/575 167/69/575 216/69/575
f 161/77/576 213/77/576 215/121/576
f 169/70/577 212/127/577 216/69/577
f 211/123/578 214/67/578 217/67/578
f 215/121/579 218/121/579 221/70/579
f 213/63/580 211/123/580 220/123/580
f 214/67/581 216/69/581 219/120/581
f 215/121/582 213/77/582 222/77/582
f 212/127/583 221/70/583 219/120/583
f 204/116/584 71/116/584 73/116/584
f 203/116/585 202/116/585 77/116/585
f 77/73/586 202/73/586 75/128/586
f 202/73/587 201/125/587 75/128/587
f 145/82/588 224/82/588 225/96/588
f 146/96/197 225/96/197 226/98/197
f 145/82/589 144/97/589 223/97/589
f 147/98/590 226/98/590 227/85/590
f 248/2/591 249/5/591 26/1/591
f 26/1/592 249/5/592 250/4/592
f 250/4/593 233/129/593 7/6/593
f 250/4/594 234/9/594 231/8/594
f 249/5/595 235/10/595 234/9/595
f 248/2/596 236/11/596 235/10/596
f 230/12/597 236/11/597 248/2/597
f 232/13/598 248/2/598 25/3/598
f 251/15/599 254/17/599 255/16/599
f 252/18/600 255/16/600 256/19/600
f 254/17/601 257/21/601 258/20/601
f 255/16/602 258/20/602 259/22/602
f 230/12/603 239/23/603 251/15/603
f 236/11/604 251/15/604 252/18/604
f 235/10/605 252/18/605 253/24/605
f 253/24/606 240/59/606 231/8/606
f 253/24/607 256/19/607 241/25/607
f 256/19/608 259/22/608 242/26/608
f 259/22/609 243/28/609 229/27/609
f 258/20/610 244/29/610 243/28/610
f 257/21/611 245/30/611 244/29/611
f 228/31/612 245/30/612 257/21/612
f 238/33/613 237/32/613 257/21/613
f 239/23/614 238/33/614 254/17/614
f 261/37/615 260/39/615 44/34/615
f 260/39/616 43/36/616 44/34/616
f 261/37/617 44/34/617 45/38/617
f 228/31/618 246/40/618 260/39/618
f 245/30/619 260/39/619 261/37/619
f 244/29/620 261/37/620 262/41/620
f 262/41/621 247/42/621 229/27/621
f 45/38/622 24/133/622 247/42/622
f 246/40/623 21/43/623 43/36/623
f 46/44/624 48/46/624 264/45/624
f 48/46/625 50/48/625 265/47/625
f 6/49/626 46/44/626 263/50/626
f 232/51/627 263/50/627 239/23/627
f 263/50/628 264/45/628 238/33/628
f 264/45/629 265/47/629 237/32/629
f 265/47/630 246/52/630 228/31/630
f 21/53/631 246/52/631 265/47/631
f 266/54/632 267/56/632 55/55/632
f 267/56/633 268/58/633 57/57/633
f 231/8/634 240/59/634 266/54/634
f 233/60/635 266/54/635 53/61/635
f 247/62/636 24/134/636 57/57/636
f 229/27/637 247/62/637 268/58/637
f 241/25/638 242/26/638 268/58/638
f 240/59/639 241/25/639 267/56/639
f 269/63/247 271/65/247 272/64/247
f 271/65/248 273/67/248 274/66/248
f 273/67/249 275/69/249 276/68/249
f 277/70/250 278/74/250 276/68/250
f 270/135/251 272/125/251 280/124/251
f 272/125/251 274/73/251 280/124/251
f 274/73/251 276/72/251 278/71/251
f 279/75/252 280/76/252 278/74/252
f 269/77/253 270/118/253 280/76/253
f 271/80/254 269/136/254 279/79/254
f 279/79/254 277/78/254 271/80/254
f 277/78/254 275/126/254 273/131/254
f 86/81/640 299/83/640 297/82/640
f 300/84/641 90/86/641 80/85/641
f 79/88/642 85/92/642 289/87/642
f 283/89/643 285/8/643 289/87/643
f 283/89/644 288/94/644 287/90/644
f 71/63/645 281/91/645 287/90/645
f 85/92/646 90/86/646 300/84/646
f 289/87/647 300/84/647 301/93/647
f 288/94/648 301/93/648 299/83/648
f 81/95/649 287/90/649 299/83/649
f 294/96/650 293/82/650 297/82/650
f 293/82/651 91/97/651 72/97/651
f 298/98/652 295/98/652 294/96/652
f 80/85/653 95/85/653 295/98/653
f 284/99/654 296/96/654 297/82/654
f 286/100/655 298/98/655 296/96/655
f 297/82/656 299/83/656 290/101/656
f 300/84/657 298/98/657 286/100/657
f 301/93/658 300/84/658 292/103/658
f 290/101/659 299/83/659 301/93/659
f 348/105/660 303/99/660 304/100/660
f 307/103/661 306/104/661 349/106/661
f 352/108/662 305/101/662 302/102/662
f 302/102/663 303/99/663 348/105/663
f 349/106/664 306/104/664 305/101/664
f 304/100/665 307/103/665 350/107/665
f 308/102/666 309/99/666 353/111/666
f 356/113/667 312/104/667 311/101/667
f 358/114/668 310/100/668 313/103/668
f 353/111/669 309/99/669 310/100/669
f 313/103/670 312/104/670 356/113/670
f 311/101/671 308/102/671 354/112/671
f 315/99/672 316/100/672 310/100/672
f 333/103/673 332/104/673 312/104/673
f 317/101/674 314/102/674 308/102/674
f 308/102/675 314/102/675 315/99/675
f 318/104/676 317/101/676 311/101/676
f 310/100/677 316/100/677 319/103/677
f 314/102/678 320/102/678 321/99/678
f 324/104/294 323/101/294 317/101/294
f 322/100/679 325/103/679 319/103/679
f 315/99/680 321/99/680 322/100/680
f 319/103/297 325/103/297 324/104/297
f 317/101/681 323/101/681 320/102/681
f 331/103/682 330/104/682 324/104/682
f 323/101/683 329/101/683 326/102/683
f 326/102/684 327/99/684 321/99/684
f 324/104/685 330/104/685 329/101/685
f 328/100/686 331/103/686 325/103/686
f 321/99/687 327/99/687 328/100/687
f 337/103/305 336/104/305 332/104/305
f 332/104/688 334/104/688 318/104/688
f 334/104/689 335/103/689 319/103/689
f 319/103/690 335/103/690 333/103/690
f 339/103/691 343/103/691 341/103/691
f 335/103/310 339/103/310 337/103/310
f 338/104/311 339/103/311 335/103/311
f 336/104/692 338/104/692 334/104/692
f 341/103/693 343/103/693 342/104/693
f 342/104/694 343/103/694 339/103/694
f 340/104/695 342/104/695 338/104/695
f 341/103/696 340/104/696 336/104/696
f 295/98/697 346/98/697 345/96/697
f 344/82/698 144/97/698 91/97/698
f 148/85/699 346/98/699 295/98/699
f 345/96/700 344/82/700 293/82/700
f 328/100/701 327/99/701 330/104/701
f 327/99/702 326/102/702 329/101/702
f 347/110/703 350/107/703 292/103/703
f 291/104/704 349/106/704 352/108/704
f 282/102/705 351/109/705 348/105/705
f 290/101/706 352/108/706 351/109/706
f 350/107/707 349/106/707 291/104/707
f 348/105/708 347/110/708 286/100/708
f 355/115/709 354/112/709 302/102/709
f 357/107/710 356/113/710 306/104/710
f 303/99/711 353/111/711 358/114/711
f 304/100/712 358/114/712 357/107/712
f 306/104/713 356/113/713 355/115/713
f 354/112/714 353/111/714 303/99/714
f 361/65/715 362/64/715 360/97/715
f 361/65/716 363/67/716 364/66/716
f 363/67/717 365/69/717 366/68/717
f 367/70/718 368/74/718 366/68/718
f 368/74/719 374/74/719 373/68/719
f 416/116/720 369/75/720 359/63/720
f 162/97/721 161/63/721 171/75/721
f 381/65/722 382/67/722 386/67/722
f 177/76/723 183/76/723 379/74/723
f 372/66/724 371/64/724 362/64/724
f 362/64/725 371/64/725 370/97/725
f 373/68/726 372/66/726 364/66/726
f 375/132/727 376/125/727 379/71/727
f 376/125/728 377/73/728 379/71/728
f 377/73/729 378/72/729 379/71/729
f 378/68/730 377/66/730 372/66/730
f 371/64/731 376/64/731 375/97/731
f 375/118/732 183/76/732 177/76/732
f 379/74/733 378/68/733 373/68/733
f 377/66/734 376/64/734 371/64/734
f 384/70/735 398/70/735 399/75/735
f 384/70/736 385/75/736 388/75/736
f 380/63/737 381/65/737 387/117/737
f 386/67/738 382/67/738 383/69/738
f 388/75/739 385/75/739 380/77/739
f 383/69/740 384/70/740 389/70/740
f 391/119/741 389/70/741 410/70/741
f 407/121/742 388/75/742 390/122/742
f 406/67/743 386/67/743 391/119/743
f 411/63/744 390/63/744 387/117/744
f 389/70/745 388/75/745 407/121/745
f 409/123/746 387/117/746 386/67/746
f 197/116/747 378/116/747 379/116/747
f 198/116/748 377/116/748 378/116/748
f 199/116/749 200/116/749 375/116/749
f 392/116/750 204/116/750 199/116/750
f 198/116/751 203/116/751 393/116/751
f 393/73/752 392/125/752 376/125/752
f 395/80/753 394/137/753 399/79/753
f 399/79/754 398/78/754 397/126/754
f 397/126/755 396/131/755 395/80/755
f 396/67/756 397/69/756 383/69/756
f 394/63/757 395/65/757 381/65/757
f 385/75/758 399/75/758 394/77/758
f 383/69/759 397/69/759 398/70/759
f 395/65/760 396/67/760 382/67/760
f 361/65/761 400/123/761 403/67/761
f 401/127/762 404/121/762 369/75/762
f 359/63/763 402/63/763 400/123/763
f 363/67/764 403/67/764 405/69/764
f 404/121/765 402/77/765 359/77/765
f 405/69/766 401/127/766 367/70/766
f 400/123/767 409/123/767 406/67/767
f 410/70/768 407/121/768 404/121/768
f 402/63/769 411/63/769 409/123/769
f 403/67/770 406/67/770 408/120/770
f 404/121/771 407/121/771 411/77/771
f 408/120/772 410/70/772 401/127/772
f 281/116/773 71/116/773 204/116/773
f 203/116/774 79/116/774 285/116/774
f 392/125/775 393/73/775 283/128/775
f 393/73/776 285/73/776 283/128/776
f 413/96/777 412/82/777 344/82/777
f 414/98/395 413/96/395 345/96/395
f 344/82/778 412/82/778 223/97/778
f 227/85/779 414/98/779 346/98/779
f 415/116/780 170/74/780 176/74/780
f 416/116/781 177/76/781 374/74/781
f 172/118/782 162/97/782 415/116/782
f 416/116/783 360/97/783 370/118/783
