# Blender 5.0.0
# www.blender.org
o body
v 0.496492 -0.836496 9.719826
v 0.583336 -0.739346 10.990763
v 0.476577 0.278155 9.787084
v 0.565221 0.486406 11.026476
v 0.246627 0.341088 9.691195
v -0.000000 0.369678 9.636514
v -0.000000 0.658669 11.160121
v 0.340386 0.599495 11.115606
v 0.631619 0.554538 10.785142
v 0.646511 0.545035 10.426251
v 0.576865 0.424383 10.054472
v 0.562963 -0.631520 9.633729
v 0.591550 -0.317049 9.605026
v 0.550611 0.022595 9.676123
v 0.654626 0.225672 11.105810
v 0.703310 -0.145583 11.138705
v 0.665741 -0.502555 11.084861
v 0.654036 -0.830154 10.737861
v 0.671875 -0.892060 10.365184
v 0.600616 -0.885222 9.985689
v -0.000000 -0.970373 9.553931
v 0.267098 -0.925011 9.612991
v 0.358752 -0.817453 11.078568
v -0.000000 -0.856364 11.123755
v -0.000000 0.674132 10.007752
v -0.000000 0.858995 10.426448
v -0.000000 0.860968 10.832142
v 0.290903 0.614872 10.033704
v 0.337850 0.778809 10.429724
v 0.344425 0.778265 10.812466
v 0.749642 0.108478 10.014156
v 0.841644 0.194318 10.411579
v 0.811618 0.221480 10.797274
v 0.812126 -0.260919 9.971001
v 0.912852 -0.205322 10.391792
v 0.878665 -0.167071 10.803012
v 0.764291 -0.610047 9.973682
v 0.857600 -0.587271 10.375507
v 0.825386 -0.539852 10.769641
v 0.317045 -1.052687 9.949630
v 0.365526 -1.074154 10.233892
v 0.369003 -0.996871 10.757318
v -0.000000 -1.112858 9.971811
v -0.000000 -1.133464 10.228964
v -0.000000 -1.050112 10.776916
v -0.000000 0.004889 9.370337
v 0.255090 0.002209 9.455835
v -0.000000 -0.369841 9.254924
v 0.272938 -0.355472 9.354073
v -0.000000 -0.709899 9.320819
v 0.266506 -0.681006 9.408504
v 0.373244 0.271110 11.292418
v -0.000000 0.302962 11.356274
v 0.399412 -0.129139 11.345042
v -0.000000 -0.120306 11.414772
v 0.383312 -0.515705 11.273383
v -0.000000 -0.530811 11.337951
v -0.000000 -1.256591 10.040072
v 0.899103 0.129189 10.400923
v 0.964296 0.059744 10.422009
v 0.972883 0.157159 10.218564
v 1.038076 0.087714 10.239650
v 0.910948 0.053346 9.975423
v 0.976141 -0.016099 9.996509
v 0.775233 -0.078438 9.914638
v 0.840426 -0.147883 9.935723
v 0.701452 -0.106409 10.096996
v 0.766645 -0.175854 10.118082
v 0.763387 -0.002595 10.340138
v 0.828580 -0.072040 10.361224
v 0.000000 0.608116 6.783585
v -0.000045 0.615350 8.932022
v 0.504716 0.474076 6.597967
v 0.828569 0.184683 8.512974
v 0.598099 0.170519 6.555665
v 0.958578 0.095426 8.851564
v 0.495931 -0.140200 6.505168
v 0.866862 -0.238178 8.869634
v -0.000000 -0.261991 6.644679
v 0.000045 -0.517279 8.619304
v -0.000000 0.657830 7.416643
v 0.570465 0.445828 7.424927
v 0.767001 0.016278 7.446909
v 0.571981 -0.309938 7.452412
v -0.000000 -0.421472 7.416643
v 0.000176 0.703552 8.505195
v 0.703697 0.126013 8.087468
v 0.718552 -0.186698 8.058958
v 0.697365 -0.438505 8.295156
v 0.000481 -0.486130 8.290783
v -0.000000 0.515979 9.102920
v 0.439940 0.411290 9.046995
v 0.633972 0.103582 9.053611
v 0.435116 -0.198803 9.066677
v -0.000000 -0.334730 8.895302
v 0.958147 0.101960 8.860723
v 0.710191 0.376198 8.698711
v 0.738448 -0.249678 8.973799
v 0.614256 0.353369 7.980182
v 0.622193 -0.401415 8.288048
v 0.716519 -0.159576 8.040300
v 1.568388 -0.503528 6.986685
v 1.659559 -0.642220 7.065801
v 1.563811 -0.831986 7.177452
v 1.164422 -0.574497 6.845813
v 1.097252 -0.740650 6.866813
v 1.161246 -0.906047 7.030843
v 1.945175 -1.371687 5.808818
v 2.010619 -1.488835 5.892659
v 1.943198 -1.608925 5.999099
v 1.639168 -1.418508 5.747630
v 1.585668 -1.555826 5.799391
v 1.637742 -1.657880 5.935045
v 1.971228 -1.365208 5.703253
v 2.060320 -1.488456 5.874756
v 1.988895 -1.726082 6.015009
v 1.817250 -1.463466 5.587103
v 1.787575 -1.619136 5.694950
v 1.816147 -1.870346 5.898706
v 2.244992 -1.565911 5.326456
v 2.301672 -1.780205 5.484410
v 2.243470 -2.029261 5.684196
v 2.084432 -1.728411 5.232606
v 2.054757 -1.884081 5.340452
v 2.083327 -2.135290 5.544209
v 2.184884 -1.983897 4.914336
v 2.196126 -2.150989 4.993545
v 2.185023 -2.305032 5.162887
v 2.094499 -2.005864 5.007657
v 2.068229 -2.103135 5.054751
v 2.093888 -2.270720 5.209823
v 1.576319 -1.723809 5.658085
v 1.607830 -1.804713 5.782833
v 1.771250 -1.746790 5.610429
v 1.791704 -1.958016 5.789925
v 1.629081 -1.892796 5.518302
v 1.654901 -1.959089 5.620519
v 1.788806 -1.911627 5.479252
v 1.805565 -2.084704 5.626330
v 1.704853 -2.070462 5.371685
v 1.715707 -2.115644 5.447336
v 1.822658 -2.067416 5.365879
v 1.831908 -2.189299 5.472741
v -0.000000 0.404502 9.233461
v 0.158780 0.287954 9.205066
v 0.252719 0.101461 9.141545
v 0.182110 -0.006843 9.141545
v -0.000000 -0.116119 9.103518
v 1.513478 -0.804856 7.284192
v 1.609197 -0.595009 7.197047
v 1.078552 -0.711704 6.920773
v 1.131957 -0.890436 7.088714
v 1.519616 -0.450298 7.113790
v 1.135818 -0.534868 6.921750
v 1.698665 -0.696470 6.956585
v 1.610024 -0.565766 6.869182
v 1.199336 -0.632697 6.769918
v 1.127127 -0.790448 6.813242
v 1.197603 -0.933163 6.990040
v 1.606368 -0.866503 7.090449
v 0.508210 1.446288 4.166942
v 0.519509 0.981948 5.453051
v 0.863355 1.265960 4.052640
v 1.026829 0.729515 5.563854
v 0.863355 1.023867 3.931361
v 1.028275 0.318340 5.273111
v 0.508191 0.839541 3.834537
v 0.513592 0.143153 5.053099
v 0.152952 1.023126 3.940145
v 0.144936 0.279419 5.248333
v 0.153066 1.255046 4.077897
v 0.512164 0.936523 5.711390
v 1.018174 0.620293 5.722096
v 1.020134 0.204828 5.442585
v 0.515757 0.065755 5.160341
v 0.136937 0.194084 5.343311
v 0.000000 0.757716 5.506658
v 0.418974 0.888326 5.840541
v 0.879472 0.473373 6.064635
v 0.876436 -0.034195 5.886518
v 0.449170 -0.134631 5.488600
v 0.134332 0.097257 5.477460
v 0.000000 0.821655 5.631612
v 0.430883 3.090322 2.589083
v 0.691278 2.993855 2.473776
v 0.691278 2.800921 2.243161
v 0.430883 2.704435 2.127789
v 0.170489 2.800776 2.242784
v 0.170489 2.993855 2.473776
v 0.822906 1.495923 3.450129
v 0.822906 1.663533 3.631544
v 0.152560 1.633625 3.601804
v 0.152560 1.465167 3.420051
v 0.487733 1.790146 3.813189
v 0.487733 1.075438 3.524007
v -0.000000 0.005803 5.595109
v -0.000000 -0.191851 5.693028
v -0.000000 -0.268661 5.953697
v 0.000000 0.809389 6.195303
v 0.000000 0.836859 5.885422
v 0.713104 0.432666 6.360891
v 0.709689 -0.106269 6.238843
v -0.000000 -0.237503 6.304257
v 0.000000 0.628045 6.534581
v 0.430883 4.190133 1.380819
v 0.625711 4.146443 1.276961
v 0.625711 4.057124 1.053178
v 0.430883 4.014118 0.949247
v 0.236055 4.050713 1.061577
v 0.236055 4.146432 1.276089
v 0.856043 1.296289 3.958029
v 0.152881 1.076243 3.816810
v 0.504509 1.471582 4.101203
v 0.856043 1.087691 3.820962
v 0.152975 1.295571 3.976120
v 0.504493 0.874382 3.769192
v 0.847217 1.177943 3.695486
v 0.152864 1.367065 3.869650
v 0.500029 0.921051 3.691733
v 0.847217 1.375520 3.864898
v 0.152796 1.166445 3.695780
v 0.500040 1.513121 4.005931
v -0.000000 0.330200 9.874363
v 0.182652 0.209765 9.874363
v 0.252719 0.101461 9.874363
v 0.182110 -0.006843 9.874363
v -0.000000 -0.127185 9.819289
v -0.496493 -0.836496 9.719826
v -0.583336 -0.739346 10.990763
v -0.476577 0.278155 9.787084
v -0.565221 0.486406 11.026476
v -0.246627 0.341088 9.691195
v -0.340386 0.599495 11.115606
v -0.631619 0.554538 10.785142
v -0.646511 0.545035 10.426251
v -0.576865 0.424383 10.054472
v -0.562963 -0.631520 9.633729
v -0.591550 -0.317049 9.605026
v -0.550611 0.022595 9.676123
v -0.654626 0.225672 11.105810
v -0.703310 -0.145583 11.138705
v -0.665741 -0.502555 11.084861
v -0.654036 -0.830154 10.737861
v -0.671875 -0.892060 10.365184
v -0.600616 -0.885222 9.985689
v -0.267098 -0.925011 9.612991
v -0.358752 -0.817453 11.078568
v -0.290903 0.614872 10.033704
v -0.337850 0.778809 10.429724
v -0.344425 0.778265 10.812466
v -0.749642 0.108478 10.014156
v -0.841644 0.194318 10.411579
v -0.811618 0.221480 10.797274
v -0.812126 -0.260919 9.971001
v -0.912852 -0.205322 10.391792
v -0.878665 -0.167071 10.803012
v -0.764291 -0.610047 9.973682
v -0.857600 -0.587271 10.375507
v -0.825386 -0.539852 10.769641
v -0.317045 -1.052687 9.949630
v -0.365526 -1.074154 10.233892
v -0.369003 -0.996871 10.757318
v -0.255090 0.002209 9.455835
v -0.272938 -0.355472 9.354073
v -0.266506 -0.681006 9.408504
v -0.373244 0.271110 11.292418
v -0.399412 -0.129139 11.345042
v -0.383312 -0.515705 11.273383
v -0.899103 0.129189 10.400923
v -0.964296 0.059744 10.422009
v -0.972883 0.157159 10.218564
v -1.038076 0.087714 10.239650
v -0.910948 0.053346 9.975423
v -0.976141 -0.016099 9.996509
v -0.775233 -0.078438 9.914638
v -0.840426 -0.147883 9.935723
v -0.701452 -0.106409 10.096996
v -0.766645 -0.175854 10.118082
v -0.763387 -0.002595 10.340138
v -0.828580 -0.072040 10.361224
v -0.504526 0.476275 6.663765
v -0.822472 0.486860 8.703852
v -0.598793 0.169840 6.621062
v -0.956846 0.161049 8.818032
v -0.495657 -0.121440 6.582454
v -0.863628 -0.063511 8.574841
v -0.567861 0.570952 7.473339
v -0.761792 0.274757 7.470883
v -0.569692 -0.181440 7.429141
v -0.689746 0.764218 8.378579
v -0.701790 0.598104 8.119265
v -0.684125 0.233399 8.066792
v -0.440480 0.376526 9.074877
v -0.634113 0.087738 9.046535
v -0.435376 -0.214383 9.037411
v -0.956578 0.156911 8.829376
v -0.708745 0.434282 8.843150
v -0.738438 -0.245163 8.850098
v -0.607008 0.678560 8.158944
v -0.616794 -0.152501 8.148603
v -0.701334 0.551112 8.094249
v -1.529005 1.447301 7.324797
v -1.619952 1.305683 7.253999
v -1.524347 1.109450 7.155350
v -1.124878 1.526249 7.187789
v -1.058126 1.418890 7.057758
v -1.121631 1.192307 7.010936
v -1.960634 1.893843 5.954108
v -2.026157 1.756409 5.911041
v -1.958234 1.600648 5.873335
v -1.658244 1.919872 5.867742
v -1.606566 1.798122 5.784652
v -1.656549 1.627741 5.783587
v -1.990145 1.982815 5.898629
v -2.076421 1.770496 5.902918
v -2.006378 1.518486 5.789679
v -1.842877 2.021257 5.744717
v -1.813539 1.843012 5.680586
v -1.841555 1.530320 5.597652
v -2.281891 2.166835 5.526843
v -2.338615 1.912525 5.448146
v -2.280021 1.605423 5.361048
v -2.128942 2.149635 5.333698
v -2.099604 1.971389 5.269568
v -2.127620 1.658697 5.186635
v -2.246936 2.256349 4.944663
v -2.259763 2.094080 4.856209
v -2.246811 1.866740 4.830163
v -2.153978 2.169039 4.977777
v -2.128627 2.074198 4.925506
v -2.153248 1.850008 4.881659
v -1.606471 1.814208 5.565531
v -1.635738 1.665325 5.574356
v -1.803464 1.836837 5.527073
v -1.823172 1.567343 5.461975
v -1.668401 1.827677 5.349052
v -1.692383 1.705683 5.356283
v -1.829817 1.846219 5.317539
v -1.845965 1.625397 5.264199
v -1.753784 1.841297 5.122496
v -1.763183 1.753390 5.130650
v -1.871600 1.846277 5.126428
v -1.880309 1.688140 5.090683
v -0.158780 0.287954 9.205066
v -0.252719 0.101461 9.141545
v -0.182110 -0.006843 9.141545
v -1.478606 1.033921 7.224936
v -1.574320 1.219381 7.356132
v -1.039322 1.388143 7.116336
v -1.093798 1.151815 7.052864
v -1.484634 1.365437 7.435567
v -1.097681 1.480295 7.267069
v -1.658308 1.363760 7.158435
v -1.569568 1.510873 7.212242
v -1.162567 1.558066 7.086568
v -1.092634 1.431978 6.980336
v -1.160449 1.205698 6.969440
v -1.565620 1.158644 7.092259
v -0.508053 -0.701026 4.091580
v -0.519458 0.432864 5.102889
v -0.866564 -0.887512 4.209181
v -1.031588 0.210021 5.403776
v -0.866564 -1.110610 4.375854
v -1.033048 -0.246386 5.634798
v -0.508034 -1.276689 4.500193
v -0.513485 -0.525928 5.664877
v -0.149427 -1.096291 4.379746
v -0.141336 -0.196439 5.497308
v -0.149542 -0.861329 4.216423
v -0.512044 0.662040 5.369377
v -1.022851 0.343641 5.580293
v -1.024829 -0.134694 5.781718
v -0.515671 -0.448923 5.723653
v -0.133260 -0.115373 5.545168
v -0.417970 0.779533 5.585690
v -0.882834 0.491945 6.102132
v -0.879769 0.011744 6.106116
v -0.448454 -0.313927 5.870990
v -0.130631 -0.025881 5.604609
v -0.429993 -1.799539 1.985590
v -0.658826 -1.920506 2.038711
v -0.658826 -2.162439 2.144954
v -0.429993 -2.283405 2.198077
v -0.201160 -2.162439 2.144954
v -0.201160 -1.920506 2.038711
v -0.825732 -1.378734 3.758271
v -0.825732 -1.154489 3.646271
v -0.149032 -1.191746 3.666883
v -0.149032 -1.416122 3.779032
v -0.487382 -0.941732 3.574793
v -0.487382 -1.430673 4.182265
v -0.714889 0.439359 6.422166
v -0.711441 -0.050805 6.350546
v -0.429993 -2.619056 0.560638
v -0.608103 -2.717510 0.595077
v -0.608103 -2.896030 0.697196
v -0.429993 -2.985289 0.748256
v -0.251884 -2.896029 0.697196
v -0.251884 -2.717511 0.595077
v -0.859183 -0.947771 4.118655
v -0.149356 -1.167805 4.276367
v -0.504316 -0.746701 4.007812
v -0.859183 -1.169538 4.268188
v -0.149450 -0.931361 4.127196
v -0.504300 -1.308535 4.444057
v -0.850273 -1.236897 4.135324
v -0.149339 -1.005672 4.009982
v -0.499794 -1.346026 4.375047
v -0.850273 -1.007725 3.998272
v -0.149269 -1.240997 4.146420
v -0.499806 -0.826212 3.913998
v -0.182652 0.209765 9.874363
v -0.252719 0.101461 9.874363
v -0.182110 -0.006843 9.874363
v 0.213411 0.660493 5.412882
v -0.199640 0.454316 5.256599
vn 0.2171 0.8930 -0.3943
vn 0.2309 0.9730 -0.0026
vn 0.2282 0.8287 0.5111
vn 0.5934 0.7171 0.3657
vn 0.6038 0.7971 0.0039
vn 0.5368 0.7678 -0.3497
vn 0.4335 0.6757 -0.5962
vn 0.2244 0.7535 -0.6180
vn 0.9488 0.1900 -0.2522
vn 0.9829 0.1719 0.0657
vn 0.9669 -0.1341 -0.2169
vn 0.9843 -0.1466 0.0981
vn 0.7198 0.4412 -0.5359
vn 0.8218 0.4872 -0.2955
vn 0.8739 0.4848 0.0339
vn 0.8176 0.4547 0.3533
vn 0.8793 0.1584 0.4492
vn 0.8717 -0.1659 0.4611
vn 0.7717 -0.4987 0.3948
vn 0.8452 -0.5193 0.1267
vn 0.8441 -0.5094 -0.1677
vn 0.7852 -0.4383 -0.4373
vn 0.8572 -0.1236 -0.4999
vn 0.8229 0.2097 -0.5281
vn 1.0000 -0.0000 -0.0000
vn 0.1564 -0.9765 0.1485
vn 0.4800 -0.7943 -0.3725
vn 0.5169 -0.8425 -0.1518
vn 0.4664 -0.8756 0.1262
vn 0.4808 -0.7739 0.4123
vn 0.1500 -0.8611 0.4857
vn 0.2261 -0.9220 -0.3144
vn 0.3148 0.2794 -0.9071
vn 0.3250 -0.1799 -0.9284
vn 0.2669 0.5681 -0.7785
vn 0.4934 0.5045 -0.7086
vn 0.5804 0.2495 -0.7751
vn 0.6137 -0.1420 -0.7766
vn 0.5175 -0.5489 -0.6564
vn 0.3026 -0.6356 -0.7102
vn 0.1733 0.1395 0.9749
vn 0.1703 -0.1865 0.9676
vn 0.5492 0.4099 0.7283
vn 0.1876 0.4801 0.8569
vn 0.1601 -0.5446 0.8233
vn 0.5064 -0.4648 0.7263
vn 0.5518 -0.1809 0.8141
vn 0.5611 0.1458 0.8148
vn 0.6237 0.6944 0.3588
vn 0.7220 0.5506 -0.4190
vn 0.3616 0.0569 -0.9306
vn -0.6237 -0.6944 -0.3589
vn 0.6532 -0.7421 0.1505
vn -0.7220 -0.5506 0.4190
vn -0.3616 -0.0569 0.9306
vn -0.6532 0.7421 -0.1505
vn 0.4365 0.8955 -0.0867
vn 0.1340 -0.9866 -0.0934
vn 0.1841 -0.9648 -0.1877
vn 0.9481 -0.2909 -0.1282
vn 0.9512 0.3017 -0.0653
vn 0.2609 0.9653 0.0122
vn 0.1972 -0.9732 -0.1184
vn 0.8550 -0.5125 -0.0791
vn 0.9094 0.4160 -0.0025
vn 0.3439 0.9303 0.1278
vn 0.3692 0.6970 0.6147
vn 0.3701 0.9082 0.1957
vn 0.2692 -0.1358 0.9535
vn 0.0432 -0.8333 0.5511
vn 0.7889 0.5172 -0.3319
vn 0.6309 -0.1494 0.7613
vn 0.6627 0.6906 -0.2897
vn -0.4347 -0.8028 0.4082
vn -0.7744 -0.3969 -0.4927
vn 0.8712 0.1178 -0.4766
vn 0.8872 -0.2041 0.4138
vn -0.8173 -0.5049 -0.2775
vn 0.0049 0.8873 -0.4612
vn 0.8253 0.5585 0.0828
vn -0.8475 0.2861 -0.4472
vn 0.0726 -0.9579 0.2777
vn 0.8558 0.5048 -0.1131
vn -0.8554 0.1459 -0.4970
vn 0.0136 -0.8248 0.5653
vn 0.9066 -0.1647 0.3885
vn -0.8771 -0.4789 -0.0369
vn 0.0165 0.7961 -0.6049
vn 0.2808 0.5435 0.7911
vn -0.9522 -0.1039 0.2873
vn -0.0743 0.9358 -0.3445
vn 0.6375 0.7432 0.2029
vn -0.4883 -0.1348 -0.8622
vn -0.5086 -0.0820 0.8571
vn 0.8146 0.4680 0.3426
vn -0.8463 -0.1848 -0.4997
vn 0.0997 -0.6941 0.7129
vn 0.8864 0.1454 0.4394
vn -0.8522 -0.3847 -0.3548
vn -0.2657 0.6654 -0.6976
vn -0.9945 -0.1043 0.0108
vn -0.6953 0.4373 -0.5704
vn 0.9694 0.0871 -0.2297
vn -0.9681 0.1746 -0.1795
vn 0.1939 -0.8760 0.4416
vn 0.9824 -0.1656 -0.0862
vn -0.9466 -0.3211 0.0309
vn -0.1861 0.6385 -0.7468
vn 0.9866 -0.0190 -0.1618
vn -0.5246 -0.6014 0.6026
vn -0.5512 -0.7306 0.4030
vn -0.5760 -0.6692 0.4694
vn 0.9948 0.1013 0.0058
vn -0.1195 0.6104 -0.7830
vn -0.2541 -0.6484 -0.7176
vn 0.9844 0.1592 0.0752
vn -0.1225 0.6001 -0.7905
vn -0.9320 -0.3624 0.0004
vn 0.1927 -0.1256 0.9732
vn 0.2293 0.5264 0.8187
vn -0.0696 -0.6880 0.7224
vn 0.2210 0.1600 0.9621
vn -0.5155 -0.6168 -0.5949
vn -0.6227 -0.3690 -0.6900
vn -0.0117 -0.9431 0.3323
vn -0.8689 0.2836 -0.4057
vn 0.8054 0.5768 0.1360
vn 0.0468 0.8763 -0.4795
vn -0.9452 -0.1775 -0.2740
vn 0.8743 -0.2168 0.4343
vn 0.0637 0.8059 -0.5887
vn -0.7597 -0.5818 -0.2903
vn 0.8985 -0.1685 0.4054
vn 0.0538 -0.9189 0.3909
vn -0.7733 0.1876 -0.6057
vn 0.8346 0.5509 0.0039
vn 0.5057 0.8128 0.2890
vn 0.9941 0.0485 -0.0967
vn 0.5055 -0.7482 -0.4298
vn -0.5121 -0.7467 -0.4245
vn -0.5012 -0.6223 -0.6013
vn 0.9964 0.0729 -0.0442
vn -1.0000 0.0031 -0.0044
vn 0.9972 0.0547 -0.0505
vn -0.9737 -0.2026 0.1037
vn 0.9992 -0.0206 0.0342
vn 0.4428 0.7264 0.5256
vn 0.4665 -0.7127 -0.5238
vn -0.4650 -0.6001 0.6508
vn 0.4445 -0.8018 -0.3993
vn 0.4342 0.7507 0.4978
vn -0.3593 0.9291 0.0874
vn -0.4880 -0.7032 -0.5171
vn 0.9614 -0.1504 0.2303
vn -0.9992 0.0369 -0.0165
vn -0.9999 0.0074 -0.0068
vn 0.5458 0.5869 0.5980
vn 0.5001 -0.5602 -0.6603
vn -0.5000 0.5567 0.6634
vn -0.4728 -0.5829 -0.6608
vn -0.4761 -0.6641 -0.5764
vn -0.6130 0.5596 0.5577
vn 0.4844 -0.5109 -0.7101
vn 0.5511 0.4929 0.6733
vn -1.0000 -0.0002 0.0006
vn 0.9978 0.0482 -0.0445
vn 0.1280 -0.9900 0.0593
vn -0.4346 -0.3998 -0.8070
vn -0.0064 -0.9592 -0.2826
vn -0.6712 0.0331 -0.7406
vn -0.1122 0.9898 0.0877
vn 0.3793 0.8638 0.3317
vn 0.1889 -0.9781 0.0869
vn 0.9054 -0.1454 0.3988
vn 0.0008 0.9271 -0.3748
vn 0.4999 -0.5817 -0.6417
vn 0.4965 0.6419 0.5843
vn -0.4679 0.6495 0.5994
vn -0.4848 -0.5851 -0.6502
vn 0.9992 0.0304 -0.0254
vn 0.9971 0.0418 -0.0637
vn -1.0000 0.0001 0.0006
vn 0.5176 0.8079 0.2817
vn 0.5099 -0.7297 -0.4556
vn -0.5101 0.7989 0.3186
vn -0.5114 -0.7700 -0.3816
vn 0.9974 0.0469 -0.0547
vn -1.0000 -0.0001 0.0007
vn 0.4619 0.8208 0.3362
vn 0.5096 -0.6811 -0.5257
vn -0.4940 0.7216 0.4851
vn -0.4929 -0.7575 -0.4280
vn 0.2816 0.9562 0.0805
vn 0.2193 -0.9731 -0.0700
vn 0.7556 0.1434 0.6391
vn 0.8931 0.4499 -0.0000
vn 0.8377 -0.5461 -0.0000
vn 0.5488 0.8323 0.0777
vn 0.5165 -0.8562 -0.0132
vn -0.2171 0.8930 -0.3943
vn -0.2332 0.9724 -0.0047
vn -0.2282 0.8287 0.5111
vn -0.5362 0.7239 0.4341
vn -0.6140 0.7893 -0.0094
vn -0.5575 0.7416 -0.3731
vn -0.4335 0.6757 -0.5962
vn -0.2244 0.7535 -0.6180
vn -0.9486 0.1818 -0.2589
vn -0.9832 0.1706 0.0645
vn -0.9679 -0.1309 -0.2144
vn -0.9842 -0.1492 0.0957
vn -0.7191 0.4598 -0.5211
vn -0.8258 0.4724 -0.3080
vn -0.8791 0.4760 0.0239
vn -0.8176 0.4547 0.3533
vn -0.8813 0.1551 0.4463
vn -0.8704 -0.1617 0.4650
vn -0.7756 -0.4470 0.4457
vn -0.8474 -0.5145 0.1312
vn -0.8444 -0.5089 -0.1672
vn -0.7852 -0.4383 -0.4373
vn -0.8583 -0.1214 -0.4987
vn -0.8209 0.2013 -0.5345
vn -0.1488 -0.9784 0.1435
vn -0.5095 -0.7887 -0.3441
vn -0.5440 -0.8308 -0.1171
vn -0.5063 -0.8464 0.1648
vn -0.4808 -0.7739 0.4123
vn -0.1500 -0.8611 0.4857
vn -0.1482 -0.9172 -0.3698
vn -0.3082 0.2745 -0.9109
vn -0.3445 -0.1614 -0.9248
vn -0.2408 0.5577 -0.7943
vn -0.4461 0.4620 -0.7665
vn -0.5707 0.2336 -0.7872
vn -0.6232 -0.1271 -0.7717
vn -0.5828 -0.4680 -0.6643
vn -0.3026 -0.6356 -0.7102
vn -0.1782 0.1347 0.9747
vn -0.1652 -0.1814 0.9694
vn -0.5146 0.4458 0.7324
vn -0.1947 0.4736 0.8589
vn -0.1601 -0.5446 0.8233
vn -0.5064 -0.4648 0.7263
vn -0.5466 -0.1746 0.8190
vn -0.5630 0.1438 0.8139
vn -0.6237 0.6944 0.3588
vn -0.7220 0.5506 -0.4190
vn -0.3616 0.0569 -0.9306
vn 0.6237 -0.6944 -0.3588
vn -0.6532 -0.7421 0.1505
vn 0.7220 -0.5506 0.4190
vn 0.3616 -0.0569 0.9306
vn 0.6532 0.7421 -0.1505
vn -0.2657 0.9441 0.1950
vn -0.3905 -0.9014 -0.1868
vn -0.2611 -0.9610 -0.0909
vn -0.9180 -0.3747 -0.1298
vn -0.9456 0.3062 -0.1098
vn -0.1583 0.9844 -0.0773
vn -0.3880 -0.9216 0.0117
vn -0.8811 -0.3948 0.2605
vn -0.8287 0.5437 -0.1327
vn -0.0172 0.9990 -0.0420
vn -0.4620 0.3728 0.8047
vn -0.2722 0.8114 0.5173
vn -0.5770 -0.2734 0.7697
vn -0.1848 -0.8772 0.4431
vn -0.5869 0.4725 0.6575
vn -0.9499 -0.3001 -0.0870
vn -0.3037 0.7826 0.5434
vn -0.8603 -0.2449 -0.4471
vn -0.9931 -0.0623 0.0990
vn 0.9955 0.0520 -0.0796
vn -0.8734 -0.4847 0.0480
vn 0.8173 -0.0339 -0.5753
vn 0.0172 0.8074 0.5898
vn -0.8301 0.2346 0.5059
vn 0.8525 0.5227 0.0105
vn -0.0976 -0.7057 -0.7018
vn -0.8476 0.3734 0.3771
vn 0.8025 0.5760 -0.1554
vn 0.0069 -0.9412 -0.3378
vn -0.8882 -0.4419 0.1258
vn 0.8632 -0.2373 -0.4456
vn -0.0206 0.9561 0.2922
vn -0.2391 -0.3257 0.9147
vn 0.9585 -0.2815 0.0448
vn 0.0866 0.8287 0.5530
vn -0.2106 -0.1995 0.9570
vn 0.4545 0.6256 -0.6341
vn 0.1769 -0.9332 0.3129
vn -0.7720 0.3247 0.5465
vn 0.8234 0.3072 -0.4771
vn -0.0930 -0.9857 -0.1406
vn -0.8026 -0.4154 0.4281
vn 0.8291 0.0727 -0.5543
vn 0.1303 0.9254 0.3558
vn 0.9912 -0.0572 -0.1192
vn 0.3107 0.9365 0.1626
vn -0.9741 0.2247 -0.0239
vn 0.9814 0.1828 -0.0591
vn -0.2012 -0.8738 -0.4427
vn -0.9797 -0.1488 -0.1345
vn 0.9384 -0.2011 -0.2810
vn 0.1766 0.9816 0.0721
vn -0.9918 0.1073 -0.0694
vn 0.5382 -0.8372 -0.0969
vn 0.5876 -0.7344 -0.3397
vn 0.5744 -0.7652 -0.2908
vn -0.9911 0.0419 0.1265
vn 0.1081 0.9937 0.0309
vn -0.0369 -0.0884 -0.9954
vn -0.9767 0.0198 0.2136
vn 0.1106 0.9937 0.0181
vn 0.9218 -0.2009 -0.3317
vn -0.2316 -0.1812 0.9558
vn -0.2175 0.5212 0.8253
vn 0.0457 -0.6890 0.7234
vn -0.2435 0.0683 0.9675
vn 0.4946 0.1142 -0.8616
vn 0.4594 0.5198 -0.7203
vn -0.2271 -0.8037 -0.5499
vn 0.9514 0.2374 -0.1962
vn -0.6328 0.4752 0.6113
vn -0.1342 0.7804 0.6107
vn 0.9490 0.0895 -0.3024
vn -0.8966 -0.4385 0.0612
vn -0.0744 0.9431 0.3241
vn 0.7195 -0.0587 -0.6920
vn -0.8505 -0.4986 0.1676
vn 0.0628 -0.9311 -0.3592
vn 0.7857 0.6104 -0.1007
vn -0.8311 0.2994 0.4686
vn -0.5083 0.5704 -0.6452
vn -0.9944 -0.0453 -0.0958
vn -0.4396 -0.7666 0.4681
vn 0.5175 -0.7181 0.4653
vn 0.6633 -0.4421 0.6038
vn 0.2989 0.6369 -0.7107
vn -0.7068 0.6338 0.3142
vn -0.9956 -0.0417 -0.0835
vn 0.9753 -0.1414 0.1697
vn -0.9990 0.0227 0.0386
vn -0.5792 0.6260 -0.5222
vn -0.3518 -0.5742 0.7393
vn -0.1077 -0.0151 0.9941
vn -0.3061 -0.6282 0.7153
vn -0.5736 0.7982 -0.1841
vn -0.0413 0.8854 -0.4630
vn 0.6612 -0.4285 0.6158
vn -0.9260 0.1497 0.3465
vn 0.9995 -0.0124 -0.0283
vn 0.9996 -0.0130 -0.0260
vn -0.5457 0.7290 -0.4132
vn -0.5256 -0.7870 0.3230
vn 0.6160 0.7023 -0.3568
vn 0.4649 -0.8085 0.3609
vn 0.4831 -0.7898 0.3779
vn 0.4959 0.8274 -0.2636
vn -0.4777 -0.8153 0.3272
vn -0.4959 0.7887 -0.3634
vn 1.0000 0.0005 0.0004
vn -0.9981 -0.0317 -0.0530
vn 0.0936 -0.9938 0.0595
vn 0.0425 -0.4435 -0.8953
vn 0.1473 -0.9488 -0.2796
vn -0.0832 0.0445 -0.9955
vn -0.3500 0.9162 0.1951
vn -0.3501 0.8774 0.3279
vn -0.3084 -0.9508 -0.0309
vn -0.8237 -0.0006 0.5671
vn -0.0000 -0.4965 -0.8680
vn -0.4997 -0.7796 0.3775
vn -0.4978 0.7518 -0.4324
vn 0.4978 0.7518 -0.4324
vn 0.4997 -0.7796 0.3775
vn -0.9995 -0.0124 -0.0283
vn -0.9982 -0.0363 -0.0486
vn 1.0000 0.0007 0.0002
vn -0.5230 0.6892 -0.5014
vn -0.4961 -0.7690 0.4033
vn 0.4931 0.6846 -0.5368
vn 0.5173 -0.7292 0.4481
vn -0.9982 -0.0336 -0.0499
vn 1.0000 0.0006 0.0003
vn -0.5432 0.7348 -0.4062
vn -0.4967 -0.7758 0.3891
vn 0.5246 0.6618 -0.5356
vn 0.5025 -0.7455 0.4378
vn -0.2668 0.9599 0.0857
vn -0.2568 -0.9649 -0.0550
vn -0.7571 0.1441 0.6372
vn -0.8931 0.4499 -0.0000
vn -0.8377 -0.5461 -0.0000
vn -0.5999 0.7948 0.0921
vn -0.5165 -0.8562 -0.0132
vn -0.3207 0.1910 -0.9277
vn 0.9810 0.0164 -0.1933
vn 0.0247 0.7216 -0.6919
vn 0.1041 0.5909 -0.8000
vn 0.2158 0.8929 -0.3952
vn 0.2332 0.9724 -0.0047
vn 0.2114 0.8407 0.4986
vn 0.5362 0.7239 0.4341
vn 0.6140 0.7893 -0.0094
vn 0.5575 0.7416 -0.3731
vn 0.4895 0.6746 -0.5525
vn 0.2088 0.7506 -0.6269
vn 0.9486 0.1818 -0.2589
vn 0.9832 0.1706 0.0645
vn 0.9679 -0.1309 -0.2144
vn 0.9842 -0.1492 0.0957
vn 0.7191 0.4598 -0.5211
vn 0.8258 0.4724 -0.3080
vn 0.8791 0.4760 0.0239
vn 0.8171 0.4050 0.4103
vn 0.8813 0.1551 0.4463
vn 0.8704 -0.1617 0.4650
vn 0.7756 -0.4470 0.4457
vn 0.8474 -0.5145 0.1312
vn 0.8444 -0.5089 -0.1672
vn 0.7820 -0.4824 -0.3947
vn 0.8583 -0.1214 -0.4987
vn 0.8209 0.2013 -0.5345
vn 0.1806 -0.9804 -0.0786
vn 0.1607 -0.9818 -0.1015
vn 0.1488 -0.9784 0.1435
vn 0.5095 -0.7887 -0.3441
vn 0.5440 -0.8308 -0.1171
vn 0.5063 -0.8464 0.1648
vn 0.4448 -0.7758 0.4475
vn 0.1542 -0.8626 0.4818
vn 0.1482 -0.9172 -0.3698
vn 0.3082 0.2745 -0.9109
vn 0.3445 -0.1614 -0.9248
vn 0.2408 0.5577 -0.7943
vn 0.4461 0.4620 -0.7665
vn 0.5707 0.2336 -0.7872
vn 0.6232 -0.1271 -0.7717
vn 0.5828 -0.4680 -0.6643
vn 0.2684 -0.6184 -0.7387
vn 0.1782 0.1347 0.9747
vn 0.1652 -0.1814 0.9694
vn 0.5146 0.4458 0.7324
vn 0.1947 0.4736 0.8589
vn 0.1626 -0.5423 0.8243
vn 0.4611 -0.5075 0.7279
vn 0.5466 -0.1746 0.8190
vn 0.5630 0.1438 0.8139
vn -0.6237 -0.6944 -0.3588
vn 0.3684 0.9104 0.1883
vn 0.2649 -0.9500 0.1653
vn 0.1995 -0.9596 -0.1983
vn 0.8305 -0.5006 -0.2440
vn 0.9066 0.4097 -0.1009
vn 0.3483 0.9345 -0.0734
vn 0.1343 -0.9882 -0.0732
vn 0.8866 -0.4510 -0.1026
vn 0.9670 0.2097 0.1444
vn 0.4709 0.8814 -0.0371
vn 0.7212 0.4658 0.5127
vn 0.2603 0.8347 0.4853
vn 0.5107 -0.0430 0.8587
vn 0.0321 -0.8287 0.5587
vn 0.7777 0.6135 -0.1369
vn 0.9434 -0.2474 0.2208
vn 0.9421 0.3067 -0.1355
vn 0.2267 -0.9584 0.1736
vn -0.2493 -0.6439 -0.7234
vn 0.9981 0.0506 -0.0352
vn 0.8646 -0.2036 0.4594
vn -0.8996 -0.4290 -0.0816
vn -0.0084 0.9212 -0.3890
vn 0.8049 0.5852 0.0984
vn -0.8433 0.2756 -0.4615
vn 0.0690 -0.9538 0.2923
vn 0.8917 0.4470 -0.0715
vn -0.8177 0.2293 -0.5280
vn -0.0042 -0.8251 0.5650
vn 0.9006 -0.1758 0.3976
vn -0.8741 -0.4849 -0.0293
vn -0.0008 0.7960 -0.6053
vn 0.5223 0.3115 0.7938
vn -0.9781 -0.0993 0.1827
vn -0.4986 0.8640 -0.0700
vn 0.2524 0.6524 0.7146
vn -0.6769 -0.3276 -0.6592
vn -0.1519 -0.2892 0.9452
vn 0.7896 0.6128 0.0302
vn 0.0042 -0.7995 0.6007
vn 0.8248 0.0822 0.5594
vn -0.1273 0.8341 -0.5368
vn -0.9926 -0.1142 0.0408
vn -0.3157 0.6888 -0.6526
vn 0.9811 -0.0250 -0.1920
vn -0.9852 0.0848 -0.1487
vn -0.1565 -0.9172 0.3665
vn 0.9751 -0.2216 0.0079
vn -0.1342 0.5589 -0.8183
vn 0.9828 -0.0549 -0.1766
vn -0.5310 -0.5553 0.6401
vn -0.5916 -0.6904 0.4164
vn -0.0031 -0.8587 -0.5124
vn 0.9874 0.1399 0.0741
vn -0.0551 0.5797 -0.8130
vn -0.9371 -0.3420 -0.0698
vn 0.2240 -0.1055 0.9689
vn 0.5591 0.6305 0.5384
vn 0.0132 -0.3482 0.9373
vn 0.5031 -0.0406 0.8633
vn -0.5312 -0.6178 -0.5798
vn -0.4954 -0.2665 -0.8268
vn 0.0255 -0.9331 0.3587
vn -0.9401 -0.0136 -0.3408
vn 0.6580 0.7510 -0.0547
vn 0.3623 0.9030 -0.2308
vn -0.9173 -0.3814 -0.1142
vn 0.8739 -0.2182 0.4344
vn -0.0283 0.8792 -0.4757
vn -0.8753 -0.4819 -0.0401
vn 0.8628 -0.1516 0.4822
vn -0.0371 -0.8472 0.5299
vn -0.7925 0.2500 -0.5563
vn 0.8235 0.5672 0.0131
vn 0.3802 0.8838 0.2726
vn 0.9944 0.0636 -0.0850
vn 0.4555 -0.7637 -0.4575
vn -0.5043 -0.7494 -0.4291
vn -0.5192 -0.6980 -0.4932
vn 1.0000 -0.0029 -0.0049
vn -0.9858 0.1324 0.1035
vn 0.9973 0.0567 -0.0474
vn -0.9692 -0.1902 -0.1561
vn 0.9990 -0.0219 0.0395
vn 0.4092 0.8966 0.1693
vn 0.4709 -0.7433 -0.4752
vn -0.5010 -0.2839 0.8176
vn -0.5536 -0.1746 0.8143
vn -0.3972 -0.2609 0.8799
vn 0.4705 -0.8315 -0.2954
vn 0.4268 0.7022 0.5700
vn 0.0852 0.8870 -0.4539
vn -0.4930 -0.6945 -0.5240
vn 0.9371 -0.1206 0.3277
vn -0.9992 0.0304 -0.0254
vn -0.9999 0.0078 -0.0065
vn 0.4993 0.5964 0.6285
vn 0.5334 -0.5396 -0.6513
vn -0.6157 0.5257 0.5870
vn -0.4991 -0.5692 -0.6534
vn -0.4893 -0.5917 -0.6406
vn -0.4885 0.4836 0.7263
vn 0.4732 -0.6306 -0.6151
vn 0.4930 0.5724 0.6552
vn -1.0000 -0.0006 0.0005
vn 0.9981 0.0402 -0.0468
vn -0.3158 -0.4685 -0.8251
vn 0.2561 -0.9662 -0.0311
vn 0.3632 0.7215 0.5895
vn 0.3358 0.8307 0.4440
vn 0.2521 -0.9646 -0.0780
vn 0.8729 -0.1130 0.4747
vn 0.0008 0.9223 -0.3864
vn -0.0073 0.9287 -0.3707
vn -0.0633 0.9114 -0.4067
vn 0.4780 -0.5875 -0.6529
vn 0.4658 0.6500 0.6004
vn -0.4965 0.6419 0.5843
vn -0.4989 -0.5813 -0.6428
vn 0.9992 0.0378 -0.0151
vn 0.9984 0.0257 -0.0513
vn -1.0000 -0.0002 0.0008
vn 0.4984 0.8360 0.2295
vn 0.5055 -0.7492 -0.4281
vn -0.5142 0.7903 0.3331
vn -0.5023 -0.7943 -0.3418
vn 0.9984 0.0313 -0.0477
vn -1.0000 -0.0004 0.0008
vn 0.5412 0.6651 0.5145
vn 0.5082 -0.7245 -0.4658
vn -0.5172 0.7754 0.3623
vn -0.4977 -0.6956 -0.5181
vn 0.2821 0.9563 0.0765
vn 0.1838 -0.9827 0.0223
vn 0.7542 -0.3394 0.5621
vn 0.9089 -0.0976 0.4054
vn 0.8391 0.5429 0.0335
vn 0.5999 0.7948 0.0921
vn 0.5513 -0.8343 -0.0000
vn -0.2158 0.8929 -0.3952
vn -0.2309 0.9730 -0.0026
vn -0.2114 0.8407 0.4986
vn -0.5934 0.7171 0.3657
vn -0.6038 0.7971 0.0039
vn -0.5368 0.7678 -0.3497
vn -0.4895 0.6746 -0.5525
vn -0.2088 0.7506 -0.6269
vn -0.9488 0.1900 -0.2522
vn -0.9829 0.1719 0.0657
vn -0.9669 -0.1341 -0.2169
vn -0.9843 -0.1466 0.0981
vn -0.7198 0.4412 -0.5359
vn -0.8218 0.4872 -0.2955
vn -0.8739 0.4848 0.0339
vn -0.8171 0.4050 0.4103
vn -0.8793 0.1584 0.4492
vn -0.8717 -0.1659 0.4611
vn -0.7717 -0.4987 0.3948
vn -0.8452 -0.5193 0.1267
vn -0.8441 -0.5094 -0.1677
vn -0.7820 -0.4824 -0.3947
vn -0.8572 -0.1236 -0.4999
vn -0.8229 0.2097 -0.5281
vn -0.1607 -0.9818 -0.1015
vn -0.1806 -0.9804 -0.0786
vn -0.1564 -0.9765 0.1485
vn -0.4800 -0.7943 -0.3725
vn -0.5169 -0.8425 -0.1518
vn -0.4664 -0.8756 0.1262
vn -0.4448 -0.7758 0.4475
vn -0.1542 -0.8626 0.4818
vn -0.2261 -0.9220 -0.3144
vn -0.3148 0.2794 -0.9071
vn -0.3250 -0.1799 -0.9284
vn -0.2669 0.5681 -0.7785
vn -0.4934 0.5045 -0.7086
vn -0.5804 0.2495 -0.7751
vn -0.6137 -0.1420 -0.7766
vn -0.5175 -0.5489 -0.6564
vn -0.2683 -0.6184 -0.7387
vn -0.1733 0.1395 0.9749
vn -0.1703 -0.1865 0.9676
vn -0.5492 0.4099 0.7283
vn -0.1876 0.4801 0.8569
vn -0.1626 -0.5423 0.8243
vn -0.4611 -0.5075 0.7279
vn -0.5518 -0.1809 0.8141
vn -0.5611 0.1458 0.8148
vn -0.2099 0.9303 0.3009
vn -0.4587 -0.8846 -0.0845
vn -0.3849 -0.9039 -0.1867
vn -0.9417 -0.3195 -0.1050
vn -0.8148 0.5353 -0.2224
vn -0.2216 0.9664 -0.1304
vn -0.4628 -0.8841 -0.0651
vn -0.9905 -0.1236 -0.0599
vn -0.7286 0.6496 -0.2173
vn -0.1650 0.9729 -0.1621
vn -0.5805 0.3155 0.7507
vn -0.2923 0.8267 0.4808
vn -0.4707 -0.3343 0.8165
vn -0.0504 -0.8330 0.5510
vn -0.7281 0.6382 0.2500
vn -0.8775 -0.4715 0.0879
vn 0.9287 0.2835 0.2393
vn -0.6292 -0.7489 -0.2080
vn 0.9243 0.0823 -0.3727
vn -0.5739 0.6664 -0.4761
vn -0.8944 -0.4468 0.0220
vn 0.9070 -0.1751 -0.3830
vn 0.0009 0.8653 0.5013
vn -0.7979 0.2350 0.5551
vn 0.8507 0.5256 0.0028
vn -0.0845 -0.7442 -0.6626
vn -0.8817 0.3084 0.3571
vn 0.8410 0.4993 -0.2086
vn -0.0155 -0.9416 -0.3364
vn -0.8967 -0.4228 0.1313
vn 0.8597 -0.2494 -0.4459
vn 0.0008 0.9567 0.2910
vn -0.4863 -0.4670 0.7385
vn 0.9810 -0.1937 -0.0138
vn 0.5181 0.5697 0.6380
vn -0.6106 0.2632 0.7469
vn 0.6450 0.3505 -0.6791
vn 0.5356 -0.7358 0.4144
vn -0.7899 -0.0135 0.6131
vn -0.0042 -0.9553 -0.2955
vn -0.8666 -0.2821 0.4116
vn 0.2586 0.9586 0.1194
vn 0.9901 -0.0873 -0.1096
vn 0.6862 0.7273 -0.0086
vn -0.9874 0.1283 -0.0922
vn 0.9656 0.2601 -0.0037
vn 0.1453 -0.8326 -0.5345
vn -0.9888 -0.0398 -0.1439
vn 0.1202 0.9922 -0.0320
vn -0.9894 0.0983 -0.1072
vn 0.5294 -0.8339 -0.1558
vn 0.5457 -0.7477 -0.3784
vn 0.2123 0.2043 -0.9556
vn -0.9803 0.0094 0.1974
vn 0.0419 0.9991 -0.0089
vn 0.9249 -0.1320 -0.3565
vn -0.2552 -0.1664 0.9524
vn -0.5591 0.6305 0.5384
vn -0.0488 -0.3998 0.9153
vn -0.4395 -0.0832 0.8944
vn 0.4784 0.1268 -0.8689
vn 0.5887 0.3505 -0.7284
vn -0.0629 -0.7522 -0.6559
vn 0.8864 0.4585 0.0629
vn -0.8082 0.1938 0.5562
vn -0.0118 0.8386 0.5446
vn 0.9143 -0.1057 -0.3910
vn -0.8826 -0.4698 0.0202
vn 0.0461 0.8768 0.4786
vn 0.8709 -0.2403 -0.4288
vn -0.8953 -0.4352 0.0949
vn -0.0814 -0.8111 -0.5792
vn 0.7542 0.6141 -0.2324
vn -0.8073 0.3015 0.5073
vn -0.5876 0.5538 -0.5900
vn -0.9941 -0.0649 -0.0869
vn -0.4999 -0.7290 0.4676
vn 0.6974 -0.5607 0.4464
vn 0.6614 -0.4291 0.6152
vn 0.4837 0.5541 -0.6775
vn -0.5094 0.8080 0.2962
vn -0.9957 -0.0373 -0.0849
vn 0.9849 -0.1543 0.0790
vn -0.9992 0.0189 0.0351
vn -0.5986 0.6527 -0.4644
vn -0.3822 -0.7252 0.5727
vn 0.6474 0.2479 0.7207
vn 0.5566 0.0104 0.8307
vn 0.5555 0.1444 0.8189
vn -0.3266 -0.7981 0.5063
vn -0.5826 0.8094 -0.0737
vn -0.0396 0.8895 -0.4552
vn 0.7512 -0.6203 0.2256
vn -0.9655 -0.0040 0.2602
vn 0.9995 -0.0155 -0.0271
vn 0.9996 -0.0117 -0.0267
vn -0.4986 0.7613 -0.4145
vn -0.5000 -0.7982 0.3360
vn 0.4999 0.7844 -0.3671
vn 0.5000 -0.7937 0.3465
vn 0.4832 -0.7902 0.3770
vn 0.6147 0.6936 -0.3756
vn -0.4801 -0.8309 0.2813
vn -0.5526 0.7825 -0.2867
vn 1.0000 0.0004 0.0007
vn -0.9979 -0.0288 -0.0576
vn -0.1678 -0.5631 -0.8091
vn -0.0747 -0.6468 0.7590
vn -0.1961 0.9768 0.0866
vn -0.2934 0.8431 0.4506
vn -0.2477 -0.9650 0.0858
vn -0.8880 -0.0726 0.4541
vn -0.0000 -0.3302 -0.9439
vn -0.4991 -0.7799 0.3776
vn -0.4988 0.7512 -0.4323
vn 0.4988 0.7512 -0.4323
vn 0.4991 -0.7799 0.3776
vn -0.9995 -0.0155 -0.0271
vn -0.9977 -0.0379 -0.0562
vn 1.0000 0.0007 0.0005
vn -0.5431 0.7268 -0.4205
vn -0.4969 -0.7751 0.3902
vn 0.5249 0.7569 -0.3893
vn 0.5113 -0.7066 0.4892
vn -0.9978 -0.0340 -0.0569
vn 1.0000 0.0006 0.0006
vn -0.4802 0.6576 -0.5805
vn -0.4956 -0.7876 0.3661
vn 0.5012 0.7311 -0.4630
vn 0.5026 -0.7531 0.4245
vn -0.2691 0.9600 0.0768
vn -0.2641 -0.9620 -0.0692
vn -0.8996 -0.0693 0.4312
vn -0.7381 -0.3387 0.5836
vn -0.8391 0.5429 0.0335
vn -0.5488 0.8323 0.0777
vn -0.5513 -0.8343 -0.0000
vn -0.9866 0.1536 0.0549
vn 0.8542 -0.1523 -0.4972
vn -0.7268 0.6797 0.0989
vn 0.2560 0.7294 -0.6344
vt 0.500000 0.375000
vt 0.437500 0.437500
vt 0.437500 0.375000
vt 0.562500 0.437500
vt 0.500000 0.437500
vt 0.625000 0.375000
vt 0.562500 0.375000
vt 0.625000 0.500000
vt 0.562500 0.500000
vt 0.500000 0.500000
vt 0.437500 0.500000
vt 0.375000 0.500000
vt 0.375000 0.437500
vt 0.375000 0.375000
vt 0.437500 0.562500
vt 0.500000 0.625000
vt 0.437500 0.625000
vt 0.500000 0.562500
vt 0.562500 0.625000
vt 0.500000 0.687500
vt 0.437500 0.687500
vt 0.562500 0.687500
vt 0.375000 0.562500
vt 0.562500 0.562500
vt 0.625000 0.625000
vt 0.625000 0.687500
vt 0.625000 0.750000
vt 0.562500 0.750000
vt 0.500000 0.750000
vt 0.437500 0.750000
vt 0.375000 0.750000
vt 0.375000 0.687500
vt 0.375000 0.625000
vt 0.500000 0.875000
vt 0.468750 0.875000
vt 0.437500 0.875000
vt 0.500000 0.812500
vt 0.562500 0.875000
vt 0.437500 0.812500
vt 0.375000 0.812500
vt 0.562500 0.812500
vt 0.625000 0.812500
vt 0.375000 0.875000
vt 0.250000 0.562500
vt 0.312500 0.625000
vt 0.250000 0.625000
vt 0.312500 0.687500
vt 0.250000 0.687500
vt 0.250000 0.500000
vt 0.312500 0.562500
vt 0.312500 0.500000
vt 0.312500 0.750000
vt 0.250000 0.750000
vt 0.687500 0.562500
vt 0.750000 0.625000
vt 0.687500 0.625000
vt 0.750000 0.687500
vt 0.687500 0.687500
vt 0.625000 0.562500
vt 0.687500 0.500000
vt 0.750000 0.562500
vt 0.687500 0.750000
vt 1.000000 0.500000
vt 0.833333 1.000000
vt 0.833333 0.500000
vt 0.666667 1.000000
vt 0.666667 0.500000
vt 0.500000 1.000000
vt 0.500000 0.500000
vt 0.333333 0.500000
vt 0.042154 0.130000
vt 0.250000 0.010000
vt 0.457846 0.130000
vt 0.333333 1.000000
vt 0.166667 0.500000
vt 0.166667 1.000000
vt -0.000000 0.500000
vt 0.542154 0.130000
vt 0.542154 0.370000
vt 0.957846 0.370000
vt 1.000000 0.828637
vt 0.875000 1.000000
vt 0.875000 0.828637
vt 0.625000 0.828637
vt 0.500000 1.000000
vt 0.500000 0.828637
vt 0.625000 0.645722
vt 0.500000 0.500000
vt 0.750000 0.500000
vt 0.875000 0.645722
vt 0.875000 0.500000
vt 0.500000 0.645722
vt 0.750000 0.828637
vt 0.750000 0.645722
vt 1.000000 0.645722
vt 0.750000 1.000000
vt 1.000000 1.000000
vt 0.625000 1.000000
vt 0.749520 0.964446
vt 0.653402 0.965669
vt 0.844587 0.863513
vt 0.844268 0.965118
vt 0.647775 0.863148
vt 0.750840 0.864057
vt 0.749520 0.964446
vt 0.750840 0.864057
vt 0.647775 0.863149
vt 0.844587 0.863513
vt 0.844267 0.965117
vt 0.653402 0.965669
vt 0.749520 0.964446
vt 0.844268 0.965117
vt 0.750840 0.864057
vt 0.653402 0.965669
vt 0.844587 0.863513
vt 0.000000 0.000000
vt 0.833333 0.500000
vt -0.000000 1.000000
vt 0.500000 0.500000
vt 0.500000 0.500000
vt 0.166667 0.500000
vt -0.000000 0.500000
vt 0.833333 0.500000
vt 0.042154 0.370000
vt 0.457846 0.370000
vt 0.750000 0.010000
vt 0.333333 0.500000
vt 0.457846 0.250000
vt 0.625000 0.437500
vt 0.750000 0.500000
vt 0.957846 0.130000
vt 0.250000 0.490000
vt 0.625000 0.875000
vt 0.750000 0.750000
vt 0.250000 0.490000
vt 0.750000 0.490000
vt 0.750000 0.490000
s 0
f 26/1/1 28/2/1 25/3/1
f 26/1/2 30/4/2 29/5/2
f 7/6/3 30/4/3 27/7/3
f 30/4/4 4/8/4 9/9/4
f 29/5/5 9/9/5 10/10/5
f 28/2/6 10/10/6 11/11/6
f 28/2/7 3/12/7 5/13/7
f 25/3/8 5/13/8 6/14/8
f 31/15/9 35/16/9 34/17/9
f 32/18/10 36/19/10 35/16/10
f 34/17/11 38/20/11 37/21/11
f 35/16/12 39/22/12 38/20/12
f 3/12/13 31/15/13 14/23/13
f 11/11/14 32/18/14 31/15/14
f 10/10/15 33/24/15 32/18/15
f 4/8/16 33/24/16 9/9/16
f 33/24/17 16/25/17 36/19/17
f 36/19/18 17/26/18 39/22/18
f 39/22/19 2/27/19 18/28/19
f 38/20/20 18/28/20 19/29/20
f 37/21/21 19/29/21 20/30/21
f 37/21/22 1/31/22 12/32/22
f 13/33/23 37/21/23 12/32/23
f 14/23/24 34/17/24 13/33/24
f 44/34/25 58/35/25 43/36/25
f 41/37/26 45/38/26 44/34/26
f 1/31/27 40/39/27 22/40/27
f 20/30/28 41/37/28 40/39/28
f 19/29/29 42/41/29 41/37/29
f 2/27/30 42/41/30 18/28/30
f 23/42/31 45/38/31 42/41/31
f 22/40/32 43/36/32 21/43/32
f 46/44/33 49/45/33 48/46/33
f 48/46/34 51/47/34 50/48/34
f 6/49/35 47/50/35 46/44/35
f 5/51/36 14/23/36 47/50/36
f 47/50/37 13/33/37 49/45/37
f 49/45/38 12/32/38 51/47/38
f 51/47/39 1/31/39 22/52/39
f 51/47/40 21/53/40 50/48/40
f 52/54/41 55/55/41 54/56/41
f 54/56/42 57/57/42 56/58/42
f 4/8/43 52/54/43 15/59/43
f 8/60/44 53/61/44 52/54/44
f 57/57/45 23/62/45 56/58/45
f 56/58/46 2/27/46 17/26/46
f 16/25/47 56/58/47 17/26/47
f 15/59/48 54/56/48 16/25/48
f 59/63/49 62/64/49 61/65/49
f 61/65/50 64/66/50 63/67/50
f 63/67/51 66/68/51 65/69/51
f 66/68/52 67/70/52 65/69/52
f 68/71/53 66/72/53 64/73/53
f 68/74/54 69/75/54 67/70/54
f 70/76/55 59/77/55 69/75/55
f 67/78/56 69/79/56 61/80/56
f 86/81/57 97/82/57 99/83/57
f 100/84/58 80/85/58 90/86/58
f 84/87/59 79/88/59 77/8/59
f 75/89/60 84/87/60 77/8/60
f 82/90/61 75/89/61 73/91/61
f 71/63/62 82/90/62 73/91/62
f 100/84/63 85/92/63 84/87/63
f 101/93/64 84/87/64 83/94/64
f 99/83/65 83/94/65 82/90/65
f 81/95/66 99/83/66 82/90/66
f 97/82/67 93/96/67 96/96/67
f 72/97/68 92/82/68 97/82/68
f 98/98/69 93/96/69 94/98/69
f 80/85/70 94/98/70 95/85/70
f 76/99/71 97/82/71 96/96/71
f 78/100/72 96/96/72 98/98/72
f 87/101/73 97/82/73 74/102/73
f 78/100/74 100/84/74 89/103/74
f 89/103/75 101/93/75 88/104/75
f 87/101/76 101/93/76 99/83/76
f 150/105/77 104/100/77 103/99/77
f 151/106/78 107/103/78 152/107/78
f 154/108/79 102/102/79 105/101/79
f 150/105/80 102/102/80 153/109/80
f 151/106/81 105/101/81 106/104/81
f 152/107/82 104/100/82 149/110/82
f 155/111/83 108/102/83 156/112/83
f 158/113/84 111/101/84 112/104/84
f 160/114/85 113/103/85 110/100/85
f 155/111/86 110/100/86 109/99/86
f 158/113/87 113/103/87 159/107/87
f 156/112/88 111/101/88 157/115/88
f 110/100/89 115/99/89 109/99/89
f 112/104/90 133/103/90 113/103/90
f 108/102/91 117/101/91 111/101/91
f 108/102/92 115/99/92 114/102/92
f 111/101/93 118/104/93 112/104/93
f 110/100/94 119/103/94 116/100/94
f 114/102/95 121/99/95 120/102/95
f 117/101/96 124/104/96 118/104/96
f 119/103/97 122/100/97 116/100/97
f 115/99/98 122/100/98 121/99/98
f 119/103/99 124/104/99 125/103/99
f 117/101/100 120/102/100 123/101/100
f 124/104/101 131/103/101 125/103/101
f 123/101/102 126/102/102 129/101/102
f 121/99/103 126/102/103 120/102/103
f 124/104/104 129/101/104 130/104/104
f 125/103/105 128/100/105 122/100/105
f 121/99/106 128/100/106 127/99/106
f 132/104/107 137/103/107 133/103/107
f 118/104/108 132/104/108 112/104/108
f 119/103/109 134/104/109 118/104/109
f 119/103/110 133/103/110 135/103/110
f 139/103/111 141/103/111 143/103/111
f 135/103/112 137/103/112 139/103/112
f 135/103/113 138/104/113 134/104/113
f 134/104/114 136/104/114 132/104/114
f 141/103/115 142/104/115 143/103/115
f 139/103/116 142/104/116 138/104/116
f 138/104/117 140/104/117 136/104/117
f 136/104/118 141/103/118 137/103/118
f 94/98/119 146/96/119 147/98/119
f 91/97/120 145/82/120 92/82/120
f 94/98/121 148/85/121 95/85/121
f 92/82/122 146/96/122 93/96/122
f 128/100/123 130/104/123 127/99/123
f 127/99/124 129/101/124 126/102/124
f 89/103/125 149/110/125 78/100/125
f 88/104/126 154/108/126 151/106/126
f 74/102/127 150/105/127 153/109/127
f 87/101/128 153/109/128 154/108/128
f 88/104/129 152/107/129 89/103/129
f 78/100/130 150/105/130 76/99/130
f 102/102/131 157/115/131 105/101/131
f 106/104/132 159/107/132 107/103/132
f 103/99/133 160/114/133 155/111/133
f 104/100/134 159/107/134 160/114/134
f 106/104/135 157/115/135 158/113/135
f 103/99/136 156/112/136 102/102/136
f 162/97/137 163/65/137 161/63/137
f 163/65/138 166/66/138 165/67/138
f 165/67/139 168/68/139 167/69/139
f 168/68/140 169/70/140 167/69/140
f 170/74/141 175/68/141 176/74/141
f 368/74/142 369/75/142 416/116/142
f 170/74/143 171/75/143 169/70/143
f 190/67/144 185/65/144 191/117/144
f 177/76/145 182/74/145 183/76/145
f 164/64/146 174/66/146 166/66/146
f 164/64/147 172/97/147 173/64/147
f 166/66/148 175/68/148 168/68/148
f 182/71/149 181/72/149 180/73/149
f 174/66/150 181/68/150 175/68/150
f 173/64/151 178/97/151 179/64/151
f 177/76/152 178/118/152 172/118/152
f 175/68/153 182/74/153 176/74/153
f 173/64/154 180/66/154 174/66/154
f 188/70/155 210/75/155 209/70/155
f 192/75/156 188/70/156 193/70/156
f 191/117/157 184/63/157 194/63/157
f 190/67/158 187/69/158 186/67/158
f 192/75/159 184/77/159 189/75/159
f 193/70/160 187/69/160 195/119/160
f 221/70/161 195/119/161 219/120/161
f 218/121/162 194/122/162 192/75/162
f 217/67/163 195/119/163 190/67/163
f 222/63/164 191/117/164 194/63/164
f 218/121/165 193/70/165 221/70/165
f 220/123/166 190/67/166 191/117/166
f 183/76/167 178/118/167 200/116/167
f 182/116/168 197/116/168 196/116/168
f 181/116/169 198/116/169 197/116/169
f 196/116/170 183/124/170 182/71/170
f 199/116/171 178/116/171 200/116/171
f 199/116/172 201/116/172 179/116/172
f 198/116/173 202/116/173 203/116/173
f 179/125/174 202/73/174 180/73/174
f 206/80/175 208/126/175 210/79/175
f 187/69/176 207/67/176 186/67/176
f 185/65/177 205/63/177 184/63/177
f 189/75/178 205/77/178 210/75/178
f 187/69/179 209/70/179 208/69/179
f 186/67/180 206/65/180 185/65/180
f 163/65/181 214/67/181 211/123/181
f 171/75/182 212/127/182 169/70/182
f 161/63/183 211/123/183 213/63/183
f 165/67/184 216/69/184 214/67/184
f 161/77/185 215/121/185 171/75/185
f 169/70/186 216/69/186 167/69/186
f 211/123/187 217/67/187 220/123/187
f 215/121/188 221/70/188 212/127/188
f 213/63/189 220/123/189 222/63/189
f 214/67/190 219/120/190 217/67/190
f 215/121/191 222/77/191 218/121/191
f 212/127/192 219/120/192 216/69/192
f 204/116/193 73/116/193 201/116/193
f 203/116/194 77/116/194 79/116/194
f 201/125/195 73/125/195 75/128/195
f 145/82/196 225/96/196 146/96/196
f 146/96/197 226/98/197 147/98/197
f 145/82/198 223/97/198 224/82/198
f 147/98/199 227/85/199 148/85/199
f 248/2/200 26/1/200 25/3/200
f 26/1/201 250/4/201 27/7/201
f 250/4/202 7/6/202 27/7/202
f 250/4/203 231/8/203 233/129/203
f 249/5/204 234/9/204 250/4/204
f 248/2/205 235/10/205 249/5/205
f 230/12/206 248/2/206 232/13/206
f 232/13/207 25/3/207 6/14/207
f 251/15/208 255/16/208 252/18/208
f 252/18/209 256/19/209 253/24/209
f 254/17/210 258/20/210 255/16/210
f 255/16/211 259/22/211 256/19/211
f 230/12/212 251/15/212 236/11/212
f 236/11/213 252/18/213 235/10/213
f 235/10/214 253/24/214 234/9/214
f 253/24/215 231/8/215 234/9/215
f 253/24/216 241/25/216 240/59/216
f 256/19/217 242/26/217 241/25/217
f 259/22/218 229/27/218 242/26/218
f 258/20/219 243/28/219 259/22/219
f 257/21/220 244/29/220 258/20/220
f 228/31/221 257/21/221 237/32/221
f 238/33/222 257/21/222 254/17/222
f 239/23/223 254/17/223 251/15/223
f 261/37/224 45/38/224 262/41/224
f 228/31/225 260/39/225 245/30/225
f 245/30/226 261/37/226 244/29/226
f 244/29/227 262/41/227 243/28/227
f 262/41/228 229/27/228 243/28/228
f 45/38/229 247/42/229 262/41/229
f 246/40/230 43/36/230 260/39/230
f 46/44/231 264/45/231 263/50/231
f 48/46/232 265/47/232 264/45/232
f 6/49/233 263/50/233 232/51/233
f 232/51/234 239/23/234 230/12/234
f 263/50/235 238/33/235 239/23/235
f 264/45/236 237/32/236 238/33/236
f 265/47/237 228/31/237 237/32/237
f 21/53/238 265/47/238 50/48/238
f 266/54/239 55/55/239 53/61/239
f 267/56/240 57/57/240 55/55/240
f 231/8/241 266/54/241 233/60/241
f 233/60/242 53/61/242 7/130/242
f 247/62/243 57/57/243 268/58/243
f 229/27/244 268/58/244 242/26/244
f 241/25/245 268/58/245 267/56/245
f 240/59/246 267/56/246 266/54/246
f 269/63/247 272/64/247 270/97/247
f 271/65/248 274/66/248 272/64/248
f 273/67/249 276/68/249 274/66/249
f 277/70/250 276/68/250 275/69/250
f 278/71/251 280/124/251 274/73/251
f 279/75/252 278/74/252 277/70/252
f 269/77/253 280/76/253 279/75/253
f 271/80/254 277/78/254 273/131/254
f 86/81/255 297/82/255 72/97/255
f 300/84/256 80/85/256 298/98/256
f 79/88/257 289/87/257 285/8/257
f 283/89/258 289/87/258 288/94/258
f 283/89/259 287/90/259 281/91/259
f 71/63/260 287/90/260 81/95/260
f 85/92/261 300/84/261 289/87/261
f 289/87/262 301/93/262 288/94/262
f 288/94/263 299/83/263 287/90/263
f 81/95/264 299/83/264 86/81/264
f 294/96/265 297/82/265 296/96/265
f 293/82/266 72/97/266 297/82/266
f 298/98/267 294/96/267 296/96/267
f 80/85/268 295/98/268 298/98/268
f 284/99/269 297/82/269 282/102/269
f 286/100/270 296/96/270 284/99/270
f 297/82/271 290/101/271 282/102/271
f 300/84/272 286/100/272 292/103/272
f 301/93/273 292/103/273 291/104/273
f 290/101/274 301/93/274 291/104/274
f 348/105/275 304/100/275 347/110/275
f 307/103/276 349/106/276 350/107/276
f 352/108/277 302/102/277 351/109/277
f 302/102/278 348/105/278 351/109/278
f 349/106/279 305/101/279 352/108/279
f 304/100/280 350/107/280 347/110/280
f 308/102/281 353/111/281 354/112/281
f 356/113/282 311/101/282 355/115/282
f 358/114/283 313/103/283 357/107/283
f 353/111/284 310/100/284 358/114/284
f 313/103/285 356/113/285 357/107/285
f 311/101/286 354/112/286 355/115/286
f 315/99/287 310/100/287 309/99/287
f 333/103/288 312/104/288 313/103/288
f 317/101/289 308/102/289 311/101/289
f 308/102/290 315/99/290 309/99/290
f 318/104/291 311/101/291 312/104/291
f 310/100/292 319/103/292 313/103/292
f 314/102/293 321/99/293 315/99/293
f 324/104/294 317/101/294 318/104/294
f 322/100/295 319/103/295 316/100/295
f 315/99/296 322/100/296 316/100/296
f 319/103/297 324/104/297 318/104/297
f 317/101/298 320/102/298 314/102/298
f 331/103/299 324/104/299 325/103/299
f 323/101/300 326/102/300 320/102/300
f 326/102/301 321/99/301 320/102/301
f 324/104/302 329/101/302 323/101/302
f 328/100/303 325/103/303 322/100/303
f 321/99/304 328/100/304 322/100/304
f 337/103/305 332/104/305 333/103/305
f 332/104/306 318/104/306 312/104/306
f 334/104/307 319/103/307 318/104/307
f 319/103/308 333/103/308 313/103/308
f 339/103/309 341/103/309 337/103/309
f 335/103/310 337/103/310 333/103/310
f 338/104/311 335/103/311 334/104/311
f 336/104/312 334/104/312 332/104/312
f 341/103/313 342/104/313 340/104/313
f 342/104/314 339/103/314 338/104/314
f 340/104/315 338/104/315 336/104/315
f 341/103/316 336/104/316 337/103/316
f 295/98/317 345/96/317 294/96/317
f 344/82/318 91/97/318 293/82/318
f 148/85/319 295/98/319 95/85/319
f 345/96/320 293/82/320 294/96/320
f 328/100/321 330/104/321 331/103/321
f 327/99/322 329/101/322 330/104/322
f 347/110/323 292/103/323 286/100/323
f 291/104/324 352/108/324 290/101/324
f 282/102/325 348/105/325 284/99/325
f 290/101/326 351/109/326 282/102/326
f 350/107/327 291/104/327 292/103/327
f 348/105/328 286/100/328 284/99/328
f 355/115/329 302/102/329 305/101/329
f 357/107/330 306/104/330 307/103/330
f 303/99/331 358/114/331 304/100/331
f 304/100/332 357/107/332 307/103/332
f 306/104/333 355/115/333 305/101/333
f 354/112/334 303/99/334 302/102/334
f 361/65/335 360/97/335 359/63/335
f 361/65/336 364/66/336 362/64/336
f 363/67/337 366/68/337 364/66/337
f 367/70/338 366/68/338 365/69/338
f 368/74/339 373/68/339 366/68/339
f 416/116/340 359/63/340 360/97/340
f 162/97/341 171/75/341 415/116/341
f 381/65/342 386/67/342 387/117/342
f 177/76/343 379/74/343 374/74/343
f 372/66/344 362/64/344 364/66/344
f 362/64/345 370/97/345 360/97/345
f 373/68/346 364/66/346 366/68/346
f 379/71/347 183/124/347 375/132/347
f 378/68/348 372/66/348 373/68/348
f 371/64/349 375/97/349 370/97/349
f 375/118/350 177/76/350 370/118/350
f 379/74/351 373/68/351 374/74/351
f 377/66/352 371/64/352 372/66/352
f 384/70/353 399/75/353 385/75/353
f 384/70/354 388/75/354 389/70/354
f 380/63/355 387/117/355 390/63/355
f 386/67/356 383/69/356 391/119/356
f 388/75/357 380/77/357 390/122/357
f 383/69/358 389/70/358 391/119/358
f 391/119/359 410/70/359 408/120/359
f 407/121/360 390/122/360 411/77/360
f 406/67/361 391/119/361 408/120/361
f 411/63/362 387/117/362 409/123/362
f 389/70/363 407/121/363 410/70/363
f 409/123/364 386/67/364 406/67/364
f 183/76/365 200/116/365 375/118/365
f 197/116/366 379/116/366 196/116/366
f 198/116/367 378/116/367 197/116/367
f 196/116/368 379/71/368 183/124/368
f 199/116/369 375/116/369 376/116/369
f 392/116/370 199/116/370 376/116/370
f 198/116/371 393/116/371 377/116/371
f 393/73/372 376/125/372 377/73/372
f 399/79/373 397/126/373 395/80/373
f 396/67/374 383/69/374 382/67/374
f 394/63/375 381/65/375 380/63/375
f 385/75/376 394/77/376 380/77/376
f 383/69/377 398/70/377 384/70/377
f 395/65/378 382/67/378 381/65/378
f 361/65/379 403/67/379 363/67/379
f 401/127/380 369/75/380 367/70/380
f 359/63/381 400/123/381 361/65/381
f 363/67/382 405/69/382 365/69/382
f 404/121/383 359/77/383 369/75/383
f 405/69/384 367/70/384 365/69/384
f 400/123/385 406/67/385 403/67/385
f 410/70/386 404/121/386 401/127/386
f 402/63/387 409/123/387 400/123/387
f 403/67/388 408/120/388 405/69/388
f 404/121/389 411/77/389 402/77/389
f 408/120/390 401/127/390 405/69/390
f 281/116/391 204/116/391 392/116/391
f 203/116/392 285/116/392 393/116/392
f 283/128/393 281/125/393 392/125/393
f 413/96/394 344/82/394 345/96/394
f 414/98/395 345/96/395 346/98/395
f 344/82/396 223/97/396 144/97/396
f 227/85/397 346/98/397 148/85/397
f 415/116/398 176/74/398 177/76/398
f 416/116/399 374/74/399 368/74/399
f 172/118/400 415/116/400 177/76/400
f 416/116/401 370/118/401 177/76/401
f 26/1/402 29/5/402 28/2/402
f 26/1/403 27/7/403 30/4/403
f 7/6/404 8/129/404 30/4/404
f 30/4/405 8/129/405 4/8/405
f 29/5/406 30/4/406 9/9/406
f 28/2/407 29/5/407 10/10/407
f 28/2/408 11/11/408 3/12/408
f 25/3/409 28/2/409 5/13/409
f 31/15/410 32/18/410 35/16/410
f 32/18/411 33/24/411 36/19/411
f 34/17/412 35/16/412 38/20/412
f 35/16/413 36/19/413 39/22/413
f 3/12/414 11/11/414 31/15/414
f 11/11/415 10/10/415 32/18/415
f 10/10/416 9/9/416 33/24/416
f 4/8/417 15/59/417 33/24/417
f 33/24/418 15/59/418 16/25/418
f 36/19/419 16/25/419 17/26/419
f 39/22/420 17/26/420 2/27/420
f 38/20/421 39/22/421 18/28/421
f 37/21/422 38/20/422 19/29/422
f 37/21/423 20/30/423 1/31/423
f 13/33/424 34/17/424 37/21/424
f 14/23/425 31/15/425 34/17/425
f 43/36/426 40/39/426 44/34/426
f 40/39/427 41/37/427 44/34/427
f 41/37/428 42/41/428 45/38/428
f 1/31/429 20/30/429 40/39/429
f 20/30/430 19/29/430 41/37/430
f 19/29/431 18/28/431 42/41/431
f 2/27/432 23/42/432 42/41/432
f 23/42/433 24/133/433 45/38/433
f 22/40/434 40/39/434 43/36/434
f 46/44/435 47/50/435 49/45/435
f 48/46/436 49/45/436 51/47/436
f 6/49/437 5/51/437 47/50/437
f 5/51/438 3/12/438 14/23/438
f 47/50/439 14/23/439 13/33/439
f 49/45/440 13/33/440 12/32/440
f 51/47/441 12/32/441 1/31/441
f 51/47/442 22/52/442 21/53/442
f 52/54/443 53/61/443 55/55/443
f 54/56/444 55/55/444 57/57/444
f 4/8/445 8/60/445 52/54/445
f 8/60/446 7/130/446 53/61/446
f 57/57/447 24/134/447 23/62/447
f 56/58/448 23/62/448 2/27/448
f 16/25/449 54/56/449 56/58/449
f 15/59/450 52/54/450 54/56/450
f 59/63/49 60/97/49 62/64/49
f 61/65/50 62/64/50 64/66/50
f 63/67/51 64/66/51 66/68/51
f 66/68/451 68/74/451 67/70/451
f 64/73/53 62/125/53 68/71/53
f 62/125/53 60/135/53 70/124/53
f 68/71/53 62/125/53 70/124/53
f 68/74/54 70/76/54 69/75/54
f 70/76/55 60/118/55 59/77/55
f 69/79/56 59/136/56 61/80/56
f 61/80/56 63/131/56 67/78/56
f 63/131/56 65/126/56 67/78/56
f 86/81/452 72/97/452 97/82/452
f 100/84/453 98/98/453 80/85/453
f 84/87/454 85/92/454 79/88/454
f 75/89/455 83/94/455 84/87/455
f 82/90/456 83/94/456 75/89/456
f 71/63/457 81/95/457 82/90/457
f 100/84/458 90/86/458 85/92/458
f 101/93/459 100/84/459 84/87/459
f 99/83/460 101/93/460 83/94/460
f 81/95/461 86/81/461 99/83/461
f 97/82/462 92/82/462 93/96/462
f 72/97/463 91/97/463 92/82/463
f 98/98/464 96/96/464 93/96/464
f 80/85/465 98/98/465 94/98/465
f 76/99/466 74/102/466 97/82/466
f 78/100/467 76/99/467 96/96/467
f 87/101/468 99/83/468 97/82/468
f 78/100/469 98/98/469 100/84/469
f 89/103/470 100/84/470 101/93/470
f 87/101/471 88/104/471 101/93/471
f 150/105/472 149/110/472 104/100/472
f 151/106/473 106/104/473 107/103/473
f 154/108/474 153/109/474 102/102/474
f 150/105/475 103/99/475 102/102/475
f 151/106/476 154/108/476 105/101/476
f 152/107/477 107/103/477 104/100/477
f 155/111/478 109/99/478 108/102/478
f 158/113/479 157/115/479 111/101/479
f 160/114/480 159/107/480 113/103/480
f 155/111/481 160/114/481 110/100/481
f 158/113/482 112/104/482 113/103/482
f 156/112/483 108/102/483 111/101/483
f 110/100/484 116/100/484 115/99/484
f 112/104/485 132/104/485 133/103/485
f 108/102/486 114/102/486 117/101/486
f 108/102/487 109/99/487 115/99/487
f 111/101/488 117/101/488 118/104/488
f 110/100/489 113/103/489 119/103/489
f 114/102/490 115/99/490 121/99/490
f 117/101/96 123/101/96 124/104/96
f 119/103/491 125/103/491 122/100/491
f 115/99/492 116/100/492 122/100/492
f 119/103/99 118/104/99 124/104/99
f 117/101/493 114/102/493 120/102/493
f 124/104/494 130/104/494 131/103/494
f 123/101/495 120/102/495 126/102/495
f 121/99/496 127/99/496 126/102/496
f 124/104/497 123/101/497 129/101/497
f 125/103/498 131/103/498 128/100/498
f 121/99/499 122/100/499 128/100/499
f 132/104/107 136/104/107 137/103/107
f 118/104/500 134/104/500 132/104/500
f 119/103/501 135/103/501 134/104/501
f 119/103/502 113/103/502 133/103/502
f 139/103/503 137/103/503 141/103/503
f 135/103/112 133/103/112 137/103/112
f 135/103/113 139/103/113 138/104/113
f 134/104/114 138/104/114 136/104/114
f 141/103/504 140/104/504 142/104/504
f 139/103/505 143/103/505 142/104/505
f 138/104/506 142/104/506 140/104/506
f 136/104/507 140/104/507 141/103/507
f 94/98/508 93/96/508 146/96/508
f 91/97/509 144/97/509 145/82/509
f 94/98/510 147/98/510 148/85/510
f 92/82/511 145/82/511 146/96/511
f 128/100/512 131/103/512 130/104/512
f 127/99/513 130/104/513 129/101/513
f 89/103/514 152/107/514 149/110/514
f 88/104/515 87/101/515 154/108/515
f 74/102/516 76/99/516 150/105/516
f 87/101/517 74/102/517 153/109/517
f 88/104/518 151/106/518 152/107/518
f 78/100/519 149/110/519 150/105/519
f 102/102/520 156/112/520 157/115/520
f 106/104/521 158/113/521 159/107/521
f 103/99/522 104/100/522 160/114/522
f 104/100/523 107/103/523 159/107/523
f 106/104/524 105/101/524 157/115/524
f 103/99/525 155/111/525 156/112/525
f 162/97/526 164/64/526 163/65/526
f 163/65/527 164/64/527 166/66/527
f 165/67/528 166/66/528 168/68/528
f 168/68/529 170/74/529 169/70/529
f 170/74/530 168/68/530 175/68/530
f 368/74/531 367/70/531 369/75/531
f 170/74/532 415/116/532 171/75/532
f 190/67/533 186/67/533 185/65/533
f 177/76/534 176/74/534 182/74/534
f 164/64/535 173/64/535 174/66/535
f 164/64/536 162/97/536 172/97/536
f 166/66/537 174/66/537 175/68/537
f 180/73/538 179/125/538 182/71/538
f 179/125/539 178/132/539 182/71/539
f 178/132/540 183/124/540 182/71/540
f 174/66/541 180/66/541 181/68/541
f 173/64/542 172/97/542 178/97/542
f 177/76/543 183/76/543 178/118/543
f 175/68/544 181/68/544 182/74/544
f 173/64/545 179/64/545 180/66/545
f 188/70/546 189/75/546 210/75/546
f 192/75/547 189/75/547 188/70/547
f 191/117/548 185/65/548 184/63/548
f 190/67/549 195/119/549 187/69/549
f 192/75/550 194/122/550 184/77/550
f 193/70/551 188/70/551 187/69/551
f 221/70/552 193/70/552 195/119/552
f 218/121/553 222/77/553 194/122/553
f 217/67/554 219/120/554 195/119/554
f 222/63/555 220/123/555 191/117/555
f 218/121/556 192/75/556 193/70/556
f 220/123/557 217/67/557 190/67/557
f 182/116/558 181/116/558 197/116/558
f 181/116/559 180/116/559 198/116/559
f 199/116/560 179/116/560 178/116/560
f 199/116/561 204/116/561 201/116/561
f 198/116/562 180/116/562 202/116/562
f 179/125/563 201/125/563 202/73/563
f 210/79/564 205/137/564 206/80/564
f 206/80/565 207/131/565 208/126/565
f 208/126/566 209/78/566 210/79/566
f 187/69/567 208/69/567 207/67/567
f 185/65/568 206/65/568 205/63/568
f 189/75/569 184/77/569 205/77/569
f 187/69/570 188/70/570 209/70/570
f 186/67/571 207/67/571 206/65/571
f 163/65/572 165/67/572 214/67/572
f 171/75/573 215/121/573 212/127/573
f 161/63/574 163/65/574 211/123/574
f 165/67/575 167/69/575 216/69/575
f 161/77/576 213/77/576 215/121/576
f 169/70/577 212/127/577 216/69/577
f 211/123/578 214/67/578 217/67/578
f 215/121/579 218/121/579 221/70/579
f 213/63/580 211/123/580 220/123/580
f 214/67/581 216/69/581 219/120/581
f 215/121/582 213/77/582 222/77/582
f 212/127/583 221/70/583 219/120/583
f 204/116/584 71/116/584 73/116/584
f 203/116/585 202/116/585 77/116/585
f 77/73/586 202/73/586 75/128/586
f 202/73/587 201/125/587 75/128/587
f 145/82/588 224/82/588 225/96/588
f 146/96/197 225/96/197 226/98/197
f 145/82/589 144/97/589 223/97/589
f 147/98/590 226/98/590 227/85/590
f 248/2/591 249/5/591 26/1/591
f 26/1/592 249/5/592 250/4/592
f 250/4/593 233/129/593 7/6/593
f 250/4/594 234/9/594 231/8/594
f 249/5/595 235/10/595 234/9/595
f 248/2/596 236/11/596 235/10/596
f 230/12/597 236/11/597 248/2/597
f 232/13/598 248/2/598 25/3/598
f 251/15/599 254/17/599 255/16/599
f 252/18/600 255/16/600 256/19/600
f 254/17/601 257/21/601 258/20/601
f 255/16/602 258/20/602 259/22/602
f 230/12/603 239/23/603 251/15/603
f 236/11/604 251/15/604 252/18/604
f 235/10/605 252/18/605 253/24/605
f 253/24/606 240/59/606 231/8/606
f 253/24/607 256/19/607 241/25/607
f 256/19/608 259/22/608 242/26/608
f 259/22/609 243/28/609 229/27/609
f 258/20/610 244/29/610 243/28/610
f 257/21/611 245/30/611 244/29/611
f 228/31/612 245/30/612 257/21/612
f 238/33/613 237/32/613 257/21/613
f 239/23/614 238/33/614 254/17/614
f 261/37/615 260/39/615 44/34/615
f 260/39/616 43/36/616 44/34/616
f 261/37/617 44/34/617 45/38/617
f 228/31/618 246/40/618 260/39/618
f 245/30/619 260/39/619 261/37/619
f 244/29/620 261/37/620 262/41/620
f 262/41/621 247/42/621 229/27/621
f 45/38/622 24/133/622 247/42/622
f 246/40/623 21/43/623 43/36/623
f 46/44/624 48/46/624 264/45/624
f 48/46/625 50/48/625 265/47/625
f 6/49/626 46/44/626 263/50/626
f 232/51/627 263/50/627 239/23/627
f 263/50/628 264/45/628 238/33/628
f 264/45/629 265/47/629 237/32/629
f 265/47/630 246/52/630 228/31/630
f 21/53/631 246/52/631 265/47/631
f 266/54/632 267/56/632 55/55/632
f 267/56/633 268/58/633 57/57/633
f 231/8/634 240/59/634 266/54/634
f 233/60/635 266/54/635 53/61/635
f 247/62/636 24/134/636 57/57/636
f 229/27/637 247/62/637 268/58/637
f 241/25/638 242/26/638 268/58/638
f 240/59/639 241/25/639 267/56/639
f 269/63/247 271/65/247 272/64/247
f 271/65/248 273/67/248 274/66/248
f 273/67/249 275/69/249 276/68/249
f 277/70/250 278/74/250 276/68/250
f 270/135/251 272/125/251 280/124/251
f 272/125/251 274/73/251 280/124/251
f 274/73/251 276/72/251 278/71/251
f 279/75/252 280/76/252 278/74/252
f 269/77/253 270/118/253 280/76/253
f 271/80/254 269/136/254 279/79/254
f 279/79/254 277/78/254 271/80/254
f 277/78/254 275/126/254 273/131/254
f 86/81/640 299/83/640 297/82/640
f 300/84/641 90/86/641 80/85/641
f 79/88/642 85/92/642 289/87/642
f 283/89/643 285/8/643 289/87/643
f 283/89/644 288/94/644 287/90/644
f 71/63/645 281/91/645 287/90/645
f 85/92/646 90/86/646 300/84/646
f 289/87/647 300/84/647 301/93/647
f 288/94/648 301/93/648 299/83/648
f 81/95/649 287/90/649 299/83/649
f 294/96/650 293/82/650 297/82/650
f 293/82/651 91/97/651 72/97/651
f 298/98/652 295/98/652 294/96/652
f 80/85/653 95/85/653 295/98/653
f 284/99/654 296/96/654 297/82/654
f 286/100/655 298/98/655 296/96/655
f 297/82/656 299/83/656 290/101/656
f 300/84/657 298/98/657 286/100/657
f 301/93/658 300/84/658 292/103/658
f 290/101/659 299/83/659 301/93/659
f 348/105/660 303/99/660 304/100/660
f 307/103/661 306/104/661 349/106/661
f 352/108/662 305/101/662 302/102/662
f 302/102/663 303/99/663 348/105/663
f 349/106/664 306/104/664 305/101/664
f 304/100/665 307/103/665 350/107/665
f 308/102/666 309/99/666 353/111/666
f 356/113/667 312/104/667 311/101/667
f 358/114/668 310/100/668 313/103/668
f 353/111/669 309/99/669 310/100/669
f 313/103/670 312/104/670 356/113/670
f 311/101/671 308/102/671 354/112/671
f 315/99/672 316/100/672 310/100/672
f 333/103/673 332/104/673 312/104/673
f 317/101/674 314/102/674 308/102/674
f 308/102/675 314/102/675 315/99/675
f 318/104/676 317/101/676 311/101/676
f 310/100/677 316/100/677 319/103/677
f 314/102/678 320/102/678 321/99/678
f 324/104/294 323/101/294 317/101/294
f 322/100/679 325/103/679 319/103/679
f 315/99/680 321/99/680 322/100/680
f 319/103/297 325/103/297 324/104/297
f 317/101/681 323/101/681 320/102/681
f 331/103/682 330/104/682 324/104/682
f 323/101/683 329/101/683 326/102/683
f 326/102/684 327/99/684 321/99/684
f 324/104/685 330/104/685 329/101/685
f 328/100/686 331/103/686 325/103/686
f 321/99/687 327/99/687 328/100/687
f 337/103/305 336/104/305 332/104/305
f 332/104/688 334/104/688 318/104/688
f 334/104/689 335/103/689 319/103/689
f 319/103/690 335/103/690 333/103/690
f 339/103/691 343/103/691 341/103/691
f 335/103/310 339/103/310 337/103/310
f 338/104/311 339/103/311 335/103/311
f 336/104/312 338/104/312 334/104/312
f 341/103/692 343/103/692 342/104/692
f 342/104/693 343/103/693 339/103/693
f 340/104/694 342/104/694 338/104/694
f 341/103/695 340/104/695 336/104/695
f 295/98/696 346/98/696 345/96/696
f 344/82/697 144/97/697 91/97/697
f 148/85/698 346/98/698 295/98/698
f 345/96/699 344/82/699 293/82/699
f 328/100/700 327/99/700 330/104/700
f 327/99/701 326/102/701 329/101/701
f 347/110/702 350/107/702 292/103/702
f 291/104/703 349/106/703 352/108/703
f 282/102/704 351/109/704 348/105/704
f 290/101/705 352/108/705 351/109/705
f 350/107/706 349/106/706 291/104/706
f 348/105/707 347/110/707 286/100/707
f 355/115/708 354/112/708 302/102/708
f 357/107/709 356/113/709 306/104/709
f 303/99/710 353/111/710 358/114/710
f 304/100/711 358/114/711 357/107/711
f 306/104/712 356/113/712 355/115/712
f 354/112/713 353/111/713 303/99/713
f 361/65/714 362/64/714 360/97/714
f 361/65/715 363/67/715 364/66/715
f 363/67/716 365/69/716 366/68/716
f 367/70/717 368/74/717 366/68/717
f 368/74/718 374/74/718 373/68/718
f 416/116/719 369/75/719 359/63/719
f 162/97/720 161/63/720 171/75/720
f 381/65/721 382/67/721 386/67/721
f 177/76/722 183/76/722 379/74/722
f 372/66/723 371/64/723 362/64/723
f 362/64/724 371/64/724 370/97/724
f 373/68/725 372/66/725 364/66/725
f 375/132/726 376/125/726 379/71/726
f 376/125/727 377/73/727 379/71/727
f 377/73/728 378/72/728 379/71/728
f 378/68/729 377/66/729 372/66/729
f 371/64/730 376/64/730 375/97/730
f 375/118/731 183/76/731 177/76/731
f 379/74/732 378/68/732 373/68/732
f 377/66/733 376/64/733 371/64/733
f 384/70/734 398/70/734 399/75/734
f 384/70/735 385/75/735 388/75/735
f 380/63/736 381/65/736 387/117/736
f 386/67/737 382/67/737 383/69/737
f 388/75/738 385/75/738 380/77/738
f 383/69/739 384/70/739 389/70/739
f 391/119/740 389/70/740 410/70/740
f 407/121/741 388/75/741 390/122/741
f 406/67/742 386/67/742 391/119/742
f 411/63/743 390/63/743 387/117/743
f 389/70/744 388/75/744 407/121/744
f 409/123/745 387/117/745 386/67/745
f 197/116/746 378/116/746 379/116/746
f 198/116/747 377/116/747 378/116/747
f 199/116/748 200/116/748 375/116/748
f 392/116/749 204/116/749 199/116/749
f 198/116/750 203/116/750 393/116/750
f 393/73/751 392/125/751 376/125/751
f 395/80/752 394/137/752 399/79/752
f 399/79/373 398/78/373 397/126/373
f 397/126/373 396/131/373 395/80/373
f 396/67/753 397/69/753 383/69/753
f 394/63/754 395/65/754 381/65/754
f 385/75/755 399/75/755 394/77/755
f 383/69/756 397/69/756 398/70/756
f 395/65/757 396/67/757 382/67/757
f 361/65/758 400/123/758 403/67/758
f 401/127/759 404/121/759 369/75/759
f 359/63/760 402/63/760 400/123/760
f 363/67/761 403/67/761 405/69/761
f 404/121/762 402/77/762 359/77/762
f 405/69/763 401/127/763 367/70/763
f 400/123/764 409/123/764 406/67/764
f 410/70/765 407/121/765 404/121/765
f 402/63/766 411/63/766 409/123/766
f 403/67/767 406/67/767 408/120/767
f 404/121/768 407/121/768 411/77/768
f 408/120/769 410/70/769 401/127/769
f 281/116/770 71/116/770 204/116/770
f 203/116/771 79/116/771 285/116/771
f 392/125/772 393/73/772 283/128/772
f 393/73/773 285/73/773 283/128/773
f 413/96/774 412/82/774 344/82/774
f 414/98/395 413/96/395 345/96/395
f 344/82/775 412/82/775 223/97/775
f 227/85/776 414/98/776 346/98/776
f 415/116/777 170/74/777 176/74/777
f 416/116/778 177/76/778 374/74/778
f 172/118/779 162/97/779 415/116/779
f 416/116/780 360/97/780 370/118/780
