# Blender 5.0.0
# www.blender.org
o body
v 0.496492 -0.836496 10.506145
v 0.583336 -0.739346 11.777083
v 0.476577 0.278155 10.573403
v 0.565221 0.486406 11.812796
v 0.246627 0.341088 10.477514
v -0.000000 0.369678 10.422833
v -0.000000 0.658669 11.946441
v 0.340386 0.599495 11.901926
v 0.631619 0.554539 11.571463
v 0.646511 0.545035 11.212571
v 0.576865 0.424383 10.840792
v 0.562963 -0.631520 10.420049
v 0.591550 -0.317049 10.391346
v 0.550611 0.022595 10.462442
v 0.654626 0.225672 11.892130
v 0.703310 -0.145583 11.925025
v 0.665741 -0.502555 11.871181
v 0.654036 -0.830154 11.524180
v 0.671875 -0.892060 11.151504
v 0.600616 -0.885222 10.772009
v -0.000000 -0.970373 10.340251
v 0.267098 -0.925011 10.399311
v 0.358752 -0.817453 11.864887
v -0.000000 -0.856363 11.910075
v -0.000000 0.674132 10.794072
v -0.000000 0.858995 11.212768
v -0.000000 0.860968 11.618462
v 0.290903 0.614872 10.820024
v 0.337850 0.778810 11.216044
v 0.344425 0.778265 11.598785
v 0.749642 0.108478 10.800476
v 0.841644 0.194318 11.197898
v 0.811618 0.221480 11.583593
v 0.812126 -0.260919 10.757320
v 0.912852 -0.205322 11.178112
v 0.878665 -0.167071 11.589332
v 0.764291 -0.610047 10.760002
v 0.857600 -0.587271 11.161827
v 0.825386 -0.539852 11.555961
v 0.317045 -1.052687 10.735950
v 0.365526 -1.074153 11.020212
v 0.369003 -0.996871 11.543637
v -0.000000 -1.112858 10.758131
v -0.000000 -1.133464 11.015284
v -0.000000 -1.050112 11.563235
v -0.000000 0.004889 10.156656
v 0.255090 0.002209 10.242155
v -0.000000 -0.369841 10.041244
v 0.272938 -0.355472 10.140392
v -0.000000 -0.709899 10.107139
v 0.266506 -0.681006 10.194824
v 0.373244 0.271111 12.078737
v -0.000000 0.302962 12.142593
v 0.399412 -0.129139 12.131362
v -0.000000 -0.120306 12.201092
v 0.383312 -0.515705 12.059703
v -0.000000 -0.530811 12.124270
v -0.000000 -1.256591 10.826392
v 0.899103 0.129189 11.187243
v 0.964296 0.059744 11.208328
v 0.972883 0.157159 11.004884
v 1.038076 0.087714 11.025970
v 0.910948 0.053346 10.761743
v 0.976141 -0.016099 10.782828
v 0.775233 -0.078438 10.700957
v 0.840426 -0.147883 10.722043
v 0.701452 -0.106409 10.883316
v 0.766645 -0.175854 10.904402
v 0.763387 -0.002596 11.126458
v 0.828580 -0.072040 11.147544
v 0.000000 0.608116 7.569904
v -0.000046 0.617469 9.718103
v 0.504716 0.474076 7.384287
v 0.828808 0.351041 9.352478
v 0.598099 0.170519 7.341985
v 0.958612 0.120610 9.617026
v 0.495931 -0.124756 7.303320
v 0.866909 -0.195437 9.497493
v -0.000000 -0.261991 7.430999
v 0.000047 -0.521769 9.408830
v -0.000000 0.657830 8.202963
v 0.570557 0.510919 8.217366
v 0.767174 0.140693 8.210650
v 0.572060 -0.252384 8.210775
v -0.000000 -0.421472 8.202963
v 0.000174 0.708539 9.285200
v 0.704176 0.462454 8.928522
v 0.719074 0.188027 8.772927
v 0.697750 -0.153557 8.888194
v 0.000484 -0.500448 9.079131
v -0.000000 0.515979 9.889239
v 0.439924 0.398634 9.850822
v 0.633960 0.095073 9.838792
v 0.435099 -0.209956 9.841222
v -0.000000 -0.334730 9.681623
v 0.958175 0.122401 9.628656
v 0.710261 0.422225 9.546731
v 0.738423 -0.263859 9.702260
v 0.614507 0.528986 8.807680
v 0.622323 -0.303349 8.976788
v 0.716992 0.179744 8.760544
v 1.569730 0.453226 7.686713
v 1.660864 0.293645 7.692668
v 1.565065 0.073768 7.703687
v 1.165865 0.455641 7.528732
v 1.098702 0.298666 7.470359
v 1.162607 0.076099 7.539189
v 1.947401 0.229142 6.240967
v 2.012804 0.086473 6.261069
v 1.945327 -0.069242 6.299752
v 1.641441 0.216039 6.164856
v 1.587922 0.070373 6.147108
v 1.639919 -0.082908 6.220114
v 1.973523 0.283765 6.150420
v 2.062517 0.095090 6.245408
v 1.991028 -0.180457 6.259630
v 1.819634 0.250495 6.001874
v 1.789907 0.062586 6.025352
v 1.818374 -0.254427 6.089631
v 2.247561 0.280314 5.723694
v 2.304162 0.017224 5.764491
v 2.245858 -0.296025 5.826192
v 2.087083 0.179780 5.565158
v 2.057355 -0.008129 5.588637
v 2.085821 -0.325142 5.652916
v 2.187777 0.100705 5.164824
v 2.198986 -0.084073 5.157658
v 2.187790 -0.299022 5.236405
v 2.097333 0.038037 5.237306
v 2.071043 -0.069978 5.233984
v 2.096620 -0.290328 5.293836
v 1.578687 -0.013073 5.944070
v 1.610126 -0.142555 6.017191
v 1.773653 -0.011413 5.891315
v 1.794014 -0.281750 5.952602
v 1.631562 -0.098128 5.741957
v 1.657323 -0.204225 5.801871
v 1.791316 -0.096767 5.698730
v 1.807999 -0.318281 5.748948
v 1.707453 -0.187715 5.529783
v 1.718263 -0.262796 5.575917
v 1.825262 -0.182350 5.526123
v 1.834456 -0.339865 5.564400
v -0.000000 0.404502 10.019781
v 0.158780 0.287954 9.991385
v 0.252719 0.101461 9.927865
v 0.182110 -0.006843 9.927865
v -0.000000 -0.116119 9.889837
v 1.514659 0.048393 7.810822
v 1.610410 0.274720 7.830823
v 1.079963 0.299336 7.531577
v 1.133277 0.063142 7.597692
v 1.520867 0.441553 7.823987
v 1.137206 0.455604 7.614370
v 1.700050 0.296131 7.570770
v 1.611450 0.452469 7.553775
v 1.200837 0.439196 7.434538
v 1.128618 0.279331 7.399837
v 1.198994 0.070953 7.490492
v 1.607684 0.083456 7.610618
v 0.508210 -0.405850 4.721764
v 0.519509 0.582567 5.870237
v 0.863355 -0.573408 4.754443
v 1.026829 0.293234 6.135751
v 0.863355 -0.797071 4.842870
v 1.028275 -0.193208 6.266021
v 0.508191 -0.994538 4.881499
v 0.513592 -0.466345 6.232006
v 0.152952 -0.817099 4.827015
v 0.144936 -0.140822 6.133567
v 0.153066 -0.583276 4.770903
v 0.512164 0.747757 6.159702
v 1.018175 0.384927 6.327932
v 1.020134 -0.120488 6.435771
v 0.515757 -0.426161 6.321174
v 0.136937 -0.095388 6.201495
v -0.000000 0.824593 6.294779
v 0.418974 0.826582 6.370451
v 0.879472 0.485492 6.834613
v 0.876436 -0.022539 6.809898
v 0.449171 -0.324732 6.561008
v 0.134332 -0.045135 6.290277
v -0.000000 0.869653 6.415768
v 0.430883 1.147563 3.717470
v 0.691277 1.072814 3.587032
v 0.691277 0.923315 3.326154
v 0.430883 0.848557 3.195668
v 0.170489 0.923243 3.325870
v 0.170489 1.072814 3.587032
v 0.822906 -0.573135 4.285543
v 0.822906 -0.439939 4.493543
v 0.152560 -0.464169 4.459018
v 0.152560 -0.601157 4.250913
v 0.487733 -0.348378 4.691270
v 0.487733 -0.997408 4.318747
v -0.000000 -0.035338 6.354460
v -0.000000 -0.235783 6.478762
v -0.000000 -0.286971 6.750866
v -0.000000 0.821648 6.985361
v -0.000000 0.866791 6.667678
v 0.713104 0.435755 7.146284
v 0.709689 -0.067506 7.070500
v -0.000000 -0.241862 7.099881
v 0.000000 0.628045 7.320901
v 0.430883 2.446780 2.727126
v 0.625711 2.415058 2.618044
v 0.625711 2.341183 2.393195
v 0.430883 2.304768 2.286654
v 0.236055 2.335849 2.398715
v 0.236055 2.415125 2.617413
v 0.856043 -0.737908 4.694381
v 0.152881 -0.924545 4.646641
v 0.504509 -0.564112 4.755516
v 0.856043 -0.874010 4.681434
v 0.152975 -0.728849 4.706562
v 0.504493 -1.038677 4.754942
v 0.847217 -0.904162 4.498073
v 0.152864 -0.740444 4.640655
v 0.500029 -1.071911 4.601119
v 0.847217 -0.739931 4.643309
v 0.152795 -0.912606 4.500381
v 0.500040 -0.612521 4.753621
v -0.000000 0.330200 10.660683
v 0.182652 0.209765 10.660683
v 0.252719 0.101461 10.660683
v 0.182110 -0.006843 10.660683
v -0.000000 -0.127185 10.605609
v -0.496493 -0.836496 10.506145
v -0.583336 -0.739346 11.777083
v -0.476577 0.278155 10.573403
v -0.565221 0.486406 11.812796
v -0.246627 0.341088 10.477514
v -0.340386 0.599495 11.901926
v -0.631619 0.554539 11.571463
v -0.646511 0.545035 11.212571
v -0.576865 0.424383 10.840792
v -0.562963 -0.631520 10.420049
v -0.591550 -0.317049 10.391346
v -0.550611 0.022595 10.462442
v -0.654626 0.225672 11.892130
v -0.703310 -0.145583 11.925025
v -0.665741 -0.502555 11.871181
v -0.654036 -0.830154 11.524180
v -0.671875 -0.892060 11.151504
v -0.600616 -0.885222 10.772009
v -0.267098 -0.925011 10.399311
v -0.358752 -0.817453 11.864887
v -0.290903 0.614872 10.820024
v -0.337850 0.778810 11.216044
v -0.344425 0.778265 11.598785
v -0.749642 0.108478 10.800476
v -0.841644 0.194318 11.197898
v -0.811618 0.221480 11.583593
v -0.812126 -0.260919 10.757320
v -0.912852 -0.205322 11.178112
v -0.878665 -0.167071 11.589332
v -0.764291 -0.610047 10.760002
v -0.857600 -0.587271 11.161827
v -0.825386 -0.539852 11.555961
v -0.317045 -1.052687 10.735950
v -0.365526 -1.074153 11.020212
v -0.369003 -0.996871 11.543637
v -0.255090 0.002209 10.242155
v -0.272938 -0.355472 10.140392
v -0.266506 -0.681006 10.194824
v -0.373244 0.271111 12.078737
v -0.399412 -0.129139 12.131362
v -0.383312 -0.515705 12.059703
v -0.899103 0.129189 11.187243
v -0.964296 0.059744 11.208328
v -0.972883 0.157159 11.004884
v -1.038076 0.087714 11.025970
v -0.910948 0.053346 10.761743
v -0.976141 -0.016099 10.782828
v -0.775233 -0.078438 10.700957
v -0.840426 -0.147883 10.722043
v -0.701452 -0.106409 10.883316
v -0.766645 -0.175854 10.904402
v -0.763387 -0.002596 11.126458
v -0.828580 -0.072040 11.147544
v -0.504526 0.476275 7.450085
v -0.822727 0.296790 9.319998
v -0.598793 0.169840 7.407382
v -0.956882 0.110263 9.615416
v -0.495657 -0.139542 7.362491
v -0.863657 -0.219147 9.543628
v -0.567956 0.489030 8.212345
v -0.761966 0.096916 8.211989
v -0.569768 -0.273504 8.217731
v -0.690248 0.350013 8.888609
v -0.702319 0.055415 8.774217
v -0.684495 -0.261839 8.936320
v -0.440466 0.403930 9.845582
v -0.634101 0.097868 9.839282
v -0.435357 -0.206796 9.845796
v -0.956608 0.113806 9.626432
v -0.708826 0.409792 9.521379
v -0.738405 -0.262266 9.721525
v -0.607272 0.471113 8.784463
v -0.616914 -0.342363 9.005239
v -0.701813 0.059668 8.762407
v -1.530371 0.118724 7.656029
v -1.621272 -0.038953 7.684821
v -1.525603 -0.256447 7.724367
v -1.126347 0.096910 7.496634
v -1.059592 -0.067635 7.457576
v -1.122994 -0.279202 7.558636
v -1.962836 -0.231354 6.267155
v -2.028309 -0.371086 6.302143
v -1.960325 -0.523632 6.351179
v -1.660497 -0.254139 6.179696
v -1.608796 -0.401345 6.172281
v -1.658694 -0.547273 6.260281
v -1.992416 -0.184391 6.173430
v -2.078585 -0.363314 6.287897
v -2.008466 -0.637378 6.322694
v -1.845238 -0.231849 6.021968
v -1.815838 -0.417369 6.060213
v -1.843735 -0.727416 6.152583
v -2.284422 -0.221381 5.760430
v -2.341054 -0.479412 5.825980
v -2.282345 -0.786844 5.911826
v -2.131551 -0.336776 5.604519
v -2.102152 -0.522296 5.642763
v -2.130049 -0.832343 5.735134
v -2.249773 -0.448685 5.217015
v -2.262558 -0.633271 5.226201
v -2.249505 -0.840815 5.322557
v -2.156757 -0.505885 5.290751
v -2.131382 -0.614061 5.295609
v -2.155910 -0.828211 5.375160
v -1.608808 -0.501920 5.976942
v -1.637996 -0.624345 6.062152
v -1.805830 -0.502713 5.932454
v -1.825432 -0.766598 6.017503
v -1.670842 -0.603363 5.785262
v -1.694759 -0.703677 5.855083
v -1.832281 -0.604012 5.748809
v -1.848343 -0.820239 5.818498
v -1.756333 -0.709938 5.584922
v -1.765685 -0.780686 5.637738
v -1.874150 -0.703661 5.585754
v -1.882796 -0.857226 5.637753
v -0.158780 0.287954 9.991385
v -0.252719 0.101461 9.927865
v -0.182110 -0.006843 9.927865
v -1.479788 -0.260231 7.835479
v -1.575550 -0.033441 7.818090
v -1.040745 -0.057114 7.524770
v -1.095116 -0.280088 7.627024
v -1.485912 0.130517 7.785711
v -1.099093 0.110787 7.581614
v -1.659702 -0.052827 7.571621
v -1.571013 0.100482 7.536179
v -1.164092 0.071187 7.405611
v -1.094142 -0.091977 7.383315
v -1.161846 -0.290763 7.497153
v -1.566937 -0.261769 7.629589
v -0.508053 0.817112 4.693069
v -0.519458 0.896399 6.103835
v -0.866564 0.597770 4.656209
v -1.031588 0.579071 6.275673
v -0.866564 0.318806 4.628990
v -1.033048 0.090770 6.137532
v -0.508034 0.114096 4.610874
v -0.513485 -0.140641 5.970707
v -0.149427 0.329860 4.643091
v -0.141336 0.101879 6.063784
v -0.149542 0.615246 4.678596
v -0.512044 0.915711 6.402670
v -1.022851 0.544463 6.470239
v -1.024829 0.048566 6.328793
v -0.515671 -0.177403 6.086641
v -0.133260 0.063323 6.162693
v -0.417971 0.906089 6.577270
v -0.882834 0.481056 6.906715
v -0.879769 -0.050999 6.786006
v -0.448454 -0.251159 6.370809
v -0.130631 0.020343 6.297422
v -0.429993 1.245750 2.322064
v -0.658826 1.117188 2.291626
v -0.658826 0.860062 2.230752
v -0.429993 0.731499 2.200316
v -0.201160 0.860062 2.230752
v -0.201160 1.117188 2.291626
v -0.825732 0.514183 3.990682
v -0.825732 0.760655 4.036309
v -0.149031 0.718499 4.030329
v -0.149031 0.472026 3.984702
v -0.487381 0.973664 4.107693
v -0.487381 0.216540 4.294351
v -0.714889 0.435435 7.210789
v -0.711441 -0.100687 7.109021
v -0.429993 1.441220 0.691245
v -0.608102 1.343986 0.652888
v -0.608102 1.140091 0.599390
v -0.429993 1.040237 0.573810
v -0.251883 1.140560 0.601961
v -0.251883 1.343821 0.652723
v -0.859183 0.627124 4.544150
v -0.149356 0.355482 4.524041
v -0.504316 0.852172 4.588243
v -0.859183 0.354066 4.513577
v -0.149450 0.633831 4.561409
v -0.504300 0.132594 4.553645
v -0.850273 0.396652 4.374276
v -0.149339 0.656341 4.419963
v -0.499794 0.154929 4.484568
v -0.850273 0.662648 4.408894
v -0.149269 0.386484 4.380375
v -0.499806 0.856727 4.456335
v -0.182652 0.209765 10.660683
v -0.252719 0.101461 10.660683
v -0.182110 -0.006843 10.660683
v 0.213411 0.578155 6.066604
v -0.199640 0.746284 6.135182
vn 0.2171 0.8930 -0.3943
vn 0.2309 0.9730 -0.0026
vn 0.2282 0.8287 0.5111
vn 0.5934 0.7171 0.3657
vn 0.6038 0.7971 0.0039
vn 0.5368 0.7678 -0.3497
vn 0.4335 0.6757 -0.5962
vn 0.2244 0.7535 -0.6180
vn 0.9488 0.1900 -0.2522
vn 0.9829 0.1719 0.0657
vn 0.9669 -0.1341 -0.2169
vn 0.9843 -0.1466 0.0981
vn 0.7198 0.4412 -0.5359
vn 0.8218 0.4872 -0.2955
vn 0.8739 0.4848 0.0339
vn 0.8176 0.4547 0.3533
vn 0.8793 0.1584 0.4492
vn 0.8717 -0.1659 0.4611
vn 0.7717 -0.4987 0.3948
vn 0.8452 -0.5193 0.1267
vn 0.8441 -0.5094 -0.1677
vn 0.7852 -0.4383 -0.4373
vn 0.8572 -0.1236 -0.4999
vn 0.8229 0.2097 -0.5281
vn 1.0000 -0.0000 -0.0000
vn 0.1564 -0.9765 0.1485
vn 0.4800 -0.7943 -0.3725
vn 0.5169 -0.8425 -0.1518
vn 0.4664 -0.8756 0.1262
vn 0.4808 -0.7739 0.4123
vn 0.1500 -0.8611 0.4857
vn 0.2261 -0.9220 -0.3144
vn 0.3148 0.2794 -0.9071
vn 0.3250 -0.1799 -0.9284
vn 0.2669 0.5681 -0.7785
vn 0.4934 0.5045 -0.7086
vn 0.5804 0.2495 -0.7751
vn 0.6137 -0.1420 -0.7766
vn 0.5175 -0.5489 -0.6564
vn 0.3026 -0.6356 -0.7102
vn 0.1733 0.1395 0.9749
vn 0.1703 -0.1865 0.9676
vn 0.5492 0.4099 0.7283
vn 0.1876 0.4801 0.8569
vn 0.1601 -0.5446 0.8233
vn 0.5064 -0.4648 0.7263
vn 0.5518 -0.1809 0.8141
vn 0.5611 0.1458 0.8148
vn 0.6237 0.6944 0.3588
vn 0.7220 0.5506 -0.4190
vn 0.3616 0.0569 -0.9306
vn -0.6237 -0.6944 -0.3589
vn 0.6532 -0.7421 0.1505
vn -0.7220 -0.5506 0.4190
vn -0.3616 -0.0569 0.9306
vn -0.6532 0.7421 -0.1505
vn 0.3436 0.9348 0.0905
vn 0.2924 -0.9543 -0.0613
vn 0.2264 -0.9617 -0.1543
vn 0.9427 -0.3101 -0.1227
vn 0.9485 0.3041 -0.0884
vn 0.2350 0.9700 -0.0615
vn 0.2835 -0.9554 -0.0822
vn 0.8900 -0.4418 0.1126
vn 0.8798 0.4687 -0.0798
vn 0.2502 0.9670 -0.0482
vn 0.4224 0.5468 0.7229
vn 0.3268 0.8745 0.3584
vn 0.3702 -0.2342 0.8989
vn 0.0291 -0.8244 0.5653
vn 0.7778 0.6249 -0.0670
vn 0.8309 -0.3987 0.3881
vn 0.5705 0.8199 0.0477
vn 0.7929 -0.5519 -0.2581
vn 0.9901 -0.0963 -0.1021
vn 0.8374 0.3068 -0.4524
vn 0.8869 -0.3727 0.2728
vn -0.8171 -0.3189 -0.4803
vn 0.0051 1.0000 0.0021
vn 0.8252 0.4565 0.3326
vn -0.8472 0.4608 -0.2644
vn 0.0725 -0.9776 -0.1974
vn 0.8558 0.4996 0.1340
vn -0.8551 0.3597 -0.3735
vn 0.0134 -0.9928 0.1191
vn 0.9064 -0.3260 0.2686
vn -0.8770 -0.4072 -0.2551
vn 0.0168 0.9857 -0.1674
vn 0.2802 0.1153 0.9530
vn -0.9524 -0.2250 0.2060
vn -0.0742 0.9890 0.1280
vn 0.6373 0.5646 0.5245
vn -0.4877 0.2799 -0.8269
vn -0.5091 -0.4695 0.7214
vn 0.8143 0.2560 0.5209
vn -0.8459 0.0677 -0.5290
vn 0.0993 -0.9454 0.3105
vn 0.8861 -0.0748 0.4574
vn -0.8519 -0.1765 -0.4931
vn -0.2653 0.9129 -0.3103
vn -0.9945 -0.0973 -0.0393
vn -0.6949 0.6519 -0.3036
vn 0.9695 0.1834 -0.1626
vn -0.9680 0.2380 -0.0789
vn 0.1937 -0.9810 -0.0141
vn 0.9825 -0.1070 -0.1524
vn -0.9465 -0.2987 -0.1219
vn -0.1856 0.9118 -0.3663
vn 0.9867 0.0579 -0.1516
vn -0.5250 -0.8120 0.2552
vn -0.5514 -0.8341 0.0185
vn -0.5763 -0.8104 0.1058
vn 0.9948 0.0869 0.0527
vn -0.1190 0.9036 -0.4114
vn -0.2536 -0.2424 -0.9365
vn 0.9843 0.1061 0.1410
vn -0.1221 0.8980 -0.4228
vn -0.9320 -0.3212 -0.1681
vn 0.2171 -0.1416 0.9658
vn 0.2106 0.5180 0.8291
vn -0.0677 -0.6881 0.7225
vn 0.2279 0.1073 0.9678
vn -0.5150 -0.2711 -0.8132
vn -0.6222 -0.0074 -0.7828
vn 0.1133 -0.9886 -0.0994
vn -0.8746 0.4344 -0.2153
vn 0.8043 0.4477 0.3907
vn 0.0334 0.9994 0.0058
vn -0.9436 -0.0515 -0.3271
vn 0.8838 -0.3665 0.2909
vn 0.0640 0.9868 -0.1485
vn -0.7595 -0.3811 -0.5272
vn 0.8982 -0.3373 0.2819
vn 0.0537 -0.9954 -0.0790
vn -0.7729 0.4469 -0.4504
vn 0.8345 0.4862 0.2591
vn 0.3848 0.6977 -0.6043
vn 0.9944 -0.0390 -0.0987
vn 0.4870 -0.8141 0.3164
vn -0.4620 -0.8253 0.3246
vn -0.6762 -0.6467 0.3529
vn 0.9958 0.0872 0.0264
vn -1.0000 -0.0009 -0.0057
vn 0.9972 0.0627 -0.0402
vn -0.9866 -0.1527 0.0569
vn 0.9990 0.0142 0.0418
vn 0.6200 0.7186 -0.3149
vn 0.4175 -0.8322 0.3649
vn -0.5707 0.1407 0.8090
vn 0.3866 -0.8060 0.4482
vn 0.5934 0.8049 0.0027
vn 0.0548 0.9429 -0.3284
vn -0.6766 -0.6491 0.3476
vn 0.9373 0.0762 0.3401
vn -0.9992 0.0375 -0.0136
vn -0.9999 0.0084 -0.0055
vn 0.5399 0.4735 0.6959
vn 0.5001 -0.4358 -0.7483
vn -0.5000 0.4317 0.7507
vn -0.4141 -0.4824 -0.7719
vn -0.3518 -0.9088 -0.2245
vn -0.6095 0.4350 0.6627
vn 0.4895 -0.4454 -0.7497
vn 0.5393 0.2172 0.8136
vn -1.0000 -0.0002 0.0007
vn 0.9974 0.0612 -0.0392
vn -0.1035 -0.9946 -0.0113
vn -0.4062 -0.4816 -0.7766
vn -0.1587 -0.9703 -0.1825
vn -0.4267 0.0611 -0.9023
vn 0.1912 0.9718 0.1381
vn 0.3861 0.8564 0.3428
vn 0.2416 -0.9624 0.1244
vn 0.8443 -0.0311 0.5349
vn 0.0007 0.9487 -0.3161
vn 0.4998 -0.4598 -0.7340
vn 0.4968 0.5261 0.6902
vn -0.4800 0.5290 0.6998
vn -0.4968 -0.4596 -0.7362
vn 0.9992 0.0345 -0.0198
vn 0.9866 0.0155 -0.1624
vn -1.0000 0.0005 0.0001
vn -0.2611 -0.1955 -0.9453
vn 0.4564 -0.8111 0.3659
vn -0.3122 0.3842 -0.8689
vn -0.4626 -0.8328 0.3040
vn 0.9726 0.1540 -0.1742
vn -1.0000 0.0003 0.0006
vn -0.2810 0.0634 -0.9576
vn 0.4610 -0.8789 0.1223
vn -0.2932 0.9417 -0.1652
vn -0.3592 -0.9100 0.2070
vn 0.2801 0.9556 0.0913
vn 0.2522 -0.9659 -0.0587
vn 0.7559 0.1435 0.6387
vn 0.8931 0.4499 -0.0000
vn 0.8377 -0.5461 -0.0000
vn 0.5488 0.8323 0.0777
vn 0.5165 -0.8562 -0.0132
vn -0.2171 0.8930 -0.3943
vn -0.2332 0.9724 -0.0047
vn -0.2282 0.8287 0.5111
vn -0.5362 0.7239 0.4341
vn -0.6140 0.7893 -0.0094
vn -0.5575 0.7416 -0.3731
vn -0.4335 0.6757 -0.5962
vn -0.2244 0.7535 -0.6180
vn -0.9486 0.1818 -0.2589
vn -0.9832 0.1706 0.0645
vn -0.9679 -0.1309 -0.2144
vn -0.9842 -0.1492 0.0957
vn -0.7191 0.4598 -0.5211
vn -0.8258 0.4724 -0.3080
vn -0.8791 0.4760 0.0239
vn -0.8176 0.4547 0.3533
vn -0.8813 0.1551 0.4463
vn -0.8704 -0.1617 0.4650
vn -0.7756 -0.4470 0.4457
vn -0.8474 -0.5145 0.1312
vn -0.8444 -0.5089 -0.1672
vn -0.7852 -0.4383 -0.4373
vn -0.8583 -0.1214 -0.4987
vn -0.8209 0.2013 -0.5345
vn -0.1488 -0.9784 0.1435
vn -0.5095 -0.7887 -0.3441
vn -0.5440 -0.8308 -0.1171
vn -0.5063 -0.8464 0.1648
vn -0.4808 -0.7739 0.4123
vn -0.1500 -0.8611 0.4857
vn -0.1482 -0.9172 -0.3698
vn -0.3082 0.2745 -0.9109
vn -0.3445 -0.1614 -0.9248
vn -0.2408 0.5577 -0.7943
vn -0.4461 0.4620 -0.7665
vn -0.5707 0.2336 -0.7872
vn -0.6232 -0.1271 -0.7717
vn -0.5828 -0.4680 -0.6643
vn -0.3026 -0.6356 -0.7102
vn -0.1783 0.1347 0.9747
vn -0.1652 -0.1814 0.9694
vn -0.5146 0.4458 0.7324
vn -0.1947 0.4737 0.8589
vn -0.1601 -0.5446 0.8233
vn -0.5064 -0.4648 0.7263
vn -0.5466 -0.1746 0.8190
vn -0.5630 0.1438 0.8139
vn -0.6237 0.6944 0.3588
vn -0.7220 0.5506 -0.4190
vn -0.3616 0.0569 -0.9306
vn 0.6237 -0.6944 -0.3589
vn -0.6532 -0.7421 0.1505
vn 0.7220 -0.5506 0.4190
vn 0.3616 -0.0569 0.9306
vn 0.6532 0.7421 -0.1505
vn -0.3252 0.9254 0.1945
vn -0.3109 -0.9490 0.0534
vn -0.2143 -0.9620 -0.1693
vn -0.8652 -0.4523 -0.2165
vn -0.9491 0.3037 -0.0841
vn -0.2852 0.9555 -0.0750
vn -0.2525 -0.9625 -0.0993
vn -0.8861 -0.4588 0.0658
vn -0.8953 0.4430 -0.0476
vn -0.3319 0.9423 -0.0441
vn -0.4217 0.5957 0.6836
vn -0.3441 0.8894 0.3009
vn -0.5512 -0.1107 0.8270
vn -0.0671 -0.8399 0.5386
vn -0.7584 0.6485 0.0651
vn -0.9484 -0.2942 0.1182
vn -0.6145 0.7835 -0.0921
vn -0.6884 -0.7089 -0.1533
vn -0.9925 -0.0950 -0.0768
vn -0.9984 0.0505 -0.0246
vn -0.8728 -0.3419 0.3483
vn 0.8579 -0.3718 -0.3545
vn 0.0025 0.9958 -0.0914
vn -0.8313 0.5017 0.2394
vn 0.8474 0.4091 -0.3386
vn -0.0572 -0.9983 -0.0104
vn -0.8459 0.5184 0.1256
vn 0.8053 0.4045 -0.4334
vn -0.0033 -0.9789 0.2043
vn -0.8918 -0.3026 0.3364
vn 0.8614 -0.4394 -0.2549
vn -0.0113 0.9676 -0.2522
vn -0.2385 0.1992 0.9505
vn 0.9587 -0.2166 0.1844
vn 0.0864 0.9955 0.0394
vn -0.2100 0.3289 0.9207
vn 0.4539 0.2031 -0.8676
vn 0.1775 -0.6329 0.7536
vn -0.7719 0.5620 0.2973
vn 0.8230 0.0134 -0.5678
vn -0.0926 -0.9143 0.3943
vn -0.8022 -0.1313 0.5825
vn 0.8288 -0.2269 -0.5114
vn 0.1300 0.9752 -0.1792
vn 0.9912 -0.1108 -0.0725
vn 0.3103 0.8839 -0.3499
vn -0.9743 0.1790 -0.1370
vn 0.9813 0.1253 -0.1464
vn -0.2010 -0.9765 0.0782
vn -0.9797 -0.1973 -0.0365
vn 0.9384 -0.3180 -0.1354
vn 0.1762 0.8752 -0.4506
vn -0.9919 0.0551 -0.1145
vn 0.5386 -0.7647 0.3537
vn 0.5878 -0.8037 0.0929
vn 0.5746 -0.8044 0.1507
vn -0.9910 0.1016 0.0867
vn 0.1076 0.8639 -0.4920
vn -0.0374 -0.5946 -0.8031
vn -0.9766 0.1281 0.1725
vn 0.1101 0.8572 -0.5030
vn 0.9217 -0.3442 -0.1788
vn -0.2234 -0.1250 0.9667
vn -0.2142 0.5196 0.8271
vn 0.0702 -0.6880 0.7223
vn -0.2256 0.1229 0.9664
vn 0.4942 -0.3519 -0.7950
vn 0.4588 0.0678 -0.8859
vn -0.0703 -0.9963 0.0493
vn 0.9468 0.0820 -0.3112
vn -0.6559 0.7361 0.1669
vn -0.2990 0.9539 0.0259
vn 0.9500 -0.0982 -0.2966
vn -0.8866 -0.3231 0.3310
vn -0.0477 0.9662 -0.2533
vn 0.7947 -0.4386 -0.4197
vn -0.8653 -0.3089 0.3947
vn 0.0163 -0.9845 0.1748
vn 0.7872 0.4254 -0.4466
vn -0.8317 0.5166 0.2034
vn -0.5173 0.8542 -0.0522
vn -0.9944 0.0315 -0.1010
vn -0.4482 -0.8753 -0.1818
vn 0.5195 -0.8402 -0.1553
vn 0.5714 -0.7853 -0.2383
vn 0.4282 0.9024 -0.0473
vn -0.3965 0.6927 -0.6025
vn -0.9956 0.0170 -0.0918
vn 0.9846 -0.1602 -0.0703
vn -0.9991 -0.0086 0.0410
vn -0.5362 0.8431 -0.0412
vn -0.4636 -0.8421 -0.2757
vn 0.3407 -0.1810 0.9226
vn -0.4508 -0.8841 -0.1228
vn -0.5269 0.7845 0.3271
vn 0.1677 0.9852 -0.0361
vn 0.5509 -0.7919 -0.2634
vn -0.9550 -0.0778 0.2861
vn 0.9995 0.0071 -0.0300
vn 0.9996 0.0053 -0.0285
vn -0.5460 0.8307 0.1090
vn -0.5281 -0.8211 -0.2164
vn 0.6163 0.7754 0.1380
vn 0.4681 -0.8610 -0.1989
vn 0.4841 -0.8412 -0.2409
vn 0.4974 0.8170 0.2917
vn -0.4763 -0.8269 -0.2989
vn -0.4952 0.8477 0.1904
vn 1.0000 0.0002 0.0006
vn -0.9981 0.0080 -0.0614
vn -0.0912 -0.9958 -0.0113
vn 0.1449 -0.5215 -0.8409
vn 0.0780 -0.9798 -0.1843
vn 0.4212 0.0613 -0.9049
vn -0.3477 0.7816 0.5178
vn -0.3651 0.8697 0.3321
vn -0.2595 -0.9656 -0.0133
vn -0.8884 -0.1064 0.4466
vn -0.0003 0.2518 -0.9678
vn -0.4996 -0.8510 -0.1616
vn -0.4976 0.8612 0.1032
vn 0.4976 0.8612 0.1032
vn 0.4996 -0.8509 -0.1621
vn -0.9995 0.0071 -0.0300
vn -0.9981 0.0060 -0.0620
vn 1.0000 0.0003 0.0007
vn -0.5267 0.8302 0.1828
vn -0.4847 -0.8226 -0.2975
vn 0.4902 0.8608 0.1369
vn 0.5167 -0.8240 -0.2326
vn -0.9981 0.0069 -0.0617
vn -0.5427 0.8205 0.1798
vn -0.4809 -0.8246 -0.2980
vn 0.5260 0.8491 0.0473
vn 0.5026 -0.8317 -0.2361
vn -0.2700 0.9601 0.0735
vn -0.1944 -0.9808 0.0152
vn -0.7553 0.1432 0.6395
vn -0.8931 0.4499 -0.0000
vn -0.8377 -0.5461 -0.0000
vn -0.5999 0.7948 0.0921
vn -0.5165 -0.8562 -0.0132
vn -0.7537 -0.0457 -0.6556
vn 0.9945 0.0949 -0.0442
vn -0.1112 0.6216 -0.7754
vn 0.0513 0.8697 -0.4909
vn 0.2158 0.8929 -0.3952
vn 0.2332 0.9724 -0.0047
vn 0.2114 0.8407 0.4986
vn 0.5362 0.7239 0.4341
vn 0.6140 0.7893 -0.0094
vn 0.5575 0.7416 -0.3731
vn 0.4895 0.6746 -0.5525
vn 0.2088 0.7506 -0.6269
vn 0.9486 0.1818 -0.2589
vn 0.9832 0.1706 0.0645
vn 0.9679 -0.1309 -0.2144
vn 0.9842 -0.1492 0.0957
vn 0.7191 0.4598 -0.5211
vn 0.8258 0.4724 -0.3080
vn 0.8791 0.4760 0.0239
vn 0.8171 0.4050 0.4103
vn 0.8813 0.1551 0.4463
vn 0.8704 -0.1617 0.4650
vn 0.7756 -0.4470 0.4457
vn 0.8474 -0.5145 0.1312
vn 0.8444 -0.5089 -0.1672
vn 0.7820 -0.4824 -0.3947
vn 0.8583 -0.1214 -0.4987
vn 0.8209 0.2013 -0.5345
vn 0.1806 -0.9804 -0.0786
vn 0.1607 -0.9818 -0.1015
vn 0.1488 -0.9784 0.1435
vn 0.5095 -0.7887 -0.3441
vn 0.5440 -0.8308 -0.1171
vn 0.5063 -0.8464 0.1648
vn 0.4448 -0.7758 0.4475
vn 0.1542 -0.8626 0.4818
vn 0.1482 -0.9172 -0.3698
vn 0.3082 0.2745 -0.9109
vn 0.3445 -0.1614 -0.9248
vn 0.2408 0.5577 -0.7943
vn 0.4461 0.4620 -0.7665
vn 0.5707 0.2336 -0.7872
vn 0.6232 -0.1271 -0.7717
vn 0.5828 -0.4680 -0.6643
vn 0.2684 -0.6184 -0.7387
vn 0.1783 0.1347 0.9747
vn 0.1652 -0.1814 0.9694
vn 0.5146 0.4458 0.7324
vn 0.1947 0.4737 0.8589
vn 0.1626 -0.5423 0.8243
vn 0.4611 -0.5075 0.7279
vn 0.5466 -0.1746 0.8190
vn 0.5630 0.1438 0.8139
vn -0.6237 -0.6944 -0.3588
vn 0.3036 0.9323 0.1963
vn 0.3303 -0.9439 -0.0015
vn 0.2805 -0.9400 -0.1942
vn 0.8800 -0.4369 -0.1863
vn 0.8715 0.4656 -0.1536
vn 0.2504 0.9652 -0.0758
vn 0.2881 -0.9537 -0.0861
vn 0.9711 -0.2255 -0.0787
vn 0.9598 0.2724 0.0682
vn 0.2476 0.9678 -0.0454
vn 0.6684 0.4025 0.6255
vn 0.2642 0.8296 0.4919
vn 0.5465 -0.1541 0.8232
vn 0.0886 -0.8481 0.5224
vn 0.7308 0.6502 0.2077
vn 0.9483 -0.3065 0.0829
vn 0.5520 0.8324 0.0487
vn 0.4424 -0.8966 -0.0220
vn -0.4031 -0.3069 -0.8621
vn 0.9259 0.2231 -0.3049
vn 0.8643 -0.3934 0.3135
vn -0.8995 -0.3423 -0.2716
vn -0.0082 0.9966 0.0818
vn 0.8048 0.4730 0.3587
vn -0.8430 0.4582 -0.2819
vn 0.0690 -0.9808 -0.1826
vn 0.8917 0.4291 0.1442
vn -0.8174 0.4479 -0.3624
vn -0.0045 -0.9929 0.1187
vn 0.9003 -0.3401 0.2715
vn -0.8740 -0.4161 -0.2510
vn -0.0005 0.9858 -0.1678
vn 0.5217 -0.0916 0.8482
vn -0.9783 -0.1724 0.1153
vn -0.4986 0.7983 0.3377
vn 0.2519 0.2473 0.9356
vn -0.6764 0.0150 -0.7364
vn -0.1524 -0.6939 0.7037
vn 0.7895 0.5290 0.3111
vn 0.0039 -0.9868 0.1622
vn 0.8244 -0.1863 0.5344
vn -0.1271 0.9878 -0.0896
vn -0.9926 -0.1199 -0.0174
vn -0.3153 0.9128 -0.2596
vn 0.9812 0.0665 -0.1812
vn -0.9852 0.1442 -0.0932
vn -0.1567 -0.9826 -0.1000
vn 0.9751 -0.2002 -0.0950
vn -0.1337 0.8744 -0.4665
vn 0.9829 0.0329 -0.1813
vn -0.5313 -0.7885 0.3098
vn -0.5918 -0.8046 0.0489
vn -0.0026 -0.5238 -0.8518
vn 0.9873 0.0895 0.1311
vn -0.0546 0.8903 -0.4522
vn -0.9370 -0.2706 -0.2209
vn 0.2232 -0.1378 0.9650
vn 0.5591 0.6305 0.5384
vn 0.0251 -0.3656 0.9304
vn 0.4667 -0.0653 0.8820
vn -0.5307 -0.2790 -0.8003
vn -0.4948 0.1468 -0.8565
vn 0.0458 -0.9876 -0.1504
vn -0.9421 0.1252 -0.3111
vn 0.6456 0.7038 0.2963
vn 0.2590 0.9502 0.1735
vn -0.9125 -0.2874 -0.2911
vn 0.8753 -0.3950 0.2791
vn -0.0281 0.9995 -0.0145
vn -0.8752 -0.4084 -0.2593
vn 0.8625 -0.3579 0.3577
vn -0.0374 -0.9963 0.0773
vn -0.7921 0.4794 -0.3778
vn 0.8234 0.4965 0.2748
vn 0.6100 0.6367 -0.4717
vn 0.9944 -0.0245 -0.1023
vn 0.4296 -0.8481 0.3101
vn -0.6721 -0.6592 0.3371
vn -0.6739 -0.6673 0.3171
vn 1.0000 0.0011 -0.0055
vn -0.9952 0.0915 -0.0356
vn 0.9973 0.0642 -0.0368
vn -0.9866 -0.1527 0.0575
vn 0.9992 0.0122 0.0392
vn 0.6009 0.7007 -0.3846
vn 0.4168 -0.8282 0.3748
vn -0.5724 -0.0364 0.8191
vn -0.6481 0.1428 0.7480
vn 0.0944 -0.1217 0.9881
vn 0.3838 -0.8465 0.3690
vn 0.5910 0.8057 -0.0400
vn 0.0585 0.9355 -0.3484
vn -0.7072 -0.6999 0.0996
vn 0.9634 -0.0188 0.2675
vn -0.9992 0.0345 -0.0198
vn -0.9999 0.0088 -0.0050
vn 0.4993 0.4769 0.7234
vn 0.4864 -0.4432 -0.7530
vn -0.6107 0.4156 0.6741
vn -0.4993 -0.4452 -0.7433
vn -0.5027 -0.5407 -0.6745
vn -0.3683 0.1973 0.9085
vn 0.3591 -0.8984 -0.2527
vn 0.4135 0.4333 0.8008
vn -1.0000 -0.0008 0.0005
vn 0.9979 0.0425 -0.0480
vn -0.0079 -0.7002 -0.7139
vn 0.1918 -0.7711 0.6071
vn 0.3837 0.8835 0.2686
vn 0.3353 0.8160 0.4708
vn 0.2876 -0.9576 0.0188
vn 0.8846 -0.0753 0.4602
vn 0.0006 0.9605 -0.2782
vn -0.0069 0.9500 -0.3121
vn -0.0460 0.9391 -0.3404
vn 0.4905 -0.4615 -0.7392
vn 0.4785 0.5292 0.7007
vn -0.4968 0.5261 0.6902
vn -0.4991 -0.4592 -0.7349
vn 0.9992 0.0380 -0.0125
vn 0.9992 -0.0151 -0.0381
vn -1.0000 0.0001 0.0011
vn 0.2371 0.3239 -0.9159
vn 0.4899 -0.8275 0.2743
vn 0.2299 -0.2081 -0.9507
vn -0.4001 -0.7873 0.4691
vn 0.9988 0.0046 -0.0488
vn -1.0000 -0.0011 0.0019
vn 0.4252 0.8985 -0.1091
vn 0.4475 -0.8767 0.1764
vn 0.1253 0.0273 -0.9917
vn -0.3979 -0.9144 -0.0744
vn 0.2821 0.9563 0.0765
vn 0.2377 -0.9711 -0.0205
vn 0.7342 -0.3316 0.5925
vn 0.8991 -0.0711 0.4319
vn 0.8391 0.5429 0.0335
vn 0.5999 0.7948 0.0921
vn 0.5513 -0.8343 -0.0000
vn -0.2158 0.8929 -0.3952
vn -0.2309 0.9730 -0.0026
vn -0.2114 0.8407 0.4986
vn -0.5934 0.7171 0.3657
vn -0.6038 0.7971 0.0039
vn -0.5368 0.7678 -0.3497
vn -0.4895 0.6746 -0.5525
vn -0.2088 0.7506 -0.6269
vn -0.9488 0.1900 -0.2522
vn -0.9829 0.1719 0.0657
vn -0.9669 -0.1341 -0.2169
vn -0.9843 -0.1466 0.0981
vn -0.7198 0.4412 -0.5359
vn -0.8218 0.4872 -0.2955
vn -0.8739 0.4848 0.0339
vn -0.8171 0.4050 0.4103
vn -0.8793 0.1584 0.4492
vn -0.8717 -0.1659 0.4611
vn -0.7717 -0.4987 0.3948
vn -0.8452 -0.5193 0.1267
vn -0.8441 -0.5094 -0.1677
vn -0.7820 -0.4824 -0.3947
vn -0.8572 -0.1236 -0.4999
vn -0.8229 0.2097 -0.5281
vn -0.1607 -0.9818 -0.1015
vn -0.1806 -0.9804 -0.0786
vn -0.1564 -0.9765 0.1485
vn -0.4800 -0.7943 -0.3725
vn -0.5169 -0.8425 -0.1518
vn -0.4664 -0.8756 0.1262
vn -0.4448 -0.7758 0.4475
vn -0.1542 -0.8626 0.4818
vn -0.2261 -0.9220 -0.3144
vn -0.3148 0.2794 -0.9071
vn -0.3250 -0.1799 -0.9284
vn -0.2669 0.5681 -0.7785
vn -0.4934 0.5045 -0.7086
vn -0.5804 0.2495 -0.7751
vn -0.6137 -0.1420 -0.7766
vn -0.5175 -0.5489 -0.6564
vn -0.2683 -0.6184 -0.7387
vn -0.1733 0.1395 0.9749
vn -0.1703 -0.1865 0.9676
vn -0.5492 0.4099 0.7283
vn -0.1876 0.4801 0.8569
vn -0.1626 -0.5423 0.8243
vn -0.4611 -0.5075 0.7279
vn -0.5518 -0.1809 0.8141
vn -0.5611 0.1458 0.8148
vn 0.6237 -0.6944 -0.3588
vn -0.3813 0.9241 0.0244
vn -0.2405 -0.9686 -0.0630
vn -0.2512 -0.9479 -0.1958
vn -0.9463 -0.2968 -0.1285
vn -0.8874 0.4392 -0.1402
vn -0.2445 0.9690 -0.0366
vn -0.2373 -0.9675 -0.0871
vn -0.9645 -0.2518 -0.0798
vn -0.9689 0.2162 0.1205
vn -0.2847 0.9586 0.0105
vn -0.6930 0.4265 0.5813
vn -0.2601 0.8305 0.4926
vn -0.3397 -0.2020 0.9186
vn -0.0291 -0.8244 0.5652
vn -0.7845 0.5957 -0.1721
vn -0.8048 -0.3448 0.4831
vn -0.8512 0.5195 -0.0741
vn -0.3754 -0.9260 0.0399
vn 0.3353 -0.4342 -0.8361
vn -0.8723 0.2237 -0.4348
vn -0.8877 -0.3326 0.3183
vn 0.9091 -0.3668 -0.1976
vn -0.0091 0.9873 -0.1583
vn -0.8157 0.5175 0.2585
vn 0.8549 0.4193 -0.3054
vn -0.0529 -0.9986 0.0086
vn -0.8819 0.4491 0.1435
vn 0.8409 0.3174 -0.4384
vn -0.0149 -0.9786 0.2050
vn -0.8963 -0.2922 0.3335
vn 0.8593 -0.4454 -0.2514
vn -0.0002 0.9675 -0.2529
vn -0.4857 -0.0133 0.8740
vn 0.9811 -0.1722 0.0886
vn 0.5181 0.8189 0.2468
vn -0.6104 0.6141 0.5003
vn 0.6445 -0.0551 -0.7626
vn 0.5362 -0.4115 0.7370
vn -0.7896 0.3081 0.5307
vn -0.0039 -0.9692 0.2462
vn -0.8663 -0.0261 0.4988
vn 0.2582 0.8802 -0.3983
vn 0.9901 -0.1315 -0.0486
vn 0.6859 0.6162 -0.3872
vn -0.9875 0.0612 -0.1449
vn 0.9654 0.2202 -0.1395
vn 0.1454 -0.9891 -0.0218
vn -0.9888 -0.1093 -0.1014
vn 0.1197 0.8299 -0.5450
vn -0.9895 0.0277 -0.1421
vn 0.5297 -0.7927 0.3017
vn 0.5459 -0.8352 0.0669
vn 0.2117 -0.3241 -0.9220
vn -0.9802 0.1108 0.1642
vn 0.0414 0.8478 -0.5287
vn 0.9248 -0.2984 -0.2359
vn -0.2073 -0.1351 0.9689
vn -0.5591 0.6305 0.5384
vn -0.0199 -0.3580 0.9335
vn -0.4776 -0.0580 0.8766
vn 0.4779 -0.3450 -0.8078
vn 0.5882 -0.0808 -0.8047
vn -0.0376 -0.9990 0.0257
vn 0.8763 0.3970 -0.2731
vn -0.8121 0.5025 0.2966
vn -0.0385 0.9850 -0.1682
vn 0.9198 -0.3251 -0.2198
vn -0.8797 -0.3465 0.3256
vn 0.0206 0.9873 -0.1573
vn 0.8607 -0.4399 -0.2563
vn -0.8910 -0.3014 0.3394
vn -0.0464 -0.9960 0.0762
vn 0.7743 0.3991 -0.4911
vn -0.8230 0.5258 0.2150
vn -0.5370 0.8424 -0.0450
vn -0.9941 0.0105 -0.1081
vn -0.4955 -0.8534 -0.1619
vn 0.5643 -0.8146 -0.1339
vn 0.5484 -0.7630 -0.3422
vn 0.4878 0.8708 -0.0616
vn -0.4251 0.6881 -0.5880
vn -0.9957 0.0214 -0.0902
vn 0.9853 -0.1599 0.0595
vn -0.9990 -0.0084 0.0434
vn -0.5647 0.8078 0.1690
vn -0.4666 -0.8677 -0.1714
vn 0.6089 -0.0525 0.7915
vn 0.5493 -0.1819 0.8156
vn 0.5248 -0.4131 0.7443
vn -0.4581 -0.8876 -0.0480
vn -0.5285 0.7994 0.2857
vn -0.0531 0.9358 -0.3485
vn 0.5679 -0.7540 -0.3300
vn -0.9527 -0.0724 0.2951
vn 0.9995 0.0075 -0.0298
vn 0.9996 0.0067 -0.0284
vn -0.4986 0.8574 0.1275
vn -0.5000 -0.8396 -0.2124
vn 0.4999 0.8473 0.1793
vn 0.5000 -0.8423 -0.2012
vn 0.4785 -0.8583 -0.1853
vn 0.6154 0.7783 0.1246
vn -0.4758 -0.8320 -0.2854
vn -0.5530 0.7956 0.2472
vn 1.0000 -0.0001 0.0008
vn -0.9980 0.0116 -0.0627
vn 0.2202 -0.4863 -0.8456
vn -0.2463 -0.9481 0.2012
vn 0.0625 0.9881 0.1404
vn -0.2964 0.8272 0.4773
vn -0.1915 -0.9734 0.1258
vn -0.8774 -0.0949 0.4703
vn -0.0003 0.3674 -0.9301
vn 0.0169 0.2423 -0.9701
vn 0.0034 0.2538 -0.9673
vn -0.5002 -0.8507 -0.1615
vn -0.4938 0.8633 0.1042
vn 0.4944 0.8630 0.1040
vn 0.5036 -0.8488 -0.1611
vn -0.9995 0.0078 -0.0297
vn -0.9979 0.0072 -0.0639
vn 1.0000 0.0002 0.0008
vn -0.5405 0.8035 0.2495
vn -0.4844 -0.8275 -0.2838
vn 0.5175 0.8058 0.2879
vn 0.5122 -0.8397 -0.1804
vn -0.9979 0.0083 -0.0636
vn 1.0000 0.0001 0.0008
vn -0.4858 0.8740 0.0136
vn -0.4821 -0.8287 -0.2842
vn 0.5024 0.8539 0.1363
vn 0.5038 -0.8445 -0.1819
vn -0.2691 0.9600 0.0768
vn -0.2317 -0.9710 -0.0590
vn -0.9041 -0.0853 0.4187
vn -0.7428 -0.3320 0.5814
vn -0.8391 0.5429 0.0335
vn -0.5488 0.8323 0.0777
vn -0.5513 -0.8343 -0.0000
vn -0.9827 0.0780 -0.1679
vn 0.6174 0.0283 -0.7862
vn -0.3172 0.8202 -0.4761
vn 0.4294 0.9005 -0.0688
vt 0.500000 0.375000
vt 0.437500 0.437500
vt 0.437500 0.375000
vt 0.562500 0.437500
vt 0.500000 0.437500
vt 0.625000 0.375000
vt 0.562500 0.375000
vt 0.625000 0.500000
vt 0.562500 0.500000
vt 0.500000 0.500000
vt 0.437500 0.500000
vt 0.375000 0.500000
vt 0.375000 0.437500
vt 0.375000 0.375000
vt 0.437500 0.562500
vt 0.500000 0.625000
vt 0.437500 0.625000
vt 0.500000 0.562500
vt 0.562500 0.625000
vt 0.500000 0.687500
vt 0.437500 0.687500
vt 0.562500 0.687500
vt 0.375000 0.562500
vt 0.562500 0.562500
vt 0.625000 0.625000
vt 0.625000 0.687500
vt 0.625000 0.750000
vt 0.562500 0.750000
vt 0.500000 0.750000
vt 0.437500 0.750000
vt 0.375000 0.750000
vt 0.375000 0.687500
vt 0.375000 0.625000
vt 0.500000 0.875000
vt 0.468750 0.875000
vt 0.437500 0.875000
vt 0.500000 0.812500
vt 0.562500 0.875000
vt 0.437500 0.812500
vt 0.375000 0.812500
vt 0.562500 0.812500
vt 0.625000 0.812500
vt 0.375000 0.875000
vt 0.250000 0.562500
vt 0.312500 0.625000
vt 0.250000 0.625000
vt 0.312500 0.687500
vt 0.250000 0.687500
vt 0.250000 0.500000
vt 0.312500 0.562500
vt 0.312500 0.500000
vt 0.312500 0.750000
vt 0.250000 0.750000
vt 0.687500 0.562500
vt 0.750000 0.625000
vt 0.687500 0.625000
vt 0.750000 0.687500
vt 0.687500 0.687500
vt 0.625000 0.562500
vt 0.687500 0.500000
vt 0.750000 0.562500
vt 0.687500 0.750000
vt 1.000000 0.500000
vt 0.833333 1.000000
vt 0.833333 0.500000
vt 0.666667 1.000000
vt 0.666667 0.500000
vt 0.500000 1.000000
vt 0.500000 0.500000
vt 0.333333 0.500000
vt 0.042154 0.130000
vt 0.250000 0.010000
vt 0.457846 0.130000
vt 0.333333 1.000000
vt 0.166667 0.500000
vt 0.166667 1.000000
vt -0.000000 0.500000
vt 0.542154 0.130000
vt 0.542154 0.370000
vt 0.957846 0.370000
vt 1.000000 0.828637
vt 0.875000 1.000000
vt 0.875000 0.828637
vt 0.625000 0.828637
vt 0.500000 1.000000
vt 0.500000 0.828637
vt 0.625000 0.645722
vt 0.500000 0.500000
vt 0.750000 0.500000
vt 0.875000 0.645722
vt 0.875000 0.500000
vt 0.500000 0.645722
vt 0.750000 0.828637
vt 0.750000 0.645722
vt 1.000000 0.645722
vt 0.750000 1.000000
vt 1.000000 1.000000
vt 0.625000 1.000000
vt 0.749520 0.964446
vt 0.653402 0.965669
vt 0.844587 0.863513
vt 0.844268 0.965118
vt 0.647775 0.863148
vt 0.750840 0.864057
vt 0.749520 0.964446
vt 0.750840 0.864057
vt 0.647775 0.863149
vt 0.844587 0.863513
vt 0.844267 0.965117
vt 0.653402 0.965669
vt 0.749520 0.964446
vt 0.844268 0.965117
vt 0.750840 0.864057
vt 0.653402 0.965669
vt 0.844587 0.863513
vt 0.000000 0.000000
vt 0.833333 0.500000
vt -0.000000 1.000000
vt 0.500000 0.500000
vt 0.500000 0.500000
vt 0.166667 0.500000
vt -0.000000 0.500000
vt 0.833333 0.500000
vt 0.042154 0.370000
vt 0.457846 0.370000
vt 0.750000 0.010000
vt 0.333333 0.500000
vt 0.457846 0.250000
vt 0.625000 0.437500
vt 0.750000 0.500000
vt 0.957846 0.130000
vt 0.250000 0.490000
vt 0.625000 0.875000
vt 0.750000 0.750000
vt 0.250000 0.490000
vt 0.750000 0.490000
vt 0.750000 0.490000
s 0
f 26/1/1 28/2/1 25/3/1
f 26/1/2 30/4/2 29/5/2
f 7/6/3 30/4/3 27/7/3
f 30/4/4 4/8/4 9/9/4
f 29/5/5 9/9/5 10/10/5
f 28/2/6 10/10/6 11/11/6
f 28/2/7 3/12/7 5/13/7
f 25/3/8 5/13/8 6/14/8
f 31/15/9 35/16/9 34/17/9
f 32/18/10 36/19/10 35/16/10
f 34/17/11 38/20/11 37/21/11
f 35/16/12 39/22/12 38/20/12
f 3/12/13 31/15/13 14/23/13
f 11/11/14 32/18/14 31/15/14
f 10/10/15 33/24/15 32/18/15
f 4/8/16 33/24/16 9/9/16
f 33/24/17 16/25/17 36/19/17
f 36/19/18 17/26/18 39/22/18
f 39/22/19 2/27/19 18/28/19
f 38/20/20 18/28/20 19/29/20
f 37/21/21 19/29/21 20/30/21
f 37/21/22 1/31/22 12/32/22
f 13/33/23 37/21/23 12/32/23
f 14/23/24 34/17/24 13/33/24
f 44/34/25 58/35/25 43/36/25
f 41/37/26 45/38/26 44/34/26
f 1/31/27 40/39/27 22/40/27
f 20/30/28 41/37/28 40/39/28
f 19/29/29 42/41/29 41/37/29
f 2/27/30 42/41/30 18/28/30
f 23/42/31 45/38/31 42/41/31
f 22/40/32 43/36/32 21/43/32
f 46/44/33 49/45/33 48/46/33
f 48/46/34 51/47/34 50/48/34
f 6/49/35 47/50/35 46/44/35
f 5/51/36 14/23/36 47/50/36
f 47/50/37 13/33/37 49/45/37
f 49/45/38 12/32/38 51/47/38
f 51/47/39 1/31/39 22/52/39
f 51/47/40 21/53/40 50/48/40
f 52/54/41 55/55/41 54/56/41
f 54/56/42 57/57/42 56/58/42
f 4/8/43 52/54/43 15/59/43
f 8/60/44 53/61/44 52/54/44
f 57/57/45 23/62/45 56/58/45
f 56/58/46 2/27/46 17/26/46
f 16/25/47 56/58/47 17/26/47
f 15/59/48 54/56/48 16/25/48
f 59/63/49 62/64/49 61/65/49
f 61/65/50 64/66/50 63/67/50
f 63/67/51 66/68/51 65/69/51
f 66/68/52 67/70/52 65/69/52
f 68/71/53 66/72/53 64/73/53
f 68/74/54 69/75/54 67/70/54
f 70/76/55 59/77/55 69/75/55
f 67/78/56 69/79/56 61/80/56
f 86/81/57 97/82/57 99/83/57
f 100/84/58 80/85/58 90/86/58
f 84/87/59 79/88/59 77/8/59
f 75/89/60 84/87/60 77/8/60
f 82/90/61 75/89/61 73/91/61
f 71/63/62 82/90/62 73/91/62
f 100/84/63 85/92/63 84/87/63
f 101/93/64 84/87/64 83/94/64
f 99/83/65 83/94/65 82/90/65
f 81/95/66 99/83/66 82/90/66
f 97/82/67 93/96/67 96/96/67
f 72/97/68 92/82/68 97/82/68
f 98/98/69 93/96/69 94/98/69
f 80/85/70 94/98/70 95/85/70
f 76/99/71 97/82/71 96/96/71
f 78/100/72 96/96/72 98/98/72
f 87/101/73 97/82/73 74/102/73
f 78/100/74 100/84/74 89/103/74
f 89/103/75 101/93/75 88/104/75
f 87/101/76 101/93/76 99/83/76
f 150/105/77 104/100/77 103/99/77
f 151/106/78 107/103/78 152/107/78
f 154/108/79 102/102/79 105/101/79
f 150/105/80 102/102/80 153/109/80
f 151/106/81 105/101/81 106/104/81
f 152/107/82 104/100/82 149/110/82
f 155/111/83 108/102/83 156/112/83
f 158/113/84 111/101/84 112/104/84
f 160/114/85 113/103/85 110/100/85
f 155/111/86 110/100/86 109/99/86
f 158/113/87 113/103/87 159/107/87
f 156/112/88 111/101/88 157/115/88
f 110/100/89 115/99/89 109/99/89
f 112/104/90 133/103/90 113/103/90
f 108/102/91 117/101/91 111/101/91
f 108/102/92 115/99/92 114/102/92
f 111/101/93 118/104/93 112/104/93
f 110/100/94 119/103/94 116/100/94
f 114/102/95 121/99/95 120/102/95
f 117/101/96 124/104/96 118/104/96
f 119/103/97 122/100/97 116/100/97
f 115/99/98 122/100/98 121/99/98
f 119/103/99 124/104/99 125/103/99
f 117/101/100 120/102/100 123/101/100
f 124/104/101 131/103/101 125/103/101
f 123/101/102 126/102/102 129/101/102
f 121/99/103 126/102/103 120/102/103
f 124/104/104 129/101/104 130/104/104
f 125/103/105 128/100/105 122/100/105
f 121/99/106 128/100/106 127/99/106
f 132/104/107 137/103/107 133/103/107
f 118/104/108 132/104/108 112/104/108
f 119/103/109 134/104/109 118/104/109
f 119/103/110 133/103/110 135/103/110
f 139/103/111 141/103/111 143/103/111
f 135/103/112 137/103/112 139/103/112
f 135/103/113 138/104/113 134/104/113
f 134/104/114 136/104/114 132/104/114
f 141/103/115 142/104/115 143/103/115
f 139/103/116 142/104/116 138/104/116
f 138/104/117 140/104/117 136/104/117
f 136/104/118 141/103/118 137/103/118
f 94/98/119 146/96/119 147/98/119
f 91/97/120 145/82/120 92/82/120
f 94/98/121 148/85/121 95/85/121
f 92/82/122 146/96/122 93/96/122
f 128/100/123 130/104/123 127/99/123
f 127/99/124 129/101/124 126/102/124
f 89/103/125 149/110/125 78/100/125
f 88/104/126 154/108/126 151/106/126
f 74/102/127 150/105/127 153/109/127
f 87/101/128 153/109/128 154/108/128
f 88/104/129 152/107/129 89/103/129
f 78/100/130 150/105/130 76/99/130
f 102/102/131 157/115/131 105/101/131
f 106/104/132 159/107/132 107/103/132
f 103/99/133 160/114/133 155/111/133
f 104/100/134 159/107/134 160/114/134
f 106/104/135 157/115/135 158/113/135
f 103/99/136 156/112/136 102/102/136
f 162/97/137 163/65/137 161/63/137
f 163/65/138 166/66/138 165/67/138
f 165/67/139 168/68/139 167/69/139
f 168/68/140 169/70/140 167/69/140
f 170/74/141 175/68/141 176/74/141
f 368/74/142 369/75/142 416/116/142
f 170/74/143 171/75/143 169/70/143
f 190/67/144 185/65/144 191/117/144
f 177/76/145 182/74/145 183/76/145
f 164/64/146 174/66/146 166/66/146
f 164/64/147 172/97/147 173/64/147
f 166/66/148 175/68/148 168/68/148
f 182/71/149 181/72/149 180/73/149
f 174/66/150 181/68/150 175/68/150
f 173/64/151 178/97/151 179/64/151
f 177/76/152 178/118/152 172/118/152
f 175/68/153 182/74/153 176/74/153
f 173/64/154 180/66/154 174/66/154
f 188/70/155 210/75/155 209/70/155
f 192/75/156 188/70/156 193/70/156
f 191/117/157 184/63/157 194/63/157
f 190/67/158 187/69/158 186/67/158
f 192/75/159 184/77/159 189/75/159
f 193/70/160 187/69/160 195/119/160
f 221/70/161 195/119/161 219/120/161
f 218/121/162 194/122/162 192/75/162
f 217/67/163 195/119/163 190/67/163
f 222/63/164 191/117/164 194/63/164
f 218/121/165 193/70/165 221/70/165
f 220/123/166 190/67/166 191/117/166
f 183/76/167 178/118/167 200/116/167
f 182/116/168 197/116/168 196/116/168
f 181/116/169 198/116/169 197/116/169
f 196/116/170 183/124/170 182/71/170
f 199/116/171 178/116/171 200/116/171
f 199/116/172 201/116/172 179/116/172
f 198/116/173 202/116/173 203/116/173
f 179/125/174 202/73/174 180/73/174
f 206/80/175 208/126/175 210/79/175
f 187/69/176 207/67/176 186/67/176
f 185/65/177 205/63/177 184/63/177
f 189/75/178 205/77/178 210/75/178
f 187/69/179 209/70/179 208/69/179
f 186/67/180 206/65/180 185/65/180
f 163/65/181 214/67/181 211/123/181
f 171/75/182 212/127/182 169/70/182
f 161/63/183 211/123/183 213/63/183
f 165/67/184 216/69/184 214/67/184
f 161/77/185 215/121/185 171/75/185
f 169/70/186 216/69/186 167/69/186
f 211/123/187 217/67/187 220/123/187
f 215/121/188 221/70/188 212/127/188
f 213/63/189 220/123/189 222/63/189
f 214/67/190 219/120/190 217/67/190
f 215/121/191 222/77/191 218/121/191
f 212/127/192 219/120/192 216/69/192
f 204/116/193 73/116/193 201/116/193
f 203/116/194 77/116/194 79/116/194
f 201/125/195 73/125/195 75/128/195
f 145/82/196 225/96/196 146/96/196
f 146/96/197 226/98/197 147/98/197
f 145/82/198 223/97/198 224/82/198
f 147/98/199 227/85/199 148/85/199
f 248/2/200 26/1/200 25/3/200
f 26/1/201 250/4/201 27/7/201
f 250/4/202 7/6/202 27/7/202
f 250/4/203 231/8/203 233/129/203
f 249/5/204 234/9/204 250/4/204
f 248/2/205 235/10/205 249/5/205
f 230/12/206 248/2/206 232/13/206
f 232/13/207 25/3/207 6/14/207
f 251/15/208 255/16/208 252/18/208
f 252/18/209 256/19/209 253/24/209
f 254/17/210 258/20/210 255/16/210
f 255/16/211 259/22/211 256/19/211
f 230/12/212 251/15/212 236/11/212
f 236/11/213 252/18/213 235/10/213
f 235/10/214 253/24/214 234/9/214
f 253/24/215 231/8/215 234/9/215
f 253/24/216 241/25/216 240/59/216
f 256/19/217 242/26/217 241/25/217
f 259/22/218 229/27/218 242/26/218
f 258/20/219 243/28/219 259/22/219
f 257/21/220 244/29/220 258/20/220
f 228/31/221 257/21/221 237/32/221
f 238/33/222 257/21/222 254/17/222
f 239/23/223 254/17/223 251/15/223
f 261/37/224 45/38/224 262/41/224
f 228/31/225 260/39/225 245/30/225
f 245/30/226 261/37/226 244/29/226
f 244/29/227 262/41/227 243/28/227
f 262/41/228 229/27/228 243/28/228
f 45/38/229 247/42/229 262/41/229
f 246/40/230 43/36/230 260/39/230
f 46/44/231 264/45/231 263/50/231
f 48/46/232 265/47/232 264/45/232
f 6/49/233 263/50/233 232/51/233
f 232/51/234 239/23/234 230/12/234
f 263/50/235 238/33/235 239/23/235
f 264/45/236 237/32/236 238/33/236
f 265/47/237 228/31/237 237/32/237
f 21/53/238 265/47/238 50/48/238
f 266/54/239 55/55/239 53/61/239
f 267/56/240 57/57/240 55/55/240
f 231/8/241 266/54/241 233/60/241
f 233/60/242 53/61/242 7/130/242
f 247/62/243 57/57/243 268/58/243
f 229/27/244 268/58/244 242/26/244
f 241/25/245 268/58/245 267/56/245
f 240/59/246 267/56/246 266/54/246
f 269/63/247 272/64/247 270/97/247
f 271/65/248 274/66/248 272/64/248
f 273/67/249 276/68/249 274/66/249
f 277/70/250 276/68/250 275/69/250
f 278/71/251 280/124/251 274/73/251
f 279/75/252 278/74/252 277/70/252
f 269/77/253 280/76/253 279/75/253
f 271/80/254 277/78/254 273/131/254
f 86/81/255 297/82/255 72/97/255
f 300/84/256 80/85/256 298/98/256
f 79/88/257 289/87/257 285/8/257
f 283/89/258 289/87/258 288/94/258
f 283/89/259 287/90/259 281/91/259
f 71/63/260 287/90/260 81/95/260
f 85/92/261 300/84/261 289/87/261
f 289/87/262 301/93/262 288/94/262
f 288/94/263 299/83/263 287/90/263
f 81/95/264 299/83/264 86/81/264
f 294/96/265 297/82/265 296/96/265
f 293/82/266 72/97/266 297/82/266
f 298/98/267 294/96/267 296/96/267
f 80/85/268 295/98/268 298/98/268
f 284/99/269 297/82/269 282/102/269
f 286/100/270 296/96/270 284/99/270
f 297/82/271 290/101/271 282/102/271
f 300/84/272 286/100/272 292/103/272
f 301/93/273 292/103/273 291/104/273
f 290/101/274 301/93/274 291/104/274
f 348/105/275 304/100/275 347/110/275
f 307/103/276 349/106/276 350/107/276
f 352/108/277 302/102/277 351/109/277
f 302/102/278 348/105/278 351/109/278
f 349/106/279 305/101/279 352/108/279
f 304/100/280 350/107/280 347/110/280
f 308/102/281 353/111/281 354/112/281
f 356/113/282 311/101/282 355/115/282
f 358/114/283 313/103/283 357/107/283
f 353/111/284 310/100/284 358/114/284
f 313/103/285 356/113/285 357/107/285
f 311/101/286 354/112/286 355/115/286
f 315/99/287 310/100/287 309/99/287
f 333/103/288 312/104/288 313/103/288
f 317/101/289 308/102/289 311/101/289
f 308/102/290 315/99/290 309/99/290
f 318/104/291 311/101/291 312/104/291
f 310/100/292 319/103/292 313/103/292
f 314/102/293 321/99/293 315/99/293
f 324/104/294 317/101/294 318/104/294
f 322/100/295 319/103/295 316/100/295
f 315/99/296 322/100/296 316/100/296
f 319/103/297 324/104/297 318/104/297
f 317/101/298 320/102/298 314/102/298
f 331/103/299 324/104/299 325/103/299
f 323/101/300 326/102/300 320/102/300
f 326/102/301 321/99/301 320/102/301
f 324/104/302 329/101/302 323/101/302
f 328/100/303 325/103/303 322/100/303
f 321/99/304 328/100/304 322/100/304
f 337/103/305 332/104/305 333/103/305
f 332/104/306 318/104/306 312/104/306
f 334/104/307 319/103/307 318/104/307
f 319/103/308 333/103/308 313/103/308
f 339/103/309 341/103/309 337/103/309
f 335/103/310 337/103/310 333/103/310
f 338/104/311 335/103/311 334/104/311
f 336/104/312 334/104/312 332/104/312
f 341/103/313 342/104/313 340/104/313
f 342/104/314 339/103/314 338/104/314
f 340/104/315 338/104/315 336/104/315
f 341/103/316 336/104/316 337/103/316
f 295/98/317 345/96/317 294/96/317
f 344/82/318 91/97/318 293/82/318
f 148/85/319 295/98/319 95/85/319
f 345/96/320 293/82/320 294/96/320
f 328/100/321 330/104/321 331/103/321
f 327/99/322 329/101/322 330/104/322
f 347/110/323 292/103/323 286/100/323
f 291/104/324 352/108/324 290/101/324
f 282/102/325 348/105/325 284/99/325
f 290/101/326 351/109/326 282/102/326
f 350/107/327 291/104/327 292/103/327
f 348/105/328 286/100/328 284/99/328
f 355/115/329 302/102/329 305/101/329
f 357/107/330 306/104/330 307/103/330
f 303/99/331 358/114/331 304/100/331
f 304/100/332 357/107/332 307/103/332
f 306/104/333 355/115/333 305/101/333
f 354/112/334 303/99/334 302/102/334
f 361/65/335 360/97/335 359/63/335
f 361/65/336 364/66/336 362/64/336
f 363/67/337 366/68/337 364/66/337
f 367/70/338 366/68/338 365/69/338
f 368/74/339 373/68/339 366/68/339
f 416/116/340 359/63/340 360/97/340
f 162/97/341 171/75/341 415/116/341
f 381/65/342 386/67/342 387/117/342
f 177/76/343 379/74/343 374/74/343
f 372/66/344 362/64/344 364/66/344
f 362/64/345 370/97/345 360/97/345
f 373/68/346 364/66/346 366/68/346
f 379/71/347 183/124/347 375/132/347
f 378/68/348 372/66/348 373/68/348
f 371/64/349 375/97/349 370/97/349
f 375/118/350 177/76/350 370/118/350
f 379/74/351 373/68/351 374/74/351
f 377/66/352 371/64/352 372/66/352
f 384/70/353 399/75/353 385/75/353
f 384/70/354 388/75/354 389/70/354
f 380/63/355 387/117/355 390/63/355
f 386/67/356 383/69/356 391/119/356
f 388/75/357 380/77/357 390/122/357
f 383/69/358 389/70/358 391/119/358
f 391/119/359 410/70/359 408/120/359
f 407/121/360 390/122/360 411/77/360
f 406/67/361 391/119/361 408/120/361
f 411/63/362 387/117/362 409/123/362
f 389/70/363 407/121/363 410/70/363
f 409/123/364 386/67/364 406/67/364
f 183/76/365 200/116/365 375/118/365
f 197/116/366 379/116/366 196/116/366
f 198/116/367 378/116/367 197/116/367
f 196/116/368 379/71/368 183/124/368
f 199/116/369 375/116/369 376/116/369
f 392/116/370 199/116/370 376/116/370
f 198/116/371 393/116/371 377/116/371
f 393/73/372 376/125/372 377/73/372
f 399/79/373 397/126/373 395/80/373
f 396/67/374 383/69/374 382/67/374
f 394/63/375 381/65/375 380/63/375
f 385/75/376 394/77/376 380/77/376
f 383/69/377 398/70/377 384/70/377
f 395/65/378 382/67/378 381/65/378
f 361/65/379 403/67/379 363/67/379
f 401/127/380 369/75/380 367/70/380
f 359/63/381 400/123/381 361/65/381
f 363/67/382 405/69/382 365/69/382
f 404/121/383 359/77/383 369/75/383
f 405/69/384 367/70/384 365/69/384
f 400/123/385 406/67/385 403/67/385
f 410/70/380 404/121/380 401/127/380
f 402/63/386 409/123/386 400/123/386
f 403/67/387 408/120/387 405/69/387
f 404/121/388 411/77/388 402/77/388
f 408/120/389 401/127/389 405/69/389
f 281/116/390 204/116/390 392/116/390
f 203/116/391 285/116/391 393/116/391
f 283/128/392 281/125/392 392/125/392
f 413/96/393 344/82/393 345/96/393
f 414/98/394 345/96/394 346/98/394
f 344/82/395 223/97/395 144/97/395
f 227/85/396 346/98/396 148/85/396
f 415/116/397 176/74/397 177/76/397
f 416/116/398 374/74/398 368/74/398
f 172/118/399 415/116/399 177/76/399
f 416/116/400 370/118/400 177/76/400
f 26/1/401 29/5/401 28/2/401
f 26/1/402 27/7/402 30/4/402
f 7/6/403 8/129/403 30/4/403
f 30/4/404 8/129/404 4/8/404
f 29/5/405 30/4/405 9/9/405
f 28/2/406 29/5/406 10/10/406
f 28/2/407 11/11/407 3/12/407
f 25/3/408 28/2/408 5/13/408
f 31/15/409 32/18/409 35/16/409
f 32/18/410 33/24/410 36/19/410
f 34/17/411 35/16/411 38/20/411
f 35/16/412 36/19/412 39/22/412
f 3/12/413 11/11/413 31/15/413
f 11/11/414 10/10/414 32/18/414
f 10/10/415 9/9/415 33/24/415
f 4/8/416 15/59/416 33/24/416
f 33/24/417 15/59/417 16/25/417
f 36/19/418 16/25/418 17/26/418
f 39/22/419 17/26/419 2/27/419
f 38/20/420 39/22/420 18/28/420
f 37/21/421 38/20/421 19/29/421
f 37/21/422 20/30/422 1/31/422
f 13/33/423 34/17/423 37/21/423
f 14/23/424 31/15/424 34/17/424
f 43/36/425 40/39/425 44/34/425
f 40/39/426 41/37/426 44/34/426
f 41/37/427 42/41/427 45/38/427
f 1/31/428 20/30/428 40/39/428
f 20/30/429 19/29/429 41/37/429
f 19/29/430 18/28/430 42/41/430
f 2/27/431 23/42/431 42/41/431
f 23/42/432 24/133/432 45/38/432
f 22/40/433 40/39/433 43/36/433
f 46/44/434 47/50/434 49/45/434
f 48/46/435 49/45/435 51/47/435
f 6/49/436 5/51/436 47/50/436
f 5/51/437 3/12/437 14/23/437
f 47/50/438 14/23/438 13/33/438
f 49/45/439 13/33/439 12/32/439
f 51/47/440 12/32/440 1/31/440
f 51/47/441 22/52/441 21/53/441
f 52/54/442 53/61/442 55/55/442
f 54/56/443 55/55/443 57/57/443
f 4/8/444 8/60/444 52/54/444
f 8/60/445 7/130/445 53/61/445
f 57/57/446 24/134/446 23/62/446
f 56/58/447 23/62/447 2/27/447
f 16/25/448 54/56/448 56/58/448
f 15/59/449 52/54/449 54/56/449
f 59/63/49 60/97/49 62/64/49
f 61/65/50 62/64/50 64/66/50
f 63/67/51 64/66/51 66/68/51
f 66/68/450 68/74/450 67/70/450
f 64/73/53 62/125/53 68/71/53
f 62/125/53 60/135/53 70/124/53
f 68/71/53 62/125/53 70/124/53
f 68/74/54 70/76/54 69/75/54
f 70/76/55 60/118/55 59/77/55
f 69/79/56 59/136/56 61/80/56
f 61/80/56 63/131/56 67/78/56
f 63/131/56 65/126/56 67/78/56
f 86/81/451 72/97/451 97/82/451
f 100/84/452 98/98/452 80/85/452
f 84/87/453 85/92/453 79/88/453
f 75/89/454 83/94/454 84/87/454
f 82/90/455 83/94/455 75/89/455
f 71/63/456 81/95/456 82/90/456
f 100/84/457 90/86/457 85/92/457
f 101/93/458 100/84/458 84/87/458
f 99/83/459 101/93/459 83/94/459
f 81/95/460 86/81/460 99/83/460
f 97/82/461 92/82/461 93/96/461
f 72/97/462 91/97/462 92/82/462
f 98/98/463 96/96/463 93/96/463
f 80/85/464 98/98/464 94/98/464
f 76/99/465 74/102/465 97/82/465
f 78/100/466 76/99/466 96/96/466
f 87/101/467 99/83/467 97/82/467
f 78/100/468 98/98/468 100/84/468
f 89/103/469 100/84/469 101/93/469
f 87/101/470 88/104/470 101/93/470
f 150/105/471 149/110/471 104/100/471
f 151/106/472 106/104/472 107/103/472
f 154/108/473 153/109/473 102/102/473
f 150/105/474 103/99/474 102/102/474
f 151/106/475 154/108/475 105/101/475
f 152/107/476 107/103/476 104/100/476
f 155/111/477 109/99/477 108/102/477
f 158/113/478 157/115/478 111/101/478
f 160/114/479 159/107/479 113/103/479
f 155/111/480 160/114/480 110/100/480
f 158/113/481 112/104/481 113/103/481
f 156/112/482 108/102/482 111/101/482
f 110/100/483 116/100/483 115/99/483
f 112/104/484 132/104/484 133/103/484
f 108/102/485 114/102/485 117/101/485
f 108/102/486 109/99/486 115/99/486
f 111/101/487 117/101/487 118/104/487
f 110/100/488 113/103/488 119/103/488
f 114/102/489 115/99/489 121/99/489
f 117/101/96 123/101/96 124/104/96
f 119/103/490 125/103/490 122/100/490
f 115/99/491 116/100/491 122/100/491
f 119/103/99 118/104/99 124/104/99
f 117/101/492 114/102/492 120/102/492
f 124/104/493 130/104/493 131/103/493
f 123/101/494 120/102/494 126/102/494
f 121/99/495 127/99/495 126/102/495
f 124/104/496 123/101/496 129/101/496
f 125/103/497 131/103/497 128/100/497
f 121/99/498 122/100/498 128/100/498
f 132/104/107 136/104/107 137/103/107
f 118/104/499 134/104/499 132/104/499
f 119/103/500 135/103/500 134/104/500
f 119/103/501 113/103/501 133/103/501
f 139/103/502 137/103/502 141/103/502
f 135/103/112 133/103/112 137/103/112
f 135/103/113 139/103/113 138/104/113
f 134/104/114 138/104/114 136/104/114
f 141/103/503 140/104/503 142/104/503
f 139/103/504 143/103/504 142/104/504
f 138/104/505 142/104/505 140/104/505
f 136/104/506 140/104/506 141/103/506
f 94/98/507 93/96/507 146/96/507
f 91/97/508 144/97/508 145/82/508
f 94/98/509 147/98/509 148/85/509
f 92/82/510 145/82/510 146/96/510
f 128/100/511 131/103/511 130/104/511
f 127/99/512 130/104/512 129/101/512
f 89/103/513 152/107/513 149/110/513
f 88/104/514 87/101/514 154/108/514
f 74/102/515 76/99/515 150/105/515
f 87/101/516 74/102/516 153/109/516
f 88/104/517 151/106/517 152/107/517
f 78/100/518 149/110/518 150/105/518
f 102/102/519 156/112/519 157/115/519
f 106/104/520 158/113/520 159/107/520
f 103/99/521 104/100/521 160/114/521
f 104/100/522 107/103/522 159/107/522
f 106/104/523 105/101/523 157/115/523
f 103/99/524 155/111/524 156/112/524
f 162/97/525 164/64/525 163/65/525
f 163/65/526 164/64/526 166/66/526
f 165/67/527 166/66/527 168/68/527
f 168/68/528 170/74/528 169/70/528
f 170/74/529 168/68/529 175/68/529
f 368/74/530 367/70/530 369/75/530
f 170/74/531 415/116/531 171/75/531
f 190/67/532 186/67/532 185/65/532
f 177/76/533 176/74/533 182/74/533
f 164/64/534 173/64/534 174/66/534
f 164/64/535 162/97/535 172/97/535
f 166/66/536 174/66/536 175/68/536
f 180/73/537 179/125/537 182/71/537
f 179/125/538 178/132/538 182/71/538
f 178/132/539 183/124/539 182/71/539
f 174/66/540 180/66/540 181/68/540
f 173/64/541 172/97/541 178/97/541
f 177/76/542 183/76/542 178/118/542
f 175/68/543 181/68/543 182/74/543
f 173/64/544 179/64/544 180/66/544
f 188/70/545 189/75/545 210/75/545
f 192/75/546 189/75/546 188/70/546
f 191/117/547 185/65/547 184/63/547
f 190/67/548 195/119/548 187/69/548
f 192/75/549 194/122/549 184/77/549
f 193/70/550 188/70/550 187/69/550
f 221/70/551 193/70/551 195/119/551
f 218/121/552 222/77/552 194/122/552
f 217/67/553 219/120/553 195/119/553
f 222/63/554 220/123/554 191/117/554
f 218/121/555 192/75/555 193/70/555
f 220/123/556 217/67/556 190/67/556
f 182/116/557 181/116/557 197/116/557
f 181/116/558 180/116/558 198/116/558
f 199/116/559 179/116/559 178/116/559
f 199/116/560 204/116/560 201/116/560
f 198/116/561 180/116/561 202/116/561
f 179/125/562 201/125/562 202/73/562
f 210/79/563 205/137/563 206/80/563
f 206/80/564 207/131/564 208/126/564
f 208/126/565 209/78/565 210/79/565
f 187/69/566 208/69/566 207/67/566
f 185/65/567 206/65/567 205/63/567
f 189/75/568 184/77/568 205/77/568
f 187/69/569 188/70/569 209/70/569
f 186/67/570 207/67/570 206/65/570
f 163/65/571 165/67/571 214/67/571
f 171/75/572 215/121/572 212/127/572
f 161/63/573 163/65/573 211/123/573
f 165/67/574 167/69/574 216/69/574
f 161/77/575 213/77/575 215/121/575
f 169/70/576 212/127/576 216/69/576
f 211/123/577 214/67/577 217/67/577
f 215/121/578 218/121/578 221/70/578
f 213/63/579 211/123/579 220/123/579
f 214/67/580 216/69/580 219/120/580
f 215/121/581 213/77/581 222/77/581
f 212/127/582 221/70/582 219/120/582
f 204/116/583 71/116/583 73/116/583
f 203/116/584 202/116/584 77/116/584
f 77/73/585 202/73/585 75/128/585
f 202/73/586 201/125/586 75/128/586
f 145/82/587 224/82/587 225/96/587
f 146/96/197 225/96/197 226/98/197
f 145/82/588 144/97/588 223/97/588
f 147/98/589 226/98/589 227/85/589
f 248/2/590 249/5/590 26/1/590
f 26/1/591 249/5/591 250/4/591
f 250/4/592 233/129/592 7/6/592
f 250/4/593 234/9/593 231/8/593
f 249/5/594 235/10/594 234/9/594
f 248/2/595 236/11/595 235/10/595
f 230/12/596 236/11/596 248/2/596
f 232/13/597 248/2/597 25/3/597
f 251/15/598 254/17/598 255/16/598
f 252/18/599 255/16/599 256/19/599
f 254/17/600 257/21/600 258/20/600
f 255/16/601 258/20/601 259/22/601
f 230/12/602 239/23/602 251/15/602
f 236/11/603 251/15/603 252/18/603
f 235/10/604 252/18/604 253/24/604
f 253/24/605 240/59/605 231/8/605
f 253/24/606 256/19/606 241/25/606
f 256/19/607 259/22/607 242/26/607
f 259/22/608 243/28/608 229/27/608
f 258/20/609 244/29/609 243/28/609
f 257/21/610 245/30/610 244/29/610
f 228/31/611 245/30/611 257/21/611
f 238/33/612 237/32/612 257/21/612
f 239/23/613 238/33/613 254/17/613
f 261/37/614 260/39/614 44/34/614
f 260/39/615 43/36/615 44/34/615
f 261/37/616 44/34/616 45/38/616
f 228/31/617 246/40/617 260/39/617
f 245/30/618 260/39/618 261/37/618
f 244/29/619 261/37/619 262/41/619
f 262/41/620 247/42/620 229/27/620
f 45/38/621 24/133/621 247/42/621
f 246/40/622 21/43/622 43/36/622
f 46/44/623 48/46/623 264/45/623
f 48/46/624 50/48/624 265/47/624
f 6/49/625 46/44/625 263/50/625
f 232/51/626 263/50/626 239/23/626
f 263/50/627 264/45/627 238/33/627
f 264/45/628 265/47/628 237/32/628
f 265/47/629 246/52/629 228/31/629
f 21/53/630 246/52/630 265/47/630
f 266/54/631 267/56/631 55/55/631
f 267/56/632 268/58/632 57/57/632
f 231/8/633 240/59/633 266/54/633
f 233/60/634 266/54/634 53/61/634
f 247/62/635 24/134/635 57/57/635
f 229/27/636 247/62/636 268/58/636
f 241/25/637 242/26/637 268/58/637
f 240/59/638 241/25/638 267/56/638
f 269/63/247 271/65/247 272/64/247
f 271/65/248 273/67/248 274/66/248
f 273/67/249 275/69/249 276/68/249
f 277/70/639 278/74/639 276/68/639
f 270/135/251 272/125/251 280/124/251
f 272/125/251 274/73/251 280/124/251
f 274/73/251 276/72/251 278/71/251
f 279/75/252 280/76/252 278/74/252
f 269/77/253 270/118/253 280/76/253
f 271/80/254 269/136/254 279/79/254
f 279/79/254 277/78/254 271/80/254
f 277/78/254 275/126/254 273/131/254
f 86/81/640 299/83/640 297/82/640
f 300/84/641 90/86/641 80/85/641
f 79/88/642 85/92/642 289/87/642
f 283/89/643 285/8/643 289/87/643
f 283/89/644 288/94/644 287/90/644
f 71/63/645 281/91/645 287/90/645
f 85/92/646 90/86/646 300/84/646
f 289/87/647 300/84/647 301/93/647
f 288/94/648 301/93/648 299/83/648
f 81/95/649 287/90/649 299/83/649
f 294/96/650 293/82/650 297/82/650
f 293/82/651 91/97/651 72/97/651
f 298/98/652 295/98/652 294/96/652
f 80/85/653 95/85/653 295/98/653
f 284/99/654 296/96/654 297/82/654
f 286/100/655 298/98/655 296/96/655
f 297/82/656 299/83/656 290/101/656
f 300/84/657 298/98/657 286/100/657
f 301/93/658 300/84/658 292/103/658
f 290/101/659 299/83/659 301/93/659
f 348/105/660 303/99/660 304/100/660
f 307/103/661 306/104/661 349/106/661
f 352/108/662 305/101/662 302/102/662
f 302/102/663 303/99/663 348/105/663
f 349/106/664 306/104/664 305/101/664
f 304/100/665 307/103/665 350/107/665
f 308/102/666 309/99/666 353/111/666
f 356/113/667 312/104/667 311/101/667
f 358/114/668 310/100/668 313/103/668
f 353/111/669 309/99/669 310/100/669
f 313/103/670 312/104/670 356/113/670
f 311/101/671 308/102/671 354/112/671
f 315/99/672 316/100/672 310/100/672
f 333/103/673 332/104/673 312/104/673
f 317/101/674 314/102/674 308/102/674
f 308/102/675 314/102/675 315/99/675
f 318/104/676 317/101/676 311/101/676
f 310/100/677 316/100/677 319/103/677
f 314/102/678 320/102/678 321/99/678
f 324/104/294 323/101/294 317/101/294
f 322/100/679 325/103/679 319/103/679
f 315/99/680 321/99/680 322/100/680
f 319/103/297 325/103/297 324/104/297
f 317/101/681 323/101/681 320/102/681
f 331/103/682 330/104/682 324/104/682
f 323/101/683 329/101/683 326/102/683
f 326/102/684 327/99/684 321/99/684
f 324/104/685 330/104/685 329/101/685
f 328/100/686 331/103/686 325/103/686
f 321/99/687 327/99/687 328/100/687
f 337/103/305 336/104/305 332/104/305
f 332/104/688 334/104/688 318/104/688
f 334/104/689 335/103/689 319/103/689
f 319/103/690 335/103/690 333/103/690
f 339/103/691 343/103/691 341/103/691
f 335/103/310 339/103/310 337/103/310
f 338/104/311 339/103/311 335/103/311
f 336/104/312 338/104/312 334/104/312
f 341/103/692 343/103/692 342/104/692
f 342/104/693 343/103/693 339/103/693
f 340/104/694 342/104/694 338/104/694
f 341/103/695 340/104/695 336/104/695
f 295/98/696 346/98/696 345/96/696
f 344/82/697 144/97/697 91/97/697
f 148/85/698 346/98/698 295/98/698
f 345/96/699 344/82/699 293/82/699
f 328/100/700 327/99/700 330/104/700
f 327/99/701 326/102/701 329/101/701
f 347/110/702 350/107/702 292/103/702
f 291/104/703 349/106/703 352/108/703
f 282/102/704 351/109/704 348/105/704
f 290/101/705 352/108/705 351/109/705
f 350/107/706 349/106/706 291/104/706
f 348/105/707 347/110/707 286/100/707
f 355/115/708 354/112/708 302/102/708
f 357/107/709 356/113/709 306/104/709
f 303/99/710 353/111/710 358/114/710
f 304/100/711 358/114/711 357/107/711
f 306/104/712 356/113/712 355/115/712
f 354/112/713 353/111/713 303/99/713
f 361/65/714 362/64/714 360/97/714
f 361/65/715 363/67/715 364/66/715
f 363/67/716 365/69/716 366/68/716
f 367/70/717 368/74/717 366/68/717
f 368/74/718 374/74/718 373/68/718
f 416/116/719 369/75/719 359/63/719
f 162/97/720 161/63/720 171/75/720
f 381/65/721 382/67/721 386/67/721
f 177/76/722 183/76/722 379/74/722
f 372/66/723 371/64/723 362/64/723
f 362/64/724 371/64/724 370/97/724
f 373/68/725 372/66/725 364/66/725
f 375/132/726 376/125/726 379/71/726
f 376/125/727 377/73/727 379/71/727
f 377/73/728 378/72/728 379/71/728
f 378/68/729 377/66/729 372/66/729
f 371/64/730 376/64/730 375/97/730
f 375/118/731 183/76/731 177/76/731
f 379/74/732 378/68/732 373/68/732
f 377/66/733 376/64/733 371/64/733
f 384/70/734 398/70/734 399/75/734
f 384/70/735 385/75/735 388/75/735
f 380/63/736 381/65/736 387/117/736
f 386/67/737 382/67/737 383/69/737
f 388/75/738 385/75/738 380/77/738
f 383/69/739 384/70/739 389/70/739
f 391/119/740 389/70/740 410/70/740
f 407/121/741 388/75/741 390/122/741
f 406/67/742 386/67/742 391/119/742
f 411/63/743 390/63/743 387/117/743
f 389/70/744 388/75/744 407/121/744
f 409/123/745 387/117/745 386/67/745
f 197/116/746 378/116/746 379/116/746
f 198/116/747 377/116/747 378/116/747
f 199/116/748 200/116/748 375/116/748
f 392/116/749 204/116/749 199/116/749
f 198/116/750 203/116/750 393/116/750
f 393/73/751 392/125/751 376/125/751
f 395/80/752 394/137/752 399/79/752
f 399/79/753 398/78/753 397/126/753
f 397/126/754 396/131/754 395/80/754
f 396/67/755 397/69/755 383/69/755
f 394/63/756 395/65/756 381/65/756
f 385/75/757 399/75/757 394/77/757
f 383/69/758 397/69/758 398/70/758
f 395/65/759 396/67/759 382/67/759
f 361/65/760 400/123/760 403/67/760
f 401/127/761 404/121/761 369/75/761
f 359/63/762 402/63/762 400/123/762
f 363/67/763 403/67/763 405/69/763
f 404/121/764 402/77/764 359/77/764
f 405/69/765 401/127/765 367/70/765
f 400/123/766 409/123/766 406/67/766
f 410/70/767 407/121/767 404/121/767
f 402/63/768 411/63/768 409/123/768
f 403/67/769 406/67/769 408/120/769
f 404/121/770 407/121/770 411/77/770
f 408/120/771 410/70/771 401/127/771
f 281/116/772 71/116/772 204/116/772
f 203/116/773 79/116/773 285/116/773
f 392/125/774 393/73/774 283/128/774
f 393/73/775 285/73/775 283/128/775
f 413/96/776 412/82/776 344/82/776
f 414/98/394 413/96/394 345/96/394
f 344/82/777 412/82/777 223/97/777
f 227/85/778 414/98/778 346/98/778
f 415/116/779 170/74/779 176/74/779
f 416/116/780 177/76/780 374/74/780
f 172/118/781 162/97/781 415/116/781
f 416/116/782 360/97/782 370/118/782
