# Blender 5.0.0
# www.blender.org
o body
v 0.496492 -0.836496 9.633035
v 0.583336 -0.739345 10.903973
v 0.476577 0.278155 9.700293
v 0.565221 0.486406 10.939685
v 0.246627 0.341088 9.604404
v -0.000000 0.369678 9.549723
v -0.000000 0.658669 11.073330
v 0.340386 0.599495 11.028815
v 0.631619 0.554539 10.698352
v 0.646511 0.545035 10.339460
v 0.576865 0.424383 9.967681
v 0.562963 -0.631520 9.546938
v 0.591550 -0.317049 9.518235
v 0.550611 0.022595 9.589332
v 0.654626 0.225672 11.019019
v 0.703310 -0.145583 11.051914
v 0.665741 -0.502555 10.998070
v 0.654036 -0.830153 10.651070
v 0.671875 -0.892060 10.278393
v 0.600616 -0.885222 9.898898
v -0.000000 -0.970372 9.467140
v 0.267098 -0.925011 9.526200
v 0.358752 -0.817453 10.991776
v -0.000000 -0.856363 11.036964
v -0.000000 0.674132 9.920961
v -0.000000 0.858995 10.339657
v -0.000000 0.860968 10.745351
v 0.290903 0.614872 9.946914
v 0.337850 0.778810 10.342933
v 0.344425 0.778266 10.725675
v 0.749642 0.108478 9.927365
v 0.841644 0.194318 10.324787
v 0.811618 0.221481 10.710483
v 0.812126 -0.260919 9.884210
v 0.912852 -0.205322 10.305001
v 0.878665 -0.167071 10.716221
v 0.764291 -0.610046 9.886891
v 0.857600 -0.587271 10.288716
v 0.825386 -0.539852 10.682850
v 0.317045 -1.052687 9.862840
v 0.365526 -1.074153 10.147101
v 0.369003 -0.996871 10.670527
v -0.000000 -1.112858 9.885020
v -0.000000 -1.133464 10.142173
v -0.000000 -1.050111 10.690125
v -0.000000 0.004889 9.283545
v 0.255090 0.002209 9.369044
v -0.000000 -0.369840 9.168133
v 0.272938 -0.355472 9.267282
v -0.000000 -0.709899 9.234028
v 0.266506 -0.681006 9.321713
v 0.373244 0.271111 11.205627
v -0.000000 0.302962 11.269483
v 0.399412 -0.129139 11.258251
v -0.000000 -0.120306 11.327981
v 0.383312 -0.515705 11.186592
v -0.000000 -0.530811 11.251160
v -0.000000 -1.256591 9.953281
v 0.899103 0.129189 10.314132
v 0.964296 0.059744 10.335217
v 0.972883 0.157159 10.131773
v 1.038076 0.087714 10.152859
v 0.910948 0.053346 9.888632
v 0.976141 -0.016099 9.909718
v 0.775233 -0.078438 9.827847
v 0.840426 -0.147883 9.848932
v 0.701452 -0.106409 10.010205
v 0.766645 -0.175854 10.031291
v 0.763387 -0.002595 10.253347
v 0.828580 -0.072040 10.274433
v 0.000000 0.608116 6.696794
v -0.000045 0.614912 8.845465
v 0.504716 0.474077 6.511176
v 0.828603 0.497668 8.650550
v 0.598099 0.170520 6.468874
v 0.958572 0.162562 8.737829
v 0.495931 -0.116684 6.430516
v 0.866807 -0.040908 8.479260
v -0.000000 -0.261991 6.557888
v 0.000046 -0.516075 8.531626
v -0.000000 0.657830 7.329852
v 0.570473 0.578195 7.395219
v 0.767003 0.292576 7.397261
v 0.571976 -0.170258 7.346096
v -0.000000 -0.421472 7.329852
v 0.000174 0.703152 8.420160
v 0.703747 0.794683 8.343891
v 0.718558 0.648534 8.074723
v 0.697318 0.290421 7.996310
v 0.000477 -0.481901 8.202811
v -0.000000 0.515979 9.016129
v 0.439945 0.372836 8.988390
v 0.633971 0.086499 8.958664
v 0.435110 -0.214225 8.947639
v -0.000000 -0.334730 8.808512
v 0.958142 0.157465 8.748960
v 0.710218 0.430873 8.772638
v 0.738425 -0.240168 8.755997
v 0.614287 0.693785 8.099113
v 0.622165 -0.129523 8.063203
v 0.716525 0.597106 8.045227
v 1.568441 1.562882 7.366992
v 1.659582 1.430076 7.278319
v 1.563794 1.245356 7.158538
v 1.164474 1.657197 7.240555
v 1.097276 1.564113 7.101346
v 1.161230 1.343419 7.026769
v 1.945185 2.228039 6.063664
v 2.010604 2.100646 5.996377
v 1.943154 1.951745 5.936579
v 1.639176 2.261869 5.994453
v 1.585649 2.154167 5.894791
v 1.637696 1.987185 5.864178
v 1.971247 2.325352 6.022243
v 2.060307 2.116821 5.988703
v 1.988831 1.885110 5.838904
v 1.817264 2.385313 5.882428
v 1.787555 2.219235 5.791433
v 1.816069 1.924635 5.657875
v 2.245011 2.572558 5.674181
v 2.301643 2.335430 5.553153
v 2.243385 2.045358 5.419755
v 2.084433 2.583844 5.486881
v 2.054723 2.417765 5.395887
v 2.083237 2.123166 5.262330
v 2.184870 2.754227 5.116016
v 2.196077 2.608648 5.001993
v 2.184937 2.388293 4.939955
v 2.094474 2.660948 5.138117
v 2.068184 2.575325 5.072183
v 2.093803 2.361672 4.991645
v 1.576285 2.205423 5.681348
v 1.607773 2.057658 5.664776
v 1.771216 2.237740 5.639458
v 1.791621 1.982724 5.530813
v 1.629030 2.254860 5.467680
v 1.654831 2.133782 5.454102
v 1.788757 2.281340 5.433355
v 1.805476 2.072381 5.344333
v 1.704787 2.306523 5.243192
v 1.715627 2.218650 5.236614
v 1.822593 2.313061 5.243306
v 1.831815 2.162969 5.182086
v -0.000000 0.404502 9.146670
v 0.158780 0.287954 9.118275
v 0.252719 0.101461 9.054754
v 0.182110 -0.006843 9.054754
v -0.000000 -0.116119 9.016726
v 1.513457 1.162027 7.230547
v 1.609217 1.333811 7.379250
v 1.078577 1.528799 7.151371
v 1.131938 1.298646 7.066618
v 1.519667 1.473012 7.471454
v 1.135871 1.607006 7.309965
v 1.698690 1.503491 7.180946
v 1.610076 1.640136 7.258768
v 1.199386 1.699043 7.154553
v 1.127148 1.589751 7.032843
v 1.197586 1.367780 6.984262
v 1.606353 1.307728 7.088748
v 0.508211 -0.999858 4.180388
v 0.519509 0.337368 5.001130
v 0.863355 -1.165685 4.295820
v 1.026829 0.093965 5.294590
v 0.863355 -1.358744 4.473022
v 1.028275 -0.317030 5.585587
v 0.508191 -1.521957 4.604995
v 0.513592 -0.575011 5.642508
v 0.152952 -1.362528 4.476759
v 0.144936 -0.246150 5.425416
v 0.153066 -1.141082 4.310819
v 0.512164 0.582678 5.233587
v 1.018174 0.261885 5.450095
v 1.020134 -0.181131 5.710773
v 0.515757 -0.494637 5.701283
v 0.136937 -0.157185 5.459901
v -0.000000 0.785320 5.457451
v 0.418974 0.721625 5.435528
v 0.879472 0.485681 5.953057
v 0.876436 0.014277 5.980442
v 0.449171 -0.304128 5.837847
v 0.134332 -0.058469 5.505184
v -0.000000 0.827280 5.561774
v 0.430883 -1.207649 2.053324
v 0.691278 -1.357981 2.054736
v 0.691278 -1.658644 2.057561
v 0.430883 -1.808997 2.058968
v 0.170489 -1.658769 2.057540
v 0.170489 -1.357980 2.054736
v 0.822906 -1.553615 3.832035
v 0.822906 -1.307048 3.817572
v 0.152560 -1.349011 3.821822
v 0.152560 -1.597084 3.837501
v 0.487733 -1.087376 3.834353
v 0.487733 -1.754928 4.212298
v -0.000000 -0.012874 5.531676
v -0.000000 -0.200199 5.637970
v -0.000000 -0.264292 5.882586
v 0.000000 0.810161 6.103372
v -0.000000 0.832948 5.790516
v 0.713104 0.436579 6.272118
v 0.709689 -0.043497 6.203459
v -0.000000 -0.231475 6.222673
v 0.000000 0.628045 6.447790
v 0.430883 -1.424888 0.432719
v 0.625711 -1.538055 0.417179
v 0.625711 -1.768042 0.412825
v 0.430883 -1.880636 0.411476
v 0.236055 -1.766814 0.415886
v 0.236055 -1.538290 0.417042
v 0.856043 -1.268601 4.266825
v 0.152881 -1.486933 4.380162
v 0.504509 -1.064565 4.187318
v 0.856043 -1.459566 4.372512
v 0.152975 -1.252916 4.274521
v 0.504493 -1.589195 4.538828
v 0.847217 -1.553151 4.234886
v 0.152864 -1.310312 4.181139
v 0.500029 -1.662939 4.451916
v 0.847217 -1.309576 4.175055
v 0.152796 -1.558549 4.244361
v 0.500041 -1.120680 4.140645
v -0.000000 0.330200 9.787572
v 0.182652 0.209765 9.787572
v 0.252719 0.101462 9.787572
v 0.182110 -0.006843 9.787572
v -0.000000 -0.127185 9.732498
v -0.496493 -0.836496 9.633035
v -0.583336 -0.739345 10.903973
v -0.476577 0.278155 9.700293
v -0.565221 0.486406 10.939685
v -0.246627 0.341088 9.604404
v -0.340386 0.599495 11.028815
v -0.631619 0.554539 10.698352
v -0.646511 0.545035 10.339460
v -0.576865 0.424383 9.967681
v -0.562963 -0.631520 9.546938
v -0.591550 -0.317049 9.518235
v -0.550611 0.022595 9.589332
v -0.654626 0.225672 11.019019
v -0.703310 -0.145583 11.051914
v -0.665741 -0.502555 10.998070
v -0.654036 -0.830153 10.651070
v -0.671875 -0.892060 10.278393
v -0.600616 -0.885222 9.898898
v -0.267098 -0.925011 9.526200
v -0.358752 -0.817453 10.991776
v -0.290903 0.614872 9.946914
v -0.337850 0.778810 10.342933
v -0.344425 0.778266 10.725675
v -0.749642 0.108478 9.927365
v -0.841644 0.194318 10.324787
v -0.811618 0.221481 10.710483
v -0.812126 -0.260919 9.884210
v -0.912852 -0.205322 10.305001
v -0.878665 -0.167071 10.716221
v -0.764291 -0.610046 9.886891
v -0.857600 -0.587271 10.288716
v -0.825386 -0.539852 10.682850
v -0.317045 -1.052687 9.862840
v -0.365526 -1.074153 10.147101
v -0.369003 -0.996871 10.670527
v -0.255090 0.002209 9.369044
v -0.272938 -0.355472 9.267282
v -0.266506 -0.681006 9.321713
v -0.373244 0.271111 11.205627
v -0.399412 -0.129139 11.258251
v -0.383312 -0.515705 11.186592
v -0.899103 0.129189 10.314132
v -0.964296 0.059744 10.335217
v -0.972883 0.157159 10.131773
v -1.038076 0.087714 10.152859
v -0.910948 0.053346 9.888632
v -0.976141 -0.016099 9.909718
v -0.775233 -0.078438 9.827847
v -0.840426 -0.147883 9.848932
v -0.701452 -0.106409 10.010205
v -0.766645 -0.175854 10.031291
v -0.763387 -0.002595 10.253347
v -0.828580 -0.072040 10.274433
v -0.504526 0.476275 6.576974
v -0.822573 0.182462 8.421404
v -0.598793 0.169840 6.534271
v -0.956852 0.092411 8.757989
v -0.495657 -0.143675 6.484902
v -0.863596 -0.240463 8.778455
v -0.567895 0.445605 7.338739
v -0.761846 0.015563 7.360782
v -0.569711 -0.309850 7.366252
v -0.689933 0.122116 7.997993
v -0.701952 -0.191359 7.970480
v -0.684200 -0.441408 8.207839
v -0.440480 0.411393 8.960085
v -0.634109 0.103367 8.966472
v -0.435366 -0.198801 8.979827
v -0.956583 0.098955 8.767152
v -0.708789 0.375704 8.610514
v -0.738411 -0.249992 8.886326
v -0.607110 0.351939 7.893672
v -0.616809 -0.402573 8.203003
v -0.701481 -0.163624 7.952457
v -1.529452 -0.511260 6.883206
v -1.620363 -0.645482 6.967226
v -1.524707 -0.831909 7.083303
v -1.125355 -0.587034 6.744331
v -1.058579 -0.753949 6.768208
v -1.122022 -0.911968 6.937234
v -1.961278 -1.448641 5.788062
v -2.026765 -1.557008 5.882951
v -1.958800 -1.670334 5.996242
v -1.658900 -1.508768 5.720767
v -1.607192 -1.643116 5.781387
v -1.657127 -1.732794 5.926277
v -1.990817 -1.449646 5.683223
v -2.077034 -1.556607 5.866709
v -2.006925 -1.784551 6.022801
v -1.843569 -1.560977 5.570184
v -1.814183 -1.708577 5.688910
v -1.842115 -1.942277 5.912613
v -2.282634 -1.671149 5.332533
v -2.339291 -1.870819 5.508618
v -2.280615 -2.105152 5.725358
v -2.129691 -1.844956 5.246549
v -2.100306 -1.992555 5.365274
v -2.128238 -2.226255 5.588978
v -2.247735 -2.121440 4.952811
v -2.260520 -2.281483 5.045239
v -2.247506 -2.422153 5.225715
v -2.154750 -2.138652 5.044564
v -2.129376 -2.232677 5.098277
v -2.153936 -2.386906 5.266801
v -1.607113 -1.821769 5.653498
v -1.636338 -1.891804 5.785185
v -1.804115 -1.842826 5.614200
v -1.823750 -2.038795 5.810321
v -1.669059 -1.999539 5.529236
v -1.693005 -2.056925 5.637140
v -1.830481 -2.016792 5.497035
v -1.846570 -2.177369 5.657736
v -1.754456 -2.185832 5.399602
v -1.763831 -2.224671 5.478886
v -1.872274 -2.179894 5.397431
v -1.880940 -2.292792 5.513791
v -0.158780 0.287954 9.118275
v -0.252719 0.101461 9.054754
v -0.182110 -0.006843 9.054754
v -1.478942 -0.811858 7.184012
v -1.574701 -0.603261 7.094088
v -1.039763 -0.719966 6.824965
v -1.094175 -0.897272 6.993633
v -1.485052 -0.459356 7.010779
v -1.098140 -0.543301 6.824852
v -1.658740 -0.696798 6.867876
v -1.570038 -0.574217 6.770314
v -1.163057 -0.656861 6.664449
v -1.093095 -0.813219 6.716710
v -1.160846 -0.940415 6.904196
v -1.565998 -0.860136 7.008455
v -0.508053 1.207963 3.999592
v -0.519458 0.977673 5.373911
v -0.866564 1.030859 3.899053
v -1.031588 0.669717 5.481926
v -0.866564 0.785879 3.799694
v -1.033048 0.227857 5.235484
v -0.508034 0.594639 3.707768
v -0.513485 0.040154 5.021990
v -0.149427 0.780218 3.797493
v -0.141336 0.222662 5.198973
v -0.149542 1.022350 3.918815
v -0.512044 0.931614 5.643238
v -1.022851 0.585228 5.656314
v -1.024829 0.135847 5.416089
v -0.515671 -0.033081 5.142947
v -0.133260 0.147131 5.305034
v -0.417970 0.888830 5.782136
v -0.882834 0.475262 6.037092
v -0.879769 -0.052625 5.873638
v -0.448454 -0.175459 5.439151
v -0.130631 0.064501 5.452724
v -0.429993 3.036393 2.875811
v -0.658826 2.980686 2.756012
v -0.658826 2.869274 2.516416
v -0.429993 2.813568 2.396617
v -0.201160 2.869274 2.516415
v -0.201160 2.980686 2.756012
v -0.825732 1.273152 3.334571
v -0.825732 1.389940 3.556360
v -0.149032 1.368533 3.519555
v -0.149032 1.250591 3.297255
v -0.487382 1.466408 3.765718
v -0.487382 0.841652 3.310456
v -0.714889 0.433990 6.337735
v -0.711441 -0.110497 6.220618
v -0.429993 4.425611 1.972686
v -0.608103 4.435133 1.876048
v -0.608103 4.505919 1.648312
v -0.429993 4.537787 1.550081
v -0.251884 4.490324 1.656195
v -0.251884 4.435879 1.874671
v -0.859183 1.004814 3.785831
v -0.149356 0.807524 3.634019
v -0.504316 1.163727 3.938344
v -0.859183 0.829911 3.659829
v -0.149450 1.003979 3.803516
v -0.504300 0.623543 3.614193
v -0.850273 0.907886 3.508285
v -0.149339 1.058967 3.708108
v -0.499794 0.667829 3.504605
v -0.850273 1.065121 3.705411
v -0.149269 0.896830 3.506375
v -0.499806 1.176321 3.864913
v -0.182652 0.209765 9.787572
v -0.252719 0.101462 9.787572
v -0.182110 -0.006843 9.787572
v 0.213411 0.477755 5.240340
v -0.199640 0.780170 5.362697
vn 0.2171 0.8930 -0.3943
vn 0.2309 0.9730 -0.0026
vn 0.2282 0.8287 0.5111
vn 0.5934 0.7171 0.3657
vn 0.6038 0.7971 0.0039
vn 0.5368 0.7678 -0.3497
vn 0.4335 0.6757 -0.5962
vn 0.2244 0.7535 -0.6180
vn 0.9488 0.1900 -0.2522
vn 0.9829 0.1719 0.0657
vn 0.9669 -0.1341 -0.2169
vn 0.9843 -0.1466 0.0981
vn 0.7198 0.4412 -0.5359
vn 0.8218 0.4872 -0.2955
vn 0.8739 0.4848 0.0339
vn 0.8176 0.4547 0.3533
vn 0.8793 0.1584 0.4492
vn 0.8717 -0.1659 0.4611
vn 0.7717 -0.4987 0.3948
vn 0.8452 -0.5193 0.1267
vn 0.8441 -0.5094 -0.1677
vn 0.7852 -0.4383 -0.4373
vn 0.8572 -0.1236 -0.4999
vn 0.8229 0.2097 -0.5281
vn 1.0000 -0.0000 -0.0000
vn 0.1564 -0.9765 0.1485
vn 0.4800 -0.7943 -0.3725
vn 0.5169 -0.8425 -0.1518
vn 0.4664 -0.8756 0.1262
vn 0.4808 -0.7739 0.4123
vn 0.1500 -0.8611 0.4857
vn 0.2261 -0.9220 -0.3144
vn 0.3148 0.2794 -0.9071
vn 0.3250 -0.1799 -0.9284
vn 0.2669 0.5681 -0.7785
vn 0.4934 0.5045 -0.7086
vn 0.5804 0.2495 -0.7751
vn 0.6137 -0.1420 -0.7766
vn 0.5175 -0.5489 -0.6564
vn 0.3026 -0.6356 -0.7102
vn 0.1733 0.1395 0.9749
vn 0.1703 -0.1865 0.9676
vn 0.5492 0.4099 0.7283
vn 0.1876 0.4801 0.8569
vn 0.1601 -0.5446 0.8233
vn 0.5064 -0.4648 0.7263
vn 0.5518 -0.1809 0.8141
vn 0.5611 0.1458 0.8148
vn 0.6237 0.6944 0.3588
vn 0.7220 0.5506 -0.4190
vn 0.3616 0.0569 -0.9306
vn -0.6237 -0.6944 -0.3589
vn 0.6532 -0.7421 0.1505
vn -0.7220 -0.5506 0.4190
vn -0.3616 -0.0569 0.9306
vn -0.6532 0.7421 -0.1505
vn 0.1885 0.9236 0.3337
vn 0.4757 -0.8750 -0.0903
vn 0.2618 -0.9620 -0.0780
vn 0.9417 -0.3220 -0.0971
vn 0.9461 0.3059 -0.1064
vn 0.2097 0.9691 -0.1297
vn 0.4014 -0.9156 0.0239
vn 0.8803 -0.3993 0.2562
vn 0.8158 0.5604 -0.1428
vn 0.1553 0.9732 -0.1695
vn 0.4563 0.3426 0.8212
vn 0.2624 0.7976 0.5432
vn 0.4796 -0.3467 0.8061
vn 0.0564 -0.8352 0.5470
vn 0.7169 0.6230 0.3129
vn 0.8742 -0.4820 0.0585
vn 0.2278 0.7441 0.6280
vn 0.8599 -0.2267 -0.4573
vn 0.9959 -0.0712 0.0555
vn 0.4582 0.7502 -0.4767
vn 0.8871 -0.4616 0.0024
vn -0.8174 0.0225 -0.5756
vn 0.0051 0.8093 0.5873
vn 0.8254 0.1756 0.5365
vn -0.8474 0.5280 0.0560
vn 0.0724 -0.6768 -0.7326
vn 0.8559 0.3268 0.4008
vn -0.8553 0.5099 -0.0917
vn 0.0135 -0.8745 -0.4849
vn 0.9066 -0.4212 0.0264
vn -0.8772 -0.1810 -0.4448
vn 0.0166 0.8971 0.4415
vn 0.2808 -0.4645 0.8399
vn -0.9522 -0.3033 0.0357
vn -0.0741 0.7267 0.6829
vn 0.6376 0.1508 0.7555
vn -0.4882 0.7110 -0.5061
vn -0.5087 -0.8032 0.3101
vn 0.8147 -0.0972 0.5717
vn -0.8463 0.3644 -0.3887
vn 0.0996 -0.9481 -0.3020
vn 0.8864 -0.3282 0.3265
vn -0.8522 0.1454 -0.5026
vn -0.2655 0.9216 0.2832
vn -0.9945 -0.0562 -0.0883
vn -0.6951 0.7059 0.1360
vn 0.9694 0.2443 -0.0250
vn -0.9681 0.2388 0.0760
vn 0.1937 -0.7868 -0.5860
vn 0.9824 0.0029 -0.1867
vn -0.9466 -0.1711 -0.2733
vn -0.1859 0.9535 0.2371
vn 0.9866 0.1361 -0.0895
vn -0.5248 -0.8078 -0.2683
vn -0.5513 -0.6871 -0.4732
vn -0.5762 -0.7191 -0.3885
vn 0.9949 0.0399 0.0931
vn -0.1193 0.9734 0.1958
vn -0.2542 0.3518 -0.9009
vn 0.9844 0.0038 0.1759
vn -0.1223 0.9754 0.1832
vn -0.9321 -0.1623 -0.3239
vn 0.2621 -0.1709 0.9498
vn 0.2221 0.5232 0.8227
vn -0.0405 -0.6891 0.7235
vn 0.2463 0.0665 0.9669
vn -0.5155 0.2563 -0.8177
vn -0.6227 0.4522 -0.6385
vn 0.2420 -0.7584 -0.6052
vn -0.8836 0.4589 0.0929
vn 0.8035 0.1324 0.5804
vn 0.0124 0.7838 0.6209
vn -0.9436 0.1233 -0.3074
vn 0.8917 -0.4509 0.0383
vn 0.0639 0.8869 0.4575
vn -0.7598 -0.0005 -0.6501
vn 0.8984 -0.4381 0.0305
vn 0.0537 -0.7606 -0.6470
vn -0.7732 0.6257 -0.1030
vn 0.8347 0.2427 0.4944
vn 0.4616 0.4612 -0.7578
vn 0.9942 -0.0727 -0.0793
vn 0.5081 -0.6375 0.5792
vn -0.4983 -0.6391 0.5859
vn -0.6931 -0.3139 0.6489
vn 0.9948 0.0895 0.0495
vn -1.0000 -0.0031 -0.0048
vn 0.9972 -0.0044 -0.0743
vn -0.9862 -0.1535 0.0617
vn 0.9990 0.0280 0.0346
vn 0.5997 0.5602 -0.5715
vn 0.3617 -0.5566 0.7479
vn -0.5274 0.3638 0.7678
vn 0.2886 -0.4892 0.8231
vn 0.6015 0.7782 -0.1804
vn 0.0999 0.8406 -0.5323
vn -0.6936 -0.3154 0.6476
vn 0.9176 0.2046 0.3407
vn -0.9992 0.0002 -0.0399
vn -0.9999 -0.0006 -0.0101
vn 0.5441 0.8358 -0.0738
vn 0.5000 -0.8659 0.0142
vn -0.5000 0.8660 -0.0095
vn -0.4570 -0.8888 0.0344
vn -0.4512 -0.8251 0.3399
vn -0.6112 0.7870 -0.0842
vn 0.4906 -0.8709 -0.0286
vn 0.5493 0.8328 0.0685
vn -1.0000 0.0004 0.0005
vn 0.9977 -0.0040 -0.0679
vn -0.2376 -0.9711 0.0241
vn -0.3211 -0.4674 -0.8237
vn -0.1104 -0.9614 -0.2519
vn -0.1818 0.0352 -0.9827
vn 0.3104 0.9481 0.0691
vn 0.3759 0.8662 0.3293
vn 0.2573 -0.9619 0.0928
vn 0.7968 0.0299 0.6035
vn 0.0003 0.0165 -0.9999
vn 0.4998 -0.8653 0.0376
vn 0.4971 0.8600 -0.1153
vn -0.4928 0.8625 -0.1147
vn -0.5035 -0.8632 0.0375
vn 0.9992 -0.0004 -0.0400
vn 0.9953 -0.0469 -0.0847
vn -1.0000 0.0005 -0.0000
vn 0.1558 -0.1140 -0.9812
vn 0.5100 -0.6256 0.5904
vn -0.4270 0.2795 -0.8600
vn -0.4955 -0.5952 0.6326
vn 0.9960 -0.0212 -0.0863
vn -1.0000 0.0006 0.0003
vn 0.3833 0.5724 -0.7249
vn 0.5157 -0.7235 0.4589
vn -0.4659 0.7541 -0.4629
vn -0.4591 -0.6656 0.5884
vn 0.2797 0.9555 0.0939
vn 0.2593 -0.9618 -0.0876
vn 0.7570 0.1441 0.6373
vn 0.8931 0.4499 -0.0000
vn 0.8377 -0.5461 -0.0000
vn 0.5488 0.8323 0.0777
vn 0.5165 -0.8562 -0.0132
vn -0.2171 0.8930 -0.3943
vn -0.2332 0.9724 -0.0047
vn -0.2282 0.8287 0.5111
vn -0.5362 0.7239 0.4341
vn -0.6140 0.7893 -0.0094
vn -0.5575 0.7416 -0.3731
vn -0.4335 0.6757 -0.5962
vn -0.2244 0.7535 -0.6180
vn -0.9486 0.1818 -0.2589
vn -0.9832 0.1706 0.0645
vn -0.9679 -0.1309 -0.2144
vn -0.9842 -0.1492 0.0957
vn -0.7191 0.4598 -0.5211
vn -0.8258 0.4724 -0.3080
vn -0.8791 0.4760 0.0239
vn -0.8176 0.4547 0.3533
vn -0.8813 0.1551 0.4463
vn -0.8704 -0.1617 0.4650
vn -0.7756 -0.4470 0.4457
vn -0.8474 -0.5145 0.1312
vn -0.8444 -0.5089 -0.1672
vn -0.7852 -0.4383 -0.4373
vn -0.8583 -0.1214 -0.4987
vn -0.8209 0.2013 -0.5345
vn -0.1488 -0.9784 0.1435
vn -0.5095 -0.7887 -0.3441
vn -0.5440 -0.8308 -0.1171
vn -0.5063 -0.8464 0.1648
vn -0.4808 -0.7739 0.4123
vn -0.1500 -0.8611 0.4857
vn -0.1482 -0.9172 -0.3698
vn -0.3082 0.2745 -0.9109
vn -0.3445 -0.1614 -0.9248
vn -0.2408 0.5577 -0.7943
vn -0.4461 0.4620 -0.7665
vn -0.5707 0.2336 -0.7872
vn -0.6232 -0.1271 -0.7717
vn -0.5828 -0.4680 -0.6643
vn -0.3026 -0.6356 -0.7102
vn -0.1783 0.1347 0.9747
vn -0.1652 -0.1814 0.9694
vn -0.5146 0.4458 0.7324
vn -0.1947 0.4737 0.8589
vn -0.1601 -0.5446 0.8233
vn -0.5064 -0.4648 0.7263
vn -0.5466 -0.1746 0.8190
vn -0.5630 0.1438 0.8139
vn -0.6237 0.6944 0.3588
vn -0.7220 0.5506 -0.4190
vn -0.3616 0.0569 -0.9306
vn 0.6237 -0.6944 -0.3588
vn -0.6532 -0.7421 0.1505
vn 0.7220 -0.5506 0.4190
vn 0.3616 -0.0569 0.9306
vn 0.6532 0.7421 -0.1505
vn -0.3696 0.9099 0.1886
vn -0.2630 -0.9505 0.1654
vn -0.2000 -0.9596 -0.1977
vn -0.8305 -0.4947 -0.2562
vn -0.9510 0.3019 -0.0670
vn -0.3501 0.9338 -0.0733
vn -0.1982 -0.9729 -0.1190
vn -0.8587 -0.5081 -0.0663
vn -0.9115 0.4113 0.0050
vn -0.4764 0.8784 -0.0364
vn -0.3866 0.6915 0.6102
vn -0.3702 0.9090 0.1914
vn -0.5250 -0.0379 0.8503
vn -0.0316 -0.8300 0.5569
vn -0.7811 0.6062 -0.1494
vn -0.9452 -0.2520 0.2078
vn -0.6600 0.6867 -0.3046
vn 0.4753 -0.7723 0.4214
vn 0.9409 -0.1956 -0.2765
vn -0.9989 0.0358 0.0289
vn -0.8732 -0.2116 0.4390
vn 0.8172 -0.5086 -0.2710
vn 0.0170 0.9241 -0.3819
vn -0.8301 0.5539 0.0635
vn 0.8523 0.2814 -0.4409
vn -0.0975 -0.9667 0.2367
vn -0.8477 0.5163 -0.1220
vn 0.8024 0.1675 -0.5728
vn 0.0071 -0.7787 0.6273
vn -0.8880 -0.1229 0.4430
vn 0.8633 -0.5038 -0.0299
vn -0.0209 0.7476 -0.6639
vn -0.2390 0.6111 0.7546
vn 0.9586 -0.1083 0.2633
vn 0.0864 0.9037 -0.4193
vn -0.2105 0.7129 0.6689
vn 0.4543 -0.2152 -0.8645
vn 0.1772 -0.2190 0.9595
vn -0.7720 0.6356 0.0077
vn 0.8233 -0.2471 -0.5110
vn -0.0927 -0.6335 0.7682
vn -0.8024 0.1489 0.5779
vn 0.8291 -0.4352 -0.3511
vn 0.1300 0.7859 -0.6046
vn 0.9912 -0.1314 -0.0135
vn 0.3105 0.6268 -0.7147
vn -0.9742 0.0965 -0.2040
vn 0.9813 0.0449 -0.1871
vn -0.2010 -0.8331 0.5153
vn -0.9796 -0.1924 0.0572
vn 0.9384 -0.3445 0.0250
vn 0.1764 0.5730 -0.8003
vn -0.9918 -0.0035 -0.1275
vn 0.5384 -0.5188 0.6640
vn 0.5878 -0.6725 0.4498
vn 0.5746 -0.6468 0.5015
vn -0.9911 0.1297 0.0304
vn 0.1078 0.5441 -0.8321
vn -0.0370 -0.8957 -0.4432
vn -0.9767 0.1925 0.0946
vn 0.1103 0.5331 -0.8388
vn 0.9218 -0.3877 -0.0016
vn -0.2248 -0.1050 0.9687
vn -0.2292 0.5264 0.8188
vn 0.0694 -0.6880 0.7224
vn -0.2219 0.1594 0.9620
vn 0.4945 -0.6759 -0.5465
vn 0.4592 -0.3439 -0.8190
vn 0.0084 -0.9424 0.3345
vn 0.9458 -0.0078 -0.3247
vn -0.6635 0.7454 -0.0653
vn -0.3597 0.9013 -0.2412
vn 0.9509 -0.1749 -0.2554
vn -0.8805 -0.2209 0.4193
vn -0.0746 0.7680 -0.6361
vn 0.7195 -0.6212 -0.3106
vn -0.8503 -0.1168 0.5131
vn 0.0630 -0.7917 0.6076
vn 0.7855 0.2322 -0.5737
vn -0.8311 0.5559 -0.0112
vn -0.4702 0.8711 0.1421
vn -0.9943 0.0542 -0.0913
vn -0.4461 -0.8155 -0.3687
vn 0.4978 -0.7998 -0.3354
vn 0.5533 -0.7170 -0.4241
vn 0.5236 0.8396 0.1450
vn -0.4013 0.4673 -0.7878
vn -0.9956 0.0826 -0.0435
vn 0.9775 -0.1764 -0.1161
vn -0.9992 -0.0172 0.0367
vn -0.4836 0.8605 0.1605
vn -0.4636 -0.7542 -0.4650
vn 0.4338 -0.1999 0.8786
vn -0.4432 -0.8431 -0.3047
vn -0.4655 0.7066 0.5329
vn 0.3028 0.9491 0.0872
vn 0.5267 -0.7378 -0.4222
vn -0.9593 -0.1298 0.2507
vn 0.9996 0.0272 -0.0126
vn 0.9996 0.0256 -0.0136
vn -0.5434 0.4289 0.7216
vn -0.5040 -0.3511 -0.7892
vn 0.6140 0.3721 0.6961
vn 0.4379 -0.3885 -0.8108
vn 0.4474 -0.6803 -0.5805
vn 0.4668 0.2682 0.8427
vn -0.4517 -0.6501 -0.6110
vn -0.4814 0.3953 0.7823
vn 1.0000 -0.0003 0.0006
vn -0.9981 0.0486 -0.0388
vn -0.1330 -0.9908 0.0246
vn 0.2272 -0.4806 -0.8470
vn 0.0589 -0.9657 -0.2530
vn 0.5301 0.0304 -0.8474
vn -0.3228 0.7324 0.5994
vn -0.3569 0.8776 0.3199
vn -0.2332 -0.9712 -0.0489
vn -0.9002 -0.1336 0.4144
vn -0.0008 0.9540 0.3000
vn -0.4997 -0.3937 -0.7715
vn -0.4963 0.4732 0.7279
vn 0.4963 0.4732 0.7279
vn 0.4997 -0.3938 -0.7715
vn -0.9995 0.0272 -0.0127
vn -0.9987 0.0190 -0.0467
vn 1.0000 0.0002 0.0005
vn -0.3781 0.8965 -0.2309
vn -0.5063 -0.8180 -0.2729
vn 0.4298 0.8918 -0.1417
vn 0.4928 -0.8368 -0.2388
vn -0.9986 0.0309 -0.0428
vn 1.0000 -0.0001 0.0006
vn -0.5215 0.7094 0.4742
vn -0.5049 -0.7929 -0.3412
vn 0.4593 0.8704 0.1775
vn 0.4502 -0.8342 -0.3186
vn -0.2712 0.9601 0.0688
vn -0.1677 -0.9858 0.0131
vn -0.7556 0.1434 0.6391
vn -0.8931 0.4499 -0.0000
vn -0.8377 -0.5461 -0.0000
vn -0.5999 0.7948 0.0921
vn -0.5165 -0.8562 -0.0132
vn -0.7854 -0.1157 -0.6081
vn 0.9945 0.1044 -0.0014
vn -0.1868 0.4767 -0.8590
vn 0.1399 0.9280 -0.3452
vn 0.2158 0.8929 -0.3952
vn 0.2332 0.9724 -0.0047
vn 0.2114 0.8407 0.4986
vn 0.5362 0.7239 0.4341
vn 0.6140 0.7893 -0.0094
vn 0.5575 0.7416 -0.3731
vn 0.4895 0.6746 -0.5525
vn 0.2088 0.7506 -0.6269
vn 0.9486 0.1818 -0.2589
vn 0.9832 0.1706 0.0645
vn 0.9679 -0.1309 -0.2144
vn 0.9842 -0.1492 0.0957
vn 0.7191 0.4598 -0.5211
vn 0.8258 0.4724 -0.3080
vn 0.8791 0.4760 0.0239
vn 0.8171 0.4050 0.4103
vn 0.8813 0.1551 0.4463
vn 0.8704 -0.1617 0.4650
vn 0.7756 -0.4470 0.4457
vn 0.8474 -0.5145 0.1312
vn 0.8444 -0.5089 -0.1672
vn 0.7820 -0.4824 -0.3947
vn 0.8583 -0.1214 -0.4987
vn 0.8209 0.2013 -0.5345
vn 0.1806 -0.9804 -0.0786
vn 0.1607 -0.9818 -0.1015
vn 0.1488 -0.9784 0.1435
vn 0.5095 -0.7887 -0.3441
vn 0.5440 -0.8308 -0.1171
vn 0.5063 -0.8464 0.1648
vn 0.4448 -0.7758 0.4475
vn 0.1542 -0.8626 0.4818
vn 0.1482 -0.9172 -0.3698
vn 0.3082 0.2745 -0.9109
vn 0.3445 -0.1614 -0.9248
vn 0.2408 0.5577 -0.7943
vn 0.4461 0.4620 -0.7665
vn 0.5707 0.2336 -0.7872
vn 0.6232 -0.1271 -0.7717
vn 0.5828 -0.4680 -0.6643
vn 0.2683 -0.6184 -0.7387
vn 0.1783 0.1347 0.9747
vn 0.1652 -0.1814 0.9694
vn 0.5146 0.4458 0.7324
vn 0.1947 0.4737 0.8589
vn 0.1626 -0.5423 0.8243
vn 0.4611 -0.5075 0.7279
vn 0.5466 -0.1746 0.8190
vn 0.5630 0.1438 0.8139
vn -0.6237 -0.6944 -0.3588
vn 0.2648 0.9442 0.1960
vn 0.3975 -0.8934 -0.2094
vn 0.3996 -0.8977 -0.1855
vn 0.9197 -0.3745 -0.1181
vn 0.8046 0.5520 -0.2190
vn 0.1465 0.9862 -0.0774
vn 0.4818 -0.8742 -0.0608
vn 0.9896 -0.1300 -0.0619
vn 0.5581 0.7669 -0.3169
vn -0.0065 0.9991 -0.0415
vn 0.5562 0.2963 0.7764
vn 0.2988 0.8257 0.4785
vn 0.5636 -0.2978 0.7705
vn 0.1976 -0.8800 0.4319
vn 0.5378 0.4016 0.7412
vn 0.9486 -0.2999 -0.1007
vn -0.9365 0.2603 0.2350
vn 0.6466 -0.7290 -0.2249
vn -0.9334 0.1128 -0.3406
vn -0.9887 0.1021 -0.1098
vn 0.8645 -0.5021 0.0233
vn -0.8997 -0.1187 -0.4201
vn -0.0082 0.7599 0.6500
vn 0.8050 0.1737 0.5673
vn -0.8432 0.5361 0.0402
vn 0.0689 -0.6880 -0.7224
vn 0.8918 0.2637 0.3677
vn -0.8176 0.5749 -0.0310
vn -0.0044 -0.8744 -0.4853
vn 0.9005 -0.4344 0.0204
vn -0.8742 -0.1906 -0.4467
vn -0.0006 0.8974 0.4413
vn 0.5223 -0.5707 0.6336
vn -0.9782 -0.2077 -0.0070
vn -0.4984 0.4491 0.7415
vn 0.2525 -0.3474 0.9031
vn -0.6769 0.4431 -0.5878
vn -0.1520 -0.9747 0.1641
vn 0.7897 0.2470 0.5615
vn 0.0041 -0.8948 -0.4464
vn 0.8248 -0.4637 0.3236
vn -0.1272 0.8532 0.5059
vn -0.9926 -0.0874 -0.0838
vn -0.3155 0.8918 0.3243
vn 0.9811 0.1604 -0.1084
vn -0.9852 0.1711 0.0095
vn -0.1567 -0.7380 -0.6564
vn 0.9751 -0.1063 -0.1947
vn -0.1340 0.9819 0.1340
vn 0.9828 0.1332 -0.1282
vn -0.5311 -0.8208 -0.2104
vn -0.5918 -0.6811 -0.4312
vn -0.0032 0.0743 -0.9972
vn 0.9874 -0.0038 0.1582
vn -0.0549 0.9864 0.1549
vn -0.9371 -0.0904 -0.3370
vn 0.2330 -0.1891 0.9539
vn 0.5591 0.6305 0.5384
vn 0.0533 -0.4062 0.9122
vn 0.4386 -0.0838 0.8948
vn -0.5312 0.2423 -0.8118
vn -0.4954 0.6204 -0.6081
vn 0.0621 -0.6909 -0.7203
vn -0.9466 0.2586 -0.1925
vn 0.6278 0.4150 0.6585
vn 0.1046 0.7353 0.6696
vn -0.9096 -0.0594 -0.4113
vn 0.8768 -0.4808 -0.0092
vn -0.0281 0.8187 0.5736
vn -0.8754 -0.1795 -0.4489
vn 0.8628 -0.4992 0.0800
vn -0.0373 -0.8529 -0.5207
vn -0.7924 0.6095 -0.0251
vn 0.8236 0.2418 0.5131
vn 0.5989 0.4484 -0.6635
vn 0.9943 -0.0590 -0.0883
vn 0.4132 -0.6945 0.5890
vn -0.7168 -0.4545 0.5288
vn -0.7048 -0.4063 0.5815
vn 1.0000 0.0028 -0.0047
vn -0.9947 0.0765 -0.0687
vn 0.9973 -0.0007 -0.0739
vn -0.9590 -0.1387 0.2472
vn 0.9993 0.0227 0.0311
vn 0.5995 0.5599 -0.5719
vn 0.3706 -0.6172 0.6941
vn -0.5422 0.0522 0.8386
vn -0.6419 0.2973 0.7068
vn 0.2843 -0.0181 0.9586
vn 0.2956 -0.6918 0.6588
vn 0.5928 0.7647 -0.2526
vn 0.1206 0.9210 -0.3704
vn -0.7775 -0.5226 0.3499
vn 0.9650 0.0090 0.2621
vn -0.9992 -0.0004 -0.0400
vn -0.9999 -0.0001 -0.0101
vn 0.4993 0.8642 -0.0622
vn 0.5213 -0.8534 0.0077
vn -0.6142 0.7884 -0.0336
vn -0.4997 -0.8659 0.0250
vn -0.4982 -0.8632 0.0820
vn -0.4659 0.8774 0.1141
vn 0.4527 -0.8400 0.2992
vn 0.4798 0.8770 -0.0264
vn -1.0000 0.0001 0.0008
vn 0.9981 -0.0148 -0.0602
vn 0.1240 -0.7385 -0.6628
vn 0.0474 -0.4606 0.8863
vn 0.3597 0.9274 0.1027
vn 0.3325 0.8337 0.4408
vn 0.3048 -0.9522 -0.0188
vn 0.8889 -0.0710 0.4526
vn 0.0003 0.1365 -0.9906
vn -0.0040 0.0189 -0.9998
vn -0.0197 0.0051 -0.9998
vn 0.4921 0.8630 -0.1146
vn -0.4971 0.8600 -0.1153
vn -0.4995 -0.8655 0.0370
vn 0.9992 0.0008 -0.0399
vn 0.9987 -0.0347 -0.0378
vn -1.0000 0.0006 0.0005
vn 0.3940 0.2232 -0.8916
vn 0.5072 -0.6185 0.6002
vn -0.1922 -0.0936 -0.9769
vn -0.4716 -0.5406 0.6966
vn 0.9986 -0.0258 -0.0465
vn -1.0000 0.0005 0.0009
vn 0.5267 0.7562 -0.3883
vn 0.5045 -0.6710 0.5434
vn -0.4761 0.5844 -0.6571
vn -0.4785 -0.7766 0.4099
vn 0.2821 0.9563 0.0765
vn 0.2535 -0.9646 -0.0722
vn 0.7369 -0.3402 0.5841
vn 0.8988 -0.0683 0.4330
vn 0.8391 0.5429 0.0335
vn 0.5999 0.7948 0.0921
vn 0.5513 -0.8343 -0.0000
vn -0.2158 0.8929 -0.3952
vn -0.2309 0.9730 -0.0026
vn -0.2114 0.8407 0.4986
vn -0.5934 0.7171 0.3657
vn -0.6038 0.7971 0.0039
vn -0.5368 0.7678 -0.3497
vn -0.4895 0.6746 -0.5525
vn -0.2088 0.7506 -0.6269
vn -0.9488 0.1900 -0.2522
vn -0.9829 0.1719 0.0657
vn -0.9669 -0.1341 -0.2169
vn -0.9843 -0.1466 0.0981
vn -0.7198 0.4412 -0.5359
vn -0.8218 0.4872 -0.2955
vn -0.8739 0.4848 0.0339
vn -0.8171 0.4050 0.4103
vn -0.8793 0.1584 0.4492
vn -0.8717 -0.1659 0.4611
vn -0.7717 -0.4987 0.3948
vn -0.8452 -0.5193 0.1267
vn -0.8441 -0.5094 -0.1677
vn -0.7820 -0.4824 -0.3947
vn -0.8572 -0.1236 -0.4999
vn -0.8229 0.2097 -0.5281
vn -0.1607 -0.9818 -0.1015
vn -0.1806 -0.9804 -0.0786
vn -0.1564 -0.9765 0.1485
vn -0.4800 -0.7943 -0.3725
vn -0.5169 -0.8425 -0.1518
vn -0.4664 -0.8756 0.1262
vn -0.4448 -0.7758 0.4475
vn -0.1542 -0.8626 0.4818
vn -0.2261 -0.9220 -0.3144
vn -0.3148 0.2794 -0.9071
vn -0.3250 -0.1799 -0.9284
vn -0.2669 0.5681 -0.7785
vn -0.4934 0.5045 -0.7086
vn -0.5804 0.2495 -0.7751
vn -0.6137 -0.1420 -0.7766
vn -0.5175 -0.5489 -0.6564
vn -0.2683 -0.6184 -0.7387
vn -0.1733 0.1395 0.9749
vn -0.1703 -0.1865 0.9676
vn -0.5492 0.4099 0.7283
vn -0.1876 0.4801 0.8569
vn -0.1626 -0.5423 0.8243
vn -0.4611 -0.5075 0.7279
vn -0.5518 -0.1809 0.8141
vn -0.5611 0.1458 0.8148
vn -0.4377 0.8944 -0.0917
vn -0.1268 -0.9866 -0.1027
vn -0.2006 -0.9594 -0.1982
vn -0.9474 -0.2905 -0.1344
vn -0.9086 0.4045 -0.1038
vn -0.2567 0.9663 0.0176
vn -0.1272 -0.9895 -0.0684
vn -0.9015 -0.4216 -0.0975
vn -0.9680 0.1952 0.1579
vn -0.3452 0.9292 0.1324
vn -0.7243 0.4658 0.5084
vn -0.2600 0.8354 0.4843
vn -0.2710 -0.1361 0.9529
vn -0.0455 -0.8357 0.5473
vn -0.7879 0.5118 -0.3424
vn -0.6517 -0.1538 0.7427
vn -0.9500 0.2770 -0.1439
vn -0.2233 -0.9590 0.1744
vn 0.3134 -0.6321 -0.7087
vn -0.8813 0.1089 -0.4598
vn -0.8942 -0.2141 0.3931
vn 0.9070 -0.4181 -0.0504
vn 0.0007 0.8787 -0.4774
vn -0.7980 0.5961 0.0888
vn 0.8506 0.2763 -0.4474
vn -0.0843 -0.9533 0.2900
vn -0.8817 0.4654 -0.0770
vn 0.8408 0.0822 -0.5351
vn -0.0153 -0.7777 0.6284
vn -0.8965 -0.1083 0.4295
vn 0.8597 -0.5104 -0.0196
vn 0.0005 0.7468 -0.6650
vn -0.4861 0.3870 0.7835
vn 0.9810 -0.1126 0.1578
vn 0.5180 0.8414 -0.1540
vn -0.6106 0.7746 0.1646
vn 0.6448 -0.3970 -0.6531
vn 0.5359 -0.0296 0.8438
vn -0.7898 0.5162 0.3312
vn -0.0039 -0.7499 0.6615
vn -0.8665 0.2042 0.4554
vn 0.2583 0.6014 -0.7561
vn 0.9902 -0.1389 0.0171
vn 0.6860 0.3716 -0.6255
vn -0.9875 -0.0119 -0.1573
vn 0.9655 0.1325 -0.2242
vn 0.1455 -0.8900 0.4322
vn -0.9888 -0.1437 -0.0407
vn 0.1200 0.4896 -0.8636
vn -0.9894 -0.0404 -0.1395
vn 0.5296 -0.5674 0.6305
vn 0.5459 -0.7125 0.4410
vn 0.2121 -0.7092 -0.6723
vn -0.9803 0.1733 0.0951
vn 0.0416 0.5129 -0.8574
vn 0.9249 -0.3730 -0.0733
vn -0.1927 -0.1256 0.9732
vn -0.5591 0.6305 0.5384
vn -0.0133 -0.3483 0.9373
vn -0.5028 -0.0408 0.8635
vn 0.4783 -0.6756 -0.5611
vn 0.5886 -0.4391 -0.6788
vn -0.0289 -0.9325 0.3599
vn 0.8740 0.2886 -0.3909
vn -0.8102 0.5739 0.1194
vn -0.0417 0.8752 -0.4819
vn 0.9214 -0.3761 -0.0981
vn -0.8799 -0.2231 0.4195
vn 0.0459 0.8653 -0.4991
vn 0.8709 -0.4911 -0.0185
vn -0.8952 -0.1458 0.4211
vn -0.0812 -0.9170 0.3906
vn 0.7541 0.1217 -0.6454
vn -0.8074 0.5900 0.0072
vn -0.4871 0.8611 0.1457
vn -0.9942 0.0404 -0.0996
vn -0.5089 -0.7924 -0.3364
vn 0.5345 -0.7843 -0.3151
vn 0.5343 -0.6688 -0.5170
vn 0.4822 0.8611 0.1612
vn -0.4624 0.4666 -0.7539
vn -0.9957 0.0841 -0.0391
vn 0.9814 -0.1783 0.0717
vn -0.9990 -0.0178 0.0414
vn -0.5084 0.7647 0.3960
vn -0.4696 -0.7951 -0.3837
vn 0.5631 -0.1298 0.8161
vn 0.5037 -0.2529 0.8261
vn 0.4518 -0.6339 0.6277
vn -0.4580 -0.8636 -0.2105
vn -0.4762 0.7825 0.4011
vn -0.0600 0.9261 -0.3725
vn 0.5474 -0.6990 -0.4602
vn -0.9428 -0.1036 0.3168
vn 0.9993 0.0360 0.0090
vn 0.9996 0.0265 -0.0123
vn -0.4987 0.4308 0.7522
vn -0.5000 -0.3531 -0.7908
vn 0.4999 0.3839 0.7764
vn 0.5000 -0.3632 -0.7862
vn 0.5029 -0.4401 -0.7439
vn 0.6110 0.4113 0.6763
vn -0.4970 -0.3452 -0.7961
vn -0.5501 0.2912 0.7827
vn 1.0000 -0.0007 0.0004
vn -0.9976 0.0607 -0.0320
vn 0.3494 -0.4153 -0.8399
vn -0.2341 -0.9713 0.0422
vn 0.1308 0.9888 0.0720
vn -0.2978 0.8439 0.4462
vn -0.1672 -0.9814 0.0947
vn -0.8742 -0.1074 0.4736
vn -0.0017 0.9949 0.1012
vn 0.1138 0.9640 0.2402
vn -0.0072 0.9549 0.2968
vn -0.3843 -0.4069 -0.8287
vn -0.3968 0.4852 0.7792
vn 0.4000 0.4850 0.7777
vn 0.3852 -0.4067 -0.8284
vn -0.9992 0.0371 0.0115
vn -0.9954 0.0560 -0.0778
vn 1.0000 -0.0002 0.0008
vn -0.1075 0.8028 -0.5864
vn -0.5091 -0.8129 -0.2828
vn 0.1451 0.8063 -0.5735
vn 0.4617 -0.8750 -0.1459
vn -0.9958 0.0713 -0.0569
vn 1.0000 -0.0006 0.0008
vn -0.3556 0.9246 0.1367
vn -0.5170 -0.7484 -0.4155
vn 0.4569 0.7705 0.4446
vn 0.4740 -0.7216 -0.5046
vn -0.2691 0.9600 0.0768
vn -0.2189 -0.9717 -0.0885
vn -0.9073 -0.0939 0.4098
vn -0.7497 -0.3364 0.5699
vn -0.8391 0.5429 0.0335
vn -0.5488 0.8323 0.0777
vn -0.5513 -0.8343 -0.0000
vn -0.9610 0.0204 -0.2756
vn 0.4227 0.1261 -0.8975
vn -0.2486 0.6623 -0.7068
vn 0.5243 0.8416 0.1295
vt 0.500000 0.375000
vt 0.437500 0.437500
vt 0.437500 0.375000
vt 0.562500 0.437500
vt 0.500000 0.437500
vt 0.625000 0.375000
vt 0.562500 0.375000
vt 0.625000 0.500000
vt 0.562500 0.500000
vt 0.500000 0.500000
vt 0.437500 0.500000
vt 0.375000 0.500000
vt 0.375000 0.437500
vt 0.375000 0.375000
vt 0.437500 0.562500
vt 0.500000 0.625000
vt 0.437500 0.625000
vt 0.500000 0.562500
vt 0.562500 0.625000
vt 0.500000 0.687500
vt 0.437500 0.687500
vt 0.562500 0.687500
vt 0.375000 0.562500
vt 0.562500 0.562500
vt 0.625000 0.625000
vt 0.625000 0.687500
vt 0.625000 0.750000
vt 0.562500 0.750000
vt 0.500000 0.750000
vt 0.437500 0.750000
vt 0.375000 0.750000
vt 0.375000 0.687500
vt 0.375000 0.625000
vt 0.500000 0.875000
vt 0.468750 0.875000
vt 0.437500 0.875000
vt 0.500000 0.812500
vt 0.562500 0.875000
vt 0.437500 0.812500
vt 0.375000 0.812500
vt 0.562500 0.812500
vt 0.625000 0.812500
vt 0.375000 0.875000
vt 0.250000 0.562500
vt 0.312500 0.625000
vt 0.250000 0.625000
vt 0.312500 0.687500
vt 0.250000 0.687500
vt 0.250000 0.500000
vt 0.312500 0.562500
vt 0.312500 0.500000
vt 0.312500 0.750000
vt 0.250000 0.750000
vt 0.687500 0.562500
vt 0.750000 0.625000
vt 0.687500 0.625000
vt 0.750000 0.687500
vt 0.687500 0.687500
vt 0.625000 0.562500
vt 0.687500 0.500000
vt 0.750000 0.562500
vt 0.687500 0.750000
vt 1.000000 0.500000
vt 0.833333 1.000000
vt 0.833333 0.500000
vt 0.666667 1.000000
vt 0.666667 0.500000
vt 0.500000 1.000000
vt 0.500000 0.500000
vt 0.333333 0.500000
vt 0.042154 0.130000
vt 0.250000 0.010000
vt 0.457846 0.130000
vt 0.333333 1.000000
vt 0.166667 0.500000
vt 0.166667 1.000000
vt -0.000000 0.500000
vt 0.542154 0.130000
vt 0.542154 0.370000
vt 0.957846 0.370000
vt 1.000000 0.828637
vt 0.875000 1.000000
vt 0.875000 0.828637
vt 0.625000 0.828637
vt 0.500000 1.000000
vt 0.500000 0.828637
vt 0.625000 0.645722
vt 0.500000 0.500000
vt 0.750000 0.500000
vt 0.875000 0.645722
vt 0.875000 0.500000
vt 0.500000 0.645722
vt 0.750000 0.828637
vt 0.750000 0.645722
vt 1.000000 0.645722
vt 0.750000 1.000000
vt 1.000000 1.000000
vt 0.625000 1.000000
vt 0.749520 0.964446
vt 0.653402 0.965669
vt 0.844587 0.863513
vt 0.844268 0.965118
vt 0.647775 0.863148
vt 0.750840 0.864057
vt 0.749520 0.964446
vt 0.750840 0.864057
vt 0.647775 0.863149
vt 0.844587 0.863513
vt 0.844267 0.965117
vt 0.653402 0.965669
vt 0.749520 0.964446
vt 0.844268 0.965117
vt 0.750840 0.864057
vt 0.653402 0.965669
vt 0.844587 0.863513
vt 0.000000 0.000000
vt 0.833333 0.500000
vt -0.000000 1.000000
vt 0.500000 0.500000
vt 0.500000 0.500000
vt 0.166667 0.500000
vt -0.000000 0.500000
vt 0.833333 0.500000
vt 0.042154 0.370000
vt 0.457846 0.370000
vt 0.750000 0.010000
vt 0.333333 0.500000
vt 0.457846 0.250000
vt 0.625000 0.437500
vt 0.750000 0.500000
vt 0.957846 0.130000
vt 0.250000 0.490000
vt 0.625000 0.875000
vt 0.750000 0.750000
vt 0.250000 0.490000
vt 0.750000 0.490000
vt 0.750000 0.490000
s 0
f 26/1/1 28/2/1 25/3/1
f 26/1/2 30/4/2 29/5/2
f 7/6/3 30/4/3 27/7/3
f 30/4/4 4/8/4 9/9/4
f 29/5/5 9/9/5 10/10/5
f 28/2/6 10/10/6 11/11/6
f 28/2/7 3/12/7 5/13/7
f 25/3/8 5/13/8 6/14/8
f 31/15/9 35/16/9 34/17/9
f 32/18/10 36/19/10 35/16/10
f 34/17/11 38/20/11 37/21/11
f 35/16/12 39/22/12 38/20/12
f 3/12/13 31/15/13 14/23/13
f 11/11/14 32/18/14 31/15/14
f 10/10/15 33/24/15 32/18/15
f 4/8/16 33/24/16 9/9/16
f 33/24/17 16/25/17 36/19/17
f 36/19/18 17/26/18 39/22/18
f 39/22/19 2/27/19 18/28/19
f 38/20/20 18/28/20 19/29/20
f 37/21/21 19/29/21 20/30/21
f 37/21/22 1/31/22 12/32/22
f 13/33/23 37/21/23 12/32/23
f 14/23/24 34/17/24 13/33/24
f 44/34/25 58/35/25 43/36/25
f 41/37/26 45/38/26 44/34/26
f 1/31/27 40/39/27 22/40/27
f 20/30/28 41/37/28 40/39/28
f 19/29/29 42/41/29 41/37/29
f 2/27/30 42/41/30 18/28/30
f 23/42/31 45/38/31 42/41/31
f 22/40/32 43/36/32 21/43/32
f 46/44/33 49/45/33 48/46/33
f 48/46/34 51/47/34 50/48/34
f 6/49/35 47/50/35 46/44/35
f 5/51/36 14/23/36 47/50/36
f 47/50/37 13/33/37 49/45/37
f 49/45/38 12/32/38 51/47/38
f 51/47/39 1/31/39 22/52/39
f 51/47/40 21/53/40 50/48/40
f 52/54/41 55/55/41 54/56/41
f 54/56/42 57/57/42 56/58/42
f 4/8/43 52/54/43 15/59/43
f 8/60/44 53/61/44 52/54/44
f 57/57/45 23/62/45 56/58/45
f 56/58/46 2/27/46 17/26/46
f 16/25/47 56/58/47 17/26/47
f 15/59/48 54/56/48 16/25/48
f 59/63/49 62/64/49 61/65/49
f 61/65/50 64/66/50 63/67/50
f 63/67/51 66/68/51 65/69/51
f 66/68/52 67/70/52 65/69/52
f 68/71/53 66/72/53 64/73/53
f 68/74/54 69/75/54 67/70/54
f 70/76/55 59/77/55 69/75/55
f 67/78/56 69/79/56 61/80/56
f 86/81/57 97/82/57 99/83/57
f 100/84/58 80/85/58 90/86/58
f 84/87/59 79/88/59 77/8/59
f 75/89/60 84/87/60 77/8/60
f 82/90/61 75/89/61 73/91/61
f 71/63/62 82/90/62 73/91/62
f 100/84/63 85/92/63 84/87/63
f 101/93/64 84/87/64 83/94/64
f 99/83/65 83/94/65 82/90/65
f 81/95/66 99/83/66 82/90/66
f 97/82/67 93/96/67 96/96/67
f 72/97/68 92/82/68 97/82/68
f 98/98/69 93/96/69 94/98/69
f 80/85/70 94/98/70 95/85/70
f 76/99/71 97/82/71 96/96/71
f 78/100/72 96/96/72 98/98/72
f 87/101/73 97/82/73 74/102/73
f 78/100/74 100/84/74 89/103/74
f 89/103/75 101/93/75 88/104/75
f 87/101/76 101/93/76 99/83/76
f 150/105/77 104/100/77 103/99/77
f 151/106/78 107/103/78 152/107/78
f 154/108/79 102/102/79 105/101/79
f 150/105/80 102/102/80 153/109/80
f 151/106/81 105/101/81 106/104/81
f 152/107/82 104/100/82 149/110/82
f 155/111/83 108/102/83 156/112/83
f 158/113/84 111/101/84 112/104/84
f 160/114/85 113/103/85 110/100/85
f 155/111/86 110/100/86 109/99/86
f 158/113/87 113/103/87 159/107/87
f 156/112/88 111/101/88 157/115/88
f 110/100/89 115/99/89 109/99/89
f 112/104/90 133/103/90 113/103/90
f 108/102/91 117/101/91 111/101/91
f 108/102/92 115/99/92 114/102/92
f 111/101/93 118/104/93 112/104/93
f 110/100/94 119/103/94 116/100/94
f 114/102/95 121/99/95 120/102/95
f 117/101/96 124/104/96 118/104/96
f 119/103/97 122/100/97 116/100/97
f 115/99/98 122/100/98 121/99/98
f 119/103/99 124/104/99 125/103/99
f 117/101/100 120/102/100 123/101/100
f 124/104/101 131/103/101 125/103/101
f 123/101/102 126/102/102 129/101/102
f 121/99/103 126/102/103 120/102/103
f 124/104/104 129/101/104 130/104/104
f 125/103/105 128/100/105 122/100/105
f 121/99/106 128/100/106 127/99/106
f 132/104/107 137/103/107 133/103/107
f 118/104/108 132/104/108 112/104/108
f 119/103/109 134/104/109 118/104/109
f 119/103/110 133/103/110 135/103/110
f 139/103/111 141/103/111 143/103/111
f 135/103/112 137/103/112 139/103/112
f 135/103/113 138/104/113 134/104/113
f 134/104/114 136/104/114 132/104/114
f 141/103/115 142/104/115 143/103/115
f 139/103/116 142/104/116 138/104/116
f 138/104/117 140/104/117 136/104/117
f 136/104/118 141/103/118 137/103/118
f 94/98/119 146/96/119 147/98/119
f 91/97/120 145/82/120 92/82/120
f 94/98/121 148/85/121 95/85/121
f 92/82/122 146/96/122 93/96/122
f 128/100/123 130/104/123 127/99/123
f 127/99/124 129/101/124 126/102/124
f 89/103/125 149/110/125 78/100/125
f 88/104/126 154/108/126 151/106/126
f 74/102/127 150/105/127 153/109/127
f 87/101/128 153/109/128 154/108/128
f 88/104/129 152/107/129 89/103/129
f 78/100/130 150/105/130 76/99/130
f 102/102/131 157/115/131 105/101/131
f 106/104/132 159/107/132 107/103/132
f 103/99/133 160/114/133 155/111/133
f 104/100/134 159/107/134 160/114/134
f 106/104/135 157/115/135 158/113/135
f 103/99/136 156/112/136 102/102/136
f 162/97/137 163/65/137 161/63/137
f 163/65/138 166/66/138 165/67/138
f 165/67/139 168/68/139 167/69/139
f 168/68/140 169/70/140 167/69/140
f 170/74/141 175/68/141 176/74/141
f 368/74/142 369/75/142 416/116/142
f 170/74/143 171/75/143 169/70/143
f 190/67/144 185/65/144 191/117/144
f 177/76/145 182/74/145 183/76/145
f 164/64/146 174/66/146 166/66/146
f 164/64/147 172/97/147 173/64/147
f 166/66/148 175/68/148 168/68/148
f 182/71/149 181/72/149 180/73/149
f 174/66/150 181/68/150 175/68/150
f 173/64/151 178/97/151 179/64/151
f 177/76/152 178/118/152 172/118/152
f 175/68/153 182/74/153 176/74/153
f 173/64/154 180/66/154 174/66/154
f 188/70/155 210/75/155 209/70/155
f 192/75/156 188/70/156 193/70/156
f 191/117/157 184/63/157 194/63/157
f 190/67/158 187/69/158 186/67/158
f 192/75/159 184/77/159 189/75/159
f 193/70/160 187/69/160 195/119/160
f 221/70/161 195/119/161 219/120/161
f 218/121/162 194/122/162 192/75/162
f 217/67/163 195/119/163 190/67/163
f 222/63/164 191/117/164 194/63/164
f 218/121/165 193/70/165 221/70/165
f 220/123/166 190/67/166 191/117/166
f 183/76/167 178/118/167 200/116/167
f 182/116/168 197/116/168 196/116/168
f 181/116/169 198/116/169 197/116/169
f 196/116/170 183/124/170 182/71/170
f 199/116/171 178/116/171 200/116/171
f 199/116/172 201/116/172 179/116/172
f 198/116/173 202/116/173 203/116/173
f 179/125/174 202/73/174 180/73/174
f 206/80/175 208/126/175 210/79/175
f 187/69/176 207/67/176 186/67/176
f 185/65/177 205/63/177 184/63/177
f 189/75/178 205/77/178 210/75/178
f 187/69/179 209/70/179 208/69/179
f 186/67/180 206/65/180 185/65/180
f 163/65/181 214/67/181 211/123/181
f 171/75/182 212/127/182 169/70/182
f 161/63/183 211/123/183 213/63/183
f 165/67/184 216/69/184 214/67/184
f 161/77/185 215/121/185 171/75/185
f 169/70/186 216/69/186 167/69/186
f 211/123/187 217/67/187 220/123/187
f 215/121/188 221/70/188 212/127/188
f 213/63/189 220/123/189 222/63/189
f 214/67/190 219/120/190 217/67/190
f 215/121/191 222/77/191 218/121/191
f 212/127/192 219/120/192 216/69/192
f 204/116/193 73/116/193 201/116/193
f 203/116/194 77/116/194 79/116/194
f 201/125/195 73/125/195 75/128/195
f 145/82/196 225/96/196 146/96/196
f 146/96/197 226/98/197 147/98/197
f 145/82/198 223/97/198 224/82/198
f 147/98/199 227/85/199 148/85/199
f 248/2/200 26/1/200 25/3/200
f 26/1/201 250/4/201 27/7/201
f 250/4/202 7/6/202 27/7/202
f 250/4/203 231/8/203 233/129/203
f 249/5/204 234/9/204 250/4/204
f 248/2/205 235/10/205 249/5/205
f 230/12/206 248/2/206 232/13/206
f 232/13/207 25/3/207 6/14/207
f 251/15/208 255/16/208 252/18/208
f 252/18/209 256/19/209 253/24/209
f 254/17/210 258/20/210 255/16/210
f 255/16/211 259/22/211 256/19/211
f 230/12/212 251/15/212 236/11/212
f 236/11/213 252/18/213 235/10/213
f 235/10/214 253/24/214 234/9/214
f 253/24/215 231/8/215 234/9/215
f 253/24/216 241/25/216 240/59/216
f 256/19/217 242/26/217 241/25/217
f 259/22/218 229/27/218 242/26/218
f 258/20/219 243/28/219 259/22/219
f 257/21/220 244/29/220 258/20/220
f 228/31/221 257/21/221 237/32/221
f 238/33/222 257/21/222 254/17/222
f 239/23/223 254/17/223 251/15/223
f 261/37/224 45/38/224 262/41/224
f 228/31/225 260/39/225 245/30/225
f 245/30/226 261/37/226 244/29/226
f 244/29/227 262/41/227 243/28/227
f 262/41/228 229/27/228 243/28/228
f 45/38/229 247/42/229 262/41/229
f 246/40/230 43/36/230 260/39/230
f 46/44/231 264/45/231 263/50/231
f 48/46/232 265/47/232 264/45/232
f 6/49/233 263/50/233 232/51/233
f 232/51/234 239/23/234 230/12/234
f 263/50/235 238/33/235 239/23/235
f 264/45/236 237/32/236 238/33/236
f 265/47/237 228/31/237 237/32/237
f 21/53/238 265/47/238 50/48/238
f 266/54/239 55/55/239 53/61/239
f 267/56/240 57/57/240 55/55/240
f 231/8/241 266/54/241 233/60/241
f 233/60/242 53/61/242 7/130/242
f 247/62/243 57/57/243 268/58/243
f 229/27/244 268/58/244 242/26/244
f 241/25/245 268/58/245 267/56/245
f 240/59/246 267/56/246 266/54/246
f 269/63/247 272/64/247 270/97/247
f 271/65/248 274/66/248 272/64/248
f 273/67/249 276/68/249 274/66/249
f 277/70/250 276/68/250 275/69/250
f 278/71/251 280/124/251 274/73/251
f 279/75/252 278/74/252 277/70/252
f 269/77/253 280/76/253 279/75/253
f 271/80/254 277/78/254 273/131/254
f 86/81/255 297/82/255 72/97/255
f 300/84/256 80/85/256 298/98/256
f 79/88/257 289/87/257 285/8/257
f 283/89/258 289/87/258 288/94/258
f 283/89/259 287/90/259 281/91/259
f 71/63/260 287/90/260 81/95/260
f 85/92/261 300/84/261 289/87/261
f 289/87/262 301/93/262 288/94/262
f 288/94/263 299/83/263 287/90/263
f 81/95/264 299/83/264 86/81/264
f 294/96/265 297/82/265 296/96/265
f 293/82/266 72/97/266 297/82/266
f 298/98/267 294/96/267 296/96/267
f 80/85/268 295/98/268 298/98/268
f 284/99/269 297/82/269 282/102/269
f 286/100/270 296/96/270 284/99/270
f 297/82/271 290/101/271 282/102/271
f 300/84/272 286/100/272 292/103/272
f 301/93/273 292/103/273 291/104/273
f 290/101/274 301/93/274 291/104/274
f 348/105/275 304/100/275 347/110/275
f 307/103/276 349/106/276 350/107/276
f 352/108/277 302/102/277 351/109/277
f 302/102/278 348/105/278 351/109/278
f 349/106/279 305/101/279 352/108/279
f 304/100/280 350/107/280 347/110/280
f 308/102/281 353/111/281 354/112/281
f 356/113/282 311/101/282 355/115/282
f 358/114/283 313/103/283 357/107/283
f 353/111/284 310/100/284 358/114/284
f 313/103/285 356/113/285 357/107/285
f 311/101/286 354/112/286 355/115/286
f 315/99/287 310/100/287 309/99/287
f 333/103/288 312/104/288 313/103/288
f 317/101/289 308/102/289 311/101/289
f 308/102/290 315/99/290 309/99/290
f 318/104/291 311/101/291 312/104/291
f 310/100/292 319/103/292 313/103/292
f 314/102/293 321/99/293 315/99/293
f 324/104/294 317/101/294 318/104/294
f 322/100/295 319/103/295 316/100/295
f 315/99/296 322/100/296 316/100/296
f 319/103/297 324/104/297 318/104/297
f 317/101/298 320/102/298 314/102/298
f 331/103/299 324/104/299 325/103/299
f 323/101/300 326/102/300 320/102/300
f 326/102/301 321/99/301 320/102/301
f 324/104/302 329/101/302 323/101/302
f 328/100/303 325/103/303 322/100/303
f 321/99/304 328/100/304 322/100/304
f 337/103/305 332/104/305 333/103/305
f 332/104/306 318/104/306 312/104/306
f 334/104/307 319/103/307 318/104/307
f 319/103/308 333/103/308 313/103/308
f 339/103/309 341/103/309 337/103/309
f 335/103/310 337/103/310 333/103/310
f 338/104/311 335/103/311 334/104/311
f 336/104/312 334/104/312 332/104/312
f 341/103/313 342/104/313 340/104/313
f 342/104/314 339/103/314 338/104/314
f 340/104/315 338/104/315 336/104/315
f 341/103/316 336/104/316 337/103/316
f 295/98/317 345/96/317 294/96/317
f 344/82/318 91/97/318 293/82/318
f 148/85/319 295/98/319 95/85/319
f 345/96/320 293/82/320 294/96/320
f 328/100/321 330/104/321 331/103/321
f 327/99/322 329/101/322 330/104/322
f 347/110/323 292/103/323 286/100/323
f 291/104/324 352/108/324 290/101/324
f 282/102/325 348/105/325 284/99/325
f 290/101/326 351/109/326 282/102/326
f 350/107/327 291/104/327 292/103/327
f 348/105/328 286/100/328 284/99/328
f 355/115/329 302/102/329 305/101/329
f 357/107/330 306/104/330 307/103/330
f 303/99/331 358/114/331 304/100/331
f 304/100/332 357/107/332 307/103/332
f 306/104/333 355/115/333 305/101/333
f 354/112/334 303/99/334 302/102/334
f 361/65/335 360/97/335 359/63/335
f 361/65/336 364/66/336 362/64/336
f 363/67/337 366/68/337 364/66/337
f 367/70/338 366/68/338 365/69/338
f 368/74/339 373/68/339 366/68/339
f 416/116/340 359/63/340 360/97/340
f 162/97/341 171/75/341 415/116/341
f 381/65/342 386/67/342 387/117/342
f 177/76/343 379/74/343 374/74/343
f 372/66/344 362/64/344 364/66/344
f 362/64/345 370/97/345 360/97/345
f 373/68/346 364/66/346 366/68/346
f 379/71/347 183/124/347 375/132/347
f 378/68/348 372/66/348 373/68/348
f 371/64/349 375/97/349 370/97/349
f 375/118/350 177/76/350 370/118/350
f 379/74/351 373/68/351 374/74/351
f 377/66/352 371/64/352 372/66/352
f 384/70/353 399/75/353 385/75/353
f 384/70/354 388/75/354 389/70/354
f 380/63/355 387/117/355 390/63/355
f 386/67/356 383/69/356 391/119/356
f 388/75/357 380/77/357 390/122/357
f 383/69/358 389/70/358 391/119/358
f 391/119/359 410/70/359 408/120/359
f 407/121/360 390/122/360 411/77/360
f 406/67/361 391/119/361 408/120/361
f 411/63/362 387/117/362 409/123/362
f 389/70/363 407/121/363 410/70/363
f 409/123/364 386/67/364 406/67/364
f 183/76/365 200/116/365 375/118/365
f 197/116/366 379/116/366 196/116/366
f 198/116/367 378/116/367 197/116/367
f 196/116/368 379/71/368 183/124/368
f 199/116/369 375/116/369 376/116/369
f 392/116/370 199/116/370 376/116/370
f 198/116/371 393/116/371 377/116/371
f 393/73/372 376/125/372 377/73/372
f 399/79/373 397/126/373 395/80/373
f 396/67/374 383/69/374 382/67/374
f 394/63/375 381/65/375 380/63/375
f 385/75/376 394/77/376 380/77/376
f 383/69/377 398/70/377 384/70/377
f 395/65/378 382/67/378 381/65/378
f 361/65/379 403/67/379 363/67/379
f 401/127/380 369/75/380 367/70/380
f 359/63/381 400/123/381 361/65/381
f 363/67/382 405/69/382 365/69/382
f 404/121/383 359/77/383 369/75/383
f 405/69/384 367/70/384 365/69/384
f 400/123/385 406/67/385 403/67/385
f 410/70/386 404/121/386 401/127/386
f 402/63/387 409/123/387 400/123/387
f 403/67/388 408/120/388 405/69/388
f 404/121/389 411/77/389 402/77/389
f 408/120/390 401/127/390 405/69/390
f 281/116/391 204/116/391 392/116/391
f 203/116/392 285/116/392 393/116/392
f 283/128/393 281/125/393 392/125/393
f 413/96/394 344/82/394 345/96/394
f 414/98/395 345/96/395 346/98/395
f 344/82/396 223/97/396 144/97/396
f 227/85/397 346/98/397 148/85/397
f 415/116/398 176/74/398 177/76/398
f 416/116/399 374/74/399 368/74/399
f 172/118/400 415/116/400 177/76/400
f 416/116/401 370/118/401 177/76/401
f 26/1/402 29/5/402 28/2/402
f 26/1/403 27/7/403 30/4/403
f 7/6/404 8/129/404 30/4/404
f 30/4/405 8/129/405 4/8/405
f 29/5/406 30/4/406 9/9/406
f 28/2/407 29/5/407 10/10/407
f 28/2/408 11/11/408 3/12/408
f 25/3/409 28/2/409 5/13/409
f 31/15/410 32/18/410 35/16/410
f 32/18/411 33/24/411 36/19/411
f 34/17/412 35/16/412 38/20/412
f 35/16/413 36/19/413 39/22/413
f 3/12/414 11/11/414 31/15/414
f 11/11/415 10/10/415 32/18/415
f 10/10/416 9/9/416 33/24/416
f 4/8/417 15/59/417 33/24/417
f 33/24/418 15/59/418 16/25/418
f 36/19/419 16/25/419 17/26/419
f 39/22/420 17/26/420 2/27/420
f 38/20/421 39/22/421 18/28/421
f 37/21/422 38/20/422 19/29/422
f 37/21/423 20/30/423 1/31/423
f 13/33/424 34/17/424 37/21/424
f 14/23/425 31/15/425 34/17/425
f 43/36/426 40/39/426 44/34/426
f 40/39/427 41/37/427 44/34/427
f 41/37/428 42/41/428 45/38/428
f 1/31/429 20/30/429 40/39/429
f 20/30/430 19/29/430 41/37/430
f 19/29/431 18/28/431 42/41/431
f 2/27/432 23/42/432 42/41/432
f 23/42/433 24/133/433 45/38/433
f 22/40/434 40/39/434 43/36/434
f 46/44/435 47/50/435 49/45/435
f 48/46/436 49/45/436 51/47/436
f 6/49/437 5/51/437 47/50/437
f 5/51/438 3/12/438 14/23/438
f 47/50/439 14/23/439 13/33/439
f 49/45/440 13/33/440 12/32/440
f 51/47/441 12/32/441 1/31/441
f 51/47/442 22/52/442 21/53/442
f 52/54/443 53/61/443 55/55/443
f 54/56/444 55/55/444 57/57/444
f 4/8/445 8/60/445 52/54/445
f 8/60/446 7/130/446 53/61/446
f 57/57/447 24/134/447 23/62/447
f 56/58/448 23/62/448 2/27/448
f 16/25/449 54/56/449 56/58/449
f 15/59/450 52/54/450 54/56/450
f 59/63/49 60/97/49 62/64/49
f 61/65/50 62/64/50 64/66/50
f 63/67/51 64/66/51 66/68/51
f 66/68/451 68/74/451 67/70/451
f 64/73/53 62/125/53 68/71/53
f 62/125/53 60/135/53 70/124/53
f 68/71/53 62/125/53 70/124/53
f 68/74/54 70/76/54 69/75/54
f 70/76/55 60/118/55 59/77/55
f 69/79/56 59/136/56 61/80/56
f 61/80/56 63/131/56 67/78/56
f 63/131/56 65/126/56 67/78/56
f 86/81/452 72/97/452 97/82/452
f 100/84/453 98/98/453 80/85/453
f 84/87/454 85/92/454 79/88/454
f 75/89/455 83/94/455 84/87/455
f 82/90/456 83/94/456 75/89/456
f 71/63/457 81/95/457 82/90/457
f 100/84/458 90/86/458 85/92/458
f 101/93/459 100/84/459 84/87/459
f 99/83/460 101/93/460 83/94/460
f 81/95/461 86/81/461 99/83/461
f 97/82/462 92/82/462 93/96/462
f 72/97/463 91/97/463 92/82/463
f 98/98/464 96/96/464 93/96/464
f 80/85/465 98/98/465 94/98/465
f 76/99/466 74/102/466 97/82/466
f 78/100/467 76/99/467 96/96/467
f 87/101/468 99/83/468 97/82/468
f 78/100/469 98/98/469 100/84/469
f 89/103/470 100/84/470 101/93/470
f 87/101/471 88/104/471 101/93/471
f 150/105/472 149/110/472 104/100/472
f 151/106/473 106/104/473 107/103/473
f 154/108/474 153/109/474 102/102/474
f 150/105/475 103/99/475 102/102/475
f 151/106/476 154/108/476 105/101/476
f 152/107/477 107/103/477 104/100/477
f 155/111/478 109/99/478 108/102/478
f 158/113/479 157/115/479 111/101/479
f 160/114/480 159/107/480 113/103/480
f 155/111/481 160/114/481 110/100/481
f 158/113/482 112/104/482 113/103/482
f 156/112/483 108/102/483 111/101/483
f 110/100/484 116/100/484 115/99/484
f 112/104/485 132/104/485 133/103/485
f 108/102/486 114/102/486 117/101/486
f 108/102/487 109/99/487 115/99/487
f 111/101/488 117/101/488 118/104/488
f 110/100/489 113/103/489 119/103/489
f 114/102/490 115/99/490 121/99/490
f 117/101/96 123/101/96 124/104/96
f 119/103/491 125/103/491 122/100/491
f 115/99/492 116/100/492 122/100/492
f 119/103/99 118/104/99 124/104/99
f 117/101/493 114/102/493 120/102/493
f 124/104/494 130/104/494 131/103/494
f 123/101/495 120/102/495 126/102/495
f 121/99/496 127/99/496 126/102/496
f 124/104/497 123/101/497 129/101/497
f 125/103/498 131/103/498 128/100/498
f 121/99/499 122/100/499 128/100/499
f 132/104/107 136/104/107 137/103/107
f 118/104/500 134/104/500 132/104/500
f 119/103/501 135/103/501 134/104/501
f 119/103/502 113/103/502 133/103/502
f 139/103/503 137/103/503 141/103/503
f 135/103/112 133/103/112 137/103/112
f 135/103/113 139/103/113 138/104/113
f 134/104/114 138/104/114 136/104/114
f 141/103/504 140/104/504 142/104/504
f 139/103/505 143/103/505 142/104/505
f 138/104/506 142/104/506 140/104/506
f 136/104/507 140/104/507 141/103/507
f 94/98/508 93/96/508 146/96/508
f 91/97/509 144/97/509 145/82/509
f 94/98/510 147/98/510 148/85/510
f 92/82/511 145/82/511 146/96/511
f 128/100/512 131/103/512 130/104/512
f 127/99/513 130/104/513 129/101/513
f 89/103/514 152/107/514 149/110/514
f 88/104/515 87/101/515 154/108/515
f 74/102/516 76/99/516 150/105/516
f 87/101/517 74/102/517 153/109/517
f 88/104/518 151/106/518 152/107/518
f 78/100/519 149/110/519 150/105/519
f 102/102/520 156/112/520 157/115/520
f 106/104/521 158/113/521 159/107/521
f 103/99/522 104/100/522 160/114/522
f 104/100/523 107/103/523 159/107/523
f 106/104/524 105/101/524 157/115/524
f 103/99/525 155/111/525 156/112/525
f 162/97/526 164/64/526 163/65/526
f 163/65/527 164/64/527 166/66/527
f 165/67/528 166/66/528 168/68/528
f 168/68/529 170/74/529 169/70/529
f 170/74/530 168/68/530 175/68/530
f 368/74/531 367/70/531 369/75/531
f 170/74/532 415/116/532 171/75/532
f 190/67/533 186/67/533 185/65/533
f 177/76/534 176/74/534 182/74/534
f 164/64/535 173/64/535 174/66/535
f 164/64/536 162/97/536 172/97/536
f 166/66/537 174/66/537 175/68/537
f 180/73/538 179/125/538 182/71/538
f 179/125/539 178/132/539 182/71/539
f 178/132/540 183/124/540 182/71/540
f 174/66/541 180/66/541 181/68/541
f 173/64/542 172/97/542 178/97/542
f 177/76/543 183/76/543 178/118/543
f 175/68/544 181/68/544 182/74/544
f 173/64/545 179/64/545 180/66/545
f 188/70/546 189/75/546 210/75/546
f 192/75/547 189/75/547 188/70/547
f 191/117/548 185/65/548 184/63/548
f 190/67/549 195/119/549 187/69/549
f 192/75/550 194/122/550 184/77/550
f 193/70/551 188/70/551 187/69/551
f 221/70/552 193/70/552 195/119/552
f 218/121/553 222/77/553 194/122/553
f 217/67/554 219/120/554 195/119/554
f 222/63/555 220/123/555 191/117/555
f 218/121/556 192/75/556 193/70/556
f 220/123/557 217/67/557 190/67/557
f 182/116/558 181/116/558 197/116/558
f 181/116/559 180/116/559 198/116/559
f 199/116/560 179/116/560 178/116/560
f 199/116/561 204/116/561 201/116/561
f 198/116/562 180/116/562 202/116/562
f 179/125/563 201/125/563 202/73/563
f 210/79/564 205/137/564 206/80/564
f 206/80/565 207/131/565 208/126/565
f 208/126/566 209/78/566 210/79/566
f 187/69/176 208/69/176 207/67/176
f 185/65/567 206/65/567 205/63/567
f 189/75/568 184/77/568 205/77/568
f 187/69/569 188/70/569 209/70/569
f 186/67/570 207/67/570 206/65/570
f 163/65/571 165/67/571 214/67/571
f 171/75/572 215/121/572 212/127/572
f 161/63/573 163/65/573 211/123/573
f 165/67/574 167/69/574 216/69/574
f 161/77/575 213/77/575 215/121/575
f 169/70/576 212/127/576 216/69/576
f 211/123/577 214/67/577 217/67/577
f 215/121/578 218/121/578 221/70/578
f 213/63/579 211/123/579 220/123/579
f 214/67/580 216/69/580 219/120/580
f 215/121/581 213/77/581 222/77/581
f 212/127/582 221/70/582 219/120/582
f 204/116/583 71/116/583 73/116/583
f 203/116/584 202/116/584 77/116/584
f 77/73/585 202/73/585 75/128/585
f 202/73/586 201/125/586 75/128/586
f 145/82/587 224/82/587 225/96/587
f 146/96/197 225/96/197 226/98/197
f 145/82/588 144/97/588 223/97/588
f 147/98/589 226/98/589 227/85/589
f 248/2/590 249/5/590 26/1/590
f 26/1/591 249/5/591 250/4/591
f 250/4/592 233/129/592 7/6/592
f 250/4/593 234/9/593 231/8/593
f 249/5/594 235/10/594 234/9/594
f 248/2/595 236/11/595 235/10/595
f 230/12/596 236/11/596 248/2/596
f 232/13/597 248/2/597 25/3/597
f 251/15/598 254/17/598 255/16/598
f 252/18/599 255/16/599 256/19/599
f 254/17/600 257/21/600 258/20/600
f 255/16/601 258/20/601 259/22/601
f 230/12/602 239/23/602 251/15/602
f 236/11/603 251/15/603 252/18/603
f 235/10/604 252/18/604 253/24/604
f 253/24/605 240/59/605 231/8/605
f 253/24/606 256/19/606 241/25/606
f 256/19/607 259/22/607 242/26/607
f 259/22/608 243/28/608 229/27/608
f 258/20/609 244/29/609 243/28/609
f 257/21/610 245/30/610 244/29/610
f 228/31/611 245/30/611 257/21/611
f 238/33/612 237/32/612 257/21/612
f 239/23/613 238/33/613 254/17/613
f 261/37/614 260/39/614 44/34/614
f 260/39/615 43/36/615 44/34/615
f 261/37/616 44/34/616 45/38/616
f 228/31/617 246/40/617 260/39/617
f 245/30/618 260/39/618 261/37/618
f 244/29/619 261/37/619 262/41/619
f 262/41/620 247/42/620 229/27/620
f 45/38/621 24/133/621 247/42/621
f 246/40/622 21/43/622 43/36/622
f 46/44/623 48/46/623 264/45/623
f 48/46/624 50/48/624 265/47/624
f 6/49/625 46/44/625 263/50/625
f 232/51/626 263/50/626 239/23/626
f 263/50/627 264/45/627 238/33/627
f 264/45/628 265/47/628 237/32/628
f 265/47/629 246/52/629 228/31/629
f 21/53/630 246/52/630 265/47/630
f 266/54/631 267/56/631 55/55/631
f 267/56/632 268/58/632 57/57/632
f 231/8/633 240/59/633 266/54/633
f 233/60/634 266/54/634 53/61/634
f 247/62/635 24/134/635 57/57/635
f 229/27/636 247/62/636 268/58/636
f 241/25/637 242/26/637 268/58/637
f 240/59/638 241/25/638 267/56/638
f 269/63/247 271/65/247 272/64/247
f 271/65/248 273/67/248 274/66/248
f 273/67/249 275/69/249 276/68/249
f 277/70/250 278/74/250 276/68/250
f 270/135/251 272/125/251 280/124/251
f 272/125/251 274/73/251 280/124/251
f 274/73/251 276/72/251 278/71/251
f 279/75/252 280/76/252 278/74/252
f 269/77/253 270/118/253 280/76/253
f 271/80/254 269/136/254 279/79/254
f 279/79/254 277/78/254 271/80/254
f 277/78/254 275/126/254 273/131/254
f 86/81/639 299/83/639 297/82/639
f 300/84/640 90/86/640 80/85/640
f 79/88/641 85/92/641 289/87/641
f 283/89/642 285/8/642 289/87/642
f 283/89/643 288/94/643 287/90/643
f 71/63/644 281/91/644 287/90/644
f 85/92/645 90/86/645 300/84/645
f 289/87/646 300/84/646 301/93/646
f 288/94/647 301/93/647 299/83/647
f 81/95/648 287/90/648 299/83/648
f 294/96/649 293/82/649 297/82/649
f 293/82/650 91/97/650 72/97/650
f 298/98/651 295/98/651 294/96/651
f 80/85/652 95/85/652 295/98/652
f 284/99/653 296/96/653 297/82/653
f 286/100/654 298/98/654 296/96/654
f 297/82/655 299/83/655 290/101/655
f 300/84/656 298/98/656 286/100/656
f 301/93/657 300/84/657 292/103/657
f 290/101/658 299/83/658 301/93/658
f 348/105/659 303/99/659 304/100/659
f 307/103/660 306/104/660 349/106/660
f 352/108/661 305/101/661 302/102/661
f 302/102/662 303/99/662 348/105/662
f 349/106/663 306/104/663 305/101/663
f 304/100/664 307/103/664 350/107/664
f 308/102/665 309/99/665 353/111/665
f 356/113/666 312/104/666 311/101/666
f 358/114/667 310/100/667 313/103/667
f 353/111/668 309/99/668 310/100/668
f 313/103/669 312/104/669 356/113/669
f 311/101/670 308/102/670 354/112/670
f 315/99/671 316/100/671 310/100/671
f 333/103/672 332/104/672 312/104/672
f 317/101/673 314/102/673 308/102/673
f 308/102/674 314/102/674 315/99/674
f 318/104/675 317/101/675 311/101/675
f 310/100/676 316/100/676 319/103/676
f 314/102/677 320/102/677 321/99/677
f 324/104/294 323/101/294 317/101/294
f 322/100/678 325/103/678 319/103/678
f 315/99/679 321/99/679 322/100/679
f 319/103/297 325/103/297 324/104/297
f 317/101/680 323/101/680 320/102/680
f 331/103/681 330/104/681 324/104/681
f 323/101/682 329/101/682 326/102/682
f 326/102/683 327/99/683 321/99/683
f 324/104/684 330/104/684 329/101/684
f 328/100/685 331/103/685 325/103/685
f 321/99/686 327/99/686 328/100/686
f 337/103/305 336/104/305 332/104/305
f 332/104/687 334/104/687 318/104/687
f 334/104/688 335/103/688 319/103/688
f 319/103/689 335/103/689 333/103/689
f 339/103/690 343/103/690 341/103/690
f 335/103/310 339/103/310 337/103/310
f 338/104/311 339/103/311 335/103/311
f 336/104/312 338/104/312 334/104/312
f 341/103/691 343/103/691 342/104/691
f 342/104/692 343/103/692 339/103/692
f 340/104/693 342/104/693 338/104/693
f 341/103/694 340/104/694 336/104/694
f 295/98/695 346/98/695 345/96/695
f 344/82/696 144/97/696 91/97/696
f 148/85/697 346/98/697 295/98/697
f 345/96/698 344/82/698 293/82/698
f 328/100/699 327/99/699 330/104/699
f 327/99/700 326/102/700 329/101/700
f 347/110/701 350/107/701 292/103/701
f 291/104/702 349/106/702 352/108/702
f 282/102/703 351/109/703 348/105/703
f 290/101/704 352/108/704 351/109/704
f 350/107/705 349/106/705 291/104/705
f 348/105/706 347/110/706 286/100/706
f 355/115/707 354/112/707 302/102/707
f 357/107/708 356/113/708 306/104/708
f 303/99/709 353/111/709 358/114/709
f 304/100/710 358/114/710 357/107/710
f 306/104/711 356/113/711 355/115/711
f 354/112/712 353/111/712 303/99/712
f 361/65/713 362/64/713 360/97/713
f 361/65/714 363/67/714 364/66/714
f 363/67/715 365/69/715 366/68/715
f 367/70/716 368/74/716 366/68/716
f 368/74/717 374/74/717 373/68/717
f 416/116/718 369/75/718 359/63/718
f 162/97/719 161/63/719 171/75/719
f 381/65/720 382/67/720 386/67/720
f 177/76/721 183/76/721 379/74/721
f 372/66/722 371/64/722 362/64/722
f 362/64/723 371/64/723 370/97/723
f 373/68/724 372/66/724 364/66/724
f 375/132/725 376/125/725 379/71/725
f 376/125/726 377/73/726 379/71/726
f 377/73/727 378/72/727 379/71/727
f 378/68/728 377/66/728 372/66/728
f 371/64/729 376/64/729 375/97/729
f 375/118/730 183/76/730 177/76/730
f 379/74/731 378/68/731 373/68/731
f 377/66/732 376/64/732 371/64/732
f 384/70/733 398/70/733 399/75/733
f 384/70/734 385/75/734 388/75/734
f 380/63/735 381/65/735 387/117/735
f 386/67/736 382/67/736 383/69/736
f 388/75/737 385/75/737 380/77/737
f 383/69/738 384/70/738 389/70/738
f 391/119/739 389/70/739 410/70/739
f 407/121/740 388/75/740 390/122/740
f 406/67/741 386/67/741 391/119/741
f 411/63/742 390/63/742 387/117/742
f 389/70/743 388/75/743 407/121/743
f 409/123/744 387/117/744 386/67/744
f 197/116/745 378/116/745 379/116/745
f 198/116/746 377/116/746 378/116/746
f 199/116/747 200/116/747 375/116/747
f 392/116/748 204/116/748 199/116/748
f 198/116/749 203/116/749 393/116/749
f 393/73/750 392/125/750 376/125/750
f 395/80/751 394/137/751 399/79/751
f 399/79/752 398/78/752 397/126/752
f 397/126/753 396/131/753 395/80/753
f 396/67/754 397/69/754 383/69/754
f 394/63/755 395/65/755 381/65/755
f 385/75/756 399/75/756 394/77/756
f 383/69/757 397/69/757 398/70/757
f 395/65/758 396/67/758 382/67/758
f 361/65/759 400/123/759 403/67/759
f 401/127/760 404/121/760 369/75/760
f 359/63/761 402/63/761 400/123/761
f 363/67/762 403/67/762 405/69/762
f 404/121/763 402/77/763 359/77/763
f 405/69/764 401/127/764 367/70/764
f 400/123/765 409/123/765 406/67/765
f 410/70/766 407/121/766 404/121/766
f 402/63/767 411/63/767 409/123/767
f 403/67/768 406/67/768 408/120/768
f 404/121/769 407/121/769 411/77/769
f 408/120/770 410/70/770 401/127/770
f 281/116/771 71/116/771 204/116/771
f 203/116/772 79/116/772 285/116/772
f 392/125/773 393/73/773 283/128/773
f 393/73/774 285/73/774 283/128/774
f 413/96/775 412/82/775 344/82/775
f 414/98/395 413/96/395 345/96/395
f 344/82/776 412/82/776 223/97/776
f 227/85/777 414/98/777 346/98/777
f 415/116/778 170/74/778 176/74/778
f 416/116/779 177/76/779 374/74/779
f 172/118/780 162/97/780 415/116/780
f 416/116/781 360/97/781 370/118/781
