# Blender 5.0.0
# www.blender.org
o body
v 0.496492 -0.836496 9.790368
v 0.583336 -0.739346 11.061306
v 0.476577 0.278155 9.857626
v 0.565221 0.486406 11.097018
v 0.246627 0.341088 9.761737
v -0.000000 0.369678 9.707056
v -0.000000 0.658669 11.230663
v 0.340386 0.599495 11.186149
v 0.631619 0.554539 10.855685
v 0.646511 0.545035 10.496794
v 0.576865 0.424383 10.125014
v 0.562963 -0.631520 9.704271
v 0.591550 -0.317049 9.675569
v 0.550611 0.022595 9.746665
v 0.654626 0.225672 11.176353
v 0.703310 -0.145583 11.209248
v 0.665741 -0.502555 11.155403
v 0.654036 -0.830154 10.808403
v 0.671875 -0.892060 10.435726
v 0.600616 -0.885222 10.056231
v -0.000000 -0.970373 9.624474
v 0.267098 -0.925011 9.683534
v 0.358752 -0.817453 11.149110
v -0.000000 -0.856363 11.194298
v -0.000000 0.674132 10.078295
v -0.000000 0.858995 10.496990
v -0.000000 0.860968 10.902684
v 0.290903 0.614872 10.104247
v 0.337850 0.778810 10.500267
v 0.344425 0.778265 10.883008
v 0.749642 0.108478 10.084699
v 0.841644 0.194318 10.482121
v 0.811618 0.221480 10.867816
v 0.812126 -0.260919 10.041543
v 0.912852 -0.205322 10.462335
v 0.878665 -0.167071 10.873554
v 0.764291 -0.610047 10.044225
v 0.857600 -0.587271 10.446050
v 0.825386 -0.539852 10.840183
v 0.317045 -1.052687 10.020173
v 0.365526 -1.074153 10.304435
v 0.369003 -0.996871 10.827860
v -0.000000 -1.112858 10.042354
v -0.000000 -1.133464 10.299506
v -0.000000 -1.050112 10.847458
v -0.000000 0.004889 9.440879
v 0.255090 0.002209 9.526378
v -0.000000 -0.369841 9.325466
v 0.272938 -0.355472 9.424615
v -0.000000 -0.709899 9.391361
v 0.266506 -0.681006 9.479047
v 0.373244 0.271111 11.362960
v -0.000000 0.302962 11.426816
v 0.399412 -0.129139 11.415585
v -0.000000 -0.120306 11.485314
v 0.383312 -0.515705 11.343925
v -0.000000 -0.530811 11.408493
v -0.000000 -1.256591 10.110615
v 0.899103 0.129189 10.471465
v 0.964296 0.059744 10.492551
v 0.972883 0.157159 10.289106
v 1.038076 0.087714 10.310192
v 0.910948 0.053346 10.045965
v 0.976141 -0.016099 10.067051
v 0.775233 -0.078438 9.985180
v 0.840426 -0.147883 10.006266
v 0.701452 -0.106409 10.167539
v 0.766645 -0.175854 10.188624
v 0.763387 -0.002596 10.410681
v 0.828580 -0.072040 10.431767
v 0.000000 0.608116 6.854127
v -0.000045 0.615225 9.002679
v 0.504716 0.474076 6.668509
v 0.828546 0.188165 8.583767
v 0.598099 0.170519 6.626207
v 0.958564 0.095779 8.921562
v 0.495931 -0.137956 6.579216
v 0.866794 -0.238107 8.936872
v -0.000000 -0.261991 6.715221
v 0.000047 -0.517104 8.689420
v -0.000000 0.657830 7.487185
v 0.570450 0.447139 7.495289
v 0.766961 0.018613 7.516433
v 0.571957 -0.308935 7.522143
v -0.000000 -0.421472 7.487185
v 0.000172 0.703535 8.576381
v 0.703633 0.132850 8.157505
v 0.718431 -0.179713 8.126334
v 0.697223 -0.433835 8.360595
v 0.000480 -0.485211 8.360509
v -0.000000 0.515979 9.173462
v 0.439950 0.411131 9.117942
v 0.633974 0.103412 9.124170
v 0.435114 -0.199072 9.137044
v -0.000000 -0.334730 8.965845
v 0.958135 0.102234 8.930793
v 0.710202 0.377392 8.770246
v 0.738431 -0.250226 9.043278
v 0.614227 0.357014 8.050714
v 0.622133 -0.399940 8.356234
v 0.716410 -0.153248 8.107966
v 1.568116 -0.485416 7.050978
v 1.659266 -0.624877 7.128756
v 1.563489 -0.815684 7.238592
v 1.164125 -0.554954 6.909464
v 1.096925 -0.721287 6.928878
v 1.160899 -0.888260 7.091312
v 1.944645 -1.342332 5.864825
v 2.010072 -1.460291 5.947536
v 1.942636 -1.581381 6.052826
v 1.638624 -1.388506 5.803216
v 1.585100 -1.526303 5.853663
v 1.637165 -1.629661 5.988330
v 1.970691 -1.334848 5.759325
v 2.059772 -1.459750 5.929633
v 1.988311 -1.698694 6.067611
v 1.816685 -1.431960 5.642251
v 1.786988 -1.588649 5.748606
v 1.815525 -1.841804 5.949945
v 2.244387 -1.531988 5.380603
v 2.301037 -1.747795 5.536494
v 2.242801 -1.998742 5.733891
v 2.083788 -1.693551 5.285213
v 2.054090 -1.850240 5.391568
v 2.082627 -2.103395 5.592908
v 2.184166 -1.945998 4.964505
v 2.195380 -2.113843 5.042109
v 2.184260 -2.269497 5.209970
v 2.093784 -1.968840 5.057619
v 2.067498 -2.066552 5.103782
v 2.093136 -2.235619 5.257239
v 1.575708 -1.692923 5.710757
v 1.607213 -1.775024 5.834722
v 1.770631 -1.715486 5.662868
v 1.791057 -1.928424 5.840331
v 1.628426 -1.860575 5.569358
v 1.654241 -1.927848 5.670934
v 1.788145 -1.879062 5.530118
v 1.804882 -2.053543 5.675530
v 1.704153 -2.036844 5.421041
v 1.715004 -2.082751 5.496255
v 1.821958 -2.033766 5.415255
v 1.831192 -2.156668 5.520945
v -0.000000 0.404502 9.304004
v 0.158780 0.287954 9.275608
v 0.252719 0.101461 9.212088
v 0.182110 -0.006843 9.212088
v -0.000000 -0.116119 9.174060
v 1.513169 -0.789568 7.345592
v 1.608923 -0.578916 7.260451
v 1.078235 -0.692856 6.983114
v 1.131617 -0.873198 7.149332
v 1.519365 -0.433397 7.178591
v 1.135535 -0.516049 6.985780
v 1.698354 -0.678087 7.019022
v 1.609731 -0.546534 6.932881
v 1.199023 -0.612432 6.833014
v 1.126786 -0.770576 6.874829
v 1.197247 -0.914991 7.050249
v 1.606033 -0.849375 7.151260
v 0.508210 1.060926 4.051000
v 0.519509 0.910296 5.405224
v 0.863355 0.888501 3.963406
v 1.026829 0.657391 5.559476
v 0.863355 0.645422 3.883746
v 1.028275 0.200397 5.347928
v 0.508191 0.453937 3.800148
v 0.513592 -0.010930 5.160095
v 0.152952 0.638492 3.875247
v 0.144936 0.168562 5.313876
v 0.153066 0.866793 3.981413
v 0.512164 0.914975 5.687147
v 1.018174 0.586106 5.739186
v 1.020134 0.124322 5.531028
v 0.515757 -0.066021 5.274760
v 0.136937 0.106899 5.415814
v -0.000000 0.745154 5.541829
v 0.418974 0.890115 5.840919
v 0.879472 0.477001 6.132774
v 0.876436 -0.041839 5.985476
v 0.449170 -0.199279 5.612033
v 0.134332 0.038049 5.556673
v -0.000000 0.817040 5.668544
v 0.430883 2.940828 3.244231
v 0.691277 2.894088 3.101343
v 0.691277 2.800608 2.815566
v 0.430883 2.753896 2.672569
v 0.170489 2.800726 2.814889
v 0.170489 2.894088 3.101343
v 0.822906 1.140677 3.451508
v 0.822906 1.228918 3.682198
v 0.152560 1.212195 3.643476
v 0.152560 1.121702 3.411619
v 0.487733 1.279191 3.895935
v 0.487733 0.715937 3.381576
v -0.000000 -0.032955 5.679085
v -0.000000 -0.217283 5.788666
v -0.000000 -0.273094 6.040888
v 0.000000 0.817033 6.258207
v -0.000000 0.843581 5.931524
v 0.713104 0.433355 6.431472
v 0.709689 -0.101776 6.321329
v -0.000000 -0.234831 6.382653
v 0.000000 0.628045 6.605124
v 0.430883 4.406629 2.510876
v 0.625711 4.422107 2.403690
v 0.625711 4.494578 2.163184
v 0.430883 4.526283 2.055993
v 0.236055 4.477892 2.169853
v 0.236055 4.422851 2.402409
v 0.856043 0.840251 3.850000
v 0.152881 0.659823 3.702990
v 0.504509 0.989455 3.999386
v 0.856043 0.681907 3.734963
v 0.152975 0.840618 3.866900
v 0.504493 0.482258 3.696863
v 0.847217 0.760353 3.580523
v 0.152864 0.890167 3.783555
v 0.500029 0.528815 3.577380
v 0.847217 0.894080 3.783117
v 0.152796 0.750056 3.579234
v 0.500040 0.990389 3.942984
v -0.000000 0.330200 9.944905
v 0.182652 0.209765 9.944905
v 0.252719 0.101461 9.944905
v 0.182110 -0.006843 9.944905
v -0.000000 -0.127185 9.889832
v -0.496493 -0.836496 9.790368
v -0.583336 -0.739346 11.061306
v -0.476577 0.278155 9.857626
v -0.565221 0.486406 11.097018
v -0.246627 0.341088 9.761737
v -0.340386 0.599495 11.186149
v -0.631619 0.554539 10.855685
v -0.646511 0.545035 10.496794
v -0.576865 0.424383 10.125014
v -0.562963 -0.631520 9.704271
v -0.591550 -0.317049 9.675569
v -0.550611 0.022595 9.746665
v -0.654626 0.225672 11.176353
v -0.703310 -0.145583 11.209248
v -0.665741 -0.502555 11.155403
v -0.654036 -0.830154 10.808403
v -0.671875 -0.892060 10.435726
v -0.600616 -0.885222 10.056231
v -0.267098 -0.925011 9.683534
v -0.358752 -0.817453 11.149110
v -0.290903 0.614872 10.104247
v -0.337850 0.778810 10.500267
v -0.344425 0.778265 10.883008
v -0.749642 0.108478 10.084699
v -0.841644 0.194318 10.482121
v -0.811618 0.221480 10.867816
v -0.812126 -0.260919 10.041543
v -0.912852 -0.205322 10.462335
v -0.878665 -0.167071 10.873554
v -0.764291 -0.610047 10.044225
v -0.857600 -0.587271 10.446050
v -0.825386 -0.539852 10.840183
v -0.317045 -1.052687 10.020173
v -0.365526 -1.074153 10.304435
v -0.369003 -0.996871 10.827860
v -0.255090 0.002209 9.526378
v -0.272938 -0.355472 9.424615
v -0.266506 -0.681006 9.479047
v -0.373244 0.271111 11.362960
v -0.399412 -0.129139 11.415585
v -0.383312 -0.515705 11.343925
v -0.899103 0.129189 10.471465
v -0.964296 0.059744 10.492551
v -0.972883 0.157159 10.289106
v -1.038076 0.087714 10.310192
v -0.910948 0.053346 10.045965
v -0.976141 -0.016099 10.067051
v -0.775233 -0.078438 9.985180
v -0.840426 -0.147883 10.006266
v -0.701452 -0.106409 10.167539
v -0.766645 -0.175854 10.188624
v -0.763387 -0.002596 10.410681
v -0.828580 -0.072040 10.431767
v -0.504526 0.476275 6.734307
v -0.822536 0.490296 8.781057
v -0.598793 0.169840 6.691605
v -0.956842 0.162508 8.888783
v -0.495657 -0.120911 6.652969
v -0.863561 -0.057348 8.641976
v -0.567879 0.572728 7.546044
v -0.761809 0.279199 7.544533
v -0.569691 -0.178868 7.500587
v -0.689849 0.772753 8.461057
v -0.701840 0.611688 8.199095
v -0.684096 0.247920 8.140220
v -0.440486 0.375616 9.145565
v -0.634111 0.087527 9.116796
v -0.435368 -0.214357 9.107268
v -0.956574 0.158157 8.900057
v -0.708785 0.433834 8.916925
v -0.738407 -0.243805 8.918475
v -0.607068 0.682623 8.236089
v -0.616769 -0.146516 8.219198
v -0.701379 0.563427 8.173181
v -1.529180 1.477138 7.422744
v -1.620087 1.337351 7.347579
v -1.524426 1.143860 7.243053
v -1.125061 1.560125 7.287603
v -1.058272 1.456536 7.154391
v -1.121718 1.230838 7.100899
v -1.960799 1.981090 6.073419
v -2.026285 1.845700 6.024252
v -1.958321 1.691794 5.979637
v -1.658407 2.011021 5.988330
v -1.606693 1.893114 5.899892
v -1.656634 1.722940 5.891217
v -1.990327 2.072443 6.021964
v -2.076552 1.860124 6.016762
v -2.006438 1.613437 5.892390
v -1.843055 2.117754 5.869936
v -1.813668 1.942557 5.797915
v -1.841601 1.633872 5.701099
v -2.282085 2.272809 5.658736
v -2.338741 2.022253 5.568758
v -2.280065 1.719360 5.468041
v -2.129115 2.264286 5.465032
v -2.099728 2.089088 5.393010
v -2.127661 1.780403 5.296196
v -2.247100 2.388235 5.081137
v -2.259880 2.230073 4.985525
v -2.246871 2.004127 4.949356
v -2.154124 2.299555 5.110330
v -2.128747 2.207149 5.053878
v -2.153309 1.985134 5.000062
v -1.606583 1.918968 5.681708
v -1.635814 1.769833 5.683875
v -1.803578 1.943245 5.644279
v -1.823215 1.676920 5.567213
v -1.668498 1.942074 5.466040
v -1.692450 1.819873 5.467815
v -1.829915 1.961966 5.435371
v -1.846005 1.743741 5.372223
v -1.753863 1.965775 5.240310
v -1.763242 1.877590 5.244529
v -1.871681 1.970546 5.244448
v -1.880348 1.814161 5.201679
v -0.158780 0.287954 9.275608
v -0.252719 0.101461 9.212088
v -0.182110 -0.006843 9.212088
v -1.478674 1.067134 7.313063
v -1.574443 1.249671 7.448380
v -1.039465 1.423860 7.212279
v -1.093879 1.188875 7.143531
v -1.484799 1.394085 7.531109
v -1.097859 1.512766 7.365061
v -1.658449 1.398085 7.253229
v -1.569749 1.543071 7.312969
v -1.162748 1.595273 7.189365
v -1.092776 1.473797 7.077922
v -1.160535 1.247725 7.057549
v -1.565706 1.195502 7.178950
v -0.508053 -0.759662 4.218592
v -0.519458 0.411962 5.162002
v -0.866564 -0.941527 4.318342
v -1.031588 0.199675 5.475955
v -0.866564 -1.158585 4.474489
v -1.033048 -0.252084 5.716107
v -0.508034 -1.336596 4.589833
v -0.513485 -0.531648 5.752035
v -0.149427 -1.160009 4.478900
v -0.141336 -0.217023 5.577240
v -0.149542 -0.926407 4.334751
v -0.512044 0.650502 5.424999
v -1.022851 0.337419 5.650264
v -1.024829 -0.136907 5.860294
v -0.515671 -0.456198 5.810104
v -0.133260 -0.140111 5.624284
v -0.417970 0.774878 5.639177
v -0.882834 0.492035 6.172093
v -0.879769 0.014457 6.178735
v -0.448454 -0.320972 5.957598
v -0.130631 -0.055579 5.684791
v -0.429993 -0.938221 2.033967
v -0.658826 -1.070281 2.030117
v -0.658826 -1.334403 2.022418
v -0.429993 -1.466463 2.018569
v -0.201160 -1.334403 2.022418
v -0.201160 -1.070281 2.030117
v -0.825732 -1.317772 3.815936
v -0.825732 -1.067165 3.810853
v -0.149032 -1.109660 3.813509
v -0.149032 -1.361129 3.819231
v -0.487382 -0.845423 3.836408
v -0.487381 -1.535689 4.188968
v -0.714889 0.439435 6.492609
v -0.711441 -0.049237 6.421285
v -0.429993 -1.067938 0.395288
v -0.608103 -1.171652 0.384207
v -0.608103 -1.376711 0.399961
v -0.429993 -1.479240 0.407839
v -0.251884 -1.376711 0.399961
v -0.251884 -1.171652 0.384207
v -0.859183 -1.040303 4.272330
v -0.149356 -1.274583 4.371676
v -0.504316 -0.826326 4.208415
v -0.859183 -1.247083 4.364604
v -0.149450 -1.025377 4.282275
v -0.504300 -1.395274 4.519884
v -0.850273 -1.330714 4.220864
v -0.149339 -1.080112 4.180254
v -0.499794 -1.459674 4.429916
v -0.850273 -1.079461 4.172568
v -0.149269 -1.337729 4.229832
v -0.499806 -0.884399 4.149598
v -0.182652 0.209765 9.944905
v -0.252719 0.101461 9.944905
v -0.182110 -0.006843 9.944905
v 0.213411 0.613824 5.421496
v -0.199640 0.429979 5.305369
vn 0.2171 0.8930 -0.3943
vn 0.2309 0.9730 -0.0026
vn 0.2282 0.8287 0.5111
vn 0.5934 0.7171 0.3657
vn 0.6038 0.7971 0.0039
vn 0.5368 0.7678 -0.3497
vn 0.4335 0.6757 -0.5962
vn 0.2244 0.7535 -0.6180
vn 0.9488 0.1900 -0.2522
vn 0.9829 0.1719 0.0657
vn 0.9669 -0.1341 -0.2169
vn 0.9843 -0.1466 0.0981
vn 0.7198 0.4412 -0.5359
vn 0.8218 0.4872 -0.2955
vn 0.8739 0.4848 0.0339
vn 0.8176 0.4547 0.3533
vn 0.8793 0.1584 0.4492
vn 0.8717 -0.1659 0.4611
vn 0.7717 -0.4987 0.3948
vn 0.8452 -0.5193 0.1267
vn 0.8441 -0.5094 -0.1677
vn 0.7852 -0.4383 -0.4373
vn 0.8572 -0.1236 -0.4999
vn 0.8229 0.2097 -0.5281
vn 1.0000 -0.0000 -0.0000
vn 0.1564 -0.9765 0.1485
vn 0.4800 -0.7943 -0.3725
vn 0.5169 -0.8425 -0.1518
vn 0.4664 -0.8756 0.1262
vn 0.4808 -0.7739 0.4123
vn 0.1500 -0.8611 0.4857
vn 0.2261 -0.9220 -0.3144
vn 0.3148 0.2794 -0.9071
vn 0.3250 -0.1799 -0.9284
vn 0.2669 0.5681 -0.7785
vn 0.4934 0.5045 -0.7086
vn 0.5804 0.2495 -0.7751
vn 0.6137 -0.1420 -0.7766
vn 0.5175 -0.5489 -0.6564
vn 0.3026 -0.6356 -0.7102
vn 0.1733 0.1395 0.9749
vn 0.1703 -0.1865 0.9676
vn 0.5492 0.4099 0.7283
vn 0.1876 0.4801 0.8569
vn 0.1601 -0.5446 0.8233
vn 0.5064 -0.4648 0.7263
vn 0.5518 -0.1809 0.8141
vn 0.5611 0.1458 0.8148
vn 0.6237 0.6944 0.3588
vn 0.7220 0.5506 -0.4190
vn 0.3616 0.0569 -0.9306
vn -0.6237 -0.6944 -0.3589
vn 0.6532 -0.7421 0.1505
vn -0.7220 -0.5506 0.4190
vn -0.3616 -0.0569 0.9306
vn -0.6532 0.7421 -0.1505
vn 0.4347 0.8967 -0.0834
vn 0.1346 -0.9863 -0.0955
vn 0.1889 -0.9635 -0.1899
vn 0.9470 -0.2939 -0.1296
vn 0.9511 0.3018 -0.0658
vn 0.2604 0.9655 0.0108
vn 0.1987 -0.9729 -0.1181
vn 0.8562 -0.5111 -0.0753
vn 0.9090 0.4167 -0.0040
vn 0.3422 0.9314 0.1242
vn 0.3707 0.6941 0.6171
vn 0.3691 0.9079 0.1988
vn 0.2712 -0.1378 0.9526
vn 0.0435 -0.8339 0.5502
vn 0.7890 0.5201 -0.3271
vn 0.6390 -0.1580 0.7528
vn 0.6618 0.6938 -0.2840
vn -0.3966 -0.8274 0.3977
vn -0.7434 -0.4188 -0.5216
vn 0.8715 0.1212 -0.4752
vn 0.8872 -0.2083 0.4118
vn -0.8175 -0.5021 -0.2822
vn 0.0051 0.8917 -0.4527
vn 0.8255 0.5576 0.0881
vn -0.8475 0.2905 -0.4443
vn 0.0724 -0.9606 0.2685
vn 0.8559 0.5056 -0.1084
vn -0.8554 0.1508 -0.4955
vn 0.0135 -0.8302 0.5574
vn 0.9066 -0.1686 0.3868
vn -0.8772 -0.4783 -0.0415
vn 0.0166 0.8019 -0.5972
vn 0.2810 0.5358 0.7962
vn -0.9522 -0.1065 0.2864
vn -0.0741 0.9391 -0.3355
vn 0.6377 0.7411 0.2100
vn -0.4884 -0.1264 -0.8634
vn -0.5085 -0.0901 0.8563
vn 0.8147 0.4645 0.3470
vn -0.8463 -0.1799 -0.5014
vn 0.0996 -0.7010 0.7062
vn 0.8865 0.1410 0.4407
vn -0.8523 -0.3811 -0.3584
vn -0.2656 0.6721 -0.6912
vn -0.9945 -0.1042 0.0099
vn -0.6952 0.4428 -0.5662
vn 0.9694 0.0891 -0.2289
vn -0.9681 0.1765 -0.1777
vn 0.1938 -0.8802 0.4332
vn 0.9824 -0.1649 -0.0878
vn -0.9466 -0.3212 0.0279
vn -0.1860 0.6457 -0.7406
vn 0.9866 -0.0177 -0.1621
vn -0.5247 -0.6070 0.5968
vn -0.5513 -0.7343 0.3960
vn -0.5761 -0.6735 0.4630
vn 0.9949 0.1010 0.0067
vn -0.1194 0.6179 -0.7771
vn -0.2543 -0.6415 -0.7238
vn 0.9844 0.1583 0.0766
vn -0.1224 0.6077 -0.7847
vn -0.9321 -0.3622 -0.0030
vn 0.1930 -0.1258 0.9731
vn 0.2288 0.5262 0.8190
vn -0.0697 -0.6880 0.7224
vn 0.2211 0.1589 0.9622
vn -0.5156 -0.6110 -0.6007
vn -0.6228 -0.3622 -0.6934
vn -0.0093 -0.9460 0.3240
vn -0.8690 0.2877 -0.4026
vn 0.8056 0.5754 0.1415
vn 0.0467 0.8811 -0.4707
vn -0.9452 -0.1751 -0.2755
vn 0.8745 -0.2206 0.4320
vn 0.0638 0.8114 -0.5809
vn -0.7599 -0.5789 -0.2958
vn 0.8985 -0.1726 0.4037
vn 0.0537 -0.9226 0.3821
vn -0.7733 0.1936 -0.6038
vn 0.8347 0.5506 0.0092
vn 0.4536 0.8861 0.0948
vn 0.9942 0.0334 -0.1018
vn 0.5058 -0.8156 -0.2808
vn -0.4885 -0.8262 -0.2805
vn -0.5056 -0.7200 -0.4752
vn 0.9964 0.0702 -0.0467
vn -1.0000 0.0027 -0.0047
vn 0.9972 0.0695 -0.0266
vn -0.9775 -0.1835 0.1041
vn 0.9992 -0.0146 0.0384
vn 0.4871 0.8035 0.3422
vn 0.4679 -0.7931 -0.3899
vn -0.4802 -0.4633 0.7448
vn 0.4504 -0.8572 -0.2498
vn 0.4687 0.7948 0.3855
vn -0.3064 0.9514 -0.0319
vn -0.4984 -0.7752 -0.3881
vn 0.9585 -0.1138 0.2615
vn -0.9990 0.0430 0.0102
vn -0.9999 0.0094 -0.0037
vn 0.5428 0.3227 0.7754
vn 0.5002 -0.2749 -0.8211
vn -0.5000 0.2705 0.8227
vn -0.4451 -0.3053 -0.8419
vn -0.4280 -0.6667 -0.6102
vn -0.6103 0.3155 0.7266
vn 0.4923 -0.2512 -0.8334
vn 0.5476 0.1572 0.8218
vn -1.0000 -0.0004 0.0006
vn 0.9976 0.0649 -0.0248
vn 0.1311 -0.9864 0.0995
vn -0.4566 -0.4546 -0.7647
vn -0.0458 -0.9754 -0.2158
vn -0.6709 -0.0092 -0.7415
vn -0.0928 0.9924 0.0806
vn 0.3809 0.8606 0.3379
vn 0.1923 -0.9752 0.1092
vn 0.8973 -0.1254 0.4231
vn 0.0009 0.9581 0.2866
vn 0.5001 -0.2943 -0.8144
vn 0.4959 0.3885 0.7766
vn -0.4224 0.3918 0.8173
vn -0.4256 -0.2973 -0.8547
vn 0.9992 0.0373 -0.0122
vn 0.9934 0.0674 -0.0927
vn -1.0000 0.0003 0.0004
vn -0.0933 0.5861 -0.8049
vn 0.4993 -0.8355 -0.2294
vn -0.4395 0.8757 -0.1998
vn -0.4856 -0.8473 -0.2149
vn 0.9942 0.0896 -0.0591
vn -1.0000 -0.0001 0.0006
vn 0.2651 0.9642 -0.0050
vn 0.5079 -0.7560 -0.4130
vn -0.4349 0.7738 0.4606
vn -0.4324 -0.8455 -0.3133
vn 0.2812 0.9560 0.0830
vn 0.2213 -0.9720 -0.0794
vn 0.7554 0.1433 0.6395
vn 0.8931 0.4499 -0.0000
vn 0.8377 -0.5461 -0.0000
vn 0.5488 0.8323 0.0777
vn 0.5165 -0.8562 -0.0132
vn -0.2171 0.8930 -0.3943
vn -0.2332 0.9724 -0.0047
vn -0.2282 0.8287 0.5111
vn -0.5362 0.7239 0.4341
vn -0.6140 0.7893 -0.0094
vn -0.5575 0.7416 -0.3731
vn -0.4335 0.6757 -0.5962
vn -0.2244 0.7535 -0.6180
vn -0.9486 0.1818 -0.2589
vn -0.9832 0.1706 0.0645
vn -0.9679 -0.1309 -0.2144
vn -0.9842 -0.1492 0.0957
vn -0.7191 0.4598 -0.5211
vn -0.8258 0.4724 -0.3080
vn -0.8791 0.4760 0.0239
vn -0.8176 0.4547 0.3533
vn -0.8813 0.1551 0.4463
vn -0.8704 -0.1617 0.4650
vn -0.7756 -0.4470 0.4457
vn -0.8474 -0.5145 0.1312
vn -0.8444 -0.5089 -0.1672
vn -0.7852 -0.4383 -0.4373
vn -0.8583 -0.1214 -0.4987
vn -0.8209 0.2013 -0.5345
vn -0.1488 -0.9784 0.1435
vn -0.5095 -0.7887 -0.3441
vn -0.5440 -0.8308 -0.1171
vn -0.5063 -0.8464 0.1648
vn -0.4808 -0.7739 0.4123
vn -0.1500 -0.8611 0.4857
vn -0.1482 -0.9172 -0.3698
vn -0.3082 0.2745 -0.9109
vn -0.3445 -0.1614 -0.9248
vn -0.2408 0.5577 -0.7943
vn -0.4461 0.4620 -0.7665
vn -0.5707 0.2336 -0.7872
vn -0.6232 -0.1271 -0.7717
vn -0.5828 -0.4680 -0.6643
vn -0.3026 -0.6356 -0.7102
vn -0.1783 0.1347 0.9747
vn -0.1652 -0.1814 0.9694
vn -0.5146 0.4458 0.7324
vn -0.1947 0.4737 0.8589
vn -0.1601 -0.5446 0.8233
vn -0.5064 -0.4648 0.7263
vn -0.5466 -0.1746 0.8190
vn -0.5630 0.1438 0.8139
vn -0.6237 0.6944 0.3588
vn -0.7220 0.5506 -0.4190
vn -0.3616 0.0569 -0.9306
vn 0.6237 -0.6944 -0.3589
vn -0.6532 -0.7421 0.1505
vn 0.7220 -0.5506 0.4190
vn 0.3616 -0.0569 0.9306
vn 0.6532 0.7421 -0.1505
vn -0.2653 0.9442 0.1955
vn -0.3927 -0.8991 -0.1934
vn -0.2624 -0.9609 -0.0886
vn -0.9189 -0.3731 -0.1278
vn -0.9456 0.3062 -0.1102
vn -0.1556 0.9848 -0.0773
vn -0.3914 -0.9201 0.0158
vn -0.8805 -0.3945 0.2630
vn -0.8265 0.5467 -0.1340
vn -0.0109 0.9991 -0.0419
vn -0.4625 0.3663 0.8074
vn -0.2702 0.8084 0.5229
vn -0.5771 -0.2780 0.7679
vn -0.1886 -0.8781 0.4397
vn -0.5782 0.4587 0.6747
vn -0.9498 -0.2988 -0.0928
vn -0.2888 0.7740 0.5635
vn -0.8599 -0.2373 -0.4519
vn -0.9925 -0.0652 0.1038
vn 0.9958 0.0507 -0.0768
vn -0.8731 -0.4861 0.0378
vn 0.8251 -0.0260 -0.5644
vn 0.0150 0.7966 0.6044
vn -0.8303 0.2228 0.5108
vn 0.8518 0.5235 0.0209
vn -0.0905 -0.7002 -0.7082
vn -0.8475 0.3564 0.3933
vn 0.8029 0.5817 -0.1300
vn 0.0056 -0.9252 -0.3794
vn -0.8887 -0.4459 0.1064
vn 0.8631 -0.2176 -0.4558
vn -0.0194 0.9423 0.3342
vn -0.2391 -0.3663 0.8993
vn 0.9586 -0.2830 0.0323
vn 0.0864 0.8032 0.5894
vn -0.2106 -0.2421 0.9471
vn 0.4544 0.6534 -0.6054
vn 0.1771 -0.9462 0.2710
vn -0.7721 0.2998 0.5604
vn 0.8234 0.3284 -0.4629
vn -0.0927 -0.9785 -0.1844
vn -0.8025 -0.4343 0.4091
vn 0.8291 0.0976 -0.5505
vn 0.1300 0.9087 0.3968
vn 0.9912 -0.0516 -0.1215
vn 0.3105 0.9284 0.2043
vn -0.9742 0.2253 -0.0140
vn 0.9813 0.1855 -0.0508
vn -0.2009 -0.8532 -0.4813
vn -0.9796 -0.1428 -0.1411
vn 0.9385 -0.1882 -0.2896
vn 0.1764 0.9775 0.1159
vn -0.9918 0.1100 -0.0646
vn 0.5384 -0.8319 -0.1341
vn 0.5878 -0.7184 -0.3721
vn 0.5746 -0.7513 -0.3246
vn -0.9911 0.0360 0.1282
vn 0.1079 0.9913 0.0752
vn -0.0368 -0.0439 -0.9984
vn -0.9768 0.0101 0.2141
vn 0.1104 0.9919 0.0624
vn 0.9218 -0.1856 -0.3402
vn -0.2320 -0.1829 0.9554
vn -0.2184 0.5216 0.8248
vn 0.0445 -0.6890 0.7234
vn -0.2442 0.0675 0.9674
vn 0.4947 0.1527 -0.8556
vn 0.4594 0.5515 -0.6963
vn -0.2297 -0.7928 -0.5645
vn 0.9515 0.2408 -0.1916
vn -0.6325 0.4632 0.6208
vn -0.1300 0.7695 0.6253
vn 0.9490 0.0949 -0.3006
vn -0.8967 -0.4396 0.0527
vn -0.0707 0.9303 0.3600
vn 0.7351 -0.0464 -0.6763
vn -0.8532 -0.5007 0.1460
vn 0.0544 -0.9130 -0.4044
vn 0.7860 0.6127 -0.0823
vn -0.8314 0.2838 0.4777
vn -0.4710 0.5505 -0.6893
vn -0.9943 -0.0473 -0.0951
vn -0.4389 -0.7527 0.4907
vn 0.5023 -0.7097 0.4939
vn 0.6606 -0.4458 0.6041
vn 0.2988 0.6003 -0.7419
vn -0.6832 0.7138 0.1540
vn -0.9956 -0.0019 -0.0933
vn 0.9803 -0.1341 0.1447
vn -0.9990 0.0235 0.0382
vn -0.5823 0.6103 -0.5371
vn -0.3604 -0.5755 0.7341
vn -0.0730 0.0295 0.9969
vn -0.3193 -0.6216 0.7154
vn -0.5759 0.7910 -0.2064
vn -0.0508 0.8732 -0.4847
vn 0.6626 -0.4494 0.5991
vn -0.9248 0.1573 0.3465
vn 0.9995 0.0009 -0.0309
vn 0.9996 -0.0007 -0.0290
vn -0.5439 0.8369 -0.0604
vn -0.5088 -0.8599 -0.0409
vn 0.6145 0.7887 -0.0210
vn 0.4438 -0.8960 -0.0168
vn 0.4575 -0.8410 0.2889
vn 0.4751 0.8707 0.1272
vn -0.4603 -0.8531 0.2454
vn -0.4865 0.8737 -0.0033
vn 1.0000 0.0004 0.0006
vn -0.9981 -0.0117 -0.0609
vn 0.0929 -0.9906 0.1000
vn 0.0509 -0.5103 -0.8585
vn 0.1429 -0.9664 -0.2138
vn -0.0415 -0.0124 -0.9991
vn -0.3552 0.9178 0.1773
vn -0.3543 0.8752 0.3293
vn -0.3149 -0.9486 -0.0306
vn -0.8212 0.0027 0.5706
vn -0.0000 -0.0766 -0.9971
vn -0.4997 -0.8661 0.0070
vn -0.4978 0.8646 -0.0684
vn 0.4978 0.8646 -0.0684
vn 0.4997 -0.8661 0.0070
vn -0.9995 0.0009 -0.0309
vn -0.9986 -0.0306 -0.0425
vn 1.0000 0.0005 0.0001
vn -0.4146 0.3586 -0.8364
vn -0.5073 -0.6734 0.5378
vn 0.4502 0.4186 -0.7887
vn 0.4979 -0.6512 0.5728
vn -0.9986 -0.0219 -0.0491
vn 1.0000 0.0005 0.0004
vn -0.5291 0.7728 -0.3506
vn -0.5090 -0.7118 0.4840
vn 0.4836 0.6411 -0.5959
vn 0.4630 -0.7096 0.5311
vn -0.2668 0.9599 0.0859
vn -0.2551 -0.9650 -0.0610
vn -0.7572 0.1442 0.6371
vn -0.8931 0.4499 -0.0000
vn -0.8377 -0.5461 -0.0000
vn -0.5999 0.7948 0.0921
vn -0.5165 -0.8562 -0.0132
vn -0.4527 0.0782 -0.8882
vn 0.9825 0.0105 -0.1858
vn -0.0097 0.6669 -0.7451
vn 0.0833 0.5638 -0.8217
vn 0.2158 0.8929 -0.3952
vn 0.2332 0.9724 -0.0047
vn 0.2114 0.8407 0.4986
vn 0.5362 0.7239 0.4341
vn 0.6140 0.7893 -0.0094
vn 0.5575 0.7416 -0.3731
vn 0.4895 0.6746 -0.5525
vn 0.2088 0.7506 -0.6269
vn 0.9486 0.1818 -0.2589
vn 0.9832 0.1706 0.0645
vn 0.9679 -0.1309 -0.2144
vn 0.9842 -0.1492 0.0957
vn 0.7191 0.4598 -0.5211
vn 0.8258 0.4724 -0.3080
vn 0.8791 0.4760 0.0239
vn 0.8171 0.4050 0.4103
vn 0.8813 0.1551 0.4463
vn 0.8704 -0.1617 0.4650
vn 0.7756 -0.4470 0.4457
vn 0.8474 -0.5145 0.1312
vn 0.8444 -0.5089 -0.1672
vn 0.7820 -0.4824 -0.3947
vn 0.8583 -0.1214 -0.4987
vn 0.8209 0.2013 -0.5345
vn 0.1806 -0.9804 -0.0786
vn 0.1607 -0.9818 -0.1015
vn 0.1488 -0.9784 0.1435
vn 0.5095 -0.7887 -0.3441
vn 0.5440 -0.8308 -0.1171
vn 0.5063 -0.8464 0.1648
vn 0.4448 -0.7758 0.4475
vn 0.1542 -0.8626 0.4818
vn 0.1482 -0.9172 -0.3698
vn 0.3082 0.2745 -0.9109
vn 0.3445 -0.1614 -0.9248
vn 0.2408 0.5577 -0.7943
vn 0.4461 0.4620 -0.7665
vn 0.5707 0.2336 -0.7872
vn 0.6232 -0.1271 -0.7717
vn 0.5828 -0.4680 -0.6643
vn 0.2684 -0.6184 -0.7387
vn 0.1783 0.1347 0.9747
vn 0.1652 -0.1814 0.9694
vn 0.5146 0.4458 0.7324
vn 0.1947 0.4737 0.8589
vn 0.1626 -0.5423 0.8243
vn 0.4611 -0.5075 0.7279
vn 0.5466 -0.1746 0.8190
vn 0.5630 0.1438 0.8139
vn -0.6237 -0.6944 -0.3588
vn 0.3668 0.9109 0.1889
vn 0.2658 -0.9503 0.1621
vn 0.2009 -0.9594 -0.1982
vn 0.8316 -0.4993 -0.2430
vn 0.9062 0.4105 -0.1018
vn 0.3464 0.9352 -0.0734
vn 0.1351 -0.9882 -0.0722
vn 0.8907 -0.4430 -0.1019
vn 0.9671 0.2098 0.1436
vn 0.4668 0.8836 -0.0372
vn 0.7204 0.4647 0.5149
vn 0.2602 0.8349 0.4851
vn 0.5117 -0.0451 0.8580
vn 0.0325 -0.8294 0.5577
vn 0.7774 0.6152 -0.1310
vn 0.9435 -0.2493 0.2181
vn 0.9408 0.3112 -0.1343
vn 0.2311 -0.9580 0.1696
vn -0.2462 -0.6392 -0.7286
vn 0.9980 0.0509 -0.0365
vn 0.8646 -0.2081 0.4574
vn -0.8997 -0.4280 -0.0857
vn -0.0082 0.9249 -0.3801
vn 0.8050 0.5841 0.1039
vn -0.8432 0.2802 -0.4587
vn 0.0689 -0.9566 0.2831
vn 0.8918 0.4475 -0.0672
vn -0.8177 0.2345 -0.5258
vn -0.0044 -0.8304 0.5571
vn 0.9006 -0.1798 0.3958
vn -0.8742 -0.4844 -0.0338
vn -0.0007 0.8018 -0.5976
vn 0.5224 0.3038 0.7967
vn -0.9781 -0.1008 0.1818
vn -0.4984 0.8648 -0.0617
vn 0.2526 0.6455 0.7208
vn -0.6770 -0.3212 -0.6622
vn -0.1518 -0.2982 0.9424
vn 0.7898 0.6124 0.0360
vn 0.0041 -0.8052 0.5930
vn 0.8249 0.0767 0.5601
vn -0.1272 0.8392 -0.5288
vn -0.9926 -0.1144 0.0398
vn -0.3156 0.6951 -0.6459
vn 0.9810 -0.0234 -0.1923
vn -0.9852 0.0864 -0.1478
vn -0.1567 -0.9206 0.3577
vn 0.9751 -0.2218 0.0057
vn -0.1341 0.5668 -0.8129
vn 0.9827 -0.0534 -0.1772
vn -0.5310 -0.5613 0.6347
vn -0.5918 -0.6942 0.4098
vn -0.0033 -0.8538 -0.5206
vn 0.9874 0.1390 0.0753
vn -0.0550 0.5874 -0.8074
vn -0.9372 -0.3412 -0.0730
vn 0.2240 -0.1060 0.9688
vn 0.5591 0.6305 0.5384
vn 0.0133 -0.3484 0.9373
vn 0.5023 -0.0411 0.8637
vn -0.5314 -0.6121 -0.5856
vn -0.4955 -0.2585 -0.8293
vn 0.0258 -0.9368 0.3490
vn -0.9401 -0.0105 -0.3407
vn 0.6579 0.7516 -0.0477
vn 0.3607 0.9056 -0.2232
vn -0.9173 -0.3803 -0.1180
vn 0.8739 -0.2226 0.4321
vn -0.0282 0.8837 -0.4673
vn -0.8754 -0.4814 -0.0447
vn 0.8628 -0.1564 0.4807
vn -0.0373 -0.8522 0.5218
vn -0.7925 0.2555 -0.5538
vn 0.8236 0.5669 0.0185
vn 0.4231 0.9019 0.0873
vn 0.9944 0.0471 -0.0950
vn 0.4549 -0.8365 -0.3055
vn -0.5101 -0.8167 -0.2696
vn -0.5255 -0.7707 -0.3603
vn 1.0000 -0.0026 -0.0051
vn -0.9885 0.1362 0.0654
vn 0.9973 0.0703 -0.0230
vn -0.9761 -0.1877 -0.1098
vn 0.9990 -0.0148 0.0422
vn 0.4469 0.8946 -0.0032
vn 0.4725 -0.8211 -0.3201
vn -0.5052 -0.2329 0.8310
vn -0.5815 -0.0760 0.8100
vn -0.3447 -0.1914 0.9190
vn 0.4677 -0.8675 -0.1693
vn 0.4671 0.7835 0.4097
vn 0.0512 0.8686 -0.4928
vn -0.5052 -0.7639 -0.4016
vn 0.9469 -0.0930 0.3079
vn -0.9992 0.0373 -0.0122
vn -0.9999 0.0096 -0.0031
vn 0.4993 0.3203 0.8051
vn 0.5118 -0.2695 -0.8158
vn -0.6131 0.2702 0.7423
vn -0.4987 -0.2855 -0.8184
vn -0.5016 -0.3559 -0.7885
vn -0.4437 0.1256 0.8873
vn 0.4316 -0.6385 -0.6373
vn 0.4651 0.2862 0.8377
vn -1.0000 -0.0008 0.0003
vn 0.9980 0.0521 -0.0344
vn -0.2841 -0.5586 -0.7793
vn 0.2600 -0.9597 0.1071
vn 0.3725 0.7754 0.5098
vn 0.3356 0.8272 0.4506
vn 0.2520 -0.9666 -0.0474
vn 0.8753 -0.1028 0.4725
vn 0.0014 0.9894 0.1454
vn -0.0029 0.9575 0.2885
vn -0.1065 0.9676 0.2290
vn 0.4225 -0.2978 -0.8560
vn 0.4194 0.3919 0.8189
vn -0.4959 0.3885 0.7766
vn -0.4986 -0.2941 -0.8154
vn 0.9990 0.0437 0.0132
vn 0.9989 0.0149 -0.0454
vn -1.0000 -0.0003 0.0009
vn 0.3233 0.8631 -0.3881
vn 0.5042 -0.8281 -0.2451
vn 0.0589 0.5824 -0.8107
vn -0.4496 -0.8865 -0.1096
vn 0.9987 0.0303 -0.0417
vn -1.0000 -0.0008 0.0009
vn 0.5094 0.7020 0.4977
vn 0.4928 -0.8044 -0.3318
vn -0.4045 0.9133 0.0472
vn -0.4600 -0.7176 -0.5229
vn 0.2821 0.9563 0.0765
vn 0.1856 -0.9825 0.0160
vn 0.7480 -0.3350 0.5730
vn 0.9063 -0.0907 0.4128
vn 0.8391 0.5429 0.0335
vn 0.5999 0.7948 0.0921
vn 0.5513 -0.8343 -0.0000
vn -0.2158 0.8929 -0.3952
vn -0.2309 0.9730 -0.0026
vn -0.2114 0.8407 0.4986
vn -0.5934 0.7171 0.3657
vn -0.6038 0.7971 0.0039
vn -0.5368 0.7678 -0.3497
vn -0.4895 0.6746 -0.5525
vn -0.2088 0.7506 -0.6269
vn -0.9488 0.1900 -0.2522
vn -0.9829 0.1719 0.0657
vn -0.9669 -0.1341 -0.2169
vn -0.9843 -0.1466 0.0981
vn -0.7198 0.4412 -0.5359
vn -0.8218 0.4872 -0.2955
vn -0.8739 0.4848 0.0339
vn -0.8171 0.4050 0.4103
vn -0.8793 0.1584 0.4492
vn -0.8717 -0.1659 0.4611
vn -0.7717 -0.4987 0.3948
vn -0.8452 -0.5193 0.1267
vn -0.8441 -0.5094 -0.1677
vn -0.7820 -0.4824 -0.3947
vn -0.8572 -0.1236 -0.4999
vn -0.8229 0.2097 -0.5281
vn -0.1607 -0.9818 -0.1015
vn -0.1806 -0.9804 -0.0786
vn -0.1564 -0.9765 0.1485
vn -0.4800 -0.7943 -0.3725
vn -0.5169 -0.8425 -0.1518
vn -0.4664 -0.8756 0.1262
vn -0.4448 -0.7758 0.4475
vn -0.1542 -0.8626 0.4818
vn -0.2261 -0.9220 -0.3144
vn -0.3148 0.2794 -0.9071
vn -0.3250 -0.1799 -0.9284
vn -0.2669 0.5681 -0.7785
vn -0.4934 0.5045 -0.7086
vn -0.5804 0.2495 -0.7751
vn -0.6137 -0.1420 -0.7766
vn -0.5175 -0.5489 -0.6564
vn -0.2683 -0.6184 -0.7387
vn -0.1733 0.1395 0.9749
vn -0.1703 -0.1865 0.9676
vn -0.5492 0.4099 0.7283
vn -0.1876 0.4801 0.8569
vn -0.1626 -0.5423 0.8243
vn -0.4611 -0.5075 0.7279
vn -0.5518 -0.1809 0.8141
vn -0.5611 0.1458 0.8148
vn 0.6237 -0.6944 -0.3588
vn -0.2050 0.9288 0.3088
vn -0.4640 -0.8816 -0.0861
vn -0.3886 -0.9023 -0.1864
vn -0.9416 -0.3202 -0.1041
vn -0.8126 0.5380 -0.2243
vn -0.2211 0.9663 -0.1321
vn -0.4688 -0.8810 -0.0640
vn -0.9908 -0.1219 -0.0594
vn -0.6961 0.6770 -0.2392
vn -0.1628 0.9729 -0.1642
vn -0.5762 0.3118 0.7555
vn -0.2938 0.8264 0.4803
vn -0.4739 -0.3376 0.8133
vn -0.0518 -0.8336 0.5500
vn -0.7255 0.6361 0.2627
vn -0.8777 -0.4728 0.0785
vn 0.9342 0.2666 0.2370
vn -0.6345 -0.7428 -0.2137
vn 0.9310 0.0880 -0.3542
vn -0.5491 0.6862 -0.4770
vn -0.8934 -0.4491 0.0138
vn 0.9075 -0.1634 -0.3870
vn -0.0007 0.8531 0.5218
vn -0.8011 0.2220 0.5559
vn 0.8514 0.5242 0.0193
vn -0.0786 -0.7357 -0.6728
vn -0.8818 0.2920 0.3703
vn 0.8409 0.5083 -0.1859
vn -0.0152 -0.9257 -0.3781
vn -0.8966 -0.4285 0.1123
vn 0.8597 -0.2290 -0.4566
vn 0.0004 0.9429 0.3331
vn -0.4862 -0.4996 0.7169
vn 0.9810 -0.1926 -0.0223
vn 0.5179 0.5408 0.6629
vn -0.6107 0.2295 0.7579
vn 0.6449 0.3806 -0.6627
vn 0.5358 -0.7534 0.3812
vn -0.7899 -0.0411 0.6118
vn -0.0039 -0.9412 -0.3378
vn -0.8666 -0.3004 0.3985
vn 0.2584 0.9523 0.1621
vn 0.9902 -0.0821 -0.1133
vn 0.6860 0.7272 0.0239
vn -0.9875 0.1321 -0.0865
vn 0.9655 0.2603 0.0080
vn 0.1455 -0.8079 -0.5711
vn -0.9888 -0.0336 -0.1457
vn 0.1200 0.9927 0.0123
vn -0.9894 0.1027 -0.1028
vn 0.5296 -0.8260 -0.1929
vn 0.5459 -0.7299 -0.4113
vn 0.2123 0.2468 -0.9455
vn -0.9803 0.0003 0.1975
vn 0.0417 0.9985 0.0358
vn 0.9250 -0.1157 -0.3620
vn -0.2568 -0.1674 0.9519
vn -0.5591 0.6305 0.5384
vn -0.0498 -0.4012 0.9146
vn -0.4390 -0.0836 0.8946
vn 0.4785 0.1656 -0.8624
vn 0.5887 0.3828 -0.7120
vn -0.0622 -0.7384 -0.6715
vn 0.8865 0.4570 0.0729
vn -0.8087 0.1814 0.5596
vn -0.0121 0.8266 0.5626
vn 0.9146 -0.0969 -0.3927
vn -0.8823 -0.4705 0.0103
vn 0.0420 0.8633 0.5030
vn 0.8694 -0.2207 -0.4421
vn -0.8947 -0.4393 0.0810
vn -0.0754 -0.7997 -0.5957
vn 0.7574 0.6211 -0.2015
vn -0.8102 0.2845 0.5125
vn -0.5919 0.5302 -0.6071
vn -0.9942 -0.0629 -0.0874
vn -0.5090 -0.7087 0.4885
vn 0.6881 -0.5530 0.4697
vn 0.6601 -0.4412 0.6080
vn 0.4732 0.5242 -0.7081
vn -0.4923 0.8646 0.1003
vn -0.9957 0.0027 -0.0927
vn 0.9858 -0.1460 0.0828
vn -0.9992 0.0195 0.0347
vn -0.6025 0.6406 -0.4760
vn -0.3869 -0.7096 0.5889
vn 0.6527 0.2648 0.7099
vn 0.5514 0.0151 0.8341
vn 0.5533 0.1746 0.8145
vn -0.3381 -0.7809 0.5252
vn -0.5850 0.8068 -0.0821
vn -0.0530 0.8686 -0.4927
vn 0.7362 -0.6315 0.2434
vn -0.9656 -0.0026 0.2599
vn 0.9995 -0.0024 -0.0312
vn 0.9996 0.0009 -0.0292
vn -0.4986 0.8655 -0.0483
vn -0.5000 -0.8652 -0.0385
vn 0.4999 0.8661 0.0045
vn 0.5000 -0.8656 -0.0274
vn 0.5002 -0.8645 0.0496
vn 0.6116 0.7886 -0.0630
vn -0.4948 -0.8671 -0.0577
vn -0.5506 0.8308 0.0815
vn 1.0000 -0.0000 0.0008
vn -0.9977 -0.0014 -0.0677
vn -0.1486 -0.6167 -0.7731
vn -0.0793 -0.6178 0.7823
vn -0.2153 0.9733 0.0791
vn -0.2935 0.8395 0.4573
vn -0.2455 -0.9634 0.1079
vn -0.8883 -0.0725 0.4536
vn -0.0000 0.1062 -0.9943
vn -0.4991 -0.8665 0.0069
vn -0.4988 0.8640 -0.0686
vn 0.4988 0.8640 -0.0686
vn 0.4991 -0.8665 0.0069
vn -0.9995 -0.0024 -0.0312
vn -0.9960 -0.0364 -0.0816
vn 1.0000 0.0006 0.0006
vn -0.2523 0.1322 -0.9586
vn -0.5125 -0.6852 0.5174
vn 0.2865 0.1603 -0.9446
vn 0.4733 -0.6018 0.6433
vn -0.9964 -0.0159 -0.0827
vn 1.0000 0.0004 0.0009
vn -0.3980 0.6374 -0.6598
vn -0.5188 -0.7525 0.4057
vn 0.4707 0.7777 -0.4167
vn 0.4820 -0.8003 0.3566
vn -0.2691 0.9600 0.0768
vn -0.2638 -0.9614 -0.0785
vn -0.8997 -0.0693 0.4310
vn -0.7384 -0.3394 0.5827
vn -0.8391 0.5429 0.0335
vn -0.5488 0.8323 0.0777
vn -0.5513 -0.8343 -0.0000
vn -0.9888 0.1490 0.0126
vn 0.8545 -0.1742 -0.4893
vn -0.6962 0.7172 -0.0300
vn 0.2530 0.7131 -0.6539
vt 0.500000 0.375000
vt 0.437500 0.437500
vt 0.437500 0.375000
vt 0.562500 0.437500
vt 0.500000 0.437500
vt 0.625000 0.375000
vt 0.562500 0.375000
vt 0.625000 0.500000
vt 0.562500 0.500000
vt 0.500000 0.500000
vt 0.437500 0.500000
vt 0.375000 0.500000
vt 0.375000 0.437500
vt 0.375000 0.375000
vt 0.437500 0.562500
vt 0.500000 0.625000
vt 0.437500 0.625000
vt 0.500000 0.562500
vt 0.562500 0.625000
vt 0.500000 0.687500
vt 0.437500 0.687500
vt 0.562500 0.687500
vt 0.375000 0.562500
vt 0.562500 0.562500
vt 0.625000 0.625000
vt 0.625000 0.687500
vt 0.625000 0.750000
vt 0.562500 0.750000
vt 0.500000 0.750000
vt 0.437500 0.750000
vt 0.375000 0.750000
vt 0.375000 0.687500
vt 0.375000 0.625000
vt 0.500000 0.875000
vt 0.468750 0.875000
vt 0.437500 0.875000
vt 0.500000 0.812500
vt 0.562500 0.875000
vt 0.437500 0.812500
vt 0.375000 0.812500
vt 0.562500 0.812500
vt 0.625000 0.812500
vt 0.375000 0.875000
vt 0.250000 0.562500
vt 0.312500 0.625000
vt 0.250000 0.625000
vt 0.312500 0.687500
vt 0.250000 0.687500
vt 0.250000 0.500000
vt 0.312500 0.562500
vt 0.312500 0.500000
vt 0.312500 0.750000
vt 0.250000 0.750000
vt 0.687500 0.562500
vt 0.750000 0.625000
vt 0.687500 0.625000
vt 0.750000 0.687500
vt 0.687500 0.687500
vt 0.625000 0.562500
vt 0.687500 0.500000
vt 0.750000 0.562500
vt 0.687500 0.750000
vt 1.000000 0.500000
vt 0.833333 1.000000
vt 0.833333 0.500000
vt 0.666667 1.000000
vt 0.666667 0.500000
vt 0.500000 1.000000
vt 0.500000 0.500000
vt 0.333333 0.500000
vt 0.042154 0.130000
vt 0.250000 0.010000
vt 0.457846 0.130000
vt 0.333333 1.000000
vt 0.166667 0.500000
vt 0.166667 1.000000
vt -0.000000 0.500000
vt 0.542154 0.130000
vt 0.542154 0.370000
vt 0.957846 0.370000
vt 1.000000 0.828637
vt 0.875000 1.000000
vt 0.875000 0.828637
vt 0.625000 0.828637
vt 0.500000 1.000000
vt 0.500000 0.828637
vt 0.625000 0.645722
vt 0.500000 0.500000
vt 0.750000 0.500000
vt 0.875000 0.645722
vt 0.875000 0.500000
vt 0.500000 0.645722
vt 0.750000 0.828637
vt 0.750000 0.645722
vt 1.000000 0.645722
vt 0.750000 1.000000
vt 1.000000 1.000000
vt 0.625000 1.000000
vt 0.749520 0.964446
vt 0.653402 0.965669
vt 0.844587 0.863513
vt 0.844268 0.965118
vt 0.647775 0.863148
vt 0.750840 0.864057
vt 0.749520 0.964446
vt 0.750840 0.864057
vt 0.647775 0.863149
vt 0.844587 0.863513
vt 0.844267 0.965117
vt 0.653402 0.965669
vt 0.749520 0.964446
vt 0.844268 0.965117
vt 0.750840 0.864057
vt 0.653402 0.965669
vt 0.844587 0.863513
vt 0.000000 0.000000
vt 0.833333 0.500000
vt -0.000000 1.000000
vt 0.500000 0.500000
vt 0.500000 0.500000
vt 0.166667 0.500000
vt -0.000000 0.500000
vt 0.833333 0.500000
vt 0.042154 0.370000
vt 0.457846 0.370000
vt 0.750000 0.010000
vt 0.333333 0.500000
vt 0.457846 0.250000
vt 0.625000 0.437500
vt 0.750000 0.500000
vt 0.957846 0.130000
vt 0.250000 0.490000
vt 0.625000 0.875000
vt 0.750000 0.750000
vt 0.250000 0.490000
vt 0.750000 0.490000
vt 0.750000 0.490000
s 0
f 26/1/1 28/2/1 25/3/1
f 26/1/2 30/4/2 29/5/2
f 7/6/3 30/4/3 27/7/3
f 30/4/4 4/8/4 9/9/4
f 29/5/5 9/9/5 10/10/5
f 28/2/6 10/10/6 11/11/6
f 28/2/7 3/12/7 5/13/7
f 25/3/8 5/13/8 6/14/8
f 31/15/9 35/16/9 34/17/9
f 32/18/10 36/19/10 35/16/10
f 34/17/11 38/20/11 37/21/11
f 35/16/12 39/22/12 38/20/12
f 3/12/13 31/15/13 14/23/13
f 11/11/14 32/18/14 31/15/14
f 10/10/15 33/24/15 32/18/15
f 4/8/16 33/24/16 9/9/16
f 33/24/17 16/25/17 36/19/17
f 36/19/18 17/26/18 39/22/18
f 39/22/19 2/27/19 18/28/19
f 38/20/20 18/28/20 19/29/20
f 37/21/21 19/29/21 20/30/21
f 37/21/22 1/31/22 12/32/22
f 13/33/23 37/21/23 12/32/23
f 14/23/24 34/17/24 13/33/24
f 44/34/25 58/35/25 43/36/25
f 41/37/26 45/38/26 44/34/26
f 1/31/27 40/39/27 22/40/27
f 20/30/28 41/37/28 40/39/28
f 19/29/29 42/41/29 41/37/29
f 2/27/30 42/41/30 18/28/30
f 23/42/31 45/38/31 42/41/31
f 22/40/32 43/36/32 21/43/32
f 46/44/33 49/45/33 48/46/33
f 48/46/34 51/47/34 50/48/34
f 6/49/35 47/50/35 46/44/35
f 5/51/36 14/23/36 47/50/36
f 47/50/37 13/33/37 49/45/37
f 49/45/38 12/32/38 51/47/38
f 51/47/39 1/31/39 22/52/39
f 51/47/40 21/53/40 50/48/40
f 52/54/41 55/55/41 54/56/41
f 54/56/42 57/57/42 56/58/42
f 4/8/43 52/54/43 15/59/43
f 8/60/44 53/61/44 52/54/44
f 57/57/45 23/62/45 56/58/45
f 56/58/46 2/27/46 17/26/46
f 16/25/47 56/58/47 17/26/47
f 15/59/48 54/56/48 16/25/48
f 59/63/49 62/64/49 61/65/49
f 61/65/50 64/66/50 63/67/50
f 63/67/51 66/68/51 65/69/51
f 66/68/52 67/70/52 65/69/52
f 68/71/53 66/72/53 64/73/53
f 68/74/54 69/75/54 67/70/54
f 70/76/55 59/77/55 69/75/55
f 67/78/56 69/79/56 61/80/56
f 86/81/57 97/82/57 99/83/57
f 100/84/58 80/85/58 90/86/58
f 84/87/59 79/88/59 77/8/59
f 75/89/60 84/87/60 77/8/60
f 82/90/61 75/89/61 73/91/61
f 71/63/62 82/90/62 73/91/62
f 100/84/63 85/92/63 84/87/63
f 101/93/64 84/87/64 83/94/64
f 99/83/65 83/94/65 82/90/65
f 81/95/66 99/83/66 82/90/66
f 97/82/67 93/96/67 96/96/67
f 72/97/68 92/82/68 97/82/68
f 98/98/69 93/96/69 94/98/69
f 80/85/70 94/98/70 95/85/70
f 76/99/71 97/82/71 96/96/71
f 78/100/72 96/96/72 98/98/72
f 87/101/73 97/82/73 74/102/73
f 78/100/74 100/84/74 89/103/74
f 89/103/75 101/93/75 88/104/75
f 87/101/76 101/93/76 99/83/76
f 150/105/77 104/100/77 103/99/77
f 151/106/78 107/103/78 152/107/78
f 154/108/79 102/102/79 105/101/79
f 150/105/80 102/102/80 153/109/80
f 151/106/81 105/101/81 106/104/81
f 152/107/82 104/100/82 149/110/82
f 155/111/83 108/102/83 156/112/83
f 158/113/84 111/101/84 112/104/84
f 160/114/85 113/103/85 110/100/85
f 155/111/86 110/100/86 109/99/86
f 158/113/87 113/103/87 159/107/87
f 156/112/88 111/101/88 157/115/88
f 110/100/89 115/99/89 109/99/89
f 112/104/90 133/103/90 113/103/90
f 108/102/91 117/101/91 111/101/91
f 108/102/92 115/99/92 114/102/92
f 111/101/93 118/104/93 112/104/93
f 110/100/94 119/103/94 116/100/94
f 114/102/95 121/99/95 120/102/95
f 117/101/96 124/104/96 118/104/96
f 119/103/97 122/100/97 116/100/97
f 115/99/98 122/100/98 121/99/98
f 119/103/99 124/104/99 125/103/99
f 117/101/100 120/102/100 123/101/100
f 124/104/101 131/103/101 125/103/101
f 123/101/102 126/102/102 129/101/102
f 121/99/103 126/102/103 120/102/103
f 124/104/104 129/101/104 130/104/104
f 125/103/105 128/100/105 122/100/105
f 121/99/106 128/100/106 127/99/106
f 132/104/107 137/103/107 133/103/107
f 118/104/108 132/104/108 112/104/108
f 119/103/109 134/104/109 118/104/109
f 119/103/110 133/103/110 135/103/110
f 139/103/111 141/103/111 143/103/111
f 135/103/112 137/103/112 139/103/112
f 135/103/113 138/104/113 134/104/113
f 134/104/114 136/104/114 132/104/114
f 141/103/115 142/104/115 143/103/115
f 139/103/116 142/104/116 138/104/116
f 138/104/117 140/104/117 136/104/117
f 136/104/118 141/103/118 137/103/118
f 94/98/119 146/96/119 147/98/119
f 91/97/120 145/82/120 92/82/120
f 94/98/121 148/85/121 95/85/121
f 92/82/122 146/96/122 93/96/122
f 128/100/123 130/104/123 127/99/123
f 127/99/124 129/101/124 126/102/124
f 89/103/125 149/110/125 78/100/125
f 88/104/126 154/108/126 151/106/126
f 74/102/127 150/105/127 153/109/127
f 87/101/128 153/109/128 154/108/128
f 88/104/129 152/107/129 89/103/129
f 78/100/130 150/105/130 76/99/130
f 102/102/131 157/115/131 105/101/131
f 106/104/132 159/107/132 107/103/132
f 103/99/133 160/114/133 155/111/133
f 104/100/134 159/107/134 160/114/134
f 106/104/135 157/115/135 158/113/135
f 103/99/136 156/112/136 102/102/136
f 162/97/137 163/65/137 161/63/137
f 163/65/138 166/66/138 165/67/138
f 165/67/139 168/68/139 167/69/139
f 168/68/140 169/70/140 167/69/140
f 170/74/141 175/68/141 176/74/141
f 368/74/142 369/75/142 416/116/142
f 170/74/143 171/75/143 169/70/143
f 190/67/144 185/65/144 191/117/144
f 177/76/145 182/74/145 183/76/145
f 164/64/146 174/66/146 166/66/146
f 164/64/147 172/97/147 173/64/147
f 166/66/148 175/68/148 168/68/148
f 182/71/149 181/72/149 180/73/149
f 174/66/150 181/68/150 175/68/150
f 173/64/151 178/97/151 179/64/151
f 177/76/152 178/118/152 172/118/152
f 175/68/153 182/74/153 176/74/153
f 173/64/154 180/66/154 174/66/154
f 188/70/155 210/75/155 209/70/155
f 192/75/156 188/70/156 193/70/156
f 191/117/157 184/63/157 194/63/157
f 190/67/158 187/69/158 186/67/158
f 192/75/159 184/77/159 189/75/159
f 193/70/160 187/69/160 195/119/160
f 221/70/161 195/119/161 219/120/161
f 218/121/162 194/122/162 192/75/162
f 217/67/163 195/119/163 190/67/163
f 222/63/164 191/117/164 194/63/164
f 218/121/165 193/70/165 221/70/165
f 220/123/166 190/67/166 191/117/166
f 183/76/167 178/118/167 200/116/167
f 182/116/168 197/116/168 196/116/168
f 181/116/169 198/116/169 197/116/169
f 196/116/170 183/124/170 182/71/170
f 199/116/171 178/116/171 200/116/171
f 199/116/172 201/116/172 179/116/172
f 198/116/173 202/116/173 203/116/173
f 179/125/174 202/73/174 180/73/174
f 206/80/175 208/126/175 210/79/175
f 187/69/176 207/67/176 186/67/176
f 185/65/177 205/63/177 184/63/177
f 189/75/178 205/77/178 210/75/178
f 187/69/179 209/70/179 208/69/179
f 186/67/180 206/65/180 185/65/180
f 163/65/181 214/67/181 211/123/181
f 171/75/182 212/127/182 169/70/182
f 161/63/183 211/123/183 213/63/183
f 165/67/184 216/69/184 214/67/184
f 161/77/185 215/121/185 171/75/185
f 169/70/186 216/69/186 167/69/186
f 211/123/187 217/67/187 220/123/187
f 215/121/188 221/70/188 212/127/188
f 213/63/189 220/123/189 222/63/189
f 214/67/190 219/120/190 217/67/190
f 215/121/191 222/77/191 218/121/191
f 212/127/192 219/120/192 216/69/192
f 204/116/193 73/116/193 201/116/193
f 203/116/194 77/116/194 79/116/194
f 201/125/195 73/125/195 75/128/195
f 145/82/196 225/96/196 146/96/196
f 146/96/197 226/98/197 147/98/197
f 145/82/198 223/97/198 224/82/198
f 147/98/199 227/85/199 148/85/199
f 248/2/200 26/1/200 25/3/200
f 26/1/201 250/4/201 27/7/201
f 250/4/202 7/6/202 27/7/202
f 250/4/203 231/8/203 233/129/203
f 249/5/204 234/9/204 250/4/204
f 248/2/205 235/10/205 249/5/205
f 230/12/206 248/2/206 232/13/206
f 232/13/207 25/3/207 6/14/207
f 251/15/208 255/16/208 252/18/208
f 252/18/209 256/19/209 253/24/209
f 254/17/210 258/20/210 255/16/210
f 255/16/211 259/22/211 256/19/211
f 230/12/212 251/15/212 236/11/212
f 236/11/213 252/18/213 235/10/213
f 235/10/214 253/24/214 234/9/214
f 253/24/215 231/8/215 234/9/215
f 253/24/216 241/25/216 240/59/216
f 256/19/217 242/26/217 241/25/217
f 259/22/218 229/27/218 242/26/218
f 258/20/219 243/28/219 259/22/219
f 257/21/220 244/29/220 258/20/220
f 228/31/221 257/21/221 237/32/221
f 238/33/222 257/21/222 254/17/222
f 239/23/223 254/17/223 251/15/223
f 261/37/224 45/38/224 262/41/224
f 228/31/225 260/39/225 245/30/225
f 245/30/226 261/37/226 244/29/226
f 244/29/227 262/41/227 243/28/227
f 262/41/228 229/27/228 243/28/228
f 45/38/229 247/42/229 262/41/229
f 246/40/230 43/36/230 260/39/230
f 46/44/231 264/45/231 263/50/231
f 48/46/232 265/47/232 264/45/232
f 6/49/233 263/50/233 232/51/233
f 232/51/234 239/23/234 230/12/234
f 263/50/235 238/33/235 239/23/235
f 264/45/236 237/32/236 238/33/236
f 265/47/237 228/31/237 237/32/237
f 21/53/238 265/47/238 50/48/238
f 266/54/239 55/55/239 53/61/239
f 267/56/240 57/57/240 55/55/240
f 231/8/241 266/54/241 233/60/241
f 233/60/242 53/61/242 7/130/242
f 247/62/243 57/57/243 268/58/243
f 229/27/244 268/58/244 242/26/244
f 241/25/245 268/58/245 267/56/245
f 240/59/246 267/56/246 266/54/246
f 269/63/247 272/64/247 270/97/247
f 271/65/248 274/66/248 272/64/248
f 273/67/249 276/68/249 274/66/249
f 277/70/250 276/68/250 275/69/250
f 278/71/251 280/124/251 274/73/251
f 279/75/252 278/74/252 277/70/252
f 269/77/253 280/76/253 279/75/253
f 271/80/254 277/78/254 273/131/254
f 86/81/255 297/82/255 72/97/255
f 300/84/256 80/85/256 298/98/256
f 79/88/257 289/87/257 285/8/257
f 283/89/258 289/87/258 288/94/258
f 283/89/259 287/90/259 281/91/259
f 71/63/260 287/90/260 81/95/260
f 85/92/261 300/84/261 289/87/261
f 289/87/262 301/93/262 288/94/262
f 288/94/263 299/83/263 287/90/263
f 81/95/264 299/83/264 86/81/264
f 294/96/265 297/82/265 296/96/265
f 293/82/266 72/97/266 297/82/266
f 298/98/267 294/96/267 296/96/267
f 80/85/268 295/98/268 298/98/268
f 284/99/269 297/82/269 282/102/269
f 286/100/270 296/96/270 284/99/270
f 297/82/271 290/101/271 282/102/271
f 300/84/272 286/100/272 292/103/272
f 301/93/273 292/103/273 291/104/273
f 290/101/274 301/93/274 291/104/274
f 348/105/275 304/100/275 347/110/275
f 307/103/276 349/106/276 350/107/276
f 352/108/277 302/102/277 351/109/277
f 302/102/278 348/105/278 351/109/278
f 349/106/279 305/101/279 352/108/279
f 304/100/280 350/107/280 347/110/280
f 308/102/281 353/111/281 354/112/281
f 356/113/282 311/101/282 355/115/282
f 358/114/283 313/103/283 357/107/283
f 353/111/284 310/100/284 358/114/284
f 313/103/285 356/113/285 357/107/285
f 311/101/286 354/112/286 355/115/286
f 315/99/287 310/100/287 309/99/287
f 333/103/288 312/104/288 313/103/288
f 317/101/289 308/102/289 311/101/289
f 308/102/290 315/99/290 309/99/290
f 318/104/291 311/101/291 312/104/291
f 310/100/292 319/103/292 313/103/292
f 314/102/293 321/99/293 315/99/293
f 324/104/294 317/101/294 318/104/294
f 322/100/295 319/103/295 316/100/295
f 315/99/296 322/100/296 316/100/296
f 319/103/297 324/104/297 318/104/297
f 317/101/298 320/102/298 314/102/298
f 331/103/299 324/104/299 325/103/299
f 323/101/300 326/102/300 320/102/300
f 326/102/301 321/99/301 320/102/301
f 324/104/302 329/101/302 323/101/302
f 328/100/303 325/103/303 322/100/303
f 321/99/304 328/100/304 322/100/304
f 337/103/305 332/104/305 333/103/305
f 332/104/306 318/104/306 312/104/306
f 334/104/307 319/103/307 318/104/307
f 319/103/308 333/103/308 313/103/308
f 339/103/309 341/103/309 337/103/309
f 335/103/310 337/103/310 333/103/310
f 338/104/311 335/103/311 334/104/311
f 336/104/312 334/104/312 332/104/312
f 341/103/313 342/104/313 340/104/313
f 342/104/314 339/103/314 338/104/314
f 340/104/315 338/104/315 336/104/315
f 341/103/316 336/104/316 337/103/316
f 295/98/317 345/96/317 294/96/317
f 344/82/318 91/97/318 293/82/318
f 148/85/319 295/98/319 95/85/319
f 345/96/320 293/82/320 294/96/320
f 328/100/321 330/104/321 331/103/321
f 327/99/322 329/101/322 330/104/322
f 347/110/323 292/103/323 286/100/323
f 291/104/324 352/108/324 290/101/324
f 282/102/325 348/105/325 284/99/325
f 290/101/326 351/109/326 282/102/326
f 350/107/327 291/104/327 292/103/327
f 348/105/328 286/100/328 284/99/328
f 355/115/329 302/102/329 305/101/329
f 357/107/330 306/104/330 307/103/330
f 303/99/331 358/114/331 304/100/331
f 304/100/332 357/107/332 307/103/332
f 306/104/333 355/115/333 305/101/333
f 354/112/334 303/99/334 302/102/334
f 361/65/335 360/97/335 359/63/335
f 361/65/336 364/66/336 362/64/336
f 363/67/337 366/68/337 364/66/337
f 367/70/338 366/68/338 365/69/338
f 368/74/339 373/68/339 366/68/339
f 416/116/340 359/63/340 360/97/340
f 162/97/341 171/75/341 415/116/341
f 381/65/342 386/67/342 387/117/342
f 177/76/343 379/74/343 374/74/343
f 372/66/344 362/64/344 364/66/344
f 362/64/345 370/97/345 360/97/345
f 373/68/346 364/66/346 366/68/346
f 379/71/347 183/124/347 375/132/347
f 378/68/348 372/66/348 373/68/348
f 371/64/349 375/97/349 370/97/349
f 375/118/350 177/76/350 370/118/350
f 379/74/351 373/68/351 374/74/351
f 377/66/352 371/64/352 372/66/352
f 384/70/353 399/75/353 385/75/353
f 384/70/354 388/75/354 389/70/354
f 380/63/355 387/117/355 390/63/355
f 386/67/356 383/69/356 391/119/356
f 388/75/357 380/77/357 390/122/357
f 383/69/358 389/70/358 391/119/358
f 391/119/359 410/70/359 408/120/359
f 407/121/360 390/122/360 411/77/360
f 406/67/361 391/119/361 408/120/361
f 411/63/362 387/117/362 409/123/362
f 389/70/363 407/121/363 410/70/363
f 409/123/364 386/67/364 406/67/364
f 183/76/365 200/116/365 375/118/365
f 197/116/366 379/116/366 196/116/366
f 198/116/367 378/116/367 197/116/367
f 196/116/368 379/71/368 183/124/368
f 199/116/369 375/116/369 376/116/369
f 392/116/370 199/116/370 376/116/370
f 198/116/371 393/116/371 377/116/371
f 393/73/372 376/125/372 377/73/372
f 399/79/373 397/126/373 395/80/373
f 396/67/374 383/69/374 382/67/374
f 394/63/375 381/65/375 380/63/375
f 385/75/376 394/77/376 380/77/376
f 383/69/377 398/70/377 384/70/377
f 395/65/378 382/67/378 381/65/378
f 361/65/379 403/67/379 363/67/379
f 401/127/380 369/75/380 367/70/380
f 359/63/381 400/123/381 361/65/381
f 363/67/382 405/69/382 365/69/382
f 404/121/383 359/77/383 369/75/383
f 405/69/384 367/70/384 365/69/384
f 400/123/385 406/67/385 403/67/385
f 410/70/386 404/121/386 401/127/386
f 402/63/387 409/123/387 400/123/387
f 403/67/388 408/120/388 405/69/388
f 404/121/389 411/77/389 402/77/389
f 408/120/390 401/127/390 405/69/390
f 281/116/391 204/116/391 392/116/391
f 203/116/392 285/116/392 393/116/392
f 283/128/393 281/125/393 392/125/393
f 413/96/394 344/82/394 345/96/394
f 414/98/395 345/96/395 346/98/395
f 344/82/396 223/97/396 144/97/396
f 227/85/397 346/98/397 148/85/397
f 415/116/398 176/74/398 177/76/398
f 416/116/399 374/74/399 368/74/399
f 172/118/400 415/116/400 177/76/400
f 416/116/401 370/118/401 177/76/401
f 26/1/402 29/5/402 28/2/402
f 26/1/403 27/7/403 30/4/403
f 7/6/404 8/129/404 30/4/404
f 30/4/405 8/129/405 4/8/405
f 29/5/406 30/4/406 9/9/406
f 28/2/407 29/5/407 10/10/407
f 28/2/408 11/11/408 3/12/408
f 25/3/409 28/2/409 5/13/409
f 31/15/410 32/18/410 35/16/410
f 32/18/411 33/24/411 36/19/411
f 34/17/412 35/16/412 38/20/412
f 35/16/413 36/19/413 39/22/413
f 3/12/414 11/11/414 31/15/414
f 11/11/415 10/10/415 32/18/415
f 10/10/416 9/9/416 33/24/416
f 4/8/417 15/59/417 33/24/417
f 33/24/418 15/59/418 16/25/418
f 36/19/419 16/25/419 17/26/419
f 39/22/420 17/26/420 2/27/420
f 38/20/421 39/22/421 18/28/421
f 37/21/422 38/20/422 19/29/422
f 37/21/423 20/30/423 1/31/423
f 13/33/424 34/17/424 37/21/424
f 14/23/425 31/15/425 34/17/425
f 43/36/426 40/39/426 44/34/426
f 40/39/427 41/37/427 44/34/427
f 41/37/428 42/41/428 45/38/428
f 1/31/429 20/30/429 40/39/429
f 20/30/430 19/29/430 41/37/430
f 19/29/431 18/28/431 42/41/431
f 2/27/432 23/42/432 42/41/432
f 23/42/433 24/133/433 45/38/433
f 22/40/434 40/39/434 43/36/434
f 46/44/435 47/50/435 49/45/435
f 48/46/436 49/45/436 51/47/436
f 6/49/437 5/51/437 47/50/437
f 5/51/438 3/12/438 14/23/438
f 47/50/439 14/23/439 13/33/439
f 49/45/440 13/33/440 12/32/440
f 51/47/441 12/32/441 1/31/441
f 51/47/442 22/52/442 21/53/442
f 52/54/443 53/61/443 55/55/443
f 54/56/444 55/55/444 57/57/444
f 4/8/445 8/60/445 52/54/445
f 8/60/446 7/130/446 53/61/446
f 57/57/447 24/134/447 23/62/447
f 56/58/448 23/62/448 2/27/448
f 16/25/449 54/56/449 56/58/449
f 15/59/450 52/54/450 54/56/450
f 59/63/49 60/97/49 62/64/49
f 61/65/50 62/64/50 64/66/50
f 63/67/51 64/66/51 66/68/51
f 66/68/451 68/74/451 67/70/451
f 64/73/53 62/125/53 68/71/53
f 62/125/53 60/135/53 70/124/53
f 68/71/53 62/125/53 70/124/53
f 68/74/54 70/76/54 69/75/54
f 70/76/55 60/118/55 59/77/55
f 69/79/56 59/136/56 61/80/56
f 61/80/56 63/131/56 67/78/56
f 63/131/56 65/126/56 67/78/56
f 86/81/452 72/97/452 97/82/452
f 100/84/453 98/98/453 80/85/453
f 84/87/454 85/92/454 79/88/454
f 75/89/455 83/94/455 84/87/455
f 82/90/456 83/94/456 75/89/456
f 71/63/457 81/95/457 82/90/457
f 100/84/458 90/86/458 85/92/458
f 101/93/459 100/84/459 84/87/459
f 99/83/460 101/93/460 83/94/460
f 81/95/461 86/81/461 99/83/461
f 97/82/462 92/82/462 93/96/462
f 72/97/463 91/97/463 92/82/463
f 98/98/464 96/96/464 93/96/464
f 80/85/465 98/98/465 94/98/465
f 76/99/466 74/102/466 97/82/466
f 78/100/467 76/99/467 96/96/467
f 87/101/468 99/83/468 97/82/468
f 78/100/469 98/98/469 100/84/469
f 89/103/470 100/84/470 101/93/470
f 87/101/471 88/104/471 101/93/471
f 150/105/472 149/110/472 104/100/472
f 151/106/473 106/104/473 107/103/473
f 154/108/474 153/109/474 102/102/474
f 150/105/475 103/99/475 102/102/475
f 151/106/476 154/108/476 105/101/476
f 152/107/477 107/103/477 104/100/477
f 155/111/478 109/99/478 108/102/478
f 158/113/479 157/115/479 111/101/479
f 160/114/480 159/107/480 113/103/480
f 155/111/481 160/114/481 110/100/481
f 158/113/482 112/104/482 113/103/482
f 156/112/483 108/102/483 111/101/483
f 110/100/484 116/100/484 115/99/484
f 112/104/485 132/104/485 133/103/485
f 108/102/486 114/102/486 117/101/486
f 108/102/487 109/99/487 115/99/487
f 111/101/488 117/101/488 118/104/488
f 110/100/489 113/103/489 119/103/489
f 114/102/490 115/99/490 121/99/490
f 117/101/96 123/101/96 124/104/96
f 119/103/491 125/103/491 122/100/491
f 115/99/492 116/100/492 122/100/492
f 119/103/99 118/104/99 124/104/99
f 117/101/493 114/102/493 120/102/493
f 124/104/494 130/104/494 131/103/494
f 123/101/495 120/102/495 126/102/495
f 121/99/496 127/99/496 126/102/496
f 124/104/497 123/101/497 129/101/497
f 125/103/498 131/103/498 128/100/498
f 121/99/499 122/100/499 128/100/499
f 132/104/107 136/104/107 137/103/107
f 118/104/500 134/104/500 132/104/500
f 119/103/501 135/103/501 134/104/501
f 119/103/502 113/103/502 133/103/502
f 139/103/503 137/103/503 141/103/503
f 135/103/112 133/103/112 137/103/112
f 135/103/113 139/103/113 138/104/113
f 134/104/114 138/104/114 136/104/114
f 141/103/504 140/104/504 142/104/504
f 139/103/505 143/103/505 142/104/505
f 138/104/506 142/104/506 140/104/506
f 136/104/507 140/104/507 141/103/507
f 94/98/508 93/96/508 146/96/508
f 91/97/509 144/97/509 145/82/509
f 94/98/510 147/98/510 148/85/510
f 92/82/511 145/82/511 146/96/511
f 128/100/512 131/103/512 130/104/512
f 127/99/513 130/104/513 129/101/513
f 89/103/514 152/107/514 149/110/514
f 88/104/515 87/101/515 154/108/515
f 74/102/516 76/99/516 150/105/516
f 87/101/517 74/102/517 153/109/517
f 88/104/518 151/106/518 152/107/518
f 78/100/519 149/110/519 150/105/519
f 102/102/520 156/112/520 157/115/520
f 106/104/521 158/113/521 159/107/521
f 103/99/522 104/100/522 160/114/522
f 104/100/523 107/103/523 159/107/523
f 106/104/524 105/101/524 157/115/524
f 103/99/525 155/111/525 156/112/525
f 162/97/526 164/64/526 163/65/526
f 163/65/527 164/64/527 166/66/527
f 165/67/528 166/66/528 168/68/528
f 168/68/529 170/74/529 169/70/529
f 170/74/530 168/68/530 175/68/530
f 368/74/531 367/70/531 369/75/531
f 170/74/532 415/116/532 171/75/532
f 190/67/533 186/67/533 185/65/533
f 177/76/534 176/74/534 182/74/534
f 164/64/535 173/64/535 174/66/535
f 164/64/536 162/97/536 172/97/536
f 166/66/537 174/66/537 175/68/537
f 180/73/538 179/125/538 182/71/538
f 179/125/539 178/132/539 182/71/539
f 178/132/540 183/124/540 182/71/540
f 174/66/541 180/66/541 181/68/541
f 173/64/542 172/97/542 178/97/542
f 177/76/543 183/76/543 178/118/543
f 175/68/544 181/68/544 182/74/544
f 173/64/545 179/64/545 180/66/545
f 188/70/546 189/75/546 210/75/546
f 192/75/547 189/75/547 188/70/547
f 191/117/548 185/65/548 184/63/548
f 190/67/549 195/119/549 187/69/549
f 192/75/550 194/122/550 184/77/550
f 193/70/551 188/70/551 187/69/551
f 221/70/552 193/70/552 195/119/552
f 218/121/553 222/77/553 194/122/553
f 217/67/554 219/120/554 195/119/554
f 222/63/555 220/123/555 191/117/555
f 218/121/556 192/75/556 193/70/556
f 220/123/557 217/67/557 190/67/557
f 182/116/558 181/116/558 197/116/558
f 181/116/559 180/116/559 198/116/559
f 199/116/560 179/116/560 178/116/560
f 199/116/561 204/116/561 201/116/561
f 198/116/562 180/116/562 202/116/562
f 179/125/563 201/125/563 202/73/563
f 210/79/564 205/137/564 206/80/564
f 206/80/565 207/131/565 208/126/565
f 208/126/566 209/78/566 210/79/566
f 187/69/567 208/69/567 207/67/567
f 185/65/568 206/65/568 205/63/568
f 189/75/569 184/77/569 205/77/569
f 187/69/570 188/70/570 209/70/570
f 186/67/571 207/67/571 206/65/571
f 163/65/572 165/67/572 214/67/572
f 171/75/573 215/121/573 212/127/573
f 161/63/574 163/65/574 211/123/574
f 165/67/575 167/69/575 216/69/575
f 161/77/576 213/77/576 215/121/576
f 169/70/577 212/127/577 216/69/577
f 211/123/578 214/67/578 217/67/578
f 215/121/579 218/121/579 221/70/579
f 213/63/580 211/123/580 220/123/580
f 214/67/581 216/69/581 219/120/581
f 215/121/582 213/77/582 222/77/582
f 212/127/583 221/70/583 219/120/583
f 204/116/584 71/116/584 73/116/584
f 203/116/585 202/116/585 77/116/585
f 77/73/586 202/73/586 75/128/586
f 202/73/587 201/125/587 75/128/587
f 145/82/588 224/82/588 225/96/588
f 146/96/197 225/96/197 226/98/197
f 145/82/589 144/97/589 223/97/589
f 147/98/590 226/98/590 227/85/590
f 248/2/591 249/5/591 26/1/591
f 26/1/592 249/5/592 250/4/592
f 250/4/593 233/129/593 7/6/593
f 250/4/594 234/9/594 231/8/594
f 249/5/595 235/10/595 234/9/595
f 248/2/596 236/11/596 235/10/596
f 230/12/597 236/11/597 248/2/597
f 232/13/598 248/2/598 25/3/598
f 251/15/599 254/17/599 255/16/599
f 252/18/600 255/16/600 256/19/600
f 254/17/601 257/21/601 258/20/601
f 255/16/602 258/20/602 259/22/602
f 230/12/603 239/23/603 251/15/603
f 236/11/604 251/15/604 252/18/604
f 235/10/605 252/18/605 253/24/605
f 253/24/606 240/59/606 231/8/606
f 253/24/607 256/19/607 241/25/607
f 256/19/608 259/22/608 242/26/608
f 259/22/609 243/28/609 229/27/609
f 258/20/610 244/29/610 243/28/610
f 257/21/611 245/30/611 244/29/611
f 228/31/612 245/30/612 257/21/612
f 238/33/613 237/32/613 257/21/613
f 239/23/614 238/33/614 254/17/614
f 261/37/615 260/39/615 44/34/615
f 260/39/616 43/36/616 44/34/616
f 261/37/617 44/34/617 45/38/617
f 228/31/618 246/40/618 260/39/618
f 245/30/619 260/39/619 261/37/619
f 244/29/620 261/37/620 262/41/620
f 262/41/621 247/42/621 229/27/621
f 45/38/622 24/133/622 247/42/622
f 246/40/623 21/43/623 43/36/623
f 46/44/624 48/46/624 264/45/624
f 48/46/625 50/48/625 265/47/625
f 6/49/626 46/44/626 263/50/626
f 232/51/627 263/50/627 239/23/627
f 263/50/628 264/45/628 238/33/628
f 264/45/629 265/47/629 237/32/629
f 265/47/630 246/52/630 228/31/630
f 21/53/631 246/52/631 265/47/631
f 266/54/632 267/56/632 55/55/632
f 267/56/633 268/58/633 57/57/633
f 231/8/634 240/59/634 266/54/634
f 233/60/635 266/54/635 53/61/635
f 247/62/636 24/134/636 57/57/636
f 229/27/637 247/62/637 268/58/637
f 241/25/638 242/26/638 268/58/638
f 240/59/639 241/25/639 267/56/639
f 269/63/247 271/65/247 272/64/247
f 271/65/248 273/67/248 274/66/248
f 273/67/249 275/69/249 276/68/249
f 277/70/640 278/74/640 276/68/640
f 270/135/251 272/125/251 280/124/251
f 272/125/251 274/73/251 280/124/251
f 274/73/251 276/72/251 278/71/251
f 279/75/252 280/76/252 278/74/252
f 269/77/253 270/118/253 280/76/253
f 271/80/254 269/136/254 279/79/254
f 279/79/254 277/78/254 271/80/254
f 277/78/254 275/126/254 273/131/254
f 86/81/641 299/83/641 297/82/641
f 300/84/642 90/86/642 80/85/642
f 79/88/643 85/92/643 289/87/643
f 283/89/644 285/8/644 289/87/644
f 283/89/645 288/94/645 287/90/645
f 71/63/646 281/91/646 287/90/646
f 85/92/647 90/86/647 300/84/647
f 289/87/648 300/84/648 301/93/648
f 288/94/649 301/93/649 299/83/649
f 81/95/650 287/90/650 299/83/650
f 294/96/651 293/82/651 297/82/651
f 293/82/652 91/97/652 72/97/652
f 298/98/653 295/98/653 294/96/653
f 80/85/654 95/85/654 295/98/654
f 284/99/655 296/96/655 297/82/655
f 286/100/656 298/98/656 296/96/656
f 297/82/657 299/83/657 290/101/657
f 300/84/658 298/98/658 286/100/658
f 301/93/659 300/84/659 292/103/659
f 290/101/660 299/83/660 301/93/660
f 348/105/661 303/99/661 304/100/661
f 307/103/662 306/104/662 349/106/662
f 352/108/663 305/101/663 302/102/663
f 302/102/664 303/99/664 348/105/664
f 349/106/665 306/104/665 305/101/665
f 304/100/666 307/103/666 350/107/666
f 308/102/667 309/99/667 353/111/667
f 356/113/668 312/104/668 311/101/668
f 358/114/669 310/100/669 313/103/669
f 353/111/670 309/99/670 310/100/670
f 313/103/671 312/104/671 356/113/671
f 311/101/672 308/102/672 354/112/672
f 315/99/673 316/100/673 310/100/673
f 333/103/674 332/104/674 312/104/674
f 317/101/675 314/102/675 308/102/675
f 308/102/676 314/102/676 315/99/676
f 318/104/677 317/101/677 311/101/677
f 310/100/678 316/100/678 319/103/678
f 314/102/679 320/102/679 321/99/679
f 324/104/294 323/101/294 317/101/294
f 322/100/680 325/103/680 319/103/680
f 315/99/681 321/99/681 322/100/681
f 319/103/297 325/103/297 324/104/297
f 317/101/682 323/101/682 320/102/682
f 331/103/683 330/104/683 324/104/683
f 323/101/684 329/101/684 326/102/684
f 326/102/685 327/99/685 321/99/685
f 324/104/686 330/104/686 329/101/686
f 328/100/687 331/103/687 325/103/687
f 321/99/688 327/99/688 328/100/688
f 337/103/305 336/104/305 332/104/305
f 332/104/689 334/104/689 318/104/689
f 334/104/690 335/103/690 319/103/690
f 319/103/691 335/103/691 333/103/691
f 339/103/692 343/103/692 341/103/692
f 335/103/310 339/103/310 337/103/310
f 338/104/311 339/103/311 335/103/311
f 336/104/312 338/104/312 334/104/312
f 341/103/693 343/103/693 342/104/693
f 342/104/694 343/103/694 339/103/694
f 340/104/695 342/104/695 338/104/695
f 341/103/696 340/104/696 336/104/696
f 295/98/697 346/98/697 345/96/697
f 344/82/698 144/97/698 91/97/698
f 148/85/699 346/98/699 295/98/699
f 345/96/700 344/82/700 293/82/700
f 328/100/701 327/99/701 330/104/701
f 327/99/702 326/102/702 329/101/702
f 347/110/703 350/107/703 292/103/703
f 291/104/704 349/106/704 352/108/704
f 282/102/705 351/109/705 348/105/705
f 290/101/706 352/108/706 351/109/706
f 350/107/707 349/106/707 291/104/707
f 348/105/708 347/110/708 286/100/708
f 355/115/709 354/112/709 302/102/709
f 357/107/710 356/113/710 306/104/710
f 303/99/711 353/111/711 358/114/711
f 304/100/712 358/114/712 357/107/712
f 306/104/713 356/113/713 355/115/713
f 354/112/714 353/111/714 303/99/714
f 361/65/715 362/64/715 360/97/715
f 361/65/716 363/67/716 364/66/716
f 363/67/717 365/69/717 366/68/717
f 367/70/718 368/74/718 366/68/718
f 368/74/719 374/74/719 373/68/719
f 416/116/720 369/75/720 359/63/720
f 162/97/721 161/63/721 171/75/721
f 381/65/722 382/67/722 386/67/722
f 177/76/723 183/76/723 379/74/723
f 372/66/724 371/64/724 362/64/724
f 362/64/725 371/64/725 370/97/725
f 373/68/726 372/66/726 364/66/726
f 375/132/727 376/125/727 379/71/727
f 376/125/728 377/73/728 379/71/728
f 377/73/729 378/72/729 379/71/729
f 378/68/730 377/66/730 372/66/730
f 371/64/731 376/64/731 375/97/731
f 375/118/732 183/76/732 177/76/732
f 379/74/733 378/68/733 373/68/733
f 377/66/734 376/64/734 371/64/734
f 384/70/735 398/70/735 399/75/735
f 384/70/736 385/75/736 388/75/736
f 380/63/737 381/65/737 387/117/737
f 386/67/738 382/67/738 383/69/738
f 388/75/739 385/75/739 380/77/739
f 383/69/740 384/70/740 389/70/740
f 391/119/741 389/70/741 410/70/741
f 407/121/742 388/75/742 390/122/742
f 406/67/743 386/67/743 391/119/743
f 411/63/744 390/63/744 387/117/744
f 389/70/745 388/75/745 407/121/745
f 409/123/746 387/117/746 386/67/746
f 197/116/747 378/116/747 379/116/747
f 198/116/748 377/116/748 378/116/748
f 199/116/749 200/116/749 375/116/749
f 392/116/750 204/116/750 199/116/750
f 198/116/751 203/116/751 393/116/751
f 393/73/752 392/125/752 376/125/752
f 395/80/753 394/137/753 399/79/753
f 399/79/373 398/78/373 397/126/373
f 397/126/373 396/131/373 395/80/373
f 396/67/754 397/69/754 383/69/754
f 394/63/755 395/65/755 381/65/755
f 385/75/756 399/75/756 394/77/756
f 383/69/757 397/69/757 398/70/757
f 395/65/758 396/67/758 382/67/758
f 361/65/759 400/123/759 403/67/759
f 401/127/760 404/121/760 369/75/760
f 359/63/761 402/63/761 400/123/761
f 363/67/762 403/67/762 405/69/762
f 404/121/763 402/77/763 359/77/763
f 405/69/764 401/127/764 367/70/764
f 400/123/765 409/123/765 406/67/765
f 410/70/766 407/121/766 404/121/766
f 402/63/767 411/63/767 409/123/767
f 403/67/768 406/67/768 408/120/768
f 404/121/769 407/121/769 411/77/769
f 408/120/770 410/70/770 401/127/770
f 281/116/771 71/116/771 204/116/771
f 203/116/772 79/116/772 285/116/772
f 392/125/773 393/73/773 283/128/773
f 393/73/774 285/73/774 283/128/774
f 413/96/775 412/82/775 344/82/775
f 414/98/395 413/96/395 345/96/395
f 344/82/776 412/82/776 223/97/776
f 227/85/777 414/98/777 346/98/777
f 415/116/778 170/74/778 176/74/778
f 416/116/779 177/76/779 374/74/779
f 172/118/780 162/97/780 415/116/780
f 416/116/781 360/97/781 370/118/781
