# Blender 5.0.0
# www.blender.org
o body
v 0.496492 -0.836496 10.404123
v 0.583336 -0.739345 11.675061
v 0.476577 0.278155 10.471381
v 0.565221 0.486406 11.710773
v 0.246627 0.341088 10.375493
v -0.000000 0.369678 10.320811
v -0.000000 0.658669 11.844419
v 0.340386 0.599495 11.799904
v 0.631619 0.554539 11.469440
v 0.646511 0.545035 11.110549
v 0.576865 0.424383 10.738770
v 0.562963 -0.631520 10.318027
v 0.591550 -0.317049 10.289324
v 0.550611 0.022595 10.360420
v 0.654626 0.225672 11.790108
v 0.703310 -0.145583 11.823003
v 0.665741 -0.502555 11.769158
v 0.654036 -0.830153 11.422158
v 0.671875 -0.892060 11.049481
v 0.600616 -0.885222 10.669987
v -0.000000 -0.970372 10.238229
v 0.267098 -0.925011 10.297289
v 0.358752 -0.817453 11.762865
v -0.000000 -0.856363 11.808053
v -0.000000 0.674132 10.692050
v -0.000000 0.858995 11.110745
v -0.000000 0.860968 11.516439
v 0.290903 0.614872 10.718002
v 0.337850 0.778810 11.114021
v 0.344425 0.778266 11.496763
v 0.749642 0.108478 10.698454
v 0.841644 0.194318 11.095876
v 0.811618 0.221481 11.481571
v 0.812126 -0.260919 10.655298
v 0.912852 -0.205322 11.076090
v 0.878665 -0.167071 11.487309
v 0.764291 -0.610046 10.657980
v 0.857600 -0.587271 11.059805
v 0.825386 -0.539852 11.453938
v 0.317045 -1.052687 10.633928
v 0.365526 -1.074153 10.918190
v 0.369003 -0.996871 11.441615
v -0.000000 -1.112858 10.656109
v -0.000000 -1.133464 10.913261
v -0.000000 -1.050111 11.461213
v -0.000000 0.004889 10.054634
v 0.255090 0.002209 10.140133
v -0.000000 -0.369840 9.939221
v 0.272938 -0.355472 10.038370
v -0.000000 -0.709899 10.005116
v 0.266506 -0.681006 10.092802
v 0.373244 0.271111 11.976716
v -0.000000 0.302962 12.040571
v 0.399412 -0.129139 12.029340
v -0.000000 -0.120306 12.099070
v 0.383312 -0.515705 11.957681
v -0.000000 -0.530811 12.022248
v -0.000000 -1.256591 10.724370
v 0.899103 0.129189 11.085220
v 0.964296 0.059744 11.106306
v 0.972883 0.157159 10.902862
v 1.038076 0.087714 10.923947
v 0.910948 0.053346 10.659720
v 0.976141 -0.016099 10.680806
v 0.775233 -0.078438 10.598935
v 0.840426 -0.147883 10.620021
v 0.701452 -0.106409 10.781294
v 0.766645 -0.175854 10.802380
v 0.763387 -0.002595 11.024436
v 0.828580 -0.072040 11.045522
v 0.000000 0.608116 7.467882
v -0.000044 0.617392 9.616213
v 0.504716 0.474077 7.282265
v 0.828071 0.313763 9.230302
v 0.598099 0.170520 7.239963
v 0.958613 0.114090 9.518649
v 0.495931 -0.134126 7.196845
v 0.867393 -0.212452 9.431363
v -0.000000 -0.261991 7.328977
v 0.000030 -0.521974 9.306562
v -0.000000 0.657830 8.100941
v 0.570326 0.495508 8.111068
v 0.766867 0.109808 8.108603
v 0.571986 -0.267495 8.112956
v -0.000000 -0.421472 8.100941
v 0.000202 0.708537 9.183667
v 0.702892 0.384289 8.798613
v 0.718166 0.095109 8.671707
v 0.697600 -0.230385 8.819880
v 0.000466 -0.500636 8.976494
v -0.000000 0.515979 9.787217
v 0.439895 0.402369 9.745209
v 0.633992 0.097047 9.737424
v 0.435181 -0.207848 9.742530
v -0.000000 -0.334730 9.579600
v 0.958182 0.117111 9.529904
v 0.709873 0.413883 9.427953
v 0.738695 -0.263023 9.614699
v 0.613788 0.488561 8.688185
v 0.622393 -0.331303 8.893871
v 0.716172 0.095534 8.659407
v 1.567026 0.222292 7.562136
v 1.658513 0.064660 7.586408
v 1.563204 -0.152658 7.622929
v 1.162995 0.205579 7.405451
v 1.096113 0.042764 7.365727
v 1.160573 -0.170207 7.459780
v 1.943698 -0.166886 6.151571
v 2.009432 -0.306134 6.187971
v 1.942333 -0.456461 6.244506
v 1.637689 -0.189335 6.077878
v 1.584469 -0.336185 6.077180
v 1.636874 -0.479878 6.167374
v 1.969608 -0.123059 6.055276
v 2.059110 -0.299287 6.171355
v 1.988234 -0.571479 6.217470
v 1.815640 -0.173616 5.911776
v 1.786345 -0.357603 5.956888
v 1.815566 -0.664985 6.057398
v 2.243215 -0.175329 5.631471
v 2.300430 -0.431811 5.702378
v 2.242870 -0.735929 5.800002
v 2.082792 -0.293868 5.485843
v 2.053497 -0.477855 5.530955
v 2.082718 -0.785237 5.631465
v 2.183247 -0.418551 5.097228
v 2.194850 -0.602894 5.111485
v 2.184202 -0.807302 5.214602
v 2.093014 -0.472591 5.176591
v 2.066956 -0.580318 5.185830
v 2.093072 -0.792205 5.270756
v 1.575207 -0.442595 5.885180
v 1.607002 -0.562676 5.972758
v 1.770114 -0.446654 5.832339
v 1.791126 -0.708038 5.924484
v 1.628059 -0.550368 5.694204
v 1.654111 -0.648762 5.765966
v 1.787765 -0.553694 5.650907
v 1.804981 -0.767870 5.726410
v 1.703927 -0.663761 5.493732
v 1.714947 -0.732974 5.548234
v 1.821719 -0.658615 5.489326
v 1.831296 -0.810621 5.545568
v -0.000000 0.404502 9.917759
v 0.158780 0.287954 9.889363
v 0.252719 0.101461 9.825843
v 0.182110 -0.006843 9.825843
v -0.000000 -0.116119 9.787815
v 1.512962 -0.165561 7.732346
v 1.608242 0.061754 7.725889
v 1.077435 0.050479 7.426480
v 1.131331 -0.176363 7.519425
v 1.518330 0.226490 7.699900
v 1.134424 0.215398 7.490554
v 1.697568 0.053098 7.464993
v 1.608612 0.206236 7.430125
v 1.197906 0.178411 7.313748
v 1.125999 0.015456 7.297879
v 1.196921 -0.180881 7.411959
v 1.605706 -0.153722 7.529310
v 0.508210 0.652511 4.513934
v 0.519509 0.792846 5.886515
v 0.863355 0.432640 4.495837
v 1.026829 0.544625 6.097029
v 0.863355 0.156082 4.491849
v 1.028275 0.050605 5.999351
v 0.508191 -0.047159 4.490963
v 0.513592 -0.197983 5.861628
v 0.152952 0.168668 4.505063
v 0.144936 0.028036 5.946635
v 0.153066 0.446078 4.517912
v 0.512164 0.865700 6.186492
v 1.018174 0.527757 6.293859
v 1.020134 0.026167 6.189672
v 0.515757 -0.222447 5.978687
v 0.136937 -0.001063 6.049550
v -0.000000 0.732492 6.116869
v 0.418974 0.876884 6.366341
v 0.879472 0.480990 6.742462
v 0.876436 -0.043864 6.637690
v 0.449170 -0.268253 6.308207
v 0.134332 -0.032280 6.189378
v -0.000000 0.811968 6.245101
v 0.430883 0.890668 2.135482
v 0.691277 0.741693 2.115276
v 0.691277 0.443745 2.074862
v 0.430883 0.294749 2.054647
v 0.170489 0.443613 2.074817
v 0.170489 0.741694 2.115276
v 0.822906 0.292673 3.846010
v 0.822906 0.538759 3.867132
v 0.152560 0.496620 3.865307
v 0.152560 0.250582 3.844176
v 0.487733 0.755322 3.916974
v 0.487733 0.028467 4.173578
v -0.000000 -0.076623 6.309933
v -0.000000 -0.245157 6.432552
v -0.000000 -0.277296 6.674000
v 0.000000 0.825438 6.863022
v -0.000000 0.850437 6.517421
v 0.713104 0.434247 7.045089
v 0.709689 -0.092766 6.949144
v -0.000000 -0.231338 7.005286
v 0.000000 0.628045 7.218879
v 0.430883 0.907694 0.500661
v 0.625711 0.798177 0.468244
v 0.625711 0.571224 0.427673
v 0.430883 0.460227 0.408689
v 0.236055 0.572054 0.431217
v 0.236055 0.797943 0.468056
v 0.856043 0.454221 4.381792
v 0.152881 0.185531 4.386114
v 0.504509 0.680061 4.405391
v 0.856043 0.182420 4.375511
v 0.152975 0.462295 4.398267
v 0.504493 -0.032869 4.433771
v 0.847217 0.213392 4.235133
v 0.152864 0.472463 4.256075
v 0.500029 -0.015869 4.364810
v 0.847217 0.477748 4.244446
v 0.152796 0.203904 4.242065
v 0.500040 0.673104 4.273351
v -0.000000 0.330200 10.558661
v 0.182652 0.209765 10.558661
v 0.252719 0.101462 10.558661
v 0.182110 -0.006843 10.558661
v -0.000000 -0.127185 10.503587
v -0.496493 -0.836496 10.404123
v -0.583336 -0.739345 11.675061
v -0.476577 0.278155 10.471381
v -0.565221 0.486406 11.710773
v -0.246627 0.341088 10.375493
v -0.340386 0.599495 11.799904
v -0.631619 0.554539 11.469440
v -0.646511 0.545035 11.110549
v -0.576865 0.424383 10.738770
v -0.562963 -0.631520 10.318027
v -0.591550 -0.317049 10.289324
v -0.550611 0.022595 10.360420
v -0.654626 0.225672 11.790108
v -0.703310 -0.145583 11.823003
v -0.665741 -0.502555 11.769158
v -0.654036 -0.830153 11.422158
v -0.671875 -0.892060 11.049481
v -0.600616 -0.885222 10.669987
v -0.267098 -0.925011 10.297289
v -0.358752 -0.817453 11.762865
v -0.290903 0.614872 10.718002
v -0.337850 0.778810 11.114021
v -0.344425 0.778266 11.496763
v -0.749642 0.108478 10.698454
v -0.841644 0.194318 11.095876
v -0.811618 0.221481 11.481571
v -0.812126 -0.260919 10.655298
v -0.912852 -0.205322 11.076090
v -0.878665 -0.167071 11.487309
v -0.764291 -0.610046 10.657980
v -0.857600 -0.587271 11.059805
v -0.825386 -0.539852 11.453938
v -0.317045 -1.052687 10.633928
v -0.365526 -1.074153 10.918190
v -0.369003 -0.996871 11.441615
v -0.255090 0.002209 10.140133
v -0.272938 -0.355472 10.038370
v -0.266506 -0.681006 10.092802
v -0.373244 0.271111 11.976716
v -0.399412 -0.129139 12.029340
v -0.383312 -0.515705 11.957681
v -0.899103 0.129189 11.085220
v -0.964296 0.059744 11.106306
v -0.972883 0.157159 10.902862
v -1.038076 0.087714 10.923947
v -0.910948 0.053346 10.659720
v -0.976141 -0.016099 10.680806
v -0.775233 -0.078438 10.598935
v -0.840426 -0.147883 10.620021
v -0.701452 -0.106409 10.781294
v -0.766645 -0.175854 10.802380
v -0.763387 -0.002595 11.024436
v -0.828580 -0.072040 11.045522
v -0.504526 0.476275 7.348063
v -0.821508 0.341287 9.238881
v -0.598793 0.169840 7.305360
v -0.956842 0.119688 9.508185
v -0.495657 -0.121482 7.266753
v -0.864292 -0.200013 9.399334
v -0.567564 0.506513 8.114715
v -0.761406 0.131930 8.108793
v -0.569608 -0.256832 8.110408
v -0.688073 0.441119 8.815180
v -0.700641 0.162368 8.667106
v -0.683994 -0.175305 8.792268
v -0.440438 0.399634 9.747980
v -0.634153 0.095641 9.736632
v -0.435483 -0.209444 9.740152
v -0.956580 0.121816 9.519691
v -0.708232 0.420088 9.437995
v -0.738805 -0.263712 9.602883
v -0.606070 0.517677 8.701069
v -0.616918 -0.311473 8.880151
v -0.700297 0.156406 8.655673
v -1.525571 0.389037 7.565799
v -1.616990 0.229223 7.573298
v -1.522035 0.008111 7.583920
v -1.121227 0.387231 7.405736
v -1.054846 0.229089 7.345390
v -1.119093 0.006213 7.417449
v -1.955671 0.227100 6.141952
v -2.021626 0.084173 6.158017
v -1.954195 -0.073731 6.186581
v -1.653189 0.215134 6.052858
v -1.601889 0.070041 6.026142
v -1.652413 -0.086088 6.093964
v -1.984891 0.286140 6.055203
v -2.071844 0.093920 6.144823
v -2.002590 -0.182558 6.143204
v -1.837483 0.258671 5.899092
v -1.808704 0.069630 5.912520
v -1.837705 -0.249821 5.963011
v -2.276002 0.305018 5.640351
v -2.333526 0.040763 5.671079
v -2.275899 -0.275506 5.715623
v -2.123085 0.210780 5.470855
v -2.094306 0.021740 5.484282
v -2.123307 -0.297711 5.534773
v -2.240688 0.151480 5.071715
v -2.254020 -0.032658 5.056378
v -2.241789 -0.251163 5.124461
v -2.148013 0.084739 5.137425
v -2.122957 -0.023209 5.127983
v -2.148287 -0.245922 5.178457
v -1.601714 -0.003813 5.819215
v -1.631456 -0.136341 5.887424
v -1.798629 0.001904 5.774615
v -1.819187 -0.270850 5.823973
v -1.663574 -0.078816 5.615677
v -1.687944 -0.187408 5.671567
v -1.824925 -0.074131 5.579132
v -1.841770 -0.297624 5.619575
v -1.748883 -0.157687 5.402827
v -1.758564 -0.234769 5.445803
v -1.866683 -0.151206 5.404244
v -1.875891 -0.310271 5.435456
v -0.158780 0.287954 9.889363
v -0.252719 0.101461 9.825843
v -0.182110 -0.006843 9.825843
v -1.476500 -0.010480 7.693647
v -1.571574 0.216916 7.706218
v -1.036132 0.230570 7.413424
v -1.091383 -0.003798 7.485175
v -1.481392 0.383435 7.695992
v -1.094139 0.389660 7.491859
v -1.655185 0.230565 7.459180
v -1.565974 0.386936 7.444507
v -1.158824 0.373891 7.312034
v -1.089285 0.214892 7.268492
v -1.157830 0.003008 7.354898
v -1.563155 0.015501 7.489187
v -0.508053 -0.800051 4.835071
v -0.519458 0.419002 5.765459
v -0.866564 -0.952653 4.901777
v -1.031588 0.210841 6.087953
v -0.866564 -1.149644 5.034389
v -1.033048 -0.245926 6.318250
v -0.508034 -1.335465 5.108732
v -0.513485 -0.527233 6.348585
v -0.149427 -1.175592 5.019356
v -0.141336 -0.227601 6.183492
v -0.149542 -0.967087 4.918250
v -0.512044 0.656724 6.030835
v -1.022851 0.344133 6.264641
v -1.024829 -0.134511 6.465383
v -0.515671 -0.458324 6.411905
v -0.133260 -0.160512 6.235684
v -0.417971 0.780414 6.242993
v -0.882834 0.491938 6.786475
v -0.879769 0.011532 6.790247
v -0.448453 -0.330877 6.572102
v -0.130631 -0.086631 6.305069
v -0.429993 0.623164 3.751194
v -0.658826 0.550600 3.640788
v -0.658826 0.405474 3.419977
v -0.429993 0.332911 3.309572
v -0.201160 0.405474 3.419977
v -0.201160 0.550600 3.640788
v -0.825732 -1.054440 4.461915
v -0.825732 -0.906589 4.664327
v -0.149031 -0.933130 4.631032
v -0.149031 -1.083573 4.429007
v -0.487381 -0.801990 4.858093
v -0.487381 -1.470755 4.525928
v -0.714889 0.439353 7.106472
v -0.711441 -0.050928 7.034827
v -0.429993 1.877630 2.690918
v -0.608103 1.842245 2.592997
v -0.608103 1.760957 2.390847
v -0.429993 1.721531 2.295341
v -0.251884 1.757119 2.395735
v -0.251884 1.842278 2.592440
v -0.859182 -1.161012 4.869761
v -0.149356 -1.341437 4.848411
v -0.504316 -0.989654 4.905649
v -0.859182 -1.271740 4.881822
v -0.149450 -1.151013 4.880443
v -0.504300 -1.411732 4.982654
v -0.850273 -1.356323 4.700449
v -0.149338 -1.188900 4.826019
v -0.499794 -1.483550 4.825940
v -0.850273 -1.188922 4.828061
v -0.149269 -1.365298 4.701909
v -0.499806 -1.055441 4.925269
v -0.182652 0.209765 10.558661
v -0.252719 0.101462 10.558661
v -0.182110 -0.006843 10.558661
v 0.213411 0.550844 5.966885
v -0.199640 0.420159 5.895453
vn 0.2171 0.8930 -0.3943
vn 0.2309 0.9730 -0.0026
vn 0.2282 0.8287 0.5111
vn 0.5934 0.7171 0.3657
vn 0.6038 0.7971 0.0039
vn 0.5368 0.7678 -0.3497
vn 0.4335 0.6757 -0.5962
vn 0.2244 0.7535 -0.6180
vn 0.9488 0.1900 -0.2522
vn 0.9829 0.1719 0.0657
vn 0.9669 -0.1341 -0.2169
vn 0.9843 -0.1466 0.0981
vn 0.7198 0.4412 -0.5359
vn 0.8218 0.4872 -0.2955
vn 0.8739 0.4848 0.0339
vn 0.8176 0.4547 0.3533
vn 0.8793 0.1584 0.4492
vn 0.8717 -0.1659 0.4611
vn 0.7717 -0.4987 0.3948
vn 0.8452 -0.5193 0.1267
vn 0.8441 -0.5094 -0.1677
vn 0.7852 -0.4383 -0.4373
vn 0.8572 -0.1236 -0.4999
vn 0.8229 0.2097 -0.5281
vn 1.0000 -0.0000 -0.0000
vn 0.1564 -0.9765 0.1485
vn 0.4800 -0.7943 -0.3725
vn 0.5169 -0.8425 -0.1518
vn 0.4664 -0.8756 0.1262
vn 0.4808 -0.7739 0.4123
vn 0.1500 -0.8611 0.4857
vn 0.2261 -0.9220 -0.3144
vn 0.3148 0.2794 -0.9071
vn 0.3250 -0.1799 -0.9284
vn 0.2669 0.5681 -0.7785
vn 0.4934 0.5045 -0.7086
vn 0.5804 0.2495 -0.7751
vn 0.6137 -0.1420 -0.7766
vn 0.5175 -0.5489 -0.6564
vn 0.3026 -0.6356 -0.7102
vn 0.1733 0.1395 0.9749
vn 0.1703 -0.1865 0.9676
vn 0.5492 0.4099 0.7283
vn 0.1876 0.4801 0.8569
vn 0.1601 -0.5446 0.8233
vn 0.5064 -0.4648 0.7263
vn 0.5518 -0.1809 0.8141
vn 0.5611 0.1458 0.8148
vn 0.6237 0.6944 0.3588
vn 0.7220 0.5506 -0.4190
vn 0.3616 0.0569 -0.9306
vn -0.6237 -0.6944 -0.3589
vn 0.6532 -0.7421 0.1505
vn -0.7220 -0.5506 0.4190
vn -0.3616 -0.0569 0.9306
vn -0.6532 0.7421 -0.1505
vn 0.3696 0.9281 0.0457
vn 0.2545 -0.9651 -0.0621
vn 0.2069 -0.9656 -0.1577
vn 0.9461 -0.3000 -0.1222
vn 0.9492 0.3036 -0.0830
vn 0.2412 0.9695 -0.0442
vn 0.2606 -0.9607 -0.0953
vn 0.8866 -0.4572 0.0698
vn 0.8891 0.4535 -0.0615
vn 0.2739 0.9617 -0.0090
vn 0.4115 0.5845 0.6993
vn 0.3386 0.8848 0.3202
vn 0.3466 -0.2107 0.9140
vn 0.0287 -0.8244 0.5653
vn 0.7822 0.6086 -0.1334
vn 0.8070 -0.3619 0.4667
vn 0.6017 0.7975 -0.0442
vn 0.7207 -0.6694 -0.1805
vn 0.9772 -0.1360 -0.1631
vn 0.8560 0.2559 -0.4491
vn 0.8880 -0.3368 0.3130
vn -0.8169 -0.3740 -0.4391
vn 0.0030 0.9935 -0.1136
vn 0.8246 0.4937 0.2764
vn -0.8485 0.4254 -0.3149
vn 0.0744 -0.9938 -0.0830
vn 0.8549 0.5135 0.0742
vn -0.8562 0.3123 -0.4115
vn 0.0156 -0.9723 0.2332
vn 0.9074 -0.2909 0.3034
vn -0.8764 -0.4357 -0.2051
vn 0.0144 0.9598 -0.2804
vn 0.2809 0.2254 0.9329
vn -0.9516 -0.2016 0.2318
vn -0.0762 0.9970 0.0127
vn 0.6366 0.6229 0.4548
vn -0.4891 0.1813 -0.8532
vn -0.5074 -0.3838 0.7715
vn 0.8143 0.3162 0.4867
vn -0.8466 0.0043 -0.5322
vn 0.1017 -0.9029 0.4177
vn 0.8868 -0.0196 0.4618
vn -0.8520 -0.2341 -0.4683
vn -0.2676 0.8703 -0.4136
vn -0.9943 -0.1032 -0.0265
vn -0.6967 0.6109 -0.3761
vn 0.9689 0.1653 -0.1840
vn -0.9686 0.2253 -0.1047
vn 0.1958 -0.9756 0.0993
vn 0.9826 -0.1219 -0.1403
vn -0.9460 -0.3127 -0.0853
vn -0.1880 0.8629 -0.4691
vn 0.9865 0.0419 -0.1585
vn -0.5229 -0.7780 0.3482
vn -0.5495 -0.8274 0.1156
vn -0.5744 -0.7939 0.1996
vn 0.9947 0.0944 0.0411
vn -0.1214 0.8497 -0.5131
vn -0.2540 -0.3497 -0.9018
vn 0.9842 0.1237 0.1265
vn -0.1244 0.8427 -0.5238
vn -0.9314 -0.3404 -0.1286
vn 0.2100 -0.1369 0.9681
vn 0.2131 0.5192 0.8277
vn -0.0698 -0.6880 0.7223
vn 0.2256 0.1188 0.9669
vn -0.5152 -0.3645 -0.7757
vn -0.6230 -0.0992 -0.7759
vn 0.0862 -0.9963 0.0053
vn -0.8742 0.4057 -0.2668
vn 0.8040 0.4916 0.3346
vn 0.0349 0.9926 -0.1166
vn -0.9441 -0.0853 -0.3184
vn 0.8828 -0.3347 0.3297
vn 0.0617 0.9631 -0.2618
vn -0.7592 -0.4411 -0.4786
vn 0.8992 -0.3006 0.3179
vn 0.0558 -0.9978 0.0367
vn -0.7743 0.3902 -0.4981
vn 0.8337 0.5147 0.2000
vn 0.5208 0.8488 -0.0911
vn 0.9941 0.0016 -0.1086
vn 0.4945 -0.8637 -0.0970
vn -0.5197 -0.8494 -0.0914
vn -0.5230 -0.8087 -0.2693
vn 0.9965 0.0689 -0.0467
vn -1.0000 0.0007 -0.0055
vn 0.9972 0.0064 -0.0742
vn -0.9815 -0.1628 0.1009
vn 0.9991 -0.0054 0.0420
vn 0.5388 0.8370 0.0954
vn 0.4676 -0.8635 -0.1891
vn -0.5029 -0.2551 0.8259
vn 0.4528 -0.8910 -0.0324
vn 0.5101 0.8249 0.2437
vn -0.2253 0.9582 -0.1763
vn -0.5218 -0.8304 -0.1951
vn 0.9532 -0.0579 0.2967
vn -0.9992 0.0064 -0.0394
vn -0.9999 0.0009 -0.0100
vn 0.5469 0.8359 0.0461
vn 0.5000 -0.8589 -0.1104
vn -0.5000 0.8583 0.1151
vn -0.4822 -0.8707 -0.0965
vn -0.4841 -0.8587 -0.1680
vn -0.6150 0.7870 0.0491
vn 0.4752 -0.8559 -0.2041
vn 0.5525 0.8162 0.1692
vn -1.0000 0.0002 0.0006
vn 0.9980 0.0054 -0.0634
vn 0.1122 -0.9839 0.1390
vn -0.4693 -0.5195 -0.7140
vn -0.0872 -0.9875 -0.1314
vn -0.6568 -0.0549 -0.7521
vn -0.0369 0.9967 0.0721
vn 0.3830 0.8577 0.3430
vn 0.2001 -0.9705 0.1346
vn 0.8837 -0.0965 0.4580
vn 0.0004 0.1733 -0.9849
vn 0.4998 -0.8618 -0.0866
vn 0.4971 0.8676 0.0090
vn -0.4921 0.8705 0.0101
vn -0.5034 -0.8597 -0.0864
vn 0.9992 0.0054 -0.0396
vn 0.9980 0.0015 -0.0637
vn -1.0000 0.0004 0.0006
vn 0.5397 0.8202 0.1898
vn 0.4822 -0.8474 -0.2222
vn -0.4981 0.8592 0.1168
vn -0.5162 -0.8382 -0.1760
vn 0.9980 0.0022 -0.0637
vn -1.0000 0.0003 0.0006
vn 0.4855 0.8720 -0.0624
vn 0.4799 -0.8499 -0.2177
vn -0.5017 0.8628 0.0621
vn -0.5020 -0.8467 -0.1762
vn 0.2808 0.9559 0.0862
vn 0.2256 -0.9699 -0.0918
vn 0.7553 0.1432 0.6396
vn 0.8931 0.4499 -0.0000
vn 0.8377 -0.5461 -0.0000
vn 0.5488 0.8323 0.0777
vn 0.5165 -0.8562 -0.0132
vn -0.2171 0.8930 -0.3943
vn -0.2332 0.9724 -0.0047
vn -0.2282 0.8287 0.5111
vn -0.5362 0.7239 0.4341
vn -0.6140 0.7893 -0.0094
vn -0.5575 0.7416 -0.3731
vn -0.4335 0.6757 -0.5962
vn -0.2244 0.7535 -0.6180
vn -0.9486 0.1818 -0.2589
vn -0.9832 0.1706 0.0645
vn -0.9679 -0.1309 -0.2144
vn -0.9842 -0.1492 0.0957
vn -0.7191 0.4598 -0.5211
vn -0.8258 0.4724 -0.3080
vn -0.8791 0.4760 0.0239
vn -0.8176 0.4547 0.3533
vn -0.8813 0.1551 0.4463
vn -0.8704 -0.1617 0.4650
vn -0.7756 -0.4470 0.4457
vn -0.8474 -0.5145 0.1312
vn -0.8444 -0.5089 -0.1672
vn -0.7852 -0.4383 -0.4373
vn -0.8583 -0.1214 -0.4987
vn -0.8209 0.2013 -0.5345
vn -0.1488 -0.9784 0.1435
vn -0.5095 -0.7887 -0.3441
vn -0.5440 -0.8308 -0.1171
vn -0.5063 -0.8464 0.1648
vn -0.4808 -0.7739 0.4123
vn -0.1500 -0.8611 0.4857
vn -0.1482 -0.9172 -0.3698
vn -0.3082 0.2745 -0.9109
vn -0.3445 -0.1614 -0.9248
vn -0.2408 0.5577 -0.7943
vn -0.4461 0.4620 -0.7665
vn -0.5707 0.2336 -0.7872
vn -0.6232 -0.1271 -0.7717
vn -0.5828 -0.4680 -0.6643
vn -0.3026 -0.6356 -0.7102
vn -0.1783 0.1347 0.9747
vn -0.1652 -0.1814 0.9694
vn -0.5146 0.4458 0.7324
vn -0.1947 0.4737 0.8589
vn -0.1601 -0.5446 0.8233
vn -0.5064 -0.4648 0.7263
vn -0.5466 -0.1746 0.8190
vn -0.5630 0.1438 0.8139
vn -0.6237 0.6944 0.3588
vn -0.7220 0.5506 -0.4190
vn -0.3616 0.0569 -0.9306
vn 0.6237 -0.6944 -0.3588
vn -0.6532 -0.7421 0.1505
vn 0.7220 -0.5506 0.4190
vn 0.3616 -0.0569 0.9306
vn 0.6532 0.7421 -0.1505
vn -0.3086 0.9308 0.1960
vn -0.3274 -0.9449 0.0072
vn -0.2482 -0.9528 -0.1746
vn -0.8787 -0.4343 -0.1983
vn -0.9483 0.3043 -0.0900
vn -0.2586 0.9630 -0.0756
vn -0.2780 -0.9568 -0.0850
vn -0.8906 -0.4389 0.1192
vn -0.8857 0.4594 -0.0669
vn -0.2672 0.9626 -0.0450
vn -0.4329 0.5550 0.7103
vn -0.3314 0.8785 0.3442
vn -0.5605 -0.1405 0.8161
vn -0.0858 -0.8471 0.5244
vn -0.7409 0.6514 0.1637
vn -0.9503 -0.3015 0.0774
vn -0.5813 0.8137 0.0087
vn -0.7906 -0.5556 -0.2574
vn -0.9987 -0.0506 -0.0036
vn -0.9937 0.0839 -0.0736
vn -0.8746 -0.3822 0.2982
vn 0.8577 -0.3243 -0.3989
vn 0.0056 0.9991 0.0411
vn -0.8304 0.4683 0.3019
vn 0.8493 0.4476 -0.2798
vn -0.0600 -0.9880 -0.1425
vn -0.8447 0.4999 0.1914
vn 0.8075 0.4557 -0.3745
vn -0.0065 -0.9973 0.0730
vn -0.8934 -0.3416 0.2916
vn 0.8608 -0.4045 -0.3090
vn -0.0079 0.9925 -0.1220
vn -0.2403 0.0725 0.9680
vn 0.9576 -0.2421 0.1561
vn 0.0892 0.9812 0.1710
vn -0.2113 0.2049 0.9557
vn 0.4566 0.3147 -0.8322
vn 0.1739 -0.7276 0.6636
vn -0.7710 0.5201 0.3675
vn 0.8244 0.0858 -0.5594
vn -0.0961 -0.9581 0.2697
vn -0.8040 -0.2047 0.5584
vn 0.8294 -0.1599 -0.5353
vn 0.1332 0.9899 -0.0484
vn 0.9911 -0.1033 -0.0845
vn 0.3137 0.9214 -0.2293
vn -0.9734 0.1986 -0.1141
vn 0.9820 0.1405 -0.1265
vn -0.2039 -0.9776 -0.0520
vn -0.9801 -0.1876 -0.0643
vn 0.9378 -0.3002 -0.1744
vn 0.1797 0.9265 -0.3305
vn -0.9914 0.0729 -0.1082
vn 0.5356 -0.8065 0.2506
vn 0.5853 -0.8107 -0.0130
vn 0.5720 -0.8191 0.0441
vn -0.9910 0.0923 0.0974
vn 0.1113 0.9210 -0.3732
vn -0.0371 -0.4831 -0.8748
vn -0.9767 0.1073 0.1859
vn 0.1138 0.9159 -0.3850
vn 0.9212 -0.3204 -0.2209
vn -0.2237 -0.1345 0.9653
vn -0.2107 0.5181 0.8290
vn 0.0684 -0.6881 0.7224
vn -0.2280 0.1091 0.9675
vn 0.4951 -0.2452 -0.8335
vn 0.4612 0.1830 -0.8682
vn -0.1065 -0.9917 -0.0720
vn 0.9485 0.1142 -0.2955
vn -0.6504 0.7136 0.2604
vn -0.2674 0.9533 0.1404
vn 0.9501 -0.0661 -0.3048
vn -0.8906 -0.3547 0.2847
vn -0.0444 0.9914 -0.1233
vn 0.7944 -0.3817 -0.4724
vn -0.8672 -0.3556 0.3486
vn 0.0131 -0.9990 0.0431
vn 0.7894 0.4782 -0.3848
vn -0.8307 0.4878 0.2683
vn -0.3758 0.5600 -0.7384
vn -0.9945 -0.0445 -0.0947
vn -0.4396 -0.7603 0.4782
vn 0.4540 -0.7455 0.4880
vn 0.6544 -0.5003 0.5670
vn 0.3051 0.5796 -0.7557
vn -0.6248 0.7802 -0.0304
vn -0.9956 0.0754 -0.0551
vn 0.9856 -0.1332 0.1045
vn -0.9990 0.0227 0.0386
vn -0.5842 0.6126 -0.5324
vn -0.3815 -0.6320 0.6746
vn -0.0102 0.0681 0.9976
vn -0.3477 -0.6572 0.6687
vn -0.5774 0.7904 -0.2048
vn -0.0471 0.8719 -0.4874
vn 0.6583 -0.5276 0.5369
vn -0.9261 0.1491 0.3465
vn 0.9995 0.0256 -0.0168
vn 0.9996 0.0233 -0.0173
vn -0.5388 0.5302 0.6547
vn -0.4584 -0.4869 -0.7436
vn 0.6101 0.4705 0.6374
vn 0.3828 -0.5249 -0.7602
vn 0.3107 -0.9501 -0.0277
vn 0.3438 0.2248 0.9117
vn -0.3237 -0.9446 -0.0537
vn -0.4005 0.4855 0.7771
vn 1.0000 -0.0001 0.0007
vn -0.9978 0.0398 -0.0523
vn 0.0738 -0.9875 0.1395
vn 0.0750 -0.5867 -0.8063
vn 0.1468 -0.9805 -0.1305
vn 0.0427 -0.0727 -0.9964
vn -0.3612 0.9155 0.1770
vn -0.3584 0.8727 0.3315
vn -0.3149 -0.9488 -0.0256
vn -0.8239 -0.0008 0.5668
vn -0.0007 0.9266 -0.3762
vn -0.4995 -0.5119 -0.6989
vn -0.4973 0.5600 0.6626
vn 0.4973 0.5600 0.6626
vn 0.4995 -0.5112 -0.6994
vn -0.9995 0.0256 -0.0168
vn -0.9993 -0.0212 -0.0314
vn 1.0000 0.0005 -0.0001
vn -0.2381 0.1393 -0.9612
vn -0.4833 -0.7553 0.4426
vn 0.3058 0.1918 -0.9326
vn 0.4545 -0.7561 0.4709
vn -0.9989 -0.0051 -0.0467
vn 1.0000 0.0004 0.0005
vn -0.3084 0.7588 -0.5737
vn -0.4296 -0.8255 0.3660
vn -0.1995 -0.2926 -0.9352
vn 0.3218 -0.8572 0.4021
vn -0.2668 0.9599 0.0856
vn -0.2478 -0.9667 -0.0635
vn -0.7571 0.1441 0.6372
vn -0.8931 0.4499 -0.0000
vn -0.8377 -0.5461 -0.0000
vn -0.5999 0.7948 0.0921
vn -0.5165 -0.8562 -0.0132
vn -0.5958 -0.0376 -0.8022
vn 0.9854 0.0133 -0.1696
vn -0.0481 0.6017 -0.7972
vn 0.0580 0.5524 -0.8315
vn 0.2158 0.8929 -0.3952
vn 0.2332 0.9724 -0.0047
vn 0.2114 0.8407 0.4986
vn 0.5362 0.7239 0.4341
vn 0.6140 0.7893 -0.0094
vn 0.5575 0.7416 -0.3731
vn 0.4895 0.6746 -0.5525
vn 0.2088 0.7506 -0.6269
vn 0.9486 0.1818 -0.2589
vn 0.9832 0.1706 0.0645
vn 0.9679 -0.1309 -0.2144
vn 0.9842 -0.1492 0.0957
vn 0.7191 0.4598 -0.5211
vn 0.8258 0.4724 -0.3080
vn 0.8791 0.4760 0.0239
vn 0.8171 0.4050 0.4103
vn 0.8813 0.1551 0.4463
vn 0.8704 -0.1617 0.4650
vn 0.7756 -0.4470 0.4457
vn 0.8474 -0.5145 0.1312
vn 0.8444 -0.5089 -0.1672
vn 0.7820 -0.4824 -0.3947
vn 0.8583 -0.1214 -0.4987
vn 0.8209 0.2013 -0.5345
vn 0.1806 -0.9804 -0.0786
vn 0.1607 -0.9818 -0.1015
vn 0.1488 -0.9784 0.1435
vn 0.5095 -0.7887 -0.3441
vn 0.5440 -0.8308 -0.1171
vn 0.5063 -0.8464 0.1648
vn 0.4448 -0.7758 0.4475
vn 0.1542 -0.8626 0.4818
vn 0.1482 -0.9172 -0.3698
vn 0.3082 0.2745 -0.9109
vn 0.3445 -0.1614 -0.9248
vn 0.2408 0.5577 -0.7943
vn 0.4461 0.4620 -0.7665
vn 0.5707 0.2336 -0.7872
vn 0.6232 -0.1271 -0.7717
vn 0.5828 -0.4680 -0.6643
vn 0.2683 -0.6184 -0.7387
vn 0.1783 0.1347 0.9747
vn 0.1652 -0.1814 0.9694
vn 0.5146 0.4458 0.7324
vn 0.1947 0.4737 0.8589
vn 0.1626 -0.5423 0.8243
vn 0.4611 -0.5075 0.7279
vn 0.5466 -0.1746 0.8190
vn 0.5630 0.1438 0.8139
vn -0.6237 -0.6944 -0.3588
vn 0.3178 0.9277 0.1957
vn 0.3161 -0.9479 0.0388
vn 0.2588 -0.9460 -0.1954
vn 0.8695 -0.4514 -0.2005
vn 0.8819 0.4503 -0.1399
vn 0.2742 0.9587 -0.0753
vn 0.2509 -0.9641 -0.0873
vn 0.9628 -0.2572 -0.0832
vn 0.9650 0.2444 0.0952
vn 0.3050 0.9513 -0.0446
vn 0.6838 0.4195 0.5971
vn 0.2614 0.8302 0.4923
vn 0.5403 -0.1264 0.8319
vn 0.0721 -0.8420 0.5347
vn 0.7471 0.6547 0.1151
vn 0.9482 -0.2958 0.1158
vn 0.7792 0.6256 -0.0381
vn 0.3943 -0.9187 0.0234
vn -0.3016 -0.4073 -0.8621
vn 0.9807 0.1197 -0.1548
vn 0.8655 -0.3527 0.3558
vn -0.8990 -0.3732 -0.2290
vn -0.0103 0.9994 -0.0341
vn 0.8041 0.5130 0.3005
vn -0.8443 0.4207 -0.3320
vn 0.0709 -0.9952 -0.0680
vn 0.8909 0.4447 0.0925
vn -0.8187 0.4013 -0.4107
vn -0.0022 -0.9725 0.2328
vn 0.9013 -0.3046 0.3079
vn -0.8734 -0.4441 -0.2001
vn -0.0028 0.9598 -0.2808
vn 0.5228 0.0083 0.8524
vn -0.9778 -0.1599 0.1358
vn -0.5000 0.8310 0.2437
vn 0.2523 0.3545 0.9004
vn -0.6772 -0.0717 -0.7323
vn -0.1502 -0.6081 0.7795
vn 0.7887 0.5631 0.2467
vn 0.0062 -0.9613 0.2753
vn 0.8254 -0.1215 0.5513
vn -0.1293 0.9706 -0.2032
vn -0.9924 -0.1232 -0.0021
vn -0.3176 0.8759 -0.3631
vn 0.9809 0.0471 -0.1889
vn -0.9856 0.1305 -0.1080
vn -0.1546 -0.9879 0.0146
vn 0.9755 -0.2079 -0.0724
vn -0.1361 0.8142 -0.5644
vn 0.9826 0.0137 -0.1851
vn -0.5293 -0.7484 0.3997
vn -0.5900 -0.7947 0.1425
vn -0.0023 -0.6189 -0.7855
vn 0.9873 0.1061 0.1186
vn -0.0570 0.8318 -0.5521
vn -0.9366 -0.2963 -0.1869
vn 0.2226 -0.1290 0.9663
vn 0.5591 0.6305 0.5384
vn 0.0212 -0.3599 0.9327
vn 0.4747 -0.0600 0.8781
vn -0.5309 -0.3708 -0.7620
vn -0.4960 0.0456 -0.8671
vn 0.0433 -0.9987 -0.0270
vn -0.9421 0.0918 -0.3226
vn 0.6476 0.7315 0.2133
vn 0.2843 0.9559 0.0737
vn -0.9132 -0.3202 -0.2520
vn 0.8761 -0.3580 0.3230
vn -0.0303 0.9910 -0.1301
vn -0.8746 -0.4375 -0.2092
vn 0.8637 -0.3123 0.3956
vn -0.0351 -0.9807 0.1922
vn -0.7935 0.4308 -0.4297
vn 0.8226 0.5267 0.2144
vn 0.4731 0.8742 -0.1094
vn 0.9944 0.0233 -0.1032
vn 0.4563 -0.8828 -0.1117
vn -0.5350 -0.8406 -0.0850
vn -0.5427 -0.8241 -0.1622
vn 1.0000 -0.0020 -0.0053
vn -0.9912 0.1286 0.0320
vn 0.9973 0.0099 -0.0733
vn -0.9823 -0.1780 -0.0580
vn 0.9990 -0.0051 0.0435
vn 0.4948 0.8471 -0.1936
vn 0.4711 -0.8772 -0.0925
vn -0.5119 -0.1653 0.8430
vn -0.6123 0.0380 0.7897
vn -0.2614 -0.1049 0.9595
vn 0.4597 -0.8880 0.0086
vn 0.5110 0.8328 0.2130
vn 0.0207 0.8498 -0.5267
vn -0.5302 -0.8186 -0.2209
vn 0.9553 -0.0632 0.2888
vn -0.9992 0.0054 -0.0396
vn -0.9999 0.0014 -0.0101
vn 0.4993 0.8642 0.0626
vn 0.5402 -0.8331 -0.1192
vn -0.6167 0.7832 0.0792
vn -0.4996 -0.8606 -0.0989
vn -0.4779 -0.8725 -0.1021
vn -0.4969 0.8417 0.2113
vn 0.4760 -0.8495 -0.2276
vn 0.4943 0.8626 0.1076
vn -1.0000 -0.0001 0.0008
vn 0.9981 0.0022 -0.0619
vn -0.2308 -0.6654 -0.7099
vn 0.2574 -0.9207 0.2933
vn 0.3809 0.8301 0.4073
vn 0.3353 0.8239 0.4570
vn 0.2568 -0.9664 -0.0142
vn 0.8785 -0.0911 0.4689
vn 0.0003 0.2843 -0.9587
vn -0.0043 0.1760 -0.9844
vn -0.0217 0.1609 -0.9867
vn 0.4995 -0.8620 -0.0867
vn 0.4913 0.8709 0.0103
vn -0.4971 0.8676 0.0090
vn -0.4995 -0.8619 -0.0873
vn 0.9992 0.0070 -0.0392
vn 0.9980 0.0009 -0.0625
vn -1.0000 0.0003 0.0008
vn 0.5268 0.8407 0.1253
vn 0.4824 -0.8420 -0.2416
vn -0.5162 0.8258 0.2272
vn -0.5120 -0.8505 -0.1203
vn 0.9980 0.0014 -0.0624
vn -1.0000 0.0002 0.0008
vn 0.5425 0.8331 0.1079
vn 0.4779 -0.8452 -0.2393
vn -0.5260 0.8500 -0.0270
vn -0.5038 -0.8569 -0.1090
vn 0.2821 0.9563 0.0765
vn 0.1918 -0.9814 0.0016
vn 0.7410 -0.3312 0.5842
vn 0.9032 -0.0825 0.4213
vn 0.8391 0.5429 0.0335
vn 0.5999 0.7948 0.0921
vn 0.5513 -0.8343 -0.0000
vn -0.2158 0.8929 -0.3952
vn -0.2309 0.9730 -0.0026
vn -0.2114 0.8407 0.4986
vn -0.5934 0.7171 0.3657
vn -0.6038 0.7971 0.0039
vn -0.5368 0.7678 -0.3497
vn -0.4895 0.6746 -0.5525
vn -0.2088 0.7506 -0.6269
vn -0.9488 0.1900 -0.2522
vn -0.9829 0.1719 0.0657
vn -0.9669 -0.1341 -0.2169
vn -0.9843 -0.1466 0.0981
vn -0.7198 0.4412 -0.5359
vn -0.8218 0.4872 -0.2955
vn -0.8739 0.4848 0.0339
vn -0.8171 0.4050 0.4103
vn -0.8793 0.1584 0.4492
vn -0.8717 -0.1659 0.4611
vn -0.7717 -0.4987 0.3948
vn -0.8452 -0.5193 0.1267
vn -0.8441 -0.5094 -0.1677
vn -0.7820 -0.4824 -0.3947
vn -0.8572 -0.1236 -0.4999
vn -0.8229 0.2097 -0.5281
vn -0.1607 -0.9818 -0.1015
vn -0.1806 -0.9804 -0.0786
vn -0.1564 -0.9765 0.1485
vn -0.4800 -0.7943 -0.3725
vn -0.5169 -0.8425 -0.1518
vn -0.4664 -0.8756 0.1262
vn -0.4448 -0.7758 0.4475
vn -0.1542 -0.8626 0.4818
vn -0.2261 -0.9220 -0.3144
vn -0.3148 0.2794 -0.9071
vn -0.3250 -0.1799 -0.9284
vn -0.2669 0.5681 -0.7785
vn -0.4934 0.5045 -0.7086
vn -0.5804 0.2495 -0.7751
vn -0.6137 -0.1420 -0.7766
vn -0.5175 -0.5489 -0.6564
vn -0.2683 -0.6184 -0.7387
vn -0.1733 0.1395 0.9749
vn -0.1703 -0.1865 0.9676
vn -0.5492 0.4099 0.7283
vn -0.1876 0.4801 0.8569
vn -0.1626 -0.5423 0.8243
vn -0.4611 -0.5075 0.7279
vn -0.5518 -0.1809 0.8141
vn -0.5611 0.1458 0.8148
vn -0.3530 0.9327 0.0746
vn -0.2835 -0.9570 -0.0622
vn -0.2754 -0.9415 -0.1945
vn -0.9397 -0.3151 -0.1329
vn -0.8763 0.4559 -0.1558
vn -0.2395 0.9692 -0.0579
vn -0.2795 -0.9563 -0.0863
vn -0.9749 -0.2096 -0.0748
vn -0.9660 0.2397 0.0972
vn -0.2583 0.9654 -0.0353
vn -0.6771 0.4087 0.6119
vn -0.2630 0.8298 0.4922
vn -0.3671 -0.2287 0.9016
vn -0.0287 -0.8244 0.5653
vn -0.7778 0.6210 -0.0972
vn -0.8342 -0.3864 0.3934
vn -0.6804 0.7328 0.0027
vn -0.4347 -0.9005 -0.0138
vn 0.4411 -0.3231 -0.8373
vn -0.8587 0.2781 -0.4305
vn -0.8894 -0.3690 0.2697
vn 0.9085 -0.3403 -0.2425
vn -0.0060 0.9996 -0.0263
vn -0.8149 0.4813 0.3230
vn 0.8568 0.4534 -0.2456
vn -0.0557 -0.9908 -0.1236
vn -0.8809 0.4290 0.1998
vn 0.8428 0.3700 -0.3909
vn -0.0182 -0.9971 0.0738
vn -0.8979 -0.3310 0.2901
vn 0.8586 -0.4110 -0.3064
vn 0.0031 0.9924 -0.1227
vn -0.4879 -0.1273 0.8636
vn 0.9804 -0.1855 0.0670
vn 0.5198 0.7775 0.3540
vn -0.6099 0.5444 0.5759
vn 0.6462 0.0442 -0.7619
vn 0.5332 -0.5070 0.6772
vn -0.7900 0.2377 0.5652
vn -0.0072 -0.9932 0.1159
vn -0.8676 -0.0892 0.4892
vn 0.2616 0.9243 -0.2779
vn 0.9899 -0.1270 -0.0636
vn 0.6885 0.6598 -0.3009
vn -0.9870 0.0829 -0.1376
vn 0.9664 0.2337 -0.1072
vn 0.1427 -0.9780 -0.1522
vn -0.9889 -0.0918 -0.1169
vn 0.1234 0.8943 -0.4302
vn -0.9890 0.0494 -0.1392
vn 0.5267 -0.8273 0.1953
vn 0.5433 -0.8384 -0.0431
vn 0.2130 -0.2000 -0.9564
vn -0.9803 0.0912 0.1754
vn 0.0451 0.9101 -0.4119
vn 0.9245 -0.2675 -0.2714
vn -0.2149 -0.1401 0.9665
vn -0.5591 0.6305 0.5384
vn -0.0239 -0.3639 0.9311
vn -0.4680 -0.0645 0.8814
vn 0.4789 -0.2366 -0.8454
vn 0.5899 0.0245 -0.8071
vn -0.0456 -0.9922 -0.1160
vn 0.8797 0.4254 -0.2123
vn -0.8111 0.4614 0.3595
vn -0.0315 0.9991 -0.0292
vn 0.9184 -0.2967 -0.2619
vn -0.8819 -0.3838 0.2739
vn 0.0238 0.9994 -0.0252
vn 0.8601 -0.4048 -0.3105
vn -0.8927 -0.3409 0.2948
vn -0.0494 -0.9972 -0.0564
vn 0.7766 0.4581 -0.4324
vn -0.8220 0.4953 0.2809
vn -0.5955 0.5305 -0.6032
vn -0.9944 -0.0589 -0.0875
vn -0.4803 -0.7357 0.4775
vn 0.6711 -0.5771 0.4653
vn 0.6548 -0.5116 0.5563
vn 0.4189 0.5330 -0.7352
vn -0.5015 0.8611 -0.0839
vn -0.9957 0.0775 -0.0509
vn 0.9868 -0.1378 0.0854
vn -0.9992 0.0189 0.0352
vn -0.6071 0.6485 -0.4592
vn -0.3985 -0.7203 0.5677
vn 0.6571 0.2682 0.7044
vn 0.5445 0.0101 0.8387
vn 0.5513 0.1746 0.8158
vn -0.3605 -0.7800 0.5116
vn -0.5852 0.8077 -0.0718
vn -0.0614 0.8484 -0.5258
vn 0.7081 -0.6665 0.2331
vn -0.9655 -0.0041 0.2602
vn 0.9995 0.0282 -0.0122
vn 0.9996 0.0244 -0.0160
vn -0.4987 0.5357 0.6814
vn -0.5000 -0.4645 -0.7309
vn 0.4999 0.4929 0.7122
vn 0.5000 -0.4738 -0.7250
vn 0.5087 -0.5993 -0.6182
vn 0.6095 0.4802 0.6308
vn -0.4980 -0.5123 -0.6996
vn -0.5373 0.2406 0.8083
vn 1.0000 -0.0008 0.0006
vn -0.9972 0.0609 -0.0445
vn -0.0998 -0.6722 -0.7336
vn -0.1019 -0.6226 0.7758
vn -0.2097 0.9752 0.0705
vn -0.2936 0.8359 0.4637
vn -0.2384 -0.9620 0.1334
vn -0.8880 -0.0726 0.4541
vn -0.0006 0.9408 -0.3389
vn 0.0405 0.9169 -0.3970
vn 0.0053 0.9278 -0.3731
vn -0.4910 -0.5138 -0.7035
vn -0.4811 0.5636 0.6715
vn 0.4826 0.5633 0.6707
vn 0.4972 -0.5118 -0.7007
vn -0.9995 0.0287 -0.0115
vn -0.9909 -0.0146 -0.1337
vn 1.0000 0.0005 0.0002
vn 0.2527 -0.3331 -0.9084
vn -0.4370 -0.7125 0.5490
vn -0.2213 -0.3440 -0.9125
vn 0.3758 -0.6650 0.6454
vn -0.8768 0.2916 -0.3825
vn 1.0000 -0.0021 0.0035
vn 0.3451 -0.2464 -0.9056
vn -0.4302 -0.8260 0.3641
vn 0.1492 0.8117 -0.5647
vn 0.3633 -0.9195 0.1500
vn -0.2691 0.9600 0.0768
vn -0.2610 -0.9610 -0.0910
vn -0.8996 -0.0693 0.4312
vn -0.7380 -0.3386 0.5836
vn -0.8391 0.5429 0.0335
vn -0.5488 0.8323 0.0777
vn -0.5513 -0.8343 -0.0000
vn -0.9905 0.1313 -0.0399
vn 0.8482 -0.1922 -0.4936
vn -0.6393 0.7435 -0.1962
vn 0.2609 0.7154 -0.6482
vt 0.500000 0.375000
vt 0.437500 0.437500
vt 0.437500 0.375000
vt 0.562500 0.437500
vt 0.500000 0.437500
vt 0.625000 0.375000
vt 0.562500 0.375000
vt 0.625000 0.500000
vt 0.562500 0.500000
vt 0.500000 0.500000
vt 0.437500 0.500000
vt 0.375000 0.500000
vt 0.375000 0.437500
vt 0.375000 0.375000
vt 0.437500 0.562500
vt 0.500000 0.625000
vt 0.437500 0.625000
vt 0.500000 0.562500
vt 0.562500 0.625000
vt 0.500000 0.687500
vt 0.437500 0.687500
vt 0.562500 0.687500
vt 0.375000 0.562500
vt 0.562500 0.562500
vt 0.625000 0.625000
vt 0.625000 0.687500
vt 0.625000 0.750000
vt 0.562500 0.750000
vt 0.500000 0.750000
vt 0.437500 0.750000
vt 0.375000 0.750000
vt 0.375000 0.687500
vt 0.375000 0.625000
vt 0.500000 0.875000
vt 0.468750 0.875000
vt 0.437500 0.875000
vt 0.500000 0.812500
vt 0.562500 0.875000
vt 0.437500 0.812500
vt 0.375000 0.812500
vt 0.562500 0.812500
vt 0.625000 0.812500
vt 0.375000 0.875000
vt 0.250000 0.562500
vt 0.312500 0.625000
vt 0.250000 0.625000
vt 0.312500 0.687500
vt 0.250000 0.687500
vt 0.250000 0.500000
vt 0.312500 0.562500
vt 0.312500 0.500000
vt 0.312500 0.750000
vt 0.250000 0.750000
vt 0.687500 0.562500
vt 0.750000 0.625000
vt 0.687500 0.625000
vt 0.750000 0.687500
vt 0.687500 0.687500
vt 0.625000 0.562500
vt 0.687500 0.500000
vt 0.750000 0.562500
vt 0.687500 0.750000
vt 1.000000 0.500000
vt 0.833333 1.000000
vt 0.833333 0.500000
vt 0.666667 1.000000
vt 0.666667 0.500000
vt 0.500000 1.000000
vt 0.500000 0.500000
vt 0.333333 0.500000
vt 0.042154 0.130000
vt 0.250000 0.010000
vt 0.457846 0.130000
vt 0.333333 1.000000
vt 0.166667 0.500000
vt 0.166667 1.000000
vt -0.000000 0.500000
vt 0.542154 0.130000
vt 0.542154 0.370000
vt 0.957846 0.370000
vt 1.000000 0.828637
vt 0.875000 1.000000
vt 0.875000 0.828637
vt 0.625000 0.828637
vt 0.500000 1.000000
vt 0.500000 0.828637
vt 0.625000 0.645722
vt 0.500000 0.500000
vt 0.750000 0.500000
vt 0.875000 0.645722
vt 0.875000 0.500000
vt 0.500000 0.645722
vt 0.750000 0.828637
vt 0.750000 0.645722
vt 1.000000 0.645722
vt 0.750000 1.000000
vt 1.000000 1.000000
vt 0.625000 1.000000
vt 0.749520 0.964446
vt 0.653402 0.965669
vt 0.844587 0.863513
vt 0.844268 0.965118
vt 0.647775 0.863148
vt 0.750840 0.864057
vt 0.749520 0.964446
vt 0.750840 0.864057
vt 0.647775 0.863149
vt 0.844587 0.863513
vt 0.844267 0.965117
vt 0.653402 0.965669
vt 0.749520 0.964446
vt 0.844268 0.965117
vt 0.750840 0.864057
vt 0.653402 0.965669
vt 0.844587 0.863513
vt 0.000000 0.000000
vt 0.833333 0.500000
vt -0.000000 1.000000
vt 0.500000 0.500000
vt 0.500000 0.500000
vt 0.166667 0.500000
vt -0.000000 0.500000
vt 0.833333 0.500000
vt 0.042154 0.370000
vt 0.457846 0.370000
vt 0.750000 0.010000
vt 0.333333 0.500000
vt 0.457846 0.250000
vt 0.625000 0.437500
vt 0.750000 0.500000
vt 0.957846 0.130000
vt 0.250000 0.490000
vt 0.625000 0.875000
vt 0.750000 0.750000
vt 0.250000 0.490000
vt 0.750000 0.490000
vt 0.750000 0.490000
s 0
f 26/1/1 28/2/1 25/3/1
f 26/1/2 30/4/2 29/5/2
f 7/6/3 30/4/3 27/7/3
f 30/4/4 4/8/4 9/9/4
f 29/5/5 9/9/5 10/10/5
f 28/2/6 10/10/6 11/11/6
f 28/2/7 3/12/7 5/13/7
f 25/3/8 5/13/8 6/14/8
f 31/15/9 35/16/9 34/17/9
f 32/18/10 36/19/10 35/16/10
f 34/17/11 38/20/11 37/21/11
f 35/16/12 39/22/12 38/20/12
f 3/12/13 31/15/13 14/23/13
f 11/11/14 32/18/14 31/15/14
f 10/10/15 33/24/15 32/18/15
f 4/8/16 33/24/16 9/9/16
f 33/24/17 16/25/17 36/19/17
f 36/19/18 17/26/18 39/22/18
f 39/22/19 2/27/19 18/28/19
f 38/20/20 18/28/20 19/29/20
f 37/21/21 19/29/21 20/30/21
f 37/21/22 1/31/22 12/32/22
f 13/33/23 37/21/23 12/32/23
f 14/23/24 34/17/24 13/33/24
f 44/34/25 58/35/25 43/36/25
f 41/37/26 45/38/26 44/34/26
f 1/31/27 40/39/27 22/40/27
f 20/30/28 41/37/28 40/39/28
f 19/29/29 42/41/29 41/37/29
f 2/27/30 42/41/30 18/28/30
f 23/42/31 45/38/31 42/41/31
f 22/40/32 43/36/32 21/43/32
f 46/44/33 49/45/33 48/46/33
f 48/46/34 51/47/34 50/48/34
f 6/49/35 47/50/35 46/44/35
f 5/51/36 14/23/36 47/50/36
f 47/50/37 13/33/37 49/45/37
f 49/45/38 12/32/38 51/47/38
f 51/47/39 1/31/39 22/52/39
f 51/47/40 21/53/40 50/48/40
f 52/54/41 55/55/41 54/56/41
f 54/56/42 57/57/42 56/58/42
f 4/8/43 52/54/43 15/59/43
f 8/60/44 53/61/44 52/54/44
f 57/57/45 23/62/45 56/58/45
f 56/58/46 2/27/46 17/26/46
f 16/25/47 56/58/47 17/26/47
f 15/59/48 54/56/48 16/25/48
f 59/63/49 62/64/49 61/65/49
f 61/65/50 64/66/50 63/67/50
f 63/67/51 66/68/51 65/69/51
f 66/68/52 67/70/52 65/69/52
f 68/71/53 66/72/53 64/73/53
f 68/74/54 69/75/54 67/70/54
f 70/76/55 59/77/55 69/75/55
f 67/78/56 69/79/56 61/80/56
f 86/81/57 97/82/57 99/83/57
f 100/84/58 80/85/58 90/86/58
f 84/87/59 79/88/59 77/8/59
f 75/89/60 84/87/60 77/8/60
f 82/90/61 75/89/61 73/91/61
f 71/63/62 82/90/62 73/91/62
f 100/84/63 85/92/63 84/87/63
f 101/93/64 84/87/64 83/94/64
f 99/83/65 83/94/65 82/90/65
f 81/95/66 99/83/66 82/90/66
f 97/82/67 93/96/67 96/96/67
f 72/97/68 92/82/68 97/82/68
f 98/98/69 93/96/69 94/98/69
f 80/85/70 94/98/70 95/85/70
f 76/99/71 97/82/71 96/96/71
f 78/100/72 96/96/72 98/98/72
f 87/101/73 97/82/73 74/102/73
f 78/100/74 100/84/74 89/103/74
f 89/103/75 101/93/75 88/104/75
f 87/101/76 101/93/76 99/83/76
f 150/105/77 104/100/77 103/99/77
f 151/106/78 107/103/78 152/107/78
f 154/108/79 102/102/79 105/101/79
f 150/105/80 102/102/80 153/109/80
f 151/106/81 105/101/81 106/104/81
f 152/107/82 104/100/82 149/110/82
f 155/111/83 108/102/83 156/112/83
f 158/113/84 111/101/84 112/104/84
f 160/114/85 113/103/85 110/100/85
f 155/111/86 110/100/86 109/99/86
f 158/113/87 113/103/87 159/107/87
f 156/112/88 111/101/88 157/115/88
f 110/100/89 115/99/89 109/99/89
f 112/104/90 133/103/90 113/103/90
f 108/102/91 117/101/91 111/101/91
f 108/102/92 115/99/92 114/102/92
f 111/101/93 118/104/93 112/104/93
f 110/100/94 119/103/94 116/100/94
f 114/102/95 121/99/95 120/102/95
f 117/101/96 124/104/96 118/104/96
f 119/103/97 122/100/97 116/100/97
f 115/99/98 122/100/98 121/99/98
f 119/103/99 124/104/99 125/103/99
f 117/101/100 120/102/100 123/101/100
f 124/104/101 131/103/101 125/103/101
f 123/101/102 126/102/102 129/101/102
f 121/99/103 126/102/103 120/102/103
f 124/104/104 129/101/104 130/104/104
f 125/103/105 128/100/105 122/100/105
f 121/99/106 128/100/106 127/99/106
f 132/104/107 137/103/107 133/103/107
f 118/104/108 132/104/108 112/104/108
f 119/103/109 134/104/109 118/104/109
f 119/103/110 133/103/110 135/103/110
f 139/103/111 141/103/111 143/103/111
f 135/103/112 137/103/112 139/103/112
f 135/103/113 138/104/113 134/104/113
f 134/104/114 136/104/114 132/104/114
f 141/103/115 142/104/115 143/103/115
f 139/103/116 142/104/116 138/104/116
f 138/104/117 140/104/117 136/104/117
f 136/104/118 141/103/118 137/103/118
f 94/98/119 146/96/119 147/98/119
f 91/97/120 145/82/120 92/82/120
f 94/98/121 148/85/121 95/85/121
f 92/82/122 146/96/122 93/96/122
f 128/100/123 130/104/123 127/99/123
f 127/99/124 129/101/124 126/102/124
f 89/103/125 149/110/125 78/100/125
f 88/104/126 154/108/126 151/106/126
f 74/102/127 150/105/127 153/109/127
f 87/101/128 153/109/128 154/108/128
f 88/104/129 152/107/129 89/103/129
f 78/100/130 150/105/130 76/99/130
f 102/102/131 157/115/131 105/101/131
f 106/104/132 159/107/132 107/103/132
f 103/99/133 160/114/133 155/111/133
f 104/100/134 159/107/134 160/114/134
f 106/104/135 157/115/135 158/113/135
f 103/99/136 156/112/136 102/102/136
f 162/97/137 163/65/137 161/63/137
f 163/65/138 166/66/138 165/67/138
f 165/67/139 168/68/139 167/69/139
f 168/68/140 169/70/140 167/69/140
f 170/74/141 175/68/141 176/74/141
f 368/74/142 369/75/142 416/116/142
f 170/74/143 171/75/143 169/70/143
f 190/67/144 185/65/144 191/117/144
f 177/76/145 182/74/145 183/76/145
f 164/64/146 174/66/146 166/66/146
f 164/64/147 172/97/147 173/64/147
f 166/66/148 175/68/148 168/68/148
f 182/71/149 181/72/149 180/73/149
f 174/66/150 181/68/150 175/68/150
f 173/64/151 178/97/151 179/64/151
f 177/76/152 178/118/152 172/118/152
f 175/68/153 182/74/153 176/74/153
f 173/64/154 180/66/154 174/66/154
f 188/70/155 210/75/155 209/70/155
f 192/75/156 188/70/156 193/70/156
f 191/117/157 184/63/157 194/63/157
f 190/67/158 187/69/158 186/67/158
f 192/75/159 184/77/159 189/75/159
f 193/70/160 187/69/160 195/119/160
f 221/70/161 195/119/161 219/120/161
f 218/121/162 194/122/162 192/75/162
f 217/67/163 195/119/163 190/67/163
f 222/63/164 191/117/164 194/63/164
f 218/121/165 193/70/165 221/70/165
f 220/123/166 190/67/166 191/117/166
f 183/76/167 178/118/167 200/116/167
f 182/116/168 197/116/168 196/116/168
f 181/116/169 198/116/169 197/116/169
f 196/116/170 183/124/170 182/71/170
f 199/116/171 178/116/171 200/116/171
f 199/116/172 201/116/172 179/116/172
f 198/116/173 202/116/173 203/116/173
f 179/125/174 202/73/174 180/73/174
f 206/80/175 208/126/175 210/79/175
f 187/69/176 207/67/176 186/67/176
f 185/65/177 205/63/177 184/63/177
f 189/75/178 205/77/178 210/75/178
f 187/69/179 209/70/179 208/69/179
f 186/67/180 206/65/180 185/65/180
f 163/65/181 214/67/181 211/123/181
f 171/75/182 212/127/182 169/70/182
f 161/63/183 211/123/183 213/63/183
f 165/67/184 216/69/184 214/67/184
f 161/77/185 215/121/185 171/75/185
f 169/70/186 216/69/186 167/69/186
f 211/123/187 217/67/187 220/123/187
f 215/121/188 221/70/188 212/127/188
f 213/63/189 220/123/189 222/63/189
f 214/67/190 219/120/190 217/67/190
f 215/121/191 222/77/191 218/121/191
f 212/127/192 219/120/192 216/69/192
f 204/116/193 73/116/193 201/116/193
f 203/116/194 77/116/194 79/116/194
f 201/125/195 73/125/195 75/128/195
f 145/82/196 225/96/196 146/96/196
f 146/96/197 226/98/197 147/98/197
f 145/82/198 223/97/198 224/82/198
f 147/98/199 227/85/199 148/85/199
f 248/2/200 26/1/200 25/3/200
f 26/1/201 250/4/201 27/7/201
f 250/4/202 7/6/202 27/7/202
f 250/4/203 231/8/203 233/129/203
f 249/5/204 234/9/204 250/4/204
f 248/2/205 235/10/205 249/5/205
f 230/12/206 248/2/206 232/13/206
f 232/13/207 25/3/207 6/14/207
f 251/15/208 255/16/208 252/18/208
f 252/18/209 256/19/209 253/24/209
f 254/17/210 258/20/210 255/16/210
f 255/16/211 259/22/211 256/19/211
f 230/12/212 251/15/212 236/11/212
f 236/11/213 252/18/213 235/10/213
f 235/10/214 253/24/214 234/9/214
f 253/24/215 231/8/215 234/9/215
f 253/24/216 241/25/216 240/59/216
f 256/19/217 242/26/217 241/25/217
f 259/22/218 229/27/218 242/26/218
f 258/20/219 243/28/219 259/22/219
f 257/21/220 244/29/220 258/20/220
f 228/31/221 257/21/221 237/32/221
f 238/33/222 257/21/222 254/17/222
f 239/23/223 254/17/223 251/15/223
f 261/37/224 45/38/224 262/41/224
f 228/31/225 260/39/225 245/30/225
f 245/30/226 261/37/226 244/29/226
f 244/29/227 262/41/227 243/28/227
f 262/41/228 229/27/228 243/28/228
f 45/38/229 247/42/229 262/41/229
f 246/40/230 43/36/230 260/39/230
f 46/44/231 264/45/231 263/50/231
f 48/46/232 265/47/232 264/45/232
f 6/49/233 263/50/233 232/51/233
f 232/51/234 239/23/234 230/12/234
f 263/50/235 238/33/235 239/23/235
f 264/45/236 237/32/236 238/33/236
f 265/47/237 228/31/237 237/32/237
f 21/53/238 265/47/238 50/48/238
f 266/54/239 55/55/239 53/61/239
f 267/56/240 57/57/240 55/55/240
f 231/8/241 266/54/241 233/60/241
f 233/60/242 53/61/242 7/130/242
f 247/62/243 57/57/243 268/58/243
f 229/27/244 268/58/244 242/26/244
f 241/25/245 268/58/245 267/56/245
f 240/59/246 267/56/246 266/54/246
f 269/63/247 272/64/247 270/97/247
f 271/65/248 274/66/248 272/64/248
f 273/67/249 276/68/249 274/66/249
f 277/70/250 276/68/250 275/69/250
f 278/71/251 280/124/251 274/73/251
f 279/75/252 278/74/252 277/70/252
f 269/77/253 280/76/253 279/75/253
f 271/80/254 277/78/254 273/131/254
f 86/81/255 297/82/255 72/97/255
f 300/84/256 80/85/256 298/98/256
f 79/88/257 289/87/257 285/8/257
f 283/89/258 289/87/258 288/94/258
f 283/89/259 287/90/259 281/91/259
f 71/63/260 287/90/260 81/95/260
f 85/92/261 300/84/261 289/87/261
f 289/87/262 301/93/262 288/94/262
f 288/94/263 299/83/263 287/90/263
f 81/95/264 299/83/264 86/81/264
f 294/96/265 297/82/265 296/96/265
f 293/82/266 72/97/266 297/82/266
f 298/98/267 294/96/267 296/96/267
f 80/85/268 295/98/268 298/98/268
f 284/99/269 297/82/269 282/102/269
f 286/100/270 296/96/270 284/99/270
f 297/82/271 290/101/271 282/102/271
f 300/84/272 286/100/272 292/103/272
f 301/93/273 292/103/273 291/104/273
f 290/101/274 301/93/274 291/104/274
f 348/105/275 304/100/275 347/110/275
f 307/103/276 349/106/276 350/107/276
f 352/108/277 302/102/277 351/109/277
f 302/102/278 348/105/278 351/109/278
f 349/106/279 305/101/279 352/108/279
f 304/100/280 350/107/280 347/110/280
f 308/102/281 353/111/281 354/112/281
f 356/113/282 311/101/282 355/115/282
f 358/114/283 313/103/283 357/107/283
f 353/111/284 310/100/284 358/114/284
f 313/103/285 356/113/285 357/107/285
f 311/101/286 354/112/286 355/115/286
f 315/99/287 310/100/287 309/99/287
f 333/103/288 312/104/288 313/103/288
f 317/101/289 308/102/289 311/101/289
f 308/102/290 315/99/290 309/99/290
f 318/104/291 311/101/291 312/104/291
f 310/100/292 319/103/292 313/103/292
f 314/102/293 321/99/293 315/99/293
f 324/104/294 317/101/294 318/104/294
f 322/100/295 319/103/295 316/100/295
f 315/99/296 322/100/296 316/100/296
f 319/103/297 324/104/297 318/104/297
f 317/101/298 320/102/298 314/102/298
f 331/103/299 324/104/299 325/103/299
f 323/101/300 326/102/300 320/102/300
f 326/102/301 321/99/301 320/102/301
f 324/104/302 329/101/302 323/101/302
f 328/100/303 325/103/303 322/100/303
f 321/99/304 328/100/304 322/100/304
f 337/103/305 332/104/305 333/103/305
f 332/104/306 318/104/306 312/104/306
f 334/104/307 319/103/307 318/104/307
f 319/103/308 333/103/308 313/103/308
f 339/103/309 341/103/309 337/103/309
f 335/103/310 337/103/310 333/103/310
f 338/104/311 335/103/311 334/104/311
f 336/104/312 334/104/312 332/104/312
f 341/103/313 342/104/313 340/104/313
f 342/104/314 339/103/314 338/104/314
f 340/104/315 338/104/315 336/104/315
f 341/103/316 336/104/316 337/103/316
f 295/98/317 345/96/317 294/96/317
f 344/82/318 91/97/318 293/82/318
f 148/85/319 295/98/319 95/85/319
f 345/96/320 293/82/320 294/96/320
f 328/100/321 330/104/321 331/103/321
f 327/99/322 329/101/322 330/104/322
f 347/110/323 292/103/323 286/100/323
f 291/104/324 352/108/324 290/101/324
f 282/102/325 348/105/325 284/99/325
f 290/101/326 351/109/326 282/102/326
f 350/107/327 291/104/327 292/103/327
f 348/105/328 286/100/328 284/99/328
f 355/115/329 302/102/329 305/101/329
f 357/107/330 306/104/330 307/103/330
f 303/99/331 358/114/331 304/100/331
f 304/100/332 357/107/332 307/103/332
f 306/104/333 355/115/333 305/101/333
f 354/112/334 303/99/334 302/102/334
f 361/65/335 360/97/335 359/63/335
f 361/65/336 364/66/336 362/64/336
f 363/67/337 366/68/337 364/66/337
f 367/70/338 366/68/338 365/69/338
f 368/74/339 373/68/339 366/68/339
f 416/116/340 359/63/340 360/97/340
f 162/97/341 171/75/341 415/116/341
f 381/65/342 386/67/342 387/117/342
f 177/76/343 379/74/343 374/74/343
f 372/66/344 362/64/344 364/66/344
f 362/64/345 370/97/345 360/97/345
f 373/68/346 364/66/346 366/68/346
f 379/71/347 183/124/347 375/132/347
f 378/68/348 372/66/348 373/68/348
f 371/64/349 375/97/349 370/97/349
f 375/118/350 177/76/350 370/118/350
f 379/74/351 373/68/351 374/74/351
f 377/66/352 371/64/352 372/66/352
f 384/70/353 399/75/353 385/75/353
f 384/70/354 388/75/354 389/70/354
f 380/63/355 387/117/355 390/63/355
f 386/67/356 383/69/356 391/119/356
f 388/75/357 380/77/357 390/122/357
f 383/69/358 389/70/358 391/119/358
f 391/119/359 410/70/359 408/120/359
f 407/121/360 390/122/360 411/77/360
f 406/67/361 391/119/361 408/120/361
f 411/63/362 387/117/362 409/123/362
f 389/70/363 407/121/363 410/70/363
f 409/123/364 386/67/364 406/67/364
f 183/76/365 200/116/365 375/118/365
f 197/116/366 379/116/366 196/116/366
f 198/116/367 378/116/367 197/116/367
f 196/116/368 379/71/368 183/124/368
f 199/116/369 375/116/369 376/116/369
f 392/116/370 199/116/370 376/116/370
f 198/116/371 393/116/371 377/116/371
f 393/73/372 376/125/372 377/73/372
f 399/79/373 397/126/373 395/80/373
f 396/67/374 383/69/374 382/67/374
f 394/63/375 381/65/375 380/63/375
f 385/75/376 394/77/376 380/77/376
f 383/69/377 398/70/377 384/70/377
f 395/65/378 382/67/378 381/65/378
f 361/65/379 403/67/379 363/67/379
f 401/127/380 369/75/380 367/70/380
f 359/63/381 400/123/381 361/65/381
f 363/67/382 405/69/382 365/69/382
f 404/121/383 359/77/383 369/75/383
f 405/69/384 367/70/384 365/69/384
f 400/123/385 406/67/385 403/67/385
f 410/70/386 404/121/386 401/127/386
f 402/63/387 409/123/387 400/123/387
f 403/67/388 408/120/388 405/69/388
f 404/121/389 411/77/389 402/77/389
f 408/120/390 401/127/390 405/69/390
f 281/116/391 204/116/391 392/116/391
f 203/116/392 285/116/392 393/116/392
f 283/128/393 281/125/393 392/125/393
f 413/96/394 344/82/394 345/96/394
f 414/98/395 345/96/395 346/98/395
f 344/82/396 223/97/396 144/97/396
f 227/85/397 346/98/397 148/85/397
f 415/116/398 176/74/398 177/76/398
f 416/116/399 374/74/399 368/74/399
f 172/118/400 415/116/400 177/76/400
f 416/116/401 370/118/401 177/76/401
f 26/1/402 29/5/402 28/2/402
f 26/1/403 27/7/403 30/4/403
f 7/6/404 8/129/404 30/4/404
f 30/4/405 8/129/405 4/8/405
f 29/5/406 30/4/406 9/9/406
f 28/2/407 29/5/407 10/10/407
f 28/2/408 11/11/408 3/12/408
f 25/3/409 28/2/409 5/13/409
f 31/15/410 32/18/410 35/16/410
f 32/18/411 33/24/411 36/19/411
f 34/17/412 35/16/412 38/20/412
f 35/16/413 36/19/413 39/22/413
f 3/12/414 11/11/414 31/15/414
f 11/11/415 10/10/415 32/18/415
f 10/10/416 9/9/416 33/24/416
f 4/8/417 15/59/417 33/24/417
f 33/24/418 15/59/418 16/25/418
f 36/19/419 16/25/419 17/26/419
f 39/22/420 17/26/420 2/27/420
f 38/20/421 39/22/421 18/28/421
f 37/21/422 38/20/422 19/29/422
f 37/21/423 20/30/423 1/31/423
f 13/33/424 34/17/424 37/21/424
f 14/23/425 31/15/425 34/17/425
f 43/36/426 40/39/426 44/34/426
f 40/39/427 41/37/427 44/34/427
f 41/37/428 42/41/428 45/38/428
f 1/31/429 20/30/429 40/39/429
f 20/30/430 19/29/430 41/37/430
f 19/29/431 18/28/431 42/41/431
f 2/27/432 23/42/432 42/41/432
f 23/42/433 24/133/433 45/38/433
f 22/40/434 40/39/434 43/36/434
f 46/44/435 47/50/435 49/45/435
f 48/46/436 49/45/436 51/47/436
f 6/49/437 5/51/437 47/50/437
f 5/51/438 3/12/438 14/23/438
f 47/50/439 14/23/439 13/33/439
f 49/45/440 13/33/440 12/32/440
f 51/47/441 12/32/441 1/31/441
f 51/47/442 22/52/442 21/53/442
f 52/54/443 53/61/443 55/55/443
f 54/56/444 55/55/444 57/57/444
f 4/8/445 8/60/445 52/54/445
f 8/60/446 7/130/446 53/61/446
f 57/57/447 24/134/447 23/62/447
f 56/58/448 23/62/448 2/27/448
f 16/25/449 54/56/449 56/58/449
f 15/59/450 52/54/450 54/56/450
f 59/63/49 60/97/49 62/64/49
f 61/65/50 62/64/50 64/66/50
f 63/67/51 64/66/51 66/68/51
f 66/68/451 68/74/451 67/70/451
f 64/73/53 62/125/53 68/71/53
f 62/125/53 60/135/53 70/124/53
f 68/71/53 62/125/53 70/124/53
f 68/74/54 70/76/54 69/75/54
f 70/76/55 60/118/55 59/77/55
f 69/79/56 59/136/56 61/80/56
f 61/80/56 63/131/56 67/78/56
f 63/131/56 65/126/56 67/78/56
f 86/81/452 72/97/452 97/82/452
f 100/84/453 98/98/453 80/85/453
f 84/87/454 85/92/454 79/88/454
f 75/89/455 83/94/455 84/87/455
f 82/90/456 83/94/456 75/89/456
f 71/63/457 81/95/457 82/90/457
f 100/84/458 90/86/458 85/92/458
f 101/93/459 100/84/459 84/87/459
f 99/83/460 101/93/460 83/94/460
f 81/95/461 86/81/461 99/83/461
f 97/82/462 92/82/462 93/96/462
f 72/97/463 91/97/463 92/82/463
f 98/98/464 96/96/464 93/96/464
f 80/85/465 98/98/465 94/98/465
f 76/99/466 74/102/466 97/82/466
f 78/100/467 76/99/467 96/96/467
f 87/101/468 99/83/468 97/82/468
f 78/100/469 98/98/469 100/84/469
f 89/103/470 100/84/470 101/93/470
f 87/101/471 88/104/471 101/93/471
f 150/105/472 149/110/472 104/100/472
f 151/106/473 106/104/473 107/103/473
f 154/108/474 153/109/474 102/102/474
f 150/105/475 103/99/475 102/102/475
f 151/106/476 154/108/476 105/101/476
f 152/107/477 107/103/477 104/100/477
f 155/111/478 109/99/478 108/102/478
f 158/113/479 157/115/479 111/101/479
f 160/114/480 159/107/480 113/103/480
f 155/111/481 160/114/481 110/100/481
f 158/113/482 112/104/482 113/103/482
f 156/112/483 108/102/483 111/101/483
f 110/100/484 116/100/484 115/99/484
f 112/104/485 132/104/485 133/103/485
f 108/102/486 114/102/486 117/101/486
f 108/102/487 109/99/487 115/99/487
f 111/101/488 117/101/488 118/104/488
f 110/100/489 113/103/489 119/103/489
f 114/102/490 115/99/490 121/99/490
f 117/101/96 123/101/96 124/104/96
f 119/103/491 125/103/491 122/100/491
f 115/99/492 116/100/492 122/100/492
f 119/103/99 118/104/99 124/104/99
f 117/101/493 114/102/493 120/102/493
f 124/104/494 130/104/494 131/103/494
f 123/101/495 120/102/495 126/102/495
f 121/99/496 127/99/496 126/102/496
f 124/104/497 123/101/497 129/101/497
f 125/103/498 131/103/498 128/100/498
f 121/99/499 122/100/499 128/100/499
f 132/104/107 136/104/107 137/103/107
f 118/104/500 134/104/500 132/104/500
f 119/103/501 135/103/501 134/104/501
f 119/103/502 113/103/502 133/103/502
f 139/103/503 137/103/503 141/103/503
f 135/103/112 133/103/112 137/103/112
f 135/103/113 139/103/113 138/104/113
f 134/104/114 138/104/114 136/104/114
f 141/103/504 140/104/504 142/104/504
f 139/103/505 143/103/505 142/104/505
f 138/104/506 142/104/506 140/104/506
f 136/104/507 140/104/507 141/103/507
f 94/98/508 93/96/508 146/96/508
f 91/97/509 144/97/509 145/82/509
f 94/98/510 147/98/510 148/85/510
f 92/82/511 145/82/511 146/96/511
f 128/100/512 131/103/512 130/104/512
f 127/99/513 130/104/513 129/101/513
f 89/103/514 152/107/514 149/110/514
f 88/104/515 87/101/515 154/108/515
f 74/102/516 76/99/516 150/105/516
f 87/101/517 74/102/517 153/109/517
f 88/104/518 151/106/518 152/107/518
f 78/100/519 149/110/519 150/105/519
f 102/102/520 156/112/520 157/115/520
f 106/104/521 158/113/521 159/107/521
f 103/99/522 104/100/522 160/114/522
f 104/100/523 107/103/523 159/107/523
f 106/104/524 105/101/524 157/115/524
f 103/99/525 155/111/525 156/112/525
f 162/97/526 164/64/526 163/65/526
f 163/65/527 164/64/527 166/66/527
f 165/67/528 166/66/528 168/68/528
f 168/68/529 170/74/529 169/70/529
f 170/74/530 168/68/530 175/68/530
f 368/74/531 367/70/531 369/75/531
f 170/74/532 415/116/532 171/75/532
f 190/67/533 186/67/533 185/65/533
f 177/76/534 176/74/534 182/74/534
f 164/64/535 173/64/535 174/66/535
f 164/64/536 162/97/536 172/97/536
f 166/66/537 174/66/537 175/68/537
f 180/73/538 179/125/538 182/71/538
f 179/125/539 178/132/539 182/71/539
f 178/132/540 183/124/540 182/71/540
f 174/66/541 180/66/541 181/68/541
f 173/64/542 172/97/542 178/97/542
f 177/76/543 183/76/543 178/118/543
f 175/68/544 181/68/544 182/74/544
f 173/64/545 179/64/545 180/66/545
f 188/70/546 189/75/546 210/75/546
f 192/75/547 189/75/547 188/70/547
f 191/117/548 185/65/548 184/63/548
f 190/67/549 195/119/549 187/69/549
f 192/75/550 194/122/550 184/77/550
f 193/70/551 188/70/551 187/69/551
f 221/70/552 193/70/552 195/119/552
f 218/121/553 222/77/553 194/122/553
f 217/67/554 219/120/554 195/119/554
f 222/63/555 220/123/555 191/117/555
f 218/121/556 192/75/556 193/70/556
f 220/123/557 217/67/557 190/67/557
f 182/116/558 181/116/558 197/116/558
f 181/116/559 180/116/559 198/116/559
f 199/116/560 179/116/560 178/116/560
f 199/116/561 204/116/561 201/116/561
f 198/116/562 180/116/562 202/116/562
f 179/125/563 201/125/563 202/73/563
f 210/79/564 205/137/564 206/80/564
f 206/80/565 207/131/565 208/126/565
f 208/126/566 209/78/566 210/79/566
f 187/69/567 208/69/567 207/67/567
f 185/65/568 206/65/568 205/63/568
f 189/75/569 184/77/569 205/77/569
f 187/69/570 188/70/570 209/70/570
f 186/67/571 207/67/571 206/65/571
f 163/65/572 165/67/572 214/67/572
f 171/75/573 215/121/573 212/127/573
f 161/63/574 163/65/574 211/123/574
f 165/67/575 167/69/575 216/69/575
f 161/77/576 213/77/576 215/121/576
f 169/70/577 212/127/577 216/69/577
f 211/123/578 214/67/578 217/67/578
f 215/121/579 218/121/579 221/70/579
f 213/63/580 211/123/580 220/123/580
f 214/67/581 216/69/581 219/120/581
f 215/121/582 213/77/582 222/77/582
f 212/127/583 221/70/583 219/120/583
f 204/116/584 71/116/584 73/116/584
f 203/116/585 202/116/585 77/116/585
f 77/73/586 202/73/586 75/128/586
f 202/73/587 201/125/587 75/128/587
f 145/82/588 224/82/588 225/96/588
f 146/96/197 225/96/197 226/98/197
f 145/82/589 144/97/589 223/97/589
f 147/98/590 226/98/590 227/85/590
f 248/2/591 249/5/591 26/1/591
f 26/1/592 249/5/592 250/4/592
f 250/4/593 233/129/593 7/6/593
f 250/4/594 234/9/594 231/8/594
f 249/5/595 235/10/595 234/9/595
f 248/2/596 236/11/596 235/10/596
f 230/12/597 236/11/597 248/2/597
f 232/13/598 248/2/598 25/3/598
f 251/15/599 254/17/599 255/16/599
f 252/18/600 255/16/600 256/19/600
f 254/17/601 257/21/601 258/20/601
f 255/16/602 258/20/602 259/22/602
f 230/12/603 239/23/603 251/15/603
f 236/11/604 251/15/604 252/18/604
f 235/10/605 252/18/605 253/24/605
f 253/24/606 240/59/606 231/8/606
f 253/24/607 256/19/607 241/25/607
f 256/19/608 259/22/608 242/26/608
f 259/22/609 243/28/609 229/27/609
f 258/20/610 244/29/610 243/28/610
f 257/21/611 245/30/611 244/29/611
f 228/31/612 245/30/612 257/21/612
f 238/33/613 237/32/613 257/21/613
f 239/23/614 238/33/614 254/17/614
f 261/37/615 260/39/615 44/34/615
f 260/39/616 43/36/616 44/34/616
f 261/37/617 44/34/617 45/38/617
f 228/31/618 246/40/618 260/39/618
f 245/30/619 260/39/619 261/37/619
f 244/29/620 261/37/620 262/41/620
f 262/41/621 247/42/621 229/27/621
f 45/38/622 24/133/622 247/42/622
f 246/40/623 21/43/623 43/36/623
f 46/44/624 48/46/624 264/45/624
f 48/46/625 50/48/625 265/47/625
f 6/49/626 46/44/626 263/50/626
f 232/51/627 263/50/627 239/23/627
f 263/50/628 264/45/628 238/33/628
f 264/45/629 265/47/629 237/32/629
f 265/47/630 246/52/630 228/31/630
f 21/53/631 246/52/631 265/47/631
f 266/54/632 267/56/632 55/55/632
f 267/56/633 268/58/633 57/57/633
f 231/8/634 240/59/634 266/54/634
f 233/60/635 266/54/635 53/61/635
f 247/62/636 24/134/636 57/57/636
f 229/27/637 247/62/637 268/58/637
f 241/25/638 242/26/638 268/58/638
f 240/59/639 241/25/639 267/56/639
f 269/63/247 271/65/247 272/64/247
f 271/65/248 273/67/248 274/66/248
f 273/67/249 275/69/249 276/68/249
f 277/70/250 278/74/250 276/68/250
f 270/135/251 272/125/251 280/124/251
f 272/125/251 274/73/251 280/124/251
f 274/73/251 276/72/251 278/71/251
f 279/75/252 280/76/252 278/74/252
f 269/77/253 270/118/253 280/76/253
f 271/80/254 269/136/254 279/79/254
f 279/79/254 277/78/254 271/80/254
f 277/78/254 275/126/254 273/131/254
f 86/81/640 299/83/640 297/82/640
f 300/84/641 90/86/641 80/85/641
f 79/88/642 85/92/642 289/87/642
f 283/89/643 285/8/643 289/87/643
f 283/89/644 288/94/644 287/90/644
f 71/63/645 281/91/645 287/90/645
f 85/92/646 90/86/646 300/84/646
f 289/87/647 300/84/647 301/93/647
f 288/94/648 301/93/648 299/83/648
f 81/95/649 287/90/649 299/83/649
f 294/96/650 293/82/650 297/82/650
f 293/82/651 91/97/651 72/97/651
f 298/98/652 295/98/652 294/96/652
f 80/85/653 95/85/653 295/98/653
f 284/99/654 296/96/654 297/82/654
f 286/100/655 298/98/655 296/96/655
f 297/82/656 299/83/656 290/101/656
f 300/84/657 298/98/657 286/100/657
f 301/93/658 300/84/658 292/103/658
f 290/101/659 299/83/659 301/93/659
f 348/105/660 303/99/660 304/100/660
f 307/103/661 306/104/661 349/106/661
f 352/108/662 305/101/662 302/102/662
f 302/102/663 303/99/663 348/105/663
f 349/106/664 306/104/664 305/101/664
f 304/100/665 307/103/665 350/107/665
f 308/102/666 309/99/666 353/111/666
f 356/113/667 312/104/667 311/101/667
f 358/114/668 310/100/668 313/103/668
f 353/111/669 309/99/669 310/100/669
f 313/103/670 312/104/670 356/113/670
f 311/101/671 308/102/671 354/112/671
f 315/99/672 316/100/672 310/100/672
f 333/103/673 332/104/673 312/104/673
f 317/101/674 314/102/674 308/102/674
f 308/102/675 314/102/675 315/99/675
f 318/104/676 317/101/676 311/101/676
f 310/100/677 316/100/677 319/103/677
f 314/102/678 320/102/678 321/99/678
f 324/104/294 323/101/294 317/101/294
f 322/100/679 325/103/679 319/103/679
f 315/99/680 321/99/680 322/100/680
f 319/103/297 325/103/297 324/104/297
f 317/101/681 323/101/681 320/102/681
f 331/103/682 330/104/682 324/104/682
f 323/101/683 329/101/683 326/102/683
f 326/102/684 327/99/684 321/99/684
f 324/104/685 330/104/685 329/101/685
f 328/100/686 331/103/686 325/103/686
f 321/99/687 327/99/687 328/100/687
f 337/103/305 336/104/305 332/104/305
f 332/104/688 334/104/688 318/104/688
f 334/104/689 335/103/689 319/103/689
f 319/103/690 335/103/690 333/103/690
f 339/103/691 343/103/691 341/103/691
f 335/103/310 339/103/310 337/103/310
f 338/104/311 339/103/311 335/103/311
f 336/104/312 338/104/312 334/104/312
f 341/103/692 343/103/692 342/104/692
f 342/104/693 343/103/693 339/103/693
f 340/104/694 342/104/694 338/104/694
f 341/103/695 340/104/695 336/104/695
f 295/98/696 346/98/696 345/96/696
f 344/82/697 144/97/697 91/97/697
f 148/85/698 346/98/698 295/98/698
f 345/96/699 344/82/699 293/82/699
f 328/100/700 327/99/700 330/104/700
f 327/99/701 326/102/701 329/101/701
f 347/110/702 350/107/702 292/103/702
f 291/104/703 349/106/703 352/108/703
f 282/102/704 351/109/704 348/105/704
f 290/101/705 352/108/705 351/109/705
f 350/107/706 349/106/706 291/104/706
f 348/105/707 347/110/707 286/100/707
f 355/115/708 354/112/708 302/102/708
f 357/107/709 356/113/709 306/104/709
f 303/99/710 353/111/710 358/114/710
f 304/100/711 358/114/711 357/107/711
f 306/104/712 356/113/712 355/115/712
f 354/112/713 353/111/713 303/99/713
f 361/65/714 362/64/714 360/97/714
f 361/65/715 363/67/715 364/66/715
f 363/67/716 365/69/716 366/68/716
f 367/70/717 368/74/717 366/68/717
f 368/74/718 374/74/718 373/68/718
f 416/116/719 369/75/719 359/63/719
f 162/97/720 161/63/720 171/75/720
f 381/65/721 382/67/721 386/67/721
f 177/76/722 183/76/722 379/74/722
f 372/66/723 371/64/723 362/64/723
f 362/64/724 371/64/724 370/97/724
f 373/68/725 372/66/725 364/66/725
f 375/132/726 376/125/726 379/71/726
f 376/125/727 377/73/727 379/71/727
f 377/73/728 378/72/728 379/71/728
f 378/68/729 377/66/729 372/66/729
f 371/64/730 376/64/730 375/97/730
f 375/118/731 183/76/731 177/76/731
f 379/74/732 378/68/732 373/68/732
f 377/66/733 376/64/733 371/64/733
f 384/70/734 398/70/734 399/75/734
f 384/70/735 385/75/735 388/75/735
f 380/63/736 381/65/736 387/117/736
f 386/67/737 382/67/737 383/69/737
f 388/75/738 385/75/738 380/77/738
f 383/69/739 384/70/739 389/70/739
f 391/119/740 389/70/740 410/70/740
f 407/121/741 388/75/741 390/122/741
f 406/67/742 386/67/742 391/119/742
f 411/63/743 390/63/743 387/117/743
f 389/70/744 388/75/744 407/121/744
f 409/123/745 387/117/745 386/67/745
f 197/116/746 378/116/746 379/116/746
f 198/116/747 377/116/747 378/116/747
f 199/116/748 200/116/748 375/116/748
f 392/116/749 204/116/749 199/116/749
f 198/116/750 203/116/750 393/116/750
f 393/73/751 392/125/751 376/125/751
f 395/80/752 394/137/752 399/79/752
f 399/79/753 398/78/753 397/126/753
f 397/126/754 396/131/754 395/80/754
f 396/67/755 397/69/755 383/69/755
f 394/63/756 395/65/756 381/65/756
f 385/75/757 399/75/757 394/77/757
f 383/69/758 397/69/758 398/70/758
f 395/65/759 396/67/759 382/67/759
f 361/65/760 400/123/760 403/67/760
f 401/127/761 404/121/761 369/75/761
f 359/63/762 402/63/762 400/123/762
f 363/67/763 403/67/763 405/69/763
f 404/121/764 402/77/764 359/77/764
f 405/69/765 401/127/765 367/70/765
f 400/123/766 409/123/766 406/67/766
f 410/70/767 407/121/767 404/121/767
f 402/63/768 411/63/768 409/123/768
f 403/67/769 406/67/769 408/120/769
f 404/121/770 407/121/770 411/77/770
f 408/120/771 410/70/771 401/127/771
f 281/116/772 71/116/772 204/116/772
f 203/116/773 79/116/773 285/116/773
f 392/125/774 393/73/774 283/128/774
f 393/73/775 285/73/775 283/128/775
f 413/96/776 412/82/776 344/82/776
f 414/98/395 413/96/395 345/96/395
f 344/82/777 412/82/777 223/97/777
f 227/85/778 414/98/778 346/98/778
f 415/116/779 170/74/779 176/74/779
f 416/116/780 177/76/780 374/74/780
f 172/118/781 162/97/781 415/116/781
f 416/116/782 360/97/782 370/118/782
