# Blender 5.0.0
# www.blender.org
o body
v 0.496492 -0.836496 10.571528
v 0.583336 -0.739345 11.842466
v 0.476577 0.278155 10.638786
v 0.565221 0.486406 11.878179
v 0.246627 0.341088 10.542898
v -0.000000 0.369678 10.488216
v -0.000000 0.658669 12.011824
v 0.340386 0.599495 11.967309
v 0.631619 0.554539 11.636846
v 0.646511 0.545035 11.277954
v 0.576865 0.424383 10.906175
v 0.562963 -0.631520 10.485432
v 0.591550 -0.317049 10.456729
v 0.550611 0.022595 10.527825
v 0.654626 0.225672 11.957513
v 0.703310 -0.145583 11.990408
v 0.665741 -0.502555 11.936563
v 0.654036 -0.830153 11.589563
v 0.671875 -0.892060 11.216887
v 0.600616 -0.885222 10.837392
v -0.000000 -0.970372 10.405634
v 0.267098 -0.925011 10.464694
v 0.358752 -0.817453 11.930270
v -0.000000 -0.856363 11.975458
v -0.000000 0.674132 10.859455
v -0.000000 0.858995 11.278151
v -0.000000 0.860968 11.683845
v 0.290903 0.614872 10.885407
v 0.337850 0.778810 11.281426
v 0.344425 0.778266 11.664168
v 0.749642 0.108478 10.865859
v 0.841644 0.194318 11.263281
v 0.811618 0.221481 11.648976
v 0.812126 -0.260919 10.822703
v 0.912852 -0.205322 11.243495
v 0.878665 -0.167071 11.654715
v 0.764291 -0.610046 10.825385
v 0.857600 -0.587271 11.227210
v 0.825386 -0.539852 11.621344
v 0.317045 -1.052687 10.801333
v 0.365526 -1.074153 11.085595
v 0.369003 -0.996871 11.609020
v -0.000000 -1.112858 10.823514
v -0.000000 -1.133464 11.080667
v -0.000000 -1.050111 11.628618
v -0.000000 0.004889 10.222039
v 0.255090 0.002209 10.307538
v -0.000000 -0.369840 10.106627
v 0.272938 -0.355472 10.205775
v -0.000000 -0.709899 10.172522
v 0.266506 -0.681006 10.260207
v 0.373244 0.271111 12.144121
v -0.000000 0.302962 12.207976
v 0.399412 -0.129139 12.196745
v -0.000000 -0.120306 12.266475
v 0.383312 -0.515705 12.125086
v -0.000000 -0.530811 12.189653
v -0.000000 -1.256591 10.891775
v 0.899103 0.129189 11.252625
v 0.964296 0.059744 11.273711
v 0.972883 0.157159 11.070267
v 1.038076 0.087714 11.091352
v 0.910948 0.053346 10.827126
v 0.976141 -0.016099 10.848211
v 0.775233 -0.078438 10.766340
v 0.840426 -0.147883 10.787426
v 0.701452 -0.106409 10.948699
v 0.766645 -0.175854 10.969785
v 0.763387 -0.002595 11.191841
v 0.828580 -0.072040 11.212927
v 0.000000 0.608116 7.635287
v -0.000047 0.617323 9.783625
v 0.504716 0.474077 7.449670
v 0.828870 0.369074 9.429674
v 0.598099 0.170520 7.407368
v 0.958625 0.124294 9.680786
v 0.495931 -0.120439 7.369224
v 0.866950 -0.185134 9.545453
v -0.000000 -0.261991 7.496382
v 0.000048 -0.521573 9.473705
v -0.000000 0.657830 8.268346
v 0.570583 0.518457 8.285613
v 0.767230 0.156231 8.277438
v 0.572088 -0.244620 8.274722
v -0.000000 -0.421472 8.268346
v 0.000175 0.708537 9.351330
v 0.704310 0.500660 9.011485
v 0.719243 0.234970 8.842040
v 0.697899 -0.113308 8.939967
v 0.000490 -0.499375 9.143517
v -0.000000 0.515979 9.954622
v 0.439916 0.396553 9.917867
v 0.633957 0.094099 9.903759
v 0.435096 -0.210894 9.904835
v -0.000000 -0.334730 9.747005
v 0.958186 0.125440 9.692552
v 0.710272 0.425666 9.620962
v 0.738426 -0.263640 9.760295
v 0.614576 0.548512 8.883728
v 0.622379 -0.288475 9.033785
v 0.717145 0.222270 8.829234
v 1.570147 0.569854 7.773450
v 1.661283 0.410200 7.770028
v 1.565486 0.190055 7.768076
v 1.166315 0.581554 7.615799
v 1.099168 0.428283 7.548280
v 1.163063 0.202054 7.603915
v 1.948130 0.431190 6.317108
v 2.013531 0.287586 6.328798
v 1.946049 0.129865 6.358242
v 1.642186 0.422584 6.240293
v 1.588674 0.278214 6.213997
v 1.640659 0.120905 6.277873
v 1.974270 0.491044 6.229936
v 2.063248 0.297109 6.313682
v 1.991761 0.021203 6.311658
v 1.820413 0.466567 6.079657
v 1.790684 0.277602 6.092037
v 1.819144 -0.042642 6.137567
v 2.248399 0.512698 5.803803
v 2.304996 0.247664 5.829069
v 2.246686 -0.068671 5.872228
v 2.087956 0.421661 5.639595
v 2.058227 0.232696 5.651976
v 2.086686 -0.087548 5.697505
v 2.188737 0.366269 5.235325
v 2.199951 0.182232 5.217307
v 2.188742 -0.036976 5.283274
v 2.098279 0.299446 5.303976
v 2.071991 0.191812 5.294303
v 2.097560 -0.031676 5.341096
v 1.579484 0.206853 6.006402
v 1.610910 0.073295 6.071787
v 1.774461 0.211615 5.953876
v 1.794814 -0.061859 5.999163
v 1.632403 0.133833 5.799646
v 1.658153 0.024396 5.853223
v 1.792166 0.137735 5.756608
v 1.808843 -0.086349 5.793715
v 1.708342 0.056879 5.582587
v 1.719142 -0.020785 5.624228
v 1.826150 0.062452 5.579274
v 1.835340 -0.097042 5.608222
v -0.000000 0.404502 10.085164
v 0.158780 0.287954 10.056768
v 0.252719 0.101461 9.993248
v 0.182110 -0.006843 9.993248
v -0.000000 -0.116119 9.955220
v 1.515057 0.158423 7.873524
v 1.610799 0.383183 7.906820
v 1.080416 0.425352 7.609427
v 1.133721 0.185679 7.661548
v 1.521255 0.550128 7.909789
v 1.137638 0.576481 7.701280
v 1.700495 0.419852 7.648497
v 1.611896 0.576918 7.640706
v 1.201308 0.570678 7.520806
v 1.129100 0.413130 7.476748
v 1.199460 0.199782 7.555007
v 1.608125 0.205200 7.675747
v 0.508210 -0.767635 4.953030
v 0.519509 0.449065 5.920955
v 0.863355 -0.926564 5.017031
v 1.026829 0.184908 6.209471
v 0.863355 -1.129866 5.146269
v 1.028275 -0.268156 6.429310
v 0.508191 -1.316584 5.222032
v 0.513592 -0.538092 6.444746
v 0.152952 -1.152303 5.134858
v 0.144936 -0.209654 6.281230
v 0.153066 -0.930125 5.035473
v 0.512164 0.661660 6.185285
v 1.018175 0.319120 6.385343
v 1.020134 -0.159569 6.577942
v 0.515757 -0.475952 6.519534
v 0.136937 -0.140818 6.333086
v -0.000000 0.802278 6.364915
v 0.418974 0.774103 6.394287
v 0.879472 0.485966 6.895473
v 0.876436 -0.004715 6.900330
v 0.449170 -0.322880 6.708946
v 0.134332 -0.064472 6.401065
v -0.000000 0.848336 6.479379
v 0.430883 0.552613 3.650956
v 0.691277 0.453114 3.538255
v 0.691277 0.254115 3.312852
v 0.430883 0.154595 3.200097
v 0.170489 0.253971 3.312532
v 0.170489 0.453114 3.538255
v 0.822906 -1.018322 4.554099
v 0.822906 -0.845947 4.730993
v 0.152560 -0.876635 4.702058
v 0.152560 -1.052722 4.525796
v 0.487733 -0.716381 4.906236
v 0.487733 -1.427516 4.671809
v -0.000000 -0.035839 6.447825
v -0.000000 -0.225959 6.566816
v -0.000000 -0.277342 6.823306
v 0.000000 0.818441 7.044247
v -0.000000 0.852714 6.723805
v 0.713104 0.436244 7.211137
v 0.709689 -0.054893 7.140200
v -0.000000 -0.236114 7.165528
v 0.000000 0.628045 7.386284
v 0.430883 1.622593 2.416502
v 0.625711 1.572922 2.314811
v 0.625711 1.466591 2.100878
v 0.430883 1.415241 2.000731
v 0.236055 1.461439 2.108467
v 0.236055 1.572871 2.314056
v 0.856043 -1.098014 4.989305
v 0.152881 -1.291586 4.978957
v 0.504508 -0.914784 5.015443
v 0.856043 -1.235700 5.002918
v 0.152974 -1.086763 4.999573
v 0.504492 -1.383887 5.106859
v 0.847217 -1.300199 4.828928
v 0.152864 -1.110663 4.936255
v 0.500029 -1.445827 4.962925
v 0.847217 -1.109592 4.938622
v 0.152795 -1.308066 4.832876
v 0.500040 -0.962283 5.021642
v -0.000000 0.330200 10.726066
v 0.182652 0.209765 10.726066
v 0.252719 0.101462 10.726066
v 0.182110 -0.006843 10.726066
v -0.000000 -0.127185 10.670992
v -0.496493 -0.836496 10.571528
v -0.583336 -0.739345 11.842466
v -0.476577 0.278155 10.638786
v -0.565221 0.486406 11.878179
v -0.246627 0.341088 10.542898
v -0.340386 0.599495 11.967309
v -0.631619 0.554539 11.636846
v -0.646511 0.545035 11.277954
v -0.576865 0.424383 10.906175
v -0.562963 -0.631520 10.485432
v -0.591550 -0.317049 10.456729
v -0.550611 0.022595 10.527825
v -0.654626 0.225672 11.957513
v -0.703310 -0.145583 11.990408
v -0.665741 -0.502555 11.936563
v -0.654036 -0.830153 11.589563
v -0.671875 -0.892060 11.216887
v -0.600616 -0.885222 10.837392
v -0.267098 -0.925011 10.464694
v -0.358752 -0.817453 11.930270
v -0.290903 0.614872 10.885407
v -0.337850 0.778810 11.281426
v -0.344425 0.778266 11.664168
v -0.749642 0.108478 10.865859
v -0.841644 0.194318 11.263281
v -0.811618 0.221481 11.648976
v -0.812126 -0.260919 10.822703
v -0.912852 -0.205322 11.243495
v -0.878665 -0.167071 11.654715
v -0.764291 -0.610046 10.825385
v -0.857600 -0.587271 11.227210
v -0.825386 -0.539852 11.621344
v -0.317045 -1.052687 10.801333
v -0.365526 -1.074153 11.085595
v -0.369003 -0.996871 11.609020
v -0.255090 0.002209 10.307538
v -0.272938 -0.355472 10.205775
v -0.266506 -0.681006 10.260207
v -0.373244 0.271111 12.144121
v -0.399412 -0.129139 12.196745
v -0.383312 -0.515705 12.125086
v -0.899103 0.129189 11.252625
v -0.964296 0.059744 11.273711
v -0.972883 0.157159 11.070267
v -1.038076 0.087714 11.091352
v -0.910948 0.053346 10.827126
v -0.976141 -0.016099 10.848211
v -0.775233 -0.078438 10.766340
v -0.840426 -0.147883 10.787426
v -0.701452 -0.106409 10.948699
v -0.766645 -0.175854 10.969785
v -0.763387 -0.002595 11.191841
v -0.828580 -0.072040 11.212927
v -0.504526 0.476275 7.515468
v -0.822724 0.286971 9.381640
v -0.598793 0.169840 7.472765
v -0.956882 0.108476 9.681968
v -0.495657 -0.141127 7.426396
v -0.863655 -0.222437 9.618321
v -0.567955 0.485181 8.277120
v -0.761964 0.089410 8.278260
v -0.569767 -0.277012 8.284561
v -0.690243 0.330006 8.949485
v -0.702313 0.032607 8.842561
v -0.684489 -0.279655 9.012216
v -0.440466 0.404752 9.909961
v -0.634102 0.098352 9.904762
v -0.435357 -0.206179 9.911916
v -0.956608 0.112310 9.692858
v -0.708826 0.407255 9.582968
v -0.738404 -0.261668 9.790433
v -0.607270 0.460761 8.846729
v -0.616912 -0.348627 9.076131
v -0.701807 0.039025 8.830503
v -1.530357 0.061249 7.723162
v -1.621257 -0.095546 7.756424
v -1.525588 -0.311828 7.802136
v -1.126331 0.034915 7.564455
v -1.059576 -0.130673 7.530090
v -1.122977 -0.339284 7.637121
v -1.962810 -0.328165 6.344796
v -2.028283 -0.466846 6.383741
v -1.960299 -0.617937 6.437094
v -1.660471 -0.353426 6.258023
v -1.608769 -0.500783 6.254795
v -1.658667 -0.644151 6.346907
v -1.992389 -0.283885 6.249774
v -2.078558 -0.459482 6.369281
v -2.008439 -0.732447 6.411854
v -1.845209 -0.335628 6.099724
v -1.815810 -0.519987 6.143226
v -1.843707 -0.827283 6.244371
v -2.284392 -0.332600 5.837991
v -2.341024 -0.588664 5.910848
v -2.282315 -0.893532 6.005397
v -2.131520 -0.452379 5.685423
v -2.102121 -0.636737 5.728926
v -2.130017 -0.944033 5.830071
v -2.249739 -0.575257 5.301256
v -2.262523 -0.759509 5.315684
v -2.249470 -0.964229 5.417902
v -2.156723 -0.630338 5.376589
v -2.131348 -0.738332 5.384520
v -2.155876 -0.950135 5.470125
v -1.608778 -0.606870 6.062393
v -1.637967 -0.726823 6.151049
v -1.805800 -0.608927 6.017944
v -1.825402 -0.870289 6.110460
v -1.670812 -0.713720 5.873674
v -1.694729 -0.812009 5.946318
v -1.832250 -0.715405 5.837253
v -1.848312 -0.929564 5.913059
v -1.756301 -0.825946 5.676443
v -1.765653 -0.895164 5.731249
v -1.874118 -0.819648 5.677096
v -1.882763 -0.971673 5.733438
v -0.158780 0.287954 10.056768
v -0.252719 0.101461 9.993248
v -0.182110 -0.006843 9.993248
v -1.479773 -0.312452 7.913312
v -1.575536 -0.086248 7.889483
v -1.040729 -0.118248 7.596958
v -1.095100 -0.338225 7.705507
v -1.485898 0.076724 7.852457
v -1.099078 0.051202 7.649007
v -1.659686 -0.112632 7.643663
v -1.570997 0.039608 7.603878
v -1.164075 0.006614 7.474199
v -1.094125 -0.157116 7.456551
v -1.161829 -0.352587 7.575993
v -1.566921 -0.319842 7.707547
v -0.508053 0.981573 4.809718
v -0.519458 0.925187 6.215739
v -0.866564 0.766142 4.754690
v -1.031588 0.613333 6.366773
v -0.866564 0.490470 4.704393
v -1.033048 0.138603 6.188991
v -0.508034 0.287903 4.669252
v -0.513485 -0.078756 6.004682
v -0.149427 0.500195 4.719296
v -0.141336 0.140468 6.131654
v -0.149542 0.781578 4.778471
v -0.512044 0.921747 6.504983
v -1.022851 0.560499 6.555517
v -1.024829 0.078455 6.377804
v -0.515671 -0.129152 6.124610
v -0.133260 0.087277 6.235740
v -0.417970 0.900052 6.666704
v -0.882834 0.479095 6.973490
v -0.879769 -0.052625 6.837513
v -0.448454 -0.227043 6.417255
v -0.130631 0.029050 6.378718
v -0.429993 1.612685 2.485748
v -0.658826 1.487248 2.444272
v -0.658826 1.236373 2.361319
v -0.429993 1.110936 2.319843
v -0.201160 1.236373 2.361319
v -0.201160 1.487248 2.444272
v -0.825732 0.739104 4.084603
v -0.825732 0.980688 4.151442
v -0.149031 0.939210 4.141827
v -0.149031 0.697617 4.074988
v -0.487381 1.186697 4.241024
v -0.487381 0.416251 4.361446
v -0.714889 0.434924 7.276230
v -0.711441 -0.104574 7.169244
v -0.429993 1.930678 0.873170
v -0.608102 1.845977 0.813793
v -0.608103 1.665824 0.683686
v -0.429993 1.581464 0.623866
v -0.251883 1.665388 0.692124
v -0.251883 1.845577 0.813149
v -0.859183 0.804186 4.645615
v -0.149356 0.535281 4.602550
v -0.504316 1.024709 4.708626
v -0.859183 0.534957 4.592142
v -0.149450 0.809423 4.663375
v -0.504300 0.310934 4.613523
v -0.850273 0.588865 4.456685
v -0.149339 0.843661 4.524477
v -0.499794 0.338804 4.546248
v -0.850273 0.850867 4.514011
v -0.149269 0.578213 4.461892
v -0.499806 1.040190 4.577908
v -0.182652 0.209765 10.726066
v -0.252719 0.101462 10.726066
v -0.182110 -0.006843 10.726066
v 0.213411 0.517838 6.140407
v -0.199640 0.752419 6.231290
vn 0.2171 0.8930 -0.3943
vn 0.2309 0.9730 -0.0026
vn 0.2282 0.8287 0.5111
vn 0.5934 0.7171 0.3657
vn 0.6038 0.7971 0.0039
vn 0.5368 0.7678 -0.3497
vn 0.4335 0.6757 -0.5962
vn 0.2244 0.7535 -0.6180
vn 0.9488 0.1900 -0.2522
vn 0.9829 0.1719 0.0657
vn 0.9669 -0.1341 -0.2169
vn 0.9843 -0.1466 0.0981
vn 0.7198 0.4412 -0.5359
vn 0.8218 0.4872 -0.2955
vn 0.8739 0.4848 0.0339
vn 0.8176 0.4547 0.3533
vn 0.8793 0.1584 0.4492
vn 0.8717 -0.1659 0.4611
vn 0.7717 -0.4987 0.3948
vn 0.8452 -0.5193 0.1267
vn 0.8441 -0.5094 -0.1677
vn 0.7852 -0.4383 -0.4373
vn 0.8572 -0.1236 -0.4999
vn 0.8229 0.2097 -0.5281
vn 1.0000 -0.0000 -0.0000
vn 0.1564 -0.9765 0.1485
vn 0.4800 -0.7943 -0.3725
vn 0.5169 -0.8425 -0.1518
vn 0.4664 -0.8756 0.1262
vn 0.4808 -0.7739 0.4123
vn 0.1500 -0.8611 0.4857
vn 0.2261 -0.9220 -0.3144
vn 0.3148 0.2794 -0.9071
vn 0.3250 -0.1799 -0.9284
vn 0.2669 0.5681 -0.7785
vn 0.4934 0.5045 -0.7086
vn 0.5804 0.2495 -0.7751
vn 0.6137 -0.1420 -0.7766
vn 0.5175 -0.5489 -0.6564
vn 0.3026 -0.6356 -0.7102
vn 0.1733 0.1395 0.9749
vn 0.1703 -0.1865 0.9676
vn 0.5492 0.4099 0.7283
vn 0.1876 0.4801 0.8569
vn 0.1601 -0.5446 0.8233
vn 0.5064 -0.4648 0.7263
vn 0.5518 -0.1809 0.8141
vn 0.5611 0.1458 0.8148
vn 0.6237 0.6944 0.3588
vn 0.7220 0.5506 -0.4190
vn 0.3616 0.0569 -0.9306
vn -0.6237 -0.6944 -0.3589
vn 0.6532 -0.7421 0.1505
vn -0.7220 -0.5506 0.4190
vn -0.3616 -0.0569 0.9306
vn -0.6532 0.7421 -0.1505
vn 0.3303 0.9371 0.1133
vn 0.3105 -0.9485 -0.0633
vn 0.2352 -0.9601 -0.1514
vn 0.9413 -0.3145 -0.1223
vn 0.9482 0.3044 -0.0909
vn 0.2320 0.9702 -0.0698
vn 0.2953 -0.9525 -0.0746
vn 0.8908 -0.4346 0.1329
vn 0.8746 0.4768 -0.0883
vn 0.2387 0.9688 -0.0662
vn 0.4272 0.5278 0.7341
vn 0.3208 0.8687 0.3773
vn 0.3818 -0.2458 0.8910
vn 0.0302 -0.8251 0.5641
vn 0.7745 0.6318 -0.0326
vn 0.8400 -0.4133 0.3515
vn 0.5512 0.8287 0.0966
vn 0.8141 -0.5048 -0.2872
vn 0.9933 -0.0834 -0.0800
vn 0.8254 0.3354 -0.4541
vn 0.8869 -0.3881 0.2506
vn -0.8170 -0.2901 -0.4984
vn 0.0051 0.9981 0.0610
vn 0.8251 0.4362 0.3590
vn -0.8472 0.4755 -0.2370
vn 0.0726 -0.9643 -0.2546
vn 0.8558 0.4908 0.1634
vn -0.8550 0.3810 -0.3519
vn 0.0134 -0.9981 0.0605
vn 0.9063 -0.3413 0.2492
vn -0.8769 -0.3915 -0.2788
vn 0.0168 0.9939 -0.1092
vn 0.2800 0.0591 0.9582
vn -0.9524 -0.2367 0.1922
vn -0.0742 0.9798 0.1859
vn 0.6372 0.5328 0.5569
vn -0.4875 0.3281 -0.8091
vn -0.5093 -0.5111 0.6924
vn 0.8142 0.2249 0.5352
vn -0.8458 0.0987 -0.5243
vn 0.0993 -0.9620 0.2544
vn 0.8860 -0.1016 0.4524
vn -0.8518 -0.1472 -0.5028
vn -0.2653 0.9295 -0.2561
vn -0.9945 -0.0948 -0.0452
vn -0.6949 0.6686 -0.2648
vn 0.9695 0.1926 -0.1514
vn -0.9680 0.2423 -0.0649
vn 0.1938 -0.9784 -0.0717
vn 0.9825 -0.0979 -0.1582
vn -0.9465 -0.2910 -0.1395
vn -0.1856 0.9318 -0.3121
vn 0.9868 0.0667 -0.1477
vn -0.5250 -0.8256 0.2069
vn -0.5514 -0.8337 -0.0307
vn -0.5763 -0.8152 0.0578
vn 0.9948 0.0836 0.0580
vn -0.1190 0.9263 -0.3576
vn -0.2534 -0.1869 -0.9491
vn 0.9843 0.0976 0.1472
vn -0.1220 0.9213 -0.3693
vn -0.9319 -0.3108 -0.1869
vn 0.2209 -0.1440 0.9646
vn 0.2098 0.5177 0.8294
vn -0.0662 -0.6882 0.7225
vn 0.2292 0.1019 0.9680
vn -0.5148 -0.2228 -0.8278
vn -0.6221 0.0387 -0.7820
vn 0.1277 -0.9801 -0.1519
vn -0.8754 0.4455 -0.1877
vn 0.8041 0.4239 0.4168
vn 0.0315 0.9972 0.0681
vn -0.9434 -0.0349 -0.3298
vn 0.8847 -0.3801 0.2698
vn 0.0640 0.9939 -0.0902
vn -0.7594 -0.3495 -0.5489
vn 0.8982 -0.3533 0.2617
vn 0.0537 -0.9891 -0.1374
vn -0.7728 0.4726 -0.4235
vn 0.8344 0.4702 0.2875
vn 0.3864 0.5720 -0.7235
vn 0.9944 -0.0569 -0.0896
vn 0.4874 -0.7375 0.4674
vn -0.4626 -0.7469 0.4776
vn -0.6919 -0.4840 0.5358
vn 0.9954 0.0890 0.0361
vn -1.0000 -0.0019 -0.0054
vn 0.9972 0.0533 -0.0520
vn -0.9868 -0.1504 0.0605
vn 0.9990 0.0220 0.0387
vn 0.6153 0.6410 -0.4589
vn 0.3915 -0.7133 0.5813
vn -0.5526 0.2673 0.7894
vn 0.3426 -0.6682 0.6604
vn 0.6010 0.7934 -0.0961
vn 0.0909 0.8933 -0.4401
vn -0.6940 -0.4919 0.5258
vn 0.9277 0.1426 0.3450
vn -0.9992 0.0352 -0.0191
vn -0.9999 0.0071 -0.0071
vn 0.5400 0.6040 0.5862
vn 0.5001 -0.5776 -0.6452
vn -0.5000 0.5742 0.6483
vn -0.4149 -0.6277 -0.6587
vn -0.3542 -0.9341 -0.0438
vn -0.6095 0.5604 0.5608
vn 0.4897 -0.5867 -0.6450
vn 0.5396 0.3797 0.7514
vn -1.0000 -0.0000 0.0007
vn 0.9974 0.0520 -0.0507
vn -0.1710 -0.9851 0.0176
vn -0.3779 -0.4912 -0.7848
vn -0.1478 -0.9698 -0.1943
vn -0.3221 0.0338 -0.9461
vn 0.2608 0.9599 0.1027
vn 0.3823 0.8604 0.3370
vn 0.2496 -0.9614 0.1158
vn 0.8210 0.0006 0.5709
vn 0.0008 0.8935 -0.4490
vn 0.4998 -0.5986 -0.6259
vn 0.4967 0.6559 0.5685
vn -0.4741 0.6622 0.5803
vn -0.4913 -0.6004 -0.6310
vn 0.9992 0.0298 -0.0263
vn 0.9867 -0.0160 -0.1615
vn -1.0000 0.0005 -0.0000
vn -0.2599 -0.3715 -0.8913
vn 0.4578 -0.7263 0.5128
vn -0.3121 0.2124 -0.9260
vn -0.4632 -0.7586 0.4582
vn 0.9743 0.1124 -0.1953
vn -1.0000 0.0004 0.0005
vn -0.2711 -0.0994 -0.9574
vn 0.4627 -0.8386 0.2874
vn -0.2989 0.8930 -0.3365
vn -0.3613 -0.8524 0.3780
vn 0.2798 0.9555 0.0929
vn 0.2558 -0.9638 -0.0754
vn 0.7565 0.1438 0.6380
vn 0.8931 0.4499 -0.0000
vn 0.8377 -0.5461 -0.0000
vn 0.5488 0.8323 0.0777
vn 0.5165 -0.8562 -0.0132
vn -0.2171 0.8930 -0.3943
vn -0.2332 0.9724 -0.0047
vn -0.2282 0.8287 0.5111
vn -0.5362 0.7239 0.4341
vn -0.6140 0.7893 -0.0094
vn -0.5575 0.7416 -0.3731
vn -0.4335 0.6757 -0.5962
vn -0.2244 0.7535 -0.6180
vn -0.9486 0.1818 -0.2589
vn -0.9832 0.1706 0.0645
vn -0.9679 -0.1309 -0.2144
vn -0.9842 -0.1492 0.0957
vn -0.7191 0.4598 -0.5211
vn -0.8258 0.4724 -0.3080
vn -0.8791 0.4760 0.0239
vn -0.8176 0.4547 0.3533
vn -0.8813 0.1551 0.4463
vn -0.8704 -0.1617 0.4650
vn -0.7756 -0.4470 0.4457
vn -0.8474 -0.5145 0.1312
vn -0.8444 -0.5089 -0.1672
vn -0.7852 -0.4383 -0.4373
vn -0.8583 -0.1214 -0.4987
vn -0.8209 0.2013 -0.5345
vn -0.1488 -0.9784 0.1435
vn -0.5095 -0.7887 -0.3441
vn -0.5440 -0.8308 -0.1171
vn -0.5063 -0.8464 0.1648
vn -0.4808 -0.7739 0.4123
vn -0.1500 -0.8611 0.4857
vn -0.1482 -0.9172 -0.3698
vn -0.3082 0.2745 -0.9109
vn -0.3445 -0.1614 -0.9248
vn -0.2408 0.5577 -0.7943
vn -0.4461 0.4620 -0.7665
vn -0.5707 0.2336 -0.7872
vn -0.6232 -0.1271 -0.7717
vn -0.5828 -0.4680 -0.6643
vn -0.3026 -0.6356 -0.7102
vn -0.1783 0.1347 0.9747
vn -0.1652 -0.1814 0.9694
vn -0.5146 0.4458 0.7324
vn -0.1947 0.4737 0.8589
vn -0.1601 -0.5446 0.8233
vn -0.5064 -0.4648 0.7263
vn -0.5466 -0.1746 0.8190
vn -0.5630 0.1438 0.8139
vn -0.6237 0.6944 0.3588
vn -0.7220 0.5506 -0.4190
vn -0.3616 0.0569 -0.9306
vn 0.6237 -0.6944 -0.3588
vn -0.6532 -0.7421 0.1505
vn 0.7220 -0.5506 0.4190
vn 0.3616 -0.0569 0.9306
vn 0.6532 0.7421 -0.1505
vn -0.3290 0.9240 0.1948
vn -0.3070 -0.9496 0.0634
vn -0.2106 -0.9626 -0.1706
vn -0.8623 -0.4561 -0.2202
vn -0.9492 0.3035 -0.0826
vn -0.2911 0.9538 -0.0749
vn -0.2472 -0.9636 -0.1019
vn -0.8847 -0.4631 0.0541
vn -0.8971 0.4397 -0.0431
vn -0.3459 0.9372 -0.0438
vn -0.4190 0.6045 0.6775
vn -0.3467 0.8916 0.2914
vn -0.5493 -0.1042 0.8291
vn -0.0632 -0.8387 0.5408
vn -0.7614 0.6468 0.0443
vn -0.9482 -0.2914 0.1265
vn -0.6203 0.7762 -0.1128
vn -0.6504 -0.7498 -0.1215
vn -0.9887 -0.1111 -0.1006
vn -0.9988 0.0467 -0.0171
vn -0.8728 -0.3318 0.3578
vn 0.8579 -0.3817 -0.3438
vn 0.0025 0.9928 -0.1197
vn -0.8313 0.5083 0.2250
vn 0.8474 0.3993 -0.3500
vn -0.0572 -0.9982 0.0180
vn -0.8459 0.5217 0.1108
vn 0.8053 0.3920 -0.4447
vn -0.0033 -0.9727 0.2321
vn -0.8918 -0.2929 0.3449
vn 0.8614 -0.4464 -0.2423
vn -0.0113 0.9600 -0.2796
vn -0.2385 0.2262 0.9444
vn 0.9587 -0.2113 0.1905
vn 0.0864 0.9962 0.0111
vn -0.2100 0.3550 0.9110
vn 0.4539 0.1784 -0.8730
vn 0.1775 -0.6112 0.7713
vn -0.7719 0.5702 0.2813
vn 0.8230 -0.0028 -0.5680
vn -0.0926 -0.9027 0.4201
vn -0.8022 -0.1147 0.5860
vn 0.8288 -0.2414 -0.5048
vn 0.1300 0.9697 -0.2069
vn 0.9912 -0.1128 -0.0693
vn 0.3103 0.8736 -0.3749
vn -0.9743 0.1751 -0.1420
vn 0.9813 0.1211 -0.1499
vn -0.2009 -0.9739 0.1060
vn -0.9797 -0.1982 -0.0309
vn 0.9384 -0.3217 -0.1263
vn 0.1762 0.8620 -0.4753
vn -0.9919 0.0518 -0.1161
vn 0.5386 -0.7544 0.3753
vn 0.5878 -0.8007 0.1157
vn 0.5746 -0.7998 0.1735
vn -0.9910 0.1040 0.0838
vn 0.1076 0.8496 -0.5164
vn -0.0373 -0.6172 -0.7859
vn -0.9766 0.1330 0.1688
vn 0.1101 0.8426 -0.5272
vn 0.9217 -0.3492 -0.1690
vn -0.2233 -0.1230 0.9669
vn -0.2151 0.5201 0.8266
vn 0.0705 -0.6880 0.7223
vn -0.2252 0.1259 0.9661
vn 0.4942 -0.3744 -0.7846
vn 0.4588 0.0426 -0.8875
vn -0.0630 -0.9952 0.0753
vn 0.9467 0.0743 -0.3135
vn -0.6568 0.7398 0.1463
vn -0.3050 0.9523 0.0013
vn 0.9500 -0.1054 -0.2938
vn -0.8861 -0.3150 0.3400
vn -0.0477 0.9586 -0.2806
vn 0.7947 -0.4504 -0.4070
vn -0.8653 -0.2975 0.4033
vn 0.0163 -0.9791 0.2027
vn 0.7872 0.4125 -0.4585
vn -0.8317 0.5222 0.1886
vn -0.5182 0.8547 0.0301
vn -0.9944 0.0398 -0.0980
vn -0.4485 -0.8571 -0.2534
vn 0.5194 -0.8246 -0.2243
vn 0.5590 -0.7680 -0.3125
vn 0.4735 0.8800 0.0391
vn -0.3911 0.5686 -0.7237
vn -0.9956 0.0249 -0.0900
vn 0.9821 -0.1675 -0.0863
vn -0.9991 -0.0118 0.0397
vn -0.5149 0.8569 0.0234
vn -0.4645 -0.8134 -0.3503
vn 0.3850 -0.1728 0.9066
vn -0.4498 -0.8730 -0.1887
vn -0.5038 0.7677 0.3960
vn 0.2269 0.9739 -0.0013
vn 0.5357 -0.7786 -0.3269
vn -0.9568 -0.0972 0.2742
vn 0.9995 0.0096 -0.0290
vn 0.9996 0.0077 -0.0280
vn -0.5460 0.8181 0.1807
vn -0.5280 -0.7993 -0.2868
vn 0.6163 0.7605 0.2047
vn 0.4680 -0.8406 -0.2729
vn 0.4841 -0.8181 -0.3103
vn 0.4974 0.7887 0.3613
vn -0.4764 -0.7991 -0.3669
vn -0.4952 0.8280 0.2630
vn 1.0000 0.0001 0.0006
vn -0.9981 0.0132 -0.0605
vn -0.1149 -0.9932 0.0178
vn 0.1818 -0.5217 -0.8335
vn 0.0677 -0.9783 -0.1960
vn 0.4795 0.0313 -0.8770
vn -0.3391 0.7692 0.5417
vn -0.3617 0.8727 0.3280
vn -0.2478 -0.9685 -0.0259
vn -0.8929 -0.1164 0.4349
vn -0.0008 0.5829 -0.8126
vn -0.4995 -0.8355 -0.2290
vn -0.4971 0.8513 0.1679
vn 0.4971 0.8513 0.1679
vn 0.4995 -0.8353 -0.2299
vn -0.9995 0.0096 -0.0290
vn -0.9981 0.0112 -0.0612
vn 1.0000 0.0003 0.0007
vn -0.5267 0.8131 0.2480
vn -0.4852 -0.7961 -0.3615
vn 0.4904 0.8470 0.2053
vn 0.5168 -0.8029 -0.2972
vn -0.9981 0.0121 -0.0608
vn 1.0000 0.0002 0.0007
vn -0.5427 0.8025 0.2479
vn -0.4817 -0.7977 -0.3627
vn 0.5260 0.8423 0.1179
vn 0.5027 -0.8100 -0.3019
vn -0.2704 0.9601 0.0718
vn -0.1817 -0.9833 0.0127
vn -0.7554 0.1433 0.6394
vn -0.8931 0.4499 -0.0000
vn -0.8377 -0.5461 -0.0000
vn -0.5999 0.7948 0.0921
vn -0.5165 -0.8562 -0.0132
vn -0.7772 -0.0918 -0.6225
vn 0.9947 0.0991 -0.0265
vn -0.1393 0.5470 -0.8255
vn 0.0826 0.8870 -0.4544
vn 0.2158 0.8929 -0.3952
vn 0.2332 0.9724 -0.0047
vn 0.2114 0.8407 0.4986
vn 0.5362 0.7239 0.4341
vn 0.6140 0.7893 -0.0094
vn 0.5575 0.7416 -0.3731
vn 0.4895 0.6746 -0.5525
vn 0.2088 0.7506 -0.6269
vn 0.9486 0.1818 -0.2589
vn 0.9832 0.1706 0.0645
vn 0.9679 -0.1309 -0.2144
vn 0.9842 -0.1492 0.0957
vn 0.7191 0.4598 -0.5211
vn 0.8258 0.4724 -0.3080
vn 0.8791 0.4760 0.0239
vn 0.8171 0.4050 0.4103
vn 0.8813 0.1551 0.4463
vn 0.8704 -0.1617 0.4650
vn 0.7756 -0.4470 0.4457
vn 0.8474 -0.5145 0.1312
vn 0.8444 -0.5089 -0.1672
vn 0.7820 -0.4824 -0.3947
vn 0.8583 -0.1214 -0.4987
vn 0.8209 0.2013 -0.5345
vn 0.1806 -0.9804 -0.0786
vn 0.1607 -0.9818 -0.1015
vn 0.1488 -0.9784 0.1435
vn 0.5095 -0.7887 -0.3441
vn 0.5440 -0.8308 -0.1171
vn 0.5063 -0.8464 0.1648
vn 0.4448 -0.7758 0.4475
vn 0.1542 -0.8626 0.4818
vn 0.1482 -0.9172 -0.3698
vn 0.3082 0.2745 -0.9109
vn 0.3445 -0.1614 -0.9248
vn 0.2408 0.5577 -0.7943
vn 0.4461 0.4620 -0.7665
vn 0.5707 0.2336 -0.7872
vn 0.6232 -0.1271 -0.7717
vn 0.5828 -0.4680 -0.6643
vn 0.2683 -0.6184 -0.7387
vn 0.1783 0.1347 0.9747
vn 0.1652 -0.1814 0.9694
vn 0.5146 0.4458 0.7324
vn 0.1947 0.4737 0.8589
vn 0.1626 -0.5423 0.8243
vn 0.4611 -0.5075 0.7279
vn 0.5466 -0.1746 0.8190
vn 0.5630 0.1438 0.8139
vn -0.6237 -0.6944 -0.3588
vn 0.2972 0.9342 0.1973
vn 0.3372 -0.9412 -0.0217
vn 0.2917 -0.9367 -0.1935
vn 0.8851 -0.4296 -0.1791
vn 0.8659 0.4737 -0.1605
vn 0.2388 0.9681 -0.0760
vn 0.3066 -0.9481 -0.0846
vn 0.9744 -0.2115 -0.0768
vn 0.9551 0.2916 0.0518
vn 0.2191 0.9746 -0.0457
vn 0.6601 0.3937 0.6397
vn 0.2662 0.8293 0.4914
vn 0.5494 -0.1678 0.8185
vn 0.0975 -0.8515 0.5152
vn 0.7205 0.6445 0.2560
vn 0.9486 -0.3097 0.0656
vn 0.3392 0.9341 0.1116
vn 0.4659 -0.8837 -0.0442
vn -0.4663 -0.2530 -0.8477
vn 0.8037 0.3514 -0.4802
vn 0.8642 -0.4111 0.2900
vn -0.8994 -0.3257 -0.2914
vn -0.0082 0.9901 0.1403
vn 0.8047 0.4511 0.3861
vn -0.8429 0.4739 -0.2547
vn 0.0690 -0.9683 -0.2400
vn 0.8916 0.4199 0.1694
vn -0.8173 0.4684 -0.3356
vn -0.0045 -0.9982 0.0601
vn 0.9003 -0.3555 0.2512
vn -0.8739 -0.4006 -0.2753
vn -0.0005 0.9940 -0.1096
vn 0.5216 -0.1413 0.8414
vn -0.9783 -0.1789 0.1048
vn -0.4987 0.7771 0.3840
vn 0.2517 0.1918 0.9486
vn -0.6763 0.0583 -0.7344
vn -0.1526 -0.7341 0.6616
vn 0.7895 0.5098 0.3418
vn 0.0039 -0.9946 0.1039
vn 0.8243 -0.2174 0.5227
vn -0.1271 0.9914 -0.0314
vn -0.9926 -0.1187 -0.0246
vn -0.3153 0.9265 -0.2055
vn 0.9812 0.0771 -0.1767
vn -0.9851 0.1494 -0.0847
vn -0.1566 -0.9750 -0.1576
vn 0.9752 -0.1943 -0.1064
vn -0.1336 0.9003 -0.4143
vn 0.9829 0.0435 -0.1788
vn -0.5314 -0.8053 0.2628
vn -0.5918 -0.8061 0.0014
vn -0.0024 -0.4728 -0.8812
vn 0.9873 0.0816 0.1363
vn -0.0545 0.9153 -0.3990
vn -0.9369 -0.2572 -0.2366
vn 0.2236 -0.1424 0.9642
vn 0.5591 0.6305 0.5384
vn 0.0273 -0.3688 0.9291
vn 0.4629 -0.0679 0.8838
vn -0.5306 -0.2314 -0.8154
vn -0.4946 0.1969 -0.8465
vn 0.0480 -0.9761 -0.2119
vn -0.9424 0.1406 -0.3035
vn 0.6438 0.6870 0.3370
vn 0.2448 0.9434 0.2239
vn -0.9120 -0.2700 -0.3089
vn 0.8754 -0.4107 0.2550
vn -0.0281 0.9986 0.0443
vn -0.8751 -0.3924 -0.2831
vn 0.8625 -0.3783 0.3362
vn -0.0374 -0.9991 0.0186
vn -0.7920 0.5008 -0.3491
vn 0.8233 0.4795 0.3037
vn 0.6106 0.5358 -0.5831
vn 0.9944 -0.0434 -0.0959
vn 0.4215 -0.7769 0.4676
vn -0.6966 -0.5565 0.4528
vn -0.6939 -0.5439 0.4720
vn 1.0000 0.0015 -0.0053
vn -0.9950 0.0831 -0.0546
vn 0.9973 0.0554 -0.0489
vn -0.9810 -0.1467 0.1272
vn 0.9992 0.0183 0.0352
vn 0.6052 0.6285 -0.4887
vn 0.3945 -0.7316 0.5561
vn -0.5588 0.0117 0.8292
vn -0.6490 0.2262 0.7264
vn 0.1891 -0.0563 0.9803
vn 0.3433 -0.7777 0.5266
vn 0.5956 0.7875 -0.1581
vn 0.0882 0.9241 -0.3718
vn -0.7454 -0.6217 0.2404
vn 0.9647 -0.0034 0.2634
vn -0.9992 0.0298 -0.0263
vn -0.9999 0.0076 -0.0067
vn 0.4993 0.6129 0.6124
vn 0.4871 -0.5854 -0.6481
vn -0.6107 0.5429 0.5765
vn -0.4992 -0.5859 -0.6384
vn -0.5028 -0.6648 -0.5524
vn -0.3706 0.3793 0.8478
vn 0.3614 -0.9295 -0.0737
vn 0.4151 0.5862 0.6957
vn -1.0000 -0.0006 0.0006
vn 0.9979 0.0319 -0.0555
vn 0.0543 -0.7368 -0.6739
vn 0.1300 -0.6334 0.7628
vn 0.3743 0.9098 0.1792
vn 0.3341 0.8235 0.4584
vn 0.2965 -0.9550 0.0063
vn 0.8870 -0.0720 0.4561
vn 0.0007 0.8991 -0.4378
vn -0.0072 0.8955 -0.4451
vn -0.0549 0.8778 -0.4758
vn 0.4847 -0.6029 -0.6337
vn 0.4723 0.6627 0.5812
vn -0.4967 0.6559 0.5685
vn -0.4990 -0.5982 -0.6270
vn 0.9992 0.0361 -0.0179
vn 0.9992 -0.0221 -0.0347
vn -1.0000 0.0004 0.0010
vn 0.2380 0.1451 -0.9604
vn 0.4904 -0.7592 0.4279
vn 0.2287 -0.3850 -0.8941
vn -0.4013 -0.6830 0.6103
vn 0.9988 -0.0048 -0.0489
vn -1.0000 -0.0007 0.0020
vn 0.4289 0.8616 -0.2715
vn 0.4490 -0.8257 0.3414
vn 0.1124 -0.1390 -0.9839
vn -0.3999 -0.9108 0.1030
vn 0.2821 0.9563 0.0765
vn 0.2455 -0.9682 -0.0479
vn 0.7347 -0.3353 0.5898
vn 0.8986 -0.0688 0.4334
vn 0.8391 0.5429 0.0335
vn 0.5999 0.7948 0.0921
vn 0.5513 -0.8343 -0.0000
vn -0.2158 0.8929 -0.3952
vn -0.2309 0.9730 -0.0026
vn -0.2114 0.8407 0.4986
vn -0.5934 0.7171 0.3657
vn -0.6038 0.7971 0.0039
vn -0.5368 0.7678 -0.3497
vn -0.4895 0.6746 -0.5525
vn -0.2088 0.7506 -0.6269
vn -0.9488 0.1900 -0.2522
vn -0.9829 0.1719 0.0657
vn -0.9669 -0.1341 -0.2169
vn -0.9843 -0.1466 0.0981
vn -0.7198 0.4412 -0.5359
vn -0.8218 0.4872 -0.2955
vn -0.8739 0.4848 0.0339
vn -0.8171 0.4050 0.4103
vn -0.8793 0.1584 0.4492
vn -0.8717 -0.1659 0.4611
vn -0.7717 -0.4987 0.3948
vn -0.8452 -0.5193 0.1267
vn -0.8441 -0.5094 -0.1677
vn -0.7820 -0.4824 -0.3947
vn -0.8572 -0.1236 -0.4999
vn -0.8229 0.2097 -0.5281
vn -0.1607 -0.9818 -0.1015
vn -0.1806 -0.9804 -0.0786
vn -0.1564 -0.9765 0.1485
vn -0.4800 -0.7943 -0.3725
vn -0.5169 -0.8425 -0.1518
vn -0.4664 -0.8756 0.1262
vn -0.4448 -0.7758 0.4475
vn -0.1542 -0.8626 0.4818
vn -0.2261 -0.9220 -0.3144
vn -0.3148 0.2794 -0.9071
vn -0.3250 -0.1799 -0.9284
vn -0.2669 0.5681 -0.7785
vn -0.4934 0.5045 -0.7086
vn -0.5804 0.2495 -0.7751
vn -0.6137 -0.1420 -0.7766
vn -0.5175 -0.5489 -0.6564
vn -0.2683 -0.6184 -0.7387
vn -0.1733 0.1395 0.9749
vn -0.1703 -0.1865 0.9676
vn -0.5492 0.4099 0.7283
vn -0.1876 0.4801 0.8569
vn -0.1626 -0.5423 0.8243
vn -0.4611 -0.5075 0.7279
vn -0.5518 -0.1809 0.8141
vn -0.5611 0.1458 0.8148
vn -0.3873 0.9219 0.0136
vn -0.2299 -0.9710 -0.0656
vn -0.2462 -0.9492 -0.1961
vn -0.9469 -0.2949 -0.1285
vn -0.8896 0.4357 -0.1367
vn -0.2456 0.9688 -0.0318
vn -0.2274 -0.9700 -0.0862
vn -0.9617 -0.2619 -0.0810
vn -0.9692 0.2124 0.1250
vn -0.2905 0.9567 0.0210
vn -0.6962 0.4302 0.5746
vn -0.2597 0.8307 0.4924
vn -0.3337 -0.1961 0.9220
vn -0.0300 -0.8252 0.5641
vn -0.7854 0.5898 -0.1879
vn -0.7968 -0.3335 0.5039
vn -0.8701 0.4856 -0.0847
vn -0.3624 -0.9306 0.0516
vn 0.3199 -0.4561 -0.8304
vn -0.8747 0.2128 -0.4355
vn -0.8877 -0.3234 0.3276
vn 0.9091 -0.3723 -0.1870
vn -0.0091 0.9825 -0.1863
vn -0.8157 0.5246 0.2436
vn 0.8549 0.4105 -0.3172
vn -0.0529 -0.9979 0.0370
vn -0.8819 0.4530 0.1306
vn 0.8409 0.3048 -0.4473
vn -0.0149 -0.9724 0.2328
vn -0.8963 -0.2826 0.3417
vn 0.8593 -0.4524 -0.2386
vn -0.0002 0.9599 -0.2803
vn -0.4857 0.0115 0.8740
vn 0.9811 -0.1696 0.0935
vn 0.5181 0.8256 0.2235
vn -0.6104 0.6280 0.4827
vn 0.6445 -0.0767 -0.7608
vn 0.5362 -0.3904 0.7484
vn -0.7896 0.3231 0.5217
vn -0.0039 -0.9618 0.2737
vn -0.8663 -0.0120 0.4994
vn 0.2582 0.8685 -0.4232
vn 0.9901 -0.1328 -0.0449
vn 0.6859 0.6049 -0.4045
vn -0.9875 0.0570 -0.1466
vn 0.9654 0.2161 -0.1457
vn 0.1455 -0.9893 0.0063
vn -0.9888 -0.1121 -0.0982
vn 0.1197 0.8140 -0.5683
vn -0.9895 0.0236 -0.1428
vn 0.5297 -0.7838 0.3241
vn 0.5459 -0.8330 0.0906
vn 0.2117 -0.3502 -0.9124
vn -0.9802 0.1154 0.1610
vn 0.0414 0.8324 -0.5526
vn 0.9248 -0.3050 -0.2273
vn -0.2057 -0.1341 0.9694
vn -0.5591 0.6305 0.5384
vn -0.0191 -0.3568 0.9340
vn -0.4798 -0.0566 0.8756
vn 0.4780 -0.3678 -0.7977
vn 0.5882 -0.1036 -0.8020
vn -0.0365 -0.9978 0.0562
vn 0.8759 0.3892 -0.2851
vn -0.8122 0.5108 0.2820
vn -0.0393 0.9795 -0.1976
vn 0.9200 -0.3310 -0.2099
vn -0.8796 -0.3370 0.3357
vn 0.0206 0.9825 -0.1853
vn 0.8607 -0.4470 -0.2436
vn -0.8910 -0.2917 0.3479
vn -0.0464 -0.9934 0.1044
vn 0.7743 0.3850 -0.5022
vn -0.8230 0.5317 0.1999
vn -0.5137 0.8575 0.0287
vn -0.9941 0.0195 -0.1069
vn -0.4956 -0.8370 -0.2318
vn 0.5484 -0.8096 -0.2094
vn 0.5364 -0.7339 -0.4167
vn 0.4892 0.8715 0.0344
vn -0.4233 0.5664 -0.7071
vn -0.9957 0.0291 -0.0880
vn 0.9840 -0.1651 0.0664
vn -0.9990 -0.0117 0.0430
vn -0.5425 0.8021 0.2496
vn -0.4694 -0.8470 -0.2494
vn 0.5927 -0.0698 0.8024
vn 0.5272 -0.2077 0.8239
vn 0.4908 -0.5020 0.7121
vn -0.4600 -0.8816 -0.1062
vn -0.5076 0.7977 0.3254
vn -0.0524 0.9264 -0.3728
vn 0.5534 -0.7433 -0.3758
vn -0.9497 -0.0827 0.3020
vn 0.9995 0.0174 -0.0259
vn 0.9996 0.0092 -0.0277
vn -0.4986 0.8431 0.2014
vn -0.5000 -0.8180 -0.2845
vn 0.4999 0.8286 0.2521
vn 0.5000 -0.8217 -0.2735
vn 0.4787 -0.8390 -0.2586
vn 0.6154 0.7646 0.1914
vn -0.4760 -0.8042 -0.3561
vn -0.5530 0.7713 0.3150
vn 1.0000 -0.0002 0.0008
vn -0.9980 0.0170 -0.0615
vn 0.2798 -0.4729 -0.8355
vn -0.2425 -0.9586 0.1490
vn 0.0976 0.9896 0.1058
vn -0.2969 0.8344 0.4644
vn -0.1800 -0.9766 0.1177
vn -0.8762 -0.0991 0.4716
vn -0.0008 0.5752 -0.8180
vn 0.0553 0.5567 -0.8289
vn 0.0050 0.5855 -0.8107
vn -0.4793 -0.8457 -0.2346
vn -0.4699 0.8650 0.1757
vn 0.4719 0.8641 0.1752
vn 0.4863 -0.8420 -0.2336
vn -0.9995 0.0184 -0.0255
vn -0.9979 0.0125 -0.0632
vn 1.0000 0.0002 0.0008
vn -0.5408 0.7807 0.3131
vn -0.4850 -0.8016 -0.3496
vn 0.5179 0.7797 0.3519
vn 0.5123 -0.8226 -0.2469
vn -0.9979 0.0137 -0.0627
vn 1.0000 0.0001 0.0008
vn -0.4856 0.8699 0.0863
vn -0.4827 -0.8023 -0.3511
vn 0.5023 0.8394 0.2073
vn 0.5037 -0.8263 -0.2519
vn -0.2691 0.9600 0.0768
vn -0.2261 -0.9711 -0.0760
vn -0.9052 -0.0882 0.4157
vn -0.7450 -0.3333 0.5778
vn -0.8391 0.5429 0.0335
vn -0.5488 0.8323 0.0777
vn -0.5513 -0.8343 -0.0000
vn -0.9750 0.0498 -0.2166
vn 0.5471 0.0490 -0.8356
vn -0.2682 0.7470 -0.6083
vn 0.4754 0.8798 -0.0017
vt 0.500000 0.375000
vt 0.437500 0.437500
vt 0.437500 0.375000
vt 0.562500 0.437500
vt 0.500000 0.437500
vt 0.625000 0.375000
vt 0.562500 0.375000
vt 0.625000 0.500000
vt 0.562500 0.500000
vt 0.500000 0.500000
vt 0.437500 0.500000
vt 0.375000 0.500000
vt 0.375000 0.437500
vt 0.375000 0.375000
vt 0.437500 0.562500
vt 0.500000 0.625000
vt 0.437500 0.625000
vt 0.500000 0.562500
vt 0.562500 0.625000
vt 0.500000 0.687500
vt 0.437500 0.687500
vt 0.562500 0.687500
vt 0.375000 0.562500
vt 0.562500 0.562500
vt 0.625000 0.625000
vt 0.625000 0.687500
vt 0.625000 0.750000
vt 0.562500 0.750000
vt 0.500000 0.750000
vt 0.437500 0.750000
vt 0.375000 0.750000
vt 0.375000 0.687500
vt 0.375000 0.625000
vt 0.500000 0.875000
vt 0.468750 0.875000
vt 0.437500 0.875000
vt 0.500000 0.812500
vt 0.562500 0.875000
vt 0.437500 0.812500
vt 0.375000 0.812500
vt 0.562500 0.812500
vt 0.625000 0.812500
vt 0.375000 0.875000
vt 0.250000 0.562500
vt 0.312500 0.625000
vt 0.250000 0.625000
vt 0.312500 0.687500
vt 0.250000 0.687500
vt 0.250000 0.500000
vt 0.312500 0.562500
vt 0.312500 0.500000
vt 0.312500 0.750000
vt 0.250000 0.750000
vt 0.687500 0.562500
vt 0.750000 0.625000
vt 0.687500 0.625000
vt 0.750000 0.687500
vt 0.687500 0.687500
vt 0.625000 0.562500
vt 0.687500 0.500000
vt 0.750000 0.562500
vt 0.687500 0.750000
vt 1.000000 0.500000
vt 0.833333 1.000000
vt 0.833333 0.500000
vt 0.666667 1.000000
vt 0.666667 0.500000
vt 0.500000 1.000000
vt 0.500000 0.500000
vt 0.333333 0.500000
vt 0.042154 0.130000
vt 0.250000 0.010000
vt 0.457846 0.130000
vt 0.333333 1.000000
vt 0.166667 0.500000
vt 0.166667 1.000000
vt -0.000000 0.500000
vt 0.542154 0.130000
vt 0.542154 0.370000
vt 0.957846 0.370000
vt 1.000000 0.828637
vt 0.875000 1.000000
vt 0.875000 0.828637
vt 0.625000 0.828637
vt 0.500000 1.000000
vt 0.500000 0.828637
vt 0.625000 0.645722
vt 0.500000 0.500000
vt 0.750000 0.500000
vt 0.875000 0.645722
vt 0.875000 0.500000
vt 0.500000 0.645722
vt 0.750000 0.828637
vt 0.750000 0.645722
vt 1.000000 0.645722
vt 0.750000 1.000000
vt 1.000000 1.000000
vt 0.625000 1.000000
vt 0.749520 0.964446
vt 0.653402 0.965669
vt 0.844587 0.863513
vt 0.844268 0.965118
vt 0.647775 0.863148
vt 0.750840 0.864057
vt 0.749520 0.964446
vt 0.750840 0.864057
vt 0.647775 0.863149
vt 0.844587 0.863513
vt 0.844267 0.965117
vt 0.653402 0.965669
vt 0.749520 0.964446
vt 0.844268 0.965117
vt 0.750840 0.864057
vt 0.653402 0.965669
vt 0.844587 0.863513
vt 0.000000 0.000000
vt 0.833333 0.500000
vt -0.000000 1.000000
vt 0.500000 0.500000
vt 0.500000 0.500000
vt 0.166667 0.500000
vt -0.000000 0.500000
vt 0.833333 0.500000
vt 0.042154 0.370000
vt 0.457846 0.370000
vt 0.750000 0.010000
vt 0.333333 0.500000
vt 0.457846 0.250000
vt 0.625000 0.437500
vt 0.750000 0.500000
vt 0.957846 0.130000
vt 0.250000 0.490000
vt 0.625000 0.875000
vt 0.750000 0.750000
vt 0.250000 0.490000
vt 0.750000 0.490000
vt 0.750000 0.490000
s 0
f 26/1/1 28/2/1 25/3/1
f 26/1/2 30/4/2 29/5/2
f 7/6/3 30/4/3 27/7/3
f 30/4/4 4/8/4 9/9/4
f 29/5/5 9/9/5 10/10/5
f 28/2/6 10/10/6 11/11/6
f 28/2/7 3/12/7 5/13/7
f 25/3/8 5/13/8 6/14/8
f 31/15/9 35/16/9 34/17/9
f 32/18/10 36/19/10 35/16/10
f 34/17/11 38/20/11 37/21/11
f 35/16/12 39/22/12 38/20/12
f 3/12/13 31/15/13 14/23/13
f 11/11/14 32/18/14 31/15/14
f 10/10/15 33/24/15 32/18/15
f 4/8/16 33/24/16 9/9/16
f 33/24/17 16/25/17 36/19/17
f 36/19/18 17/26/18 39/22/18
f 39/22/19 2/27/19 18/28/19
f 38/20/20 18/28/20 19/29/20
f 37/21/21 19/29/21 20/30/21
f 37/21/22 1/31/22 12/32/22
f 13/33/23 37/21/23 12/32/23
f 14/23/24 34/17/24 13/33/24
f 44/34/25 58/35/25 43/36/25
f 41/37/26 45/38/26 44/34/26
f 1/31/27 40/39/27 22/40/27
f 20/30/28 41/37/28 40/39/28
f 19/29/29 42/41/29 41/37/29
f 2/27/30 42/41/30 18/28/30
f 23/42/31 45/38/31 42/41/31
f 22/40/32 43/36/32 21/43/32
f 46/44/33 49/45/33 48/46/33
f 48/46/34 51/47/34 50/48/34
f 6/49/35 47/50/35 46/44/35
f 5/51/36 14/23/36 47/50/36
f 47/50/37 13/33/37 49/45/37
f 49/45/38 12/32/38 51/47/38
f 51/47/39 1/31/39 22/52/39
f 51/47/40 21/53/40 50/48/40
f 52/54/41 55/55/41 54/56/41
f 54/56/42 57/57/42 56/58/42
f 4/8/43 52/54/43 15/59/43
f 8/60/44 53/61/44 52/54/44
f 57/57/45 23/62/45 56/58/45
f 56/58/46 2/27/46 17/26/46
f 16/25/47 56/58/47 17/26/47
f 15/59/48 54/56/48 16/25/48
f 59/63/49 62/64/49 61/65/49
f 61/65/50 64/66/50 63/67/50
f 63/67/51 66/68/51 65/69/51
f 66/68/52 67/70/52 65/69/52
f 68/71/53 66/72/53 64/73/53
f 68/74/54 69/75/54 67/70/54
f 70/76/55 59/77/55 69/75/55
f 67/78/56 69/79/56 61/80/56
f 86/81/57 97/82/57 99/83/57
f 100/84/58 80/85/58 90/86/58
f 84/87/59 79/88/59 77/8/59
f 75/89/60 84/87/60 77/8/60
f 82/90/61 75/89/61 73/91/61
f 71/63/62 82/90/62 73/91/62
f 100/84/63 85/92/63 84/87/63
f 101/93/64 84/87/64 83/94/64
f 99/83/65 83/94/65 82/90/65
f 81/95/66 99/83/66 82/90/66
f 97/82/67 93/96/67 96/96/67
f 72/97/68 92/82/68 97/82/68
f 98/98/69 93/96/69 94/98/69
f 80/85/70 94/98/70 95/85/70
f 76/99/71 97/82/71 96/96/71
f 78/100/72 96/96/72 98/98/72
f 87/101/73 97/82/73 74/102/73
f 78/100/74 100/84/74 89/103/74
f 89/103/75 101/93/75 88/104/75
f 87/101/76 101/93/76 99/83/76
f 150/105/77 104/100/77 103/99/77
f 151/106/78 107/103/78 152/107/78
f 154/108/79 102/102/79 105/101/79
f 150/105/80 102/102/80 153/109/80
f 151/106/81 105/101/81 106/104/81
f 152/107/82 104/100/82 149/110/82
f 155/111/83 108/102/83 156/112/83
f 158/113/84 111/101/84 112/104/84
f 160/114/85 113/103/85 110/100/85
f 155/111/86 110/100/86 109/99/86
f 158/113/87 113/103/87 159/107/87
f 156/112/88 111/101/88 157/115/88
f 110/100/89 115/99/89 109/99/89
f 112/104/90 133/103/90 113/103/90
f 108/102/91 117/101/91 111/101/91
f 108/102/92 115/99/92 114/102/92
f 111/101/93 118/104/93 112/104/93
f 110/100/94 119/103/94 116/100/94
f 114/102/95 121/99/95 120/102/95
f 117/101/96 124/104/96 118/104/96
f 119/103/97 122/100/97 116/100/97
f 115/99/98 122/100/98 121/99/98
f 119/103/99 124/104/99 125/103/99
f 117/101/100 120/102/100 123/101/100
f 124/104/101 131/103/101 125/103/101
f 123/101/102 126/102/102 129/101/102
f 121/99/103 126/102/103 120/102/103
f 124/104/104 129/101/104 130/104/104
f 125/103/105 128/100/105 122/100/105
f 121/99/106 128/100/106 127/99/106
f 132/104/107 137/103/107 133/103/107
f 118/104/108 132/104/108 112/104/108
f 119/103/109 134/104/109 118/104/109
f 119/103/110 133/103/110 135/103/110
f 139/103/111 141/103/111 143/103/111
f 135/103/112 137/103/112 139/103/112
f 135/103/113 138/104/113 134/104/113
f 134/104/114 136/104/114 132/104/114
f 141/103/115 142/104/115 143/103/115
f 139/103/116 142/104/116 138/104/116
f 138/104/117 140/104/117 136/104/117
f 136/104/118 141/103/118 137/103/118
f 94/98/119 146/96/119 147/98/119
f 91/97/120 145/82/120 92/82/120
f 94/98/121 148/85/121 95/85/121
f 92/82/122 146/96/122 93/96/122
f 128/100/123 130/104/123 127/99/123
f 127/99/124 129/101/124 126/102/124
f 89/103/125 149/110/125 78/100/125
f 88/104/126 154/108/126 151/106/126
f 74/102/127 150/105/127 153/109/127
f 87/101/128 153/109/128 154/108/128
f 88/104/129 152/107/129 89/103/129
f 78/100/130 150/105/130 76/99/130
f 102/102/131 157/115/131 105/101/131
f 106/104/132 159/107/132 107/103/132
f 103/99/133 160/114/133 155/111/133
f 104/100/134 159/107/134 160/114/134
f 106/104/135 157/115/135 158/113/135
f 103/99/136 156/112/136 102/102/136
f 162/97/137 163/65/137 161/63/137
f 163/65/138 166/66/138 165/67/138
f 165/67/139 168/68/139 167/69/139
f 168/68/140 169/70/140 167/69/140
f 170/74/141 175/68/141 176/74/141
f 368/74/142 369/75/142 416/116/142
f 170/74/143 171/75/143 169/70/143
f 190/67/144 185/65/144 191/117/144
f 177/76/145 182/74/145 183/76/145
f 164/64/146 174/66/146 166/66/146
f 164/64/147 172/97/147 173/64/147
f 166/66/148 175/68/148 168/68/148
f 182/71/149 181/72/149 180/73/149
f 174/66/150 181/68/150 175/68/150
f 173/64/151 178/97/151 179/64/151
f 177/76/152 178/118/152 172/118/152
f 175/68/153 182/74/153 176/74/153
f 173/64/154 180/66/154 174/66/154
f 188/70/155 210/75/155 209/70/155
f 192/75/156 188/70/156 193/70/156
f 191/117/157 184/63/157 194/63/157
f 190/67/158 187/69/158 186/67/158
f 192/75/159 184/77/159 189/75/159
f 193/70/160 187/69/160 195/119/160
f 221/70/161 195/119/161 219/120/161
f 218/121/162 194/122/162 192/75/162
f 217/67/163 195/119/163 190/67/163
f 222/63/164 191/117/164 194/63/164
f 218/121/165 193/70/165 221/70/165
f 220/123/166 190/67/166 191/117/166
f 183/76/167 178/118/167 200/116/167
f 182/116/168 197/116/168 196/116/168
f 181/116/169 198/116/169 197/116/169
f 196/116/170 183/124/170 182/71/170
f 199/116/171 178/116/171 200/116/171
f 199/116/172 201/116/172 179/116/172
f 198/116/173 202/116/173 203/116/173
f 179/125/174 202/73/174 180/73/174
f 206/80/175 208/126/175 210/79/175
f 187/69/176 207/67/176 186/67/176
f 185/65/177 205/63/177 184/63/177
f 189/75/178 205/77/178 210/75/178
f 187/69/179 209/70/179 208/69/179
f 186/67/180 206/65/180 185/65/180
f 163/65/181 214/67/181 211/123/181
f 171/75/182 212/127/182 169/70/182
f 161/63/183 211/123/183 213/63/183
f 165/67/184 216/69/184 214/67/184
f 161/77/185 215/121/185 171/75/185
f 169/70/186 216/69/186 167/69/186
f 211/123/187 217/67/187 220/123/187
f 215/121/188 221/70/188 212/127/188
f 213/63/189 220/123/189 222/63/189
f 214/67/190 219/120/190 217/67/190
f 215/121/191 222/77/191 218/121/191
f 212/127/192 219/120/192 216/69/192
f 204/116/193 73/116/193 201/116/193
f 203/116/194 77/116/194 79/116/194
f 201/125/195 73/125/195 75/128/195
f 145/82/196 225/96/196 146/96/196
f 146/96/197 226/98/197 147/98/197
f 145/82/198 223/97/198 224/82/198
f 147/98/199 227/85/199 148/85/199
f 248/2/200 26/1/200 25/3/200
f 26/1/201 250/4/201 27/7/201
f 250/4/202 7/6/202 27/7/202
f 250/4/203 231/8/203 233/129/203
f 249/5/204 234/9/204 250/4/204
f 248/2/205 235/10/205 249/5/205
f 230/12/206 248/2/206 232/13/206
f 232/13/207 25/3/207 6/14/207
f 251/15/208 255/16/208 252/18/208
f 252/18/209 256/19/209 253/24/209
f 254/17/210 258/20/210 255/16/210
f 255/16/211 259/22/211 256/19/211
f 230/12/212 251/15/212 236/11/212
f 236/11/213 252/18/213 235/10/213
f 235/10/214 253/24/214 234/9/214
f 253/24/215 231/8/215 234/9/215
f 253/24/216 241/25/216 240/59/216
f 256/19/217 242/26/217 241/25/217
f 259/22/218 229/27/218 242/26/218
f 258/20/219 243/28/219 259/22/219
f 257/21/220 244/29/220 258/20/220
f 228/31/221 257/21/221 237/32/221
f 238/33/222 257/21/222 254/17/222
f 239/23/223 254/17/223 251/15/223
f 261/37/224 45/38/224 262/41/224
f 228/31/225 260/39/225 245/30/225
f 245/30/226 261/37/226 244/29/226
f 244/29/227 262/41/227 243/28/227
f 262/41/228 229/27/228 243/28/228
f 45/38/229 247/42/229 262/41/229
f 246/40/230 43/36/230 260/39/230
f 46/44/231 264/45/231 263/50/231
f 48/46/232 265/47/232 264/45/232
f 6/49/233 263/50/233 232/51/233
f 232/51/234 239/23/234 230/12/234
f 263/50/235 238/33/235 239/23/235
f 264/45/236 237/32/236 238/33/236
f 265/47/237 228/31/237 237/32/237
f 21/53/238 265/47/238 50/48/238
f 266/54/239 55/55/239 53/61/239
f 267/56/240 57/57/240 55/55/240
f 231/8/241 266/54/241 233/60/241
f 233/60/242 53/61/242 7/130/242
f 247/62/243 57/57/243 268/58/243
f 229/27/244 268/58/244 242/26/244
f 241/25/245 268/58/245 267/56/245
f 240/59/246 267/56/246 266/54/246
f 269/63/247 272/64/247 270/97/247
f 271/65/248 274/66/248 272/64/248
f 273/67/249 276/68/249 274/66/249
f 277/70/250 276/68/250 275/69/250
f 278/71/251 280/124/251 274/73/251
f 279/75/252 278/74/252 277/70/252
f 269/77/253 280/76/253 279/75/253
f 271/80/254 277/78/254 273/131/254
f 86/81/255 297/82/255 72/97/255
f 300/84/256 80/85/256 298/98/256
f 79/88/257 289/87/257 285/8/257
f 283/89/258 289/87/258 288/94/258
f 283/89/259 287/90/259 281/91/259
f 71/63/260 287/90/260 81/95/260
f 85/92/261 300/84/261 289/87/261
f 289/87/262 301/93/262 288/94/262
f 288/94/263 299/83/263 287/90/263
f 81/95/264 299/83/264 86/81/264
f 294/96/265 297/82/265 296/96/265
f 293/82/266 72/97/266 297/82/266
f 298/98/267 294/96/267 296/96/267
f 80/85/268 295/98/268 298/98/268
f 284/99/269 297/82/269 282/102/269
f 286/100/270 296/96/270 284/99/270
f 297/82/271 290/101/271 282/102/271
f 300/84/272 286/100/272 292/103/272
f 301/93/273 292/103/273 291/104/273
f 290/101/274 301/93/274 291/104/274
f 348/105/275 304/100/275 347/110/275
f 307/103/276 349/106/276 350/107/276
f 352/108/277 302/102/277 351/109/277
f 302/102/278 348/105/278 351/109/278
f 349/106/279 305/101/279 352/108/279
f 304/100/280 350/107/280 347/110/280
f 308/102/281 353/111/281 354/112/281
f 356/113/282 311/101/282 355/115/282
f 358/114/283 313/103/283 357/107/283
f 353/111/284 310/100/284 358/114/284
f 313/103/285 356/113/285 357/107/285
f 311/101/286 354/112/286 355/115/286
f 315/99/287 310/100/287 309/99/287
f 333/103/288 312/104/288 313/103/288
f 317/101/289 308/102/289 311/101/289
f 308/102/290 315/99/290 309/99/290
f 318/104/291 311/101/291 312/104/291
f 310/100/292 319/103/292 313/103/292
f 314/102/293 321/99/293 315/99/293
f 324/104/294 317/101/294 318/104/294
f 322/100/295 319/103/295 316/100/295
f 315/99/296 322/100/296 316/100/296
f 319/103/297 324/104/297 318/104/297
f 317/101/298 320/102/298 314/102/298
f 331/103/299 324/104/299 325/103/299
f 323/101/300 326/102/300 320/102/300
f 326/102/301 321/99/301 320/102/301
f 324/104/302 329/101/302 323/101/302
f 328/100/303 325/103/303 322/100/303
f 321/99/304 328/100/304 322/100/304
f 337/103/305 332/104/305 333/103/305
f 332/104/306 318/104/306 312/104/306
f 334/104/307 319/103/307 318/104/307
f 319/103/308 333/103/308 313/103/308
f 339/103/309 341/103/309 337/103/309
f 335/103/310 337/103/310 333/103/310
f 338/104/311 335/103/311 334/104/311
f 336/104/312 334/104/312 332/104/312
f 341/103/313 342/104/313 340/104/313
f 342/104/314 339/103/314 338/104/314
f 340/104/315 338/104/315 336/104/315
f 341/103/316 336/104/316 337/103/316
f 295/98/317 345/96/317 294/96/317
f 344/82/318 91/97/318 293/82/318
f 148/85/319 295/98/319 95/85/319
f 345/96/320 293/82/320 294/96/320
f 328/100/321 330/104/321 331/103/321
f 327/99/322 329/101/322 330/104/322
f 347/110/323 292/103/323 286/100/323
f 291/104/324 352/108/324 290/101/324
f 282/102/325 348/105/325 284/99/325
f 290/101/326 351/109/326 282/102/326
f 350/107/327 291/104/327 292/103/327
f 348/105/328 286/100/328 284/99/328
f 355/115/329 302/102/329 305/101/329
f 357/107/330 306/104/330 307/103/330
f 303/99/331 358/114/331 304/100/331
f 304/100/332 357/107/332 307/103/332
f 306/104/333 355/115/333 305/101/333
f 354/112/334 303/99/334 302/102/334
f 361/65/335 360/97/335 359/63/335
f 361/65/336 364/66/336 362/64/336
f 363/67/337 366/68/337 364/66/337
f 367/70/338 366/68/338 365/69/338
f 368/74/339 373/68/339 366/68/339
f 416/116/340 359/63/340 360/97/340
f 162/97/341 171/75/341 415/116/341
f 381/65/342 386/67/342 387/117/342
f 177/76/343 379/74/343 374/74/343
f 372/66/344 362/64/344 364/66/344
f 362/64/345 370/97/345 360/97/345
f 373/68/346 364/66/346 366/68/346
f 379/71/347 183/124/347 375/132/347
f 378/68/348 372/66/348 373/68/348
f 371/64/349 375/97/349 370/97/349
f 375/118/350 177/76/350 370/118/350
f 379/74/351 373/68/351 374/74/351
f 377/66/352 371/64/352 372/66/352
f 384/70/353 399/75/353 385/75/353
f 384/70/354 388/75/354 389/70/354
f 380/63/355 387/117/355 390/63/355
f 386/67/356 383/69/356 391/119/356
f 388/75/357 380/77/357 390/122/357
f 383/69/358 389/70/358 391/119/358
f 391/119/359 410/70/359 408/120/359
f 407/121/360 390/122/360 411/77/360
f 406/67/361 391/119/361 408/120/361
f 411/63/362 387/117/362 409/123/362
f 389/70/363 407/121/363 410/70/363
f 409/123/364 386/67/364 406/67/364
f 183/76/365 200/116/365 375/118/365
f 197/116/366 379/116/366 196/116/366
f 198/116/367 378/116/367 197/116/367
f 196/116/368 379/71/368 183/124/368
f 199/116/369 375/116/369 376/116/369
f 392/116/370 199/116/370 376/116/370
f 198/116/371 393/116/371 377/116/371
f 393/73/372 376/125/372 377/73/372
f 399/79/373 397/126/373 395/80/373
f 396/67/374 383/69/374 382/67/374
f 394/63/375 381/65/375 380/63/375
f 385/75/376 394/77/376 380/77/376
f 383/69/377 398/70/377 384/70/377
f 395/65/378 382/67/378 381/65/378
f 361/65/379 403/67/379 363/67/379
f 401/127/380 369/75/380 367/70/380
f 359/63/381 400/123/381 361/65/381
f 363/67/382 405/69/382 365/69/382
f 404/121/383 359/77/383 369/75/383
f 405/69/384 367/70/384 365/69/384
f 400/123/385 406/67/385 403/67/385
f 410/70/386 404/121/386 401/127/386
f 402/63/387 409/123/387 400/123/387
f 403/67/388 408/120/388 405/69/388
f 404/121/389 411/77/389 402/77/389
f 408/120/390 401/127/390 405/69/390
f 281/116/391 204/116/391 392/116/391
f 203/116/392 285/116/392 393/116/392
f 283/128/393 281/125/393 392/125/393
f 413/96/394 344/82/394 345/96/394
f 414/98/395 345/96/395 346/98/395
f 344/82/396 223/97/396 144/97/396
f 227/85/397 346/98/397 148/85/397
f 415/116/398 176/74/398 177/76/398
f 416/116/399 374/74/399 368/74/399
f 172/118/400 415/116/400 177/76/400
f 416/116/401 370/118/401 177/76/401
f 26/1/402 29/5/402 28/2/402
f 26/1/403 27/7/403 30/4/403
f 7/6/404 8/129/404 30/4/404
f 30/4/405 8/129/405 4/8/405
f 29/5/406 30/4/406 9/9/406
f 28/2/407 29/5/407 10/10/407
f 28/2/408 11/11/408 3/12/408
f 25/3/409 28/2/409 5/13/409
f 31/15/410 32/18/410 35/16/410
f 32/18/411 33/24/411 36/19/411
f 34/17/412 35/16/412 38/20/412
f 35/16/413 36/19/413 39/22/413
f 3/12/414 11/11/414 31/15/414
f 11/11/415 10/10/415 32/18/415
f 10/10/416 9/9/416 33/24/416
f 4/8/417 15/59/417 33/24/417
f 33/24/418 15/59/418 16/25/418
f 36/19/419 16/25/419 17/26/419
f 39/22/420 17/26/420 2/27/420
f 38/20/421 39/22/421 18/28/421
f 37/21/422 38/20/422 19/29/422
f 37/21/423 20/30/423 1/31/423
f 13/33/424 34/17/424 37/21/424
f 14/23/425 31/15/425 34/17/425
f 43/36/426 40/39/426 44/34/426
f 40/39/427 41/37/427 44/34/427
f 41/37/428 42/41/428 45/38/428
f 1/31/429 20/30/429 40/39/429
f 20/30/430 19/29/430 41/37/430
f 19/29/431 18/28/431 42/41/431
f 2/27/432 23/42/432 42/41/432
f 23/42/433 24/133/433 45/38/433
f 22/40/434 40/39/434 43/36/434
f 46/44/435 47/50/435 49/45/435
f 48/46/436 49/45/436 51/47/436
f 6/49/437 5/51/437 47/50/437
f 5/51/438 3/12/438 14/23/438
f 47/50/439 14/23/439 13/33/439
f 49/45/440 13/33/440 12/32/440
f 51/47/441 12/32/441 1/31/441
f 51/47/442 22/52/442 21/53/442
f 52/54/443 53/61/443 55/55/443
f 54/56/444 55/55/444 57/57/444
f 4/8/445 8/60/445 52/54/445
f 8/60/446 7/130/446 53/61/446
f 57/57/447 24/134/447 23/62/447
f 56/58/448 23/62/448 2/27/448
f 16/25/449 54/56/449 56/58/449
f 15/59/450 52/54/450 54/56/450
f 59/63/49 60/97/49 62/64/49
f 61/65/50 62/64/50 64/66/50
f 63/67/51 64/66/51 66/68/51
f 66/68/451 68/74/451 67/70/451
f 64/73/53 62/125/53 68/71/53
f 62/125/53 60/135/53 70/124/53
f 68/71/53 62/125/53 70/124/53
f 68/74/54 70/76/54 69/75/54
f 70/76/55 60/118/55 59/77/55
f 69/79/56 59/136/56 61/80/56
f 61/80/56 63/131/56 67/78/56
f 63/131/56 65/126/56 67/78/56
f 86/81/452 72/97/452 97/82/452
f 100/84/453 98/98/453 80/85/453
f 84/87/454 85/92/454 79/88/454
f 75/89/455 83/94/455 84/87/455
f 82/90/456 83/94/456 75/89/456
f 71/63/457 81/95/457 82/90/457
f 100/84/458 90/86/458 85/92/458
f 101/93/459 100/84/459 84/87/459
f 99/83/460 101/93/460 83/94/460
f 81/95/461 86/81/461 99/83/461
f 97/82/462 92/82/462 93/96/462
f 72/97/463 91/97/463 92/82/463
f 98/98/464 96/96/464 93/96/464
f 80/85/465 98/98/465 94/98/465
f 76/99/466 74/102/466 97/82/466
f 78/100/467 76/99/467 96/96/467
f 87/101/468 99/83/468 97/82/468
f 78/100/469 98/98/469 100/84/469
f 89/103/470 100/84/470 101/93/470
f 87/101/471 88/104/471 101/93/471
f 150/105/472 149/110/472 104/100/472
f 151/106/473 106/104/473 107/103/473
f 154/108/474 153/109/474 102/102/474
f 150/105/475 103/99/475 102/102/475
f 151/106/476 154/108/476 105/101/476
f 152/107/477 107/103/477 104/100/477
f 155/111/478 109/99/478 108/102/478
f 158/113/479 157/115/479 111/101/479
f 160/114/480 159/107/480 113/103/480
f 155/111/481 160/114/481 110/100/481
f 158/113/482 112/104/482 113/103/482
f 156/112/483 108/102/483 111/101/483
f 110/100/484 116/100/484 115/99/484
f 112/104/485 132/104/485 133/103/485
f 108/102/486 114/102/486 117/101/486
f 108/102/487 109/99/487 115/99/487
f 111/101/488 117/101/488 118/104/488
f 110/100/489 113/103/489 119/103/489
f 114/102/490 115/99/490 121/99/490
f 117/101/96 123/101/96 124/104/96
f 119/103/491 125/103/491 122/100/491
f 115/99/492 116/100/492 122/100/492
f 119/103/99 118/104/99 124/104/99
f 117/101/493 114/102/493 120/102/493
f 124/104/494 130/104/494 131/103/494
f 123/101/495 120/102/495 126/102/495
f 121/99/496 127/99/496 126/102/496
f 124/104/497 123/101/497 129/101/497
f 125/103/498 131/103/498 128/100/498
f 121/99/499 122/100/499 128/100/499
f 132/104/107 136/104/107 137/103/107
f 118/104/500 134/104/500 132/104/500
f 119/103/501 135/103/501 134/104/501
f 119/103/502 113/103/502 133/103/502
f 139/103/503 137/103/503 141/103/503
f 135/103/112 133/103/112 137/103/112
f 135/103/113 139/103/113 138/104/113
f 134/104/114 138/104/114 136/104/114
f 141/103/504 140/104/504 142/104/504
f 139/103/505 143/103/505 142/104/505
f 138/104/506 142/104/506 140/104/506
f 136/104/507 140/104/507 141/103/507
f 94/98/508 93/96/508 146/96/508
f 91/97/509 144/97/509 145/82/509
f 94/98/510 147/98/510 148/85/510
f 92/82/511 145/82/511 146/96/511
f 128/100/512 131/103/512 130/104/512
f 127/99/513 130/104/513 129/101/513
f 89/103/514 152/107/514 149/110/514
f 88/104/515 87/101/515 154/108/515
f 74/102/516 76/99/516 150/105/516
f 87/101/517 74/102/517 153/109/517
f 88/104/518 151/106/518 152/107/518
f 78/100/519 149/110/519 150/105/519
f 102/102/520 156/112/520 157/115/520
f 106/104/521 158/113/521 159/107/521
f 103/99/522 104/100/522 160/114/522
f 104/100/523 107/103/523 159/107/523
f 106/104/524 105/101/524 157/115/524
f 103/99/525 155/111/525 156/112/525
f 162/97/526 164/64/526 163/65/526
f 163/65/527 164/64/527 166/66/527
f 165/67/528 166/66/528 168/68/528
f 168/68/529 170/74/529 169/70/529
f 170/74/530 168/68/530 175/68/530
f 368/74/531 367/70/531 369/75/531
f 170/74/532 415/116/532 171/75/532
f 190/67/533 186/67/533 185/65/533
f 177/76/534 176/74/534 182/74/534
f 164/64/535 173/64/535 174/66/535
f 164/64/536 162/97/536 172/97/536
f 166/66/537 174/66/537 175/68/537
f 180/73/538 179/125/538 182/71/538
f 179/125/539 178/132/539 182/71/539
f 178/132/540 183/124/540 182/71/540
f 174/66/541 180/66/541 181/68/541
f 173/64/542 172/97/542 178/97/542
f 177/76/543 183/76/543 178/118/543
f 175/68/544 181/68/544 182/74/544
f 173/64/545 179/64/545 180/66/545
f 188/70/546 189/75/546 210/75/546
f 192/75/547 189/75/547 188/70/547
f 191/117/548 185/65/548 184/63/548
f 190/67/549 195/119/549 187/69/549
f 192/75/550 194/122/550 184/77/550
f 193/70/551 188/70/551 187/69/551
f 221/70/552 193/70/552 195/119/552
f 218/121/553 222/77/553 194/122/553
f 217/67/554 219/120/554 195/119/554
f 222/63/555 220/123/555 191/117/555
f 218/121/556 192/75/556 193/70/556
f 220/123/557 217/67/557 190/67/557
f 182/116/558 181/116/558 197/116/558
f 181/116/559 180/116/559 198/116/559
f 199/116/560 179/116/560 178/116/560
f 199/116/561 204/116/561 201/116/561
f 198/116/562 180/116/562 202/116/562
f 179/125/563 201/125/563 202/73/563
f 210/79/564 205/137/564 206/80/564
f 206/80/565 207/131/565 208/126/565
f 208/126/566 209/78/566 210/79/566
f 187/69/567 208/69/567 207/67/567
f 185/65/568 206/65/568 205/63/568
f 189/75/569 184/77/569 205/77/569
f 187/69/570 188/70/570 209/70/570
f 186/67/571 207/67/571 206/65/571
f 163/65/572 165/67/572 214/67/572
f 171/75/573 215/121/573 212/127/573
f 161/63/574 163/65/574 211/123/574
f 165/67/575 167/69/575 216/69/575
f 161/77/576 213/77/576 215/121/576
f 169/70/577 212/127/577 216/69/577
f 211/123/578 214/67/578 217/67/578
f 215/121/579 218/121/579 221/70/579
f 213/63/580 211/123/580 220/123/580
f 214/67/581 216/69/581 219/120/581
f 215/121/582 213/77/582 222/77/582
f 212/127/583 221/70/583 219/120/583
f 204/116/584 71/116/584 73/116/584
f 203/116/585 202/116/585 77/116/585
f 77/73/586 202/73/586 75/128/586
f 202/73/587 201/125/587 75/128/587
f 145/82/588 224/82/588 225/96/588
f 146/96/197 225/96/197 226/98/197
f 145/82/589 144/97/589 223/97/589
f 147/98/590 226/98/590 227/85/590
f 248/2/591 249/5/591 26/1/591
f 26/1/592 249/5/592 250/4/592
f 250/4/593 233/129/593 7/6/593
f 250/4/594 234/9/594 231/8/594
f 249/5/595 235/10/595 234/9/595
f 248/2/596 236/11/596 235/10/596
f 230/12/597 236/11/597 248/2/597
f 232/13/598 248/2/598 25/3/598
f 251/15/599 254/17/599 255/16/599
f 252/18/600 255/16/600 256/19/600
f 254/17/601 257/21/601 258/20/601
f 255/16/602 258/20/602 259/22/602
f 230/12/603 239/23/603 251/15/603
f 236/11/604 251/15/604 252/18/604
f 235/10/605 252/18/605 253/24/605
f 253/24/606 240/59/606 231/8/606
f 253/24/607 256/19/607 241/25/607
f 256/19/608 259/22/608 242/26/608
f 259/22/609 243/28/609 229/27/609
f 258/20/610 244/29/610 243/28/610
f 257/21/611 245/30/611 244/29/611
f 228/31/612 245/30/612 257/21/612
f 238/33/613 237/32/613 257/21/613
f 239/23/614 238/33/614 254/17/614
f 261/37/615 260/39/615 44/34/615
f 260/39/616 43/36/616 44/34/616
f 261/37/617 44/34/617 45/38/617
f 228/31/618 246/40/618 260/39/618
f 245/30/619 260/39/619 261/37/619
f 244/29/620 261/37/620 262/41/620
f 262/41/621 247/42/621 229/27/621
f 45/38/622 24/133/622 247/42/622
f 246/40/623 21/43/623 43/36/623
f 46/44/624 48/46/624 264/45/624
f 48/46/625 50/48/625 265/47/625
f 6/49/626 46/44/626 263/50/626
f 232/51/627 263/50/627 239/23/627
f 263/50/628 264/45/628 238/33/628
f 264/45/629 265/47/629 237/32/629
f 265/47/630 246/52/630 228/31/630
f 21/53/631 246/52/631 265/47/631
f 266/54/632 267/56/632 55/55/632
f 267/56/633 268/58/633 57/57/633
f 231/8/634 240/59/634 266/54/634
f 233/60/635 266/54/635 53/61/635
f 247/62/636 24/134/636 57/57/636
f 229/27/637 247/62/637 268/58/637
f 241/25/638 242/26/638 268/58/638
f 240/59/639 241/25/639 267/56/639
f 269/63/247 271/65/247 272/64/247
f 271/65/248 273/67/248 274/66/248
f 273/67/249 275/69/249 276/68/249
f 277/70/250 278/74/250 276/68/250
f 270/135/251 272/125/251 280/124/251
f 272/125/251 274/73/251 280/124/251
f 274/73/251 276/72/251 278/71/251
f 279/75/252 280/76/252 278/74/252
f 269/77/253 270/118/253 280/76/253
f 271/80/254 269/136/254 279/79/254
f 279/79/254 277/78/254 271/80/254
f 277/78/254 275/126/254 273/131/254
f 86/81/640 299/83/640 297/82/640
f 300/84/641 90/86/641 80/85/641
f 79/88/642 85/92/642 289/87/642
f 283/89/643 285/8/643 289/87/643
f 283/89/644 288/94/644 287/90/644
f 71/63/645 281/91/645 287/90/645
f 85/92/646 90/86/646 300/84/646
f 289/87/647 300/84/647 301/93/647
f 288/94/648 301/93/648 299/83/648
f 81/95/649 287/90/649 299/83/649
f 294/96/650 293/82/650 297/82/650
f 293/82/651 91/97/651 72/97/651
f 298/98/652 295/98/652 294/96/652
f 80/85/653 95/85/653 295/98/653
f 284/99/654 296/96/654 297/82/654
f 286/100/655 298/98/655 296/96/655
f 297/82/656 299/83/656 290/101/656
f 300/84/657 298/98/657 286/100/657
f 301/93/658 300/84/658 292/103/658
f 290/101/659 299/83/659 301/93/659
f 348/105/660 303/99/660 304/100/660
f 307/103/661 306/104/661 349/106/661
f 352/108/662 305/101/662 302/102/662
f 302/102/663 303/99/663 348/105/663
f 349/106/664 306/104/664 305/101/664
f 304/100/665 307/103/665 350/107/665
f 308/102/666 309/99/666 353/111/666
f 356/113/667 312/104/667 311/101/667
f 358/114/668 310/100/668 313/103/668
f 353/111/669 309/99/669 310/100/669
f 313/103/670 312/104/670 356/113/670
f 311/101/671 308/102/671 354/112/671
f 315/99/672 316/100/672 310/100/672
f 333/103/673 332/104/673 312/104/673
f 317/101/674 314/102/674 308/102/674
f 308/102/675 314/102/675 315/99/675
f 318/104/676 317/101/676 311/101/676
f 310/100/677 316/100/677 319/103/677
f 314/102/678 320/102/678 321/99/678
f 324/104/294 323/101/294 317/101/294
f 322/100/679 325/103/679 319/103/679
f 315/99/680 321/99/680 322/100/680
f 319/103/297 325/103/297 324/104/297
f 317/101/681 323/101/681 320/102/681
f 331/103/682 330/104/682 324/104/682
f 323/101/683 329/101/683 326/102/683
f 326/102/684 327/99/684 321/99/684
f 324/104/685 330/104/685 329/101/685
f 328/100/686 331/103/686 325/103/686
f 321/99/687 327/99/687 328/100/687
f 337/103/305 336/104/305 332/104/305
f 332/104/688 334/104/688 318/104/688
f 334/104/689 335/103/689 319/103/689
f 319/103/690 335/103/690 333/103/690
f 339/103/691 343/103/691 341/103/691
f 335/103/310 339/103/310 337/103/310
f 338/104/311 339/103/311 335/103/311
f 336/104/312 338/104/312 334/104/312
f 341/103/692 343/103/692 342/104/692
f 342/104/693 343/103/693 339/103/693
f 340/104/694 342/104/694 338/104/694
f 341/103/695 340/104/695 336/104/695
f 295/98/696 346/98/696 345/96/696
f 344/82/697 144/97/697 91/97/697
f 148/85/698 346/98/698 295/98/698
f 345/96/699 344/82/699 293/82/699
f 328/100/700 327/99/700 330/104/700
f 327/99/701 326/102/701 329/101/701
f 347/110/702 350/107/702 292/103/702
f 291/104/703 349/106/703 352/108/703
f 282/102/704 351/109/704 348/105/704
f 290/101/705 352/108/705 351/109/705
f 350/107/706 349/106/706 291/104/706
f 348/105/707 347/110/707 286/100/707
f 355/115/708 354/112/708 302/102/708
f 357/107/709 356/113/709 306/104/709
f 303/99/710 353/111/710 358/114/710
f 304/100/711 358/114/711 357/107/711
f 306/104/712 356/113/712 355/115/712
f 354/112/713 353/111/713 303/99/713
f 361/65/714 362/64/714 360/97/714
f 361/65/715 363/67/715 364/66/715
f 363/67/716 365/69/716 366/68/716
f 367/70/717 368/74/717 366/68/717
f 368/74/718 374/74/718 373/68/718
f 416/116/719 369/75/719 359/63/719
f 162/97/720 161/63/720 171/75/720
f 381/65/721 382/67/721 386/67/721
f 177/76/722 183/76/722 379/74/722
f 372/66/723 371/64/723 362/64/723
f 362/64/724 371/64/724 370/97/724
f 373/68/725 372/66/725 364/66/725
f 375/132/726 376/125/726 379/71/726
f 376/125/727 377/73/727 379/71/727
f 377/73/728 378/72/728 379/71/728
f 378/68/729 377/66/729 372/66/729
f 371/64/730 376/64/730 375/97/730
f 375/118/731 183/76/731 177/76/731
f 379/74/732 378/68/732 373/68/732
f 377/66/733 376/64/733 371/64/733
f 384/70/734 398/70/734 399/75/734
f 384/70/735 385/75/735 388/75/735
f 380/63/736 381/65/736 387/117/736
f 386/67/737 382/67/737 383/69/737
f 388/75/738 385/75/738 380/77/738
f 383/69/739 384/70/739 389/70/739
f 391/119/740 389/70/740 410/70/740
f 407/121/741 388/75/741 390/122/741
f 406/67/742 386/67/742 391/119/742
f 411/63/743 390/63/743 387/117/743
f 389/70/744 388/75/744 407/121/744
f 409/123/745 387/117/745 386/67/745
f 197/116/746 378/116/746 379/116/746
f 198/116/747 377/116/747 378/116/747
f 199/116/748 200/116/748 375/116/748
f 392/116/749 204/116/749 199/116/749
f 198/116/750 203/116/750 393/116/750
f 393/73/751 392/125/751 376/125/751
f 395/80/752 394/137/752 399/79/752
f 399/79/753 398/78/753 397/126/753
f 397/126/754 396/131/754 395/80/754
f 396/67/755 397/69/755 383/69/755
f 394/63/756 395/65/756 381/65/756
f 385/75/757 399/75/757 394/77/757
f 383/69/758 397/69/758 398/70/758
f 395/65/759 396/67/759 382/67/759
f 361/65/760 400/123/760 403/67/760
f 401/127/761 404/121/761 369/75/761
f 359/63/762 402/63/762 400/123/762
f 363/67/763 403/67/763 405/69/763
f 404/121/764 402/77/764 359/77/764
f 405/69/765 401/127/765 367/70/765
f 400/123/766 409/123/766 406/67/766
f 410/70/767 407/121/767 404/121/767
f 402/63/768 411/63/768 409/123/768
f 403/67/769 406/67/769 408/120/769
f 404/121/770 407/121/770 411/77/770
f 408/120/771 410/70/771 401/127/771
f 281/116/772 71/116/772 204/116/772
f 203/116/773 79/116/773 285/116/773
f 392/125/774 393/73/774 283/128/774
f 393/73/775 285/73/775 283/128/775
f 413/96/776 412/82/776 344/82/776
f 414/98/395 413/96/395 345/96/395
f 344/82/777 412/82/777 223/97/777
f 227/85/778 414/98/778 346/98/778
f 415/116/779 170/74/779 176/74/779
f 416/116/780 177/76/780 374/74/780
f 172/118/781 162/97/781 415/116/781
f 416/116/782 360/97/782 370/118/782
