# Blender 5.0.0
# www.blender.org
o body
v 0.496492 -0.836496 9.718165
v 0.583336 -0.739345 10.989103
v 0.476577 0.278155 9.785423
v 0.565221 0.486406 11.024816
v 0.246627 0.341088 9.689535
v -0.000000 0.369678 9.634853
v -0.000000 0.658669 11.158461
v 0.340386 0.599495 11.113946
v 0.631619 0.554539 10.783483
v 0.646511 0.545035 10.424591
v 0.576865 0.424383 10.052812
v 0.562963 -0.631520 9.632069
v 0.591550 -0.317049 9.603366
v 0.550611 0.022595 9.674462
v 0.654626 0.225672 11.104150
v 0.703310 -0.145583 11.137045
v 0.665741 -0.502555 11.083200
v 0.654036 -0.830153 10.736200
v 0.671875 -0.892060 10.363523
v 0.600616 -0.885222 9.984029
v -0.000000 -0.970372 9.552271
v 0.267098 -0.925011 9.611331
v 0.358752 -0.817453 11.076907
v -0.000000 -0.856363 11.122095
v -0.000000 0.674132 10.006092
v -0.000000 0.858995 10.424788
v -0.000000 0.860968 10.830482
v 0.290903 0.614872 10.032044
v 0.337850 0.778810 10.428063
v 0.344425 0.778266 10.810805
v 0.749642 0.108478 10.012496
v 0.841644 0.194318 10.409918
v 0.811618 0.221481 10.795613
v 0.812126 -0.260919 9.969340
v 0.912852 -0.205322 10.390132
v 0.878665 -0.167071 10.801352
v 0.764291 -0.610046 9.972022
v 0.857600 -0.587271 10.373847
v 0.825386 -0.539852 10.767981
v 0.317045 -1.052687 9.947970
v 0.365526 -1.074153 10.232232
v 0.369003 -0.996871 10.755657
v -0.000000 -1.112858 9.970151
v -0.000000 -1.133464 10.227304
v -0.000000 -1.050111 10.775255
v -0.000000 0.004889 9.368676
v 0.255090 0.002209 9.454175
v -0.000000 -0.369840 9.253263
v 0.272938 -0.355472 9.352412
v -0.000000 -0.709899 9.319159
v 0.266506 -0.681006 9.406844
v 0.373244 0.271111 11.290758
v -0.000000 0.302962 11.354613
v 0.399412 -0.129139 11.343382
v -0.000000 -0.120306 11.413112
v 0.383312 -0.515705 11.271723
v -0.000000 -0.530811 11.336290
v -0.000000 -1.256591 10.038412
v 0.899103 0.129189 10.399262
v 0.964296 0.059744 10.420348
v 0.972883 0.157159 10.216904
v 1.038076 0.087714 10.237989
v 0.910948 0.053346 9.973763
v 0.976141 -0.016099 9.994848
v 0.775233 -0.078438 9.912977
v 0.840426 -0.147883 9.934063
v 0.701452 -0.106409 10.095336
v 0.766645 -0.175854 10.116422
v 0.763387 -0.002595 10.338478
v 0.828580 -0.072040 10.359564
v 0.000000 0.608116 6.781924
v -0.000045 0.614790 8.930369
v 0.504716 0.474077 6.596307
v 0.828592 0.172289 8.510680
v 0.598099 0.170520 6.554005
v 0.958574 0.094052 8.851814
v 0.495931 -0.139787 6.504269
v 0.866826 -0.238256 8.879639
v -0.000000 -0.261991 6.643019
v 0.000046 -0.515970 8.616916
v -0.000000 0.657830 7.414983
v 0.570470 0.441254 7.424018
v 0.767003 0.008150 7.449043
v 0.571978 -0.313378 7.453707
v -0.000000 -0.421472 7.414983
v 0.000174 0.702115 8.505058
v 0.703731 0.101927 8.088130
v 0.718557 -0.211115 8.069041
v 0.697334 -0.454566 8.311916
v 0.000479 -0.482186 8.288951
v -0.000000 0.515979 9.101259
v 0.439944 0.411846 9.043901
v 0.633971 0.104188 9.051874
v 0.435112 -0.197822 9.065621
v -0.000000 -0.334730 8.893642
v 0.958144 0.100868 8.860717
v 0.710209 0.371924 8.693645
v 0.738433 -0.247657 8.975854
v 0.614277 0.340578 7.978858
v 0.622175 -0.406373 8.294853
v 0.716524 -0.181672 8.049310
v 1.568425 -0.567752 7.008351
v 1.659577 -0.703696 7.092123
v 1.563802 -0.889563 7.210130
v 1.164459 -0.643408 6.869939
v 1.097270 -0.808747 6.896548
v 1.161238 -0.968503 7.066089
v 1.945185 -1.475331 5.860576
v 2.010612 -1.589580 5.948339
v 1.943172 -1.705991 6.058779
v 1.639177 -1.524165 5.800990
v 1.585658 -1.659646 5.857367
v 1.637715 -1.757054 5.996401
v 1.971244 -1.472432 5.754853
v 2.060314 -1.589813 5.930436
v 1.988856 -1.822546 6.078650
v 1.817263 -1.574550 5.642087
v 1.787565 -1.726477 5.755141
v 1.816098 -1.970647 5.967287
v 2.245008 -1.685806 5.385084
v 2.301656 -1.894635 5.550206
v 2.243417 -2.136779 5.758306
v 2.084437 -1.851373 5.296779
v 2.054738 -2.003300 5.409833
v 2.083271 -2.247470 5.621979
v 2.184880 -2.117499 4.987348
v 2.196098 -2.281814 5.072168
v 2.184970 -2.430035 5.246629
v 2.094487 -2.136284 5.081354
v 2.068203 -2.231902 5.131712
v 2.093836 -2.394144 5.292370
v 1.576300 -1.832315 5.721828
v 1.607796 -1.908953 5.849245
v 1.771231 -1.856918 5.674989
v 1.791652 -2.061947 5.861534
v 1.629051 -2.005944 5.587850
v 1.654858 -2.068741 5.692254
v 1.788777 -2.026103 5.549469
v 1.805509 -2.194103 5.702324
v 1.704813 -2.188480 5.447336
v 1.715658 -2.231077 5.524474
v 1.822618 -2.185645 5.441437
v 1.831850 -2.303841 5.552365
v -0.000000 0.404502 9.231801
v 0.158780 0.287954 9.203405
v 0.252719 0.101461 9.139885
v 0.182110 -0.006843 9.139885
v -0.000000 -0.116119 9.101857
v 1.513466 -0.858829 7.315886
v 1.609212 -0.652064 7.221693
v 1.078571 -0.777989 6.949496
v 1.131947 -0.950938 7.123395
v 1.519652 -0.510245 7.133579
v 1.135855 -0.601227 6.944489
v 1.698684 -0.761617 6.984809
v 1.610061 -0.633937 6.893025
v 1.199372 -0.704147 6.796061
v 1.127144 -0.860334 6.844695
v 1.197594 -0.996989 7.026229
v 1.606360 -0.927010 7.124348
v 0.508210 1.362188 4.121554
v 0.519509 0.958552 5.425763
v 0.863355 1.186465 4.011072
v 1.026829 0.715679 5.545576
v 0.863355 0.945803 3.897330
v 1.028275 0.293815 5.270571
v 0.508191 0.760190 3.799882
v 0.513592 0.110208 5.058135
v 0.152952 0.942442 3.900240
v 0.144936 0.251649 5.251214
v 0.153066 1.170259 4.034483
v 0.512164 0.927086 5.687632
v 1.018174 0.614003 5.708838
v 1.020134 0.187863 5.443432
v 0.515757 0.037120 5.168828
v 0.136937 0.170365 5.350234
v -0.000000 0.735651 5.490973
v 0.418974 0.884329 5.820849
v 0.879472 0.474162 6.062531
v 0.876436 -0.036206 5.890636
v 0.449170 -0.148152 5.501585
v 0.134332 0.079004 5.489280
v -0.000000 0.806164 5.614558
v 0.430883 3.150789 2.837498
v 0.691277 3.073366 2.708628
v 0.691277 2.918522 2.450888
v 0.430883 2.841103 2.321903
v 0.170489 2.918489 2.450192
v 0.170489 3.073366 2.708628
v 0.822906 1.442169 3.440924
v 0.822906 1.579624 3.646133
v 0.152560 1.554688 3.612115
v 0.152560 1.415887 3.406276
v 0.487733 1.676578 3.844534
v 0.487733 1.013165 3.454947
v -0.000000 -0.007305 5.612023
v -0.000000 -0.195223 5.710382
v -0.000000 -0.265431 5.960736
v -0.000000 0.810350 6.187533
v -0.000000 0.831596 5.869986
v 0.713104 0.432808 6.359249
v 0.709689 -0.105516 6.239727
v -0.000000 -0.233894 6.305215
v 0.000000 0.628045 6.532921
v 0.430883 4.415987 1.795071
v 0.625711 4.407820 1.687291
v 0.625711 4.427453 1.436538
v 0.430883 4.435664 1.325093
v 0.236055 4.412403 1.446821
v 0.236055 4.408274 1.685858
v 0.856043 1.191794 3.911068
v 0.152881 0.987294 3.760731
v 0.504509 1.355864 4.062217
v 0.856043 1.002815 3.774724
v 0.152975 1.190981 3.928850
v 0.504493 0.794123 3.721811
v 0.847217 1.092363 3.640641
v 0.152864 1.258362 3.831704
v 0.500029 0.842445 3.630318
v 0.847217 1.265480 3.828690
v 0.152796 1.081166 3.640084
v 0.500040 1.386517 3.981344
v -0.000000 0.330200 9.872703
v 0.182652 0.209765 9.872703
v 0.252719 0.101462 9.872703
v 0.182110 -0.006843 9.872703
v -0.000000 -0.127185 9.817629
v -0.496493 -0.836496 9.718165
v -0.583336 -0.739345 10.989103
v -0.476577 0.278155 9.785423
v -0.565221 0.486406 11.024816
v -0.246627 0.341088 9.689535
v -0.340386 0.599495 11.113946
v -0.631619 0.554539 10.783483
v -0.646511 0.545035 10.424591
v -0.576865 0.424383 10.052812
v -0.562963 -0.631520 9.632069
v -0.591550 -0.317049 9.603366
v -0.550611 0.022595 9.674462
v -0.654626 0.225672 11.104150
v -0.703310 -0.145583 11.137045
v -0.665741 -0.502555 11.083200
v -0.654036 -0.830153 10.736200
v -0.671875 -0.892060 10.363523
v -0.600616 -0.885222 9.984029
v -0.267098 -0.925011 9.611331
v -0.358752 -0.817453 11.076907
v -0.290903 0.614872 10.032044
v -0.337850 0.778810 10.428063
v -0.344425 0.778266 10.810805
v -0.749642 0.108478 10.012496
v -0.841644 0.194318 10.409918
v -0.811618 0.221481 10.795613
v -0.812126 -0.260919 9.969340
v -0.912852 -0.205322 10.390132
v -0.878665 -0.167071 10.801352
v -0.764291 -0.610046 9.972022
v -0.857600 -0.587271 10.373847
v -0.825386 -0.539852 10.767981
v -0.317045 -1.052687 9.947970
v -0.365526 -1.074153 10.232232
v -0.369003 -0.996871 10.755657
v -0.255090 0.002209 9.454175
v -0.272938 -0.355472 9.352412
v -0.266506 -0.681006 9.406844
v -0.373244 0.271111 11.290758
v -0.399412 -0.129139 11.343382
v -0.383312 -0.515705 11.271723
v -0.899103 0.129189 10.399262
v -0.964296 0.059744 10.420348
v -0.972883 0.157159 10.216904
v -1.038076 0.087714 10.237989
v -0.910948 0.053346 9.973763
v -0.976141 -0.016099 9.994848
v -0.775233 -0.078438 9.912977
v -0.840426 -0.147883 9.934063
v -0.701452 -0.106409 10.095336
v -0.766645 -0.175854 10.116422
v -0.763387 -0.002595 10.338478
v -0.828580 -0.072040 10.359564
v -0.504526 0.476275 6.662105
v -0.822539 0.502105 8.734646
v -0.598793 0.169840 6.619402
v -0.956850 0.168174 8.817744
v -0.495657 -0.119370 6.580627
v -0.863605 -0.033389 8.558112
v -0.567884 0.578974 7.482290
v -0.761827 0.295311 7.484822
v -0.569704 -0.169387 7.432232
v -0.689869 0.802686 8.435386
v -0.701895 0.661147 8.164364
v -0.684172 0.302072 8.081517
v -0.440480 0.372131 9.073731
v -0.634111 0.086780 9.043488
v -0.435369 -0.214150 9.032477
v -0.956581 0.163025 8.828710
v -0.708775 0.431529 8.856819
v -0.738420 -0.238283 8.838361
v -0.607075 0.696619 8.189461
v -0.616803 -0.124049 8.148247
v -0.701429 0.608252 8.134827
v -1.529297 1.592921 7.456047
v -1.620219 1.458812 7.371861
v -1.524580 1.273078 7.254663
v -1.125189 1.684850 7.327328
v -1.058421 1.590608 7.187506
v -1.121884 1.369615 7.118951
v -1.961052 2.170087 6.135077
v -2.026551 2.037459 6.078898
v -1.958599 1.886098 6.026278
v -1.658669 2.204420 6.051636
v -1.606971 2.091303 5.957140
v -1.656921 1.921818 5.939573
v -1.990582 2.264009 6.088480
v -2.076818 2.052258 6.072180
v -2.006730 1.812419 5.935054
v -1.843326 2.317213 5.939015
v -1.813955 2.146025 5.857916
v -1.841915 1.842834 5.745075
v -2.282374 2.483131 5.736277
v -2.339052 2.237632 5.633310
v -2.280402 1.940425 5.516867
v -2.129427 2.484755 5.542373
v -2.100057 2.313568 5.461274
v -2.128017 2.010376 5.348433
v -2.247452 2.628639 5.165509
v -2.260251 2.475701 5.061749
v -2.247257 2.251957 5.013798
v -2.154478 2.538548 5.190007
v -2.129111 2.449224 5.128792
v -2.153690 2.230332 5.063428
v -1.606885 2.128544 5.740609
v -1.636124 1.979501 5.734968
v -1.803884 2.154756 5.704527
v -1.823543 1.892833 5.613624
v -1.668825 2.162913 5.526454
v -1.692783 2.040788 5.521832
v -1.830245 2.184390 5.496889
v -1.846353 1.969772 5.422403
v -1.754217 2.198403 5.302284
v -1.763600 2.110119 5.301883
v -1.872034 2.202956 5.306682
v -1.880714 2.049026 5.255784
v -0.158780 0.287954 9.203405
v -0.252719 0.101461 9.139885
v -0.182110 -0.006843 9.139885
v -1.478824 1.191172 7.316602
v -1.574568 1.363029 7.465151
v -1.039609 1.554333 7.242829
v -1.094042 1.325257 7.156758
v -1.484907 1.500718 7.558363
v -1.097981 1.631436 7.401782
v -1.658590 1.525868 7.282374
v -1.569875 1.667093 7.350182
v -1.162887 1.726318 7.229666
v -1.092934 1.611129 7.111717
v -1.160706 1.386956 7.078948
v -1.565865 1.328146 7.196635
v -0.508053 -0.862626 4.211072
v -0.519458 0.370989 5.096097
v -0.866564 -1.038280 4.321393
v -1.031588 0.169670 5.409727
v -0.866564 -1.245734 4.490090
v -1.033048 -0.267464 5.675986
v -0.508034 -1.416619 4.615749
v -0.513485 -0.543563 5.728086
v -0.149427 -1.246895 4.494578
v -0.141336 -0.224558 5.534831
v -0.149542 -1.022217 4.336880
v -0.512044 0.621802 5.348821
v -1.022851 0.319194 5.577114
v -1.024829 -0.142437 5.811792
v -0.515671 -0.459366 5.778299
v -0.133260 -0.137037 5.575107
v -0.417970 0.754970 5.561861
v -0.882834 0.492229 6.098185
v -0.879769 0.022614 6.112278
v -0.448454 -0.310112 5.907097
v -0.130631 -0.040661 5.625664
v -0.429993 -1.169935 2.040811
v -0.658826 -1.301992 2.044770
v -0.658826 -1.566106 2.052689
v -0.429993 -1.698164 2.056648
v -0.201160 -1.566107 2.052689
v -0.201160 -1.301992 2.044770
v -0.825732 -1.443549 3.842092
v -0.825732 -1.193679 3.822212
v -0.149032 -1.235944 3.827374
v -0.149032 -1.486635 3.847943
v -0.487382 -0.970815 3.834623
v -0.487382 -1.639048 4.227346
v -0.714889 0.439648 6.420106
v -0.711441 -0.044640 6.349472
v -0.429993 -1.396234 0.412657
v -0.608103 -1.500422 0.407723
v -0.608103 -1.704191 0.435565
v -0.429993 -1.806076 0.449485
v -0.251884 -1.704191 0.435565
v -0.251884 -1.500422 0.407723
v -0.859183 -1.139601 4.281297
v -0.149356 -1.367603 4.394310
v -0.504316 -0.929774 4.204852
v -0.859183 -1.340569 4.385625
v -0.149450 -1.124114 4.290342
v -0.504300 -1.479327 4.549389
v -0.850273 -1.432546 4.247077
v -0.149339 -1.184780 4.191733
v -0.499794 -1.548930 4.463383
v -0.850273 -1.184584 4.184022
v -0.149269 -1.439019 4.256444
v -0.499806 -0.991220 4.149568
v -0.182652 0.209765 9.872703
v -0.252719 0.101462 9.872703
v -0.182110 -0.006843 9.872703
v 0.213411 0.630222 5.398856
v -0.199640 0.406778 5.250484
vn 0.2171 0.8930 -0.3943
vn 0.2309 0.9730 -0.0026
vn 0.2282 0.8287 0.5111
vn 0.5934 0.7171 0.3657
vn 0.6038 0.7971 0.0039
vn 0.5368 0.7678 -0.3497
vn 0.4335 0.6757 -0.5962
vn 0.2244 0.7535 -0.6180
vn 0.9488 0.1900 -0.2522
vn 0.9829 0.1719 0.0657
vn 0.9669 -0.1341 -0.2169
vn 0.9843 -0.1466 0.0981
vn 0.7198 0.4412 -0.5359
vn 0.8218 0.4872 -0.2955
vn 0.8739 0.4848 0.0339
vn 0.8176 0.4547 0.3533
vn 0.8793 0.1584 0.4492
vn 0.8717 -0.1659 0.4611
vn 0.7717 -0.4987 0.3948
vn 0.8452 -0.5193 0.1267
vn 0.8441 -0.5094 -0.1677
vn 0.7852 -0.4383 -0.4373
vn 0.8572 -0.1236 -0.4999
vn 0.8229 0.2097 -0.5281
vn 1.0000 -0.0000 -0.0000
vn 0.1564 -0.9765 0.1485
vn 0.4800 -0.7943 -0.3725
vn 0.5169 -0.8425 -0.1518
vn 0.4664 -0.8756 0.1262
vn 0.4808 -0.7739 0.4123
vn 0.1500 -0.8611 0.4857
vn 0.2261 -0.9220 -0.3144
vn 0.3148 0.2794 -0.9071
vn 0.3250 -0.1799 -0.9284
vn 0.2669 0.5681 -0.7785
vn 0.4934 0.5045 -0.7086
vn 0.5804 0.2495 -0.7751
vn 0.6137 -0.1420 -0.7766
vn 0.5175 -0.5489 -0.6564
vn 0.3026 -0.6356 -0.7102
vn 0.1733 0.1395 0.9749
vn 0.1703 -0.1865 0.9676
vn 0.5492 0.4099 0.7283
vn 0.1876 0.4801 0.8569
vn 0.1601 -0.5446 0.8233
vn 0.5064 -0.4648 0.7263
vn 0.5518 -0.1809 0.8141
vn 0.5611 0.1458 0.8148
vn 0.6237 0.6944 0.3588
vn 0.7220 0.5506 -0.4190
vn 0.3616 0.0569 -0.9306
vn -0.6237 -0.6944 -0.3589
vn 0.6532 -0.7421 0.1505
vn -0.7220 -0.5506 0.4190
vn -0.3616 -0.0569 0.9306
vn -0.6532 0.7421 -0.1505
vn 0.4410 0.8921 -0.0983
vn 0.1214 -0.9874 -0.1016
vn 0.1841 -0.9642 -0.1910
vn 0.9478 -0.2914 -0.1292
vn 0.9513 0.3015 -0.0636
vn 0.2626 0.9647 0.0174
vn 0.1922 -0.9741 -0.1192
vn 0.8508 -0.5174 -0.0921
vn 0.9106 0.4134 0.0031
vn 0.3495 0.9264 0.1405
vn 0.3646 0.7070 0.6060
vn 0.3723 0.9098 0.1836
vn 0.2619 -0.1289 0.9565
vn 0.0466 -0.8356 0.5473
vn 0.7886 0.5060 -0.3493
vn 0.6010 -0.1177 0.7905
vn 0.6658 0.6787 -0.3098
vn -0.5539 -0.7095 0.4357
vn -0.8516 -0.3311 -0.4063
vn 0.8697 0.1052 -0.4822
vn 0.8871 -0.1901 0.4206
vn -0.8174 -0.5139 -0.2603
vn 0.0051 0.8712 -0.4910
vn 0.8254 0.5609 0.0639
vn -0.8474 0.2709 -0.4566
vn 0.0725 -0.9480 0.3100
vn 0.8559 0.5005 -0.1301
vn -0.8553 0.1291 -0.5017
vn 0.0135 -0.8052 0.5929
vn 0.9066 -0.1515 0.3939
vn -0.8771 -0.4798 -0.0208
vn 0.0166 0.7752 -0.6315
vn 0.2808 0.5699 0.7722
vn -0.9522 -0.0940 0.2906
vn -0.0742 0.9236 -0.3760
vn 0.6376 0.7496 0.1777
vn -0.4882 -0.1638 -0.8572
vn -0.5086 -0.0529 0.8594
vn 0.8147 0.4792 0.3266
vn -0.8463 -0.2016 -0.4932
vn 0.0996 -0.6696 0.7360
vn 0.8864 0.1601 0.4343
vn -0.8522 -0.3964 -0.3416
vn -0.2656 0.6414 -0.7197
vn -0.9945 -0.1038 0.0143
vn -0.6952 0.4178 -0.5850
vn 0.9694 0.0792 -0.2325
vn -0.9681 0.1685 -0.1854
vn 0.1938 -0.8605 0.4711
vn 0.9824 -0.1685 -0.0805
vn -0.9466 -0.3197 0.0417
vn -0.1860 0.6129 -0.7680
vn 0.9866 -0.0246 -0.1610
vn -0.5247 -0.5806 0.6225
vn -0.5513 -0.7165 0.4275
vn -0.5761 -0.6529 0.4918
vn 0.9948 0.1013 0.0025
vn -0.1194 0.5836 -0.8033
vn -0.2542 -0.6723 -0.6952
vn 0.9844 0.1615 0.0698
vn -0.1224 0.5730 -0.8104
vn -0.9321 -0.3621 0.0126
vn 0.1915 -0.1249 0.9735
vn 0.2314 0.5274 0.8175
vn -0.0690 -0.6880 0.7224
vn 0.2208 0.1641 0.9614
vn -0.5155 -0.6365 -0.5737
vn -0.6227 -0.3921 -0.6771
vn -0.0207 -0.9322 0.3614
vn -0.8685 0.2697 -0.4158
vn 0.8056 0.5810 0.1163
vn 0.0477 0.8588 -0.5100
vn -0.9453 -0.1853 -0.2683
vn 0.8734 -0.2041 0.4421
vn 0.0638 0.7855 -0.6156
vn -0.7598 -0.5913 -0.2705
vn 0.8984 -0.1548 0.4109
vn 0.0537 -0.9051 0.4218
vn -0.7732 0.1671 -0.6117
vn 0.8346 0.5506 -0.0147
vn 0.4912 0.8333 0.2536
vn 0.9942 0.0461 -0.0975
vn 0.5083 -0.7642 -0.3970
vn -0.5052 -0.7676 -0.3944
vn -0.5021 -0.6481 -0.5726
vn 0.9963 0.0684 -0.0524
vn -1.0000 0.0031 -0.0044
vn 0.9972 0.0619 -0.0414
vn -0.9733 -0.1994 0.1138
vn 0.9992 -0.0195 0.0351
vn 0.4435 0.7501 0.4906
vn 0.4658 -0.7342 -0.4939
vn -0.4527 -0.5913 0.6674
vn 0.4439 -0.8177 -0.3665
vn 0.4342 0.7664 0.4733
vn -0.3644 0.9302 0.0436
vn -0.4877 -0.7254 -0.4857
vn 0.9609 -0.1432 0.2370
vn -0.9990 0.0444 0.0008
vn -0.9999 0.0083 -0.0056
vn 0.5449 0.4872 0.6824
vn 0.5002 -0.4511 -0.7391
vn -0.5000 0.4471 0.7417
vn -0.4647 -0.4769 -0.7461
vn -0.4642 -0.6507 -0.6009
vn -0.6119 0.4705 0.6357
vn 0.4884 -0.4068 -0.7720
vn 0.5501 0.3752 0.7460
vn -1.0000 -0.0003 0.0006
vn 0.9978 0.0556 -0.0372
vn 0.1356 -0.9859 0.0982
vn -0.4554 -0.4128 -0.7887
vn -0.0246 -0.9626 -0.2699
vn -0.6753 0.0023 -0.7375
vn -0.1169 0.9909 0.0663
vn 0.3776 0.8643 0.3322
vn 0.1853 -0.9786 0.0896
vn 0.9039 -0.1413 0.4037
vn 0.0009 0.9971 0.0762
vn 0.5001 -0.4681 -0.7286
vn 0.4959 0.5522 0.6702
vn -0.4204 0.5647 0.7101
vn -0.4228 -0.4804 -0.7684
vn 0.9992 0.0336 -0.0202
vn 0.9963 0.0506 -0.0701
vn -1.0000 0.0002 0.0006
vn 0.3765 0.9184 -0.1214
vn 0.5131 -0.7662 -0.3869
vn -0.5002 0.8497 0.1671
vn -0.5027 -0.8012 -0.3244
vn 0.9968 0.0588 -0.0542
vn -1.0000 -0.0001 0.0006
vn 0.4288 0.8524 0.2994
vn 0.5160 -0.6962 -0.4990
vn -0.4813 0.7200 0.5000
vn -0.4759 -0.7871 -0.3925
vn 0.2815 0.9561 0.0810
vn 0.2171 -0.9728 -0.0809
vn 0.7555 0.1433 0.6392
vn 0.8931 0.4499 -0.0000
vn 0.8377 -0.5461 -0.0000
vn 0.5488 0.8323 0.0777
vn 0.5165 -0.8562 -0.0132
vn -0.2171 0.8930 -0.3943
vn -0.2332 0.9724 -0.0047
vn -0.2282 0.8287 0.5111
vn -0.5362 0.7239 0.4341
vn -0.6140 0.7893 -0.0094
vn -0.5575 0.7416 -0.3731
vn -0.4335 0.6757 -0.5962
vn -0.2244 0.7535 -0.6180
vn -0.9486 0.1818 -0.2589
vn -0.9832 0.1706 0.0645
vn -0.9679 -0.1309 -0.2144
vn -0.9842 -0.1492 0.0957
vn -0.7191 0.4598 -0.5211
vn -0.8258 0.4724 -0.3080
vn -0.8791 0.4760 0.0239
vn -0.8176 0.4547 0.3533
vn -0.8813 0.1551 0.4463
vn -0.8704 -0.1617 0.4650
vn -0.7756 -0.4470 0.4457
vn -0.8474 -0.5145 0.1312
vn -0.8444 -0.5089 -0.1672
vn -0.7852 -0.4383 -0.4373
vn -0.8583 -0.1214 -0.4987
vn -0.8209 0.2013 -0.5345
vn -0.1488 -0.9784 0.1435
vn -0.5095 -0.7887 -0.3441
vn -0.5440 -0.8308 -0.1171
vn -0.5063 -0.8464 0.1648
vn -0.4808 -0.7739 0.4123
vn -0.1500 -0.8611 0.4857
vn -0.1482 -0.9172 -0.3698
vn -0.3082 0.2745 -0.9109
vn -0.3445 -0.1614 -0.9248
vn -0.2408 0.5577 -0.7943
vn -0.4461 0.4620 -0.7665
vn -0.5707 0.2336 -0.7872
vn -0.6232 -0.1271 -0.7717
vn -0.5828 -0.4680 -0.6643
vn -0.3026 -0.6356 -0.7102
vn -0.1783 0.1347 0.9747
vn -0.1652 -0.1814 0.9694
vn -0.5146 0.4458 0.7324
vn -0.1947 0.4737 0.8589
vn -0.1601 -0.5446 0.8233
vn -0.5064 -0.4648 0.7263
vn -0.5466 -0.1746 0.8190
vn -0.5630 0.1438 0.8139
vn -0.6237 0.6944 0.3588
vn -0.7220 0.5506 -0.4190
vn -0.3616 0.0569 -0.9306
vn 0.6237 -0.6944 -0.3588
vn -0.6532 -0.7421 0.1505
vn 0.7220 -0.5506 0.4190
vn 0.3616 -0.0569 0.9306
vn 0.6532 0.7421 -0.1505
vn -0.2644 0.9447 0.1938
vn -0.4001 -0.8902 -0.2179
vn -0.2664 -0.9606 -0.0796
vn -0.9221 -0.3676 -0.1204
vn -0.9454 0.3063 -0.1114
vn -0.1461 0.9862 -0.0774
vn -0.4036 -0.9144 0.0313
vn -0.8783 -0.3938 0.2712
vn -0.8182 0.5581 -0.1382
vn 0.0121 0.9991 -0.0406
vn -0.4635 0.3422 0.8174
vn -0.2626 0.7975 0.5432
vn -0.5770 -0.2954 0.7615
vn -0.2033 -0.8811 0.4269
vn -0.5428 0.4018 0.7375
vn -0.9495 -0.2924 -0.1140
vn -0.2284 0.7357 0.6377
vn -0.8575 -0.2092 -0.4701
vn -0.9895 -0.0771 0.1224
vn 0.9965 0.0473 -0.0689
vn -0.8733 -0.4872 0.0008
vn 0.8173 0.0222 -0.5758
vn 0.0170 0.7464 0.6653
vn -0.8301 0.1843 0.5262
vn 0.8524 0.5194 0.0611
vn -0.0975 -0.6344 -0.7669
vn -0.8476 0.3349 0.4115
vn 0.8024 0.5885 -0.0989
vn 0.0071 -0.9040 -0.4274
vn -0.8881 -0.4522 0.0824
vn 0.8633 -0.1928 -0.4665
vn -0.0208 0.9233 0.3835
vn -0.2390 -0.4128 0.8789
vn 0.9586 -0.2843 0.0173
vn 0.0865 0.7712 0.6307
vn -0.2105 -0.2913 0.9332
vn 0.4544 0.6842 -0.5705
vn 0.1771 -0.9591 0.2210
vn -0.7720 0.2701 0.5754
vn 0.8233 0.3521 -0.4451
vn -0.0928 -0.9675 -0.2354
vn -0.8025 -0.4551 0.3859
vn 0.8291 0.1263 -0.5447
vn 0.1301 0.8866 0.4438
vn 0.9912 -0.0452 -0.1242
vn 0.3105 0.9164 0.2526
vn -0.9742 0.2258 -0.0020
vn 0.9813 0.1878 -0.0411
vn -0.2010 -0.8268 -0.5253
vn -0.9797 -0.1352 -0.1483
vn 0.9384 -0.1728 -0.2992
vn 0.1764 0.9701 0.1669
vn -0.9918 0.1133 -0.0587
vn 0.5384 -0.8238 -0.1775
vn 0.5877 -0.6980 -0.4092
vn 0.5745 -0.7333 -0.3636
vn -0.9911 0.0293 0.1300
vn 0.1079 0.9860 0.1270
vn -0.0370 0.0085 -0.9993
vn -0.9767 -0.0011 0.2145
vn 0.1104 0.9873 0.1142
vn 0.9218 -0.1676 -0.3496
vn -0.2338 -0.1893 0.9537
vn -0.2223 0.5233 0.8226
vn 0.0399 -0.6891 0.7235
vn -0.2469 0.0651 0.9669
vn 0.4946 0.1972 -0.8465
vn 0.4593 0.5872 -0.6665
vn -0.2423 -0.7481 -0.6178
vn 0.9520 0.2520 -0.1738
vn -0.6299 0.4165 0.6556
vn -0.1121 0.7255 0.6790
vn 0.9490 0.1146 -0.2938
vn -0.8973 -0.4410 0.0202
vn -0.0745 0.9072 0.4140
vn 0.7195 0.0088 -0.6944
vn -0.8504 -0.5127 0.1185
vn 0.0629 -0.8919 -0.4477
vn 0.7855 0.6174 -0.0411
vn -0.8311 0.2525 0.4955
vn -0.4716 0.5112 -0.7186
vn -0.9943 -0.0528 -0.0922
vn -0.4377 -0.7228 0.5348
vn 0.5023 -0.6790 0.5354
vn 0.6588 -0.3726 0.6535
vn 0.3100 0.5561 -0.7711
vn -0.7126 0.6410 0.2852
vn -0.9956 -0.0074 -0.0930
vn 0.9720 -0.1295 0.1963
vn -0.9990 0.0257 0.0368
vn -0.5778 0.5877 -0.5663
vn -0.3400 -0.4882 0.8038
vn -0.1290 0.0329 0.9911
vn -0.2891 -0.5475 0.7853
vn -0.5716 0.7851 -0.2383
vn -0.0476 0.8563 -0.5142
vn 0.6574 -0.3640 0.6598
vn -0.9209 0.1798 0.3458
vn 0.9995 -0.0009 -0.0309
vn 0.9996 -0.0024 -0.0289
vn -0.5439 0.8319 -0.1097
vn -0.5088 -0.8608 0.0100
vn 0.6145 0.7860 -0.0676
vn 0.4438 -0.8954 0.0361
vn 0.4575 -0.8225 0.3381
vn 0.4751 0.8767 0.0755
vn -0.4603 -0.8372 0.2954
vn -0.4865 0.8720 -0.0549
vn 1.0000 0.0004 0.0005
vn -0.9981 -0.0153 -0.0601
vn 0.1087 -0.9892 0.0985
vn 0.0259 -0.4636 -0.8857
vn 0.1272 -0.9550 -0.2678
vn -0.1046 0.0031 -0.9945
vn -0.3486 0.9250 0.1510
vn -0.3495 0.8785 0.3258
vn -0.3176 -0.9472 -0.0432
vn -0.8138 0.0121 0.5810
vn -0.0000 -0.1354 -0.9908
vn -0.4997 -0.8642 0.0581
vn -0.4978 0.8590 -0.1194
vn 0.4978 0.8590 -0.1194
vn 0.4997 -0.8642 0.0581
vn -0.9995 -0.0009 -0.0309
vn -0.9986 -0.0330 -0.0406
vn 1.0000 0.0005 0.0001
vn -0.4146 0.3086 -0.8561
vn -0.5073 -0.6404 0.5766
vn 0.4502 0.3713 -0.8121
vn 0.4979 -0.6162 0.6103
vn -0.9986 -0.0248 -0.0478
vn 1.0000 0.0005 0.0003
vn -0.5291 0.7507 -0.3956
vn -0.5090 -0.6820 0.5252
vn 0.4836 0.6048 -0.6327
vn 0.4630 -0.6770 0.5721
vn -0.2666 0.9599 0.0865
vn -0.2604 -0.9631 -0.0682
vn -0.7575 0.1443 0.6367
vn -0.8931 0.4499 -0.0000
vn -0.8377 -0.5461 -0.0000
vn -0.5999 0.7948 0.0921
vn -0.5165 -0.8562 -0.0132
vn -0.3270 0.1530 -0.9326
vn 0.9801 0.0010 -0.1987
vn 0.0238 0.6847 -0.7285
vn 0.1108 0.5419 -0.8331
vn 0.2158 0.8929 -0.3952
vn 0.2332 0.9724 -0.0047
vn 0.2114 0.8407 0.4986
vn 0.5362 0.7239 0.4341
vn 0.6140 0.7893 -0.0094
vn 0.5575 0.7416 -0.3731
vn 0.4895 0.6746 -0.5525
vn 0.2088 0.7506 -0.6269
vn 0.9486 0.1818 -0.2589
vn 0.9832 0.1706 0.0645
vn 0.9679 -0.1309 -0.2144
vn 0.9842 -0.1492 0.0957
vn 0.7191 0.4598 -0.5211
vn 0.8258 0.4724 -0.3080
vn 0.8791 0.4760 0.0239
vn 0.8171 0.4050 0.4103
vn 0.8813 0.1551 0.4463
vn 0.8704 -0.1617 0.4650
vn 0.7756 -0.4470 0.4457
vn 0.8474 -0.5145 0.1312
vn 0.8444 -0.5089 -0.1672
vn 0.7820 -0.4824 -0.3947
vn 0.8583 -0.1214 -0.4987
vn 0.8209 0.2013 -0.5345
vn 0.1806 -0.9804 -0.0786
vn 0.1607 -0.9818 -0.1015
vn 0.1488 -0.9784 0.1435
vn 0.5095 -0.7887 -0.3441
vn 0.5440 -0.8308 -0.1171
vn 0.5063 -0.8464 0.1648
vn 0.4448 -0.7758 0.4475
vn 0.1542 -0.8626 0.4818
vn 0.1482 -0.9172 -0.3698
vn 0.3082 0.2745 -0.9109
vn 0.3445 -0.1614 -0.9248
vn 0.2408 0.5577 -0.7943
vn 0.4461 0.4620 -0.7665
vn 0.5707 0.2336 -0.7872
vn 0.6232 -0.1271 -0.7717
vn 0.5828 -0.4680 -0.6643
vn 0.2683 -0.6184 -0.7387
vn 0.1783 0.1347 0.9747
vn 0.1652 -0.1814 0.9694
vn 0.5146 0.4458 0.7324
vn 0.1947 0.4737 0.8589
vn 0.1626 -0.5423 0.8243
vn 0.4611 -0.5075 0.7279
vn 0.5466 -0.1746 0.8190
vn 0.5630 0.1438 0.8139
vn -0.6237 -0.6944 -0.3588
vn 0.3730 0.9088 0.1868
vn 0.2589 -0.9495 0.1771
vn 0.1950 -0.9605 -0.1984
vn 0.8268 -0.5051 -0.2476
vn 0.9084 0.4066 -0.0977
vn 0.3550 0.9320 -0.0732
vn 0.1214 -0.9902 -0.0689
vn 0.8707 -0.4804 -0.1051
vn 0.9667 0.2092 0.1474
vn 0.4842 0.8742 -0.0356
vn 0.7240 0.4697 0.5051
vn 0.2608 0.8358 0.4832
vn 0.5074 -0.0354 0.8610
vn 0.0293 -0.8286 0.5591
vn 0.7792 0.6066 -0.1578
vn 0.9428 -0.2410 0.2301
vn 0.9465 0.2908 -0.1398
vn 0.2108 -0.9594 0.1876
vn -0.2629 -0.6594 -0.7044
vn 0.9984 0.0491 -0.0296
vn 0.8645 -0.1880 0.4661
vn -0.8996 -0.4314 -0.0671
vn -0.0082 0.9075 -0.4200
vn 0.8050 0.5881 0.0785
vn -0.8432 0.2599 -0.4706
vn 0.0689 -0.9434 0.3244
vn 0.8917 0.4442 -0.0865
vn -0.8176 0.2113 -0.5355
vn -0.0044 -0.8055 0.5926
vn 0.9005 -0.1624 0.4033
vn -0.8741 -0.4855 -0.0129
vn -0.0007 0.7751 -0.6319
vn 0.5223 0.3382 0.7828
vn -0.9782 -0.0929 0.1859
vn -0.4985 0.8612 -0.0993
vn 0.2525 0.6762 0.6921
vn -0.6769 -0.3497 -0.6477
vn -0.1519 -0.2570 0.9544
vn 0.7897 0.6134 0.0095
vn 0.0041 -0.7787 0.6274
vn 0.8248 0.1010 0.5563
vn -0.1272 0.8154 -0.5647
vn -0.9926 -0.1127 0.0446
vn -0.3156 0.6664 -0.6755
vn 0.9811 -0.0316 -0.1910
vn -0.9852 0.0798 -0.1515
vn -0.1567 -0.9042 0.3973
vn 0.9751 -0.2213 0.0154
vn -0.1340 0.5309 -0.8367
vn 0.9828 -0.0609 -0.1746
vn -0.5311 -0.5333 0.6585
vn -0.5917 -0.6758 0.4395
vn -0.0031 -0.8756 -0.4831
vn 0.9874 0.1422 0.0694
vn -0.0550 0.5518 -0.8321
vn -0.9371 -0.3441 -0.0583
vn 0.2244 -0.1037 0.9690
vn 0.5591 0.6305 0.5384
vn 0.0128 -0.3476 0.9376
vn 0.5059 -0.0387 0.8617
vn -0.5312 -0.6370 -0.5586
vn -0.4954 -0.2943 -0.8173
vn 0.0238 -0.9194 0.3927
vn -0.9399 -0.0237 -0.3406
vn 0.6588 0.7481 -0.0795
vn 0.3687 0.8931 -0.2577
vn -0.9177 -0.3843 -0.1005
vn 0.8737 -0.2032 0.4420
vn -0.0282 0.8626 -0.5052
vn -0.8753 -0.4829 -0.0238
vn 0.8628 -0.1353 0.4871
vn -0.0373 -0.8288 0.5583
vn -0.7924 0.2312 -0.5645
vn 0.8235 0.5673 -0.0061
vn 0.3739 0.8971 0.2354
vn 0.9943 0.0604 -0.0874
vn 0.4548 -0.7821 -0.4260
vn -0.5023 -0.7687 -0.3960
vn -0.5186 -0.7182 -0.4640
vn 1.0000 -0.0029 -0.0049
vn -0.9853 0.1397 0.0989
vn 0.9973 0.0634 -0.0381
vn -0.9690 -0.1978 -0.1481
vn 0.9990 -0.0205 0.0402
vn 0.4054 0.9062 0.1203
vn 0.4701 -0.7622 -0.4450
vn -0.4900 -0.2756 0.8270
vn -0.5556 -0.1410 0.8194
vn -0.3959 -0.2265 0.8899
vn 0.4675 -0.8413 -0.2713
vn 0.4286 0.7289 0.5338
vn 0.0817 0.8657 -0.4939
vn -0.4952 -0.7132 -0.4962
vn 0.9394 -0.1144 0.3232
vn -0.9992 0.0336 -0.0202
vn -0.9999 0.0087 -0.0052
vn 0.4993 0.4917 0.7134
vn 0.5272 -0.4358 -0.7295
vn -0.6149 0.4285 0.6620
vn -0.4986 -0.4611 -0.7340
vn -0.4948 -0.4979 -0.7123
vn -0.4779 0.3581 0.8021
vn 0.4639 -0.6183 -0.6344
vn 0.4872 0.4667 0.7381
vn -1.0000 -0.0007 0.0005
vn 0.9981 0.0455 -0.0419
vn -0.3239 -0.4926 -0.8077
vn 0.2531 -0.9674 0.0005
vn 0.3635 0.7409 0.5648
vn 0.3352 0.8332 0.4398
vn 0.2468 -0.9662 -0.0740
vn 0.8734 -0.1108 0.4743
vn 0.0014 0.9973 -0.0730
vn -0.0026 0.9969 0.0781
vn -0.1080 0.9940 0.0172
vn 0.4199 -0.4811 -0.7696
vn 0.4174 0.5652 0.7116
vn -0.4959 0.5522 0.6702
vn -0.4986 -0.4681 -0.7296
vn 0.9989 0.0458 0.0036
vn 0.9985 0.0231 -0.0488
vn -1.0000 -0.0002 0.0008
vn 0.4472 0.8943 0.0150
vn 0.5079 -0.7810 -0.3635
vn -0.4009 0.9133 -0.0723
vn -0.4866 -0.8318 -0.2672
vn 0.9985 0.0320 -0.0444
vn -1.0000 -0.0005 0.0008
vn 0.5350 0.6574 0.5307
vn 0.5090 -0.7506 -0.4213
vn -0.5007 0.7999 0.3308
vn -0.4886 -0.6888 -0.5356
vn 0.2821 0.9563 0.0765
vn 0.1796 -0.9836 0.0177
vn 0.7529 -0.3384 0.5645
vn 0.9084 -0.0961 0.4070
vn 0.8391 0.5429 0.0335
vn 0.5999 0.7948 0.0921
vn 0.5513 -0.8343 -0.0000
vn -0.2158 0.8929 -0.3952
vn -0.2309 0.9730 -0.0026
vn -0.2114 0.8407 0.4986
vn -0.5934 0.7171 0.3657
vn -0.6038 0.7971 0.0039
vn -0.5368 0.7678 -0.3497
vn -0.4895 0.6746 -0.5525
vn -0.2088 0.7506 -0.6269
vn -0.9488 0.1900 -0.2522
vn -0.9829 0.1719 0.0657
vn -0.9669 -0.1341 -0.2169
vn -0.9843 -0.1466 0.0981
vn -0.7198 0.4412 -0.5359
vn -0.8218 0.4872 -0.2955
vn -0.8739 0.4848 0.0339
vn -0.8171 0.4050 0.4103
vn -0.8793 0.1584 0.4492
vn -0.8717 -0.1659 0.4611
vn -0.7717 -0.4987 0.3948
vn -0.8452 -0.5193 0.1267
vn -0.8441 -0.5094 -0.1677
vn -0.7820 -0.4824 -0.3947
vn -0.8572 -0.1236 -0.4999
vn -0.8229 0.2097 -0.5281
vn -0.1607 -0.9818 -0.1015
vn -0.1806 -0.9804 -0.0786
vn -0.1564 -0.9765 0.1485
vn -0.4800 -0.7943 -0.3725
vn -0.5169 -0.8425 -0.1518
vn -0.4664 -0.8756 0.1262
vn -0.4448 -0.7758 0.4475
vn -0.1542 -0.8626 0.4818
vn -0.2261 -0.9220 -0.3144
vn -0.3148 0.2794 -0.9071
vn -0.3250 -0.1799 -0.9284
vn -0.2669 0.5681 -0.7785
vn -0.4934 0.5045 -0.7086
vn -0.5804 0.2495 -0.7751
vn -0.6137 -0.1420 -0.7766
vn -0.5175 -0.5489 -0.6564
vn -0.2683 -0.6184 -0.7387
vn -0.1733 0.1395 0.9749
vn -0.1703 -0.1865 0.9676
vn -0.5492 0.4099 0.7283
vn -0.1876 0.4801 0.8569
vn -0.1626 -0.5423 0.8243
vn -0.4611 -0.5075 0.7279
vn -0.5518 -0.1809 0.8141
vn -0.5611 0.1458 0.8148
vn -0.1843 0.9228 0.3385
vn -0.4843 -0.8702 -0.0903
vn -0.4023 -0.8966 -0.1852
vn -0.9413 -0.3222 -0.1008
vn -0.8042 0.5477 -0.2309
vn -0.2196 0.9658 -0.1379
vn -0.4906 -0.8693 -0.0601
vn -0.9916 -0.1157 -0.0579
vn -0.5400 0.7768 -0.3238
vn -0.1553 0.9730 -0.1705
vn -0.5595 0.2977 0.7735
vn -0.2996 0.8259 0.4776
vn -0.4854 -0.3499 0.8013
vn -0.0569 -0.8352 0.5470
vn -0.7142 0.6266 0.3117
vn -0.8782 -0.4763 0.0440
vn 0.9503 0.2113 0.2288
vn -0.6535 -0.7197 -0.2343
vn 0.9506 0.1045 -0.2924
vn -0.4382 0.7623 -0.4763
vn -0.8943 -0.4470 -0.0213
vn 0.9070 -0.1369 -0.3982
vn 0.0007 0.8127 0.5827
vn -0.7980 0.1799 0.5752
vn 0.8506 0.5230 0.0537
vn -0.0844 -0.6765 -0.7316
vn -0.8817 0.2722 0.3853
vn 0.8409 0.5173 -0.1592
vn -0.0154 -0.9046 -0.4261
vn -0.8966 -0.4337 0.0898
vn 0.8597 -0.2049 -0.4679
vn 0.0006 0.9240 0.3823
vn -0.4862 -0.5365 0.6898
vn 0.9810 -0.1912 -0.0325
vn 0.5180 0.5053 0.6902
vn -0.6106 0.1895 0.7689
vn 0.6449 0.4148 -0.6420
vn 0.5358 -0.7724 0.3412
vn -0.7899 -0.0730 0.6089
vn -0.0040 -0.9222 -0.3866
vn -0.8666 -0.3208 0.3823
vn 0.2584 0.9425 0.2117
vn 0.9901 -0.0761 -0.1176
vn 0.6861 0.7249 0.0619
vn -0.9875 0.1364 -0.0793
vn 0.9655 0.2595 0.0215
vn 0.1454 -0.7769 -0.6126
vn -0.9888 -0.0259 -0.1471
vn 0.9384 -0.1728 -0.2991
vn 0.1200 0.9907 0.0643
vn -0.9894 0.1080 -0.0972
vn 0.5295 -0.8148 -0.2359
vn 0.5458 -0.7074 -0.4491
vn 0.2122 0.2960 -0.9313
vn -0.9803 -0.0100 0.1974
vn 0.0417 0.9952 0.0880
vn 0.9249 -0.0966 -0.3676
vn -0.2626 -0.1712 0.9496
vn -0.5591 0.6305 0.5384
vn -0.0537 -0.4069 0.9119
vn -0.4374 -0.0846 0.8953
vn 0.4784 0.2105 -0.8526
vn 0.5886 0.4196 -0.6910
vn -0.0641 -0.6832 -0.7274
vn 0.8875 0.4478 0.1087
vn -0.8080 0.1385 0.5726
vn -0.0090 0.7784 0.6277
vn 0.9141 -0.0670 -0.3999
vn -0.8826 -0.4695 -0.0257
vn 0.0460 0.8263 0.5613
vn 0.8709 -0.1975 -0.4501
vn -0.8952 -0.4425 0.0523
vn -0.0812 -0.7512 -0.6551
vn 0.7541 0.6339 -0.1718
vn -0.8074 0.2507 0.5341
vn -0.5869 0.4962 -0.6398
vn -0.9942 -0.0679 -0.0835
vn -0.5090 -0.6783 0.5299
vn 0.6987 -0.5130 0.4987
vn 0.6575 -0.3642 0.6596
vn 0.4740 0.4860 -0.7342
vn -0.5076 0.8218 0.2587
vn -0.9957 -0.0028 -0.0927
vn 0.9848 -0.1508 0.0860
vn -0.9992 0.0212 0.0332
vn -0.5954 0.6144 -0.5178
vn -0.3753 -0.6705 0.6400
vn 0.6481 0.2905 0.7040
vn 0.5462 0.0287 0.8372
vn 0.5452 0.2057 0.8127
vn -0.3151 -0.7594 0.5692
vn -0.5828 0.8051 -0.1107
vn -0.0439 0.8677 -0.4951
vn 0.7549 -0.5890 0.2886
vn -0.9659 0.0015 0.2590
vn 0.9995 -0.0042 -0.0310
vn 0.9996 -0.0009 -0.0292
vn -0.4986 0.8611 -0.0993
vn -0.5000 -0.8660 0.0127
vn 0.4999 0.8648 -0.0467
vn 0.5000 -0.8657 0.0238
vn 0.5002 -0.8601 0.1005
vn 0.6116 0.7835 -0.1095
vn -0.4948 -0.8690 -0.0064
vn -0.5506 0.8341 0.0323
vn 1.0000 0.0001 0.0008
vn -0.9977 -0.0054 -0.0675
vn -0.1920 -0.5915 -0.7831
vn -0.0425 -0.5637 0.8249
vn -0.2261 0.9719 0.0650
vn -0.2932 0.8455 0.4463
vn -0.2509 -0.9640 0.0883
vn -0.8891 -0.0723 0.4520
vn -0.0000 0.0473 -0.9989
vn -0.4991 -0.8646 0.0581
vn -0.4988 0.8584 -0.1195
vn 0.4988 0.8584 -0.1195
vn 0.4991 -0.8646 0.0581
vn -0.9995 -0.0042 -0.0310
vn -0.9960 -0.0412 -0.0793
vn 1.0000 0.0006 0.0006
vn -0.2524 0.0753 -0.9647
vn -0.5125 -0.6535 0.5570
vn 0.2865 0.1042 -0.9524
vn 0.4733 -0.5627 0.6778
vn -0.9964 -0.0208 -0.0817
vn 1.0000 0.0005 0.0008
vn -0.3980 0.5973 -0.6963
vn -0.5188 -0.7272 0.4494
vn 0.4707 0.7517 -0.4619
vn 0.4820 -0.7779 0.4033
vn -0.2691 0.9600 0.0768
vn -0.2663 -0.9606 -0.0799
vn -0.8999 -0.0692 0.4305
vn -0.7396 -0.3415 0.5800
vn -0.8391 0.5429 0.0335
vn -0.5488 0.8323 0.0777
vn -0.5513 -0.8343 -0.0000
vn -0.9860 0.1586 0.0506
vn 0.8627 -0.1774 -0.4736
vn -0.7326 0.6780 0.0609
vn 0.2543 0.6827 -0.6850
vt 0.500000 0.375000
vt 0.437500 0.437500
vt 0.437500 0.375000
vt 0.562500 0.437500
vt 0.500000 0.437500
vt 0.625000 0.375000
vt 0.562500 0.375000
vt 0.625000 0.500000
vt 0.562500 0.500000
vt 0.500000 0.500000
vt 0.437500 0.500000
vt 0.375000 0.500000
vt 0.375000 0.437500
vt 0.375000 0.375000
vt 0.437500 0.562500
vt 0.500000 0.625000
vt 0.437500 0.625000
vt 0.500000 0.562500
vt 0.562500 0.625000
vt 0.500000 0.687500
vt 0.437500 0.687500
vt 0.562500 0.687500
vt 0.375000 0.562500
vt 0.562500 0.562500
vt 0.625000 0.625000
vt 0.625000 0.687500
vt 0.625000 0.750000
vt 0.562500 0.750000
vt 0.500000 0.750000
vt 0.437500 0.750000
vt 0.375000 0.750000
vt 0.375000 0.687500
vt 0.375000 0.625000
vt 0.500000 0.875000
vt 0.468750 0.875000
vt 0.437500 0.875000
vt 0.500000 0.812500
vt 0.562500 0.875000
vt 0.437500 0.812500
vt 0.375000 0.812500
vt 0.562500 0.812500
vt 0.625000 0.812500
vt 0.375000 0.875000
vt 0.250000 0.562500
vt 0.312500 0.625000
vt 0.250000 0.625000
vt 0.312500 0.687500
vt 0.250000 0.687500
vt 0.250000 0.500000
vt 0.312500 0.562500
vt 0.312500 0.500000
vt 0.312500 0.750000
vt 0.250000 0.750000
vt 0.687500 0.562500
vt 0.750000 0.625000
vt 0.687500 0.625000
vt 0.750000 0.687500
vt 0.687500 0.687500
vt 0.625000 0.562500
vt 0.687500 0.500000
vt 0.750000 0.562500
vt 0.687500 0.750000
vt 1.000000 0.500000
vt 0.833333 1.000000
vt 0.833333 0.500000
vt 0.666667 1.000000
vt 0.666667 0.500000
vt 0.500000 1.000000
vt 0.500000 0.500000
vt 0.333333 0.500000
vt 0.042154 0.130000
vt 0.250000 0.010000
vt 0.457846 0.130000
vt 0.333333 1.000000
vt 0.166667 0.500000
vt 0.166667 1.000000
vt -0.000000 0.500000
vt 0.542154 0.130000
vt 0.542154 0.370000
vt 0.957846 0.370000
vt 1.000000 0.828637
vt 0.875000 1.000000
vt 0.875000 0.828637
vt 0.625000 0.828637
vt 0.500000 1.000000
vt 0.500000 0.828637
vt 0.625000 0.645722
vt 0.500000 0.500000
vt 0.750000 0.500000
vt 0.875000 0.645722
vt 0.875000 0.500000
vt 0.500000 0.645722
vt 0.750000 0.828637
vt 0.750000 0.645722
vt 1.000000 0.645722
vt 0.750000 1.000000
vt 1.000000 1.000000
vt 0.625000 1.000000
vt 0.749520 0.964446
vt 0.653402 0.965669
vt 0.844587 0.863513
vt 0.844268 0.965118
vt 0.647775 0.863148
vt 0.750840 0.864057
vt 0.749520 0.964446
vt 0.750840 0.864057
vt 0.647775 0.863149
vt 0.844587 0.863513
vt 0.844267 0.965117
vt 0.653402 0.965669
vt 0.749520 0.964446
vt 0.844268 0.965117
vt 0.750840 0.864057
vt 0.653402 0.965669
vt 0.844587 0.863513
vt 0.000000 0.000000
vt 0.833333 0.500000
vt -0.000000 1.000000
vt 0.500000 0.500000
vt 0.500000 0.500000
vt 0.166667 0.500000
vt -0.000000 0.500000
vt 0.833333 0.500000
vt 0.042154 0.370000
vt 0.457846 0.370000
vt 0.750000 0.010000
vt 0.333333 0.500000
vt 0.457846 0.250000
vt 0.625000 0.437500
vt 0.750000 0.500000
vt 0.957846 0.130000
vt 0.250000 0.490000
vt 0.625000 0.875000
vt 0.750000 0.750000
vt 0.250000 0.490000
vt 0.750000 0.490000
vt 0.750000 0.490000
s 0
f 26/1/1 28/2/1 25/3/1
f 26/1/2 30/4/2 29/5/2
f 7/6/3 30/4/3 27/7/3
f 30/4/4 4/8/4 9/9/4
f 29/5/5 9/9/5 10/10/5
f 28/2/6 10/10/6 11/11/6
f 28/2/7 3/12/7 5/13/7
f 25/3/8 5/13/8 6/14/8
f 31/15/9 35/16/9 34/17/9
f 32/18/10 36/19/10 35/16/10
f 34/17/11 38/20/11 37/21/11
f 35/16/12 39/22/12 38/20/12
f 3/12/13 31/15/13 14/23/13
f 11/11/14 32/18/14 31/15/14
f 10/10/15 33/24/15 32/18/15
f 4/8/16 33/24/16 9/9/16
f 33/24/17 16/25/17 36/19/17
f 36/19/18 17/26/18 39/22/18
f 39/22/19 2/27/19 18/28/19
f 38/20/20 18/28/20 19/29/20
f 37/21/21 19/29/21 20/30/21
f 37/21/22 1/31/22 12/32/22
f 13/33/23 37/21/23 12/32/23
f 14/23/24 34/17/24 13/33/24
f 44/34/25 58/35/25 43/36/25
f 41/37/26 45/38/26 44/34/26
f 1/31/27 40/39/27 22/40/27
f 20/30/28 41/37/28 40/39/28
f 19/29/29 42/41/29 41/37/29
f 2/27/30 42/41/30 18/28/30
f 23/42/31 45/38/31 42/41/31
f 22/40/32 43/36/32 21/43/32
f 46/44/33 49/45/33 48/46/33
f 48/46/34 51/47/34 50/48/34
f 6/49/35 47/50/35 46/44/35
f 5/51/36 14/23/36 47/50/36
f 47/50/37 13/33/37 49/45/37
f 49/45/38 12/32/38 51/47/38
f 51/47/39 1/31/39 22/52/39
f 51/47/40 21/53/40 50/48/40
f 52/54/41 55/55/41 54/56/41
f 54/56/42 57/57/42 56/58/42
f 4/8/43 52/54/43 15/59/43
f 8/60/44 53/61/44 52/54/44
f 57/57/45 23/62/45 56/58/45
f 56/58/46 2/27/46 17/26/46
f 16/25/47 56/58/47 17/26/47
f 15/59/48 54/56/48 16/25/48
f 59/63/49 62/64/49 61/65/49
f 61/65/50 64/66/50 63/67/50
f 63/67/51 66/68/51 65/69/51
f 66/68/52 67/70/52 65/69/52
f 68/71/53 66/72/53 64/73/53
f 68/74/54 69/75/54 67/70/54
f 70/76/55 59/77/55 69/75/55
f 67/78/56 69/79/56 61/80/56
f 86/81/57 97/82/57 99/83/57
f 100/84/58 80/85/58 90/86/58
f 84/87/59 79/88/59 77/8/59
f 75/89/60 84/87/60 77/8/60
f 82/90/61 75/89/61 73/91/61
f 71/63/62 82/90/62 73/91/62
f 100/84/63 85/92/63 84/87/63
f 101/93/64 84/87/64 83/94/64
f 99/83/65 83/94/65 82/90/65
f 81/95/66 99/83/66 82/90/66
f 97/82/67 93/96/67 96/96/67
f 72/97/68 92/82/68 97/82/68
f 98/98/69 93/96/69 94/98/69
f 80/85/70 94/98/70 95/85/70
f 76/99/71 97/82/71 96/96/71
f 78/100/72 96/96/72 98/98/72
f 87/101/73 97/82/73 74/102/73
f 78/100/74 100/84/74 89/103/74
f 89/103/75 101/93/75 88/104/75
f 87/101/76 101/93/76 99/83/76
f 150/105/77 104/100/77 103/99/77
f 151/106/78 107/103/78 152/107/78
f 154/108/79 102/102/79 105/101/79
f 150/105/80 102/102/80 153/109/80
f 151/106/81 105/101/81 106/104/81
f 152/107/82 104/100/82 149/110/82
f 155/111/83 108/102/83 156/112/83
f 158/113/84 111/101/84 112/104/84
f 160/114/85 113/103/85 110/100/85
f 155/111/86 110/100/86 109/99/86
f 158/113/87 113/103/87 159/107/87
f 156/112/88 111/101/88 157/115/88
f 110/100/89 115/99/89 109/99/89
f 112/104/90 133/103/90 113/103/90
f 108/102/91 117/101/91 111/101/91
f 108/102/92 115/99/92 114/102/92
f 111/101/93 118/104/93 112/104/93
f 110/100/94 119/103/94 116/100/94
f 114/102/95 121/99/95 120/102/95
f 117/101/96 124/104/96 118/104/96
f 119/103/97 122/100/97 116/100/97
f 115/99/98 122/100/98 121/99/98
f 119/103/99 124/104/99 125/103/99
f 117/101/100 120/102/100 123/101/100
f 124/104/101 131/103/101 125/103/101
f 123/101/102 126/102/102 129/101/102
f 121/99/103 126/102/103 120/102/103
f 124/104/104 129/101/104 130/104/104
f 125/103/105 128/100/105 122/100/105
f 121/99/106 128/100/106 127/99/106
f 132/104/107 137/103/107 133/103/107
f 118/104/108 132/104/108 112/104/108
f 119/103/109 134/104/109 118/104/109
f 119/103/110 133/103/110 135/103/110
f 139/103/111 141/103/111 143/103/111
f 135/103/112 137/103/112 139/103/112
f 135/103/113 138/104/113 134/104/113
f 134/104/114 136/104/114 132/104/114
f 141/103/115 142/104/115 143/103/115
f 139/103/116 142/104/116 138/104/116
f 138/104/117 140/104/117 136/104/117
f 136/104/118 141/103/118 137/103/118
f 94/98/119 146/96/119 147/98/119
f 91/97/120 145/82/120 92/82/120
f 94/98/121 148/85/121 95/85/121
f 92/82/122 146/96/122 93/96/122
f 128/100/123 130/104/123 127/99/123
f 127/99/124 129/101/124 126/102/124
f 89/103/125 149/110/125 78/100/125
f 88/104/126 154/108/126 151/106/126
f 74/102/127 150/105/127 153/109/127
f 87/101/128 153/109/128 154/108/128
f 88/104/129 152/107/129 89/103/129
f 78/100/130 150/105/130 76/99/130
f 102/102/131 157/115/131 105/101/131
f 106/104/132 159/107/132 107/103/132
f 103/99/133 160/114/133 155/111/133
f 104/100/134 159/107/134 160/114/134
f 106/104/135 157/115/135 158/113/135
f 103/99/136 156/112/136 102/102/136
f 162/97/137 163/65/137 161/63/137
f 163/65/138 166/66/138 165/67/138
f 165/67/139 168/68/139 167/69/139
f 168/68/140 169/70/140 167/69/140
f 170/74/141 175/68/141 176/74/141
f 368/74/142 369/75/142 416/116/142
f 170/74/143 171/75/143 169/70/143
f 190/67/144 185/65/144 191/117/144
f 177/76/145 182/74/145 183/76/145
f 164/64/146 174/66/146 166/66/146
f 164/64/147 172/97/147 173/64/147
f 166/66/148 175/68/148 168/68/148
f 182/71/149 181/72/149 180/73/149
f 174/66/150 181/68/150 175/68/150
f 173/64/151 178/97/151 179/64/151
f 177/76/152 178/118/152 172/118/152
f 175/68/153 182/74/153 176/74/153
f 173/64/154 180/66/154 174/66/154
f 188/70/155 210/75/155 209/70/155
f 192/75/156 188/70/156 193/70/156
f 191/117/157 184/63/157 194/63/157
f 190/67/158 187/69/158 186/67/158
f 192/75/159 184/77/159 189/75/159
f 193/70/160 187/69/160 195/119/160
f 221/70/161 195/119/161 219/120/161
f 218/121/162 194/122/162 192/75/162
f 217/67/163 195/119/163 190/67/163
f 222/63/164 191/117/164 194/63/164
f 218/121/165 193/70/165 221/70/165
f 220/123/166 190/67/166 191/117/166
f 183/76/167 178/118/167 200/116/167
f 182/116/168 197/116/168 196/116/168
f 181/116/169 198/116/169 197/116/169
f 196/116/170 183/124/170 182/71/170
f 199/116/171 178/116/171 200/116/171
f 199/116/172 201/116/172 179/116/172
f 198/116/173 202/116/173 203/116/173
f 179/125/174 202/73/174 180/73/174
f 206/80/175 208/126/175 210/79/175
f 187/69/176 207/67/176 186/67/176
f 185/65/177 205/63/177 184/63/177
f 189/75/178 205/77/178 210/75/178
f 187/69/179 209/70/179 208/69/179
f 186/67/180 206/65/180 185/65/180
f 163/65/181 214/67/181 211/123/181
f 171/75/182 212/127/182 169/70/182
f 161/63/183 211/123/183 213/63/183
f 165/67/184 216/69/184 214/67/184
f 161/77/185 215/121/185 171/75/185
f 169/70/186 216/69/186 167/69/186
f 211/123/187 217/67/187 220/123/187
f 215/121/188 221/70/188 212/127/188
f 213/63/189 220/123/189 222/63/189
f 214/67/190 219/120/190 217/67/190
f 215/121/191 222/77/191 218/121/191
f 212/127/192 219/120/192 216/69/192
f 204/116/193 73/116/193 201/116/193
f 203/116/194 77/116/194 79/116/194
f 201/125/195 73/125/195 75/128/195
f 145/82/196 225/96/196 146/96/196
f 146/96/197 226/98/197 147/98/197
f 145/82/198 223/97/198 224/82/198
f 147/98/199 227/85/199 148/85/199
f 248/2/200 26/1/200 25/3/200
f 26/1/201 250/4/201 27/7/201
f 250/4/202 7/6/202 27/7/202
f 250/4/203 231/8/203 233/129/203
f 249/5/204 234/9/204 250/4/204
f 248/2/205 235/10/205 249/5/205
f 230/12/206 248/2/206 232/13/206
f 232/13/207 25/3/207 6/14/207
f 251/15/208 255/16/208 252/18/208
f 252/18/209 256/19/209 253/24/209
f 254/17/210 258/20/210 255/16/210
f 255/16/211 259/22/211 256/19/211
f 230/12/212 251/15/212 236/11/212
f 236/11/213 252/18/213 235/10/213
f 235/10/214 253/24/214 234/9/214
f 253/24/215 231/8/215 234/9/215
f 253/24/216 241/25/216 240/59/216
f 256/19/217 242/26/217 241/25/217
f 259/22/218 229/27/218 242/26/218
f 258/20/219 243/28/219 259/22/219
f 257/21/220 244/29/220 258/20/220
f 228/31/221 257/21/221 237/32/221
f 238/33/222 257/21/222 254/17/222
f 239/23/223 254/17/223 251/15/223
f 261/37/224 45/38/224 262/41/224
f 228/31/225 260/39/225 245/30/225
f 245/30/226 261/37/226 244/29/226
f 244/29/227 262/41/227 243/28/227
f 262/41/228 229/27/228 243/28/228
f 45/38/229 247/42/229 262/41/229
f 246/40/230 43/36/230 260/39/230
f 46/44/231 264/45/231 263/50/231
f 48/46/232 265/47/232 264/45/232
f 6/49/233 263/50/233 232/51/233
f 232/51/234 239/23/234 230/12/234
f 263/50/235 238/33/235 239/23/235
f 264/45/236 237/32/236 238/33/236
f 265/47/237 228/31/237 237/32/237
f 21/53/238 265/47/238 50/48/238
f 266/54/239 55/55/239 53/61/239
f 267/56/240 57/57/240 55/55/240
f 231/8/241 266/54/241 233/60/241
f 233/60/242 53/61/242 7/130/242
f 247/62/243 57/57/243 268/58/243
f 229/27/244 268/58/244 242/26/244
f 241/25/245 268/58/245 267/56/245
f 240/59/246 267/56/246 266/54/246
f 269/63/247 272/64/247 270/97/247
f 271/65/248 274/66/248 272/64/248
f 273/67/249 276/68/249 274/66/249
f 277/70/250 276/68/250 275/69/250
f 278/71/251 280/124/251 274/73/251
f 279/75/252 278/74/252 277/70/252
f 269/77/253 280/76/253 279/75/253
f 271/80/254 277/78/254 273/131/254
f 86/81/255 297/82/255 72/97/255
f 300/84/256 80/85/256 298/98/256
f 79/88/257 289/87/257 285/8/257
f 283/89/258 289/87/258 288/94/258
f 283/89/259 287/90/259 281/91/259
f 71/63/260 287/90/260 81/95/260
f 85/92/261 300/84/261 289/87/261
f 289/87/262 301/93/262 288/94/262
f 288/94/263 299/83/263 287/90/263
f 81/95/264 299/83/264 86/81/264
f 294/96/265 297/82/265 296/96/265
f 293/82/266 72/97/266 297/82/266
f 298/98/267 294/96/267 296/96/267
f 80/85/268 295/98/268 298/98/268
f 284/99/269 297/82/269 282/102/269
f 286/100/270 296/96/270 284/99/270
f 297/82/271 290/101/271 282/102/271
f 300/84/272 286/100/272 292/103/272
f 301/93/273 292/103/273 291/104/273
f 290/101/274 301/93/274 291/104/274
f 348/105/275 304/100/275 347/110/275
f 307/103/276 349/106/276 350/107/276
f 352/108/277 302/102/277 351/109/277
f 302/102/278 348/105/278 351/109/278
f 349/106/279 305/101/279 352/108/279
f 304/100/280 350/107/280 347/110/280
f 308/102/281 353/111/281 354/112/281
f 356/113/282 311/101/282 355/115/282
f 358/114/283 313/103/283 357/107/283
f 353/111/284 310/100/284 358/114/284
f 313/103/285 356/113/285 357/107/285
f 311/101/286 354/112/286 355/115/286
f 315/99/287 310/100/287 309/99/287
f 333/103/288 312/104/288 313/103/288
f 317/101/289 308/102/289 311/101/289
f 308/102/290 315/99/290 309/99/290
f 318/104/291 311/101/291 312/104/291
f 310/100/292 319/103/292 313/103/292
f 314/102/293 321/99/293 315/99/293
f 324/104/294 317/101/294 318/104/294
f 322/100/295 319/103/295 316/100/295
f 315/99/296 322/100/296 316/100/296
f 319/103/297 324/104/297 318/104/297
f 317/101/298 320/102/298 314/102/298
f 331/103/299 324/104/299 325/103/299
f 323/101/300 326/102/300 320/102/300
f 326/102/301 321/99/301 320/102/301
f 324/104/302 329/101/302 323/101/302
f 328/100/303 325/103/303 322/100/303
f 321/99/304 328/100/304 322/100/304
f 337/103/305 332/104/305 333/103/305
f 332/104/306 318/104/306 312/104/306
f 334/104/307 319/103/307 318/104/307
f 319/103/308 333/103/308 313/103/308
f 339/103/309 341/103/309 337/103/309
f 335/103/310 337/103/310 333/103/310
f 338/104/311 335/103/311 334/104/311
f 336/104/312 334/104/312 332/104/312
f 341/103/313 342/104/313 340/104/313
f 342/104/314 339/103/314 338/104/314
f 340/104/315 338/104/315 336/104/315
f 341/103/316 336/104/316 337/103/316
f 295/98/317 345/96/317 294/96/317
f 344/82/318 91/97/318 293/82/318
f 148/85/319 295/98/319 95/85/319
f 345/96/320 293/82/320 294/96/320
f 328/100/321 330/104/321 331/103/321
f 327/99/322 329/101/322 330/104/322
f 347/110/323 292/103/323 286/100/323
f 291/104/324 352/108/324 290/101/324
f 282/102/325 348/105/325 284/99/325
f 290/101/326 351/109/326 282/102/326
f 350/107/327 291/104/327 292/103/327
f 348/105/328 286/100/328 284/99/328
f 355/115/329 302/102/329 305/101/329
f 357/107/330 306/104/330 307/103/330
f 303/99/331 358/114/331 304/100/331
f 304/100/332 357/107/332 307/103/332
f 306/104/333 355/115/333 305/101/333
f 354/112/334 303/99/334 302/102/334
f 361/65/335 360/97/335 359/63/335
f 361/65/336 364/66/336 362/64/336
f 363/67/337 366/68/337 364/66/337
f 367/70/338 366/68/338 365/69/338
f 368/74/339 373/68/339 366/68/339
f 416/116/340 359/63/340 360/97/340
f 162/97/341 171/75/341 415/116/341
f 381/65/342 386/67/342 387/117/342
f 177/76/343 379/74/343 374/74/343
f 372/66/344 362/64/344 364/66/344
f 362/64/345 370/97/345 360/97/345
f 373/68/346 364/66/346 366/68/346
f 379/71/347 183/124/347 375/132/347
f 378/68/348 372/66/348 373/68/348
f 371/64/349 375/97/349 370/97/349
f 375/118/350 177/76/350 370/118/350
f 379/74/351 373/68/351 374/74/351
f 377/66/352 371/64/352 372/66/352
f 384/70/353 399/75/353 385/75/353
f 384/70/354 388/75/354 389/70/354
f 380/63/355 387/117/355 390/63/355
f 386/67/356 383/69/356 391/119/356
f 388/75/357 380/77/357 390/122/357
f 383/69/358 389/70/358 391/119/358
f 391/119/359 410/70/359 408/120/359
f 407/121/360 390/122/360 411/77/360
f 406/67/361 391/119/361 408/120/361
f 411/63/362 387/117/362 409/123/362
f 389/70/363 407/121/363 410/70/363
f 409/123/364 386/67/364 406/67/364
f 183/76/365 200/116/365 375/118/365
f 197/116/366 379/116/366 196/116/366
f 198/116/367 378/116/367 197/116/367
f 196/116/368 379/71/368 183/124/368
f 199/116/369 375/116/369 376/116/369
f 392/116/370 199/116/370 376/116/370
f 198/116/371 393/116/371 377/116/371
f 393/73/372 376/125/372 377/73/372
f 399/79/373 397/126/373 395/80/373
f 396/67/374 383/69/374 382/67/374
f 394/63/375 381/65/375 380/63/375
f 385/75/376 394/77/376 380/77/376
f 383/69/377 398/70/377 384/70/377
f 395/65/378 382/67/378 381/65/378
f 361/65/379 403/67/379 363/67/379
f 401/127/380 369/75/380 367/70/380
f 359/63/381 400/123/381 361/65/381
f 363/67/382 405/69/382 365/69/382
f 404/121/383 359/77/383 369/75/383
f 405/69/384 367/70/384 365/69/384
f 400/123/385 406/67/385 403/67/385
f 410/70/386 404/121/386 401/127/386
f 402/63/387 409/123/387 400/123/387
f 403/67/388 408/120/388 405/69/388
f 404/121/389 411/77/389 402/77/389
f 408/120/390 401/127/390 405/69/390
f 281/116/391 204/116/391 392/116/391
f 203/116/392 285/116/392 393/116/392
f 283/128/393 281/125/393 392/125/393
f 413/96/394 344/82/394 345/96/394
f 414/98/395 345/96/395 346/98/395
f 344/82/396 223/97/396 144/97/396
f 227/85/397 346/98/397 148/85/397
f 415/116/398 176/74/398 177/76/398
f 416/116/399 374/74/399 368/74/399
f 172/118/400 415/116/400 177/76/400
f 416/116/401 370/118/401 177/76/401
f 26/1/402 29/5/402 28/2/402
f 26/1/403 27/7/403 30/4/403
f 7/6/404 8/129/404 30/4/404
f 30/4/405 8/129/405 4/8/405
f 29/5/406 30/4/406 9/9/406
f 28/2/407 29/5/407 10/10/407
f 28/2/408 11/11/408 3/12/408
f 25/3/409 28/2/409 5/13/409
f 31/15/410 32/18/410 35/16/410
f 32/18/411 33/24/411 36/19/411
f 34/17/412 35/16/412 38/20/412
f 35/16/413 36/19/413 39/22/413
f 3/12/414 11/11/414 31/15/414
f 11/11/415 10/10/415 32/18/415
f 10/10/416 9/9/416 33/24/416
f 4/8/417 15/59/417 33/24/417
f 33/24/418 15/59/418 16/25/418
f 36/19/419 16/25/419 17/26/419
f 39/22/420 17/26/420 2/27/420
f 38/20/421 39/22/421 18/28/421
f 37/21/422 38/20/422 19/29/422
f 37/21/423 20/30/423 1/31/423
f 13/33/424 34/17/424 37/21/424
f 14/23/425 31/15/425 34/17/425
f 43/36/426 40/39/426 44/34/426
f 40/39/427 41/37/427 44/34/427
f 41/37/428 42/41/428 45/38/428
f 1/31/429 20/30/429 40/39/429
f 20/30/430 19/29/430 41/37/430
f 19/29/431 18/28/431 42/41/431
f 2/27/432 23/42/432 42/41/432
f 23/42/433 24/133/433 45/38/433
f 22/40/434 40/39/434 43/36/434
f 46/44/435 47/50/435 49/45/435
f 48/46/436 49/45/436 51/47/436
f 6/49/437 5/51/437 47/50/437
f 5/51/438 3/12/438 14/23/438
f 47/50/439 14/23/439 13/33/439
f 49/45/440 13/33/440 12/32/440
f 51/47/441 12/32/441 1/31/441
f 51/47/442 22/52/442 21/53/442
f 52/54/443 53/61/443 55/55/443
f 54/56/444 55/55/444 57/57/444
f 4/8/445 8/60/445 52/54/445
f 8/60/446 7/130/446 53/61/446
f 57/57/447 24/134/447 23/62/447
f 56/58/448 23/62/448 2/27/448
f 16/25/449 54/56/449 56/58/449
f 15/59/450 52/54/450 54/56/450
f 59/63/49 60/97/49 62/64/49
f 61/65/50 62/64/50 64/66/50
f 63/67/51 64/66/51 66/68/51
f 66/68/451 68/74/451 67/70/451
f 64/73/53 62/125/53 68/71/53
f 62/125/53 60/135/53 70/124/53
f 68/71/53 62/125/53 70/124/53
f 68/74/54 70/76/54 69/75/54
f 70/76/55 60/118/55 59/77/55
f 69/79/56 59/136/56 61/80/56
f 61/80/56 63/131/56 67/78/56
f 63/131/56 65/126/56 67/78/56
f 86/81/452 72/97/452 97/82/452
f 100/84/453 98/98/453 80/85/453
f 84/87/454 85/92/454 79/88/454
f 75/89/455 83/94/455 84/87/455
f 82/90/456 83/94/456 75/89/456
f 71/63/457 81/95/457 82/90/457
f 100/84/458 90/86/458 85/92/458
f 101/93/459 100/84/459 84/87/459
f 99/83/460 101/93/460 83/94/460
f 81/95/461 86/81/461 99/83/461
f 97/82/462 92/82/462 93/96/462
f 72/97/463 91/97/463 92/82/463
f 98/98/464 96/96/464 93/96/464
f 80/85/465 98/98/465 94/98/465
f 76/99/466 74/102/466 97/82/466
f 78/100/467 76/99/467 96/96/467
f 87/101/468 99/83/468 97/82/468
f 78/100/469 98/98/469 100/84/469
f 89/103/470 100/84/470 101/93/470
f 87/101/471 88/104/471 101/93/471
f 150/105/472 149/110/472 104/100/472
f 151/106/473 106/104/473 107/103/473
f 154/108/474 153/109/474 102/102/474
f 150/105/475 103/99/475 102/102/475
f 151/106/476 154/108/476 105/101/476
f 152/107/477 107/103/477 104/100/477
f 155/111/478 109/99/478 108/102/478
f 158/113/479 157/115/479 111/101/479
f 160/114/480 159/107/480 113/103/480
f 155/111/481 160/114/481 110/100/481
f 158/113/482 112/104/482 113/103/482
f 156/112/483 108/102/483 111/101/483
f 110/100/484 116/100/484 115/99/484
f 112/104/485 132/104/485 133/103/485
f 108/102/486 114/102/486 117/101/486
f 108/102/487 109/99/487 115/99/487
f 111/101/488 117/101/488 118/104/488
f 110/100/489 113/103/489 119/103/489
f 114/102/490 115/99/490 121/99/490
f 117/101/96 123/101/96 124/104/96
f 119/103/491 125/103/491 122/100/491
f 115/99/492 116/100/492 122/100/492
f 119/103/99 118/104/99 124/104/99
f 117/101/493 114/102/493 120/102/493
f 124/104/494 130/104/494 131/103/494
f 123/101/495 120/102/495 126/102/495
f 121/99/496 127/99/496 126/102/496
f 124/104/497 123/101/497 129/101/497
f 125/103/498 131/103/498 128/100/498
f 121/99/499 122/100/499 128/100/499
f 132/104/107 136/104/107 137/103/107
f 118/104/500 134/104/500 132/104/500
f 119/103/501 135/103/501 134/104/501
f 119/103/502 113/103/502 133/103/502
f 139/103/503 137/103/503 141/103/503
f 135/103/112 133/103/112 137/103/112
f 135/103/113 139/103/113 138/104/113
f 134/104/114 138/104/114 136/104/114
f 141/103/504 140/104/504 142/104/504
f 139/103/505 143/103/505 142/104/505
f 138/104/506 142/104/506 140/104/506
f 136/104/507 140/104/507 141/103/507
f 94/98/508 93/96/508 146/96/508
f 91/97/509 144/97/509 145/82/509
f 94/98/510 147/98/510 148/85/510
f 92/82/511 145/82/511 146/96/511
f 128/100/512 131/103/512 130/104/512
f 127/99/513 130/104/513 129/101/513
f 89/103/514 152/107/514 149/110/514
f 88/104/515 87/101/515 154/108/515
f 74/102/516 76/99/516 150/105/516
f 87/101/517 74/102/517 153/109/517
f 88/104/518 151/106/518 152/107/518
f 78/100/519 149/110/519 150/105/519
f 102/102/520 156/112/520 157/115/520
f 106/104/521 158/113/521 159/107/521
f 103/99/522 104/100/522 160/114/522
f 104/100/523 107/103/523 159/107/523
f 106/104/524 105/101/524 157/115/524
f 103/99/525 155/111/525 156/112/525
f 162/97/526 164/64/526 163/65/526
f 163/65/527 164/64/527 166/66/527
f 165/67/528 166/66/528 168/68/528
f 168/68/529 170/74/529 169/70/529
f 170/74/530 168/68/530 175/68/530
f 368/74/531 367/70/531 369/75/531
f 170/74/532 415/116/532 171/75/532
f 190/67/533 186/67/533 185/65/533
f 177/76/534 176/74/534 182/74/534
f 164/64/535 173/64/535 174/66/535
f 164/64/536 162/97/536 172/97/536
f 166/66/537 174/66/537 175/68/537
f 180/73/538 179/125/538 182/71/538
f 179/125/539 178/132/539 182/71/539
f 178/132/540 183/124/540 182/71/540
f 174/66/541 180/66/541 181/68/541
f 173/64/542 172/97/542 178/97/542
f 177/76/543 183/76/543 178/118/543
f 175/68/544 181/68/544 182/74/544
f 173/64/545 179/64/545 180/66/545
f 188/70/546 189/75/546 210/75/546
f 192/75/547 189/75/547 188/70/547
f 191/117/548 185/65/548 184/63/548
f 190/67/549 195/119/549 187/69/549
f 192/75/550 194/122/550 184/77/550
f 193/70/551 188/70/551 187/69/551
f 221/70/552 193/70/552 195/119/552
f 218/121/553 222/77/553 194/122/553
f 217/67/554 219/120/554 195/119/554
f 222/63/555 220/123/555 191/117/555
f 218/121/556 192/75/556 193/70/556
f 220/123/557 217/67/557 190/67/557
f 182/116/558 181/116/558 197/116/558
f 181/116/559 180/116/559 198/116/559
f 199/116/560 179/116/560 178/116/560
f 199/116/561 204/116/561 201/116/561
f 198/116/562 180/116/562 202/116/562
f 179/125/563 201/125/563 202/73/563
f 210/79/564 205/137/564 206/80/564
f 206/80/565 207/131/565 208/126/565
f 208/126/566 209/78/566 210/79/566
f 187/69/567 208/69/567 207/67/567
f 185/65/568 206/65/568 205/63/568
f 189/75/569 184/77/569 205/77/569
f 187/69/570 188/70/570 209/70/570
f 186/67/571 207/67/571 206/65/571
f 163/65/572 165/67/572 214/67/572
f 171/75/573 215/121/573 212/127/573
f 161/63/574 163/65/574 211/123/574
f 165/67/575 167/69/575 216/69/575
f 161/77/576 213/77/576 215/121/576
f 169/70/577 212/127/577 216/69/577
f 211/123/578 214/67/578 217/67/578
f 215/121/579 218/121/579 221/70/579
f 213/63/580 211/123/580 220/123/580
f 214/67/581 216/69/581 219/120/581
f 215/121/582 213/77/582 222/77/582
f 212/127/583 221/70/583 219/120/583
f 204/116/584 71/116/584 73/116/584
f 203/116/585 202/116/585 77/116/585
f 77/73/586 202/73/586 75/128/586
f 202/73/587 201/125/587 75/128/587
f 145/82/588 224/82/588 225/96/588
f 146/96/197 225/96/197 226/98/197
f 145/82/589 144/97/589 223/97/589
f 147/98/590 226/98/590 227/85/590
f 248/2/591 249/5/591 26/1/591
f 26/1/592 249/5/592 250/4/592
f 250/4/593 233/129/593 7/6/593
f 250/4/594 234/9/594 231/8/594
f 249/5/595 235/10/595 234/9/595
f 248/2/596 236/11/596 235/10/596
f 230/12/597 236/11/597 248/2/597
f 232/13/598 248/2/598 25/3/598
f 251/15/599 254/17/599 255/16/599
f 252/18/600 255/16/600 256/19/600
f 254/17/601 257/21/601 258/20/601
f 255/16/602 258/20/602 259/22/602
f 230/12/603 239/23/603 251/15/603
f 236/11/604 251/15/604 252/18/604
f 235/10/605 252/18/605 253/24/605
f 253/24/606 240/59/606 231/8/606
f 253/24/607 256/19/607 241/25/607
f 256/19/608 259/22/608 242/26/608
f 259/22/609 243/28/609 229/27/609
f 258/20/610 244/29/610 243/28/610
f 257/21/611 245/30/611 244/29/611
f 228/31/612 245/30/612 257/21/612
f 238/33/613 237/32/613 257/21/613
f 239/23/614 238/33/614 254/17/614
f 261/37/615 260/39/615 44/34/615
f 260/39/616 43/36/616 44/34/616
f 261/37/617 44/34/617 45/38/617
f 228/31/618 246/40/618 260/39/618
f 245/30/619 260/39/619 261/37/619
f 244/29/620 261/37/620 262/41/620
f 262/41/621 247/42/621 229/27/621
f 45/38/622 24/133/622 247/42/622
f 246/40/623 21/43/623 43/36/623
f 46/44/624 48/46/624 264/45/624
f 48/46/625 50/48/625 265/47/625
f 6/49/626 46/44/626 263/50/626
f 232/51/627 263/50/627 239/23/627
f 263/50/628 264/45/628 238/33/628
f 264/45/629 265/47/629 237/32/629
f 265/47/630 246/52/630 228/31/630
f 21/53/631 246/52/631 265/47/631
f 266/54/632 267/56/632 55/55/632
f 267/56/633 268/58/633 57/57/633
f 231/8/634 240/59/634 266/54/634
f 233/60/635 266/54/635 53/61/635
f 247/62/636 24/134/636 57/57/636
f 229/27/637 247/62/637 268/58/637
f 241/25/638 242/26/638 268/58/638
f 240/59/639 241/25/639 267/56/639
f 269/63/247 271/65/247 272/64/247
f 271/65/248 273/67/248 274/66/248
f 273/67/249 275/69/249 276/68/249
f 277/70/250 278/74/250 276/68/250
f 270/135/251 272/125/251 280/124/251
f 272/125/251 274/73/251 280/124/251
f 274/73/251 276/72/251 278/71/251
f 279/75/252 280/76/252 278/74/252
f 269/77/253 270/118/253 280/76/253
f 271/80/254 269/136/254 279/79/254
f 279/79/254 277/78/254 271/80/254
f 277/78/254 275/126/254 273/131/254
f 86/81/640 299/83/640 297/82/640
f 300/84/641 90/86/641 80/85/641
f 79/88/642 85/92/642 289/87/642
f 283/89/643 285/8/643 289/87/643
f 283/89/644 288/94/644 287/90/644
f 71/63/645 281/91/645 287/90/645
f 85/92/646 90/86/646 300/84/646
f 289/87/647 300/84/647 301/93/647
f 288/94/648 301/93/648 299/83/648
f 81/95/649 287/90/649 299/83/649
f 294/96/650 293/82/650 297/82/650
f 293/82/651 91/97/651 72/97/651
f 298/98/652 295/98/652 294/96/652
f 80/85/653 95/85/653 295/98/653
f 284/99/654 296/96/654 297/82/654
f 286/100/655 298/98/655 296/96/655
f 297/82/656 299/83/656 290/101/656
f 300/84/657 298/98/657 286/100/657
f 301/93/658 300/84/658 292/103/658
f 290/101/659 299/83/659 301/93/659
f 348/105/660 303/99/660 304/100/660
f 307/103/661 306/104/661 349/106/661
f 352/108/662 305/101/662 302/102/662
f 302/102/663 303/99/663 348/105/663
f 349/106/664 306/104/664 305/101/664
f 304/100/665 307/103/665 350/107/665
f 308/102/666 309/99/666 353/111/666
f 356/113/667 312/104/667 311/101/667
f 358/114/668 310/100/668 313/103/668
f 353/111/669 309/99/669 310/100/669
f 313/103/670 312/104/670 356/113/670
f 311/101/671 308/102/671 354/112/671
f 315/99/672 316/100/672 310/100/672
f 333/103/673 332/104/673 312/104/673
f 317/101/674 314/102/674 308/102/674
f 308/102/675 314/102/675 315/99/675
f 318/104/676 317/101/676 311/101/676
f 310/100/677 316/100/677 319/103/677
f 314/102/678 320/102/678 321/99/678
f 324/104/294 323/101/294 317/101/294
f 322/100/679 325/103/679 319/103/679
f 315/99/680 321/99/680 322/100/680
f 319/103/297 325/103/297 324/104/297
f 317/101/681 323/101/681 320/102/681
f 331/103/682 330/104/682 324/104/682
f 323/101/683 329/101/683 326/102/683
f 326/102/684 327/99/684 321/99/684
f 324/104/685 330/104/685 329/101/685
f 328/100/686 331/103/686 325/103/686
f 321/99/687 327/99/687 328/100/687
f 337/103/688 336/104/688 332/104/688
f 332/104/689 334/104/689 318/104/689
f 334/104/690 335/103/690 319/103/690
f 319/103/691 335/103/691 333/103/691
f 339/103/692 343/103/692 341/103/692
f 335/103/310 339/103/310 337/103/310
f 338/104/311 339/103/311 335/103/311
f 336/104/312 338/104/312 334/104/312
f 341/103/693 343/103/693 342/104/693
f 342/104/694 343/103/694 339/103/694
f 340/104/695 342/104/695 338/104/695
f 341/103/696 340/104/696 336/104/696
f 295/98/697 346/98/697 345/96/697
f 344/82/698 144/97/698 91/97/698
f 148/85/699 346/98/699 295/98/699
f 345/96/700 344/82/700 293/82/700
f 328/100/701 327/99/701 330/104/701
f 327/99/702 326/102/702 329/101/702
f 347/110/703 350/107/703 292/103/703
f 291/104/704 349/106/704 352/108/704
f 282/102/705 351/109/705 348/105/705
f 290/101/706 352/108/706 351/109/706
f 350/107/707 349/106/707 291/104/707
f 348/105/708 347/110/708 286/100/708
f 355/115/709 354/112/709 302/102/709
f 357/107/710 356/113/710 306/104/710
f 303/99/711 353/111/711 358/114/711
f 304/100/712 358/114/712 357/107/712
f 306/104/713 356/113/713 355/115/713
f 354/112/714 353/111/714 303/99/714
f 361/65/715 362/64/715 360/97/715
f 361/65/716 363/67/716 364/66/716
f 363/67/717 365/69/717 366/68/717
f 367/70/718 368/74/718 366/68/718
f 368/74/719 374/74/719 373/68/719
f 416/116/720 369/75/720 359/63/720
f 162/97/721 161/63/721 171/75/721
f 381/65/722 382/67/722 386/67/722
f 177/76/723 183/76/723 379/74/723
f 372/66/724 371/64/724 362/64/724
f 362/64/725 371/64/725 370/97/725
f 373/68/726 372/66/726 364/66/726
f 375/132/727 376/125/727 379/71/727
f 376/125/728 377/73/728 379/71/728
f 377/73/729 378/72/729 379/71/729
f 378/68/730 377/66/730 372/66/730
f 371/64/731 376/64/731 375/97/731
f 375/118/732 183/76/732 177/76/732
f 379/74/733 378/68/733 373/68/733
f 377/66/734 376/64/734 371/64/734
f 384/70/735 398/70/735 399/75/735
f 384/70/736 385/75/736 388/75/736
f 380/63/737 381/65/737 387/117/737
f 386/67/738 382/67/738 383/69/738
f 388/75/739 385/75/739 380/77/739
f 383/69/740 384/70/740 389/70/740
f 391/119/741 389/70/741 410/70/741
f 407/121/742 388/75/742 390/122/742
f 406/67/743 386/67/743 391/119/743
f 411/63/744 390/63/744 387/117/744
f 389/70/745 388/75/745 407/121/745
f 409/123/746 387/117/746 386/67/746
f 197/116/747 378/116/747 379/116/747
f 198/116/748 377/116/748 378/116/748
f 199/116/749 200/116/749 375/116/749
f 392/116/750 204/116/750 199/116/750
f 198/116/751 203/116/751 393/116/751
f 393/73/752 392/125/752 376/125/752
f 395/80/753 394/137/753 399/79/753
f 399/79/373 398/78/373 397/126/373
f 397/126/373 396/131/373 395/80/373
f 396/67/754 397/69/754 383/69/754
f 394/63/755 395/65/755 381/65/755
f 385/75/756 399/75/756 394/77/756
f 383/69/757 397/69/757 398/70/757
f 395/65/758 396/67/758 382/67/758
f 361/65/759 400/123/759 403/67/759
f 401/127/760 404/121/760 369/75/760
f 359/63/761 402/63/761 400/123/761
f 363/67/762 403/67/762 405/69/762
f 404/121/763 402/77/763 359/77/763
f 405/69/764 401/127/764 367/70/764
f 400/123/765 409/123/765 406/67/765
f 410/70/766 407/121/766 404/121/766
f 402/63/767 411/63/767 409/123/767
f 403/67/768 406/67/768 408/120/768
f 404/121/769 407/121/769 411/77/769
f 408/120/770 410/70/770 401/127/770
f 281/116/771 71/116/771 204/116/771
f 203/116/772 79/116/772 285/116/772
f 392/125/773 393/73/773 283/128/773
f 393/73/774 285/73/774 283/128/774
f 413/96/775 412/82/775 344/82/775
f 414/98/395 413/96/395 345/96/395
f 344/82/776 412/82/776 223/97/776
f 227/85/777 414/98/777 346/98/777
f 415/116/778 170/74/778 176/74/778
f 416/116/779 177/76/779 374/74/779
f 172/118/780 162/97/780 415/116/780
f 416/116/781 360/97/781 370/118/781
