# Blender 5.0.0
# www.blender.org
o body
v 0.496492 -0.836496 10.227698
v 0.583336 -0.739345 11.498636
v 0.476577 0.278155 10.294956
v 0.565221 0.486406 11.534348
v 0.246627 0.341088 10.199068
v -0.000000 0.369678 10.144386
v -0.000000 0.658669 11.667994
v 0.340386 0.599495 11.623479
v 0.631619 0.554539 11.293015
v 0.646511 0.545035 10.934124
v 0.576865 0.424383 10.562345
v 0.562963 -0.631520 10.141602
v 0.591550 -0.317049 10.112899
v 0.550611 0.022595 10.183995
v 0.654626 0.225672 11.613683
v 0.703310 -0.145583 11.646578
v 0.665741 -0.502555 11.592733
v 0.654036 -0.830153 11.245733
v 0.671875 -0.892060 10.873056
v 0.600616 -0.885222 10.493562
v -0.000000 -0.970372 10.061804
v 0.267098 -0.925011 10.120864
v 0.358752 -0.817453 11.586440
v -0.000000 -0.856363 11.631628
v -0.000000 0.674132 10.515625
v -0.000000 0.858995 10.934320
v -0.000000 0.860968 11.340014
v 0.290903 0.614872 10.541577
v 0.337850 0.778810 10.937596
v 0.344425 0.778266 11.320338
v 0.749642 0.108478 10.522029
v 0.841644 0.194318 10.919451
v 0.811618 0.221481 11.305146
v 0.812126 -0.260919 10.478873
v 0.912852 -0.205322 10.899665
v 0.878665 -0.167071 11.310884
v 0.764291 -0.610046 10.481555
v 0.857600 -0.587271 10.883380
v 0.825386 -0.539852 11.277514
v 0.317045 -1.052687 10.457503
v 0.365526 -1.074153 10.741765
v 0.369003 -0.996871 11.265190
v -0.000000 -1.112858 10.479684
v -0.000000 -1.133464 10.736836
v -0.000000 -1.050111 11.284788
v -0.000000 0.004889 9.878209
v 0.255090 0.002209 9.963708
v -0.000000 -0.369840 9.762796
v 0.272938 -0.355472 9.861945
v -0.000000 -0.709899 9.828691
v 0.266506 -0.681006 9.916377
v 0.373244 0.271111 11.800291
v -0.000000 0.302962 11.864146
v 0.399412 -0.129139 11.852915
v -0.000000 -0.120306 11.922645
v 0.383312 -0.515705 11.781256
v -0.000000 -0.530811 11.845823
v -0.000000 -1.256591 10.547945
v 0.899103 0.129189 10.908795
v 0.964296 0.059744 10.929881
v 0.972883 0.157159 10.726437
v 1.038076 0.087714 10.747522
v 0.910948 0.053346 10.483295
v 0.976141 -0.016099 10.504381
v 0.775233 -0.078438 10.422510
v 0.840426 -0.147883 10.443596
v 0.701452 -0.106409 10.604869
v 0.766645 -0.175854 10.625955
v 0.763387 -0.002595 10.848011
v 0.828580 -0.072040 10.869097
v 0.000000 0.608116 7.291457
v -0.000043 0.615539 9.440174
v 0.504716 0.474077 7.105840
v 0.828492 0.479315 9.207428
v 0.598099 0.170520 7.063538
v 0.958544 0.154747 9.331506
v 0.495931 -0.117959 7.025322
v 0.866709 -0.075568 9.092747
v -0.000000 -0.261991 7.152552
v 0.000043 -0.517647 9.126944
v -0.000000 0.657830 7.924516
v 0.570423 0.568462 7.977563
v 0.766895 0.268008 7.974050
v 0.571918 -0.184668 7.935404
v -0.000000 -0.421472 7.924516
v 0.000175 0.704890 9.013271
v 0.703501 0.748385 8.870970
v 0.718229 0.573777 8.616225
v 0.697012 0.209525 8.573500
v 0.000464 -0.486431 8.797211
v -0.000000 0.515979 9.610792
v 0.439963 0.377983 9.582360
v 0.633977 0.087713 9.554999
v 0.435115 -0.214422 9.546203
v -0.000000 -0.334730 9.403175
v 0.958118 0.150867 9.343055
v 0.710206 0.433970 9.349068
v 0.738413 -0.247880 9.362727
v 0.614164 0.671815 8.656435
v 0.622047 -0.162764 8.657029
v 0.716226 0.529316 8.591852
v 1.567640 1.389100 7.809281
v 1.658768 1.247029 7.736352
v 1.562963 1.049803 7.638535
v 1.163608 1.468278 7.673048
v 1.096370 1.359866 7.545433
v 1.160331 1.132095 7.496575
v 1.943759 1.900781 6.438242
v 2.009173 1.766533 6.385948
v 1.941724 1.611759 6.343611
v 1.637718 1.926433 6.365740
v 1.584169 1.808026 6.279079
v 1.636232 1.638645 6.267756
v 1.969789 1.992717 6.385945
v 2.058870 1.781730 6.376452
v 1.987374 1.534389 6.254184
v 1.815741 2.036267 6.240250
v 1.786023 1.860863 6.168871
v 1.814533 1.552918 6.069893
v 2.243374 2.198501 6.011768
v 2.299998 1.949088 5.918649
v 2.241735 1.645649 5.819346
v 2.082720 2.188259 5.824474
v 2.053003 2.012856 5.753095
v 2.081511 1.704911 5.654117
v 2.182983 2.315094 5.436506
v 2.194170 2.157424 5.339887
v 2.183040 1.931416 5.303477
v 2.092611 2.224946 5.469172
v 2.066309 2.132338 5.413481
v 2.091933 1.910875 5.357912
v 1.574712 1.834519 6.061176
v 1.606218 1.685832 6.061611
v 1.769622 1.861853 6.015783
v 1.790026 1.596081 5.937027
v 1.627365 1.859185 5.843234
v 1.653181 1.737352 5.843590
v 1.787073 1.881582 5.806039
v 1.803792 1.663811 5.741507
v 1.703025 1.884828 5.614277
v 1.713877 1.796781 5.617794
v 1.820829 1.891351 5.613595
v 1.830052 1.735240 5.569949
v -0.000000 0.404502 9.741334
v 0.158780 0.287954 9.712938
v 0.252719 0.101461 9.649418
v 0.182110 -0.006843 9.649418
v -0.000000 -0.116119 9.611390
v 1.512668 0.975257 7.719628
v 1.608459 1.162941 7.847656
v 1.077696 1.330507 7.599178
v 1.131062 1.092173 7.541298
v 1.518922 1.311768 7.923361
v 1.135040 1.426356 7.747758
v 1.697825 1.308824 7.631201
v 1.609219 1.453466 7.692910
v 1.198478 1.500011 7.582808
v 1.126210 1.377500 7.474434
v 1.196666 1.151437 7.451546
v 1.605484 1.103784 7.562049
v 0.508210 -0.901619 4.701668
v 0.519509 0.382582 5.598365
v 0.863355 -1.074591 4.810521
v 1.026829 0.124502 5.879532
v 0.863355 -1.277982 4.978486
v 1.028275 -0.302135 6.147070
v 0.508191 -1.446788 5.103211
v 0.513592 -0.563092 6.189503
v 0.152952 -1.279860 4.982409
v 0.144936 -0.223990 5.991140
v 0.153066 -1.049136 4.825788
v 0.512164 0.612225 5.839642
v 1.018175 0.281318 6.042596
v 1.020134 -0.175105 6.280746
v 0.515757 -0.486801 6.253137
v 0.136937 -0.138618 6.031080
v 0.000000 0.798176 6.067284
v 0.418974 0.740088 6.044459
v 0.879472 0.485850 6.549052
v 0.876436 0.007465 6.569119
v 0.449170 -0.307303 6.405791
v 0.134332 -0.043640 6.082505
v 0.000000 0.836131 6.171059
v 0.430883 -1.122457 2.549240
v 0.691277 -1.272775 2.551694
v 0.691277 -1.573412 2.556601
v 0.430883 -1.723787 2.559034
v 0.170489 -1.573755 2.556499
v 0.170489 -1.272775 2.551694
v 0.822906 -1.456095 4.330305
v 0.822906 -1.209634 4.314135
v 0.152560 -1.251566 4.318675
v 0.152560 -1.499418 4.335913
v 0.487733 -0.989644 4.329471
v 0.487733 -1.656495 4.710676
v -0.000000 -0.000108 6.112402
v -0.000000 -0.195685 6.217041
v -0.000000 -0.266241 6.469684
v 0.000000 0.808618 6.702867
v 0.000000 0.835320 6.396955
v 0.713104 0.436475 6.866967
v 0.709689 -0.047411 6.797736
v -0.000000 -0.234276 6.814834
v 0.000000 0.628045 7.042454
v 0.430883 -1.366555 0.933939
v 0.625711 -1.475985 0.905284
v 0.625711 -1.707563 0.845598
v 0.430883 -1.816882 0.818880
v 0.236055 -1.705126 0.854612
v 0.236055 -1.476601 0.904822
v 0.856043 -1.170372 4.771127
v 0.152881 -1.394269 4.880897
v 0.504509 -0.962742 4.695985
v 0.856043 -1.369952 4.873773
v 0.152975 -1.154904 4.779552
v 0.504493 -1.507567 5.036062
v 0.847217 -1.455131 4.733232
v 0.152864 -1.210067 4.680729
v 0.500029 -1.574054 4.948791
v 0.847217 -1.209296 4.673991
v 0.152796 -1.460775 4.742717
v 0.500040 -1.018836 4.641221
v -0.000000 0.330200 10.382236
v 0.182652 0.209765 10.382236
v 0.252719 0.101462 10.382236
v 0.182110 -0.006843 10.382236
v -0.000000 -0.127185 10.327162
v -0.496493 -0.836496 10.227698
v -0.583336 -0.739345 11.498636
v -0.476577 0.278155 10.294956
v -0.565221 0.486406 11.534348
v -0.246627 0.341088 10.199068
v -0.340386 0.599495 11.623479
v -0.631619 0.554539 11.293015
v -0.646511 0.545035 10.934124
v -0.576865 0.424383 10.562345
v -0.562963 -0.631520 10.141602
v -0.591550 -0.317049 10.112899
v -0.550611 0.022595 10.183995
v -0.654626 0.225672 11.613683
v -0.703310 -0.145583 11.646578
v -0.665741 -0.502555 11.592733
v -0.654036 -0.830153 11.245733
v -0.671875 -0.892060 10.873056
v -0.600616 -0.885222 10.493562
v -0.267098 -0.925011 10.120864
v -0.358752 -0.817453 11.586440
v -0.290903 0.614872 10.541577
v -0.337850 0.778810 10.937596
v -0.344425 0.778266 11.320338
v -0.749642 0.108478 10.522029
v -0.841644 0.194318 10.919451
v -0.811618 0.221481 11.305146
v -0.812126 -0.260919 10.478873
v -0.912852 -0.205322 10.899665
v -0.878665 -0.167071 11.310884
v -0.764291 -0.610046 10.481555
v -0.857600 -0.587271 10.883380
v -0.825386 -0.539852 11.277514
v -0.317045 -1.052687 10.457503
v -0.365526 -1.074153 10.741765
v -0.369003 -0.996871 11.265190
v -0.255090 0.002209 9.963708
v -0.272938 -0.355472 9.861945
v -0.266506 -0.681006 9.916377
v -0.373244 0.271111 11.800291
v -0.399412 -0.129139 11.852915
v -0.383312 -0.515705 11.781256
v -0.899103 0.129189 10.908795
v -0.964296 0.059744 10.929881
v -0.972883 0.157159 10.726437
v -1.038076 0.087714 10.747522
v -0.910948 0.053346 10.483295
v -0.976141 -0.016099 10.504381
v -0.775233 -0.078438 10.422510
v -0.840426 -0.147883 10.443596
v -0.701452 -0.106409 10.604869
v -0.766645 -0.175854 10.625955
v -0.763387 -0.002595 10.848011
v -0.828580 -0.072040 10.869097
v -0.504526 0.476275 7.171638
v -0.822551 0.201565 9.017707
v -0.598793 0.169840 7.128935
v -0.956849 0.094960 9.349689
v -0.495657 -0.144362 7.078574
v -0.863588 -0.239353 9.355125
v -0.567886 0.452664 7.932548
v -0.761828 0.028290 7.950132
v -0.569703 -0.304421 7.956623
v -0.689887 0.159479 8.590552
v -0.701900 -0.152822 8.548531
v -0.684159 -0.415411 8.775141
v -0.440482 0.410452 9.556925
v -0.634110 0.102469 9.561206
v -0.435368 -0.200253 9.573507
v -0.956580 0.101058 9.359220
v -0.708784 0.382057 9.210567
v -0.738412 -0.252808 9.475104
v -0.607086 0.371665 8.488631
v -0.616795 -0.394340 8.784870
v -0.701433 -0.128761 8.532029
v -1.529320 -0.412431 7.457004
v -1.620233 -0.556906 7.526350
v -1.524580 -0.756219 7.621951
v -1.125213 -0.475445 7.309239
v -1.058434 -0.644453 7.315032
v -1.121884 -0.821827 7.468295
v -1.961056 -1.118420 6.210340
v -2.026545 -1.243869 6.281121
v -1.958583 -1.377923 6.368912
v -1.658672 -1.163549 6.132214
v -1.606963 -1.307437 6.164153
v -1.656904 -1.424791 6.287696
v -1.990588 -1.098016 6.107500
v -2.076813 -1.240164 6.265299
v -2.006706 -1.495158 6.371608
v -1.843330 -1.183941 5.974133
v -1.813947 -1.352658 6.060252
v -1.841886 -1.627083 6.231570
v -2.282379 -1.243319 5.718977
v -2.339040 -1.474715 5.850619
v -2.280369 -1.748336 6.014997
v -2.129425 -1.395926 5.599351
v -2.100043 -1.564642 5.685469
v -2.127981 -1.839066 5.856788
v -2.247444 -1.606668 5.255378
v -2.260230 -1.782203 5.313209
v -2.247222 -1.956734 5.461191
v -2.154464 -1.642236 5.341695
v -2.129090 -1.745241 5.375096
v -2.153656 -1.930609 5.508609
v -1.606872 -1.456242 6.002504
v -1.636102 -1.551671 6.117132
v -1.803870 -1.468842 5.959724
v -1.823512 -1.700701 6.111739
v -1.668805 -1.604921 5.844585
v -1.692756 -1.683115 5.938510
v -1.830225 -1.615246 5.809530
v -1.846318 -1.805231 5.934091
v -1.754190 -1.760851 5.679664
v -1.763568 -1.815048 5.749357
v -1.872007 -1.754597 5.678743
v -1.880676 -1.888859 5.769623
v -0.158780 0.287954 9.712938
v -0.252719 0.101461 9.649418
v -0.182110 -0.006843 9.649418
v -1.478822 -0.730773 7.730056
v -1.574580 -0.516583 7.653514
v -1.039623 -0.616567 7.377049
v -1.094042 -0.804748 7.534379
v -1.484928 -0.366932 7.579152
v -1.098003 -0.439639 7.387653
v -1.658603 -0.600133 7.420822
v -1.569899 -0.461684 7.346073
v -1.162909 -0.524464 7.228122
v -1.092945 -0.687694 7.249919
v -1.160704 -0.849181 7.412322
v -1.565864 -0.786233 7.532102
v -0.508053 1.341575 4.642779
v -0.519458 0.997505 5.999927
v -0.866564 1.145141 4.543322
v -1.031588 0.685295 6.094641
v -0.866564 0.887642 4.437969
v -1.033048 0.255521 5.828254
v -0.508033 0.695414 4.359288
v -0.513485 0.077857 5.606299
v -0.149427 0.891351 4.451906
v -0.141336 0.251879 5.791057
v -0.149542 1.151999 4.569436
v -0.512044 0.937949 6.263927
v -1.022851 0.591587 6.263700
v -1.024829 0.154043 6.005398
v -0.515671 -0.002038 5.724608
v -0.133260 0.170754 5.893612
v -0.417970 0.889273 6.397194
v -0.882834 0.474031 6.632279
v -0.879769 -0.051862 6.460563
v -0.448454 -0.159501 6.017179
v -0.130631 0.080939 6.037383
v -0.429992 2.600863 2.634517
v -0.658825 2.494017 2.556809
v -0.658825 2.280323 2.401393
v -0.429992 2.173475 2.323686
v -0.201160 2.280322 2.401393
v -0.201160 2.494017 2.556809
v -0.825732 1.281854 3.891374
v -0.825732 1.491606 4.028612
v -0.149031 1.455026 4.006821
v -0.149031 1.245052 3.869542
v -0.487381 1.660568 4.176302
v -0.487381 0.889416 4.060692
v -0.714889 0.433705 6.932370
v -0.711441 -0.111998 6.812015
v -0.429992 3.386343 1.186436
v -0.608101 3.333031 1.099998
v -0.608101 3.231498 0.894465
v -0.429992 3.185338 0.801872
v -0.251882 3.226138 0.905396
v -0.251882 3.332868 1.098920
v -0.859182 1.189867 4.445067
v -0.149356 0.942276 4.336280
v -0.504316 1.387740 4.561499
v -0.859183 0.948972 4.331254
v -0.149450 1.190945 4.463530
v -0.504300 0.726860 4.302169
v -0.850273 1.028017 4.204440
v -0.149338 1.253153 4.340166
v -0.499794 0.766586 4.233427
v -0.850273 1.262096 4.332513
v -0.149269 1.016381 4.206538
v -0.499806 1.426809 4.446194
v -0.182652 0.209765 10.382236
v -0.252719 0.101462 10.382236
v -0.182110 -0.006843 10.382236
v 0.213411 0.507652 5.843256
v -0.199640 0.801117 5.979399
vn 0.2171 0.8930 -0.3943
vn 0.2309 0.9730 -0.0026
vn 0.2282 0.8287 0.5111
vn 0.5934 0.7171 0.3657
vn 0.6038 0.7971 0.0039
vn 0.5368 0.7678 -0.3497
vn 0.4335 0.6757 -0.5962
vn 0.2244 0.7535 -0.6180
vn 0.9488 0.1900 -0.2522
vn 0.9829 0.1719 0.0657
vn 0.9669 -0.1341 -0.2169
vn 0.9843 -0.1466 0.0981
vn 0.7198 0.4412 -0.5359
vn 0.8218 0.4872 -0.2955
vn 0.8739 0.4848 0.0339
vn 0.8176 0.4547 0.3533
vn 0.8793 0.1584 0.4492
vn 0.8717 -0.1659 0.4611
vn 0.7717 -0.4987 0.3948
vn 0.8452 -0.5193 0.1267
vn 0.8441 -0.5094 -0.1677
vn 0.7852 -0.4383 -0.4373
vn 0.8572 -0.1236 -0.4999
vn 0.8229 0.2097 -0.5281
vn 1.0000 -0.0000 -0.0000
vn 0.1564 -0.9765 0.1485
vn 0.4800 -0.7943 -0.3725
vn 0.5169 -0.8425 -0.1518
vn 0.4664 -0.8756 0.1262
vn 0.4808 -0.7739 0.4123
vn 0.1500 -0.8611 0.4857
vn 0.2261 -0.9220 -0.3144
vn 0.3148 0.2794 -0.9071
vn 0.3250 -0.1799 -0.9284
vn 0.2669 0.5681 -0.7785
vn 0.4934 0.5045 -0.7086
vn 0.5804 0.2495 -0.7751
vn 0.6137 -0.1420 -0.7766
vn 0.5175 -0.5489 -0.6564
vn 0.3026 -0.6356 -0.7102
vn 0.1733 0.1395 0.9749
vn 0.1703 -0.1865 0.9676
vn 0.5492 0.4099 0.7283
vn 0.1876 0.4801 0.8569
vn 0.1601 -0.5446 0.8233
vn 0.5064 -0.4648 0.7263
vn 0.5518 -0.1809 0.8141
vn 0.5611 0.1458 0.8148
vn 0.6237 0.6944 0.3588
vn 0.7220 0.5506 -0.4190
vn 0.3616 0.0569 -0.9306
vn -0.6237 -0.6944 -0.3589
vn 0.6532 -0.7421 0.1505
vn -0.7220 -0.5506 0.4190
vn -0.3616 -0.0569 0.9306
vn -0.6532 0.7421 -0.1505
vn 0.2186 0.9318 0.2897
vn 0.4453 -0.8915 -0.0838
vn 0.2559 -0.9623 -0.0919
vn 0.9419 -0.3201 -0.1021
vn 0.9464 0.3057 -0.1044
vn 0.2130 0.9695 -0.1210
vn 0.3825 -0.9239 0.0015
vn 0.8834 -0.4012 0.2421
vn 0.8284 0.5433 -0.1361
vn 0.1672 0.9730 -0.1589
vn 0.4533 0.3798 0.8064
vn 0.2738 0.8139 0.5125
vn 0.4622 -0.3282 0.8238
vn 0.0490 -0.8328 0.5515
vn 0.7327 0.6365 0.2408
vn 0.8727 -0.4754 0.1113
vn 0.3159 0.7948 0.5182
vn 0.8616 -0.2699 -0.4298
vn 0.9976 -0.0617 0.0306
vn 0.5967 0.6442 -0.4784
vn 0.8872 -0.4582 0.0549
vn -0.8176 -0.0437 -0.5741
vn 0.0052 0.8712 0.4909
vn 0.8256 0.2360 0.5125
vn -0.8475 0.5308 -0.0045
vn 0.0722 -0.7562 -0.6503
vn 0.8560 0.3706 0.3604
vn -0.8554 0.4960 -0.1491
vn 0.0134 -0.9242 -0.3816
vn 0.9066 -0.4153 0.0740
vn -0.8773 -0.2308 -0.4208
vn 0.0167 0.9417 0.3360
vn 0.2812 -0.3653 0.8874
vn -0.9521 -0.2974 0.0706
vn -0.0740 0.8001 0.5953
vn 0.6379 0.2363 0.7330
vn -0.4885 0.6483 -0.5840
vn -0.5084 -0.7625 0.4002
vn 0.8149 -0.0311 0.5787
vn -0.8465 0.3174 -0.4275
vn 0.0996 -0.9764 -0.1916
vn 0.8866 -0.2885 0.3615
vn -0.8524 0.0868 -0.5156
vn -0.2656 0.9479 0.1760
vn -0.9945 -0.0661 -0.0809
vn -0.6952 0.7167 0.0547
vn 0.9693 0.2399 -0.0531
vn -0.9681 0.2458 0.0485
vn 0.1936 -0.8487 -0.4922
vn 0.9823 -0.0184 -0.1862
vn -0.9467 -0.2013 -0.2515
vn -0.1860 0.9744 0.1265
vn 0.9866 0.1251 -0.1049
vn -0.5248 -0.8333 -0.1739
vn -0.5514 -0.7368 -0.3912
vn -0.5762 -0.7589 -0.3034
vn 0.9949 0.0504 0.0875
vn -0.1194 0.9894 0.0831
vn -0.2546 0.2464 -0.9351
vn 0.9845 0.0240 0.1739
vn -0.1224 0.9900 0.0704
vn -0.9322 -0.1984 -0.3028
vn 0.2533 -0.1652 0.9532
vn 0.2167 0.5208 0.8257
vn -0.0473 -0.6889 0.7233
vn 0.2422 0.0707 0.9677
vn -0.5159 0.1610 -0.8414
vn -0.6230 0.3761 -0.6858
vn 0.2229 -0.8219 -0.5241
vn -0.8821 0.4695 0.0376
vn 0.8038 0.1983 0.5608
vn 0.0162 0.8532 0.5213
vn -0.9436 0.0923 -0.3179
vn 0.8909 -0.4458 0.0873
vn 0.0639 0.9335 0.3529
vn -0.7601 -0.0750 -0.6455
vn 0.8985 -0.4316 0.0801
vn 0.0535 -0.8296 -0.5558
vn -0.7734 0.6097 -0.1736
vn 0.8348 0.2978 0.4630
vn 0.4678 0.5032 -0.7266
vn 0.9942 -0.0686 -0.0830
vn 0.5084 -0.6692 0.5419
vn -0.5011 -0.6701 0.5476
vn -0.6945 -0.3573 0.6246
vn 0.9947 0.0861 0.0568
vn -1.0000 -0.0029 -0.0049
vn 0.9972 -0.0049 -0.0743
vn -0.9861 -0.1563 0.0572
vn 0.9990 0.0260 0.0361
vn 0.6019 0.5913 -0.5367
vn 0.3641 -0.6026 0.7101
vn -0.5348 0.3202 0.7820
vn 0.2983 -0.5517 0.7789
vn 0.6005 0.7849 -0.1525
vn 0.0926 0.8630 -0.4966
vn -0.6945 -0.3572 0.6246
vn 0.9213 0.1830 0.3432
vn -0.9992 0.0086 -0.0392
vn -0.9999 -0.0007 -0.0100
vn 0.5444 0.8350 -0.0797
vn 0.5001 -0.8657 0.0201
vn -0.5000 0.8659 -0.0155
vn -0.4602 -0.8869 0.0399
vn -0.4569 -0.8330 0.3120
vn -0.6115 0.7862 -0.0896
vn 0.4898 -0.8714 -0.0275
vn 0.5496 0.8335 0.0563
vn -1.0000 0.0004 0.0005
vn 0.9977 -0.0044 -0.0674
vn -0.2244 -0.9745 -0.0035
vn -0.3296 -0.4454 -0.8325
vn -0.1253 -0.9556 -0.2669
vn -0.1955 0.0686 -0.9783
vn 0.2870 0.9543 0.0833
vn 0.3756 0.8657 0.3310
vn 0.2556 -0.9627 0.0892
vn 0.8055 0.0197 0.5923
vn 0.0008 0.2453 -0.9695
vn 0.4998 -0.8648 0.0486
vn 0.4966 0.8582 -0.1297
vn -0.4734 0.8717 -0.1267
vn -0.4906 -0.8701 0.0466
vn 0.9992 -0.0006 -0.0397
vn 0.9957 -0.0422 -0.0821
vn -1.0000 0.0005 0.0001
vn 0.2504 0.0746 -0.9653
vn 0.5118 -0.6629 0.5465
vn -0.4376 0.3605 -0.8237
vn -0.4984 -0.6289 0.5967
vn 0.9964 -0.0199 -0.0826
vn -1.0000 0.0005 0.0004
vn 0.4046 0.6221 -0.6703
vn 0.5164 -0.7463 0.4199
vn -0.4728 0.7697 -0.4291
vn -0.4662 -0.6921 0.5511
vn 0.2797 0.9555 0.0936
vn 0.2593 -0.9626 -0.0790
vn 0.7568 0.1440 0.6376
vn 0.8931 0.4499 -0.0000
vn 0.8377 -0.5461 -0.0000
vn 0.5488 0.8323 0.0777
vn 0.5165 -0.8562 -0.0132
vn -0.2171 0.8930 -0.3943
vn -0.2332 0.9724 -0.0047
vn -0.2282 0.8287 0.5111
vn -0.5362 0.7239 0.4341
vn -0.6140 0.7893 -0.0094
vn -0.5575 0.7416 -0.3731
vn -0.4335 0.6757 -0.5962
vn -0.2244 0.7535 -0.6180
vn -0.9486 0.1818 -0.2589
vn -0.9832 0.1706 0.0645
vn -0.9679 -0.1309 -0.2144
vn -0.9842 -0.1492 0.0957
vn -0.7191 0.4598 -0.5211
vn -0.8258 0.4724 -0.3080
vn -0.8791 0.4760 0.0239
vn -0.8176 0.4547 0.3533
vn -0.8813 0.1551 0.4463
vn -0.8704 -0.1617 0.4650
vn -0.7756 -0.4470 0.4457
vn -0.8474 -0.5145 0.1312
vn -0.8444 -0.5089 -0.1672
vn -0.7852 -0.4383 -0.4373
vn -0.8583 -0.1214 -0.4987
vn -0.8209 0.2013 -0.5345
vn -0.1488 -0.9784 0.1435
vn -0.5095 -0.7887 -0.3441
vn -0.5440 -0.8308 -0.1171
vn -0.5063 -0.8464 0.1648
vn -0.4808 -0.7739 0.4123
vn -0.1500 -0.8611 0.4857
vn -0.1482 -0.9172 -0.3698
vn -0.3082 0.2745 -0.9109
vn -0.3445 -0.1614 -0.9248
vn -0.2408 0.5577 -0.7943
vn -0.4461 0.4620 -0.7665
vn -0.5707 0.2336 -0.7872
vn -0.6232 -0.1271 -0.7717
vn -0.5828 -0.4680 -0.6643
vn -0.3026 -0.6356 -0.7102
vn -0.1783 0.1347 0.9747
vn -0.1652 -0.1814 0.9694
vn -0.5146 0.4458 0.7324
vn -0.1947 0.4737 0.8589
vn -0.1601 -0.5446 0.8233
vn -0.5064 -0.4648 0.7263
vn -0.5466 -0.1746 0.8190
vn -0.5630 0.1438 0.8139
vn -0.6237 0.6944 0.3588
vn -0.7220 0.5506 -0.4190
vn -0.3616 0.0569 -0.9306
vn 0.6237 -0.6944 -0.3588
vn -0.6532 -0.7421 0.1505
vn 0.7220 -0.5506 0.4190
vn 0.3616 -0.0569 0.9306
vn 0.6532 0.7421 -0.1505
vn -0.3623 0.9123 0.1908
vn -0.2717 -0.9511 0.1471
vn -0.1994 -0.9609 -0.1920
vn -0.8363 -0.4878 -0.2501
vn -0.9507 0.3022 -0.0698
vn -0.3398 0.9376 -0.0736
vn -0.2062 -0.9715 -0.1172
vn -0.8647 -0.5002 -0.0453
vn -0.9096 0.4155 -0.0036
vn -0.4550 0.8897 -0.0384
vn -0.3932 0.6763 0.6230
vn -0.3665 0.9065 0.2096
vn -0.5300 -0.0496 0.8465
vn -0.0362 -0.8309 0.5553
vn -0.7788 0.6162 -0.1172
vn -0.9458 -0.2607 0.1935
vn -0.6551 0.7045 -0.2729
vn 0.2337 -0.9079 0.3479
vn 0.8551 -0.3044 -0.4197
vn -0.9991 0.0353 0.0232
vn -0.8730 -0.2382 0.4256
vn 0.8577 -0.4524 -0.2444
vn 0.0028 0.9368 -0.3500
vn -0.8314 0.5469 0.0984
vn 0.8476 0.3057 -0.4337
vn -0.0577 -0.9661 0.2518
vn -0.8460 0.5329 -0.0168
vn 0.8055 0.2752 -0.5248
vn -0.0032 -0.8896 0.4567
vn -0.8919 -0.2027 0.4043
vn 0.8616 -0.4910 -0.1288
vn -0.0113 0.8660 -0.4999
vn -0.2390 0.4443 0.8634
vn 0.9586 -0.1598 0.2357
vn 0.0864 0.9703 -0.2261
vn -0.2105 0.5614 0.8003
vn 0.4543 -0.0343 -0.8902
vn 0.1771 -0.4102 0.8946
vn -0.7720 0.6206 0.1372
vn 0.8233 -0.1377 -0.5506
vn -0.0927 -0.7769 0.6227
vn -0.8025 0.0279 0.5960
vn 0.8291 -0.3544 -0.4325
vn 0.1301 0.8927 -0.4315
vn 0.9912 -0.1259 -0.0400
vn 0.3105 0.7594 -0.5718
vn -0.9742 0.1361 -0.1801
vn 0.9813 0.0821 -0.1739
vn -0.2010 -0.9207 0.3344
vn -0.9796 -0.2001 0.0166
vn 0.9385 -0.3424 -0.0457
vn 0.1764 0.7242 -0.6666
vn -0.9918 0.0226 -0.1255
vn 0.5384 -0.6433 0.5442
vn 0.5878 -0.7501 0.3031
vn 0.5746 -0.7355 0.3590
vn -0.9911 0.1208 0.0562
vn 0.1079 0.7024 -0.7036
vn -0.0369 -0.7864 -0.6166
vn -0.9767 0.1692 0.1318
vn 0.1104 0.6930 -0.7124
vn 0.9218 -0.3792 -0.0806
vn -0.2243 -0.1079 0.9685
vn -0.2261 0.5250 0.8205
vn 0.0701 -0.6880 0.7223
vn -0.2223 0.1531 0.9629
vn 0.4946 -0.5502 -0.6728
vn 0.4593 -0.1696 -0.8719
vn -0.0016 -0.9570 0.2900
vn 0.9458 0.0073 -0.3245
vn -0.6632 0.7479 -0.0281
vn -0.3519 0.9146 -0.1994
vn 0.9509 -0.1628 -0.2631
vn -0.8814 -0.2393 0.4073
vn -0.0481 0.8646 -0.5001
vn 0.7941 -0.5343 -0.2896
vn -0.8654 -0.1936 0.4623
vn 0.0168 -0.9029 0.4296
vn 0.7874 0.2925 -0.5427
vn -0.8318 0.5519 0.0592
vn -0.5136 0.8327 0.2068
vn -0.9944 0.0582 -0.0885
vn -0.4478 -0.7925 -0.4140
vn 0.5172 -0.7679 -0.3780
vn 0.5531 -0.6952 -0.4592
vn 0.5211 0.8263 0.2139
vn -0.3990 0.5124 -0.7604
vn -0.9956 0.0511 -0.0781
vn 0.9769 -0.1727 -0.1257
vn -0.9992 -0.0187 0.0356
vn -0.4814 0.8520 0.2057
vn -0.4640 -0.7301 -0.5016
vn 0.4404 -0.2298 0.8679
vn -0.4433 -0.8279 -0.3437
vn -0.4603 0.6784 0.5727
vn 0.3066 0.9432 0.1280
vn 0.5261 -0.7169 -0.4575
vn -0.9600 -0.1391 0.2430
vn 0.9995 0.0178 -0.0245
vn 0.9996 0.0159 -0.0243
vn -0.5457 0.7243 0.4214
vn -0.5252 -0.6759 -0.5170
vn 0.6160 0.6621 0.4268
vn 0.4644 -0.7194 -0.5165
vn 0.4829 -0.7297 -0.4842
vn 0.4956 0.6451 0.5816
vn -0.4777 -0.6994 -0.5317
vn -0.4959 0.7118 0.4975
vn 1.0000 -0.0001 0.0007
vn -0.9981 0.0297 -0.0542
vn -0.1280 -0.9918 -0.0036
vn 0.2090 -0.4613 -0.8623
vn 0.0421 -0.9623 -0.2687
vn 0.5247 0.0596 -0.8492
vn -0.3198 0.7120 0.6252
vn -0.3581 0.8777 0.3184
vn -0.2359 -0.9703 -0.0530
vn -0.9022 -0.1386 0.4084
vn -0.0009 0.8958 -0.4444
vn -0.4995 -0.7249 -0.4744
vn -0.4967 0.7629 0.4138
vn 0.4967 0.7629 0.4138
vn 0.4996 -0.7245 -0.4750
vn -0.9995 0.0178 -0.0245
vn -0.9982 0.0229 -0.0559
vn 1.0000 0.0001 0.0007
vn -0.5220 0.7904 0.3206
vn -0.4972 -0.7459 -0.4432
vn 0.4932 0.8163 0.3006
vn 0.5171 -0.7636 -0.3866
vn -0.9982 0.0256 -0.0542
vn 1.0000 -0.0000 0.0007
vn -0.5432 0.7255 0.4226
vn -0.4983 -0.7361 -0.4581
vn 0.5242 0.8001 0.2916
vn 0.5020 -0.7626 -0.4078
vn -0.2714 0.9601 0.0678
vn -0.1694 -0.9854 0.0175
vn -0.7558 0.1435 0.6389
vn -0.8931 0.4499 -0.0000
vn -0.8377 -0.5461 -0.0000
vn -0.5999 0.7948 0.0921
vn -0.5165 -0.8562 -0.0132
vn -0.7765 -0.0894 -0.6238
vn 0.9946 0.1042 0.0041
vn -0.1884 0.5092 -0.8398
vn 0.1441 0.9443 -0.2958
vn 0.2158 0.8929 -0.3952
vn 0.2332 0.9724 -0.0047
vn 0.2114 0.8407 0.4986
vn 0.5362 0.7239 0.4341
vn 0.6140 0.7893 -0.0094
vn 0.5575 0.7416 -0.3731
vn 0.4895 0.6746 -0.5525
vn 0.2088 0.7506 -0.6269
vn 0.9486 0.1818 -0.2589
vn 0.9832 0.1706 0.0645
vn 0.9679 -0.1309 -0.2144
vn 0.9842 -0.1492 0.0957
vn 0.7191 0.4598 -0.5211
vn 0.8258 0.4724 -0.3080
vn 0.8791 0.4760 0.0239
vn 0.8171 0.4050 0.4103
vn 0.8813 0.1551 0.4463
vn 0.8704 -0.1617 0.4650
vn 0.7756 -0.4470 0.4457
vn 0.8474 -0.5145 0.1312
vn 0.8444 -0.5089 -0.1672
vn 0.7820 -0.4824 -0.3947
vn 0.8583 -0.1214 -0.4987
vn 0.8209 0.2013 -0.5345
vn 0.1806 -0.9804 -0.0786
vn 0.1607 -0.9818 -0.1015
vn 0.1488 -0.9784 0.1435
vn 0.5095 -0.7887 -0.3441
vn 0.5440 -0.8308 -0.1171
vn 0.5063 -0.8464 0.1648
vn 0.4448 -0.7758 0.4475
vn 0.1542 -0.8626 0.4818
vn 0.1482 -0.9172 -0.3698
vn 0.3082 0.2745 -0.9109
vn 0.3445 -0.1614 -0.9248
vn 0.2408 0.5577 -0.7943
vn 0.4461 0.4620 -0.7665
vn 0.5707 0.2336 -0.7872
vn 0.6232 -0.1271 -0.7717
vn 0.5828 -0.4680 -0.6643
vn 0.2683 -0.6184 -0.7387
vn 0.1783 0.1347 0.9747
vn 0.1652 -0.1814 0.9694
vn 0.5146 0.4458 0.7324
vn 0.1947 0.4737 0.8589
vn 0.1626 -0.5423 0.8243
vn 0.4611 -0.5075 0.7279
vn 0.5466 -0.1746 0.8190
vn 0.5630 0.1438 0.8139
vn -0.6237 -0.6944 -0.3588
vn 0.2665 0.9434 0.1976
vn 0.3863 -0.9060 -0.1730
vn 0.3788 -0.9063 -0.1872
vn 0.9147 -0.3830 -0.1286
vn 0.8173 0.5369 -0.2090
vn 0.1613 0.9839 -0.0773
vn 0.4490 -0.8911 -0.0666
vn 0.9880 -0.1405 -0.0644
vn 0.7494 0.6296 -0.2048
vn 0.0287 0.9987 -0.0432
vn 0.5810 0.3177 0.7493
vn 0.2904 0.8265 0.4822
vn 0.5632 -0.2718 0.7803
vn 0.1759 -0.8753 0.4505
vn 0.5895 0.4836 0.6471
vn 0.9491 -0.3075 -0.0684
vn -0.9006 0.3572 0.2475
vn 0.6169 -0.7628 -0.1937
vn -0.8911 0.0792 -0.4468
vn -0.9828 0.1208 -0.1396
vn 0.8646 -0.4960 0.0803
vn -0.8998 -0.1661 -0.4034
vn -0.0080 0.8293 0.5587
vn 0.8052 0.2375 0.5434
vn -0.8432 0.5371 -0.0210
vn 0.0687 -0.7662 -0.6390
vn 0.8919 0.3042 0.3348
vn -0.8177 0.5675 -0.0963
vn -0.0045 -0.9241 -0.3820
vn 0.9006 -0.4291 0.0696
vn -0.8743 -0.2405 -0.4216
vn -0.0006 0.9420 0.3357
vn 0.5226 -0.4944 0.6945
vn -0.9781 -0.2072 0.0173
vn -0.4982 0.5310 0.6855
vn 0.2529 -0.2417 0.9368
vn -0.6772 0.3729 -0.6343
vn -0.1518 -0.9495 0.2746
vn 0.7899 0.3097 0.5293
vn 0.0040 -0.9400 -0.3411
vn 0.8250 -0.4235 0.3742
vn -0.1271 0.9054 0.4050
vn -0.9927 -0.0966 -0.0729
vn -0.3156 0.9230 0.2202
vn 0.9810 0.1471 -0.1264
vn -0.9852 0.1709 -0.0098
vn -0.1569 -0.8083 -0.5675
vn 0.9750 -0.1278 -0.1817
vn -0.1341 0.9907 0.0208
vn 0.9827 0.1178 -0.1430
vn -0.5311 -0.8395 -0.1148
vn -0.5919 -0.7260 -0.3502
vn -0.0036 -0.0403 -0.9992
vn 0.9875 0.0144 0.1571
vn -0.0550 0.9976 0.0410
vn -0.9373 -0.1285 -0.3241
vn 0.2304 -0.1795 0.9564
vn 0.5591 0.6305 0.5384
vn 0.0474 -0.3978 0.9162
vn 0.4413 -0.0821 0.8936
vn -0.5316 0.1478 -0.8340
vn -0.4957 0.5466 -0.6749
vn 0.0601 -0.7710 -0.6340
vn -0.9459 0.2395 -0.2189
vn 0.6312 0.4845 0.6057
vn 0.1328 0.7975 0.5885
vn -0.9100 -0.1064 -0.4008
vn 0.8767 -0.4788 0.0460
vn -0.0280 0.8789 0.4761
vn -0.8755 -0.2298 -0.4250
vn 0.8629 -0.4867 0.1362
vn -0.0374 -0.9069 -0.4197
vn -0.7925 0.6026 -0.0943
vn 0.8237 0.2991 0.4817
vn 0.5996 0.4855 -0.6362
vn 0.9943 -0.0540 -0.0915
vn 0.4137 -0.7267 0.5485
vn -0.7162 -0.4850 0.5019
vn -0.7051 -0.4423 0.5543
vn 1.0000 0.0026 -0.0048
vn -0.9947 0.0802 -0.0637
vn 0.9973 -0.0012 -0.0739
vn -0.9623 -0.1494 0.2273
vn 0.9992 0.0213 0.0326
vn 0.5998 0.5886 -0.5420
vn 0.3729 -0.6611 0.6510
vn -0.5498 0.0385 0.8344
vn -0.6407 0.2676 0.7196
vn 0.2774 -0.0542 0.9592
vn 0.3032 -0.7296 0.6130
vn 0.5934 0.7759 -0.2144
vn 0.1108 0.9334 -0.3414
vn -0.7765 -0.5498 0.3078
vn 0.9650 0.0049 0.2623
vn -0.9992 -0.0006 -0.0397
vn -0.9999 -0.0002 -0.0101
vn 0.4993 0.8638 -0.0682
vn 0.5238 -0.8518 0.0128
vn -0.6145 0.7880 -0.0392
vn -0.4992 -0.8659 0.0311
vn -0.4969 -0.8639 0.0824
vn -0.4712 0.8763 0.1007
vn 0.4577 -0.8472 0.2697
vn 0.4831 0.8749 -0.0335
vn -1.0000 0.0001 0.0008
vn 0.9981 -0.0145 -0.0602
vn 0.1137 -0.7128 -0.6921
vn 0.0711 -0.5337 0.8427
vn 0.3620 0.9224 0.1344
vn 0.3326 0.8327 0.4428
vn 0.2992 -0.9541 -0.0108
vn 0.8883 -0.0712 0.4538
vn 0.0007 0.2546 -0.9671
vn -0.0072 0.2496 -0.9683
vn -0.0560 0.2143 -0.9752
vn 0.4839 -0.8739 0.0468
vn 0.4716 0.8727 -0.1265
vn -0.4966 0.8582 -0.1297
vn -0.4990 -0.8653 0.0476
vn 0.9992 0.0101 -0.0391
vn 0.9986 -0.0334 -0.0404
vn -1.0000 0.0006 0.0006
vn 0.4162 0.3185 -0.8517
vn 0.5077 -0.6525 0.5626
vn -0.2844 0.1058 -0.9529
vn -0.4778 -0.5828 0.6572
vn 0.9986 -0.0246 -0.0478
vn -1.0000 0.0005 0.0008
vn 0.5305 0.7691 -0.3564
vn 0.5068 -0.6980 0.5059
vn -0.4878 0.6294 -0.6049
vn -0.4829 -0.7889 0.3800
vn 0.2821 0.9563 0.0765
vn 0.2527 -0.9655 -0.0619
vn 0.7360 -0.3383 0.5864
vn 0.8987 -0.0683 0.4333
vn 0.8391 0.5429 0.0335
vn 0.5999 0.7948 0.0921
vn 0.5513 -0.8343 -0.0000
vn -0.2158 0.8929 -0.3952
vn -0.2309 0.9730 -0.0026
vn -0.2114 0.8407 0.4986
vn -0.5934 0.7171 0.3657
vn -0.6038 0.7971 0.0039
vn -0.5368 0.7678 -0.3497
vn -0.4895 0.6746 -0.5525
vn -0.2088 0.7506 -0.6269
vn -0.9488 0.1900 -0.2522
vn -0.9829 0.1719 0.0657
vn -0.9669 -0.1341 -0.2169
vn -0.9843 -0.1466 0.0981
vn -0.7198 0.4412 -0.5359
vn -0.8218 0.4872 -0.2955
vn -0.8739 0.4848 0.0339
vn -0.8171 0.4050 0.4103
vn -0.8793 0.1584 0.4492
vn -0.8717 -0.1659 0.4611
vn -0.7717 -0.4987 0.3948
vn -0.8452 -0.5193 0.1267
vn -0.8441 -0.5094 -0.1677
vn -0.7820 -0.4824 -0.3947
vn -0.8572 -0.1236 -0.4999
vn -0.8229 0.2097 -0.5281
vn -0.1607 -0.9818 -0.1015
vn -0.1806 -0.9804 -0.0786
vn -0.1564 -0.9765 0.1485
vn -0.4800 -0.7943 -0.3725
vn -0.5169 -0.8425 -0.1518
vn -0.4664 -0.8756 0.1262
vn -0.4448 -0.7758 0.4475
vn -0.1542 -0.8626 0.4818
vn -0.2261 -0.9220 -0.3144
vn -0.3148 0.2794 -0.9071
vn -0.3250 -0.1799 -0.9284
vn -0.2669 0.5681 -0.7785
vn -0.4934 0.5045 -0.7086
vn -0.5804 0.2495 -0.7751
vn -0.6137 -0.1420 -0.7766
vn -0.5175 -0.5489 -0.6564
vn -0.2683 -0.6184 -0.7387
vn -0.1733 0.1395 0.9749
vn -0.1703 -0.1865 0.9676
vn -0.5492 0.4099 0.7283
vn -0.1876 0.4801 0.8569
vn -0.1626 -0.5423 0.8243
vn -0.4611 -0.5075 0.7279
vn -0.5518 -0.1809 0.8141
vn -0.5611 0.1458 0.8148
vn -0.4302 0.8997 -0.0735
vn -0.1451 -0.9850 -0.0934
vn -0.2080 -0.9579 -0.1979
vn -0.9478 -0.2898 -0.1328
vn -0.9058 0.4094 -0.1093
vn -0.2548 0.9670 0.0088
vn -0.1457 -0.9866 -0.0734
vn -0.9193 -0.3822 -0.0938
vn -0.9685 0.1959 0.1534
vn -0.3362 0.9350 0.1125
vn -0.7199 0.4598 0.5199
vn -0.2594 0.8341 0.4868
vn -0.2824 -0.1469 0.9480
vn -0.0415 -0.8331 0.5516
vn -0.7883 0.5281 -0.3157
vn -0.6894 -0.1967 0.6972
vn -0.9433 0.3022 -0.1372
vn -0.2488 -0.9565 0.1523
vn 0.2964 -0.6073 -0.7371
vn -0.8827 0.1272 -0.4523
vn -0.8880 -0.2372 0.3940
vn 0.9092 -0.4058 -0.0933
vn -0.0089 0.9108 -0.4128
vn -0.8156 0.5674 0.1129
vn 0.8550 0.3239 -0.4050
vn -0.0533 -0.9612 0.2708
vn -0.8820 0.4710 0.0187
vn 0.8411 0.1898 -0.5065
vn -0.0150 -0.8892 0.4574
vn -0.8965 -0.1934 0.3987
vn 0.8594 -0.4960 -0.1238
vn -0.0001 0.8657 -0.5006
vn -0.4862 0.2190 0.8460
vn 0.9810 -0.1424 0.1316
vn 0.5179 0.8552 0.0209
vn -0.6107 0.7247 0.3192
vn 0.6449 -0.2554 -0.7204
vn 0.5358 -0.2011 0.8201
vn -0.7899 0.4378 0.4295
vn -0.0040 -0.8691 0.4946
vn -0.8666 0.1070 0.4874
vn 0.2584 0.7430 -0.6175
vn 0.9902 -0.1395 -0.0115
vn 0.6860 0.4915 -0.5365
vn -0.9875 0.0204 -0.1565
vn 0.9655 0.1754 -0.1924
vn 0.1455 -0.9594 0.2415
vn -0.9888 -0.1324 -0.0692
vn 0.1200 0.6555 -0.7456
vn -0.9894 -0.0112 -0.1449
vn 0.5296 -0.6841 0.5015
vn 0.5459 -0.7874 0.2864
vn 0.2122 -0.5571 -0.8028
vn -0.9803 0.1502 0.1284
vn 0.0417 0.6771 -0.7347
vn 0.9250 -0.3501 -0.1478
vn -0.1946 -0.1269 0.9726
vn -0.5591 0.6305 0.5384
vn -0.0140 -0.3494 0.9369
vn -0.4985 -0.0438 0.8658
vn 0.4784 -0.5469 -0.6871
vn 0.5886 -0.2913 -0.7541
vn -0.0266 -0.9512 0.3073
vn 0.8735 0.3107 -0.3748
vn -0.8128 0.5624 0.1520
vn -0.0452 0.9002 -0.4331
vn 0.9222 -0.3674 -0.1204
vn -0.8790 -0.2473 0.4076
vn 0.0211 0.9109 -0.4121
vn 0.8610 -0.4918 -0.1298
vn -0.8913 -0.2011 0.4064
vn -0.0469 -0.9408 0.3358
vn 0.7743 0.2545 -0.5794
vn -0.8229 0.5641 0.0682
vn -0.4824 0.8525 0.2014
vn -0.9941 0.0411 -0.1004
vn -0.5003 -0.7751 -0.3860
vn 0.5371 -0.7599 -0.3661
vn 0.5334 -0.6424 -0.5502
vn 0.4911 0.8411 0.2268
vn -0.4647 0.5097 -0.7241
vn -0.9957 0.0545 -0.0750
vn 0.9812 -0.1815 0.0664
vn -0.9990 -0.0196 0.0408
vn -0.5046 0.7438 0.4384
vn -0.4704 -0.7750 -0.4221
vn 0.5578 -0.1639 0.8136
vn 0.5094 -0.2644 0.8189
vn 0.4566 -0.6542 0.6030
vn -0.4601 -0.8548 -0.2401
vn -0.4734 0.7711 0.4258
vn -0.0663 0.9371 -0.3427
vn 0.5452 -0.6795 -0.4910
vn -0.9403 -0.1106 0.3219
vn 0.9995 0.0286 -0.0158
vn 0.9996 0.0172 -0.0236
vn -0.4986 0.7417 0.4486
vn -0.5000 -0.6925 -0.5201
vn 0.4999 0.7124 0.4925
vn 0.5000 -0.6993 -0.5109
vn 0.4839 -0.7243 -0.4912
vn 0.6146 0.6745 0.4090
vn -0.4806 -0.6623 -0.5747
vn -0.5526 0.6424 0.5310
vn 1.0000 -0.0004 0.0007
vn -0.9979 0.0353 -0.0539
vn 0.3486 -0.3892 -0.8527
vn -0.2368 -0.9715 0.0055
vn 0.1276 0.9881 0.0862
vn -0.2981 0.8428 0.4481
vn -0.1690 -0.9814 0.0909
vn -0.8736 -0.1101 0.4741
vn -0.0012 0.8522 -0.5232
vn 0.0799 0.8729 -0.4814
vn 0.0021 0.8966 -0.4429
vn -0.4498 -0.7437 -0.4945
vn -0.4454 0.7825 0.4351
vn 0.4480 0.7816 0.4341
vn 0.4561 -0.7410 -0.4927
vn -0.9994 0.0299 -0.0148
vn -0.9977 0.0291 -0.0617
vn 1.0000 -0.0001 0.0009
vn -0.5429 0.7407 0.3958
vn -0.4984 -0.7363 -0.4576
vn 0.5254 0.7292 0.4383
vn 0.5108 -0.7869 -0.3462
vn -0.9978 0.0320 -0.0585
vn 1.0000 -0.0002 0.0008
vn -0.4792 0.8368 0.2648
vn -0.4972 -0.7202 -0.4838
vn 0.5009 0.7726 0.3901
vn 0.5023 -0.7510 -0.4286
vn -0.2691 0.9600 0.0768
vn -0.2189 -0.9725 -0.0798
vn -0.9080 -0.0957 0.4078
vn -0.7513 -0.3375 0.5672
vn -0.8391 0.5429 0.0335
vn -0.5488 0.8323 0.0777
vn -0.5513 -0.8343 -0.0000
vn -0.9625 0.0357 -0.2691
vn 0.3994 0.1648 -0.9018
vn -0.2521 0.6971 -0.6712
vn 0.5234 0.8342 0.1735
vt 0.500000 0.375000
vt 0.437500 0.437500
vt 0.437500 0.375000
vt 0.562500 0.437500
vt 0.500000 0.437500
vt 0.625000 0.375000
vt 0.562500 0.375000
vt 0.625000 0.500000
vt 0.562500 0.500000
vt 0.500000 0.500000
vt 0.437500 0.500000
vt 0.375000 0.500000
vt 0.375000 0.437500
vt 0.375000 0.375000
vt 0.437500 0.562500
vt 0.500000 0.625000
vt 0.437500 0.625000
vt 0.500000 0.562500
vt 0.562500 0.625000
vt 0.500000 0.687500
vt 0.437500 0.687500
vt 0.562500 0.687500
vt 0.375000 0.562500
vt 0.562500 0.562500
vt 0.625000 0.625000
vt 0.625000 0.687500
vt 0.625000 0.750000
vt 0.562500 0.750000
vt 0.500000 0.750000
vt 0.437500 0.750000
vt 0.375000 0.750000
vt 0.375000 0.687500
vt 0.375000 0.625000
vt 0.500000 0.875000
vt 0.468750 0.875000
vt 0.437500 0.875000
vt 0.500000 0.812500
vt 0.562500 0.875000
vt 0.437500 0.812500
vt 0.375000 0.812500
vt 0.562500 0.812500
vt 0.625000 0.812500
vt 0.375000 0.875000
vt 0.250000 0.562500
vt 0.312500 0.625000
vt 0.250000 0.625000
vt 0.312500 0.687500
vt 0.250000 0.687500
vt 0.250000 0.500000
vt 0.312500 0.562500
vt 0.312500 0.500000
vt 0.312500 0.750000
vt 0.250000 0.750000
vt 0.687500 0.562500
vt 0.750000 0.625000
vt 0.687500 0.625000
vt 0.750000 0.687500
vt 0.687500 0.687500
vt 0.625000 0.562500
vt 0.687500 0.500000
vt 0.750000 0.562500
vt 0.687500 0.750000
vt 1.000000 0.500000
vt 0.833333 1.000000
vt 0.833333 0.500000
vt 0.666667 1.000000
vt 0.666667 0.500000
vt 0.500000 1.000000
vt 0.500000 0.500000
vt 0.333333 0.500000
vt 0.042154 0.130000
vt 0.250000 0.010000
vt 0.457846 0.130000
vt 0.333333 1.000000
vt 0.166667 0.500000
vt 0.166667 1.000000
vt -0.000000 0.500000
vt 0.542154 0.130000
vt 0.542154 0.370000
vt 0.957846 0.370000
vt 1.000000 0.828637
vt 0.875000 1.000000
vt 0.875000 0.828637
vt 0.625000 0.828637
vt 0.500000 1.000000
vt 0.500000 0.828637
vt 0.625000 0.645722
vt 0.500000 0.500000
vt 0.750000 0.500000
vt 0.875000 0.645722
vt 0.875000 0.500000
vt 0.500000 0.645722
vt 0.750000 0.828637
vt 0.750000 0.645722
vt 1.000000 0.645722
vt 0.750000 1.000000
vt 1.000000 1.000000
vt 0.625000 1.000000
vt 0.749520 0.964446
vt 0.653402 0.965669
vt 0.844587 0.863513
vt 0.844268 0.965118
vt 0.647775 0.863148
vt 0.750840 0.864057
vt 0.749520 0.964446
vt 0.750840 0.864057
vt 0.647775 0.863149
vt 0.844587 0.863513
vt 0.844267 0.965117
vt 0.653402 0.965669
vt 0.749520 0.964446
vt 0.844268 0.965117
vt 0.750840 0.864057
vt 0.653402 0.965669
vt 0.844587 0.863513
vt 0.000000 0.000000
vt 0.833333 0.500000
vt -0.000000 1.000000
vt 0.500000 0.500000
vt 0.500000 0.500000
vt 0.166667 0.500000
vt -0.000000 0.500000
vt 0.833333 0.500000
vt 0.042154 0.370000
vt 0.457846 0.370000
vt 0.750000 0.010000
vt 0.333333 0.500000
vt 0.457846 0.250000
vt 0.625000 0.437500
vt 0.750000 0.500000
vt 0.957846 0.130000
vt 0.250000 0.490000
vt 0.625000 0.875000
vt 0.750000 0.750000
vt 0.250000 0.490000
vt 0.750000 0.490000
vt 0.750000 0.490000
s 0
f 26/1/1 28/2/1 25/3/1
f 26/1/2 30/4/2 29/5/2
f 7/6/3 30/4/3 27/7/3
f 30/4/4 4/8/4 9/9/4
f 29/5/5 9/9/5 10/10/5
f 28/2/6 10/10/6 11/11/6
f 28/2/7 3/12/7 5/13/7
f 25/3/8 5/13/8 6/14/8
f 31/15/9 35/16/9 34/17/9
f 32/18/10 36/19/10 35/16/10
f 34/17/11 38/20/11 37/21/11
f 35/16/12 39/22/12 38/20/12
f 3/12/13 31/15/13 14/23/13
f 11/11/14 32/18/14 31/15/14
f 10/10/15 33/24/15 32/18/15
f 4/8/16 33/24/16 9/9/16
f 33/24/17 16/25/17 36/19/17
f 36/19/18 17/26/18 39/22/18
f 39/22/19 2/27/19 18/28/19
f 38/20/20 18/28/20 19/29/20
f 37/21/21 19/29/21 20/30/21
f 37/21/22 1/31/22 12/32/22
f 13/33/23 37/21/23 12/32/23
f 14/23/24 34/17/24 13/33/24
f 44/34/25 58/35/25 43/36/25
f 41/37/26 45/38/26 44/34/26
f 1/31/27 40/39/27 22/40/27
f 20/30/28 41/37/28 40/39/28
f 19/29/29 42/41/29 41/37/29
f 2/27/30 42/41/30 18/28/30
f 23/42/31 45/38/31 42/41/31
f 22/40/32 43/36/32 21/43/32
f 46/44/33 49/45/33 48/46/33
f 48/46/34 51/47/34 50/48/34
f 6/49/35 47/50/35 46/44/35
f 5/51/36 14/23/36 47/50/36
f 47/50/37 13/33/37 49/45/37
f 49/45/38 12/32/38 51/47/38
f 51/47/39 1/31/39 22/52/39
f 51/47/40 21/53/40 50/48/40
f 52/54/41 55/55/41 54/56/41
f 54/56/42 57/57/42 56/58/42
f 4/8/43 52/54/43 15/59/43
f 8/60/44 53/61/44 52/54/44
f 57/57/45 23/62/45 56/58/45
f 56/58/46 2/27/46 17/26/46
f 16/25/47 56/58/47 17/26/47
f 15/59/48 54/56/48 16/25/48
f 59/63/49 62/64/49 61/65/49
f 61/65/50 64/66/50 63/67/50
f 63/67/51 66/68/51 65/69/51
f 66/68/52 67/70/52 65/69/52
f 68/71/53 66/72/53 64/73/53
f 68/74/54 69/75/54 67/70/54
f 70/76/55 59/77/55 69/75/55
f 67/78/56 69/79/56 61/80/56
f 86/81/57 97/82/57 99/83/57
f 100/84/58 80/85/58 90/86/58
f 84/87/59 79/88/59 77/8/59
f 75/89/60 84/87/60 77/8/60
f 82/90/61 75/89/61 73/91/61
f 71/63/62 82/90/62 73/91/62
f 100/84/63 85/92/63 84/87/63
f 101/93/64 84/87/64 83/94/64
f 99/83/65 83/94/65 82/90/65
f 81/95/66 99/83/66 82/90/66
f 97/82/67 93/96/67 96/96/67
f 72/97/68 92/82/68 97/82/68
f 98/98/69 93/96/69 94/98/69
f 80/85/70 94/98/70 95/85/70
f 76/99/71 97/82/71 96/96/71
f 78/100/72 96/96/72 98/98/72
f 87/101/73 97/82/73 74/102/73
f 78/100/74 100/84/74 89/103/74
f 89/103/75 101/93/75 88/104/75
f 87/101/76 101/93/76 99/83/76
f 150/105/77 104/100/77 103/99/77
f 151/106/78 107/103/78 152/107/78
f 154/108/79 102/102/79 105/101/79
f 150/105/80 102/102/80 153/109/80
f 151/106/81 105/101/81 106/104/81
f 152/107/82 104/100/82 149/110/82
f 155/111/83 108/102/83 156/112/83
f 158/113/84 111/101/84 112/104/84
f 160/114/85 113/103/85 110/100/85
f 155/111/86 110/100/86 109/99/86
f 158/113/87 113/103/87 159/107/87
f 156/112/88 111/101/88 157/115/88
f 110/100/89 115/99/89 109/99/89
f 112/104/90 133/103/90 113/103/90
f 108/102/91 117/101/91 111/101/91
f 108/102/92 115/99/92 114/102/92
f 111/101/93 118/104/93 112/104/93
f 110/100/94 119/103/94 116/100/94
f 114/102/95 121/99/95 120/102/95
f 117/101/96 124/104/96 118/104/96
f 119/103/97 122/100/97 116/100/97
f 115/99/98 122/100/98 121/99/98
f 119/103/99 124/104/99 125/103/99
f 117/101/100 120/102/100 123/101/100
f 124/104/101 131/103/101 125/103/101
f 123/101/102 126/102/102 129/101/102
f 121/99/103 126/102/103 120/102/103
f 124/104/104 129/101/104 130/104/104
f 125/103/105 128/100/105 122/100/105
f 121/99/106 128/100/106 127/99/106
f 132/104/107 137/103/107 133/103/107
f 118/104/108 132/104/108 112/104/108
f 119/103/109 134/104/109 118/104/109
f 119/103/110 133/103/110 135/103/110
f 139/103/111 141/103/111 143/103/111
f 135/103/112 137/103/112 139/103/112
f 135/103/113 138/104/113 134/104/113
f 134/104/114 136/104/114 132/104/114
f 141/103/115 142/104/115 143/103/115
f 139/103/116 142/104/116 138/104/116
f 138/104/117 140/104/117 136/104/117
f 136/104/118 141/103/118 137/103/118
f 94/98/119 146/96/119 147/98/119
f 91/97/120 145/82/120 92/82/120
f 94/98/121 148/85/121 95/85/121
f 92/82/122 146/96/122 93/96/122
f 128/100/123 130/104/123 127/99/123
f 127/99/124 129/101/124 126/102/124
f 89/103/125 149/110/125 78/100/125
f 88/104/126 154/108/126 151/106/126
f 74/102/127 150/105/127 153/109/127
f 87/101/128 153/109/128 154/108/128
f 88/104/129 152/107/129 89/103/129
f 78/100/130 150/105/130 76/99/130
f 102/102/131 157/115/131 105/101/131
f 106/104/132 159/107/132 107/103/132
f 103/99/133 160/114/133 155/111/133
f 104/100/134 159/107/134 160/114/134
f 106/104/135 157/115/135 158/113/135
f 103/99/136 156/112/136 102/102/136
f 162/97/137 163/65/137 161/63/137
f 163/65/138 166/66/138 165/67/138
f 165/67/139 168/68/139 167/69/139
f 168/68/140 169/70/140 167/69/140
f 170/74/141 175/68/141 176/74/141
f 368/74/142 369/75/142 416/116/142
f 170/74/143 171/75/143 169/70/143
f 190/67/144 185/65/144 191/117/144
f 177/76/145 182/74/145 183/76/145
f 164/64/146 174/66/146 166/66/146
f 164/64/147 172/97/147 173/64/147
f 166/66/148 175/68/148 168/68/148
f 182/71/149 181/72/149 180/73/149
f 174/66/150 181/68/150 175/68/150
f 173/64/151 178/97/151 179/64/151
f 177/76/152 178/118/152 172/118/152
f 175/68/153 182/74/153 176/74/153
f 173/64/154 180/66/154 174/66/154
f 188/70/155 210/75/155 209/70/155
f 192/75/156 188/70/156 193/70/156
f 191/117/157 184/63/157 194/63/157
f 190/67/158 187/69/158 186/67/158
f 192/75/159 184/77/159 189/75/159
f 193/70/160 187/69/160 195/119/160
f 221/70/161 195/119/161 219/120/161
f 218/121/162 194/122/162 192/75/162
f 217/67/163 195/119/163 190/67/163
f 222/63/164 191/117/164 194/63/164
f 218/121/165 193/70/165 221/70/165
f 220/123/166 190/67/166 191/117/166
f 183/76/167 178/118/167 200/116/167
f 182/116/168 197/116/168 196/116/168
f 181/116/169 198/116/169 197/116/169
f 196/116/170 183/124/170 182/71/170
f 199/116/171 178/116/171 200/116/171
f 199/116/172 201/116/172 179/116/172
f 198/116/173 202/116/173 203/116/173
f 179/125/174 202/73/174 180/73/174
f 206/80/175 208/126/175 210/79/175
f 187/69/176 207/67/176 186/67/176
f 185/65/177 205/63/177 184/63/177
f 189/75/178 205/77/178 210/75/178
f 187/69/179 209/70/179 208/69/179
f 186/67/180 206/65/180 185/65/180
f 163/65/181 214/67/181 211/123/181
f 171/75/182 212/127/182 169/70/182
f 161/63/183 211/123/183 213/63/183
f 165/67/184 216/69/184 214/67/184
f 161/77/185 215/121/185 171/75/185
f 169/70/186 216/69/186 167/69/186
f 211/123/187 217/67/187 220/123/187
f 215/121/188 221/70/188 212/127/188
f 213/63/189 220/123/189 222/63/189
f 214/67/190 219/120/190 217/67/190
f 215/121/191 222/77/191 218/121/191
f 212/127/192 219/120/192 216/69/192
f 204/116/193 73/116/193 201/116/193
f 203/116/194 77/116/194 79/116/194
f 201/125/195 73/125/195 75/128/195
f 145/82/196 225/96/196 146/96/196
f 146/96/197 226/98/197 147/98/197
f 145/82/198 223/97/198 224/82/198
f 147/98/199 227/85/199 148/85/199
f 248/2/200 26/1/200 25/3/200
f 26/1/201 250/4/201 27/7/201
f 250/4/202 7/6/202 27/7/202
f 250/4/203 231/8/203 233/129/203
f 249/5/204 234/9/204 250/4/204
f 248/2/205 235/10/205 249/5/205
f 230/12/206 248/2/206 232/13/206
f 232/13/207 25/3/207 6/14/207
f 251/15/208 255/16/208 252/18/208
f 252/18/209 256/19/209 253/24/209
f 254/17/210 258/20/210 255/16/210
f 255/16/211 259/22/211 256/19/211
f 230/12/212 251/15/212 236/11/212
f 236/11/213 252/18/213 235/10/213
f 235/10/214 253/24/214 234/9/214
f 253/24/215 231/8/215 234/9/215
f 253/24/216 241/25/216 240/59/216
f 256/19/217 242/26/217 241/25/217
f 259/22/218 229/27/218 242/26/218
f 258/20/219 243/28/219 259/22/219
f 257/21/220 244/29/220 258/20/220
f 228/31/221 257/21/221 237/32/221
f 238/33/222 257/21/222 254/17/222
f 239/23/223 254/17/223 251/15/223
f 261/37/224 45/38/224 262/41/224
f 228/31/225 260/39/225 245/30/225
f 245/30/226 261/37/226 244/29/226
f 244/29/227 262/41/227 243/28/227
f 262/41/228 229/27/228 243/28/228
f 45/38/229 247/42/229 262/41/229
f 246/40/230 43/36/230 260/39/230
f 46/44/231 264/45/231 263/50/231
f 48/46/232 265/47/232 264/45/232
f 6/49/233 263/50/233 232/51/233
f 232/51/234 239/23/234 230/12/234
f 263/50/235 238/33/235 239/23/235
f 264/45/236 237/32/236 238/33/236
f 265/47/237 228/31/237 237/32/237
f 21/53/238 265/47/238 50/48/238
f 266/54/239 55/55/239 53/61/239
f 267/56/240 57/57/240 55/55/240
f 231/8/241 266/54/241 233/60/241
f 233/60/242 53/61/242 7/130/242
f 247/62/243 57/57/243 268/58/243
f 229/27/244 268/58/244 242/26/244
f 241/25/245 268/58/245 267/56/245
f 240/59/246 267/56/246 266/54/246
f 269/63/247 272/64/247 270/97/247
f 271/65/248 274/66/248 272/64/248
f 273/67/249 276/68/249 274/66/249
f 277/70/250 276/68/250 275/69/250
f 278/71/251 280/124/251 274/73/251
f 279/75/252 278/74/252 277/70/252
f 269/77/253 280/76/253 279/75/253
f 271/80/254 277/78/254 273/131/254
f 86/81/255 297/82/255 72/97/255
f 300/84/256 80/85/256 298/98/256
f 79/88/257 289/87/257 285/8/257
f 283/89/258 289/87/258 288/94/258
f 283/89/259 287/90/259 281/91/259
f 71/63/260 287/90/260 81/95/260
f 85/92/261 300/84/261 289/87/261
f 289/87/262 301/93/262 288/94/262
f 288/94/263 299/83/263 287/90/263
f 81/95/264 299/83/264 86/81/264
f 294/96/265 297/82/265 296/96/265
f 293/82/266 72/97/266 297/82/266
f 298/98/267 294/96/267 296/96/267
f 80/85/268 295/98/268 298/98/268
f 284/99/269 297/82/269 282/102/269
f 286/100/270 296/96/270 284/99/270
f 297/82/271 290/101/271 282/102/271
f 300/84/272 286/100/272 292/103/272
f 301/93/273 292/103/273 291/104/273
f 290/101/274 301/93/274 291/104/274
f 348/105/275 304/100/275 347/110/275
f 307/103/276 349/106/276 350/107/276
f 352/108/277 302/102/277 351/109/277
f 302/102/278 348/105/278 351/109/278
f 349/106/279 305/101/279 352/108/279
f 304/100/280 350/107/280 347/110/280
f 308/102/281 353/111/281 354/112/281
f 356/113/282 311/101/282 355/115/282
f 358/114/283 313/103/283 357/107/283
f 353/111/284 310/100/284 358/114/284
f 313/103/285 356/113/285 357/107/285
f 311/101/286 354/112/286 355/115/286
f 315/99/287 310/100/287 309/99/287
f 333/103/288 312/104/288 313/103/288
f 317/101/289 308/102/289 311/101/289
f 308/102/290 315/99/290 309/99/290
f 318/104/291 311/101/291 312/104/291
f 310/100/292 319/103/292 313/103/292
f 314/102/293 321/99/293 315/99/293
f 324/104/294 317/101/294 318/104/294
f 322/100/295 319/103/295 316/100/295
f 315/99/296 322/100/296 316/100/296
f 319/103/297 324/104/297 318/104/297
f 317/101/298 320/102/298 314/102/298
f 331/103/299 324/104/299 325/103/299
f 323/101/300 326/102/300 320/102/300
f 326/102/301 321/99/301 320/102/301
f 324/104/302 329/101/302 323/101/302
f 328/100/303 325/103/303 322/100/303
f 321/99/304 328/100/304 322/100/304
f 337/103/305 332/104/305 333/103/305
f 332/104/306 318/104/306 312/104/306
f 334/104/307 319/103/307 318/104/307
f 319/103/308 333/103/308 313/103/308
f 339/103/309 341/103/309 337/103/309
f 335/103/310 337/103/310 333/103/310
f 338/104/311 335/103/311 334/104/311
f 336/104/312 334/104/312 332/104/312
f 341/103/313 342/104/313 340/104/313
f 342/104/314 339/103/314 338/104/314
f 340/104/315 338/104/315 336/104/315
f 341/103/316 336/104/316 337/103/316
f 295/98/317 345/96/317 294/96/317
f 344/82/318 91/97/318 293/82/318
f 148/85/319 295/98/319 95/85/319
f 345/96/320 293/82/320 294/96/320
f 328/100/321 330/104/321 331/103/321
f 327/99/322 329/101/322 330/104/322
f 347/110/323 292/103/323 286/100/323
f 291/104/324 352/108/324 290/101/324
f 282/102/325 348/105/325 284/99/325
f 290/101/326 351/109/326 282/102/326
f 350/107/327 291/104/327 292/103/327
f 348/105/328 286/100/328 284/99/328
f 355/115/329 302/102/329 305/101/329
f 357/107/330 306/104/330 307/103/330
f 303/99/331 358/114/331 304/100/331
f 304/100/332 357/107/332 307/103/332
f 306/104/333 355/115/333 305/101/333
f 354/112/334 303/99/334 302/102/334
f 361/65/335 360/97/335 359/63/335
f 361/65/336 364/66/336 362/64/336
f 363/67/337 366/68/337 364/66/337
f 367/70/338 366/68/338 365/69/338
f 368/74/339 373/68/339 366/68/339
f 416/116/340 359/63/340 360/97/340
f 162/97/341 171/75/341 415/116/341
f 381/65/342 386/67/342 387/117/342
f 177/76/343 379/74/343 374/74/343
f 372/66/344 362/64/344 364/66/344
f 362/64/345 370/97/345 360/97/345
f 373/68/346 364/66/346 366/68/346
f 379/71/347 183/124/347 375/132/347
f 378/68/348 372/66/348 373/68/348
f 371/64/349 375/97/349 370/97/349
f 375/118/350 177/76/350 370/118/350
f 379/74/351 373/68/351 374/74/351
f 377/66/352 371/64/352 372/66/352
f 384/70/353 399/75/353 385/75/353
f 384/70/354 388/75/354 389/70/354
f 380/63/355 387/117/355 390/63/355
f 386/67/356 383/69/356 391/119/356
f 388/75/357 380/77/357 390/122/357
f 383/69/358 389/70/358 391/119/358
f 391/119/359 410/70/359 408/120/359
f 407/121/360 390/122/360 411/77/360
f 406/67/361 391/119/361 408/120/361
f 411/63/362 387/117/362 409/123/362
f 389/70/363 407/121/363 410/70/363
f 409/123/364 386/67/364 406/67/364
f 183/76/365 200/116/365 375/118/365
f 197/116/366 379/116/366 196/116/366
f 198/116/367 378/116/367 197/116/367
f 196/116/368 379/71/368 183/124/368
f 199/116/369 375/116/369 376/116/369
f 392/116/370 199/116/370 376/116/370
f 198/116/371 393/116/371 377/116/371
f 393/73/372 376/125/372 377/73/372
f 399/79/373 397/126/373 395/80/373
f 396/67/374 383/69/374 382/67/374
f 394/63/375 381/65/375 380/63/375
f 385/75/376 394/77/376 380/77/376
f 383/69/377 398/70/377 384/70/377
f 395/65/378 382/67/378 381/65/378
f 361/65/379 403/67/379 363/67/379
f 401/127/380 369/75/380 367/70/380
f 359/63/381 400/123/381 361/65/381
f 363/67/382 405/69/382 365/69/382
f 404/121/383 359/77/383 369/75/383
f 405/69/384 367/70/384 365/69/384
f 400/123/385 406/67/385 403/67/385
f 410/70/386 404/121/386 401/127/386
f 402/63/387 409/123/387 400/123/387
f 403/67/388 408/120/388 405/69/388
f 404/121/389 411/77/389 402/77/389
f 408/120/390 401/127/390 405/69/390
f 281/116/391 204/116/391 392/116/391
f 203/116/392 285/116/392 393/116/392
f 283/128/393 281/125/393 392/125/393
f 413/96/394 344/82/394 345/96/394
f 414/98/395 345/96/395 346/98/395
f 344/82/396 223/97/396 144/97/396
f 227/85/397 346/98/397 148/85/397
f 415/116/398 176/74/398 177/76/398
f 416/116/399 374/74/399 368/74/399
f 172/118/400 415/116/400 177/76/400
f 416/116/401 370/118/401 177/76/401
f 26/1/402 29/5/402 28/2/402
f 26/1/403 27/7/403 30/4/403
f 7/6/404 8/129/404 30/4/404
f 30/4/405 8/129/405 4/8/405
f 29/5/406 30/4/406 9/9/406
f 28/2/407 29/5/407 10/10/407
f 28/2/408 11/11/408 3/12/408
f 25/3/409 28/2/409 5/13/409
f 31/15/410 32/18/410 35/16/410
f 32/18/411 33/24/411 36/19/411
f 34/17/412 35/16/412 38/20/412
f 35/16/413 36/19/413 39/22/413
f 3/12/414 11/11/414 31/15/414
f 11/11/415 10/10/415 32/18/415
f 10/10/416 9/9/416 33/24/416
f 4/8/417 15/59/417 33/24/417
f 33/24/418 15/59/418 16/25/418
f 36/19/419 16/25/419 17/26/419
f 39/22/420 17/26/420 2/27/420
f 38/20/421 39/22/421 18/28/421
f 37/21/422 38/20/422 19/29/422
f 37/21/423 20/30/423 1/31/423
f 13/33/424 34/17/424 37/21/424
f 14/23/425 31/15/425 34/17/425
f 43/36/426 40/39/426 44/34/426
f 40/39/427 41/37/427 44/34/427
f 41/37/428 42/41/428 45/38/428
f 1/31/429 20/30/429 40/39/429
f 20/30/430 19/29/430 41/37/430
f 19/29/431 18/28/431 42/41/431
f 2/27/432 23/42/432 42/41/432
f 23/42/433 24/133/433 45/38/433
f 22/40/434 40/39/434 43/36/434
f 46/44/435 47/50/435 49/45/435
f 48/46/436 49/45/436 51/47/436
f 6/49/437 5/51/437 47/50/437
f 5/51/438 3/12/438 14/23/438
f 47/50/439 14/23/439 13/33/439
f 49/45/440 13/33/440 12/32/440
f 51/47/441 12/32/441 1/31/441
f 51/47/442 22/52/442 21/53/442
f 52/54/443 53/61/443 55/55/443
f 54/56/444 55/55/444 57/57/444
f 4/8/445 8/60/445 52/54/445
f 8/60/446 7/130/446 53/61/446
f 57/57/447 24/134/447 23/62/447
f 56/58/448 23/62/448 2/27/448
f 16/25/449 54/56/449 56/58/449
f 15/59/450 52/54/450 54/56/450
f 59/63/49 60/97/49 62/64/49
f 61/65/50 62/64/50 64/66/50
f 63/67/51 64/66/51 66/68/51
f 66/68/451 68/74/451 67/70/451
f 64/73/53 62/125/53 68/71/53
f 62/125/53 60/135/53 70/124/53
f 68/71/53 62/125/53 70/124/53
f 68/74/54 70/76/54 69/75/54
f 70/76/55 60/118/55 59/77/55
f 69/79/56 59/136/56 61/80/56
f 61/80/56 63/131/56 67/78/56
f 63/131/56 65/126/56 67/78/56
f 86/81/452 72/97/452 97/82/452
f 100/84/453 98/98/453 80/85/453
f 84/87/454 85/92/454 79/88/454
f 75/89/455 83/94/455 84/87/455
f 82/90/456 83/94/456 75/89/456
f 71/63/457 81/95/457 82/90/457
f 100/84/458 90/86/458 85/92/458
f 101/93/459 100/84/459 84/87/459
f 99/83/460 101/93/460 83/94/460
f 81/95/461 86/81/461 99/83/461
f 97/82/462 92/82/462 93/96/462
f 72/97/463 91/97/463 92/82/463
f 98/98/464 96/96/464 93/96/464
f 80/85/465 98/98/465 94/98/465
f 76/99/466 74/102/466 97/82/466
f 78/100/467 76/99/467 96/96/467
f 87/101/468 99/83/468 97/82/468
f 78/100/469 98/98/469 100/84/469
f 89/103/470 100/84/470 101/93/470
f 87/101/471 88/104/471 101/93/471
f 150/105/472 149/110/472 104/100/472
f 151/106/473 106/104/473 107/103/473
f 154/108/474 153/109/474 102/102/474
f 150/105/475 103/99/475 102/102/475
f 151/106/476 154/108/476 105/101/476
f 152/107/477 107/103/477 104/100/477
f 155/111/478 109/99/478 108/102/478
f 158/113/479 157/115/479 111/101/479
f 160/114/480 159/107/480 113/103/480
f 155/111/481 160/114/481 110/100/481
f 158/113/482 112/104/482 113/103/482
f 156/112/483 108/102/483 111/101/483
f 110/100/484 116/100/484 115/99/484
f 112/104/485 132/104/485 133/103/485
f 108/102/486 114/102/486 117/101/486
f 108/102/487 109/99/487 115/99/487
f 111/101/488 117/101/488 118/104/488
f 110/100/489 113/103/489 119/103/489
f 114/102/490 115/99/490 121/99/490
f 117/101/96 123/101/96 124/104/96
f 119/103/491 125/103/491 122/100/491
f 115/99/492 116/100/492 122/100/492
f 119/103/99 118/104/99 124/104/99
f 117/101/493 114/102/493 120/102/493
f 124/104/494 130/104/494 131/103/494
f 123/101/495 120/102/495 126/102/495
f 121/99/496 127/99/496 126/102/496
f 124/104/497 123/101/497 129/101/497
f 125/103/498 131/103/498 128/100/498
f 121/99/499 122/100/499 128/100/499
f 132/104/107 136/104/107 137/103/107
f 118/104/500 134/104/500 132/104/500
f 119/103/501 135/103/501 134/104/501
f 119/103/502 113/103/502 133/103/502
f 139/103/503 137/103/503 141/103/503
f 135/103/112 133/103/112 137/103/112
f 135/103/113 139/103/113 138/104/113
f 134/104/114 138/104/114 136/104/114
f 141/103/504 140/104/504 142/104/504
f 139/103/505 143/103/505 142/104/505
f 138/104/506 142/104/506 140/104/506
f 136/104/507 140/104/507 141/103/507
f 94/98/508 93/96/508 146/96/508
f 91/97/509 144/97/509 145/82/509
f 94/98/510 147/98/510 148/85/510
f 92/82/511 145/82/511 146/96/511
f 128/100/512 131/103/512 130/104/512
f 127/99/513 130/104/513 129/101/513
f 89/103/514 152/107/514 149/110/514
f 88/104/515 87/101/515 154/108/515
f 74/102/516 76/99/516 150/105/516
f 87/101/517 74/102/517 153/109/517
f 88/104/518 151/106/518 152/107/518
f 78/100/519 149/110/519 150/105/519
f 102/102/520 156/112/520 157/115/520
f 106/104/521 158/113/521 159/107/521
f 103/99/522 104/100/522 160/114/522
f 104/100/523 107/103/523 159/107/523
f 106/104/524 105/101/524 157/115/524
f 103/99/525 155/111/525 156/112/525
f 162/97/526 164/64/526 163/65/526
f 163/65/527 164/64/527 166/66/527
f 165/67/528 166/66/528 168/68/528
f 168/68/529 170/74/529 169/70/529
f 170/74/530 168/68/530 175/68/530
f 368/74/531 367/70/531 369/75/531
f 170/74/532 415/116/532 171/75/532
f 190/67/533 186/67/533 185/65/533
f 177/76/534 176/74/534 182/74/534
f 164/64/535 173/64/535 174/66/535
f 164/64/536 162/97/536 172/97/536
f 166/66/537 174/66/537 175/68/537
f 180/73/538 179/125/538 182/71/538
f 179/125/539 178/132/539 182/71/539
f 178/132/540 183/124/540 182/71/540
f 174/66/541 180/66/541 181/68/541
f 173/64/542 172/97/542 178/97/542
f 177/76/543 183/76/543 178/118/543
f 175/68/544 181/68/544 182/74/544
f 173/64/545 179/64/545 180/66/545
f 188/70/546 189/75/546 210/75/546
f 192/75/547 189/75/547 188/70/547
f 191/117/548 185/65/548 184/63/548
f 190/67/549 195/119/549 187/69/549
f 192/75/550 194/122/550 184/77/550
f 193/70/551 188/70/551 187/69/551
f 221/70/552 193/70/552 195/119/552
f 218/121/553 222/77/553 194/122/553
f 217/67/554 219/120/554 195/119/554
f 222/63/555 220/123/555 191/117/555
f 218/121/556 192/75/556 193/70/556
f 220/123/557 217/67/557 190/67/557
f 182/116/558 181/116/558 197/116/558
f 181/116/559 180/116/559 198/116/559
f 199/116/560 179/116/560 178/116/560
f 199/116/561 204/116/561 201/116/561
f 198/116/562 180/116/562 202/116/562
f 179/125/563 201/125/563 202/73/563
f 210/79/564 205/137/564 206/80/564
f 206/80/565 207/131/565 208/126/565
f 208/126/566 209/78/566 210/79/566
f 187/69/567 208/69/567 207/67/567
f 185/65/568 206/65/568 205/63/568
f 189/75/569 184/77/569 205/77/569
f 187/69/570 188/70/570 209/70/570
f 186/67/571 207/67/571 206/65/571
f 163/65/572 165/67/572 214/67/572
f 171/75/573 215/121/573 212/127/573
f 161/63/574 163/65/574 211/123/574
f 165/67/575 167/69/575 216/69/575
f 161/77/576 213/77/576 215/121/576
f 169/70/577 212/127/577 216/69/577
f 211/123/578 214/67/578 217/67/578
f 215/121/579 218/121/579 221/70/579
f 213/63/580 211/123/580 220/123/580
f 214/67/581 216/69/581 219/120/581
f 215/121/582 213/77/582 222/77/582
f 212/127/583 221/70/583 219/120/583
f 204/116/584 71/116/584 73/116/584
f 203/116/585 202/116/585 77/116/585
f 77/73/586 202/73/586 75/128/586
f 202/73/587 201/125/587 75/128/587
f 145/82/588 224/82/588 225/96/588
f 146/96/197 225/96/197 226/98/197
f 145/82/589 144/97/589 223/97/589
f 147/98/590 226/98/590 227/85/590
f 248/2/591 249/5/591 26/1/591
f 26/1/592 249/5/592 250/4/592
f 250/4/593 233/129/593 7/6/593
f 250/4/594 234/9/594 231/8/594
f 249/5/595 235/10/595 234/9/595
f 248/2/596 236/11/596 235/10/596
f 230/12/597 236/11/597 248/2/597
f 232/13/598 248/2/598 25/3/598
f 251/15/599 254/17/599 255/16/599
f 252/18/600 255/16/600 256/19/600
f 254/17/601 257/21/601 258/20/601
f 255/16/602 258/20/602 259/22/602
f 230/12/603 239/23/603 251/15/603
f 236/11/604 251/15/604 252/18/604
f 235/10/605 252/18/605 253/24/605
f 253/24/606 240/59/606 231/8/606
f 253/24/607 256/19/607 241/25/607
f 256/19/608 259/22/608 242/26/608
f 259/22/609 243/28/609 229/27/609
f 258/20/610 244/29/610 243/28/610
f 257/21/611 245/30/611 244/29/611
f 228/31/612 245/30/612 257/21/612
f 238/33/613 237/32/613 257/21/613
f 239/23/614 238/33/614 254/17/614
f 261/37/615 260/39/615 44/34/615
f 260/39/616 43/36/616 44/34/616
f 261/37/617 44/34/617 45/38/617
f 228/31/618 246/40/618 260/39/618
f 245/30/619 260/39/619 261/37/619
f 244/29/620 261/37/620 262/41/620
f 262/41/621 247/42/621 229/27/621
f 45/38/622 24/133/622 247/42/622
f 246/40/623 21/43/623 43/36/623
f 46/44/624 48/46/624 264/45/624
f 48/46/625 50/48/625 265/47/625
f 6/49/626 46/44/626 263/50/626
f 232/51/627 263/50/627 239/23/627
f 263/50/628 264/45/628 238/33/628
f 264/45/629 265/47/629 237/32/629
f 265/47/630 246/52/630 228/31/630
f 21/53/631 246/52/631 265/47/631
f 266/54/632 267/56/632 55/55/632
f 267/56/633 268/58/633 57/57/633
f 231/8/634 240/59/634 266/54/634
f 233/60/635 266/54/635 53/61/635
f 247/62/636 24/134/636 57/57/636
f 229/27/637 247/62/637 268/58/637
f 241/25/638 242/26/638 268/58/638
f 240/59/639 241/25/639 267/56/639
f 269/63/247 271/65/247 272/64/247
f 271/65/248 273/67/248 274/66/248
f 273/67/249 275/69/249 276/68/249
f 277/70/250 278/74/250 276/68/250
f 270/135/251 272/125/251 280/124/251
f 272/125/251 274/73/251 280/124/251
f 274/73/251 276/72/251 278/71/251
f 279/75/252 280/76/252 278/74/252
f 269/77/253 270/118/253 280/76/253
f 271/80/254 269/136/254 279/79/254
f 279/79/254 277/78/254 271/80/254
f 277/78/254 275/126/254 273/131/254
f 86/81/640 299/83/640 297/82/640
f 300/84/641 90/86/641 80/85/641
f 79/88/642 85/92/642 289/87/642
f 283/89/643 285/8/643 289/87/643
f 283/89/644 288/94/644 287/90/644
f 71/63/645 281/91/645 287/90/645
f 85/92/646 90/86/646 300/84/646
f 289/87/647 300/84/647 301/93/647
f 288/94/648 301/93/648 299/83/648
f 81/95/649 287/90/649 299/83/649
f 294/96/650 293/82/650 297/82/650
f 293/82/651 91/97/651 72/97/651
f 298/98/652 295/98/652 294/96/652
f 80/85/653 95/85/653 295/98/653
f 284/99/654 296/96/654 297/82/654
f 286/100/655 298/98/655 296/96/655
f 297/82/656 299/83/656 290/101/656
f 300/84/657 298/98/657 286/100/657
f 301/93/658 300/84/658 292/103/658
f 290/101/659 299/83/659 301/93/659
f 348/105/660 303/99/660 304/100/660
f 307/103/661 306/104/661 349/106/661
f 352/108/662 305/101/662 302/102/662
f 302/102/663 303/99/663 348/105/663
f 349/106/664 306/104/664 305/101/664
f 304/100/665 307/103/665 350/107/665
f 308/102/666 309/99/666 353/111/666
f 356/113/667 312/104/667 311/101/667
f 358/114/668 310/100/668 313/103/668
f 353/111/669 309/99/669 310/100/669
f 313/103/670 312/104/670 356/113/670
f 311/101/671 308/102/671 354/112/671
f 315/99/672 316/100/672 310/100/672
f 333/103/673 332/104/673 312/104/673
f 317/101/674 314/102/674 308/102/674
f 308/102/675 314/102/675 315/99/675
f 318/104/676 317/101/676 311/101/676
f 310/100/677 316/100/677 319/103/677
f 314/102/678 320/102/678 321/99/678
f 324/104/294 323/101/294 317/101/294
f 322/100/679 325/103/679 319/103/679
f 315/99/680 321/99/680 322/100/680
f 319/103/297 325/103/297 324/104/297
f 317/101/681 323/101/681 320/102/681
f 331/103/682 330/104/682 324/104/682
f 323/101/683 329/101/683 326/102/683
f 326/102/684 327/99/684 321/99/684
f 324/104/685 330/104/685 329/101/685
f 328/100/686 331/103/686 325/103/686
f 321/99/687 327/99/687 328/100/687
f 337/103/305 336/104/305 332/104/305
f 332/104/688 334/104/688 318/104/688
f 334/104/689 335/103/689 319/103/689
f 319/103/690 335/103/690 333/103/690
f 339/103/691 343/103/691 341/103/691
f 335/103/310 339/103/310 337/103/310
f 338/104/311 339/103/311 335/103/311
f 336/104/312 338/104/312 334/104/312
f 341/103/692 343/103/692 342/104/692
f 342/104/693 343/103/693 339/103/693
f 340/104/694 342/104/694 338/104/694
f 341/103/695 340/104/695 336/104/695
f 295/98/696 346/98/696 345/96/696
f 344/82/697 144/97/697 91/97/697
f 148/85/698 346/98/698 295/98/698
f 345/96/699 344/82/699 293/82/699
f 328/100/700 327/99/700 330/104/700
f 327/99/701 326/102/701 329/101/701
f 347/110/702 350/107/702 292/103/702
f 291/104/703 349/106/703 352/108/703
f 282/102/704 351/109/704 348/105/704
f 290/101/705 352/108/705 351/109/705
f 350/107/706 349/106/706 291/104/706
f 348/105/707 347/110/707 286/100/707
f 355/115/708 354/112/708 302/102/708
f 357/107/709 356/113/709 306/104/709
f 303/99/710 353/111/710 358/114/710
f 304/100/711 358/114/711 357/107/711
f 306/104/712 356/113/712 355/115/712
f 354/112/713 353/111/713 303/99/713
f 361/65/714 362/64/714 360/97/714
f 361/65/715 363/67/715 364/66/715
f 363/67/716 365/69/716 366/68/716
f 367/70/717 368/74/717 366/68/717
f 368/74/718 374/74/718 373/68/718
f 416/116/719 369/75/719 359/63/719
f 162/97/720 161/63/720 171/75/720
f 381/65/721 382/67/721 386/67/721
f 177/76/722 183/76/722 379/74/722
f 372/66/723 371/64/723 362/64/723
f 362/64/724 371/64/724 370/97/724
f 373/68/725 372/66/725 364/66/725
f 375/132/726 376/125/726 379/71/726
f 376/125/727 377/73/727 379/71/727
f 377/73/728 378/72/728 379/71/728
f 378/68/729 377/66/729 372/66/729
f 371/64/730 376/64/730 375/97/730
f 375/118/731 183/76/731 177/76/731
f 379/74/732 378/68/732 373/68/732
f 377/66/733 376/64/733 371/64/733
f 384/70/734 398/70/734 399/75/734
f 384/70/735 385/75/735 388/75/735
f 380/63/736 381/65/736 387/117/736
f 386/67/737 382/67/737 383/69/737
f 388/75/738 385/75/738 380/77/738
f 383/69/739 384/70/739 389/70/739
f 391/119/740 389/70/740 410/70/740
f 407/121/741 388/75/741 390/122/741
f 406/67/742 386/67/742 391/119/742
f 411/63/743 390/63/743 387/117/743
f 389/70/744 388/75/744 407/121/744
f 409/123/745 387/117/745 386/67/745
f 197/116/746 378/116/746 379/116/746
f 198/116/747 377/116/747 378/116/747
f 199/116/748 200/116/748 375/116/748
f 392/116/749 204/116/749 199/116/749
f 198/116/750 203/116/750 393/116/750
f 393/73/751 392/125/751 376/125/751
f 395/80/752 394/137/752 399/79/752
f 399/79/753 398/78/753 397/126/753
f 397/126/754 396/131/754 395/80/754
f 396/67/755 397/69/755 383/69/755
f 394/63/756 395/65/756 381/65/756
f 385/75/757 399/75/757 394/77/757
f 383/69/758 397/69/758 398/70/758
f 395/65/759 396/67/759 382/67/759
f 361/65/760 400/123/760 403/67/760
f 401/127/761 404/121/761 369/75/761
f 359/63/762 402/63/762 400/123/762
f 363/67/763 403/67/763 405/69/763
f 404/121/764 402/77/764 359/77/764
f 405/69/765 401/127/765 367/70/765
f 400/123/766 409/123/766 406/67/766
f 410/70/767 407/121/767 404/121/767
f 402/63/768 411/63/768 409/123/768
f 403/67/769 406/67/769 408/120/769
f 404/121/770 407/121/770 411/77/770
f 408/120/771 410/70/771 401/127/771
f 281/116/772 71/116/772 204/116/772
f 203/116/773 79/116/773 285/116/773
f 392/125/774 393/73/774 283/128/774
f 393/73/775 285/73/775 283/128/775
f 413/96/776 412/82/776 344/82/776
f 414/98/395 413/96/395 345/96/395
f 344/82/777 412/82/777 223/97/777
f 227/85/778 414/98/778 346/98/778
f 415/116/779 170/74/779 176/74/779
f 416/116/780 177/76/780 374/74/780
f 172/118/781 162/97/781 415/116/781
f 416/116/782 360/97/782 370/118/782
