# Blender 5.0.0
# www.blender.org
o body
v 0.496492 -0.836496 9.965871
v 0.583336 -0.739346 11.236808
v 0.476577 0.278155 10.033129
v 0.565221 0.486406 11.272521
v 0.246627 0.341088 9.937241
v -0.000000 0.369678 9.882559
v -0.000000 0.658669 11.406166
v 0.340386 0.599495 11.361651
v 0.631619 0.554538 11.031187
v 0.646511 0.545035 10.672297
v 0.576865 0.424383 10.300517
v 0.562963 -0.631520 9.879774
v 0.591550 -0.317049 9.851071
v 0.550611 0.022595 9.922168
v 0.654626 0.225672 11.351855
v 0.703310 -0.145583 11.384750
v 0.665741 -0.502555 11.330906
v 0.654036 -0.830154 10.983906
v 0.671875 -0.892060 10.611229
v 0.600616 -0.885222 10.231734
v -0.000000 -0.970373 9.799976
v 0.267098 -0.925011 9.859036
v 0.358752 -0.817453 11.324613
v -0.000000 -0.856364 11.369800
v -0.000000 0.674132 10.253798
v -0.000000 0.858995 10.672493
v -0.000000 0.860968 11.078187
v 0.290903 0.614872 10.279749
v 0.337850 0.778809 10.675769
v 0.344425 0.778265 11.058511
v 0.749642 0.108478 10.260201
v 0.841644 0.194318 10.657624
v 0.811618 0.221480 11.043319
v 0.812126 -0.260919 10.217046
v 0.912852 -0.205322 10.637837
v 0.878665 -0.167071 11.049057
v 0.764291 -0.610047 10.219728
v 0.857600 -0.587271 10.621552
v 0.825386 -0.539852 11.015686
v 0.317045 -1.052687 10.195675
v 0.365526 -1.074154 10.479938
v 0.369003 -0.996871 11.003363
v -0.000000 -1.112858 10.217856
v -0.000000 -1.133464 10.475009
v -0.000000 -1.050112 11.022961
v -0.000000 0.004889 9.616382
v 0.255090 0.002209 9.701880
v -0.000000 -0.369841 9.500969
v 0.272938 -0.355472 9.600118
v -0.000000 -0.709899 9.566864
v 0.266506 -0.681006 9.654550
v 0.373244 0.271110 11.538463
v -0.000000 0.302962 11.602319
v 0.399412 -0.129139 11.591087
v -0.000000 -0.120306 11.660817
v 0.383312 -0.515705 11.519428
v -0.000000 -0.530811 11.583996
v -0.000000 -1.256591 10.286118
v 0.899103 0.129189 10.646968
v 0.964296 0.059744 10.668054
v 0.972883 0.157159 10.464609
v 1.038076 0.087714 10.485695
v 0.910948 0.053346 10.221468
v 0.976141 -0.016099 10.242554
v 0.775233 -0.078438 10.160683
v 0.840426 -0.147883 10.181768
v 0.701452 -0.106409 10.343041
v 0.766645 -0.175854 10.364127
v 0.763387 -0.002595 10.586184
v 0.828580 -0.072040 10.607269
v 0.000000 0.608116 7.029630
v -0.000045 0.616312 9.178240
v 0.504716 0.474076 6.844012
v 0.828454 0.230249 8.765006
v 0.598099 0.170519 6.801710
v 0.958549 0.100935 9.090919
v 0.495931 -0.135912 6.757014
v 0.866763 -0.234509 9.072575
v -0.000000 -0.261991 6.890724
v 0.000048 -0.519690 8.866166
v -0.000000 0.657830 7.662688
v 0.570414 0.462991 7.669556
v 0.766890 0.047476 7.681342
v 0.571923 -0.296317 7.688561
v -0.000000 -0.421472 7.662688
v 0.000170 0.706533 8.749137
v 0.703444 0.215750 8.332052
v 0.718216 -0.092966 8.268826
v 0.697054 -0.373665 8.477882
v 0.000481 -0.492759 8.535854
v -0.000000 0.515979 9.348965
v 0.439957 0.408833 9.298184
v 0.633979 0.101326 9.299760
v 0.435120 -0.202237 9.310202
v -0.000000 -0.334730 9.141347
v 0.958123 0.106357 9.100944
v 0.710178 0.391005 8.958615
v 0.738436 -0.256048 9.205512
v 0.614129 0.400816 8.228779
v 0.622073 -0.380533 8.504292
v 0.716215 -0.074721 8.253452
v 1.567571 -0.259827 7.165346
v 1.658729 -0.407359 7.226430
v 1.562965 -0.609596 7.313462
v 1.163537 -0.312493 7.016840
v 1.096328 -0.479952 7.016883
v 1.160331 -0.664611 7.158876
v 1.943723 -0.973666 5.887857
v 2.009162 -1.100411 5.956337
v 1.941743 -1.232874 6.046917
v 1.637683 -1.012381 5.821397
v 1.584161 -1.155089 5.855566
v 1.636252 -1.273346 5.977346
v 1.969742 -0.954018 5.783926
v 2.058858 -1.097803 5.938603
v 1.987413 -1.351111 6.048007
v 1.815698 -1.036915 5.656436
v 1.786016 -1.204863 5.743942
v 1.814585 -1.479627 5.914610
v 2.243325 -1.105998 5.384852
v 2.299998 -1.338406 5.514694
v 2.241793 -1.610516 5.681725
v 2.082688 -1.255422 5.271441
v 2.053005 -1.423369 5.358947
v 2.081574 -1.698134 5.529615
v 2.182963 -1.469044 4.923635
v 2.194184 -1.644746 4.981282
v 2.183095 -1.818789 5.129994
v 2.092603 -1.502509 5.013502
v 2.066321 -1.604907 5.048048
v 2.091986 -1.790606 5.180892
v 1.574718 -1.304043 5.694331
v 1.606249 -1.399945 5.807949
v 1.769627 -1.320918 5.644100
v 1.790082 -1.552973 5.795711
v 1.627386 -1.454198 5.534458
v 1.653222 -1.532781 5.627556
v 1.787093 -1.468026 5.493299
v 1.803854 -1.658170 5.617528
v 1.703060 -1.612114 5.366711
v 1.713927 -1.666421 5.436101
v 1.820864 -1.608392 5.361289
v 1.830116 -1.742705 5.452035
v -0.000000 0.404502 9.479506
v 0.158780 0.287954 9.451111
v 0.252719 0.101461 9.387590
v 0.182110 -0.006843 9.387590
v -0.000000 -0.116119 9.349563
v 1.512675 -0.596041 7.422778
v 1.608424 -0.376952 7.362575
v 1.077655 -0.457990 7.074052
v 1.131065 -0.656366 7.218257
v 1.518856 -0.222930 7.298137
v 1.134970 -0.282683 7.097155
v 1.697784 -0.447508 7.111263
v 1.609150 -0.306863 7.040956
v 1.198410 -0.360734 6.934240
v 1.126172 -0.522653 6.957484
v 1.196666 -0.686410 7.114985
v 1.605483 -0.632951 7.222805
v 0.508210 0.774989 4.132543
v 0.519509 0.871900 5.505564
v 0.863355 0.603562 4.068450
v 1.026829 0.596087 5.688731
v 0.863355 0.359300 4.022200
v 1.028275 0.114888 5.540258
v 0.508191 0.163658 3.957023
v 0.513592 -0.117471 5.376348
v 0.152952 0.350030 4.006896
v 0.144936 0.102121 5.480556
v 0.153066 0.581148 4.082528
v 0.512164 0.904776 5.803450
v 1.018174 0.554962 5.879685
v 1.020134 0.067697 5.728944
v 0.515757 -0.154452 5.489663
v 0.136937 0.061160 5.579011
v -0.000000 0.783657 5.715866
v 0.418974 0.896824 5.975921
v 0.879472 0.479368 6.306102
v 0.876436 -0.044109 6.182590
v 0.449170 -0.240823 5.820992
v 0.134332 0.014964 5.713305
v -0.000000 0.847773 5.846555
v 0.430883 2.637899 3.561250
v 0.691278 2.605367 3.414473
v 0.691277 2.540303 3.120920
v 0.430883 2.507792 2.974060
v 0.170489 2.540394 3.120409
v 0.170489 2.605367 3.414473
v 0.822906 0.826105 3.591362
v 0.822906 0.891346 3.829581
v 0.152560 0.878493 3.789409
v 0.152560 0.810424 3.549791
v 0.487733 0.920294 4.046415
v 0.487733 0.409670 3.488090
v -0.000000 -0.042148 5.826368
v -0.000000 -0.235143 5.946786
v -0.000000 -0.284724 6.213614
v -0.000000 0.822433 6.439885
v -0.000000 0.862054 6.113933
v 0.713104 0.433861 6.606923
v 0.709689 -0.097112 6.505018
v -0.000000 -0.240209 6.560162
v 0.000000 0.628045 6.780626
v 0.430883 4.168935 2.987124
v 0.625711 4.184993 2.877036
v 0.625711 4.237810 2.637535
v 0.430883 4.260766 2.527640
v 0.236055 4.225190 2.642532
v 0.236055 4.185558 2.876070
v 0.856043 0.517604 3.949911
v 0.152881 0.349137 3.815731
v 0.504509 0.661292 4.088892
v 0.856043 0.376110 3.857635
v 0.152975 0.519455 3.965958
v 0.504493 0.183821 3.838327
v 0.847217 0.439768 3.689499
v 0.152864 0.553071 3.890398
v 0.500029 0.223666 3.701226
v 0.847217 0.554837 3.891379
v 0.152796 0.430173 3.688229
v 0.500041 0.640657 4.048476
v -0.000000 0.330200 10.120408
v 0.182652 0.209765 10.120408
v 0.252719 0.101461 10.120408
v 0.182110 -0.006843 10.120408
v -0.000000 -0.127185 10.065334
v -0.496493 -0.836496 9.965871
v -0.583336 -0.739346 11.236808
v -0.476577 0.278155 10.033129
v -0.565221 0.486406 11.272521
v -0.246627 0.341088 9.937241
v -0.340386 0.599495 11.361651
v -0.631619 0.554538 11.031187
v -0.646511 0.545035 10.672297
v -0.576865 0.424383 10.300517
v -0.562963 -0.631520 9.879774
v -0.591550 -0.317049 9.851071
v -0.550611 0.022595 9.922168
v -0.654626 0.225672 11.351855
v -0.703310 -0.145583 11.384750
v -0.665741 -0.502555 11.330906
v -0.654036 -0.830154 10.983906
v -0.671875 -0.892060 10.611229
v -0.600616 -0.885222 10.231734
v -0.267098 -0.925011 9.859036
v -0.358752 -0.817453 11.324613
v -0.290903 0.614872 10.279749
v -0.337850 0.778809 10.675769
v -0.344425 0.778265 11.058511
v -0.749642 0.108478 10.260201
v -0.841644 0.194318 10.657624
v -0.811618 0.221480 11.043319
v -0.812126 -0.260919 10.217046
v -0.912852 -0.205322 10.637837
v -0.878665 -0.167071 11.049057
v -0.764291 -0.610047 10.219728
v -0.857600 -0.587271 10.621552
v -0.825386 -0.539852 11.015686
v -0.317045 -1.052687 10.195675
v -0.365526 -1.074154 10.479938
v -0.369003 -0.996871 11.003363
v -0.255090 0.002209 9.701880
v -0.272938 -0.355472 9.600118
v -0.266506 -0.681006 9.654550
v -0.373244 0.271110 11.538463
v -0.399412 -0.129139 11.591087
v -0.383312 -0.515705 11.519428
v -0.899103 0.129189 10.646968
v -0.964296 0.059744 10.668054
v -0.972883 0.157159 10.464609
v -1.038076 0.087714 10.485695
v -0.910948 0.053346 10.221468
v -0.976141 -0.016099 10.242554
v -0.775233 -0.078438 10.160683
v -0.840426 -0.147883 10.181768
v -0.701452 -0.106409 10.343041
v -0.766645 -0.175854 10.364127
v -0.763387 -0.002595 10.586184
v -0.828580 -0.072040 10.607269
v -0.504526 0.476275 6.909810
v -0.822461 0.446587 8.889301
v -0.598793 0.169840 6.867107
v -0.956824 0.146224 9.063397
v -0.495657 -0.125825 6.828308
v -0.863514 -0.119524 8.860044
v -0.567848 0.551740 7.700492
v -0.761745 0.228929 7.691755
v -0.569659 -0.207000 7.669249
v -0.689691 0.669708 8.518772
v -0.701644 0.457770 8.290248
v -0.683925 0.090802 8.300385
v -0.440494 0.385207 9.318588
v -0.634115 0.090073 9.295081
v -0.435371 -0.213867 9.290095
v -0.956559 0.144229 9.075204
v -0.708772 0.435263 9.057628
v -0.738404 -0.255974 9.118400
v -0.606988 0.632840 8.345828
v -0.616705 -0.209912 8.400504
v -0.701201 0.423974 8.272551
v -1.528696 1.110834 7.350867
v -1.619602 0.958382 7.304209
v -1.523939 0.747606 7.239473
v -1.124538 1.165321 7.201076
v -1.057731 1.037394 7.090691
v -1.121191 0.804453 7.082671
v -1.959966 1.381129 5.938987
v -2.025455 1.239538 5.912538
v -1.957495 1.080414 5.893628
v -1.657553 1.396769 5.850228
v -1.605830 1.266017 5.782210
v -1.655786 1.096708 5.801385
v -1.989474 1.462872 5.873320
v -2.075718 1.252551 5.902784
v -2.005600 0.988883 5.820313
v -1.842163 1.482781 5.715973
v -1.812777 1.298183 5.673487
v -1.840719 0.977846 5.628290
v -2.281131 1.601352 5.482215
v -2.337791 1.339482 5.434279
v -2.279122 1.024217 5.384309
v -2.128119 1.561352 5.292528
v -2.098733 1.376754 5.250042
v -2.126674 1.056417 5.204845
v -2.246007 1.621058 4.893534
v -2.258780 1.449424 4.824985
v -2.245786 1.220603 4.826143
v -2.153046 1.538318 4.936816
v -2.127664 1.437944 4.896193
v -2.152236 1.210126 4.879289
v -1.605669 1.255951 5.562730
v -1.634915 1.109167 5.589177
v -1.802654 1.273812 5.521798
v -1.822299 0.998488 5.489180
v -1.667533 1.243588 5.346167
v -1.691498 1.123314 5.367837
v -1.828942 1.258224 5.312627
v -1.845039 1.032624 5.285900
v -1.752846 1.230173 5.119573
v -1.762235 1.143857 5.138111
v -1.870664 1.235562 5.122850
v -1.879337 1.074297 5.106148
v -0.158780 0.287954 9.451111
v -0.252719 0.101461 9.387590
v -0.182110 -0.006843 9.387590
v -1.478213 0.688964 7.328582
v -1.573990 0.896122 7.422242
v -1.038941 1.016325 7.154445
v -1.093367 0.771896 7.136926
v -1.484347 1.055063 7.472636
v -1.097357 1.135848 7.284960
v -1.657936 0.998944 7.198720
v -1.569235 1.152326 7.232592
v -1.162202 1.182159 7.102082
v -1.092217 1.043679 7.012730
v -1.159994 0.816537 7.031031
v -1.565197 0.785991 7.160886
v -0.508053 -0.393723 4.216364
v -0.519458 0.549327 5.353899
v -0.866564 -0.595343 4.290394
v -1.031588 0.296629 5.644370
v -0.866564 -0.841288 4.410016
v -1.033048 -0.191016 5.796472
v -0.508034 -1.032627 4.498146
v -0.513485 -0.473710 5.779962
v -0.149427 -0.835792 4.416078
v -0.141336 -0.157187 5.667869
v -0.149542 -0.576716 4.306371
v -0.512044 0.738074 5.643215
v -1.022851 0.394516 5.835894
v -1.024830 -0.110185 5.963227
v -0.515671 -0.421868 5.858131
v -0.133260 -0.104972 5.732508
v -0.417971 0.828338 5.859013
v -0.882834 0.490754 6.352900
v -0.879769 -0.009013 6.332924
v -0.448454 -0.329599 6.051600
v -0.130631 -0.047634 5.816397
v -0.429993 -0.638143 1.940586
v -0.658826 -0.770246 1.942483
v -0.658826 -1.034452 1.946278
v -0.429993 -1.166555 1.948176
v -0.201160 -1.034452 1.946278
v -0.201160 -0.770246 1.942483
v -0.825732 -0.939842 3.737376
v -0.825732 -0.689692 3.721399
v -0.149031 -0.732032 3.725900
v -0.149031 -0.982722 3.742220
v -0.487381 -0.466409 3.737720
v -0.487381 -1.147637 4.114319
v -0.714889 0.438649 6.668974
v -0.711441 -0.063580 6.593756
v -0.429993 -0.839000 0.309099
v -0.608102 -0.943098 0.302539
v -0.608102 -1.147277 0.327195
v -0.429993 -1.249367 0.339525
v -0.251883 -1.147277 0.327195
v -0.251883 -0.943098 0.302539
v -0.859183 -0.659629 4.211466
v -0.149356 -0.909413 4.298046
v -0.504316 -0.437095 4.161916
v -0.859183 -0.895034 4.291298
v -0.149450 -0.645770 4.223441
v -0.504300 -1.067026 4.429280
v -0.850273 -0.945632 4.142396
v -0.149339 -0.688941 4.103118
v -0.499794 -1.104484 4.343139
v -0.850273 -0.687677 4.093335
v -0.149269 -0.953024 4.151429
v -0.499806 -0.489321 4.073738
v -0.182652 0.209765 10.120408
v -0.252719 0.101461 10.120408
v -0.182110 -0.006843 10.120408
v 0.213411 0.630563 5.559982
v -0.199640 0.524520 5.478366
vn 0.2171 0.8930 -0.3943
vn 0.2309 0.9730 -0.0026
vn 0.2282 0.8287 0.5111
vn 0.5934 0.7171 0.3657
vn 0.6038 0.7971 0.0039
vn 0.5368 0.7678 -0.3497
vn 0.4335 0.6757 -0.5962
vn 0.2244 0.7535 -0.6180
vn 0.9488 0.1900 -0.2522
vn 0.9829 0.1719 0.0657
vn 0.9669 -0.1341 -0.2169
vn 0.9843 -0.1466 0.0981
vn 0.7198 0.4412 -0.5359
vn 0.8218 0.4872 -0.2955
vn 0.8739 0.4848 0.0339
vn 0.8176 0.4547 0.3533
vn 0.8793 0.1584 0.4492
vn 0.8717 -0.1659 0.4611
vn 0.7717 -0.4987 0.3948
vn 0.8452 -0.5193 0.1267
vn 0.8441 -0.5094 -0.1677
vn 0.7852 -0.4383 -0.4373
vn 0.8572 -0.1236 -0.4999
vn 0.8229 0.2097 -0.5281
vn 1.0000 -0.0000 -0.0000
vn 0.1564 -0.9765 0.1485
vn 0.4800 -0.7943 -0.3725
vn 0.5169 -0.8425 -0.1518
vn 0.4664 -0.8756 0.1262
vn 0.4808 -0.7739 0.4123
vn 0.1500 -0.8611 0.4857
vn 0.2261 -0.9220 -0.3144
vn 0.3148 0.2794 -0.9071
vn 0.3250 -0.1799 -0.9284
vn 0.2669 0.5681 -0.7785
vn 0.4934 0.5045 -0.7086
vn 0.5804 0.2495 -0.7751
vn 0.6137 -0.1420 -0.7766
vn 0.5175 -0.5489 -0.6564
vn 0.3026 -0.6356 -0.7102
vn 0.1733 0.1395 0.9749
vn 0.1703 -0.1865 0.9676
vn 0.5492 0.4099 0.7283
vn 0.1876 0.4801 0.8569
vn 0.1601 -0.5446 0.8233
vn 0.5064 -0.4648 0.7263
vn 0.5518 -0.1809 0.8141
vn 0.5611 0.1458 0.8148
vn 0.6237 0.6944 0.3588
vn 0.7220 0.5506 -0.4190
vn 0.3616 0.0569 -0.9306
vn -0.6237 -0.6944 -0.3589
vn 0.6532 -0.7421 0.1505
vn -0.7220 -0.5506 0.4190
vn -0.3616 -0.0569 0.9306
vn -0.6532 0.7421 -0.1505
vn 0.4162 0.9083 -0.0426
vn 0.1732 -0.9817 -0.0798
vn 0.1959 -0.9636 -0.1819
vn 0.9463 -0.2968 -0.1283
vn 0.9505 0.3024 -0.0716
vn 0.2542 0.9671 -0.0072
vn 0.2173 -0.9695 -0.1134
vn 0.8693 -0.4936 -0.0284
vn 0.9040 0.4268 -0.0232
vn 0.3213 0.9436 0.0798
vn 0.3858 0.6589 0.6457
vn 0.3600 0.9018 0.2392
vn 0.2962 -0.1617 0.9413
vn 0.0362 -0.8294 0.5575
vn 0.7888 0.5540 -0.2662
vn 0.7169 -0.2464 0.6521
vn 0.6480 0.7316 -0.2116
vn 0.1535 -0.9710 0.1834
vn 0.3839 -0.5700 -0.7265
vn 0.8720 0.1632 -0.4616
vn 0.8872 -0.2546 0.3847
vn -0.8176 -0.4660 -0.3382
vn 0.0050 0.9381 -0.3464
vn 0.8255 0.5436 0.1518
vn -0.8475 0.3401 -0.4075
vn 0.0724 -0.9852 0.1555
vn 0.8559 0.5147 -0.0493
vn -0.8555 0.2072 -0.4745
vn 0.0136 -0.8891 0.4575
vn 0.9067 -0.2123 0.3645
vn -0.8772 -0.4703 -0.0963
vn 0.0165 0.8656 -0.5004
vn 0.2812 0.4400 0.8528
vn -0.9521 -0.1389 0.2724
vn -0.0742 0.9716 -0.2245
vn 0.6378 0.7118 0.2942
vn -0.4886 -0.0256 -0.8721
vn -0.5083 -0.1886 0.8403
vn 0.8149 0.4212 0.3982
vn -0.8465 -0.1206 -0.5186
vn 0.0998 -0.7780 0.6203
vn 0.8866 0.0889 0.4539
vn -0.8524 -0.3370 -0.3999
vn -0.2658 0.7476 -0.6086
vn -0.9945 -0.1046 -0.0020
vn -0.6953 0.5055 -0.5109
vn 0.9693 0.1149 -0.2173
vn -0.9682 0.1959 -0.1559
vn 0.1938 -0.9245 0.3284
vn 0.9824 -0.1537 -0.1066
vn -0.9466 -0.3222 -0.0092
vn -0.1861 0.7271 -0.6608
vn 0.9866 0.0012 -0.1633
vn -0.5246 -0.6720 0.5227
vn -0.5513 -0.7752 0.3085
vn -0.5761 -0.7226 0.3821
vn 0.9949 0.0995 0.0181
vn -0.1196 0.7037 -0.7003
vn -0.2546 -0.5534 -0.7931
vn 0.9845 0.1483 0.0942
vn -0.1226 0.6944 -0.7090
vn -0.9321 -0.3594 -0.0447
vn 0.1977 -0.1289 0.9718
vn 0.2224 0.5233 0.8226
vn -0.0708 -0.6879 0.7223
vn 0.2222 0.1451 0.9642
vn -0.5158 -0.5373 -0.6673
vn -0.6231 -0.2795 -0.7305
vn 0.0214 -0.9748 0.2220
vn -0.8703 0.3324 -0.3634
vn 0.8054 0.5552 0.2076
vn 0.0438 0.9316 -0.3607
vn -0.9449 -0.1467 -0.2926
vn 0.8772 -0.2620 0.4023
vn 0.0637 0.8732 -0.4831
vn -0.7600 -0.5407 -0.3606
vn 0.8985 -0.2182 0.3808
vn 0.0537 -0.9606 0.2727
vn -0.7734 0.2622 -0.5771
vn 0.8347 0.5458 0.0726
vn 0.4239 0.9032 -0.0672
vn 0.9943 0.0198 -0.1048
vn 0.4992 -0.8496 -0.1702
vn -0.4764 -0.8628 -0.1691
vn -0.5241 -0.7704 -0.3631
vn 0.9966 0.0770 -0.0297
vn -1.0000 0.0022 -0.0051
vn 0.9972 0.0718 -0.0197
vn -0.9815 -0.1718 0.0843
vn 0.9991 -0.0096 0.0407
vn 0.5364 0.8197 0.2009
vn 0.4680 -0.8375 -0.2823
vn -0.5252 -0.3134 0.7911
vn 0.4535 -0.8805 -0.1384
vn 0.5083 0.8043 0.3079
vn -0.2177 0.9733 -0.0728
vn -0.5241 -0.8022 -0.2861
vn 0.9557 -0.0834 0.2822
vn -0.9991 0.0408 0.0069
vn -0.9999 0.0097 -0.0027
vn 0.5414 0.2451 0.8042
vn 0.5002 -0.1932 -0.8441
vn -0.5000 0.1887 0.8452
vn -0.4308 -0.2257 -0.8738
vn -0.3960 -0.7030 -0.5907
vn -0.6098 0.2344 0.7571
vn 0.4921 -0.1851 -0.8506
vn 0.5448 0.0302 0.8380
vn -1.0000 -0.0004 0.0006
vn 0.9975 0.0686 -0.0188
vn 0.0999 -0.9936 0.0531
vn -0.4393 -0.4755 -0.7622
vn -0.0635 -0.9812 -0.1823
vn -0.6481 0.0173 -0.7613
vn -0.0426 0.9918 0.1206
vn 0.3862 0.8562 0.3431
vn 0.2054 -0.9707 0.1247
vn 0.8901 -0.1095 0.4423
vn 0.0009 0.9774 0.2115
vn 0.4999 -0.2193 -0.8379
vn 0.4963 0.3048 0.8129
vn -0.4520 0.3044 0.8385
vn -0.4658 -0.2184 -0.8575
vn 0.9992 0.0386 -0.0085
vn 0.9904 0.0756 -0.1159
vn -1.0000 0.0004 0.0004
vn -0.2140 0.3562 -0.9096
vn 0.4816 -0.8694 -0.1102
vn -0.3846 0.8160 -0.4316
vn -0.4750 -0.8699 -0.1330
vn 0.9898 0.1238 -0.0705
vn -1.0000 -0.0000 0.0007
vn 0.0137 0.8899 -0.4559
vn 0.4906 -0.8061 -0.3310
vn -0.3839 0.8434 0.3758
vn -0.3998 -0.8836 -0.2438
vn 0.2810 0.9560 0.0848
vn 0.2296 -0.9712 -0.0640
vn 0.7553 0.1432 0.6396
vn 0.8931 0.4499 -0.0000
vn 0.8377 -0.5461 -0.0000
vn 0.5488 0.8323 0.0777
vn 0.5165 -0.8562 -0.0132
vn -0.2171 0.8930 -0.3943
vn -0.2332 0.9724 -0.0047
vn -0.2282 0.8287 0.5111
vn -0.5362 0.7239 0.4341
vn -0.6140 0.7893 -0.0094
vn -0.5575 0.7416 -0.3731
vn -0.4335 0.6757 -0.5962
vn -0.2244 0.7535 -0.6180
vn -0.9486 0.1818 -0.2589
vn -0.9832 0.1706 0.0645
vn -0.9679 -0.1309 -0.2144
vn -0.9842 -0.1492 0.0957
vn -0.7191 0.4598 -0.5211
vn -0.8258 0.4724 -0.3080
vn -0.8791 0.4760 0.0239
vn -0.8176 0.4547 0.3533
vn -0.8813 0.1551 0.4463
vn -0.8704 -0.1617 0.4650
vn -0.7756 -0.4470 0.4457
vn -0.8474 -0.5145 0.1312
vn -0.8444 -0.5089 -0.1672
vn -0.7852 -0.4383 -0.4373
vn -0.8583 -0.1214 -0.4987
vn -0.8209 0.2013 -0.5345
vn -0.1488 -0.9784 0.1435
vn -0.5095 -0.7887 -0.3441
vn -0.5440 -0.8308 -0.1171
vn -0.5063 -0.8464 0.1648
vn -0.4808 -0.7739 0.4123
vn -0.1500 -0.8611 0.4857
vn -0.1482 -0.9172 -0.3698
vn -0.3082 0.2745 -0.9109
vn -0.3445 -0.1614 -0.9248
vn -0.2408 0.5577 -0.7943
vn -0.4461 0.4620 -0.7665
vn -0.5707 0.2336 -0.7872
vn -0.6232 -0.1271 -0.7717
vn -0.5828 -0.4680 -0.6643
vn -0.3026 -0.6356 -0.7102
vn -0.1782 0.1347 0.9747
vn -0.1652 -0.1814 0.9694
vn -0.5146 0.4458 0.7324
vn -0.1947 0.4736 0.8589
vn -0.1601 -0.5446 0.8233
vn -0.5064 -0.4648 0.7263
vn -0.5466 -0.1746 0.8190
vn -0.5630 0.1438 0.8139
vn -0.6237 0.6944 0.3588
vn -0.7220 0.5506 -0.4190
vn -0.3616 0.0569 -0.9306
vn 0.6237 -0.6944 -0.3588
vn -0.6532 -0.7421 0.1505
vn 0.7220 -0.5506 0.4190
vn 0.3616 -0.0569 0.9306
vn 0.6532 0.7421 -0.1505
vn -0.2741 0.9412 0.1977
vn -0.3705 -0.9208 -0.1219
vn -0.2497 -0.9615 -0.1148
vn -0.9074 -0.3920 -0.1512
vn -0.9463 0.3057 -0.1050
vn -0.1881 0.9791 -0.0769
vn -0.3525 -0.9354 -0.0264
vn -0.8867 -0.4025 0.2276
vn -0.8501 0.5137 -0.1161
vn -0.0911 0.9948 -0.0446
vn -0.4562 0.4353 0.7762
vn -0.2925 0.8376 0.4614
vn -0.5744 -0.2283 0.7861
vn -0.1480 -0.8679 0.4741
vn -0.6593 0.5754 0.4840
vn -0.9503 -0.3099 -0.0310
vn -0.4310 0.8329 0.3471
vn -0.8585 -0.3242 -0.3973
vn -0.9969 -0.0464 0.0636
vn 0.9892 0.0779 -0.1239
vn -0.8729 -0.4671 0.1405
vn 0.8404 -0.1498 -0.5209
vn 0.0103 0.9105 0.4133
vn -0.8308 0.3254 0.4516
vn 0.8504 0.5178 -0.0936
vn -0.0760 -0.8504 -0.5206
vn -0.8470 0.4170 0.3296
vn 0.8041 0.5508 -0.2238
vn 0.0020 -0.9748 -0.2229
vn -0.8902 -0.4193 0.1782
vn 0.8626 -0.2907 -0.4140
vn -0.0160 0.9844 0.1751
vn -0.2393 -0.2147 0.9469
vn 0.9586 -0.2740 0.0782
vn 0.0863 0.8885 0.4506
vn -0.2108 -0.0844 0.9739
vn 0.4546 0.5459 -0.7038
vn 0.1769 -0.8893 0.4216
vn -0.7722 0.3872 0.5038
vn 0.8235 0.2485 -0.5100
vn -0.0928 -0.9954 -0.0225
vn -0.8026 -0.3618 0.4742
vn 0.8293 0.0065 -0.5588
vn 0.1300 0.9612 0.2434
vn 0.9913 -0.0708 -0.1112
vn 0.3105 0.9492 0.0503
vn -0.9742 0.2201 -0.0508
vn 0.9814 0.1747 -0.0801
vn -0.2009 -0.9203 -0.3358
vn -0.9796 -0.1639 -0.1162
vn 0.9385 -0.2329 -0.2548
vn 0.1765 0.9833 -0.0450
vn -0.9918 0.0981 -0.0819
vn 0.5384 -0.8427 0.0035
vn 0.5878 -0.7695 -0.2498
vn 0.5746 -0.7942 -0.1976
vn -0.9911 0.0565 0.1204
vn 0.1080 0.9903 -0.0874
vn -0.0366 -0.2060 -0.9779
vn -0.9768 0.0449 0.2094
vn 0.1105 0.9888 -0.1001
vn 0.9219 -0.2387 -0.3052
vn -0.2279 -0.1647 0.9597
vn -0.2110 0.5182 0.8288
vn 0.0559 -0.6886 0.7230
vn -0.2372 0.0785 0.9683
vn 0.4949 0.0111 -0.8689
vn 0.4596 0.4306 -0.7768
vn -0.1891 -0.8977 -0.3980
vn 0.9501 0.2024 -0.2374
vn -0.6399 0.5791 0.5052
vn -0.1819 0.8698 0.4586
vn 0.9493 0.0372 -0.3123
vn -0.8946 -0.4235 0.1429
vn -0.0616 0.9798 0.1901
vn 0.7639 -0.1868 -0.6177
vn -0.8589 -0.4594 0.2265
vn 0.0374 -0.9664 -0.2543
vn 0.7870 0.5837 -0.2001
vn -0.8318 0.3691 0.4146
vn -0.4912 0.6682 -0.5589
vn -0.9943 -0.0289 -0.1022
vn -0.4417 -0.8315 0.3369
vn 0.5111 -0.7871 0.3454
vn 0.6567 -0.6199 0.4295
vn 0.2939 0.7373 -0.6083
vn -0.6192 0.7852 -0.0010
vn -0.9956 -0.0059 -0.0931
vn 0.9868 -0.1467 0.0693
vn -0.9990 0.0159 0.0415
vn -0.5843 0.6865 -0.4329
vn -0.4021 -0.7682 0.4982
vn 0.0315 -0.0382 0.9988
vn -0.3739 -0.7800 0.5019
vn -0.5784 0.8111 -0.0871
vn -0.0293 0.9266 -0.3748
vn 0.6580 -0.6312 0.4108
vn -0.9353 0.0900 0.3423
vn 0.9995 -0.0004 -0.0309
vn 0.9996 -0.0019 -0.0290
vn -0.5449 0.8329 -0.0970
vn -0.5182 -0.8552 -0.0063
vn 0.6153 0.7863 -0.0555
vn 0.4556 -0.8900 0.0198
vn 0.4744 -0.8600 0.1879
vn 0.4885 0.8691 0.0773
vn -0.4735 -0.8699 0.1384
vn -0.4938 0.8688 -0.0373
vn 1.0000 0.0004 0.0006
vn -0.9981 -0.0115 -0.0606
vn 0.0480 -0.9974 0.0533
vn 0.0867 -0.5274 -0.8452
vn 0.1622 -0.9702 -0.1803
vn 0.0751 0.0226 -0.9969
vn -0.3618 0.8925 0.2694
vn -0.3601 0.8707 0.3349
vn -0.2998 -0.9540 -0.0061
vn -0.8425 -0.0267 0.5381
vn -0.0000 -0.1199 -0.9928
vn -0.4997 -0.8650 0.0446
vn -0.4978 0.8608 -0.1060
vn 0.4978 0.8608 -0.1060
vn 0.4997 -0.8650 0.0446
vn -0.9995 -0.0004 -0.0309
vn -0.9984 -0.0247 -0.0509
vn 1.0000 0.0006 0.0003
vn -0.4873 0.6542 -0.5784
vn -0.5066 -0.7820 0.3631
vn 0.4839 0.6728 -0.5597
vn 0.5094 -0.7585 0.4065
vn -0.9984 -0.0182 -0.0536
vn 1.0000 0.0005 0.0004
vn -0.5398 0.8090 -0.2328
vn -0.5111 -0.7977 0.3201
vn 0.5133 0.7497 -0.4178
vn 0.4878 -0.7909 0.3694
vn -0.2674 0.9600 0.0836
vn -0.2423 -0.9696 -0.0344
vn -0.7563 0.1437 0.6382
vn -0.8931 0.4499 -0.0000
vn -0.8377 -0.5461 -0.0000
vn -0.5999 0.7948 0.0921
vn -0.5165 -0.8562 -0.0132
vn -0.5662 0.0485 -0.8228
vn 0.9869 0.0409 -0.1564
vn -0.0381 0.6864 -0.7263
vn 0.0489 0.6541 -0.7548
vn 0.2158 0.8929 -0.3952
vn 0.2332 0.9724 -0.0047
vn 0.2114 0.8407 0.4986
vn 0.5362 0.7239 0.4341
vn 0.6140 0.7893 -0.0094
vn 0.5575 0.7416 -0.3731
vn 0.4895 0.6746 -0.5525
vn 0.2088 0.7506 -0.6269
vn 0.9486 0.1818 -0.2589
vn 0.9832 0.1706 0.0645
vn 0.9679 -0.1309 -0.2144
vn 0.9842 -0.1492 0.0957
vn 0.7191 0.4598 -0.5211
vn 0.8258 0.4724 -0.3080
vn 0.8791 0.4760 0.0239
vn 0.8171 0.4050 0.4103
vn 0.8813 0.1551 0.4463
vn 0.8704 -0.1617 0.4650
vn 0.7756 -0.4470 0.4457
vn 0.8474 -0.5145 0.1312
vn 0.8444 -0.5089 -0.1672
vn 0.7820 -0.4824 -0.3947
vn 0.8583 -0.1214 -0.4987
vn 0.8209 0.2013 -0.5345
vn 0.1806 -0.9804 -0.0786
vn 0.1607 -0.9818 -0.1015
vn 0.1488 -0.9784 0.1435
vn 0.5095 -0.7887 -0.3441
vn 0.5440 -0.8308 -0.1171
vn 0.5063 -0.8464 0.1648
vn 0.4448 -0.7758 0.4475
vn 0.1542 -0.8626 0.4818
vn 0.1482 -0.9172 -0.3698
vn 0.3082 0.2745 -0.9109
vn 0.3445 -0.1614 -0.9248
vn 0.2408 0.5577 -0.7943
vn 0.4461 0.4620 -0.7665
vn 0.5707 0.2336 -0.7872
vn 0.6232 -0.1271 -0.7717
vn 0.5828 -0.4680 -0.6643
vn 0.2684 -0.6184 -0.7387
vn 0.1782 0.1347 0.9747
vn 0.1652 -0.1814 0.9694
vn 0.5146 0.4458 0.7324
vn 0.1947 0.4736 0.8589
vn 0.1626 -0.5423 0.8243
vn 0.4611 -0.5075 0.7279
vn 0.5466 -0.1746 0.8190
vn 0.5630 0.1438 0.8139
vn -0.6237 -0.6944 -0.3588
vn 0.3504 0.9165 0.1929
vn 0.2836 -0.9512 0.1218
vn 0.2181 -0.9557 -0.1974
vn 0.8445 -0.4838 -0.2297
vn 0.8994 0.4221 -0.1135
vn 0.3231 0.9434 -0.0741
vn 0.1732 -0.9816 -0.0802
vn 0.9270 -0.3629 -0.0945
vn 0.9678 0.2146 0.1316
vn 0.4175 0.9078 -0.0408
vn 0.7099 0.4507 0.5412
vn 0.2593 0.8327 0.4893
vn 0.5223 -0.0714 0.8498
vn 0.0431 -0.8322 0.5527
vn 0.7709 0.6345 -0.0559
vn 0.9452 -0.2688 0.1855
vn 0.9183 0.3786 -0.1158
vn 0.2854 -0.9507 0.1214
vn -0.2242 -0.5759 -0.7862
vn 0.9965 0.0597 -0.0588
vn 0.8647 -0.2597 0.4300
vn -0.8997 -0.4152 -0.1344
vn -0.0082 0.9627 -0.2705
vn 0.8051 0.5681 0.1706
vn -0.8433 0.3315 -0.4230
vn 0.0689 -0.9830 0.1704
vn 0.8918 0.4522 -0.0152
vn -0.8178 0.2938 -0.4949
vn -0.0043 -0.8894 0.4572
vn 0.9006 -0.2245 0.3721
vn -0.8742 -0.4772 -0.0895
vn -0.0008 0.8656 -0.5008
vn 0.5227 0.2095 0.8264
vn -0.9781 -0.1211 0.1692
vn -0.4983 0.8661 0.0390
vn 0.2529 0.5577 0.7906
vn -0.6772 -0.2423 -0.6948
vn -0.1516 -0.4053 0.9015
vn 0.7898 0.6040 0.1064
vn 0.0042 -0.8684 0.4958
vn 0.8250 0.0113 0.5650
vn -0.1273 0.8948 -0.4280
vn -0.9926 -0.1182 0.0265
vn -0.3157 0.7652 -0.5610
vn 0.9810 -0.0010 -0.1940
vn -0.9853 0.1030 -0.1365
vn -0.1567 -0.9558 0.2488
vn 0.9751 -0.2210 -0.0203
vn -0.9466 -0.3222 -0.0093
vn -0.1343 0.6571 -0.7418
vn 0.9827 -0.0326 -0.1824
vn -0.5309 -0.6310 0.5656
vn -0.5917 -0.7369 0.3268
vn -0.0035 -0.7878 -0.6160
vn 0.9875 0.1293 0.0907
vn -0.0552 0.6770 -0.7339
vn -0.9372 -0.3304 -0.1118
vn 0.2230 -0.1128 0.9683
vn 0.5591 0.6305 0.5384
vn 0.0152 -0.3511 0.9362
vn 0.4930 -0.0476 0.8688
vn -0.5316 -0.5402 -0.6524
vn -0.4957 -0.1607 -0.8535
vn 0.0310 -0.9729 0.2291
vn -0.9406 0.0243 -0.3385
vn 0.6553 0.7544 0.0378
vn 0.3381 0.9322 -0.1289
vn -0.9162 -0.3658 -0.1639
vn 0.8744 -0.2717 0.4019
vn -0.0282 0.9318 -0.3618
vn -0.8754 -0.4729 -0.0999
vn 0.8630 -0.2111 0.4591
vn -0.0372 -0.9069 0.4196
vn -0.7926 0.3180 -0.5203
vn 0.8236 0.5609 0.0838
vn 0.4897 0.8707 -0.0454
vn 0.9944 0.0339 -0.1002
vn 0.4535 -0.8709 -0.1895
vn -0.5360 -0.8320 -0.1429
vn -0.5467 -0.7990 -0.2503
vn 1.0000 -0.0019 -0.0055
vn -0.9917 0.1230 0.0364
vn 0.9973 0.0722 -0.0160
vn -0.9821 -0.1714 -0.0780
vn 0.9990 -0.0094 0.0433
vn 0.4989 0.8627 -0.0829
vn 0.4713 -0.8602 -0.1948
vn -0.5354 -0.1910 0.8227
vn -0.6064 -0.0408 0.7941
vn -0.2686 -0.1943 0.9435
vn 0.4655 -0.8823 -0.0700
vn 0.5081 0.8029 0.3116
vn 0.0309 0.8973 -0.4402
vn -0.5325 -0.7868 -0.3121
vn 0.9521 -0.0754 0.2963
vn -0.9992 0.0386 -0.0085
vn -0.9999 0.0099 -0.0022
vn 0.4993 0.2400 0.8326
vn -0.6120 0.1962 0.7662
vn -0.4989 -0.2039 -0.8423
vn -0.5033 -0.2959 -0.8119
vn -0.4120 -0.0114 0.9111
vn 0.4015 -0.6784 -0.6152
vn 0.4437 0.1928 0.8752
vn -1.0000 -0.0009 0.0002
vn 0.9980 0.0549 -0.0313
vn -0.2231 -0.5985 -0.7694
vn 0.2660 -0.9432 0.1988
vn 0.3818 0.7946 0.4721
vn 0.3364 0.8180 0.4666
vn 0.2640 -0.9643 -0.0220
vn 0.8771 -0.0960 0.4706
vn 0.0011 0.9893 0.1462
vn -0.0064 0.9765 0.2154
vn -0.0811 0.9827 0.1668
vn 0.4596 -0.2192 -0.8606
vn 0.4495 0.3044 0.8398
vn -0.4963 0.3048 0.8129
vn -0.4988 -0.2185 -0.8388
vn 0.9991 0.0412 0.0091
vn 0.9990 0.0082 -0.0435
vn -1.0000 -0.0003 0.0009
vn 0.2686 0.7719 -0.5763
vn 0.4987 -0.8519 -0.1602
vn 0.1816 0.3473 -0.9200
vn -0.4257 -0.9048 0.0044
vn 0.9987 0.0274 -0.0420
vn -1.0000 -0.0011 0.0010
vn 0.4804 0.7710 0.4180
vn 0.4743 -0.8411 -0.2599
vn -0.2060 0.8806 -0.4268
vn -0.4342 -0.7604 -0.4830
vn 0.2821 0.9563 0.0765
vn 0.1990 -0.9798 0.0179
vn 0.7438 -0.3326 0.5798
vn 0.9045 -0.0860 0.4178
vn 0.8391 0.5429 0.0335
vn 0.5999 0.7948 0.0921
vn 0.5513 -0.8343 -0.0000
vn -0.2158 0.8929 -0.3952
vn -0.2309 0.9730 -0.0026
vn -0.2114 0.8407 0.4986
vn -0.5934 0.7171 0.3657
vn -0.6038 0.7971 0.0039
vn -0.5368 0.7678 -0.3497
vn -0.4895 0.6746 -0.5525
vn -0.2088 0.7506 -0.6269
vn -0.9488 0.1900 -0.2522
vn -0.9829 0.1719 0.0657
vn -0.9669 -0.1341 -0.2169
vn -0.9843 -0.1466 0.0981
vn -0.7198 0.4412 -0.5359
vn -0.8218 0.4872 -0.2955
vn -0.8739 0.4848 0.0339
vn -0.8171 0.4050 0.4103
vn -0.8793 0.1584 0.4492
vn -0.8717 -0.1659 0.4611
vn -0.7717 -0.4987 0.3948
vn -0.8452 -0.5193 0.1267
vn -0.8441 -0.5094 -0.1677
vn -0.7820 -0.4824 -0.3947
vn -0.8572 -0.1236 -0.4999
vn -0.8229 0.2097 -0.5281
vn -0.1607 -0.9818 -0.1015
vn -0.1806 -0.9804 -0.0786
vn -0.1564 -0.9765 0.1485
vn -0.4800 -0.7943 -0.3725
vn -0.5169 -0.8425 -0.1518
vn -0.4664 -0.8756 0.1262
vn -0.4448 -0.7758 0.4475
vn -0.1542 -0.8626 0.4818
vn -0.2261 -0.9220 -0.3144
vn -0.3148 0.2794 -0.9071
vn -0.3250 -0.1799 -0.9284
vn -0.2669 0.5681 -0.7785
vn -0.4934 0.5045 -0.7086
vn -0.5804 0.2495 -0.7751
vn -0.6137 -0.1420 -0.7766
vn -0.5175 -0.5489 -0.6564
vn -0.2683 -0.6184 -0.7387
vn -0.1733 0.1395 0.9749
vn -0.1703 -0.1865 0.9676
vn -0.5492 0.4099 0.7283
vn -0.1876 0.4801 0.8569
vn -0.1626 -0.5423 0.8243
vn -0.4611 -0.5075 0.7279
vn -0.5518 -0.1809 0.8141
vn -0.5611 0.1458 0.8148
vn -0.2622 0.9389 0.2231
vn -0.4018 -0.9126 -0.0749
vn -0.3479 -0.9182 -0.1897
vn -0.9427 -0.3140 -0.1133
vn -0.8372 0.5083 -0.2019
vn -0.2266 0.9677 -0.1105
vn -0.4020 -0.9126 -0.0743
vn -0.9874 -0.1446 -0.0641
vn -0.9040 0.4248 -0.0484
vn -0.1906 0.9725 -0.1338
vn -0.6188 0.3499 0.7033
vn -0.2793 0.8278 0.4866
vn -0.4382 -0.3005 0.8472
vn -0.0398 -0.8293 0.5574
vn -0.7516 0.6475 0.1263
vn -0.8715 -0.4555 0.1815
vn 0.7963 0.5439 0.2648
vn -0.5723 -0.8064 -0.1488
vn 0.8237 -0.0047 -0.5670
vn -0.7387 0.4941 -0.4586
vn -0.8913 -0.4392 0.1128
vn 0.9083 -0.2356 -0.3456
vn -0.0039 0.9431 0.3326
vn -0.8075 0.3323 0.4873
vn 0.8531 0.5155 -0.0811
vn -0.0671 -0.8703 -0.4879
vn -0.8819 0.3487 0.3172
vn 0.8411 0.4711 -0.2659
vn -0.0152 -0.9750 -0.2218
vn -0.8966 -0.4044 0.1806
vn 0.8597 -0.3004 -0.4131
vn 0.0002 0.9847 0.1741
vn -0.4864 -0.3760 0.7886
vn 0.9810 -0.1937 0.0096
vn 0.5178 0.6416 0.5659
vn -0.6109 0.3500 0.7102
vn 0.6451 0.2674 -0.7158
vn 0.5356 -0.6812 0.4991
vn -0.7901 0.0593 0.6102
vn -0.0040 -0.9837 -0.1799
vn -0.8667 -0.2313 0.4419
vn 0.2584 0.9660 0.0047
vn 0.9902 -0.0995 -0.0982
vn 0.6861 0.7213 -0.0948
vn -0.9874 0.1163 -0.1071
vn 0.9655 0.2580 -0.0343
vn 0.1456 -0.8902 -0.4317
vn -0.9887 -0.0569 -0.1385
vn 0.1201 0.9814 -0.1497
vn -0.9893 0.0846 -0.1184
vn 0.5296 -0.8465 -0.0555
vn 0.5459 -0.7873 -0.2867
vn 0.2125 0.0893 -0.9731
vn -0.9803 0.0326 0.1946
vn 0.0418 0.9910 -0.1275
vn 0.9251 -0.1732 -0.3380
vn -0.2405 -0.1568 0.9579
vn -0.5591 0.6305 0.5384
vn -0.0392 -0.3861 0.9216
vn -0.4465 -0.0787 0.8913
vn 0.4787 0.0227 -0.8777
vn 0.5889 0.2616 -0.7647
vn -0.0563 -0.8701 -0.4896
vn 0.8835 0.4673 -0.0325
vn -0.8101 0.2965 0.5058
vn -0.0205 0.9330 0.3593
vn 0.9159 -0.1782 -0.3596
vn -0.8817 -0.4583 0.1120
vn 0.0334 0.9466 0.3206
vn 0.8660 -0.2912 -0.4065
vn -0.8935 -0.4182 0.1639
vn -0.0632 -0.9094 -0.4110
vn 0.7645 0.5747 -0.2919
vn -0.8159 0.3746 0.4405
vn -0.5934 0.6370 -0.4920
vn -0.9941 -0.0473 -0.0972
vn -0.5065 -0.7912 0.3428
vn 0.6656 -0.6579 0.3523
vn 0.6566 -0.6247 0.4226
vn 0.4797 0.6496 -0.5899
vn -0.4720 0.8797 -0.0582
vn -0.9957 -0.0013 -0.0927
vn 0.9866 -0.1464 0.0718
vn -0.9992 0.0137 0.0386
vn -0.6097 0.7167 -0.3385
vn -0.4116 -0.8120 0.4139
vn 0.6528 0.1783 0.7363
vn 0.5664 -0.0294 0.8236
vn 0.5686 0.0442 0.8214
vn -0.3794 -0.8437 0.3798
vn -0.5830 0.8125 0.0066
vn -0.0548 0.8964 -0.4398
vn 0.6991 -0.7087 0.0951
vn -0.9643 -0.0165 0.2642
vn 0.9995 -0.0037 -0.0311
vn 0.9996 -0.0004 -0.0292
vn -0.4986 0.8625 -0.0858
vn -0.5000 -0.8661 -0.0008
vn 0.4999 0.8655 -0.0332
vn 0.5000 -0.8660 0.0104
vn 0.4926 -0.8679 0.0633
vn 0.6131 0.7849 -0.0892
vn -0.4884 -0.8716 -0.0421
vn -0.5517 0.8333 0.0364
vn 1.0000 0.0001 0.0008
vn -0.9978 -0.0042 -0.0658
vn -0.0608 -0.5981 -0.7991
vn -0.1524 -0.7597 0.6322
vn -0.1519 0.9812 0.1193
vn -0.2939 0.8302 0.4736
vn -0.2336 -0.9644 0.1239
vn -0.8857 -0.0747 0.4583
vn -0.0000 0.0629 -0.9980
vn -0.4991 -0.8654 0.0445
vn -0.4988 0.8602 -0.1061
vn 0.4988 0.8602 -0.1061
vn 0.4991 -0.8654 0.0445
vn -0.9995 -0.0038 -0.0311
vn -0.9970 -0.0248 -0.0731
vn 1.0000 0.0005 0.0007
vn -0.4943 0.6631 -0.5621
vn -0.5122 -0.7940 0.3276
vn 0.4984 0.6945 -0.5190
vn 0.4968 -0.7362 0.4595
vn -0.9973 -0.0137 -0.0720
vn 1.0000 0.0004 0.0008
vn -0.4543 0.7561 -0.4711
vn -0.5142 -0.8209 0.2482
vn 0.4916 0.8198 -0.2937
vn 0.4953 -0.8326 0.2479
vn -0.2691 0.9600 0.0768
vn -0.2569 -0.9643 -0.0635
vn -0.8995 -0.0707 0.4311
vn -0.7362 -0.3340 0.5886
vn -0.8391 0.5429 0.0335
vn -0.5488 0.8323 0.0777
vn -0.5513 -0.8343 -0.0000
vn -0.9909 0.1322 -0.0255
vn 0.8258 -0.1341 -0.5478
vn -0.6270 0.7725 -0.1007
vn 0.2690 0.8035 -0.5311
vt 0.500000 0.375000
vt 0.437500 0.437500
vt 0.437500 0.375000
vt 0.562500 0.437500
vt 0.500000 0.437500
vt 0.625000 0.375000
vt 0.562500 0.375000
vt 0.625000 0.500000
vt 0.562500 0.500000
vt 0.500000 0.500000
vt 0.437500 0.500000
vt 0.375000 0.500000
vt 0.375000 0.437500
vt 0.375000 0.375000
vt 0.437500 0.562500
vt 0.500000 0.625000
vt 0.437500 0.625000
vt 0.500000 0.562500
vt 0.562500 0.625000
vt 0.500000 0.687500
vt 0.437500 0.687500
vt 0.562500 0.687500
vt 0.375000 0.562500
vt 0.562500 0.562500
vt 0.625000 0.625000
vt 0.625000 0.687500
vt 0.625000 0.750000
vt 0.562500 0.750000
vt 0.500000 0.750000
vt 0.437500 0.750000
vt 0.375000 0.750000
vt 0.375000 0.687500
vt 0.375000 0.625000
vt 0.500000 0.875000
vt 0.468750 0.875000
vt 0.437500 0.875000
vt 0.500000 0.812500
vt 0.562500 0.875000
vt 0.437500 0.812500
vt 0.375000 0.812500
vt 0.562500 0.812500
vt 0.625000 0.812500
vt 0.375000 0.875000
vt 0.250000 0.562500
vt 0.312500 0.625000
vt 0.250000 0.625000
vt 0.312500 0.687500
vt 0.250000 0.687500
vt 0.250000 0.500000
vt 0.312500 0.562500
vt 0.312500 0.500000
vt 0.312500 0.750000
vt 0.250000 0.750000
vt 0.687500 0.562500
vt 0.750000 0.625000
vt 0.687500 0.625000
vt 0.750000 0.687500
vt 0.687500 0.687500
vt 0.625000 0.562500
vt 0.687500 0.500000
vt 0.750000 0.562500
vt 0.687500 0.750000
vt 1.000000 0.500000
vt 0.833333 1.000000
vt 0.833333 0.500000
vt 0.666667 1.000000
vt 0.666667 0.500000
vt 0.500000 1.000000
vt 0.500000 0.500000
vt 0.333333 0.500000
vt 0.042154 0.130000
vt 0.250000 0.010000
vt 0.457846 0.130000
vt 0.333333 1.000000
vt 0.166667 0.500000
vt 0.166667 1.000000
vt -0.000000 0.500000
vt 0.542154 0.130000
vt 0.542154 0.370000
vt 0.957846 0.370000
vt 1.000000 0.828637
vt 0.875000 1.000000
vt 0.875000 0.828637
vt 0.625000 0.828637
vt 0.500000 1.000000
vt 0.500000 0.828637
vt 0.625000 0.645722
vt 0.500000 0.500000
vt 0.750000 0.500000
vt 0.875000 0.645722
vt 0.875000 0.500000
vt 0.500000 0.645722
vt 0.750000 0.828637
vt 0.750000 0.645722
vt 1.000000 0.645722
vt 0.750000 1.000000
vt 1.000000 1.000000
vt 0.625000 1.000000
vt 0.749520 0.964446
vt 0.653402 0.965669
vt 0.844587 0.863513
vt 0.844268 0.965118
vt 0.647775 0.863148
vt 0.750840 0.864057
vt 0.749520 0.964446
vt 0.750840 0.864057
vt 0.647775 0.863149
vt 0.844587 0.863513
vt 0.844267 0.965117
vt 0.653402 0.965669
vt 0.749520 0.964446
vt 0.844268 0.965117
vt 0.750840 0.864057
vt 0.653402 0.965669
vt 0.844587 0.863513
vt 0.000000 0.000000
vt 0.833333 0.500000
vt -0.000000 1.000000
vt 0.500000 0.500000
vt 0.500000 0.500000
vt 0.166667 0.500000
vt -0.000000 0.500000
vt 0.833333 0.500000
vt 0.042154 0.370000
vt 0.457846 0.370000
vt 0.750000 0.010000
vt 0.333333 0.500000
vt 0.457846 0.250000
vt 0.625000 0.437500
vt 0.750000 0.500000
vt 0.957846 0.130000
vt 0.250000 0.490000
vt 0.625000 0.875000
vt 0.750000 0.750000
vt 0.250000 0.490000
vt 0.750000 0.490000
vt 0.750000 0.490000
s 0
f 26/1/1 28/2/1 25/3/1
f 26/1/2 30/4/2 29/5/2
f 7/6/3 30/4/3 27/7/3
f 30/4/4 4/8/4 9/9/4
f 29/5/5 9/9/5 10/10/5
f 28/2/6 10/10/6 11/11/6
f 28/2/7 3/12/7 5/13/7
f 25/3/8 5/13/8 6/14/8
f 31/15/9 35/16/9 34/17/9
f 32/18/10 36/19/10 35/16/10
f 34/17/11 38/20/11 37/21/11
f 35/16/12 39/22/12 38/20/12
f 3/12/13 31/15/13 14/23/13
f 11/11/14 32/18/14 31/15/14
f 10/10/15 33/24/15 32/18/15
f 4/8/16 33/24/16 9/9/16
f 33/24/17 16/25/17 36/19/17
f 36/19/18 17/26/18 39/22/18
f 39/22/19 2/27/19 18/28/19
f 38/20/20 18/28/20 19/29/20
f 37/21/21 19/29/21 20/30/21
f 37/21/22 1/31/22 12/32/22
f 13/33/23 37/21/23 12/32/23
f 14/23/24 34/17/24 13/33/24
f 44/34/25 58/35/25 43/36/25
f 41/37/26 45/38/26 44/34/26
f 1/31/27 40/39/27 22/40/27
f 20/30/28 41/37/28 40/39/28
f 19/29/29 42/41/29 41/37/29
f 2/27/30 42/41/30 18/28/30
f 23/42/31 45/38/31 42/41/31
f 22/40/32 43/36/32 21/43/32
f 46/44/33 49/45/33 48/46/33
f 48/46/34 51/47/34 50/48/34
f 6/49/35 47/50/35 46/44/35
f 5/51/36 14/23/36 47/50/36
f 47/50/37 13/33/37 49/45/37
f 49/45/38 12/32/38 51/47/38
f 51/47/39 1/31/39 22/52/39
f 51/47/40 21/53/40 50/48/40
f 52/54/41 55/55/41 54/56/41
f 54/56/42 57/57/42 56/58/42
f 4/8/43 52/54/43 15/59/43
f 8/60/44 53/61/44 52/54/44
f 57/57/45 23/62/45 56/58/45
f 56/58/46 2/27/46 17/26/46
f 16/25/47 56/58/47 17/26/47
f 15/59/48 54/56/48 16/25/48
f 59/63/49 62/64/49 61/65/49
f 61/65/50 64/66/50 63/67/50
f 63/67/51 66/68/51 65/69/51
f 66/68/52 67/70/52 65/69/52
f 68/71/53 66/72/53 64/73/53
f 68/74/54 69/75/54 67/70/54
f 70/76/55 59/77/55 69/75/55
f 67/78/56 69/79/56 61/80/56
f 86/81/57 97/82/57 99/83/57
f 100/84/58 80/85/58 90/86/58
f 84/87/59 79/88/59 77/8/59
f 75/89/60 84/87/60 77/8/60
f 82/90/61 75/89/61 73/91/61
f 71/63/62 82/90/62 73/91/62
f 100/84/63 85/92/63 84/87/63
f 101/93/64 84/87/64 83/94/64
f 99/83/65 83/94/65 82/90/65
f 81/95/66 99/83/66 82/90/66
f 97/82/67 93/96/67 96/96/67
f 72/97/68 92/82/68 97/82/68
f 98/98/69 93/96/69 94/98/69
f 80/85/70 94/98/70 95/85/70
f 76/99/71 97/82/71 96/96/71
f 78/100/72 96/96/72 98/98/72
f 87/101/73 97/82/73 74/102/73
f 78/100/74 100/84/74 89/103/74
f 89/103/75 101/93/75 88/104/75
f 87/101/76 101/93/76 99/83/76
f 150/105/77 104/100/77 103/99/77
f 151/106/78 107/103/78 152/107/78
f 154/108/79 102/102/79 105/101/79
f 150/105/80 102/102/80 153/109/80
f 151/106/81 105/101/81 106/104/81
f 152/107/82 104/100/82 149/110/82
f 155/111/83 108/102/83 156/112/83
f 158/113/84 111/101/84 112/104/84
f 160/114/85 113/103/85 110/100/85
f 155/111/86 110/100/86 109/99/86
f 158/113/87 113/103/87 159/107/87
f 156/112/88 111/101/88 157/115/88
f 110/100/89 115/99/89 109/99/89
f 112/104/90 133/103/90 113/103/90
f 108/102/91 117/101/91 111/101/91
f 108/102/92 115/99/92 114/102/92
f 111/101/93 118/104/93 112/104/93
f 110/100/94 119/103/94 116/100/94
f 114/102/95 121/99/95 120/102/95
f 117/101/96 124/104/96 118/104/96
f 119/103/97 122/100/97 116/100/97
f 115/99/98 122/100/98 121/99/98
f 119/103/99 124/104/99 125/103/99
f 117/101/100 120/102/100 123/101/100
f 124/104/101 131/103/101 125/103/101
f 123/101/102 126/102/102 129/101/102
f 121/99/103 126/102/103 120/102/103
f 124/104/104 129/101/104 130/104/104
f 125/103/105 128/100/105 122/100/105
f 121/99/106 128/100/106 127/99/106
f 132/104/107 137/103/107 133/103/107
f 118/104/108 132/104/108 112/104/108
f 119/103/109 134/104/109 118/104/109
f 119/103/110 133/103/110 135/103/110
f 139/103/111 141/103/111 143/103/111
f 135/103/112 137/103/112 139/103/112
f 135/103/113 138/104/113 134/104/113
f 134/104/114 136/104/114 132/104/114
f 141/103/115 142/104/115 143/103/115
f 139/103/116 142/104/116 138/104/116
f 138/104/117 140/104/117 136/104/117
f 136/104/118 141/103/118 137/103/118
f 94/98/119 146/96/119 147/98/119
f 91/97/120 145/82/120 92/82/120
f 94/98/121 148/85/121 95/85/121
f 92/82/122 146/96/122 93/96/122
f 128/100/123 130/104/123 127/99/123
f 127/99/124 129/101/124 126/102/124
f 89/103/125 149/110/125 78/100/125
f 88/104/126 154/108/126 151/106/126
f 74/102/127 150/105/127 153/109/127
f 87/101/128 153/109/128 154/108/128
f 88/104/129 152/107/129 89/103/129
f 78/100/130 150/105/130 76/99/130
f 102/102/131 157/115/131 105/101/131
f 106/104/132 159/107/132 107/103/132
f 103/99/133 160/114/133 155/111/133
f 104/100/134 159/107/134 160/114/134
f 106/104/135 157/115/135 158/113/135
f 103/99/136 156/112/136 102/102/136
f 162/97/137 163/65/137 161/63/137
f 163/65/138 166/66/138 165/67/138
f 165/67/139 168/68/139 167/69/139
f 168/68/140 169/70/140 167/69/140
f 170/74/141 175/68/141 176/74/141
f 368/74/142 369/75/142 416/116/142
f 170/74/143 171/75/143 169/70/143
f 190/67/144 185/65/144 191/117/144
f 177/76/145 182/74/145 183/76/145
f 164/64/146 174/66/146 166/66/146
f 164/64/147 172/97/147 173/64/147
f 166/66/148 175/68/148 168/68/148
f 182/71/149 181/72/149 180/73/149
f 174/66/150 181/68/150 175/68/150
f 173/64/151 178/97/151 179/64/151
f 177/76/152 178/118/152 172/118/152
f 175/68/153 182/74/153 176/74/153
f 173/64/154 180/66/154 174/66/154
f 188/70/155 210/75/155 209/70/155
f 192/75/156 188/70/156 193/70/156
f 191/117/157 184/63/157 194/63/157
f 190/67/158 187/69/158 186/67/158
f 192/75/159 184/77/159 189/75/159
f 193/70/160 187/69/160 195/119/160
f 221/70/161 195/119/161 219/120/161
f 218/121/162 194/122/162 192/75/162
f 217/67/163 195/119/163 190/67/163
f 222/63/164 191/117/164 194/63/164
f 218/121/165 193/70/165 221/70/165
f 220/123/166 190/67/166 191/117/166
f 183/76/167 178/118/167 200/116/167
f 182/116/168 197/116/168 196/116/168
f 181/116/169 198/116/169 197/116/169
f 196/116/170 183/124/170 182/71/170
f 199/116/171 178/116/171 200/116/171
f 199/116/172 201/116/172 179/116/172
f 198/116/173 202/116/173 203/116/173
f 179/125/174 202/73/174 180/73/174
f 206/80/175 208/126/175 210/79/175
f 187/69/176 207/67/176 186/67/176
f 185/65/177 205/63/177 184/63/177
f 189/75/178 205/77/178 210/75/178
f 187/69/179 209/70/179 208/69/179
f 186/67/180 206/65/180 185/65/180
f 163/65/181 214/67/181 211/123/181
f 171/75/182 212/127/182 169/70/182
f 161/63/183 211/123/183 213/63/183
f 165/67/184 216/69/184 214/67/184
f 161/77/185 215/121/185 171/75/185
f 169/70/186 216/69/186 167/69/186
f 211/123/187 217/67/187 220/123/187
f 215/121/188 221/70/188 212/127/188
f 213/63/189 220/123/189 222/63/189
f 214/67/190 219/120/190 217/67/190
f 215/121/191 222/77/191 218/121/191
f 212/127/192 219/120/192 216/69/192
f 204/116/193 73/116/193 201/116/193
f 203/116/194 77/116/194 79/116/194
f 201/125/195 73/125/195 75/128/195
f 145/82/196 225/96/196 146/96/196
f 146/96/197 226/98/197 147/98/197
f 145/82/198 223/97/198 224/82/198
f 147/98/199 227/85/199 148/85/199
f 248/2/200 26/1/200 25/3/200
f 26/1/201 250/4/201 27/7/201
f 250/4/202 7/6/202 27/7/202
f 250/4/203 231/8/203 233/129/203
f 249/5/204 234/9/204 250/4/204
f 248/2/205 235/10/205 249/5/205
f 230/12/206 248/2/206 232/13/206
f 232/13/207 25/3/207 6/14/207
f 251/15/208 255/16/208 252/18/208
f 252/18/209 256/19/209 253/24/209
f 254/17/210 258/20/210 255/16/210
f 255/16/211 259/22/211 256/19/211
f 230/12/212 251/15/212 236/11/212
f 236/11/213 252/18/213 235/10/213
f 235/10/214 253/24/214 234/9/214
f 253/24/215 231/8/215 234/9/215
f 253/24/216 241/25/216 240/59/216
f 256/19/217 242/26/217 241/25/217
f 259/22/218 229/27/218 242/26/218
f 258/20/219 243/28/219 259/22/219
f 257/21/220 244/29/220 258/20/220
f 228/31/221 257/21/221 237/32/221
f 238/33/222 257/21/222 254/17/222
f 239/23/223 254/17/223 251/15/223
f 261/37/224 45/38/224 262/41/224
f 228/31/225 260/39/225 245/30/225
f 245/30/226 261/37/226 244/29/226
f 244/29/227 262/41/227 243/28/227
f 262/41/228 229/27/228 243/28/228
f 45/38/229 247/42/229 262/41/229
f 246/40/230 43/36/230 260/39/230
f 46/44/231 264/45/231 263/50/231
f 48/46/232 265/47/232 264/45/232
f 6/49/233 263/50/233 232/51/233
f 232/51/234 239/23/234 230/12/234
f 263/50/235 238/33/235 239/23/235
f 264/45/236 237/32/236 238/33/236
f 265/47/237 228/31/237 237/32/237
f 21/53/238 265/47/238 50/48/238
f 266/54/239 55/55/239 53/61/239
f 267/56/240 57/57/240 55/55/240
f 231/8/241 266/54/241 233/60/241
f 233/60/242 53/61/242 7/130/242
f 247/62/243 57/57/243 268/58/243
f 229/27/244 268/58/244 242/26/244
f 241/25/245 268/58/245 267/56/245
f 240/59/246 267/56/246 266/54/246
f 269/63/247 272/64/247 270/97/247
f 271/65/248 274/66/248 272/64/248
f 273/67/249 276/68/249 274/66/249
f 277/70/250 276/68/250 275/69/250
f 278/71/251 280/124/251 274/73/251
f 279/75/252 278/74/252 277/70/252
f 269/77/253 280/76/253 279/75/253
f 271/80/254 277/78/254 273/131/254
f 86/81/255 297/82/255 72/97/255
f 300/84/256 80/85/256 298/98/256
f 79/88/257 289/87/257 285/8/257
f 283/89/258 289/87/258 288/94/258
f 283/89/259 287/90/259 281/91/259
f 71/63/260 287/90/260 81/95/260
f 85/92/261 300/84/261 289/87/261
f 289/87/262 301/93/262 288/94/262
f 288/94/263 299/83/263 287/90/263
f 81/95/264 299/83/264 86/81/264
f 294/96/265 297/82/265 296/96/265
f 293/82/266 72/97/266 297/82/266
f 298/98/267 294/96/267 296/96/267
f 80/85/268 295/98/268 298/98/268
f 284/99/269 297/82/269 282/102/269
f 286/100/270 296/96/270 284/99/270
f 297/82/271 290/101/271 282/102/271
f 300/84/272 286/100/272 292/103/272
f 301/93/273 292/103/273 291/104/273
f 290/101/274 301/93/274 291/104/274
f 348/105/275 304/100/275 347/110/275
f 307/103/276 349/106/276 350/107/276
f 352/108/277 302/102/277 351/109/277
f 302/102/278 348/105/278 351/109/278
f 349/106/279 305/101/279 352/108/279
f 304/100/280 350/107/280 347/110/280
f 308/102/281 353/111/281 354/112/281
f 356/113/282 311/101/282 355/115/282
f 358/114/283 313/103/283 357/107/283
f 353/111/284 310/100/284 358/114/284
f 313/103/285 356/113/285 357/107/285
f 311/101/286 354/112/286 355/115/286
f 315/99/287 310/100/287 309/99/287
f 333/103/288 312/104/288 313/103/288
f 317/101/289 308/102/289 311/101/289
f 308/102/290 315/99/290 309/99/290
f 318/104/291 311/101/291 312/104/291
f 310/100/292 319/103/292 313/103/292
f 314/102/293 321/99/293 315/99/293
f 324/104/294 317/101/294 318/104/294
f 322/100/295 319/103/295 316/100/295
f 315/99/296 322/100/296 316/100/296
f 319/103/297 324/104/297 318/104/297
f 317/101/298 320/102/298 314/102/298
f 331/103/299 324/104/299 325/103/299
f 323/101/300 326/102/300 320/102/300
f 326/102/301 321/99/301 320/102/301
f 324/104/302 329/101/302 323/101/302
f 328/100/303 325/103/303 322/100/303
f 321/99/304 328/100/304 322/100/304
f 337/103/305 332/104/305 333/103/305
f 332/104/306 318/104/306 312/104/306
f 334/104/307 319/103/307 318/104/307
f 319/103/308 333/103/308 313/103/308
f 339/103/309 341/103/309 337/103/309
f 335/103/310 337/103/310 333/103/310
f 338/104/311 335/103/311 334/104/311
f 336/104/312 334/104/312 332/104/312
f 341/103/313 342/104/313 340/104/313
f 342/104/314 339/103/314 338/104/314
f 340/104/315 338/104/315 336/104/315
f 341/103/316 336/104/316 337/103/316
f 295/98/317 345/96/317 294/96/317
f 344/82/318 91/97/318 293/82/318
f 148/85/319 295/98/319 95/85/319
f 345/96/320 293/82/320 294/96/320
f 328/100/321 330/104/321 331/103/321
f 327/99/322 329/101/322 330/104/322
f 347/110/323 292/103/323 286/100/323
f 291/104/324 352/108/324 290/101/324
f 282/102/325 348/105/325 284/99/325
f 290/101/326 351/109/326 282/102/326
f 350/107/327 291/104/327 292/103/327
f 348/105/328 286/100/328 284/99/328
f 355/115/329 302/102/329 305/101/329
f 357/107/330 306/104/330 307/103/330
f 303/99/331 358/114/331 304/100/331
f 304/100/332 357/107/332 307/103/332
f 306/104/333 355/115/333 305/101/333
f 354/112/334 303/99/334 302/102/334
f 361/65/335 360/97/335 359/63/335
f 361/65/336 364/66/336 362/64/336
f 363/67/337 366/68/337 364/66/337
f 367/70/338 366/68/338 365/69/338
f 368/74/339 373/68/339 366/68/339
f 416/116/340 359/63/340 360/97/340
f 162/97/341 171/75/341 415/116/341
f 381/65/342 386/67/342 387/117/342
f 177/76/343 379/74/343 374/74/343
f 372/66/344 362/64/344 364/66/344
f 362/64/345 370/97/345 360/97/345
f 373/68/346 364/66/346 366/68/346
f 379/71/347 183/124/347 375/132/347
f 378/68/348 372/66/348 373/68/348
f 371/64/349 375/97/349 370/97/349
f 375/118/350 177/76/350 370/118/350
f 379/74/351 373/68/351 374/74/351
f 377/66/352 371/64/352 372/66/352
f 384/70/353 399/75/353 385/75/353
f 384/70/354 388/75/354 389/70/354
f 380/63/355 387/117/355 390/63/355
f 386/67/356 383/69/356 391/119/356
f 388/75/357 380/77/357 390/122/357
f 383/69/358 389/70/358 391/119/358
f 391/119/359 410/70/359 408/120/359
f 407/121/360 390/122/360 411/77/360
f 406/67/361 391/119/361 408/120/361
f 411/63/362 387/117/362 409/123/362
f 389/70/363 407/121/363 410/70/363
f 409/123/364 386/67/364 406/67/364
f 183/76/365 200/116/365 375/118/365
f 197/116/366 379/116/366 196/116/366
f 198/116/367 378/116/367 197/116/367
f 196/116/368 379/71/368 183/124/368
f 199/116/369 375/116/369 376/116/369
f 392/116/370 199/116/370 376/116/370
f 198/116/371 393/116/371 377/116/371
f 393/73/372 376/125/372 377/73/372
f 399/79/373 397/126/373 395/80/373
f 396/67/374 383/69/374 382/67/374
f 394/63/375 381/65/375 380/63/375
f 385/75/376 394/77/376 380/77/376
f 383/69/377 398/70/377 384/70/377
f 395/65/378 382/67/378 381/65/378
f 361/65/379 403/67/379 363/67/379
f 401/127/380 369/75/380 367/70/380
f 359/63/381 400/123/381 361/65/381
f 363/67/382 405/69/382 365/69/382
f 404/121/383 359/77/383 369/75/383
f 405/69/384 367/70/384 365/69/384
f 400/123/385 406/67/385 403/67/385
f 410/70/386 404/121/386 401/127/386
f 402/63/387 409/123/387 400/123/387
f 403/67/388 408/120/388 405/69/388
f 404/121/389 411/77/389 402/77/389
f 408/120/390 401/127/390 405/69/390
f 281/116/391 204/116/391 392/116/391
f 203/116/392 285/116/392 393/116/392
f 283/128/393 281/125/393 392/125/393
f 413/96/394 344/82/394 345/96/394
f 414/98/395 345/96/395 346/98/395
f 344/82/396 223/97/396 144/97/396
f 227/85/397 346/98/397 148/85/397
f 415/116/398 176/74/398 177/76/398
f 416/116/399 374/74/399 368/74/399
f 172/118/400 415/116/400 177/76/400
f 416/116/401 370/118/401 177/76/401
f 26/1/402 29/5/402 28/2/402
f 26/1/403 27/7/403 30/4/403
f 7/6/404 8/129/404 30/4/404
f 30/4/405 8/129/405 4/8/405
f 29/5/406 30/4/406 9/9/406
f 28/2/407 29/5/407 10/10/407
f 28/2/408 11/11/408 3/12/408
f 25/3/409 28/2/409 5/13/409
f 31/15/410 32/18/410 35/16/410
f 32/18/411 33/24/411 36/19/411
f 34/17/412 35/16/412 38/20/412
f 35/16/413 36/19/413 39/22/413
f 3/12/414 11/11/414 31/15/414
f 11/11/415 10/10/415 32/18/415
f 10/10/416 9/9/416 33/24/416
f 4/8/417 15/59/417 33/24/417
f 33/24/418 15/59/418 16/25/418
f 36/19/419 16/25/419 17/26/419
f 39/22/420 17/26/420 2/27/420
f 38/20/421 39/22/421 18/28/421
f 37/21/422 38/20/422 19/29/422
f 37/21/423 20/30/423 1/31/423
f 13/33/424 34/17/424 37/21/424
f 14/23/425 31/15/425 34/17/425
f 43/36/426 40/39/426 44/34/426
f 40/39/427 41/37/427 44/34/427
f 41/37/428 42/41/428 45/38/428
f 1/31/429 20/30/429 40/39/429
f 20/30/430 19/29/430 41/37/430
f 19/29/431 18/28/431 42/41/431
f 2/27/432 23/42/432 42/41/432
f 23/42/433 24/133/433 45/38/433
f 22/40/434 40/39/434 43/36/434
f 46/44/435 47/50/435 49/45/435
f 48/46/436 49/45/436 51/47/436
f 6/49/437 5/51/437 47/50/437
f 5/51/438 3/12/438 14/23/438
f 47/50/439 14/23/439 13/33/439
f 49/45/440 13/33/440 12/32/440
f 51/47/441 12/32/441 1/31/441
f 51/47/442 22/52/442 21/53/442
f 52/54/443 53/61/443 55/55/443
f 54/56/444 55/55/444 57/57/444
f 4/8/445 8/60/445 52/54/445
f 8/60/446 7/130/446 53/61/446
f 57/57/447 24/134/447 23/62/447
f 56/58/448 23/62/448 2/27/448
f 16/25/449 54/56/449 56/58/449
f 15/59/450 52/54/450 54/56/450
f 59/63/49 60/97/49 62/64/49
f 61/65/50 62/64/50 64/66/50
f 63/67/51 64/66/51 66/68/51
f 66/68/451 68/74/451 67/70/451
f 64/73/53 62/125/53 68/71/53
f 62/125/53 60/135/53 70/124/53
f 68/71/53 62/125/53 70/124/53
f 68/74/54 70/76/54 69/75/54
f 70/76/55 60/118/55 59/77/55
f 69/79/56 59/136/56 61/80/56
f 61/80/56 63/131/56 67/78/56
f 63/131/56 65/126/56 67/78/56
f 86/81/452 72/97/452 97/82/452
f 100/84/453 98/98/453 80/85/453
f 84/87/454 85/92/454 79/88/454
f 75/89/455 83/94/455 84/87/455
f 82/90/456 83/94/456 75/89/456
f 71/63/457 81/95/457 82/90/457
f 100/84/458 90/86/458 85/92/458
f 101/93/459 100/84/459 84/87/459
f 99/83/460 101/93/460 83/94/460
f 81/95/461 86/81/461 99/83/461
f 97/82/462 92/82/462 93/96/462
f 72/97/463 91/97/463 92/82/463
f 98/98/464 96/96/464 93/96/464
f 80/85/465 98/98/465 94/98/465
f 76/99/466 74/102/466 97/82/466
f 78/100/467 76/99/467 96/96/467
f 87/101/468 99/83/468 97/82/468
f 78/100/469 98/98/469 100/84/469
f 89/103/470 100/84/470 101/93/470
f 87/101/471 88/104/471 101/93/471
f 150/105/472 149/110/472 104/100/472
f 151/106/473 106/104/473 107/103/473
f 154/108/474 153/109/474 102/102/474
f 150/105/475 103/99/475 102/102/475
f 151/106/476 154/108/476 105/101/476
f 152/107/477 107/103/477 104/100/477
f 155/111/478 109/99/478 108/102/478
f 158/113/479 157/115/479 111/101/479
f 160/114/480 159/107/480 113/103/480
f 155/111/481 160/114/481 110/100/481
f 158/113/482 112/104/482 113/103/482
f 156/112/483 108/102/483 111/101/483
f 110/100/484 116/100/484 115/99/484
f 112/104/485 132/104/485 133/103/485
f 108/102/486 114/102/486 117/101/486
f 108/102/487 109/99/487 115/99/487
f 111/101/488 117/101/488 118/104/488
f 110/100/489 113/103/489 119/103/489
f 114/102/490 115/99/490 121/99/490
f 117/101/96 123/101/96 124/104/96
f 119/103/491 125/103/491 122/100/491
f 115/99/492 116/100/492 122/100/492
f 119/103/99 118/104/99 124/104/99
f 117/101/493 114/102/493 120/102/493
f 124/104/494 130/104/494 131/103/494
f 123/101/495 120/102/495 126/102/495
f 121/99/496 127/99/496 126/102/496
f 124/104/497 123/101/497 129/101/497
f 125/103/498 131/103/498 128/100/498
f 121/99/499 122/100/499 128/100/499
f 132/104/500 136/104/500 137/103/500
f 118/104/501 134/104/501 132/104/501
f 119/103/502 135/103/502 134/104/502
f 119/103/503 113/103/503 133/103/503
f 139/103/504 137/103/504 141/103/504
f 135/103/112 133/103/112 137/103/112
f 135/103/113 139/103/113 138/104/113
f 134/104/114 138/104/114 136/104/114
f 141/103/505 140/104/505 142/104/505
f 139/103/506 143/103/506 142/104/506
f 138/104/507 142/104/507 140/104/507
f 136/104/508 140/104/508 141/103/508
f 94/98/509 93/96/509 146/96/509
f 91/97/510 144/97/510 145/82/510
f 94/98/511 147/98/511 148/85/511
f 92/82/512 145/82/512 146/96/512
f 128/100/513 131/103/513 130/104/513
f 127/99/514 130/104/514 129/101/514
f 89/103/515 152/107/515 149/110/515
f 88/104/516 87/101/516 154/108/516
f 74/102/517 76/99/517 150/105/517
f 87/101/518 74/102/518 153/109/518
f 88/104/519 151/106/519 152/107/519
f 78/100/520 149/110/520 150/105/520
f 102/102/521 156/112/521 157/115/521
f 106/104/522 158/113/522 159/107/522
f 103/99/523 104/100/523 160/114/523
f 104/100/524 107/103/524 159/107/524
f 106/104/525 105/101/525 157/115/525
f 103/99/526 155/111/526 156/112/526
f 162/97/527 164/64/527 163/65/527
f 163/65/528 164/64/528 166/66/528
f 165/67/529 166/66/529 168/68/529
f 168/68/530 170/74/530 169/70/530
f 170/74/531 168/68/531 175/68/531
f 368/74/532 367/70/532 369/75/532
f 170/74/533 415/116/533 171/75/533
f 190/67/534 186/67/534 185/65/534
f 177/76/535 176/74/535 182/74/535
f 164/64/536 173/64/536 174/66/536
f 164/64/537 162/97/537 172/97/537
f 166/66/538 174/66/538 175/68/538
f 180/73/539 179/125/539 182/71/539
f 179/125/540 178/132/540 182/71/540
f 178/132/541 183/124/541 182/71/541
f 174/66/542 180/66/542 181/68/542
f 173/64/543 172/97/543 178/97/543
f 177/76/544 183/76/544 178/118/544
f 175/68/545 181/68/545 182/74/545
f 173/64/546 179/64/546 180/66/546
f 188/70/547 189/75/547 210/75/547
f 192/75/548 189/75/548 188/70/548
f 191/117/549 185/65/549 184/63/549
f 190/67/158 195/119/158 187/69/158
f 192/75/550 194/122/550 184/77/550
f 193/70/551 188/70/551 187/69/551
f 221/70/552 193/70/552 195/119/552
f 218/121/553 222/77/553 194/122/553
f 217/67/554 219/120/554 195/119/554
f 222/63/555 220/123/555 191/117/555
f 218/121/556 192/75/556 193/70/556
f 220/123/557 217/67/557 190/67/557
f 182/116/558 181/116/558 197/116/558
f 181/116/559 180/116/559 198/116/559
f 199/116/560 179/116/560 178/116/560
f 199/116/561 204/116/561 201/116/561
f 198/116/562 180/116/562 202/116/562
f 179/125/563 201/125/563 202/73/563
f 210/79/564 205/137/564 206/80/564
f 206/80/565 207/131/565 208/126/565
f 208/126/566 209/78/566 210/79/566
f 187/69/567 208/69/567 207/67/567
f 185/65/568 206/65/568 205/63/568
f 189/75/569 184/77/569 205/77/569
f 187/69/570 188/70/570 209/70/570
f 186/67/571 207/67/571 206/65/571
f 163/65/572 165/67/572 214/67/572
f 171/75/573 215/121/573 212/127/573
f 161/63/574 163/65/574 211/123/574
f 165/67/575 167/69/575 216/69/575
f 161/77/576 213/77/576 215/121/576
f 169/70/577 212/127/577 216/69/577
f 211/123/578 214/67/578 217/67/578
f 215/121/579 218/121/579 221/70/579
f 213/63/580 211/123/580 220/123/580
f 214/67/581 216/69/581 219/120/581
f 215/121/582 213/77/582 222/77/582
f 212/127/583 221/70/583 219/120/583
f 204/116/584 71/116/584 73/116/584
f 203/116/585 202/116/585 77/116/585
f 77/73/586 202/73/586 75/128/586
f 202/73/587 201/125/587 75/128/587
f 145/82/588 224/82/588 225/96/588
f 146/96/197 225/96/197 226/98/197
f 145/82/589 144/97/589 223/97/589
f 147/98/590 226/98/590 227/85/590
f 248/2/591 249/5/591 26/1/591
f 26/1/592 249/5/592 250/4/592
f 250/4/593 233/129/593 7/6/593
f 250/4/594 234/9/594 231/8/594
f 249/5/595 235/10/595 234/9/595
f 248/2/596 236/11/596 235/10/596
f 230/12/597 236/11/597 248/2/597
f 232/13/598 248/2/598 25/3/598
f 251/15/599 254/17/599 255/16/599
f 252/18/600 255/16/600 256/19/600
f 254/17/601 257/21/601 258/20/601
f 255/16/602 258/20/602 259/22/602
f 230/12/603 239/23/603 251/15/603
f 236/11/604 251/15/604 252/18/604
f 235/10/605 252/18/605 253/24/605
f 253/24/606 240/59/606 231/8/606
f 253/24/607 256/19/607 241/25/607
f 256/19/608 259/22/608 242/26/608
f 259/22/609 243/28/609 229/27/609
f 258/20/610 244/29/610 243/28/610
f 257/21/611 245/30/611 244/29/611
f 228/31/612 245/30/612 257/21/612
f 238/33/613 237/32/613 257/21/613
f 239/23/614 238/33/614 254/17/614
f 261/37/615 260/39/615 44/34/615
f 260/39/616 43/36/616 44/34/616
f 261/37/617 44/34/617 45/38/617
f 228/31/618 246/40/618 260/39/618
f 245/30/619 260/39/619 261/37/619
f 244/29/620 261/37/620 262/41/620
f 262/41/621 247/42/621 229/27/621
f 45/38/622 24/133/622 247/42/622
f 246/40/623 21/43/623 43/36/623
f 46/44/624 48/46/624 264/45/624
f 48/46/625 50/48/625 265/47/625
f 6/49/626 46/44/626 263/50/626
f 232/51/627 263/50/627 239/23/627
f 263/50/628 264/45/628 238/33/628
f 264/45/629 265/47/629 237/32/629
f 265/47/630 246/52/630 228/31/630
f 21/53/631 246/52/631 265/47/631
f 266/54/632 267/56/632 55/55/632
f 267/56/633 268/58/633 57/57/633
f 231/8/634 240/59/634 266/54/634
f 233/60/635 266/54/635 53/61/635
f 247/62/636 24/134/636 57/57/636
f 229/27/637 247/62/637 268/58/637
f 241/25/638 242/26/638 268/58/638
f 240/59/639 241/25/639 267/56/639
f 269/63/247 271/65/247 272/64/247
f 271/65/248 273/67/248 274/66/248
f 273/67/249 275/69/249 276/68/249
f 277/70/250 278/74/250 276/68/250
f 270/135/251 272/125/251 280/124/251
f 272/125/251 274/73/251 280/124/251
f 274/73/251 276/72/251 278/71/251
f 279/75/252 280/76/252 278/74/252
f 269/77/253 270/118/253 280/76/253
f 271/80/254 269/136/254 279/79/254
f 279/79/254 277/78/254 271/80/254
f 277/78/254 275/126/254 273/131/254
f 86/81/640 299/83/640 297/82/640
f 300/84/641 90/86/641 80/85/641
f 79/88/642 85/92/642 289/87/642
f 283/89/643 285/8/643 289/87/643
f 283/89/644 288/94/644 287/90/644
f 71/63/645 281/91/645 287/90/645
f 85/92/646 90/86/646 300/84/646
f 289/87/647 300/84/647 301/93/647
f 288/94/648 301/93/648 299/83/648
f 81/95/649 287/90/649 299/83/649
f 294/96/650 293/82/650 297/82/650
f 293/82/651 91/97/651 72/97/651
f 298/98/652 295/98/652 294/96/652
f 80/85/653 95/85/653 295/98/653
f 284/99/654 296/96/654 297/82/654
f 286/100/655 298/98/655 296/96/655
f 297/82/656 299/83/656 290/101/656
f 300/84/657 298/98/657 286/100/657
f 301/93/658 300/84/658 292/103/658
f 290/101/659 299/83/659 301/93/659
f 348/105/660 303/99/660 304/100/660
f 307/103/661 306/104/661 349/106/661
f 352/108/662 305/101/662 302/102/662
f 302/102/663 303/99/663 348/105/663
f 349/106/664 306/104/664 305/101/664
f 304/100/665 307/103/665 350/107/665
f 308/102/666 309/99/666 353/111/666
f 356/113/667 312/104/667 311/101/667
f 358/114/668 310/100/668 313/103/668
f 353/111/669 309/99/669 310/100/669
f 313/103/670 312/104/670 356/113/670
f 311/101/671 308/102/671 354/112/671
f 315/99/672 316/100/672 310/100/672
f 333/103/673 332/104/673 312/104/673
f 317/101/674 314/102/674 308/102/674
f 308/102/675 314/102/675 315/99/675
f 318/104/676 317/101/676 311/101/676
f 310/100/677 316/100/677 319/103/677
f 314/102/678 320/102/678 321/99/678
f 324/104/294 323/101/294 317/101/294
f 322/100/679 325/103/679 319/103/679
f 315/99/680 321/99/680 322/100/680
f 319/103/297 325/103/297 324/104/297
f 317/101/681 323/101/681 320/102/681
f 331/103/682 330/104/682 324/104/682
f 323/101/683 329/101/683 326/102/683
f 326/102/684 327/99/684 321/99/684
f 324/104/685 330/104/685 329/101/685
f 328/100/686 331/103/686 325/103/686
f 321/99/687 327/99/687 328/100/687
f 337/103/305 336/104/305 332/104/305
f 332/104/688 334/104/688 318/104/688
f 334/104/689 335/103/689 319/103/689
f 319/103/690 335/103/690 333/103/690
f 339/103/691 343/103/691 341/103/691
f 335/103/310 339/103/310 337/103/310
f 338/104/311 339/103/311 335/103/311
f 336/104/312 338/104/312 334/104/312
f 341/103/692 343/103/692 342/104/692
f 342/104/693 343/103/693 339/103/693
f 340/104/694 342/104/694 338/104/694
f 341/103/695 340/104/695 336/104/695
f 295/98/696 346/98/696 345/96/696
f 344/82/697 144/97/697 91/97/697
f 148/85/698 346/98/698 295/98/698
f 345/96/699 344/82/699 293/82/699
f 328/100/700 327/99/700 330/104/700
f 327/99/701 326/102/701 329/101/701
f 347/110/702 350/107/702 292/103/702
f 291/104/703 349/106/703 352/108/703
f 282/102/704 351/109/704 348/105/704
f 290/101/705 352/108/705 351/109/705
f 350/107/706 349/106/706 291/104/706
f 348/105/707 347/110/707 286/100/707
f 355/115/708 354/112/708 302/102/708
f 357/107/709 356/113/709 306/104/709
f 303/99/710 353/111/710 358/114/710
f 304/100/711 358/114/711 357/107/711
f 306/104/712 356/113/712 355/115/712
f 354/112/713 353/111/713 303/99/713
f 361/65/714 362/64/714 360/97/714
f 361/65/715 363/67/715 364/66/715
f 363/67/716 365/69/716 366/68/716
f 367/70/717 368/74/717 366/68/717
f 368/74/718 374/74/718 373/68/718
f 416/116/719 369/75/719 359/63/719
f 162/97/720 161/63/720 171/75/720
f 381/65/721 382/67/721 386/67/721
f 177/76/722 183/76/722 379/74/722
f 372/66/723 371/64/723 362/64/723
f 362/64/724 371/64/724 370/97/724
f 373/68/725 372/66/725 364/66/725
f 375/132/726 376/125/726 379/71/726
f 376/125/727 377/73/727 379/71/727
f 377/73/728 378/72/728 379/71/728
f 378/68/729 377/66/729 372/66/729
f 371/64/730 376/64/730 375/97/730
f 375/118/731 183/76/731 177/76/731
f 379/74/732 378/68/732 373/68/732
f 377/66/733 376/64/733 371/64/733
f 384/70/734 398/70/734 399/75/734
f 384/70/735 385/75/735 388/75/735
f 380/63/736 381/65/736 387/117/736
f 386/67/737 382/67/737 383/69/737
f 388/75/738 385/75/738 380/77/738
f 383/69/739 384/70/739 389/70/739
f 391/119/740 389/70/740 410/70/740
f 407/121/741 388/75/741 390/122/741
f 406/67/742 386/67/742 391/119/742
f 411/63/743 390/63/743 387/117/743
f 389/70/744 388/75/744 407/121/744
f 409/123/745 387/117/745 386/67/745
f 197/116/746 378/116/746 379/116/746
f 198/116/747 377/116/747 378/116/747
f 199/116/748 200/116/748 375/116/748
f 392/116/749 204/116/749 199/116/749
f 198/116/750 203/116/750 393/116/750
f 393/73/751 392/125/751 376/125/751
f 395/80/752 394/137/752 399/79/752
f 399/79/373 398/78/373 397/126/373
f 397/126/373 396/131/373 395/80/373
f 396/67/753 397/69/753 383/69/753
f 394/63/754 395/65/754 381/65/754
f 385/75/755 399/75/755 394/77/755
f 383/69/756 397/69/756 398/70/756
f 395/65/757 396/67/757 382/67/757
f 361/65/758 400/123/758 403/67/758
f 401/127/759 404/121/759 369/75/759
f 359/63/760 402/63/760 400/123/760
f 363/67/761 403/67/761 405/69/761
f 404/121/762 402/77/762 359/77/762
f 405/69/763 401/127/763 367/70/763
f 400/123/764 409/123/764 406/67/764
f 410/70/765 407/121/765 404/121/765
f 402/63/766 411/63/766 409/123/766
f 403/67/767 406/67/767 408/120/767
f 404/121/768 407/121/768 411/77/768
f 408/120/769 410/70/769 401/127/769
f 281/116/770 71/116/770 204/116/770
f 203/116/771 79/116/771 285/116/771
f 392/125/772 393/73/772 283/128/772
f 393/73/773 285/73/773 283/128/773
f 413/96/774 412/82/774 344/82/774
f 414/98/395 413/96/395 345/96/395
f 344/82/775 412/82/775 223/97/775
f 227/85/776 414/98/776 346/98/776
f 415/116/777 170/74/777 176/74/777
f 416/116/778 177/76/778 374/74/778
f 172/118/779 162/97/779 415/116/779
f 416/116/780 360/97/780 370/118/780
