# Blender 5.0.0
# www.blender.org
o body
v 0.496492 -0.836496 9.718102
v 0.583336 -0.739346 10.989038
v 0.476577 0.278155 9.785359
v 0.565221 0.486406 11.024752
v 0.246627 0.341088 9.689471
v -0.000000 0.369678 9.634789
v -0.000000 0.658669 11.158397
v 0.340386 0.599495 11.113882
v 0.631619 0.554538 10.783418
v 0.646511 0.545035 10.424527
v 0.576865 0.424383 10.052748
v 0.562963 -0.631520 9.632005
v 0.591550 -0.317049 9.603302
v 0.550611 0.022595 9.674398
v 0.654626 0.225672 11.104086
v 0.703310 -0.145583 11.136981
v 0.665741 -0.502555 11.083137
v 0.654036 -0.830154 10.736136
v 0.671875 -0.892060 10.363460
v 0.600616 -0.885222 9.983965
v -0.000000 -0.970373 9.552207
v 0.267098 -0.925011 9.611267
v 0.358752 -0.817453 11.076843
v -0.000000 -0.856364 11.122030
v -0.000000 0.674132 10.006028
v -0.000000 0.858995 10.424724
v -0.000000 0.860968 10.830418
v 0.290903 0.614872 10.031980
v 0.337850 0.778809 10.427999
v 0.344425 0.778265 10.810741
v 0.749642 0.108478 10.012432
v 0.841644 0.194318 10.409855
v 0.811618 0.221480 10.795549
v 0.812126 -0.260919 9.969276
v 0.912852 -0.205322 10.390068
v 0.878665 -0.167071 10.801288
v 0.764291 -0.610047 9.971958
v 0.857600 -0.587271 10.373783
v 0.825386 -0.539852 10.767917
v 0.317045 -1.052687 9.947906
v 0.365526 -1.074154 10.232168
v 0.369003 -0.996871 10.755593
v -0.000000 -1.112858 9.970087
v -0.000000 -1.133464 10.227240
v -0.000000 -1.050112 10.775191
v -0.000000 0.004889 9.368612
v 0.255090 0.002209 9.454111
v -0.000000 -0.369841 9.253200
v 0.272938 -0.355472 9.352348
v -0.000000 -0.709899 9.319095
v 0.266506 -0.681006 9.406780
v 0.373244 0.271110 11.290693
v -0.000000 0.302962 11.354549
v 0.399412 -0.129139 11.343318
v -0.000000 -0.120306 11.413048
v 0.383312 -0.515705 11.271659
v -0.000000 -0.530811 11.336226
v -0.000000 -1.256591 10.038348
v 0.899103 0.129189 10.399199
v 0.964296 0.059744 10.420284
v 0.972883 0.157159 10.216840
v 1.038076 0.087714 10.237926
v 0.910948 0.053346 9.973699
v 0.976141 -0.016099 9.994784
v 0.775233 -0.078438 9.912913
v 0.840426 -0.147883 9.933999
v 0.701452 -0.106409 10.095272
v 0.766645 -0.175854 10.116358
v 0.763387 -0.002595 10.338414
v 0.828580 -0.072040 10.359500
v 0.000000 0.608116 6.781860
v -0.000045 0.614697 8.930308
v 0.504716 0.474076 6.596243
v 0.828603 0.170690 8.510567
v 0.598099 0.170519 6.553941
v 0.958572 0.093871 8.852004
v 0.495931 -0.139167 6.505233
v 0.866807 -0.238242 8.881078
v -0.000000 -0.261991 6.642955
v 0.000046 -0.515750 8.616724
v -0.000000 0.657830 7.414919
v 0.570473 0.440670 7.424061
v 0.767003 0.007116 7.449487
v 0.571976 -0.313812 7.454030
v -0.000000 -0.421472 7.414919
v 0.000174 0.701882 8.505254
v 0.703747 0.098836 8.088424
v 0.718558 -0.214225 8.070547
v 0.697318 -0.456584 8.314260
v 0.000477 -0.481517 8.288843
v -0.000000 0.515979 9.101195
v 0.439945 0.411915 9.043650
v 0.633971 0.104266 9.051798
v 0.435110 -0.197693 9.065633
v -0.000000 -0.334730 8.893578
v 0.958142 0.100723 8.860873
v 0.710218 0.371367 8.693151
v 0.738425 -0.247388 8.976263
v 0.614287 0.338938 7.978867
v 0.622165 -0.406987 8.295888
v 0.716525 -0.184486 8.050672
v 1.568440 -0.575989 7.011464
v 1.659582 -0.711572 7.095830
v 1.563794 -0.896918 7.214643
v 1.164474 -0.652226 6.873370
v 1.097276 -0.817444 6.900698
v 1.161230 -0.976463 7.070934
v 1.945185 -1.488580 5.867664
v 2.010603 -1.602450 5.955926
v 1.943154 -1.718374 6.066870
v 1.639176 -1.537657 5.808282
v 1.585649 -1.672889 5.865247
v 1.637695 -1.769692 6.004706
v 1.971247 -1.486144 5.761930
v 2.060306 -1.602763 5.938025
v 1.988831 -1.834845 6.087250
v 1.817263 -1.588744 5.649606
v 1.787554 -1.740175 5.763320
v 1.816068 -1.983420 5.976528
v 2.245010 -1.701140 5.393102
v 2.301642 -1.909251 5.559134
v 2.243384 -2.150483 5.768285
v 2.084432 -1.867083 5.305515
v 2.054722 -2.018513 5.419229
v 2.083236 -2.261758 5.632438
v 2.184870 -2.134559 4.997249
v 2.196077 -2.298504 5.082786
v 2.184935 -2.445963 5.257889
v 2.094473 -2.152930 5.091333
v 2.068183 -2.248326 5.142108
v 2.093803 -2.409868 5.303471
v 1.576284 -1.846146 5.730462
v 1.607772 -1.922230 5.858213
v 1.771216 -1.870963 5.683737
v 1.791621 -2.075179 5.871174
v 1.629030 -2.020360 5.597242
v 1.654831 -2.082702 5.701921
v 1.788756 -2.040694 5.558956
v 1.805475 -2.208028 5.712541
v 1.704786 -2.203511 5.457529
v 1.715627 -2.245771 5.534852
v 1.822592 -2.200707 5.451621
v 1.831814 -2.318420 5.563062
v -0.000000 0.404502 9.231737
v 0.158780 0.287954 9.203341
v 0.252719 0.101461 9.139821
v 0.182110 -0.006843 9.139821
v -0.000000 -0.116119 9.101793
v 1.513457 -0.865721 7.320263
v 1.609217 -0.659373 7.225171
v 1.078577 -0.786455 6.953511
v 1.131938 -0.958647 7.128163
v 1.519666 -0.517935 7.136438
v 1.135870 -0.609720 6.947737
v 1.698689 -0.769961 6.988770
v 1.610076 -0.642678 6.896428
v 1.199385 -0.713288 6.799759
v 1.127147 -0.869258 6.849072
v 1.197585 -1.005124 7.031200
v 1.606352 -0.934741 7.129025
v 0.508211 1.253144 4.064968
v 0.519509 0.937150 5.391181
v 0.863355 1.079154 3.962253
v 1.026829 0.695474 5.523356
v 0.863355 0.837664 3.860492
v 1.028275 0.259788 5.270822
v 0.508191 0.649723 3.767039
v 0.513592 0.065464 5.067619
v 0.152952 0.832690 3.858608
v 0.144936 0.219059 5.250093
v 0.153066 1.059981 3.983720
v 0.512164 0.920546 5.659835
v 1.018175 0.604565 5.693102
v 1.020134 0.164521 5.447901
v 0.515757 -0.001262 5.180883
v 0.136937 0.144456 5.351680
v 0.000000 0.728966 5.479865
v 0.418974 0.884458 5.800090
v 0.879472 0.475226 6.061802
v 0.876436 -0.038630 5.898703
v 0.449171 -0.167016 5.517006
v 0.134332 0.061115 5.493381
v 0.000000 0.802530 5.603644
v 0.430883 3.100601 2.990499
v 0.691278 3.036730 2.854403
v 0.691278 2.908989 2.582209
v 0.430883 2.845140 2.445989
v 0.170489 2.909059 2.581452
v 0.170489 3.036730 2.854403
v 0.822906 1.339332 3.416456
v 0.822906 1.455133 3.634617
v 0.152560 1.433799 3.598233
v 0.152560 1.316266 3.379208
v 0.487733 1.531330 3.841333
v 0.487733 0.909779 3.391731
v -0.000000 -0.019122 5.618258
v -0.000000 -0.202164 5.719621
v -0.000000 -0.266045 5.966231
v 0.000000 0.812422 6.184586
v 0.000000 0.832450 5.861609
v 0.713104 0.433006 6.359201
v 0.709689 -0.104314 6.243140
v -0.000000 -0.232656 6.307541
v 0.000000 0.628045 6.532857
v 0.430883 4.464983 2.077838
v 0.625711 4.471830 1.971407
v 0.625711 4.533827 1.725486
v 0.430883 4.560981 1.617342
v 0.236055 4.516002 1.734324
v 0.236056 4.472538 1.969928
v 0.856043 1.062671 3.856607
v 0.152881 0.868727 3.705282
v 0.504509 1.219904 4.009021
v 0.856043 0.887075 3.726979
v 0.152975 1.062203 3.874074
v 0.504493 0.681890 3.678359
v 0.847217 0.973246 3.584593
v 0.152864 1.123212 3.783011
v 0.500029 0.730212 3.575126
v 0.847217 1.129051 3.781147
v 0.152796 0.962383 3.583630
v 0.500041 1.238978 3.938568
v -0.000000 0.330200 9.872639
v 0.182652 0.209765 9.872639
v 0.252719 0.101461 9.872639
v 0.182110 -0.006843 9.872639
v -0.000000 -0.127185 9.817565
v -0.496493 -0.836496 9.718102
v -0.583336 -0.739346 10.989038
v -0.476577 0.278155 9.785359
v -0.565221 0.486406 11.024752
v -0.246627 0.341088 9.689471
v -0.340386 0.599495 11.113882
v -0.631619 0.554538 10.783418
v -0.646511 0.545035 10.424527
v -0.576865 0.424383 10.052748
v -0.562963 -0.631520 9.632005
v -0.591550 -0.317049 9.603302
v -0.550611 0.022595 9.674398
v -0.654626 0.225672 11.104086
v -0.703310 -0.145583 11.136981
v -0.665741 -0.502555 11.083137
v -0.654036 -0.830154 10.736136
v -0.671875 -0.892060 10.363460
v -0.600616 -0.885222 9.983965
v -0.267098 -0.925011 9.611267
v -0.358752 -0.817453 11.076843
v -0.290903 0.614872 10.031980
v -0.337850 0.778809 10.427999
v -0.344425 0.778265 10.810741
v -0.749642 0.108478 10.012432
v -0.841644 0.194318 10.409855
v -0.811618 0.221480 10.795549
v -0.812126 -0.260919 9.969276
v -0.912852 -0.205322 10.390068
v -0.878665 -0.167071 10.801288
v -0.764291 -0.610047 9.971958
v -0.857600 -0.587271 10.373783
v -0.825386 -0.539852 10.767917
v -0.317045 -1.052687 9.947906
v -0.365526 -1.074154 10.232168
v -0.369003 -0.996871 10.755593
v -0.255090 0.002209 9.454111
v -0.272938 -0.355472 9.352348
v -0.266506 -0.681006 9.406780
v -0.373244 0.271110 11.290693
v -0.399412 -0.129139 11.343318
v -0.383312 -0.515705 11.271659
v -0.899103 0.129189 10.399199
v -0.964296 0.059744 10.420284
v -0.972883 0.157159 10.216840
v -1.038076 0.087714 10.237926
v -0.910948 0.053346 9.973699
v -0.976141 -0.016099 9.994784
v -0.775233 -0.078438 9.912913
v -0.840426 -0.147883 9.933999
v -0.701452 -0.106409 10.095272
v -0.766645 -0.175854 10.116358
v -0.763387 -0.002595 10.338414
v -0.828580 -0.072040 10.359500
v -0.504526 0.476275 6.662041
v -0.822573 0.504271 8.739976
v -0.598793 0.169840 6.619338
v -0.956852 0.169301 8.817970
v -0.495657 -0.118902 6.580503
v -0.863596 -0.028381 8.555884
v -0.567895 0.580180 7.484017
v -0.761846 0.298500 7.487471
v -0.569711 -0.167475 7.433046
v -0.689933 0.808384 8.445139
v -0.701952 0.670930 8.172446
v -0.684200 0.313046 8.084733
v -0.440480 0.371416 9.073710
v -0.634109 0.086638 9.043190
v -0.435366 -0.214081 9.031885
v -0.956583 0.163993 8.828864
v -0.708789 0.430945 8.859212
v -0.738411 -0.237078 8.836729
v -0.607109 0.699257 8.194771
v -0.616809 -0.119448 8.148653
v -0.701480 0.617122 8.142122
v -1.529451 1.615232 7.478839
v -1.620362 1.482456 7.392555
v -1.524707 1.298598 7.272449
v -1.125354 1.709213 7.351579
v -1.058579 1.617189 7.210290
v -1.122022 1.397295 7.138268
v -1.961278 2.213066 6.167118
v -2.026765 2.081333 6.108860
v -1.958799 1.930824 6.053864
v -1.658899 2.248736 6.084223
v -1.607191 2.137124 5.987959
v -1.657126 1.967932 5.967729
v -1.990816 2.307708 6.122005
v -2.077033 2.096230 6.102375
v -2.006924 1.858584 5.961493
v -1.843568 2.363269 5.973393
v -1.814182 2.193381 5.889611
v -1.842115 1.892000 5.772015
v -2.282634 2.532315 5.773295
v -2.339291 2.288460 5.666480
v -2.280614 1.993127 5.545374
v -2.129690 2.537003 5.579439
v -2.100305 2.367115 5.495656
v -2.128237 2.065734 5.378061
v -2.247734 2.686786 5.204886
v -2.260520 2.535498 5.098732
v -2.247505 2.312537 5.047269
v -2.154749 2.596330 5.227963
v -2.129375 2.507982 5.165350
v -2.153935 2.290143 5.096552
v -1.607112 2.177767 5.772040
v -1.636337 2.028829 5.764056
v -1.804114 2.204525 5.736377
v -1.823749 1.944062 5.641366
v -1.669058 2.215494 5.558454
v -1.693004 2.093455 5.551911
v -1.830480 2.237419 5.529232
v -1.846569 2.023997 5.451380
v -1.754456 2.254499 5.334872
v -1.763830 2.166230 5.333081
v -1.872273 2.258971 5.339341
v -1.880939 2.105859 5.286028
v -0.158780 0.287954 9.203341
v -0.252719 0.101461 9.139821
v -0.182110 -0.006843 9.139821
v -1.478942 1.215732 7.333091
v -1.574701 1.385221 7.484327
v -1.039762 1.580050 7.265036
v -1.094175 1.352351 7.175373
v -1.485052 1.521436 7.579692
v -1.098140 1.654638 7.425182
v -1.658740 1.550908 7.304136
v -1.570038 1.691056 7.374155
v -1.163057 1.752209 7.254581
v -1.093094 1.638896 7.134834
v -1.160846 1.415260 7.098544
v -1.565997 1.354568 7.215296
v -0.508053 -0.899730 4.238915
v -0.519458 0.355658 5.093053
v -0.866564 -1.071884 4.347715
v -1.031588 0.160596 5.411838
v -0.866564 -1.274991 4.516932
v -1.033048 -0.271775 5.685881
v -0.508034 -1.446211 4.642259
v -0.513485 -0.547037 5.742986
v -0.149427 -1.279601 4.520888
v -0.141336 -0.233840 5.543760
v -0.149542 -1.058466 4.364534
v -0.512044 0.612183 5.342409
v -1.022851 0.313629 5.576975
v -1.024829 -0.143844 5.819016
v -0.515671 -0.462193 5.791509
v -0.133260 -0.146437 5.582465
v -0.417970 0.749612 5.554197
v -0.882834 0.492268 6.097598
v -0.879769 0.025167 6.113869
v -0.448454 -0.310851 5.917126
v -0.130631 -0.050350 5.631707
v -0.429993 -1.028923 2.096637
v -0.658826 -1.160836 2.089295
v -0.658826 -1.424660 2.074609
v -0.429993 -1.556573 2.067267
v -0.201160 -1.424660 2.074609
v -0.201160 -1.160836 2.089295
v -0.825732 -1.455501 3.867939
v -0.825732 -1.204846 3.869490
v -0.149032 -1.247397 3.871020
v -0.149032 -1.499045 3.870246
v -0.487382 -0.984162 3.900740
v -0.487382 -1.680172 4.237123
v -0.714889 0.439709 6.419949
v -0.711441 -0.043235 6.349473
v -0.429993 -1.115228 0.455100
v -0.608103 -1.218612 0.441279
v -0.608103 -1.424016 0.451600
v -0.429993 -1.526718 0.456762
v -0.251884 -1.424016 0.451600
v -0.251884 -1.218613 0.441279
v -0.859183 -1.184014 4.317313
v -0.149356 -1.410901 4.419745
v -0.504316 -0.974599 4.249056
v -0.859183 -1.377585 4.412169
v -0.149450 -1.168811 4.326385
v -0.504300 -1.515112 4.572658
v -0.850273 -1.474480 4.271964
v -0.149339 -1.227032 4.232916
v -0.499794 -1.590885 4.481942
v -0.850273 -1.226510 4.226217
v -0.149269 -1.481375 4.280814
v -0.499806 -1.033423 4.203334
v -0.182652 0.209765 9.872639
v -0.252719 0.101461 9.872639
v -0.182110 -0.006843 9.872639
v 0.213411 0.613781 5.381097
v -0.199640 0.392996 5.244672
vn 0.2171 0.8930 -0.3943
vn 0.2309 0.9730 -0.0026
vn 0.2282 0.8287 0.5111
vn 0.5934 0.7171 0.3657
vn 0.6038 0.7971 0.0039
vn 0.5368 0.7678 -0.3497
vn 0.4335 0.6757 -0.5962
vn 0.2244 0.7535 -0.6180
vn 0.9488 0.1900 -0.2522
vn 0.9829 0.1719 0.0657
vn 0.9669 -0.1341 -0.2169
vn 0.9843 -0.1466 0.0981
vn 0.7198 0.4412 -0.5359
vn 0.8218 0.4872 -0.2955
vn 0.8739 0.4848 0.0339
vn 0.8176 0.4547 0.3533
vn 0.8793 0.1584 0.4492
vn 0.8717 -0.1659 0.4611
vn 0.7717 -0.4987 0.3948
vn 0.8452 -0.5193 0.1267
vn 0.8441 -0.5094 -0.1677
vn 0.7852 -0.4383 -0.4373
vn 0.8572 -0.1236 -0.4999
vn 0.8229 0.2097 -0.5281
vn 1.0000 -0.0000 -0.0000
vn 0.1564 -0.9765 0.1485
vn 0.4800 -0.7943 -0.3725
vn 0.5169 -0.8425 -0.1518
vn 0.4664 -0.8756 0.1262
vn 0.4808 -0.7739 0.4123
vn 0.1500 -0.8611 0.4857
vn 0.2261 -0.9220 -0.3144
vn 0.3148 0.2794 -0.9071
vn 0.3250 -0.1799 -0.9284
vn 0.2669 0.5681 -0.7785
vn 0.4934 0.5045 -0.7086
vn 0.5804 0.2495 -0.7751
vn 0.6137 -0.1420 -0.7766
vn 0.5175 -0.5489 -0.6564
vn 0.3026 -0.6356 -0.7102
vn 0.1733 0.1395 0.9749
vn 0.1703 -0.1865 0.9676
vn 0.5492 0.4099 0.7283
vn 0.1876 0.4801 0.8569
vn 0.1601 -0.5446 0.8233
vn 0.5064 -0.4648 0.7263
vn 0.5518 -0.1809 0.8141
vn 0.5611 0.1458 0.8148
vn 0.6237 0.6944 0.3588
vn 0.7220 0.5506 -0.4190
vn 0.3616 0.0569 -0.9306
vn -0.6237 -0.6944 -0.3589
vn 0.6532 -0.7421 0.1505
vn -0.7220 -0.5506 0.4190
vn -0.3616 -0.0569 0.9306
vn -0.6532 0.7421 -0.1505
vn 0.4415 0.8917 -0.0998
vn 0.1195 -0.9875 -0.1029
vn 0.1853 -0.9637 -0.1922
vn 0.9475 -0.2922 -0.1297
vn 0.9514 0.3015 -0.0634
vn 0.2628 0.9647 0.0181
vn 0.1915 -0.9742 -0.1192
vn 0.8502 -0.5180 -0.0937
vn 0.9107 0.4130 0.0038
vn 0.3502 0.9258 0.1421
vn 0.3640 0.7083 0.6049
vn 0.3725 0.9100 0.1820
vn 0.2610 -0.1280 0.9568
vn 0.0471 -0.8360 0.5466
vn 0.7886 0.5045 -0.3516
vn 0.5969 -0.1135 0.7942
vn 0.6662 0.6772 -0.3123
vn -0.5673 -0.6973 0.4382
vn -0.8586 -0.3241 -0.3971
vn 0.8695 0.1036 -0.4830
vn 0.8871 -0.1883 0.4214
vn -0.8174 -0.5150 -0.2580
vn 0.0051 0.8690 -0.4947
vn 0.8254 0.5612 0.0615
vn -0.8474 0.2689 -0.4578
vn 0.0724 -0.9466 0.3141
vn 0.8559 0.4999 -0.1323
vn -0.8553 0.1270 -0.5023
vn 0.0135 -0.8026 0.5964
vn 0.9066 -0.1499 0.3946
vn -0.8772 -0.4798 -0.0187
vn 0.0166 0.7724 -0.6349
vn 0.2808 0.5733 0.7697
vn -0.9522 -0.0927 0.2910
vn -0.0741 0.9220 -0.3800
vn 0.6376 0.7503 0.1745
vn -0.4882 -0.1675 -0.8565
vn -0.5087 -0.0491 0.8596
vn 0.8147 0.4806 0.3245
vn -0.8463 -0.2037 -0.4923
vn 0.0996 -0.6664 0.7389
vn 0.8864 0.1619 0.4336
vn -0.8522 -0.3978 -0.3399
vn -0.2655 0.6383 -0.7225
vn -0.9945 -0.1037 0.0147
vn -0.6951 0.4153 -0.5868
vn 0.9694 0.0781 -0.2328
vn -0.9681 0.1677 -0.1861
vn 0.1937 -0.8585 0.4748
vn 0.9824 -0.1689 -0.0797
vn -0.9466 -0.3195 0.0430
vn -0.1859 0.6096 -0.7706
vn 0.9866 -0.0254 -0.1609
vn -0.5248 -0.5778 0.6251
vn -0.5513 -0.7146 0.4306
vn -0.5762 -0.6507 0.4946
vn 0.9949 0.1013 0.0021
vn -0.1193 0.5801 -0.8058
vn -0.2542 -0.6753 -0.6923
vn 0.9844 0.1618 0.0691
vn -0.1223 0.5695 -0.8129
vn -0.9321 -0.3620 0.0141
vn 0.1914 -0.1248 0.9736
vn 0.2317 0.5275 0.8174
vn -0.0690 -0.6880 0.7224
vn 0.2207 0.1647 0.9613
vn -0.5155 -0.6390 -0.5709
vn -0.6227 -0.3950 -0.6754
vn -0.0219 -0.9307 0.3651
vn -0.8685 0.2679 -0.4171
vn 0.8056 0.5814 0.1138
vn 0.0478 0.8565 -0.5139
vn -0.9454 -0.1862 -0.2676
vn 0.8733 -0.2025 0.4431
vn 0.0639 0.7828 -0.6190
vn -0.7598 -0.5924 -0.2679
vn 0.8984 -0.1531 0.4116
vn 0.0537 -0.9033 0.4257
vn -0.7732 0.1645 -0.6125
vn 0.8347 0.5505 -0.0170
vn 0.4771 0.8558 0.1999
vn 0.9942 0.0418 -0.0991
vn 0.5085 -0.7846 -0.3546
vn -0.4987 -0.7914 -0.3535
vn -0.5027 -0.6774 -0.5371
vn 0.9963 0.0670 -0.0538
vn -1.0000 0.0030 -0.0045
vn 0.9972 0.0658 -0.0349
vn -0.9743 -0.1936 0.1151
vn 0.9992 -0.0178 0.0364
vn 0.4552 0.7751 0.4383
vn 0.4662 -0.7583 -0.4556
vn -0.4548 -0.5556 0.6960
vn 0.4456 -0.8348 -0.3234
vn 0.4433 0.7806 0.4406
vn -0.3524 0.9358 0.0066
vn -0.4898 -0.7475 -0.4487
vn 0.9601 -0.1329 0.2462
vn -0.9989 0.0451 0.0083
vn -0.9999 0.0089 -0.0048
vn 0.5441 0.4151 0.7292
vn 0.5002 -0.3733 -0.7813
vn -0.5000 0.3691 0.7834
vn -0.4570 -0.4013 -0.7938
vn -0.4512 -0.6526 -0.6087
vn -0.6112 0.4042 0.6805
vn 0.4906 -0.3366 -0.8037
vn 0.5493 0.2845 0.7857
vn -1.0000 -0.0003 0.0006
vn 0.9977 0.0601 -0.0319
vn 0.1389 -0.9837 0.1141
vn -0.4641 -0.4291 -0.7749
vn -0.0373 -0.9674 -0.2506
vn -0.6766 -0.0131 -0.7362
vn -0.1141 0.9916 0.0615
vn 0.3777 0.8636 0.3339
vn 0.1855 -0.9780 0.0957
vn 0.9017 -0.1357 0.4106
vn 0.0008 0.9698 0.2437
vn 0.5001 -0.3880 -0.7742
vn 0.4957 0.4829 0.7219
vn -0.4070 0.4925 0.7693
vn -0.4030 -0.3980 -0.8241
vn 0.9992 0.0354 -0.0166
vn 0.9953 0.0575 -0.0779
vn -1.0000 0.0002 0.0005
vn 0.1558 0.8447 -0.5121
vn 0.5100 -0.7972 -0.3230
vn -0.4809 0.8766 0.0182
vn -0.4955 -0.8230 -0.2779
vn 0.9960 0.0697 -0.0552
vn -1.0000 -0.0001 0.0006
vn 0.3833 0.8974 0.2186
vn 0.5157 -0.7185 -0.4668
vn -0.4659 0.7348 0.4929
vn -0.4591 -0.8121 -0.3603
vn 0.2814 0.9561 0.0817
vn 0.2172 -0.9724 -0.0850
vn 0.7555 0.1433 0.6393
vn 0.8931 0.4499 -0.0000
vn 0.8377 -0.5461 -0.0000
vn 0.5488 0.8323 0.0777
vn 0.5165 -0.8562 -0.0132
vn -0.2171 0.8930 -0.3943
vn -0.2332 0.9724 -0.0047
vn -0.2282 0.8287 0.5111
vn -0.5362 0.7239 0.4341
vn -0.6140 0.7893 -0.0094
vn -0.5575 0.7416 -0.3731
vn -0.4335 0.6757 -0.5962
vn -0.2244 0.7535 -0.6180
vn -0.9486 0.1818 -0.2589
vn -0.9832 0.1706 0.0645
vn -0.9679 -0.1309 -0.2144
vn -0.9842 -0.1492 0.0957
vn -0.7191 0.4598 -0.5211
vn -0.8258 0.4724 -0.3080
vn -0.8791 0.4760 0.0239
vn -0.8176 0.4547 0.3533
vn -0.8813 0.1551 0.4463
vn -0.8704 -0.1617 0.4650
vn -0.7756 -0.4470 0.4457
vn -0.8474 -0.5145 0.1312
vn -0.8444 -0.5089 -0.1672
vn -0.7852 -0.4383 -0.4373
vn -0.8583 -0.1214 -0.4987
vn -0.8209 0.2013 -0.5345
vn -0.1488 -0.9784 0.1435
vn -0.5095 -0.7887 -0.3441
vn -0.5440 -0.8308 -0.1171
vn -0.5063 -0.8464 0.1648
vn -0.4808 -0.7739 0.4123
vn -0.1500 -0.8611 0.4857
vn -0.1482 -0.9172 -0.3698
vn -0.3082 0.2745 -0.9109
vn -0.3445 -0.1614 -0.9248
vn -0.2408 0.5577 -0.7943
vn -0.4461 0.4620 -0.7665
vn -0.5707 0.2336 -0.7872
vn -0.6232 -0.1271 -0.7717
vn -0.5828 -0.4680 -0.6643
vn -0.3026 -0.6356 -0.7102
vn -0.1782 0.1347 0.9747
vn -0.1652 -0.1814 0.9694
vn -0.5146 0.4458 0.7324
vn -0.1947 0.4736 0.8589
vn -0.1601 -0.5446 0.8233
vn -0.5064 -0.4648 0.7263
vn -0.5466 -0.1746 0.8190
vn -0.5630 0.1438 0.8139
vn -0.6237 0.6944 0.3588
vn -0.7220 0.5506 -0.4190
vn -0.3616 0.0569 -0.9306
vn 0.6237 -0.6944 -0.3588
vn -0.6532 -0.7421 0.1505
vn 0.7220 -0.5506 0.4190
vn 0.3616 -0.0569 0.9306
vn 0.6532 0.7421 -0.1505
vn -0.2644 0.9448 0.1937
vn -0.4016 -0.8883 -0.2228
vn -0.2674 -0.9604 -0.0779
vn -0.9227 -0.3666 -0.1190
vn -0.9453 0.3064 -0.1116
vn -0.1443 0.9865 -0.0775
vn -0.4060 -0.9132 0.0346
vn -0.8778 -0.3938 0.2726
vn -0.8164 0.5605 -0.1389
vn 0.0163 0.9991 -0.0404
vn -0.4637 0.3372 0.8193
vn -0.2611 0.7952 0.5473
vn -0.5769 -0.2989 0.7601
vn -0.2063 -0.8817 0.4243
vn -0.5351 0.3891 0.7499
vn -0.9494 -0.2910 -0.1183
vn -0.2155 0.7265 0.6525
vn -0.8568 -0.2035 -0.4737
vn -0.9887 -0.0801 0.1268
vn 0.9966 0.0468 -0.0675
vn -0.8732 -0.4873 -0.0068
vn 0.8172 0.0313 -0.5754
vn 0.0170 0.7359 0.6769
vn -0.8301 0.1759 0.5291
vn 0.8523 0.5184 0.0692
vn -0.0975 -0.6222 -0.7767
vn -0.8477 0.3283 0.4167
vn 0.8024 0.5901 -0.0896
vn 0.0071 -0.8972 -0.4416
vn -0.8880 -0.4535 0.0753
vn 0.8633 -0.1854 -0.4695
vn -0.0209 0.9172 0.3980
vn -0.2389 -0.4266 0.8723
vn 0.9586 -0.2844 0.0128
vn 0.0864 0.7612 0.6427
vn -0.2105 -0.3060 0.9285
vn 0.4543 0.6931 -0.5596
vn 0.1772 -0.9624 0.2059
vn -0.7720 0.2609 0.5796
vn 0.8233 0.3592 -0.4395
vn -0.0927 -0.9636 -0.2506
vn -0.8024 -0.4612 0.3787
vn 0.8291 0.1349 -0.5426
vn 0.1300 0.8795 0.4577
vn 0.9912 -0.0431 -0.1249
vn 0.3105 0.9123 0.2670
vn -0.9742 0.2257 0.0015
vn 0.9813 0.1885 -0.0381
vn -0.2010 -0.8185 -0.5382
vn -0.9796 -0.1330 -0.1504
vn 0.9384 -0.1680 -0.3018
vn 0.1764 0.9673 0.1821
vn -0.9918 0.1141 -0.0569
vn 0.5384 -0.8209 -0.1905
vn 0.5878 -0.6914 -0.4202
vn 0.5746 -0.7274 -0.3751
vn -0.9911 0.0271 0.1305
vn 0.1078 0.9839 0.1425
vn -0.0370 0.0242 -0.9990
vn -0.9767 -0.0046 0.2144
vn 0.1103 0.9854 0.1298
vn 0.9218 -0.1620 -0.3522
vn -0.2341 -0.1906 0.9533
vn -0.2232 0.5237 0.8222
vn 0.0389 -0.6892 0.7236
vn -0.2474 0.0646 0.9667
vn 0.4945 0.2106 -0.8433
vn 0.4592 0.5977 -0.6572
vn -0.2446 -0.7385 -0.6283
vn 0.9521 0.2542 -0.1701
vn -0.6294 0.4065 0.6622
vn -0.1086 0.7160 0.6896
vn 0.9490 0.1187 -0.2922
vn -0.8973 -0.4412 0.0135
vn -0.0746 0.9006 0.4282
vn 0.7195 0.0198 -0.6942
vn -0.8503 -0.5145 0.1104
vn 0.0630 -0.8848 -0.4617
vn 0.7855 0.6181 -0.0313
vn -0.8312 0.2446 0.4994
vn -0.4614 0.4962 -0.7354
vn -0.9943 -0.0544 -0.0912
vn -0.4376 -0.7122 0.5489
vn 0.4977 -0.6705 0.5502
vn 0.6578 -0.3611 0.6610
vn 0.3094 0.5368 -0.7849
vn -0.7084 0.6630 0.2423
vn -0.9956 0.0006 -0.0933
vn 0.9731 -0.1255 0.1930
vn -0.9990 0.0264 0.0363
vn -0.5786 0.5770 -0.5764
vn -0.3401 -0.4734 0.8125
vn -0.1238 0.0516 0.9910
vn -0.2896 -0.5319 0.7958
vn -0.5720 0.7804 -0.2523
vn -0.0519 0.8481 -0.5273
vn 0.6577 -0.3577 0.6629
vn -0.9197 0.1867 0.3454
vn 0.9995 0.0017 -0.0308
vn 0.9996 0.0001 -0.0290
vn -0.5434 0.8386 -0.0381
vn -0.5040 -0.8615 -0.0624
vn 0.6140 0.7893 -0.0000
vn 0.4379 -0.8982 -0.0396
vn 0.4474 -0.8327 0.3264
vn 0.4668 0.8696 0.1607
vn -0.4517 -0.8453 0.2854
vn -0.4814 0.8762 0.0201
vn 1.0000 0.0004 0.0006
vn -0.9981 -0.0113 -0.0612
vn 0.1114 -0.9872 0.1145
vn 0.0257 -0.4843 -0.8745
vn 0.1232 -0.9607 -0.2488
vn -0.0982 -0.0177 -0.9950
vn -0.3497 0.9264 0.1396
vn -0.3505 0.8781 0.3258
vn -0.3208 -0.9461 -0.0455
vn -0.8115 0.0150 0.5841
vn -0.0000 -0.0502 -0.9987
vn -0.4997 -0.8660 -0.0160
vn -0.4978 0.8661 -0.0455
vn 0.4978 0.8661 -0.0455
vn 0.4997 -0.8660 -0.0160
vn -0.9995 0.0017 -0.0308
vn -0.9987 -0.0323 -0.0388
vn 1.0000 0.0005 -0.0000
vn -0.3781 0.2190 -0.8995
vn -0.5063 -0.6263 0.5928
vn 0.4298 0.2954 -0.8533
vn 0.4928 -0.6050 0.6254
vn -0.9986 -0.0232 -0.0474
vn 1.0000 0.0005 0.0004
vn -0.5215 0.7526 -0.4021
vn -0.5049 -0.6746 0.5384
vn 0.4593 0.5668 -0.6840
vn 0.4502 -0.6742 0.5855
vn -0.2666 0.9599 0.0866
vn -0.2606 -0.9628 -0.0719
vn -0.7576 0.1444 0.6365
vn -0.8931 0.4499 -0.0000
vn -0.8377 -0.5461 -0.0000
vn -0.5999 0.7948 0.0921
vn -0.5165 -0.8562 -0.0132
vn -0.3643 0.1173 -0.9239
vn 0.9803 -0.0031 -0.1976
vn 0.0135 0.6652 -0.7466
vn 0.1061 0.5272 -0.8431
vn 0.2158 0.8929 -0.3952
vn 0.2332 0.9724 -0.0047
vn 0.2114 0.8407 0.4986
vn 0.5362 0.7239 0.4341
vn 0.6140 0.7893 -0.0094
vn 0.5575 0.7416 -0.3731
vn 0.4895 0.6746 -0.5525
vn 0.2088 0.7506 -0.6269
vn 0.9486 0.1818 -0.2589
vn 0.9832 0.1706 0.0645
vn 0.9679 -0.1309 -0.2144
vn 0.9842 -0.1492 0.0957
vn 0.7191 0.4598 -0.5211
vn 0.8258 0.4724 -0.3080
vn 0.8791 0.4760 0.0239
vn 0.8171 0.4050 0.4103
vn 0.8813 0.1551 0.4463
vn 0.8704 -0.1617 0.4650
vn 0.7756 -0.4470 0.4457
vn 0.8474 -0.5145 0.1312
vn 0.8444 -0.5089 -0.1672
vn 0.7820 -0.4824 -0.3947
vn 0.8583 -0.1214 -0.4987
vn 0.8209 0.2013 -0.5345
vn 0.1806 -0.9804 -0.0786
vn 0.1607 -0.9818 -0.1015
vn 0.1488 -0.9784 0.1435
vn 0.5095 -0.7887 -0.3441
vn 0.5440 -0.8308 -0.1171
vn 0.5063 -0.8464 0.1648
vn 0.4448 -0.7758 0.4475
vn 0.1542 -0.8626 0.4818
vn 0.1482 -0.9172 -0.3698
vn 0.3082 0.2745 -0.9109
vn 0.3445 -0.1614 -0.9248
vn 0.2408 0.5577 -0.7943
vn 0.4461 0.4620 -0.7665
vn 0.5707 0.2336 -0.7872
vn 0.6232 -0.1271 -0.7717
vn 0.5828 -0.4680 -0.6643
vn 0.2684 -0.6184 -0.7387
vn 0.1782 0.1347 0.9747
vn 0.1652 -0.1814 0.9694
vn 0.5146 0.4458 0.7324
vn 0.1947 0.4736 0.8589
vn 0.1626 -0.5423 0.8243
vn 0.4611 -0.5075 0.7279
vn 0.5466 -0.1746 0.8190
vn 0.5630 0.1438 0.8139
vn -0.6237 -0.6944 -0.3588
vn 0.3736 0.9086 0.1866
vn 0.2581 -0.9495 0.1786
vn 0.1944 -0.9606 -0.1985
vn 0.8263 -0.5057 -0.2481
vn 0.9086 0.4062 -0.0973
vn 0.3558 0.9317 -0.0732
vn 0.1195 -0.9905 -0.0681
vn 0.8684 -0.4844 -0.1054
vn 0.9667 0.2091 0.1478
vn 0.4858 0.8733 -0.0354
vn 0.7244 0.4702 0.5042
vn 0.2609 0.8359 0.4828
vn 0.5069 -0.0344 0.8613
vn 0.0290 -0.8286 0.5590
vn 0.7794 0.6057 -0.1604
vn 0.9428 -0.2402 0.2313
vn 0.9470 0.2888 -0.1403
vn 0.2088 -0.9595 0.1894
vn -0.2648 -0.6612 -0.7019
vn 0.9984 0.0489 -0.0290
vn 0.8645 -0.1860 0.4669
vn -0.8997 -0.4317 -0.0652
vn -0.0082 0.9057 -0.4239
vn 0.8050 0.5884 0.0760
vn -0.8432 0.2579 -0.4717
vn 0.0689 -0.9420 0.3285
vn 0.8918 0.4438 -0.0884
vn -0.8176 0.2091 -0.5365
vn -0.0044 -0.8029 0.5961
vn 0.9005 -0.1607 0.4041
vn -0.8742 -0.4855 -0.0108
vn -0.0006 0.7723 -0.6352
vn 0.5223 0.3416 0.7814
vn -0.9782 -0.0920 0.1863
vn -0.4984 0.8608 -0.1030
vn 0.2525 0.6792 0.6891
vn -0.6769 -0.3525 -0.6462
vn -0.1520 -0.2528 0.9555
vn 0.7897 0.6134 0.0068
vn 0.0041 -0.7759 0.6308
vn 0.8248 0.1034 0.5559
vn -0.1272 0.8130 -0.5683
vn -0.9926 -0.1124 0.0450
vn -0.3155 0.6634 -0.6785
vn 0.9811 -0.0325 -0.1909
vn -0.9852 0.0792 -0.1519
vn -0.1567 -0.9025 0.4013
vn 0.9751 -0.2212 0.0164
vn -0.1340 0.5273 -0.8391
vn 0.9828 -0.0617 -0.1743
vn -0.5311 -0.5304 0.6608
vn -0.5918 -0.6739 0.4424
vn -0.0031 -0.8777 -0.4792
vn 0.9874 0.1425 0.0688
vn -0.0549 0.5482 -0.8345
vn -0.9371 -0.3443 -0.0568
vn 0.2245 -0.1034 0.9690
vn 0.5591 0.6305 0.5384
vn 0.0128 -0.3475 0.9376
vn 0.5063 -0.0384 0.8615
vn -0.5313 -0.6394 -0.5558
vn -0.4954 -0.2978 -0.8160
vn 0.0236 -0.9175 0.3970
vn -0.9399 -0.0250 -0.3405
vn 0.6589 0.7476 -0.0826
vn 0.3695 0.8918 -0.2611
vn -0.9178 -0.3846 -0.0988
vn 0.8737 -0.2013 0.4429
vn -0.0281 0.8603 -0.5089
vn -0.8754 -0.4830 -0.0218
vn 0.8628 -0.1332 0.4877
vn -0.0373 -0.8263 0.5619
vn -0.7924 0.2287 -0.5655
vn 0.8236 0.5672 -0.0085
vn 0.3837 0.9053 0.1823
vn 0.9943 0.0557 -0.0904
vn 0.4547 -0.8042 -0.3827
vn -0.5029 -0.7898 -0.3512
vn -0.5195 -0.7405 -0.4263
vn 1.0000 -0.0029 -0.0049
vn -0.9860 0.1419 0.0879
vn 0.9973 0.0669 -0.0314
vn -0.9710 -0.1980 -0.1343
vn 0.9990 -0.0184 0.0411
vn 0.4147 0.9074 0.0674
vn 0.4707 -0.7858 -0.4011
vn -0.4895 -0.2612 0.8320
vn -0.5634 -0.1103 0.8188
vn -0.3828 -0.2034 0.9012
vn 0.4666 -0.8526 -0.2355
vn 0.4396 0.7551 0.4864
vn 0.0713 0.8575 -0.5096
vn -0.4978 -0.7347 -0.4609
vn 0.9424 -0.1063 0.3172
vn -0.9992 0.0354 -0.0166
vn -0.9999 0.0092 -0.0043
vn 0.4993 0.4164 0.7598
vn 0.5213 -0.3623 -0.7727
vn -0.6142 0.3588 0.7029
vn -0.4986 -0.3837 -0.7773
vn -0.4982 -0.4339 -0.7506
vn -0.4659 0.2615 0.8453
vn 0.4527 -0.6218 -0.6391
vn 0.4798 0.3891 0.7864
vn -1.0000 -0.0007 0.0004
vn 0.9981 0.0486 -0.0385
vn -0.3171 -0.5198 -0.7932
vn 0.2539 -0.9664 0.0408
vn 0.3659 0.7575 0.5406
vn 0.3351 0.8327 0.4408
vn 0.2459 -0.9671 -0.0654
vn 0.8741 -0.1079 0.4737
vn 0.0016 0.9977 0.0670
vn -0.0005 0.9697 0.2445
vn -0.1173 0.9766 0.1802
vn 0.4021 -0.3982 -0.8245
vn 0.4038 0.4927 0.7708
vn -0.4957 0.4829 0.7219
vn -0.4985 -0.3883 -0.7751
vn 0.9989 0.0465 0.0117
vn 0.9987 0.0199 -0.0473
vn -1.0000 -0.0002 0.0008
vn 0.3940 0.9036 -0.1683
vn 0.5072 -0.8032 -0.3125
vn -0.1922 0.8492 -0.4918
vn -0.4716 -0.8585 -0.2015
vn 0.9986 0.0316 -0.0428
vn -1.0000 -0.0006 0.0008
vn 0.5267 0.6678 0.5259
vn 0.5045 -0.7734 -0.3838
vn -0.4761 0.8407 0.2578
vn -0.4785 -0.6960 -0.5355
vn 0.2821 0.9563 0.0765
vn 0.1793 -0.9837 0.0154
vn 0.7511 -0.3371 0.5677
vn 0.9076 -0.0941 0.4091
vn 0.8391 0.5429 0.0335
vn 0.5999 0.7948 0.0921
vn 0.5513 -0.8343 -0.0000
vn -0.2158 0.8929 -0.3952
vn -0.2309 0.9730 -0.0026
vn -0.2114 0.8407 0.4986
vn -0.5934 0.7171 0.3657
vn -0.6038 0.7971 0.0039
vn -0.5368 0.7678 -0.3497
vn -0.4895 0.6746 -0.5525
vn -0.2088 0.7506 -0.6269
vn -0.9488 0.1900 -0.2522
vn -0.9829 0.1719 0.0657
vn -0.9669 -0.1341 -0.2169
vn -0.9843 -0.1466 0.0981
vn -0.7198 0.4412 -0.5359
vn -0.8218 0.4872 -0.2955
vn -0.8739 0.4848 0.0339
vn -0.8171 0.4050 0.4103
vn -0.8793 0.1584 0.4492
vn -0.8717 -0.1659 0.4611
vn -0.7717 -0.4987 0.3948
vn -0.8452 -0.5193 0.1267
vn -0.8441 -0.5094 -0.1677
vn -0.7820 -0.4824 -0.3947
vn -0.8572 -0.1236 -0.4999
vn -0.8229 0.2097 -0.5281
vn -0.1607 -0.9818 -0.1015
vn -0.1806 -0.9804 -0.0786
vn -0.1564 -0.9765 0.1485
vn -0.4800 -0.7943 -0.3725
vn -0.5169 -0.8425 -0.1518
vn -0.4664 -0.8756 0.1262
vn -0.4448 -0.7758 0.4475
vn -0.1542 -0.8626 0.4818
vn -0.2261 -0.9220 -0.3144
vn -0.3148 0.2794 -0.9071
vn -0.3250 -0.1799 -0.9284
vn -0.2669 0.5681 -0.7785
vn -0.4934 0.5045 -0.7086
vn -0.5804 0.2495 -0.7751
vn -0.6137 -0.1420 -0.7766
vn -0.5175 -0.5489 -0.6564
vn -0.2683 -0.6184 -0.7387
vn -0.1733 0.1395 0.9749
vn -0.1703 -0.1865 0.9676
vn -0.5492 0.4099 0.7283
vn -0.1876 0.4801 0.8569
vn -0.1626 -0.5423 0.8243
vn -0.4611 -0.5075 0.7279
vn -0.5518 -0.1809 0.8141
vn -0.5611 0.1458 0.8148
vn -0.1801 0.9213 0.3445
vn -0.4883 -0.8679 -0.0913
vn -0.4051 -0.8954 -0.1850
vn -0.9412 -0.3227 -0.1001
vn -0.8025 0.5497 -0.2322
vn -0.2193 0.9657 -0.1390
vn -0.4950 -0.8669 -0.0593
vn -0.9918 -0.1145 -0.0576
vn -0.5019 0.7950 -0.3407
vn -0.1539 0.9731 -0.1715
vn -0.5560 0.2947 0.7772
vn -0.3008 0.8258 0.4771
vn -0.4877 -0.3523 0.7988
vn -0.0580 -0.8356 0.5463
vn -0.7119 0.6242 0.3218
vn -0.8781 -0.4770 0.0370
vn 0.9527 0.2017 0.2272
vn -0.6572 -0.7150 -0.2384
vn 0.9538 0.1072 -0.2806
vn -0.4117 0.7776 -0.4751
vn -0.8942 -0.4467 -0.0284
vn 0.9070 -0.1306 -0.4003
vn 0.0007 0.8034 0.5954
vn -0.7980 0.1708 0.5780
vn 0.8506 0.5222 0.0619
vn -0.0843 -0.6649 -0.7421
vn -0.8817 0.2660 0.3896
vn 0.8408 0.5198 -0.1511
vn -0.0153 -0.8977 -0.4403
vn -0.8965 -0.4352 0.0829
vn 0.8597 -0.1974 -0.4711
vn 0.0005 0.9179 0.3968
vn -0.4861 -0.5473 0.6813
vn 0.9810 -0.1906 -0.0355
vn 0.5180 0.4944 0.6981
vn -0.6106 0.1773 0.7718
vn 0.6448 0.4249 -0.6354
vn 0.5359 -0.7776 0.3290
vn -0.7898 -0.0827 0.6077
vn -0.0039 -0.9160 -0.4011
vn -0.8665 -0.3268 0.3772
vn 0.2583 0.9391 0.2265
vn 0.9902 -0.0741 -0.1188
vn 0.6860 0.7239 0.0733
vn -0.9875 0.1376 -0.0771
vn 0.9655 0.2592 0.0256
vn 0.1455 -0.7671 -0.6248
vn -0.9888 -0.0237 -0.1475
vn 0.1200 0.9896 0.0798
vn -0.9894 0.1094 -0.0955
vn 0.5296 -0.8110 -0.2487
vn 0.5459 -0.7002 -0.4601
vn 0.2121 0.3106 -0.9266
vn -0.9803 -0.0132 0.1972
vn 0.0417 0.9937 0.1036
vn 0.9249 -0.0907 -0.3691
vn -0.2638 -0.1720 0.9491
vn -0.5591 0.6305 0.5384
vn -0.0545 -0.4080 0.9113
vn -0.4371 -0.0848 0.8954
vn 0.4783 0.2239 -0.8492
vn 0.5886 0.4304 -0.6843
vn -0.0643 -0.6714 -0.7383
vn 0.8877 0.4456 0.1160
vn -0.8080 0.1294 0.5748
vn -0.0086 0.7679 0.6405
vn 0.9141 -0.0605 -0.4010
vn -0.8825 -0.4691 -0.0331
vn 0.0459 0.8174 0.5743
vn 0.8709 -0.1903 -0.4531
vn -0.8952 -0.4434 0.0453
vn -0.0812 -0.7408 -0.6668
vn 0.7541 0.6366 -0.1618
vn -0.8074 0.2422 0.5380
vn -0.5879 0.4821 -0.6495
vn -0.9942 -0.0688 -0.0826
vn -0.5088 -0.6679 0.5431
vn 0.6971 -0.5041 0.5098
vn 0.6569 -0.3552 0.6651
vn 0.4698 0.4695 -0.7475
vn -0.5034 0.8396 0.2043
vn -0.9957 0.0052 -0.0926
vn 0.9851 -0.1480 0.0879
vn -0.9992 0.0217 0.0328
vn -0.5960 0.6044 -0.5286
vn -0.3752 -0.6567 0.6542
vn 0.6496 0.3010 0.6982
vn 0.5433 0.0328 0.8389
vn 0.5433 0.2237 0.8092
vn -0.3161 -0.7477 0.5841
vn -0.5835 0.8034 -0.1187
vn -0.0483 0.8586 -0.5103
vn 0.7520 -0.5855 0.3030
vn -0.9659 0.0027 0.2589
vn 0.9995 -0.0016 -0.0312
vn 0.9996 0.0016 -0.0292
vn -0.4987 0.8664 -0.0253
vn -0.5000 -0.8639 -0.0614
vn 0.4999 0.8657 0.0274
vn 0.5000 -0.8646 -0.0503
vn 0.5029 -0.8635 0.0375
vn 0.6110 0.7904 -0.0440
vn -0.4970 -0.8649 -0.0708
vn -0.5501 0.8275 0.1121
vn 1.0000 -0.0000 0.0008
vn -0.9976 0.0004 -0.0686
vn -0.1910 -0.6098 -0.7692
vn -0.0380 -0.5408 0.8403
vn -0.2364 0.9698 0.0601
vn -0.2932 0.8449 0.4473
vn -0.2510 -0.9634 0.0942
vn -0.8893 -0.0722 0.4516
vn -0.0000 0.1325 -0.9912
vn -0.4991 -0.8664 -0.0161
vn -0.4988 0.8655 -0.0457
vn 0.4988 0.8655 -0.0457
vn 0.4991 -0.8664 -0.0161
vn -0.9995 -0.0016 -0.0312
vn -0.9954 -0.0422 -0.0861
vn 1.0000 0.0006 0.0006
vn -0.1075 -0.1387 -0.9845
vn -0.5091 -0.6326 0.5836
vn 0.1451 -0.1257 -0.9814
vn 0.4617 -0.5412 0.7028
vn -0.9958 -0.0165 -0.0897
vn 1.0000 0.0004 0.0009
vn -0.3556 0.5564 -0.7510
vn -0.5170 -0.7192 0.4642
vn 0.4569 0.7553 -0.4699
vn 0.4740 -0.7852 0.3986
vn -0.2691 0.9600 0.0768
vn -0.2666 -0.9601 -0.0840
vn -0.9000 -0.0692 0.4303
vn -0.7400 -0.3422 0.5791
vn -0.8391 0.5429 0.0335
vn -0.5488 0.8323 0.0777
vn -0.5513 -0.8343 -0.0000
vn -0.9866 0.1583 0.0386
vn 0.8642 -0.1863 -0.4674
vn -0.7264 0.6869 0.0226
vn 0.2524 0.6707 -0.6975
vt 0.500000 0.375000
vt 0.437500 0.437500
vt 0.437500 0.375000
vt 0.562500 0.437500
vt 0.500000 0.437500
vt 0.625000 0.375000
vt 0.562500 0.375000
vt 0.625000 0.500000
vt 0.562500 0.500000
vt 0.500000 0.500000
vt 0.437500 0.500000
vt 0.375000 0.500000
vt 0.375000 0.437500
vt 0.375000 0.375000
vt 0.437500 0.562500
vt 0.500000 0.625000
vt 0.437500 0.625000
vt 0.500000 0.562500
vt 0.562500 0.625000
vt 0.500000 0.687500
vt 0.437500 0.687500
vt 0.562500 0.687500
vt 0.375000 0.562500
vt 0.562500 0.562500
vt 0.625000 0.625000
vt 0.625000 0.687500
vt 0.625000 0.750000
vt 0.562500 0.750000
vt 0.500000 0.750000
vt 0.437500 0.750000
vt 0.375000 0.750000
vt 0.375000 0.687500
vt 0.375000 0.625000
vt 0.500000 0.875000
vt 0.468750 0.875000
vt 0.437500 0.875000
vt 0.500000 0.812500
vt 0.562500 0.875000
vt 0.437500 0.812500
vt 0.375000 0.812500
vt 0.562500 0.812500
vt 0.625000 0.812500
vt 0.375000 0.875000
vt 0.250000 0.562500
vt 0.312500 0.625000
vt 0.250000 0.625000
vt 0.312500 0.687500
vt 0.250000 0.687500
vt 0.250000 0.500000
vt 0.312500 0.562500
vt 0.312500 0.500000
vt 0.312500 0.750000
vt 0.250000 0.750000
vt 0.687500 0.562500
vt 0.750000 0.625000
vt 0.687500 0.625000
vt 0.750000 0.687500
vt 0.687500 0.687500
vt 0.625000 0.562500
vt 0.687500 0.500000
vt 0.750000 0.562500
vt 0.687500 0.750000
vt 1.000000 0.500000
vt 0.833333 1.000000
vt 0.833333 0.500000
vt 0.666667 1.000000
vt 0.666667 0.500000
vt 0.500000 1.000000
vt 0.500000 0.500000
vt 0.333333 0.500000
vt 0.042154 0.130000
vt 0.250000 0.010000
vt 0.457846 0.130000
vt 0.333333 1.000000
vt 0.166667 0.500000
vt 0.166667 1.000000
vt -0.000000 0.500000
vt 0.542154 0.130000
vt 0.542154 0.370000
vt 0.957846 0.370000
vt 1.000000 0.828637
vt 0.875000 1.000000
vt 0.875000 0.828637
vt 0.625000 0.828637
vt 0.500000 1.000000
vt 0.500000 0.828637
vt 0.625000 0.645722
vt 0.500000 0.500000
vt 0.750000 0.500000
vt 0.875000 0.645722
vt 0.875000 0.500000
vt 0.500000 0.645722
vt 0.750000 0.828637
vt 0.750000 0.645722
vt 1.000000 0.645722
vt 0.750000 1.000000
vt 1.000000 1.000000
vt 0.625000 1.000000
vt 0.749520 0.964446
vt 0.653402 0.965669
vt 0.844587 0.863513
vt 0.844268 0.965118
vt 0.647775 0.863148
vt 0.750840 0.864057
vt 0.749520 0.964446
vt 0.750840 0.864057
vt 0.647775 0.863149
vt 0.844587 0.863513
vt 0.844267 0.965117
vt 0.653402 0.965669
vt 0.749520 0.964446
vt 0.844268 0.965117
vt 0.750840 0.864057
vt 0.653402 0.965669
vt 0.844587 0.863513
vt 0.000000 0.000000
vt 0.833333 0.500000
vt -0.000000 1.000000
vt 0.500000 0.500000
vt 0.500000 0.500000
vt 0.166667 0.500000
vt -0.000000 0.500000
vt 0.833333 0.500000
vt 0.042154 0.370000
vt 0.457846 0.370000
vt 0.750000 0.010000
vt 0.333333 0.500000
vt 0.457846 0.250000
vt 0.625000 0.437500
vt 0.750000 0.500000
vt 0.957846 0.130000
vt 0.250000 0.490000
vt 0.625000 0.875000
vt 0.750000 0.750000
vt 0.250000 0.490000
vt 0.750000 0.490000
vt 0.750000 0.490000
s 0
f 26/1/1 28/2/1 25/3/1
f 26/1/2 30/4/2 29/5/2
f 7/6/3 30/4/3 27/7/3
f 30/4/4 4/8/4 9/9/4
f 29/5/5 9/9/5 10/10/5
f 28/2/6 10/10/6 11/11/6
f 28/2/7 3/12/7 5/13/7
f 25/3/8 5/13/8 6/14/8
f 31/15/9 35/16/9 34/17/9
f 32/18/10 36/19/10 35/16/10
f 34/17/11 38/20/11 37/21/11
f 35/16/12 39/22/12 38/20/12
f 3/12/13 31/15/13 14/23/13
f 11/11/14 32/18/14 31/15/14
f 10/10/15 33/24/15 32/18/15
f 4/8/16 33/24/16 9/9/16
f 33/24/17 16/25/17 36/19/17
f 36/19/18 17/26/18 39/22/18
f 39/22/19 2/27/19 18/28/19
f 38/20/20 18/28/20 19/29/20
f 37/21/21 19/29/21 20/30/21
f 37/21/22 1/31/22 12/32/22
f 13/33/23 37/21/23 12/32/23
f 14/23/24 34/17/24 13/33/24
f 44/34/25 58/35/25 43/36/25
f 41/37/26 45/38/26 44/34/26
f 1/31/27 40/39/27 22/40/27
f 20/30/28 41/37/28 40/39/28
f 19/29/29 42/41/29 41/37/29
f 2/27/30 42/41/30 18/28/30
f 23/42/31 45/38/31 42/41/31
f 22/40/32 43/36/32 21/43/32
f 46/44/33 49/45/33 48/46/33
f 48/46/34 51/47/34 50/48/34
f 6/49/35 47/50/35 46/44/35
f 5/51/36 14/23/36 47/50/36
f 47/50/37 13/33/37 49/45/37
f 49/45/38 12/32/38 51/47/38
f 51/47/39 1/31/39 22/52/39
f 51/47/40 21/53/40 50/48/40
f 52/54/41 55/55/41 54/56/41
f 54/56/42 57/57/42 56/58/42
f 4/8/43 52/54/43 15/59/43
f 8/60/44 53/61/44 52/54/44
f 57/57/45 23/62/45 56/58/45
f 56/58/46 2/27/46 17/26/46
f 16/25/47 56/58/47 17/26/47
f 15/59/48 54/56/48 16/25/48
f 59/63/49 62/64/49 61/65/49
f 61/65/50 64/66/50 63/67/50
f 63/67/51 66/68/51 65/69/51
f 66/68/52 67/70/52 65/69/52
f 68/71/53 66/72/53 64/73/53
f 68/74/54 69/75/54 67/70/54
f 70/76/55 59/77/55 69/75/55
f 67/78/56 69/79/56 61/80/56
f 86/81/57 97/82/57 99/83/57
f 100/84/58 80/85/58 90/86/58
f 84/87/59 79/88/59 77/8/59
f 75/89/60 84/87/60 77/8/60
f 82/90/61 75/89/61 73/91/61
f 71/63/62 82/90/62 73/91/62
f 100/84/63 85/92/63 84/87/63
f 101/93/64 84/87/64 83/94/64
f 99/83/65 83/94/65 82/90/65
f 81/95/66 99/83/66 82/90/66
f 97/82/67 93/96/67 96/96/67
f 72/97/68 92/82/68 97/82/68
f 98/98/69 93/96/69 94/98/69
f 80/85/70 94/98/70 95/85/70
f 76/99/71 97/82/71 96/96/71
f 78/100/72 96/96/72 98/98/72
f 87/101/73 97/82/73 74/102/73
f 78/100/74 100/84/74 89/103/74
f 89/103/75 101/93/75 88/104/75
f 87/101/76 101/93/76 99/83/76
f 150/105/77 104/100/77 103/99/77
f 151/106/78 107/103/78 152/107/78
f 154/108/79 102/102/79 105/101/79
f 150/105/80 102/102/80 153/109/80
f 151/106/81 105/101/81 106/104/81
f 152/107/82 104/100/82 149/110/82
f 155/111/83 108/102/83 156/112/83
f 158/113/84 111/101/84 112/104/84
f 160/114/85 113/103/85 110/100/85
f 155/111/86 110/100/86 109/99/86
f 158/113/87 113/103/87 159/107/87
f 156/112/88 111/101/88 157/115/88
f 110/100/89 115/99/89 109/99/89
f 112/104/90 133/103/90 113/103/90
f 108/102/91 117/101/91 111/101/91
f 108/102/92 115/99/92 114/102/92
f 111/101/93 118/104/93 112/104/93
f 110/100/94 119/103/94 116/100/94
f 114/102/95 121/99/95 120/102/95
f 117/101/96 124/104/96 118/104/96
f 119/103/97 122/100/97 116/100/97
f 115/99/98 122/100/98 121/99/98
f 119/103/99 124/104/99 125/103/99
f 117/101/100 120/102/100 123/101/100
f 124/104/101 131/103/101 125/103/101
f 123/101/102 126/102/102 129/101/102
f 121/99/103 126/102/103 120/102/103
f 124/104/104 129/101/104 130/104/104
f 125/103/105 128/100/105 122/100/105
f 121/99/106 128/100/106 127/99/106
f 132/104/107 137/103/107 133/103/107
f 118/104/108 132/104/108 112/104/108
f 119/103/109 134/104/109 118/104/109
f 119/103/110 133/103/110 135/103/110
f 139/103/111 141/103/111 143/103/111
f 135/103/112 137/103/112 139/103/112
f 135/103/113 138/104/113 134/104/113
f 134/104/114 136/104/114 132/104/114
f 141/103/115 142/104/115 143/103/115
f 139/103/116 142/104/116 138/104/116
f 138/104/117 140/104/117 136/104/117
f 136/104/118 141/103/118 137/103/118
f 94/98/119 146/96/119 147/98/119
f 91/97/120 145/82/120 92/82/120
f 94/98/121 148/85/121 95/85/121
f 92/82/122 146/96/122 93/96/122
f 128/100/123 130/104/123 127/99/123
f 127/99/124 129/101/124 126/102/124
f 89/103/125 149/110/125 78/100/125
f 88/104/126 154/108/126 151/106/126
f 74/102/127 150/105/127 153/109/127
f 87/101/128 153/109/128 154/108/128
f 88/104/129 152/107/129 89/103/129
f 78/100/130 150/105/130 76/99/130
f 102/102/131 157/115/131 105/101/131
f 106/104/132 159/107/132 107/103/132
f 103/99/133 160/114/133 155/111/133
f 104/100/134 159/107/134 160/114/134
f 106/104/135 157/115/135 158/113/135
f 103/99/136 156/112/136 102/102/136
f 162/97/137 163/65/137 161/63/137
f 163/65/138 166/66/138 165/67/138
f 165/67/139 168/68/139 167/69/139
f 168/68/140 169/70/140 167/69/140
f 170/74/141 175/68/141 176/74/141
f 368/74/142 369/75/142 416/116/142
f 170/74/143 171/75/143 169/70/143
f 190/67/144 185/65/144 191/117/144
f 177/76/145 182/74/145 183/76/145
f 164/64/146 174/66/146 166/66/146
f 164/64/147 172/97/147 173/64/147
f 166/66/148 175/68/148 168/68/148
f 182/71/149 181/72/149 180/73/149
f 174/66/150 181/68/150 175/68/150
f 173/64/151 178/97/151 179/64/151
f 177/76/152 178/118/152 172/118/152
f 175/68/153 182/74/153 176/74/153
f 173/64/154 180/66/154 174/66/154
f 188/70/155 210/75/155 209/70/155
f 192/75/156 188/70/156 193/70/156
f 191/117/157 184/63/157 194/63/157
f 190/67/158 187/69/158 186/67/158
f 192/75/159 184/77/159 189/75/159
f 193/70/160 187/69/160 195/119/160
f 221/70/161 195/119/161 219/120/161
f 218/121/162 194/122/162 192/75/162
f 217/67/163 195/119/163 190/67/163
f 222/63/164 191/117/164 194/63/164
f 218/121/165 193/70/165 221/70/165
f 220/123/166 190/67/166 191/117/166
f 183/76/167 178/118/167 200/116/167
f 182/116/168 197/116/168 196/116/168
f 181/116/169 198/116/169 197/116/169
f 196/116/170 183/124/170 182/71/170
f 199/116/171 178/116/171 200/116/171
f 199/116/172 201/116/172 179/116/172
f 198/116/173 202/116/173 203/116/173
f 179/125/174 202/73/174 180/73/174
f 206/80/175 208/126/175 210/79/175
f 187/69/176 207/67/176 186/67/176
f 185/65/177 205/63/177 184/63/177
f 189/75/178 205/77/178 210/75/178
f 187/69/179 209/70/179 208/69/179
f 186/67/180 206/65/180 185/65/180
f 163/65/181 214/67/181 211/123/181
f 171/75/182 212/127/182 169/70/182
f 161/63/183 211/123/183 213/63/183
f 165/67/184 216/69/184 214/67/184
f 161/77/185 215/121/185 171/75/185
f 169/70/186 216/69/186 167/69/186
f 211/123/187 217/67/187 220/123/187
f 215/121/188 221/70/188 212/127/188
f 213/63/189 220/123/189 222/63/189
f 214/67/190 219/120/190 217/67/190
f 215/121/191 222/77/191 218/121/191
f 212/127/192 219/120/192 216/69/192
f 204/116/193 73/116/193 201/116/193
f 203/116/194 77/116/194 79/116/194
f 201/125/195 73/125/195 75/128/195
f 145/82/196 225/96/196 146/96/196
f 146/96/197 226/98/197 147/98/197
f 145/82/198 223/97/198 224/82/198
f 147/98/199 227/85/199 148/85/199
f 248/2/200 26/1/200 25/3/200
f 26/1/201 250/4/201 27/7/201
f 250/4/202 7/6/202 27/7/202
f 250/4/203 231/8/203 233/129/203
f 249/5/204 234/9/204 250/4/204
f 248/2/205 235/10/205 249/5/205
f 230/12/206 248/2/206 232/13/206
f 232/13/207 25/3/207 6/14/207
f 251/15/208 255/16/208 252/18/208
f 252/18/209 256/19/209 253/24/209
f 254/17/210 258/20/210 255/16/210
f 255/16/211 259/22/211 256/19/211
f 230/12/212 251/15/212 236/11/212
f 236/11/213 252/18/213 235/10/213
f 235/10/214 253/24/214 234/9/214
f 253/24/215 231/8/215 234/9/215
f 253/24/216 241/25/216 240/59/216
f 256/19/217 242/26/217 241/25/217
f 259/22/218 229/27/218 242/26/218
f 258/20/219 243/28/219 259/22/219
f 257/21/220 244/29/220 258/20/220
f 228/31/221 257/21/221 237/32/221
f 238/33/222 257/21/222 254/17/222
f 239/23/223 254/17/223 251/15/223
f 261/37/224 45/38/224 262/41/224
f 228/31/225 260/39/225 245/30/225
f 245/30/226 261/37/226 244/29/226
f 244/29/227 262/41/227 243/28/227
f 262/41/228 229/27/228 243/28/228
f 45/38/229 247/42/229 262/41/229
f 246/40/230 43/36/230 260/39/230
f 46/44/231 264/45/231 263/50/231
f 48/46/232 265/47/232 264/45/232
f 6/49/233 263/50/233 232/51/233
f 232/51/234 239/23/234 230/12/234
f 263/50/235 238/33/235 239/23/235
f 264/45/236 237/32/236 238/33/236
f 265/47/237 228/31/237 237/32/237
f 21/53/238 265/47/238 50/48/238
f 266/54/239 55/55/239 53/61/239
f 267/56/240 57/57/240 55/55/240
f 231/8/241 266/54/241 233/60/241
f 233/60/242 53/61/242 7/130/242
f 247/62/243 57/57/243 268/58/243
f 229/27/244 268/58/244 242/26/244
f 241/25/245 268/58/245 267/56/245
f 240/59/246 267/56/246 266/54/246
f 269/63/247 272/64/247 270/97/247
f 271/65/248 274/66/248 272/64/248
f 273/67/249 276/68/249 274/66/249
f 277/70/250 276/68/250 275/69/250
f 278/71/251 280/124/251 274/73/251
f 279/75/252 278/74/252 277/70/252
f 269/77/253 280/76/253 279/75/253
f 271/80/254 277/78/254 273/131/254
f 86/81/255 297/82/255 72/97/255
f 300/84/256 80/85/256 298/98/256
f 79/88/257 289/87/257 285/8/257
f 283/89/258 289/87/258 288/94/258
f 283/89/259 287/90/259 281/91/259
f 71/63/260 287/90/260 81/95/260
f 85/92/261 300/84/261 289/87/261
f 289/87/262 301/93/262 288/94/262
f 288/94/263 299/83/263 287/90/263
f 81/95/264 299/83/264 86/81/264
f 294/96/265 297/82/265 296/96/265
f 293/82/266 72/97/266 297/82/266
f 298/98/267 294/96/267 296/96/267
f 80/85/268 295/98/268 298/98/268
f 284/99/269 297/82/269 282/102/269
f 286/100/270 296/96/270 284/99/270
f 297/82/271 290/101/271 282/102/271
f 300/84/272 286/100/272 292/103/272
f 301/93/273 292/103/273 291/104/273
f 290/101/274 301/93/274 291/104/274
f 348/105/275 304/100/275 347/110/275
f 307/103/276 349/106/276 350/107/276
f 352/108/277 302/102/277 351/109/277
f 302/102/278 348/105/278 351/109/278
f 349/106/279 305/101/279 352/108/279
f 304/100/280 350/107/280 347/110/280
f 308/102/281 353/111/281 354/112/281
f 356/113/282 311/101/282 355/115/282
f 358/114/283 313/103/283 357/107/283
f 353/111/284 310/100/284 358/114/284
f 313/103/285 356/113/285 357/107/285
f 311/101/286 354/112/286 355/115/286
f 315/99/287 310/100/287 309/99/287
f 333/103/288 312/104/288 313/103/288
f 317/101/289 308/102/289 311/101/289
f 308/102/290 315/99/290 309/99/290
f 318/104/291 311/101/291 312/104/291
f 310/100/292 319/103/292 313/103/292
f 314/102/293 321/99/293 315/99/293
f 324/104/294 317/101/294 318/104/294
f 322/100/295 319/103/295 316/100/295
f 315/99/296 322/100/296 316/100/296
f 319/103/297 324/104/297 318/104/297
f 317/101/298 320/102/298 314/102/298
f 331/103/299 324/104/299 325/103/299
f 323/101/300 326/102/300 320/102/300
f 326/102/301 321/99/301 320/102/301
f 324/104/302 329/101/302 323/101/302
f 328/100/303 325/103/303 322/100/303
f 321/99/304 328/100/304 322/100/304
f 337/103/305 332/104/305 333/103/305
f 332/104/306 318/104/306 312/104/306
f 334/104/307 319/103/307 318/104/307
f 319/103/308 333/103/308 313/103/308
f 339/103/309 341/103/309 337/103/309
f 335/103/310 337/103/310 333/103/310
f 338/104/311 335/103/311 334/104/311
f 336/104/312 334/104/312 332/104/312
f 341/103/313 342/104/313 340/104/313
f 342/104/314 339/103/314 338/104/314
f 340/104/315 338/104/315 336/104/315
f 341/103/316 336/104/316 337/103/316
f 295/98/317 345/96/317 294/96/317
f 344/82/318 91/97/318 293/82/318
f 148/85/319 295/98/319 95/85/319
f 345/96/320 293/82/320 294/96/320
f 328/100/321 330/104/321 331/103/321
f 327/99/322 329/101/322 330/104/322
f 347/110/323 292/103/323 286/100/323
f 291/104/324 352/108/324 290/101/324
f 282/102/325 348/105/325 284/99/325
f 290/101/326 351/109/326 282/102/326
f 350/107/327 291/104/327 292/103/327
f 348/105/328 286/100/328 284/99/328
f 355/115/329 302/102/329 305/101/329
f 357/107/330 306/104/330 307/103/330
f 303/99/331 358/114/331 304/100/331
f 304/100/332 357/107/332 307/103/332
f 306/104/333 355/115/333 305/101/333
f 354/112/334 303/99/334 302/102/334
f 361/65/335 360/97/335 359/63/335
f 361/65/336 364/66/336 362/64/336
f 363/67/337 366/68/337 364/66/337
f 367/70/338 366/68/338 365/69/338
f 368/74/339 373/68/339 366/68/339
f 416/116/340 359/63/340 360/97/340
f 162/97/341 171/75/341 415/116/341
f 381/65/342 386/67/342 387/117/342
f 177/76/343 379/74/343 374/74/343
f 372/66/344 362/64/344 364/66/344
f 362/64/345 370/97/345 360/97/345
f 373/68/346 364/66/346 366/68/346
f 379/71/347 183/124/347 375/132/347
f 378/68/348 372/66/348 373/68/348
f 371/64/349 375/97/349 370/97/349
f 375/118/350 177/76/350 370/118/350
f 379/74/351 373/68/351 374/74/351
f 377/66/352 371/64/352 372/66/352
f 384/70/353 399/75/353 385/75/353
f 384/70/354 388/75/354 389/70/354
f 380/63/355 387/117/355 390/63/355
f 386/67/356 383/69/356 391/119/356
f 388/75/357 380/77/357 390/122/357
f 383/69/358 389/70/358 391/119/358
f 391/119/359 410/70/359 408/120/359
f 407/121/360 390/122/360 411/77/360
f 406/67/361 391/119/361 408/120/361
f 411/63/362 387/117/362 409/123/362
f 389/70/363 407/121/363 410/70/363
f 409/123/364 386/67/364 406/67/364
f 183/76/365 200/116/365 375/118/365
f 197/116/366 379/116/366 196/116/366
f 198/116/367 378/116/367 197/116/367
f 196/116/368 379/71/368 183/124/368
f 199/116/369 375/116/369 376/116/369
f 392/116/370 199/116/370 376/116/370
f 198/116/371 393/116/371 377/116/371
f 393/73/372 376/125/372 377/73/372
f 399/79/373 397/126/373 395/80/373
f 396/67/374 383/69/374 382/67/374
f 394/63/375 381/65/375 380/63/375
f 385/75/376 394/77/376 380/77/376
f 383/69/377 398/70/377 384/70/377
f 395/65/378 382/67/378 381/65/378
f 361/65/379 403/67/379 363/67/379
f 401/127/380 369/75/380 367/70/380
f 359/63/381 400/123/381 361/65/381
f 363/67/382 405/69/382 365/69/382
f 404/121/383 359/77/383 369/75/383
f 405/69/384 367/70/384 365/69/384
f 400/123/385 406/67/385 403/67/385
f 410/70/386 404/121/386 401/127/386
f 402/63/387 409/123/387 400/123/387
f 403/67/388 408/120/388 405/69/388
f 404/121/389 411/77/389 402/77/389
f 408/120/390 401/127/390 405/69/390
f 281/116/391 204/116/391 392/116/391
f 203/116/392 285/116/392 393/116/392
f 283/128/393 281/125/393 392/125/393
f 413/96/394 344/82/394 345/96/394
f 414/98/395 345/96/395 346/98/395
f 344/82/396 223/97/396 144/97/396
f 227/85/397 346/98/397 148/85/397
f 415/116/398 176/74/398 177/76/398
f 416/116/399 374/74/399 368/74/399
f 172/118/400 415/116/400 177/76/400
f 416/116/401 370/118/401 177/76/401
f 26/1/402 29/5/402 28/2/402
f 26/1/403 27/7/403 30/4/403
f 7/6/404 8/129/404 30/4/404
f 30/4/405 8/129/405 4/8/405
f 29/5/406 30/4/406 9/9/406
f 28/2/407 29/5/407 10/10/407
f 28/2/408 11/11/408 3/12/408
f 25/3/409 28/2/409 5/13/409
f 31/15/410 32/18/410 35/16/410
f 32/18/411 33/24/411 36/19/411
f 34/17/412 35/16/412 38/20/412
f 35/16/413 36/19/413 39/22/413
f 3/12/414 11/11/414 31/15/414
f 11/11/415 10/10/415 32/18/415
f 10/10/416 9/9/416 33/24/416
f 4/8/417 15/59/417 33/24/417
f 33/24/418 15/59/418 16/25/418
f 36/19/419 16/25/419 17/26/419
f 39/22/420 17/26/420 2/27/420
f 38/20/421 39/22/421 18/28/421
f 37/21/422 38/20/422 19/29/422
f 37/21/423 20/30/423 1/31/423
f 13/33/424 34/17/424 37/21/424
f 14/23/425 31/15/425 34/17/425
f 43/36/426 40/39/426 44/34/426
f 40/39/427 41/37/427 44/34/427
f 41/37/428 42/41/428 45/38/428
f 1/31/429 20/30/429 40/39/429
f 20/30/430 19/29/430 41/37/430
f 19/29/431 18/28/431 42/41/431
f 2/27/432 23/42/432 42/41/432
f 23/42/433 24/133/433 45/38/433
f 22/40/434 40/39/434 43/36/434
f 46/44/435 47/50/435 49/45/435
f 48/46/436 49/45/436 51/47/436
f 6/49/437 5/51/437 47/50/437
f 5/51/438 3/12/438 14/23/438
f 47/50/439 14/23/439 13/33/439
f 49/45/440 13/33/440 12/32/440
f 51/47/441 12/32/441 1/31/441
f 51/47/442 22/52/442 21/53/442
f 52/54/443 53/61/443 55/55/443
f 54/56/444 55/55/444 57/57/444
f 4/8/445 8/60/445 52/54/445
f 8/60/446 7/130/446 53/61/446
f 57/57/447 24/134/447 23/62/447
f 56/58/448 23/62/448 2/27/448
f 16/25/449 54/56/449 56/58/449
f 15/59/450 52/54/450 54/56/450
f 59/63/49 60/97/49 62/64/49
f 61/65/50 62/64/50 64/66/50
f 63/67/51 64/66/51 66/68/51
f 66/68/451 68/74/451 67/70/451
f 64/73/53 62/125/53 68/71/53
f 62/125/53 60/135/53 70/124/53
f 68/71/53 62/125/53 70/124/53
f 68/74/54 70/76/54 69/75/54
f 70/76/55 60/118/55 59/77/55
f 69/79/56 59/136/56 61/80/56
f 61/80/56 63/131/56 67/78/56
f 63/131/56 65/126/56 67/78/56
f 86/81/452 72/97/452 97/82/452
f 100/84/453 98/98/453 80/85/453
f 84/87/454 85/92/454 79/88/454
f 75/89/455 83/94/455 84/87/455
f 82/90/456 83/94/456 75/89/456
f 71/63/457 81/95/457 82/90/457
f 100/84/458 90/86/458 85/92/458
f 101/93/459 100/84/459 84/87/459
f 99/83/460 101/93/460 83/94/460
f 81/95/461 86/81/461 99/83/461
f 97/82/462 92/82/462 93/96/462
f 72/97/463 91/97/463 92/82/463
f 98/98/464 96/96/464 93/96/464
f 80/85/465 98/98/465 94/98/465
f 76/99/466 74/102/466 97/82/466
f 78/100/467 76/99/467 96/96/467
f 87/101/468 99/83/468 97/82/468
f 78/100/469 98/98/469 100/84/469
f 89/103/470 100/84/470 101/93/470
f 87/101/471 88/104/471 101/93/471
f 150/105/472 149/110/472 104/100/472
f 151/106/473 106/104/473 107/103/473
f 154/108/474 153/109/474 102/102/474
f 150/105/475 103/99/475 102/102/475
f 151/106/476 154/108/476 105/101/476
f 152/107/477 107/103/477 104/100/477
f 155/111/478 109/99/478 108/102/478
f 158/113/479 157/115/479 111/101/479
f 160/114/480 159/107/480 113/103/480
f 155/111/481 160/114/481 110/100/481
f 158/113/482 112/104/482 113/103/482
f 156/112/483 108/102/483 111/101/483
f 110/100/484 116/100/484 115/99/484
f 112/104/485 132/104/485 133/103/485
f 108/102/486 114/102/486 117/101/486
f 108/102/487 109/99/487 115/99/487
f 111/101/488 117/101/488 118/104/488
f 110/100/489 113/103/489 119/103/489
f 114/102/490 115/99/490 121/99/490
f 117/101/96 123/101/96 124/104/96
f 119/103/491 125/103/491 122/100/491
f 115/99/492 116/100/492 122/100/492
f 119/103/99 118/104/99 124/104/99
f 117/101/493 114/102/493 120/102/493
f 124/104/494 130/104/494 131/103/494
f 123/101/495 120/102/495 126/102/495
f 121/99/496 127/99/496 126/102/496
f 124/104/497 123/101/497 129/101/497
f 125/103/498 131/103/498 128/100/498
f 121/99/499 122/100/499 128/100/499
f 132/104/107 136/104/107 137/103/107
f 118/104/500 134/104/500 132/104/500
f 119/103/501 135/103/501 134/104/501
f 119/103/502 113/103/502 133/103/502
f 139/103/503 137/103/503 141/103/503
f 135/103/112 133/103/112 137/103/112
f 135/103/113 139/103/113 138/104/113
f 134/104/114 138/104/114 136/104/114
f 141/103/504 140/104/504 142/104/504
f 139/103/505 143/103/505 142/104/505
f 138/104/506 142/104/506 140/104/506
f 136/104/507 140/104/507 141/103/507
f 94/98/508 93/96/508 146/96/508
f 91/97/509 144/97/509 145/82/509
f 94/98/510 147/98/510 148/85/510
f 92/82/511 145/82/511 146/96/511
f 128/100/512 131/103/512 130/104/512
f 127/99/513 130/104/513 129/101/513
f 89/103/514 152/107/514 149/110/514
f 88/104/515 87/101/515 154/108/515
f 74/102/516 76/99/516 150/105/516
f 87/101/517 74/102/517 153/109/517
f 88/104/518 151/106/518 152/107/518
f 78/100/519 149/110/519 150/105/519
f 102/102/520 156/112/520 157/115/520
f 106/104/521 158/113/521 159/107/521
f 103/99/522 104/100/522 160/114/522
f 104/100/523 107/103/523 159/107/523
f 106/104/524 105/101/524 157/115/524
f 103/99/525 155/111/525 156/112/525
f 162/97/526 164/64/526 163/65/526
f 163/65/527 164/64/527 166/66/527
f 165/67/528 166/66/528 168/68/528
f 168/68/529 170/74/529 169/70/529
f 170/74/530 168/68/530 175/68/530
f 368/74/531 367/70/531 369/75/531
f 170/74/532 415/116/532 171/75/532
f 190/67/533 186/67/533 185/65/533
f 177/76/534 176/74/534 182/74/534
f 164/64/535 173/64/535 174/66/535
f 164/64/536 162/97/536 172/97/536
f 166/66/537 174/66/537 175/68/537
f 180/73/538 179/125/538 182/71/538
f 179/125/539 178/132/539 182/71/539
f 178/132/540 183/124/540 182/71/540
f 174/66/541 180/66/541 181/68/541
f 173/64/542 172/97/542 178/97/542
f 177/76/543 183/76/543 178/118/543
f 175/68/544 181/68/544 182/74/544
f 173/64/545 179/64/545 180/66/545
f 188/70/546 189/75/546 210/75/546
f 192/75/547 189/75/547 188/70/547
f 191/117/548 185/65/548 184/63/548
f 190/67/549 195/119/549 187/69/549
f 192/75/550 194/122/550 184/77/550
f 193/70/551 188/70/551 187/69/551
f 221/70/552 193/70/552 195/119/552
f 218/121/553 222/77/553 194/122/553
f 217/67/554 219/120/554 195/119/554
f 222/63/555 220/123/555 191/117/555
f 218/121/556 192/75/556 193/70/556
f 220/123/557 217/67/557 190/67/557
f 182/116/558 181/116/558 197/116/558
f 181/116/559 180/116/559 198/116/559
f 199/116/560 179/116/560 178/116/560
f 199/116/561 204/116/561 201/116/561
f 198/116/562 180/116/562 202/116/562
f 179/125/563 201/125/563 202/73/563
f 210/79/564 205/137/564 206/80/564
f 206/80/565 207/131/565 208/126/565
f 208/126/566 209/78/566 210/79/566
f 187/69/567 208/69/567 207/67/567
f 185/65/568 206/65/568 205/63/568
f 189/75/569 184/77/569 205/77/569
f 187/69/570 188/70/570 209/70/570
f 186/67/571 207/67/571 206/65/571
f 163/65/572 165/67/572 214/67/572
f 171/75/573 215/121/573 212/127/573
f 161/63/574 163/65/574 211/123/574
f 165/67/575 167/69/575 216/69/575
f 161/77/576 213/77/576 215/121/576
f 169/70/577 212/127/577 216/69/577
f 211/123/578 214/67/578 217/67/578
f 215/121/579 218/121/579 221/70/579
f 213/63/580 211/123/580 220/123/580
f 214/67/581 216/69/581 219/120/581
f 215/121/582 213/77/582 222/77/582
f 212/127/583 221/70/583 219/120/583
f 204/116/584 71/116/584 73/116/584
f 203/116/585 202/116/585 77/116/585
f 77/73/586 202/73/586 75/128/586
f 202/73/587 201/125/587 75/128/587
f 145/82/588 224/82/588 225/96/588
f 146/96/197 225/96/197 226/98/197
f 145/82/589 144/97/589 223/97/589
f 147/98/590 226/98/590 227/85/590
f 248/2/591 249/5/591 26/1/591
f 26/1/592 249/5/592 250/4/592
f 250/4/593 233/129/593 7/6/593
f 250/4/594 234/9/594 231/8/594
f 249/5/595 235/10/595 234/9/595
f 248/2/596 236/11/596 235/10/596
f 230/12/597 236/11/597 248/2/597
f 232/13/598 248/2/598 25/3/598
f 251/15/599 254/17/599 255/16/599
f 252/18/600 255/16/600 256/19/600
f 254/17/601 257/21/601 258/20/601
f 255/16/602 258/20/602 259/22/602
f 230/12/603 239/23/603 251/15/603
f 236/11/604 251/15/604 252/18/604
f 235/10/605 252/18/605 253/24/605
f 253/24/606 240/59/606 231/8/606
f 253/24/607 256/19/607 241/25/607
f 256/19/608 259/22/608 242/26/608
f 259/22/609 243/28/609 229/27/609
f 258/20/610 244/29/610 243/28/610
f 257/21/611 245/30/611 244/29/611
f 228/31/612 245/30/612 257/21/612
f 238/33/613 237/32/613 257/21/613
f 239/23/614 238/33/614 254/17/614
f 261/37/615 260/39/615 44/34/615
f 260/39/616 43/36/616 44/34/616
f 261/37/617 44/34/617 45/38/617
f 228/31/618 246/40/618 260/39/618
f 245/30/619 260/39/619 261/37/619
f 244/29/620 261/37/620 262/41/620
f 262/41/621 247/42/621 229/27/621
f 45/38/622 24/133/622 247/42/622
f 246/40/623 21/43/623 43/36/623
f 46/44/624 48/46/624 264/45/624
f 48/46/625 50/48/625 265/47/625
f 6/49/626 46/44/626 263/50/626
f 232/51/627 263/50/627 239/23/627
f 263/50/628 264/45/628 238/33/628
f 264/45/629 265/47/629 237/32/629
f 265/47/630 246/52/630 228/31/630
f 21/53/631 246/52/631 265/47/631
f 266/54/632 267/56/632 55/55/632
f 267/56/633 268/58/633 57/57/633
f 231/8/634 240/59/634 266/54/634
f 233/60/635 266/54/635 53/61/635
f 247/62/636 24/134/636 57/57/636
f 229/27/637 247/62/637 268/58/637
f 241/25/638 242/26/638 268/58/638
f 240/59/639 241/25/639 267/56/639
f 269/63/247 271/65/247 272/64/247
f 271/65/248 273/67/248 274/66/248
f 273/67/249 275/69/249 276/68/249
f 277/70/250 278/74/250 276/68/250
f 270/135/251 272/125/251 280/124/251
f 272/125/251 274/73/251 280/124/251
f 274/73/251 276/72/251 278/71/251
f 279/75/252 280/76/252 278/74/252
f 269/77/253 270/118/253 280/76/253
f 271/80/254 269/136/254 279/79/254
f 279/79/254 277/78/254 271/80/254
f 277/78/254 275/126/254 273/131/254
f 86/81/640 299/83/640 297/82/640
f 300/84/641 90/86/641 80/85/641
f 79/88/642 85/92/642 289/87/642
f 283/89/643 285/8/643 289/87/643
f 283/89/644 288/94/644 287/90/644
f 71/63/645 281/91/645 287/90/645
f 85/92/646 90/86/646 300/84/646
f 289/87/647 300/84/647 301/93/647
f 288/94/648 301/93/648 299/83/648
f 81/95/649 287/90/649 299/83/649
f 294/96/650 293/82/650 297/82/650
f 293/82/651 91/97/651 72/97/651
f 298/98/652 295/98/652 294/96/652
f 80/85/653 95/85/653 295/98/653
f 284/99/654 296/96/654 297/82/654
f 286/100/655 298/98/655 296/96/655
f 297/82/656 299/83/656 290/101/656
f 300/84/657 298/98/657 286/100/657
f 301/93/658 300/84/658 292/103/658
f 290/101/659 299/83/659 301/93/659
f 348/105/660 303/99/660 304/100/660
f 307/103/661 306/104/661 349/106/661
f 352/108/662 305/101/662 302/102/662
f 302/102/663 303/99/663 348/105/663
f 349/106/664 306/104/664 305/101/664
f 304/100/665 307/103/665 350/107/665
f 308/102/666 309/99/666 353/111/666
f 356/113/667 312/104/667 311/101/667
f 358/114/668 310/100/668 313/103/668
f 353/111/669 309/99/669 310/100/669
f 313/103/670 312/104/670 356/113/670
f 311/101/671 308/102/671 354/112/671
f 315/99/672 316/100/672 310/100/672
f 333/103/673 332/104/673 312/104/673
f 317/101/674 314/102/674 308/102/674
f 308/102/675 314/102/675 315/99/675
f 318/104/676 317/101/676 311/101/676
f 310/100/677 316/100/677 319/103/677
f 314/102/678 320/102/678 321/99/678
f 324/104/294 323/101/294 317/101/294
f 322/100/679 325/103/679 319/103/679
f 315/99/680 321/99/680 322/100/680
f 319/103/297 325/103/297 324/104/297
f 317/101/681 323/101/681 320/102/681
f 331/103/682 330/104/682 324/104/682
f 323/101/683 329/101/683 326/102/683
f 326/102/684 327/99/684 321/99/684
f 324/104/685 330/104/685 329/101/685
f 328/100/686 331/103/686 325/103/686
f 321/99/687 327/99/687 328/100/687
f 337/103/305 336/104/305 332/104/305
f 332/104/688 334/104/688 318/104/688
f 334/104/689 335/103/689 319/103/689
f 319/103/690 335/103/690 333/103/690
f 339/103/691 343/103/691 341/103/691
f 335/103/310 339/103/310 337/103/310
f 338/104/311 339/103/311 335/103/311
f 336/104/312 338/104/312 334/104/312
f 341/103/692 343/103/692 342/104/692
f 342/104/693 343/103/693 339/103/693
f 340/104/694 342/104/694 338/104/694
f 341/103/695 340/104/695 336/104/695
f 295/98/696 346/98/696 345/96/696
f 344/82/697 144/97/697 91/97/697
f 148/85/698 346/98/698 295/98/698
f 345/96/699 344/82/699 293/82/699
f 328/100/700 327/99/700 330/104/700
f 327/99/701 326/102/701 329/101/701
f 347/110/702 350/107/702 292/103/702
f 291/104/703 349/106/703 352/108/703
f 282/102/704 351/109/704 348/105/704
f 290/101/705 352/108/705 351/109/705
f 350/107/706 349/106/706 291/104/706
f 348/105/707 347/110/707 286/100/707
f 355/115/708 354/112/708 302/102/708
f 357/107/709 356/113/709 306/104/709
f 303/99/710 353/111/710 358/114/710
f 304/100/711 358/114/711 357/107/711
f 306/104/712 356/113/712 355/115/712
f 354/112/713 353/111/713 303/99/713
f 361/65/714 362/64/714 360/97/714
f 361/65/715 363/67/715 364/66/715
f 363/67/716 365/69/716 366/68/716
f 367/70/717 368/74/717 366/68/717
f 368/74/718 374/74/718 373/68/718
f 416/116/719 369/75/719 359/63/719
f 162/97/720 161/63/720 171/75/720
f 381/65/721 382/67/721 386/67/721
f 177/76/722 183/76/722 379/74/722
f 372/66/723 371/64/723 362/64/723
f 362/64/724 371/64/724 370/97/724
f 373/68/725 372/66/725 364/66/725
f 375/132/726 376/125/726 379/71/726
f 376/125/727 377/73/727 379/71/727
f 377/73/728 378/72/728 379/71/728
f 378/68/729 377/66/729 372/66/729
f 371/64/730 376/64/730 375/97/730
f 375/118/731 183/76/731 177/76/731
f 379/74/732 378/68/732 373/68/732
f 377/66/733 376/64/733 371/64/733
f 384/70/734 398/70/734 399/75/734
f 384/70/735 385/75/735 388/75/735
f 380/63/736 381/65/736 387/117/736
f 386/67/737 382/67/737 383/69/737
f 388/75/738 385/75/738 380/77/738
f 383/69/739 384/70/739 389/70/739
f 391/119/740 389/70/740 410/70/740
f 407/121/741 388/75/741 390/122/741
f 406/67/742 386/67/742 391/119/742
f 411/63/743 390/63/743 387/117/743
f 389/70/744 388/75/744 407/121/744
f 409/123/745 387/117/745 386/67/745
f 197/116/746 378/116/746 379/116/746
f 198/116/747 377/116/747 378/116/747
f 199/116/748 200/116/748 375/116/748
f 392/116/749 204/116/749 199/116/749
f 198/116/750 203/116/750 393/116/750
f 393/73/751 392/125/751 376/125/751
f 395/80/752 394/137/752 399/79/752
f 399/79/373 398/78/373 397/126/373
f 397/126/373 396/131/373 395/80/373
f 396/67/753 397/69/753 383/69/753
f 394/63/754 395/65/754 381/65/754
f 385/75/755 399/75/755 394/77/755
f 383/69/756 397/69/756 398/70/756
f 395/65/757 396/67/757 382/67/757
f 361/65/758 400/123/758 403/67/758
f 401/127/759 404/121/759 369/75/759
f 359/63/760 402/63/760 400/123/760
f 363/67/761 403/67/761 405/69/761
f 404/121/762 402/77/762 359/77/762
f 405/69/763 401/127/763 367/70/763
f 400/123/764 409/123/764 406/67/764
f 410/70/765 407/121/765 404/121/765
f 402/63/766 411/63/766 409/123/766
f 403/67/767 406/67/767 408/120/767
f 404/121/768 407/121/768 411/77/768
f 408/120/769 410/70/769 401/127/769
f 281/116/770 71/116/770 204/116/770
f 203/116/771 79/116/771 285/116/771
f 392/125/772 393/73/772 283/128/772
f 393/73/773 285/73/773 283/128/773
f 413/96/774 412/82/774 344/82/774
f 414/98/395 413/96/395 345/96/395
f 344/82/775 412/82/775 223/97/775
f 227/85/776 414/98/776 346/98/776
f 415/116/777 170/74/777 176/74/777
f 416/116/778 177/76/778 374/74/778
f 172/118/779 162/97/779 415/116/779
f 416/116/780 360/97/780 370/118/780
