# Blender 5.0.0
# www.blender.org
o body
v 0.496492 -0.836496 9.854917
v 0.583336 -0.739346 11.125854
v 0.476577 0.278155 9.922174
v 0.565221 0.486406 11.161567
v 0.246627 0.341088 9.826285
v -0.000000 0.369678 9.771605
v -0.000000 0.658669 11.295212
v 0.340386 0.599495 11.250697
v 0.631619 0.554539 10.920234
v 0.646511 0.545035 10.561342
v 0.576865 0.424383 10.189563
v 0.562963 -0.631520 9.768820
v 0.591550 -0.317049 9.740117
v 0.550611 0.022595 9.811213
v 0.654626 0.225672 11.240901
v 0.703310 -0.145583 11.273796
v 0.665741 -0.502555 11.219952
v 0.654036 -0.830154 10.872952
v 0.671875 -0.892060 10.500275
v 0.600616 -0.885222 10.120780
v -0.000000 -0.970373 9.689022
v 0.267098 -0.925011 9.748082
v 0.358752 -0.817453 11.213658
v -0.000000 -0.856363 11.258846
v -0.000000 0.674132 10.142843
v -0.000000 0.858995 10.561539
v -0.000000 0.860968 10.967233
v 0.290903 0.614872 10.168796
v 0.337850 0.778810 10.564816
v 0.344425 0.778265 10.947556
v 0.749642 0.108478 10.149247
v 0.841644 0.194318 10.546669
v 0.811618 0.221480 10.932364
v 0.812126 -0.260919 10.106091
v 0.912852 -0.205322 10.526883
v 0.878665 -0.167071 10.938103
v 0.764291 -0.610047 10.108773
v 0.857600 -0.587271 10.510598
v 0.825386 -0.539852 10.904732
v 0.317045 -1.052687 10.084722
v 0.365526 -1.074153 10.368983
v 0.369003 -0.996871 10.892408
v -0.000000 -1.112858 10.106902
v -0.000000 -1.133464 10.364055
v -0.000000 -1.050112 10.912006
v -0.000000 0.004889 9.505427
v 0.255090 0.002209 9.590926
v -0.000000 -0.369841 9.390015
v 0.272938 -0.355472 9.489163
v -0.000000 -0.709899 9.455910
v 0.266506 -0.681006 9.543595
v 0.373244 0.271111 11.427508
v -0.000000 0.302962 11.491364
v 0.399412 -0.129139 11.480133
v -0.000000 -0.120306 11.549863
v 0.383312 -0.515705 11.408474
v -0.000000 -0.530811 11.473042
v -0.000000 -1.256591 10.175163
v 0.899103 0.129189 10.536014
v 0.964296 0.059744 10.557099
v 0.972883 0.157159 10.353655
v 1.038076 0.087714 10.374741
v 0.910948 0.053346 10.110514
v 0.976141 -0.016099 10.131599
v 0.775233 -0.078438 10.049728
v 0.840426 -0.147883 10.070814
v 0.701452 -0.106409 10.232087
v 0.766645 -0.175854 10.253173
v 0.763387 -0.002596 10.475229
v 0.828580 -0.072040 10.496315
v 0.000000 0.608116 6.918675
v -0.000044 0.615999 9.067161
v 0.504716 0.474076 6.733058
v 0.828687 0.208444 8.650497
v 0.598099 0.170519 6.690756
v 0.958560 0.098099 8.983180
v 0.495931 -0.140187 6.640284
v 0.866681 -0.236988 8.982293
v -0.000000 -0.261991 6.779770
v 0.000047 -0.518792 8.755060
v -0.000000 0.657830 7.551734
v 0.570493 0.454756 7.558987
v 0.767013 0.032350 7.575442
v 0.571965 -0.302986 7.582118
v -0.000000 -0.421472 7.551734
v 0.000170 0.705414 8.638699
v 0.703873 0.172688 8.220364
v 0.718584 -0.138493 8.173740
v 0.697220 -0.405744 8.396267
v 0.000471 -0.490485 8.425598
v -0.000000 0.515979 9.238010
v 0.439957 0.410106 9.184787
v 0.633968 0.102413 9.188788
v 0.435098 -0.200620 9.200502
v -0.000000 -0.334730 9.030394
v 0.958131 0.104071 8.992804
v 0.710281 0.384129 8.840765
v 0.738373 -0.253216 9.101536
v 0.614363 0.378137 8.115803
v 0.622105 -0.390982 8.407270
v 0.716547 -0.115929 8.156922
v 1.568590 -0.378182 7.083269
v 1.659664 -0.521794 7.153186
v 1.563783 -0.718391 7.252186
v 1.164626 -0.439582 6.937963
v 1.097363 -0.606714 6.948054
v 1.161221 -0.782502 7.100953
v 1.945255 -1.167800 5.851336
v 2.010613 -1.290208 5.927366
v 1.943098 -1.416954 6.025721
v 1.639241 -1.210360 5.787144
v 1.585652 -1.350735 5.829816
v 1.637634 -1.461455 5.958531
v 1.971341 -1.154458 5.746425
v 2.060320 -1.288689 5.909538
v 1.988728 -1.534924 6.033961
v 1.817345 -1.244839 5.624068
v 1.787556 -1.407202 5.721516
v 1.815936 -1.671193 5.908444
v 2.245108 -1.330284 5.357398
v 2.301629 -1.554464 5.501040
v 2.243237 -1.816000 5.684125
v 2.084489 -1.486223 5.253098
v 2.054700 -1.648585 5.350545
v 2.083079 -1.912577 5.537475
v 2.184897 -1.720442 4.918854
v 2.196027 -1.892354 4.986989
v 2.184794 -2.057118 5.145910
v 2.094474 -1.748405 5.010520
v 2.068139 -1.848528 5.051157
v 2.093664 -2.025893 5.194963
v 1.576255 -1.509129 5.677842
v 1.607688 -1.598021 5.797050
v 1.771188 -1.529057 5.628837
v 1.791478 -1.751561 5.794165
v 1.628967 -1.668659 5.527338
v 1.654723 -1.741497 5.625017
v 1.788695 -1.684988 5.487184
v 1.805320 -1.867307 5.622653
v 1.704688 -1.836416 5.369455
v 1.715496 -1.886447 5.441998
v 1.822496 -1.833062 5.363890
v 1.831651 -1.961667 5.462568
v -0.000000 0.404502 9.368552
v 0.158780 0.287954 9.340157
v 0.252719 0.101461 9.276636
v 0.182110 -0.006843 9.276636
v -0.000000 -0.116119 9.238608
v 1.513434 -0.698260 7.360456
v 1.609289 -0.483225 7.287221
v 1.078662 -0.581343 7.003784
v 1.131923 -0.770686 7.159712
v 1.519809 -0.333338 7.213566
v 1.136022 -0.404979 7.016318
v 1.698774 -0.568819 7.040670
v 1.610227 -0.432639 6.961965
v 1.199532 -0.492722 6.858439
v 1.127227 -0.652925 6.891354
v 1.197575 -0.806917 7.058476
v 1.606347 -0.747178 7.163126
v 0.508211 1.459677 4.299299
v 0.519509 0.980228 5.587280
v 0.863355 1.271694 4.189169
v 1.026829 0.729092 5.698417
v 0.863355 1.024418 4.070490
v 1.028275 0.317573 5.408161
v 0.508191 0.838990 3.981094
v 0.513592 0.142068 5.188519
v 0.152952 1.027145 4.084197
v 0.144936 0.278043 5.384232
v 0.153066 1.266428 4.215925
v 0.512164 0.935628 5.845550
v 1.018174 0.620102 5.856821
v 1.020134 0.204296 5.577744
v 0.515757 0.064777 5.296024
v 0.136937 0.192749 5.479554
v -0.000000 0.755119 5.640575
v 0.418974 0.887700 5.974700
v 0.879472 0.473398 6.199713
v 0.876436 -0.034261 6.021788
v 0.449171 -0.135017 5.624596
v 0.134332 0.096053 5.614159
v -0.000000 0.819754 5.765333
v 0.430883 2.868771 2.427125
v 0.691278 2.753450 2.330673
v 0.691278 2.522810 2.137770
v 0.430883 2.407460 2.041265
v 0.170489 2.522613 2.137460
v 0.170489 2.753450 2.330673
v 0.822906 1.451568 3.556302
v 0.822906 1.648591 3.705253
v 0.152560 1.613899 3.681264
v 0.152560 1.416510 3.532204
v 0.487733 1.805362 3.862287
v 0.487733 1.051847 3.697391
v -0.000000 0.004835 5.732344
v -0.000000 -0.191809 5.830102
v -0.000000 -0.268161 6.089598
v 0.000000 0.809372 6.329749
v -0.000000 0.836059 6.019190
v 0.713104 0.432670 6.495982
v 0.709689 -0.106247 6.374014
v -0.000000 -0.237087 6.439538
v 0.000000 0.628045 6.669672
v 0.430883 3.739925 1.045106
v 0.625711 3.676454 0.951579
v 0.625711 3.542133 0.753248
v 0.430883 3.477867 0.660880
v 0.236055 3.537919 0.761877
v 0.236055 3.676289 0.950805
v 0.856043 1.321802 4.095528
v 0.152881 1.085257 3.973179
v 0.504509 1.510175 4.223010
v 0.856043 1.091786 3.968575
v 0.152975 1.321852 4.113809
v 0.504493 0.873869 3.926256
v 0.847217 1.178903 3.848315
v 0.152864 1.391646 3.996469
v 0.500029 0.917947 3.860484
v 0.847217 1.400856 3.989699
v 0.152796 1.167325 3.849820
v 0.500041 1.556003 4.112366
v -0.000000 0.330200 10.009454
v 0.182652 0.209765 10.009454
v 0.252719 0.101461 10.009454
v 0.182110 -0.006843 10.009454
v -0.000000 -0.127185 9.954380
v -0.496493 -0.836496 9.854917
v -0.583336 -0.739346 11.125854
v -0.476577 0.278155 9.922174
v -0.565221 0.486406 11.161567
v -0.246627 0.341088 9.826285
v -0.340386 0.599495 11.250697
v -0.631619 0.554539 10.920234
v -0.646511 0.545035 10.561342
v -0.576865 0.424383 10.189563
v -0.562963 -0.631520 9.768820
v -0.591550 -0.317049 9.740117
v -0.550611 0.022595 9.811213
v -0.654626 0.225672 11.240901
v -0.703310 -0.145583 11.273796
v -0.665741 -0.502555 11.219952
v -0.654036 -0.830154 10.872952
v -0.671875 -0.892060 10.500275
v -0.600616 -0.885222 10.120780
v -0.267098 -0.925011 9.748082
v -0.358752 -0.817453 11.213658
v -0.290903 0.614872 10.168796
v -0.337850 0.778810 10.564816
v -0.344425 0.778265 10.947556
v -0.749642 0.108478 10.149247
v -0.841644 0.194318 10.546669
v -0.811618 0.221480 10.932364
v -0.812126 -0.260919 10.106091
v -0.912852 -0.205322 10.526883
v -0.878665 -0.167071 10.938103
v -0.764291 -0.610047 10.108773
v -0.857600 -0.587271 10.510598
v -0.825386 -0.539852 10.904732
v -0.317045 -1.052687 10.084722
v -0.365526 -1.074153 10.368983
v -0.369003 -0.996871 10.892408
v -0.255090 0.002209 9.590926
v -0.272938 -0.355472 9.489163
v -0.266506 -0.681006 9.543595
v -0.373244 0.271111 11.427508
v -0.399412 -0.129139 11.480133
v -0.383312 -0.515705 11.408474
v -0.899103 0.129189 10.536014
v -0.964296 0.059744 10.557099
v -0.972883 0.157159 10.353655
v -1.038076 0.087714 10.374741
v -0.910948 0.053346 10.110514
v -0.976141 -0.016099 10.131599
v -0.775233 -0.078438 10.049728
v -0.840426 -0.147883 10.070814
v -0.701452 -0.106409 10.232087
v -0.766645 -0.175854 10.253173
v -0.763387 -0.002596 10.475229
v -0.828580 -0.072040 10.496315
v -0.504526 0.476275 6.798856
v -0.822803 0.463169 8.800383
v -0.598793 0.169840 6.756153
v -0.956865 0.151674 8.952448
v -0.495657 -0.121184 6.717533
v -0.863507 -0.099322 8.733016
v -0.567972 0.559497 7.596218
v -0.761963 0.246915 7.589237
v -0.569749 -0.197142 7.559925
v -0.690353 0.707987 8.445663
v -0.702304 0.512673 8.204426
v -0.684347 0.145122 8.190804
v -0.440481 0.382000 9.208706
v -0.634099 0.089135 9.183232
v -0.435344 -0.214202 9.176633
v -0.956593 0.148862 8.964127
v -0.708893 0.435643 8.958634
v -0.738345 -0.252402 8.998773
v -0.607339 0.651617 8.256155
v -0.616832 -0.188241 8.285961
v -0.701799 0.473728 8.184257
v -1.530435 1.244029 7.314643
v -1.621258 1.094909 7.260158
v -1.525481 0.888580 7.184194
v -1.126402 1.307219 7.168949
v -1.059566 1.185776 7.051808
v -1.122864 0.954721 7.030989
v -1.962687 1.550601 5.907478
v -2.028086 1.409550 5.878094
v -1.960022 1.250909 5.855807
v -1.660334 1.568327 5.818906
v -1.608554 1.439072 5.748126
v -1.658376 1.269361 5.763764
v -1.992290 1.633685 5.843560
v -2.078365 1.422728 5.868643
v -2.008101 1.160904 5.780609
v -1.845081 1.657007 5.686587
v -1.815584 1.473365 5.640214
v -1.843318 1.154028 5.588307
v -2.284264 1.780142 5.455610
v -2.340761 1.519296 5.402209
v -2.281889 1.205195 5.345591
v -2.131328 1.744251 5.265042
v -2.101831 1.560609 5.218669
v -2.129565 1.241272 5.166762
v -2.249479 1.812245 4.867455
v -2.262166 1.642081 4.795320
v -2.249005 1.413296 4.791659
v -2.156435 1.728683 4.908938
v -2.131002 1.629203 4.866199
v -2.155418 1.401773 4.844523
v -1.608506 1.433623 5.528482
v -1.637631 1.286294 5.551853
v -1.805526 1.452196 5.488041
v -1.824990 1.177603 5.449653
v -1.670482 1.425770 5.311740
v -1.694347 1.305049 5.330890
v -1.831919 1.440988 5.278603
v -1.847867 1.215989 5.247148
v -1.755910 1.417059 5.084960
v -1.765226 1.330365 5.101686
v -1.873730 1.422291 5.088413
v -1.882295 1.261406 5.068330
v -0.158780 0.287954 9.340157
v -0.252719 0.101461 9.276636
v -0.182110 -0.006843 9.276636
v -1.479660 0.822626 7.264391
v -1.575531 1.022493 7.372393
v -1.040725 1.161681 7.113751
v -1.094986 0.919269 7.079149
v -1.485972 1.177268 7.433708
v -1.099151 1.271379 7.252348
v -1.659682 1.141577 7.158138
v -1.571072 1.293647 7.196618
v -1.164135 1.328008 7.066722
v -1.094099 1.191960 6.973672
v -1.161702 0.965243 6.985689
v -1.566810 0.930549 7.113407
v -0.508053 -0.720186 4.239992
v -0.519458 0.425330 5.237288
v -0.866564 -0.905704 4.357462
v -1.031588 0.205009 5.539633
v -0.866564 -1.127197 4.524937
v -1.033048 -0.249171 5.775086
v -0.508034 -1.293553 4.650066
v -0.513485 -0.528368 5.807896
v -0.149427 -1.114226 4.529046
v -0.141336 -0.199815 5.637154
v -0.149542 -0.880269 4.365507
v -0.512044 0.657160 5.502163
v -1.022851 0.340631 5.715092
v -1.024829 -0.135785 5.920692
v -0.515671 -0.450365 5.865625
v -0.133260 -0.117800 5.684097
v -0.417970 0.776541 5.718161
v -0.882834 0.491990 6.236942
v -0.879769 0.013052 6.242219
v -0.448454 -0.313447 6.010648
v -0.130631 -0.027276 5.742421
v -0.429993 -1.755923 2.118595
v -0.658826 -1.878511 2.167860
v -0.658826 -2.123686 2.266390
v -0.429993 -2.246274 2.315656
v -0.201160 -2.123686 2.266390
v -0.201160 -1.878511 2.167860
v -0.825732 -1.391452 3.903710
v -0.825732 -1.163773 3.798866
v -0.149031 -1.201663 3.818289
v -0.149031 -1.429528 3.923339
v -0.487381 -0.948978 3.734087
v -0.487381 -1.455619 4.326736
v -0.714889 0.439396 6.557209
v -0.711441 -0.050046 6.485736
v -0.429993 -2.532322 0.670400
v -0.608102 -2.632684 0.699290
v -0.608102 -2.820549 0.787557
v -0.429993 -2.913600 0.831560
v -0.251883 -2.819828 0.788210
v -0.251883 -2.632771 0.699279
v -0.859183 -0.969317 4.272021
v -0.149356 -1.190472 4.426638
v -0.504316 -0.767082 4.163452
v -0.859183 -1.189664 4.418042
v -0.149450 -0.952940 4.280584
v -0.504300 -1.328483 4.593426
v -0.850273 -1.259746 4.285004
v -0.149338 -1.026209 4.164918
v -0.499794 -1.369298 4.523322
v -0.850273 -1.028044 4.153529
v -0.149269 -1.264054 4.296000
v -0.499806 -0.844845 4.072956
v -0.182652 0.209765 10.009454
v -0.252719 0.101461 10.009454
v -0.182110 -0.006843 10.009454
v 0.213411 0.657455 5.547586
v -0.199640 0.448666 5.391373
vn 0.2171 0.8930 -0.3943
vn 0.2309 0.9730 -0.0026
vn 0.2282 0.8287 0.5111
vn 0.5934 0.7171 0.3657
vn 0.6038 0.7971 0.0039
vn 0.5368 0.7678 -0.3497
vn 0.4335 0.6757 -0.5962
vn 0.2244 0.7535 -0.6180
vn 0.9488 0.1900 -0.2522
vn 0.9829 0.1719 0.0657
vn 0.9669 -0.1341 -0.2169
vn 0.9843 -0.1466 0.0981
vn 0.7198 0.4412 -0.5359
vn 0.8218 0.4872 -0.2955
vn 0.8739 0.4848 0.0339
vn 0.8176 0.4547 0.3533
vn 0.8793 0.1584 0.4492
vn 0.8717 -0.1659 0.4611
vn 0.7717 -0.4987 0.3948
vn 0.8452 -0.5193 0.1267
vn 0.8441 -0.5094 -0.1677
vn 0.7852 -0.4383 -0.4373
vn 0.8572 -0.1236 -0.4999
vn 0.8229 0.2097 -0.5281
vn 1.0000 -0.0000 -0.0000
vn 0.1564 -0.9765 0.1485
vn 0.4800 -0.7943 -0.3725
vn 0.5169 -0.8425 -0.1518
vn 0.4664 -0.8756 0.1262
vn 0.4808 -0.7739 0.4123
vn 0.1500 -0.8611 0.4857
vn 0.2261 -0.9220 -0.3144
vn 0.3148 0.2794 -0.9071
vn 0.3250 -0.1799 -0.9284
vn 0.2669 0.5681 -0.7785
vn 0.4934 0.5045 -0.7086
vn 0.5804 0.2495 -0.7751
vn 0.6137 -0.1420 -0.7766
vn 0.5175 -0.5489 -0.6564
vn 0.3026 -0.6356 -0.7102
vn 0.1733 0.1395 0.9749
vn 0.1703 -0.1865 0.9676
vn 0.5492 0.4099 0.7283
vn 0.1876 0.4801 0.8569
vn 0.1601 -0.5446 0.8233
vn 0.5064 -0.4648 0.7263
vn 0.5518 -0.1809 0.8141
vn 0.5611 0.1458 0.8148
vn 0.6237 0.6944 0.3588
vn 0.7220 0.5506 -0.4190
vn 0.3616 0.0569 -0.9306
vn -0.6237 -0.6944 -0.3589
vn 0.6532 -0.7421 0.1505
vn -0.7220 -0.5506 0.4190
vn -0.3616 -0.0569 0.9306
vn -0.6532 0.7421 -0.1505
vn 0.4264 0.9023 -0.0639
vn 0.1551 -0.9843 -0.0844
vn 0.1860 -0.9656 -0.1819
vn 0.9482 -0.2912 -0.1269
vn 0.9508 0.3021 -0.0687
vn 0.2574 0.9663 0.0021
vn 0.2074 -0.9713 -0.1162
vn 0.8627 -0.5029 -0.0534
vn 0.9068 0.4214 -0.0135
vn 0.3324 0.9375 0.1028
vn 0.3781 0.6773 0.6311
vn 0.3651 0.9050 0.2185
vn 0.2833 -0.1493 0.9474
vn 0.0389 -0.8307 0.5553
vn 0.7894 0.5368 -0.2979
vn 0.6802 -0.2041 0.7041
vn 0.6559 0.7124 -0.2496
vn -0.1392 -0.9402 0.3110
vn -0.3733 -0.5758 -0.7274
vn 0.8720 0.1413 -0.4687
vn 0.8869 -0.2312 0.3999
vn -0.8175 -0.4853 -0.3100
vn 0.0055 0.9155 -0.4023
vn 0.8256 0.5515 0.1193
vn -0.8472 0.3151 -0.4277
vn 0.0720 -0.9740 0.2146
vn 0.8561 0.5106 -0.0797
vn -0.8552 0.1785 -0.4867
vn 0.0130 -0.8599 0.5102
vn 0.9064 -0.1902 0.3771
vn -0.8773 -0.4750 -0.0684
vn 0.0171 0.8339 -0.5516
vn 0.2809 0.4905 0.8249
vn -0.9523 -0.1219 0.2797
vn -0.0737 0.9564 -0.2827
vn 0.6378 0.7281 0.2512
vn -0.4881 -0.0779 -0.8693
vn -0.5089 -0.1375 0.8498
vn 0.8148 0.4442 0.3726
vn -0.8462 -0.1514 -0.5109
vn 0.0991 -0.7393 0.6661
vn 0.8864 0.1159 0.4482
vn -0.8523 -0.3602 -0.3793
vn -0.2652 0.7097 -0.6527
vn -0.9945 -0.1043 0.0038
vn -0.6949 0.4740 -0.5409
vn 0.9695 0.1014 -0.2233
vn -0.9680 0.1864 -0.1680
vn 0.1933 -0.9030 0.3836
vn 0.9824 -0.1601 -0.0966
vn -0.9467 -0.3219 0.0096
vn -0.1855 0.6860 -0.7035
vn 0.9867 -0.0090 -0.1625
vn -0.5251 -0.6392 0.5619
vn -0.5517 -0.7550 0.3543
vn -0.5765 -0.6981 0.4246
vn 0.9949 0.1002 0.0127
vn -0.1189 0.6603 -0.7415
vn -0.2543 -0.6001 -0.7585
vn 0.9844 0.1534 0.0857
vn -0.1220 0.6505 -0.7497
vn -0.9322 -0.3612 -0.0235
vn 0.1952 -0.1273 0.9725
vn 0.2256 0.5248 0.8208
vn -0.0704 -0.6880 0.7223
vn 0.2216 0.1522 0.9632
vn -0.5156 -0.5764 -0.6340
vn -0.6227 -0.3228 -0.7128
vn 0.0050 -0.9613 0.2754
vn -0.8693 0.3101 -0.3849
vn 0.8056 0.5664 0.1739
vn 0.0459 0.9070 -0.4187
vn -0.9450 -0.1614 -0.2846
vn 0.8756 -0.2412 0.4186
vn 0.0643 0.8425 -0.5348
vn -0.7600 -0.5612 -0.3278
vn 0.8983 -0.1951 0.3938
vn 0.0532 -0.9425 0.3301
vn -0.7730 0.2272 -0.5923
vn 0.8349 0.5490 0.0401
vn 0.5168 0.8038 0.2947
vn 0.9941 0.0469 -0.0978
vn 0.5004 -0.7489 -0.4345
vn -0.5169 -0.7424 -0.4262
vn -0.5013 -0.6235 -0.6000
vn 0.9963 0.0724 -0.0452
vn -1.0000 0.0029 -0.0045
vn 0.9972 0.0449 -0.0594
vn -0.9736 -0.2027 0.1050
vn 0.9992 -0.0206 0.0342
vn 0.4420 0.7275 0.5247
vn 0.4664 -0.7137 -0.5225
vn -0.4631 -0.6016 0.6508
vn 0.4443 -0.8026 -0.3980
vn 0.4335 0.7517 0.4970
vn -0.3610 0.9288 0.0842
vn -0.4878 -0.7045 -0.5155
vn 0.9614 -0.1501 0.2305
vn -0.9992 0.0324 -0.0237
vn -0.9999 0.0061 -0.0080
vn 0.5465 0.6831 0.4845
vn 0.5001 -0.6681 -0.5509
vn -0.5000 0.6652 0.5546
vn -0.4787 -0.6874 -0.5462
vn -0.4824 -0.6945 -0.5338
vn -0.6141 0.6447 0.4552
vn 0.4797 -0.6210 -0.6198
vn 0.5519 0.6039 0.5750
vn -1.0000 -0.0001 0.0006
vn 0.9979 0.0389 -0.0514
vn 0.1287 -0.9896 0.0636
vn -0.4368 -0.4005 -0.8055
vn -0.0078 -0.9593 -0.2823
vn -0.6716 0.0300 -0.7403
vn -0.1130 0.9899 0.0851
vn 0.3791 0.8639 0.3316
vn 0.1884 -0.9782 0.0869
vn 0.9054 -0.1452 0.3989
vn 0.0008 0.8255 -0.5644
vn 0.4998 -0.6860 -0.5287
vn 0.4966 0.7343 0.4628
vn -0.4723 0.7429 0.4744
vn -0.4894 -0.6891 -0.5344
vn 0.9992 0.0255 -0.0305
vn 0.9976 0.0332 -0.0601
vn -1.0000 0.0001 0.0007
vn 0.5430 0.7121 0.4450
vn 0.4984 -0.7064 -0.5027
vn -0.5083 0.7567 0.4112
vn -0.5168 -0.7377 -0.4344
vn 0.9978 0.0359 -0.0564
vn -1.0000 -0.0000 0.0007
vn 0.4784 0.8180 0.3195
vn 0.4964 -0.6853 -0.5329
vn -0.5001 0.7440 0.4430
vn -0.5022 -0.7337 -0.4576
vn 0.2816 0.9562 0.0805
vn 0.2190 -0.9731 -0.0712
vn 0.7556 0.1434 0.6391
vn 0.8931 0.4499 -0.0000
vn 0.8377 -0.5461 -0.0000
vn 0.5488 0.8323 0.0777
vn 0.5165 -0.8562 -0.0132
vn -0.2171 0.8930 -0.3943
vn -0.2332 0.9724 -0.0047
vn -0.2282 0.8287 0.5111
vn -0.5362 0.7239 0.4341
vn -0.6140 0.7893 -0.0094
vn -0.5575 0.7416 -0.3731
vn -0.4335 0.6757 -0.5962
vn -0.2244 0.7535 -0.6180
vn -0.9486 0.1818 -0.2589
vn -0.9832 0.1706 0.0645
vn -0.9679 -0.1309 -0.2144
vn -0.9842 -0.1492 0.0957
vn -0.7191 0.4598 -0.5211
vn -0.8258 0.4724 -0.3080
vn -0.8791 0.4760 0.0239
vn -0.8176 0.4547 0.3533
vn -0.8813 0.1551 0.4463
vn -0.8704 -0.1617 0.4650
vn -0.7756 -0.4470 0.4457
vn -0.8474 -0.5145 0.1312
vn -0.8444 -0.5089 -0.1672
vn -0.7852 -0.4383 -0.4373
vn -0.8583 -0.1214 -0.4987
vn -0.8209 0.2013 -0.5345
vn -0.1488 -0.9784 0.1435
vn -0.5095 -0.7887 -0.3441
vn -0.5440 -0.8308 -0.1171
vn -0.5063 -0.8464 0.1648
vn -0.4808 -0.7739 0.4123
vn -0.1500 -0.8611 0.4857
vn -0.1482 -0.9172 -0.3698
vn -0.3082 0.2745 -0.9109
vn -0.3445 -0.1614 -0.9248
vn -0.2408 0.5577 -0.7943
vn -0.4461 0.4620 -0.7665
vn -0.5707 0.2336 -0.7872
vn -0.6232 -0.1271 -0.7717
vn -0.5828 -0.4680 -0.6643
vn -0.3026 -0.6356 -0.7102
vn -0.1783 0.1347 0.9747
vn -0.1652 -0.1814 0.9694
vn -0.5146 0.4458 0.7324
vn -0.1947 0.4737 0.8589
vn -0.1601 -0.5446 0.8233
vn -0.5064 -0.4648 0.7263
vn -0.5466 -0.1746 0.8190
vn -0.5630 0.1438 0.8139
vn -0.6237 0.6944 0.3588
vn -0.7220 0.5506 -0.4190
vn -0.3616 0.0569 -0.9306
vn 0.6237 -0.6944 -0.3589
vn -0.6532 -0.7421 0.1505
vn 0.7220 -0.5506 0.4190
vn 0.3616 -0.0569 0.9306
vn 0.6532 0.7421 -0.1505
vn -0.2699 0.9426 0.1966
vn -0.3782 -0.9140 -0.1467
vn -0.2589 -0.9597 -0.1093
vn -0.9117 -0.3852 -0.1429
vn -0.9460 0.3060 -0.1072
vn -0.1759 0.9814 -0.0771
vn -0.3665 -0.9303 -0.0124
vn -0.8846 -0.3989 0.2415
vn -0.8419 0.5253 -0.1235
vn -0.0608 0.9972 -0.0436
vn -0.4589 0.4114 0.7875
vn -0.2846 0.8280 0.4831
vn -0.5755 -0.2457 0.7801
vn -0.1617 -0.8716 0.4627
vn -0.6345 0.5421 0.5510
vn -0.9500 -0.3079 -0.0520
vn -0.3872 0.8200 0.4214
vn -0.8606 -0.2932 -0.4165
vn -0.9959 -0.0514 0.0743
vn 0.9925 0.0660 -0.1026
vn -0.8727 -0.4764 0.1069
vn 0.8250 -0.1054 -0.5552
vn 0.0146 0.8745 0.4849
vn -0.8304 0.2926 0.4742
vn 0.8514 0.5217 -0.0540
vn -0.0901 -0.7939 -0.6014
vn -0.8477 0.4082 0.3389
vn 0.8025 0.5579 -0.2117
vn 0.0062 -0.9698 -0.2439
vn -0.8884 -0.4268 0.1690
vn 0.8631 -0.2797 -0.4204
vn -0.0200 0.9803 0.1967
vn -0.2387 -0.2348 0.9423
vn 0.9588 -0.2748 0.0719
vn 0.0859 0.8789 0.4691
vn -0.2102 -0.1050 0.9720
vn 0.4538 0.5609 -0.6924
vn 0.1778 -0.8979 0.4028
vn -0.7722 0.3760 0.5122
vn 0.8230 0.2598 -0.5051
vn -0.0921 -0.9948 -0.0433
vn -0.8021 -0.3723 0.4669
vn 0.8290 0.0189 -0.5590
vn 0.1295 0.9559 0.2634
vn 0.9913 -0.0677 -0.1132
vn 0.3098 0.9482 0.0701
vn -0.9744 0.2204 -0.0456
vn 0.9812 0.1770 -0.0769
vn -0.2004 -0.9131 -0.3550
vn -0.9796 -0.1621 -0.1191
vn 0.9386 -0.2268 -0.2602
vn 0.1757 0.9841 -0.0244
vn -0.9919 0.0990 -0.0793
vn 0.5390 -0.8422 -0.0145
vn 0.5882 -0.7636 -0.2662
vn 0.5751 -0.7895 -0.2146
vn -0.9911 0.0532 0.1220
vn 0.1072 0.9920 -0.0666
vn -0.0370 -0.1855 -0.9820
vn -0.9767 0.0398 0.2108
vn 0.1097 0.9908 -0.0794
vn 0.9219 -0.2315 -0.3107
vn -0.2292 -0.1710 0.9583
vn -0.2130 0.5191 0.8278
vn 0.0522 -0.6887 0.7231
vn -0.2395 0.0741 0.9681
vn 0.4944 0.0297 -0.8687
vn 0.4588 0.4472 -0.7678
vn -0.2042 -0.8654 -0.4576
vn 0.9503 0.2173 -0.2230
vn -0.6372 0.5418 0.5481
vn -0.1639 0.8394 0.5182
vn 0.9489 0.0579 -0.3102
vn -0.8951 -0.4314 0.1127
vn -0.0713 0.9720 0.2240
vn 0.7350 -0.1416 -0.6631
vn -0.8528 -0.4754 0.2161
vn 0.0550 -0.9612 -0.2704
vn 0.7856 0.5953 -0.1689
vn -0.8315 0.3483 0.4327
vn -0.5057 0.5636 -0.6532
vn -0.9944 -0.0462 -0.0954
vn -0.4393 -0.7616 0.4764
vn 0.5166 -0.7132 0.4738
vn 0.6628 -0.4334 0.6107
vn 0.3001 0.6281 -0.7180
vn -0.7067 0.6308 0.3205
vn -0.9956 -0.0390 -0.0848
vn 0.9748 -0.1402 0.1736
vn -0.9990 0.0231 0.0384
vn -0.5790 0.6215 -0.5278
vn -0.3501 -0.5636 0.7482
vn -0.1111 -0.0097 0.9938
vn -0.3038 -0.6185 0.7247
vn -0.5733 0.7968 -0.1907
vn -0.0419 0.8821 -0.4693
vn 0.6606 -0.4201 0.6222
vn -0.9254 0.1534 0.3465
vn 0.9995 -0.0115 -0.0286
vn 0.9996 -0.0122 -0.0264
vn -0.5456 0.7418 -0.3899
vn -0.5245 -0.7974 0.2985
vn 0.6159 0.7133 -0.3344
vn 0.4634 -0.8201 0.3356
vn 0.4822 -0.7905 0.3776
vn 0.4950 0.8355 -0.2386
vn -0.4777 -0.8151 0.3278
vn -0.4959 0.7990 -0.3401
vn 1.0000 0.0005 0.0004
vn -0.9981 -0.0305 -0.0537
vn 0.0955 -0.9934 0.0638
vn 0.0403 -0.4448 -0.8947
vn 0.1450 -0.9492 -0.2793
vn -0.0867 0.0403 -0.9954
vn -0.3498 0.9174 0.1898
vn -0.3499 0.8776 0.3276
vn -0.3094 -0.9504 -0.0324
vn -0.8225 0.0010 0.5688
vn -0.0001 -0.4261 -0.9047
vn -0.4997 -0.7900 0.3552
vn -0.4977 0.7644 -0.4098
vn 0.4977 0.7644 -0.4098
vn 0.4997 -0.7901 0.3550
vn -0.9995 -0.0115 -0.0286
vn -0.9982 -0.0361 -0.0478
vn 1.0000 0.0006 0.0002
vn -0.5197 0.6632 -0.5386
vn -0.4992 -0.7518 0.4308
vn 0.4932 0.6612 -0.5653
vn 0.5166 -0.7132 0.4739
vn -0.9982 -0.0328 -0.0496
vn 1.0000 0.0006 0.0003
vn -0.5431 0.7354 -0.4053
vn -0.5011 -0.7615 0.4111
vn 0.5234 0.6590 -0.5402
vn 0.5010 -0.7335 0.4593
vn -0.2668 0.9599 0.0858
vn -0.2573 -0.9647 -0.0565
vn -0.7572 0.1441 0.6371
vn -0.8931 0.4499 -0.0000
vn -0.8377 -0.5461 -0.0000
vn -0.5999 0.7948 0.0921
vn -0.5165 -0.8562 -0.0132
vn -0.3186 0.1884 -0.9290
vn 0.9809 0.0146 -0.1942
vn 0.0254 0.7179 -0.6957
vn 0.1054 0.5852 -0.8040
vn 0.2158 0.8929 -0.3952
vn 0.2332 0.9724 -0.0047
vn 0.2114 0.8407 0.4986
vn 0.5362 0.7239 0.4341
vn 0.6140 0.7893 -0.0094
vn 0.5575 0.7416 -0.3731
vn 0.4895 0.6746 -0.5525
vn 0.2088 0.7506 -0.6269
vn 0.9486 0.1818 -0.2589
vn 0.9832 0.1706 0.0645
vn 0.9679 -0.1309 -0.2144
vn 0.9842 -0.1492 0.0957
vn 0.7191 0.4598 -0.5211
vn 0.8258 0.4724 -0.3080
vn 0.8791 0.4760 0.0239
vn 0.8171 0.4050 0.4103
vn 0.8813 0.1551 0.4463
vn 0.8704 -0.1617 0.4650
vn 0.7756 -0.4470 0.4457
vn 0.8474 -0.5145 0.1312
vn 0.8444 -0.5089 -0.1672
vn 0.7820 -0.4824 -0.3947
vn 0.8583 -0.1214 -0.4987
vn 0.8209 0.2013 -0.5345
vn 0.1806 -0.9804 -0.0786
vn 0.1607 -0.9818 -0.1015
vn 0.1488 -0.9784 0.1435
vn 0.5095 -0.7887 -0.3441
vn 0.5440 -0.8308 -0.1171
vn 0.5063 -0.8464 0.1648
vn 0.4448 -0.7758 0.4475
vn 0.1542 -0.8626 0.4818
vn 0.1482 -0.9172 -0.3698
vn 0.3082 0.2745 -0.9109
vn 0.3445 -0.1614 -0.9248
vn 0.2408 0.5577 -0.7943
vn 0.4461 0.4620 -0.7665
vn 0.5707 0.2336 -0.7872
vn 0.6232 -0.1271 -0.7717
vn 0.5828 -0.4680 -0.6643
vn 0.2684 -0.6184 -0.7387
vn 0.1783 0.1347 0.9747
vn 0.1652 -0.1814 0.9694
vn 0.5146 0.4458 0.7324
vn 0.1947 0.4737 0.8589
vn 0.1626 -0.5423 0.8243
vn 0.4611 -0.5075 0.7279
vn 0.5466 -0.1746 0.8190
vn 0.5630 0.1438 0.8139
vn -0.6237 -0.6944 -0.3588
vn 0.3590 0.9136 0.1908
vn 0.2751 -0.9508 0.1426
vn 0.2089 -0.9577 -0.1979
vn 0.8378 -0.4920 -0.2368
vn 0.9030 0.4159 -0.1075
vn 0.3353 0.9392 -0.0738
vn 0.1553 -0.9848 -0.0779
vn 0.9104 -0.4020 -0.0982
vn 0.9676 0.2116 0.1379
vn 0.4437 0.8953 -0.0393
vn 0.7155 0.4580 0.5276
vn 0.2596 0.8334 0.4878
vn 0.5167 -0.0579 0.8542
vn 0.0376 -0.8301 0.5563
vn 0.7747 0.6251 -0.0951
vn 0.9442 -0.2594 0.2031
vn 0.9313 0.3416 -0.1260
vn 0.2570 -0.9552 0.1465
vn -0.2310 -0.6104 -0.7577
vn 0.9974 0.0543 -0.0479
vn 0.8643 -0.2336 0.4454
vn -0.8998 -0.4223 -0.1097
vn -0.0077 0.9446 -0.3280
vn 0.8052 0.5771 0.1366
vn -0.8430 0.3056 -0.4427
vn 0.0685 -0.9709 0.2294
vn 0.8919 0.4502 -0.0419
vn -0.8174 0.2637 -0.5122
vn -0.0048 -0.8602 0.5099
vn 0.9004 -0.2019 0.3855
vn -0.8743 -0.4815 -0.0611
vn -0.0002 0.8338 -0.5520
vn 0.5222 0.2588 0.8126
vn -0.9782 -0.1104 0.1756
vn -0.4981 0.8670 -0.0136
vn 0.2526 0.6042 0.7557
vn -0.6769 -0.2835 -0.6793
vn -0.1523 -0.3502 0.9242
vn 0.7900 0.6091 0.0703
vn 0.0036 -0.8370 0.5472
vn 0.8247 0.0451 0.5638
vn -0.1267 0.8674 -0.4812
vn -0.9927 -0.1161 0.0330
vn -0.3151 0.7301 -0.6063
vn 0.9811 -0.0130 -0.1930
vn -0.9852 0.0949 -0.1431
vn -0.1571 -0.9390 0.3058
vn 0.9750 -0.2221 -0.0064
vn -0.1336 0.6112 -0.7801
vn 0.9828 -0.0438 -0.1795
vn -0.5315 -0.5956 0.6023
vn -0.5921 -0.7158 0.3702
vn -0.0034 -0.8234 -0.5674
vn 0.9874 0.1342 0.0833
vn -0.0545 0.6315 -0.7734
vn -0.9373 -0.3362 -0.0922
vn 0.2235 -0.1092 0.9686
vn 0.5591 0.6305 0.5384
vn 0.0142 -0.3496 0.9368
vn 0.4978 -0.0443 0.8661
vn -0.5314 -0.5784 -0.6190
vn -0.4953 -0.2117 -0.8425
vn 0.0279 -0.9560 0.2919
vn -0.9402 0.0066 -0.3406
vn 0.6569 0.7539 -0.0064
vn 0.3505 0.9195 -0.1781
vn -0.9168 -0.3738 -0.1407
vn 0.8739 -0.2469 0.4187
vn -0.0277 0.9084 -0.4173
vn -0.8755 -0.4778 -0.0717
vn 0.8626 -0.1833 0.4715
vn -0.0377 -0.8800 0.4735
vn -0.7922 0.2863 -0.5390
vn 0.8238 0.5647 0.0503
vn 0.3769 0.8839 0.2770
vn 0.9944 0.0634 -0.0849
vn 0.4559 -0.7625 -0.4591
vn -0.5053 -0.7464 -0.4332
vn -0.5190 -0.6989 -0.4920
vn 1.0000 -0.0029 -0.0049
vn -0.9856 0.1325 0.1053
vn 0.9973 0.0474 -0.0567
vn -0.9690 -0.1913 -0.1561
vn 0.9990 -0.0218 0.0396
vn 0.4079 0.8977 0.1666
vn 0.4707 -0.7439 -0.4743
vn -0.4994 -0.2839 0.8185
vn -0.5532 -0.1723 0.8150
vn -0.3981 -0.2578 0.8804
vn 0.4702 -0.8319 -0.2948
vn 0.4261 0.7037 0.5686
vn 0.0856 0.8847 -0.4583
vn -0.4931 -0.6954 -0.5228
vn 0.9371 -0.1204 0.3276
vn -0.9992 0.0255 -0.0304
vn -0.9999 0.0065 -0.0078
vn 0.4993 0.6981 0.5133
vn 0.5377 -0.6433 -0.5450
vn -0.6163 0.6209 0.4845
vn -0.4992 -0.6758 -0.5423
vn -0.4833 -0.6889 -0.5401
vn -0.4945 0.6032 0.6258
vn 0.4768 -0.6614 -0.5790
vn 0.4950 0.6757 0.5462
vn -1.0000 -0.0005 0.0006
vn 0.9981 0.0332 -0.0521
vn -0.3175 -0.4698 -0.8237
vn 0.2556 -0.9663 -0.0298
vn 0.3631 0.7229 0.5879
vn 0.3357 0.8311 0.4433
vn 0.2514 -0.9647 -0.0781
vn 0.8729 -0.1130 0.4746
vn 0.0008 0.8282 -0.5604
vn -0.0073 0.8280 -0.5607
vn -0.0575 0.8054 -0.5899
vn 0.4827 -0.6921 -0.5367
vn 0.4704 0.7435 0.4753
vn -0.4966 0.7343 0.4628
vn -0.4990 -0.6857 -0.5299
vn 0.9992 0.0335 -0.0227
vn 0.9982 0.0261 -0.0544
vn -1.0000 -0.0001 0.0008
vn 0.5217 0.7685 0.3705
vn 0.4972 -0.7165 -0.4893
vn -0.5251 0.6977 0.4873
vn -0.5111 -0.7617 -0.3984
vn 0.9982 0.0289 -0.0523
vn -1.0000 -0.0002 0.0008
vn 0.5432 0.6937 0.4729
vn 0.4976 -0.7046 -0.5059
vn -0.5242 0.7791 0.3439
vn -0.5024 -0.7200 -0.4787
vn 0.2821 0.9563 0.0765
vn 0.1832 -0.9828 0.0218
vn 0.7542 -0.3393 0.5622
vn 0.9089 -0.0975 0.4054
vn 0.8391 0.5429 0.0335
vn 0.5999 0.7948 0.0921
vn 0.5513 -0.8343 -0.0000
vn -0.2158 0.8929 -0.3952
vn -0.2309 0.9730 -0.0026
vn -0.2114 0.8407 0.4986
vn -0.5934 0.7171 0.3657
vn -0.6038 0.7971 0.0039
vn -0.5368 0.7678 -0.3497
vn -0.4895 0.6746 -0.5525
vn -0.2088 0.7506 -0.6269
vn -0.9488 0.1900 -0.2522
vn -0.9829 0.1719 0.0657
vn -0.9669 -0.1341 -0.2169
vn -0.9843 -0.1466 0.0981
vn -0.7198 0.4412 -0.5359
vn -0.8218 0.4872 -0.2955
vn -0.8739 0.4848 0.0339
vn -0.8171 0.4050 0.4103
vn -0.8793 0.1584 0.4492
vn -0.8717 -0.1659 0.4611
vn -0.7717 -0.4987 0.3948
vn -0.8452 -0.5193 0.1267
vn -0.8441 -0.5094 -0.1677
vn -0.7820 -0.4824 -0.3947
vn -0.8572 -0.1236 -0.4999
vn -0.8229 0.2097 -0.5281
vn -0.1607 -0.9818 -0.1015
vn -0.1806 -0.9804 -0.0786
vn -0.1564 -0.9765 0.1485
vn -0.4800 -0.7943 -0.3725
vn -0.5169 -0.8425 -0.1518
vn -0.4664 -0.8756 0.1262
vn -0.4448 -0.7758 0.4475
vn -0.1542 -0.8626 0.4818
vn -0.2261 -0.9220 -0.3144
vn -0.3148 0.2794 -0.9071
vn -0.3250 -0.1799 -0.9284
vn -0.2669 0.5681 -0.7785
vn -0.4934 0.5045 -0.7086
vn -0.5804 0.2495 -0.7751
vn -0.6137 -0.1420 -0.7766
vn -0.5175 -0.5489 -0.6564
vn -0.2683 -0.6184 -0.7387
vn -0.1733 0.1395 0.9749
vn -0.1703 -0.1865 0.9676
vn -0.5492 0.4099 0.7283
vn -0.1876 0.4801 0.8569
vn -0.1626 -0.5423 0.8243
vn -0.4611 -0.5075 0.7279
vn -0.5518 -0.1809 0.8141
vn -0.5611 0.1458 0.8148
vn 0.6237 -0.6944 -0.3588
vn -0.2422 0.9367 0.2530
vn -0.4241 -0.9022 -0.0781
vn -0.3621 -0.9129 -0.1886
vn -0.9412 -0.3188 -0.1115
vn -0.8286 0.5189 -0.2103
vn -0.2245 0.9672 -0.1188
vn -0.4256 -0.9021 -0.0710
vn -0.9887 -0.1365 -0.0624
vn -0.8606 0.4987 -0.1031
vn -0.1799 0.9727 -0.1465
vn -0.6048 0.3371 0.7215
vn -0.2839 0.8274 0.4845
vn -0.4510 -0.3137 0.8356
vn -0.0434 -0.8306 0.5552
vn -0.7438 0.6457 0.1728
vn -0.8744 -0.4630 0.1451
vn 0.8698 0.4220 0.2555
vn -0.5949 -0.7852 -0.1721
vn 0.8709 0.0365 -0.4901
vn -0.6890 0.5545 -0.4667
vn -0.8930 -0.4432 0.0779
vn 0.9075 -0.2162 -0.3601
vn -0.0012 0.9186 0.3952
vn -0.8011 0.2983 0.5189
vn 0.8510 0.5221 -0.0558
vn -0.0782 -0.8239 -0.5613
vn -0.8819 0.3412 0.3252
vn 0.8405 0.4772 -0.2566
vn -0.0147 -0.9700 -0.2425
vn -0.8962 -0.4087 0.1724
vn 0.8598 -0.2911 -0.4196
vn -0.0002 0.9807 0.1955
vn -0.4857 -0.3929 0.7808
vn 0.9812 -0.1932 0.0050
vn 0.5176 0.6299 0.5790
vn -0.6107 0.3345 0.7177
vn 0.6445 0.2829 -0.7103
vn 0.5364 -0.6912 0.4843
vn -0.7898 0.0458 0.6117
vn 0.8230 0.2597 -0.5051
vn -0.0033 -0.9797 -0.2005
vn -0.8663 -0.2412 0.4374
vn 0.2577 0.9659 0.0249
vn 0.9902 -0.0967 -0.1008
vn 0.6855 0.7236 -0.0800
vn -0.9876 0.1177 -0.1041
vn 0.9653 0.2594 -0.0294
vn 0.1460 -0.8808 -0.4504
vn -0.9888 -0.0547 -0.1391
vn 0.1193 0.9844 -0.1291
vn -0.9895 0.0864 -0.1161
vn 0.5301 -0.8447 -0.0735
vn 0.5463 -0.7807 -0.3035
vn 0.5750 -0.7895 -0.2146
vn 0.2119 0.1099 -0.9711
vn -0.9803 0.0277 0.1958
vn 0.0410 0.9934 -0.1067
vn 0.9250 -0.1654 -0.3421
vn -0.2461 -0.1604 0.9559
vn -0.5591 0.6305 0.5384
vn -0.0427 -0.3912 0.9193
vn -0.4435 -0.0807 0.8927
vn 0.4782 0.0415 -0.8773
vn 0.5883 0.2780 -0.7594
vn -0.0592 -0.8293 -0.5556
vn 0.8844 0.4668 0.0034
vn -0.8089 0.2590 0.5278
vn -0.0170 0.9019 0.4316
vn 0.9150 -0.1514 -0.3740
vn -0.8818 -0.4651 0.0780
vn 0.0415 0.9261 0.3750
vn 0.8694 -0.2808 -0.4065
vn -0.8944 -0.4239 0.1429
vn -0.0750 -0.8763 -0.4758
vn 0.7569 0.5867 -0.2881
vn -0.8103 0.3539 0.4671
vn -0.5874 0.5473 -0.5962
vn -0.9941 -0.0654 -0.0865
vn -0.5014 -0.7229 0.4754
vn 0.6978 -0.5550 0.4529
vn 0.6609 -0.4208 0.6214
vn 0.4834 0.5463 -0.6840
vn -0.5094 0.8050 0.3041
vn -0.9957 -0.0346 -0.0860
vn 0.9848 -0.1540 0.0798
vn -0.9992 0.0192 0.0349
vn -0.5981 0.6482 -0.4713
vn -0.3813 -0.7188 0.5813
vn 0.6474 0.2531 0.7189
vn 0.5554 0.0127 0.8315
vn 0.5542 0.1516 0.8185
vn -0.3249 -0.7938 0.5141
vn -0.5826 0.8090 -0.0783
vn -0.0398 0.8872 -0.4597
vn 0.7520 -0.6164 0.2334
vn -0.9656 -0.0033 0.2600
vn 0.9995 -0.0133 -0.0280
vn 0.9996 -0.0109 -0.0271
vn -0.4986 0.7740 -0.3902
vn -0.5000 -0.8084 0.3106
vn 0.4999 0.7957 -0.3421
vn 0.5000 -0.8043 0.3212
vn 0.4850 -0.7991 0.3551
vn 0.6144 0.7041 -0.3559
vn -0.4817 -0.8374 0.2583
vn -0.5525 0.7909 -0.2633
vn 1.0000 0.0003 0.0007
vn -0.9979 -0.0270 -0.0587
vn -0.1713 -0.5658 -0.8066
vn -0.0707 -0.6375 0.7672
vn -0.1994 0.9763 0.0839
vn -0.2934 0.8435 0.4499
vn -0.2481 -0.9649 0.0857
vn -0.8881 -0.0725 0.4538
vn -0.0001 -0.2765 -0.9610
vn 0.0062 -0.4294 -0.9031
vn 0.0014 -0.4252 -0.9051
vn -0.5003 -0.7897 0.3551
vn -0.4973 0.7646 -0.4099
vn 0.4976 0.7645 -0.4098
vn 0.5017 -0.7889 0.3548
vn -0.9995 -0.0132 -0.0281
vn -0.9976 -0.0382 -0.0577
vn 1.0000 0.0007 0.0005
vn -0.5418 0.7047 -0.4582
vn -0.5009 -0.7619 0.4106
vn 0.5261 0.7363 -0.4255
vn 0.5098 -0.6899 0.5140
vn -0.9977 -0.0332 -0.0586
vn 1.0000 0.0006 0.0006
vn -0.4770 0.6547 -0.5864
vn -0.5001 -0.7795 0.3771
vn 0.5002 0.7317 -0.4630
vn 0.5017 -0.7536 0.4248
vn -0.2691 0.9600 0.0768
vn -0.2644 -0.9618 -0.0704
vn -0.8996 -0.0693 0.4311
vn -0.7382 -0.3390 0.5832
vn -0.8391 0.5429 0.0335
vn -0.5488 0.8323 0.0777
vn -0.5513 -0.8343 -0.0000
vn -0.9865 0.1543 0.0552
vn 0.8553 -0.1552 -0.4943
vn -0.7281 0.6786 0.0965
vn 0.2559 0.7239 -0.6407
vt 0.500000 0.375000
vt 0.437500 0.437500
vt 0.437500 0.375000
vt 0.562500 0.437500
vt 0.500000 0.437500
vt 0.625000 0.375000
vt 0.562500 0.375000
vt 0.625000 0.500000
vt 0.562500 0.500000
vt 0.500000 0.500000
vt 0.437500 0.500000
vt 0.375000 0.500000
vt 0.375000 0.437500
vt 0.375000 0.375000
vt 0.437500 0.562500
vt 0.500000 0.625000
vt 0.437500 0.625000
vt 0.500000 0.562500
vt 0.562500 0.625000
vt 0.500000 0.687500
vt 0.437500 0.687500
vt 0.562500 0.687500
vt 0.375000 0.562500
vt 0.562500 0.562500
vt 0.625000 0.625000
vt 0.625000 0.687500
vt 0.625000 0.750000
vt 0.562500 0.750000
vt 0.500000 0.750000
vt 0.437500 0.750000
vt 0.375000 0.750000
vt 0.375000 0.687500
vt 0.375000 0.625000
vt 0.500000 0.875000
vt 0.468750 0.875000
vt 0.437500 0.875000
vt 0.500000 0.812500
vt 0.562500 0.875000
vt 0.437500 0.812500
vt 0.375000 0.812500
vt 0.562500 0.812500
vt 0.625000 0.812500
vt 0.375000 0.875000
vt 0.250000 0.562500
vt 0.312500 0.625000
vt 0.250000 0.625000
vt 0.312500 0.687500
vt 0.250000 0.687500
vt 0.250000 0.500000
vt 0.312500 0.562500
vt 0.312500 0.500000
vt 0.312500 0.750000
vt 0.250000 0.750000
vt 0.687500 0.562500
vt 0.750000 0.625000
vt 0.687500 0.625000
vt 0.750000 0.687500
vt 0.687500 0.687500
vt 0.625000 0.562500
vt 0.687500 0.500000
vt 0.750000 0.562500
vt 0.687500 0.750000
vt 1.000000 0.500000
vt 0.833333 1.000000
vt 0.833333 0.500000
vt 0.666667 1.000000
vt 0.666667 0.500000
vt 0.500000 1.000000
vt 0.500000 0.500000
vt 0.333333 0.500000
vt 0.042154 0.130000
vt 0.250000 0.010000
vt 0.457846 0.130000
vt 0.333333 1.000000
vt 0.166667 0.500000
vt 0.166667 1.000000
vt -0.000000 0.500000
vt 0.542154 0.130000
vt 0.542154 0.370000
vt 0.957846 0.370000
vt 1.000000 0.828637
vt 0.875000 1.000000
vt 0.875000 0.828637
vt 0.625000 0.828637
vt 0.500000 1.000000
vt 0.500000 0.828637
vt 0.625000 0.645722
vt 0.500000 0.500000
vt 0.750000 0.500000
vt 0.875000 0.645722
vt 0.875000 0.500000
vt 0.500000 0.645722
vt 0.750000 0.828637
vt 0.750000 0.645722
vt 1.000000 0.645722
vt 0.750000 1.000000
vt 1.000000 1.000000
vt 0.625000 1.000000
vt 0.749520 0.964446
vt 0.653402 0.965669
vt 0.844587 0.863513
vt 0.844268 0.965118
vt 0.647775 0.863148
vt 0.750840 0.864057
vt 0.749520 0.964446
vt 0.750840 0.864057
vt 0.647775 0.863149
vt 0.844587 0.863513
vt 0.844267 0.965117
vt 0.653402 0.965669
vt 0.749520 0.964446
vt 0.844268 0.965117
vt 0.750840 0.864057
vt 0.653402 0.965669
vt 0.844587 0.863513
vt 0.000000 0.000000
vt 0.833333 0.500000
vt -0.000000 1.000000
vt 0.500000 0.500000
vt 0.500000 0.500000
vt 0.166667 0.500000
vt -0.000000 0.500000
vt 0.833333 0.500000
vt 0.042154 0.370000
vt 0.457846 0.370000
vt 0.750000 0.010000
vt 0.333333 0.500000
vt 0.457846 0.250000
vt 0.625000 0.437500
vt 0.750000 0.500000
vt 0.957846 0.130000
vt 0.250000 0.490000
vt 0.625000 0.875000
vt 0.750000 0.750000
vt 0.250000 0.490000
vt 0.750000 0.490000
vt 0.750000 0.490000
s 0
f 26/1/1 28/2/1 25/3/1
f 26/1/2 30/4/2 29/5/2
f 7/6/3 30/4/3 27/7/3
f 30/4/4 4/8/4 9/9/4
f 29/5/5 9/9/5 10/10/5
f 28/2/6 10/10/6 11/11/6
f 28/2/7 3/12/7 5/13/7
f 25/3/8 5/13/8 6/14/8
f 31/15/9 35/16/9 34/17/9
f 32/18/10 36/19/10 35/16/10
f 34/17/11 38/20/11 37/21/11
f 35/16/12 39/22/12 38/20/12
f 3/12/13 31/15/13 14/23/13
f 11/11/14 32/18/14 31/15/14
f 10/10/15 33/24/15 32/18/15
f 4/8/16 33/24/16 9/9/16
f 33/24/17 16/25/17 36/19/17
f 36/19/18 17/26/18 39/22/18
f 39/22/19 2/27/19 18/28/19
f 38/20/20 18/28/20 19/29/20
f 37/21/21 19/29/21 20/30/21
f 37/21/22 1/31/22 12/32/22
f 13/33/23 37/21/23 12/32/23
f 14/23/24 34/17/24 13/33/24
f 44/34/25 58/35/25 43/36/25
f 41/37/26 45/38/26 44/34/26
f 1/31/27 40/39/27 22/40/27
f 20/30/28 41/37/28 40/39/28
f 19/29/29 42/41/29 41/37/29
f 2/27/30 42/41/30 18/28/30
f 23/42/31 45/38/31 42/41/31
f 22/40/32 43/36/32 21/43/32
f 46/44/33 49/45/33 48/46/33
f 48/46/34 51/47/34 50/48/34
f 6/49/35 47/50/35 46/44/35
f 5/51/36 14/23/36 47/50/36
f 47/50/37 13/33/37 49/45/37
f 49/45/38 12/32/38 51/47/38
f 51/47/39 1/31/39 22/52/39
f 51/47/40 21/53/40 50/48/40
f 52/54/41 55/55/41 54/56/41
f 54/56/42 57/57/42 56/58/42
f 4/8/43 52/54/43 15/59/43
f 8/60/44 53/61/44 52/54/44
f 57/57/45 23/62/45 56/58/45
f 56/58/46 2/27/46 17/26/46
f 16/25/47 56/58/47 17/26/47
f 15/59/48 54/56/48 16/25/48
f 59/63/49 62/64/49 61/65/49
f 61/65/50 64/66/50 63/67/50
f 63/67/51 66/68/51 65/69/51
f 66/68/52 67/70/52 65/69/52
f 68/71/53 66/72/53 64/73/53
f 68/74/54 69/75/54 67/70/54
f 70/76/55 59/77/55 69/75/55
f 67/78/56 69/79/56 61/80/56
f 86/81/57 97/82/57 99/83/57
f 100/84/58 80/85/58 90/86/58
f 84/87/59 79/88/59 77/8/59
f 75/89/60 84/87/60 77/8/60
f 82/90/61 75/89/61 73/91/61
f 71/63/62 82/90/62 73/91/62
f 100/84/63 85/92/63 84/87/63
f 101/93/64 84/87/64 83/94/64
f 99/83/65 83/94/65 82/90/65
f 81/95/66 99/83/66 82/90/66
f 97/82/67 93/96/67 96/96/67
f 72/97/68 92/82/68 97/82/68
f 98/98/69 93/96/69 94/98/69
f 80/85/70 94/98/70 95/85/70
f 76/99/71 97/82/71 96/96/71
f 78/100/72 96/96/72 98/98/72
f 87/101/73 97/82/73 74/102/73
f 78/100/74 100/84/74 89/103/74
f 89/103/75 101/93/75 88/104/75
f 87/101/76 101/93/76 99/83/76
f 150/105/77 104/100/77 103/99/77
f 151/106/78 107/103/78 152/107/78
f 154/108/79 102/102/79 105/101/79
f 150/105/80 102/102/80 153/109/80
f 151/106/81 105/101/81 106/104/81
f 152/107/82 104/100/82 149/110/82
f 155/111/83 108/102/83 156/112/83
f 158/113/84 111/101/84 112/104/84
f 160/114/85 113/103/85 110/100/85
f 155/111/86 110/100/86 109/99/86
f 158/113/87 113/103/87 159/107/87
f 156/112/88 111/101/88 157/115/88
f 110/100/89 115/99/89 109/99/89
f 112/104/90 133/103/90 113/103/90
f 108/102/91 117/101/91 111/101/91
f 108/102/92 115/99/92 114/102/92
f 111/101/93 118/104/93 112/104/93
f 110/100/94 119/103/94 116/100/94
f 114/102/95 121/99/95 120/102/95
f 117/101/96 124/104/96 118/104/96
f 119/103/97 122/100/97 116/100/97
f 115/99/98 122/100/98 121/99/98
f 119/103/99 124/104/99 125/103/99
f 117/101/100 120/102/100 123/101/100
f 124/104/101 131/103/101 125/103/101
f 123/101/102 126/102/102 129/101/102
f 121/99/103 126/102/103 120/102/103
f 124/104/104 129/101/104 130/104/104
f 125/103/105 128/100/105 122/100/105
f 121/99/106 128/100/106 127/99/106
f 132/104/107 137/103/107 133/103/107
f 118/104/108 132/104/108 112/104/108
f 119/103/109 134/104/109 118/104/109
f 119/103/110 133/103/110 135/103/110
f 139/103/111 141/103/111 143/103/111
f 135/103/112 137/103/112 139/103/112
f 135/103/113 138/104/113 134/104/113
f 134/104/114 136/104/114 132/104/114
f 141/103/115 142/104/115 143/103/115
f 139/103/116 142/104/116 138/104/116
f 138/104/117 140/104/117 136/104/117
f 136/104/118 141/103/118 137/103/118
f 94/98/119 146/96/119 147/98/119
f 91/97/120 145/82/120 92/82/120
f 94/98/121 148/85/121 95/85/121
f 92/82/122 146/96/122 93/96/122
f 128/100/123 130/104/123 127/99/123
f 127/99/124 129/101/124 126/102/124
f 89/103/125 149/110/125 78/100/125
f 88/104/126 154/108/126 151/106/126
f 74/102/127 150/105/127 153/109/127
f 87/101/128 153/109/128 154/108/128
f 88/104/129 152/107/129 89/103/129
f 78/100/130 150/105/130 76/99/130
f 102/102/131 157/115/131 105/101/131
f 106/104/132 159/107/132 107/103/132
f 103/99/133 160/114/133 155/111/133
f 104/100/134 159/107/134 160/114/134
f 106/104/135 157/115/135 158/113/135
f 103/99/136 156/112/136 102/102/136
f 162/97/137 163/65/137 161/63/137
f 163/65/138 166/66/138 165/67/138
f 165/67/139 168/68/139 167/69/139
f 168/68/140 169/70/140 167/69/140
f 170/74/141 175/68/141 176/74/141
f 368/74/142 369/75/142 416/116/142
f 170/74/143 171/75/143 169/70/143
f 190/67/144 185/65/144 191/117/144
f 177/76/145 182/74/145 183/76/145
f 164/64/146 174/66/146 166/66/146
f 164/64/147 172/97/147 173/64/147
f 166/66/148 175/68/148 168/68/148
f 182/71/149 181/72/149 180/73/149
f 174/66/150 181/68/150 175/68/150
f 173/64/151 178/97/151 179/64/151
f 177/76/152 178/118/152 172/118/152
f 175/68/153 182/74/153 176/74/153
f 173/64/154 180/66/154 174/66/154
f 188/70/155 210/75/155 209/70/155
f 192/75/156 188/70/156 193/70/156
f 191/117/157 184/63/157 194/63/157
f 190/67/158 187/69/158 186/67/158
f 192/75/159 184/77/159 189/75/159
f 193/70/160 187/69/160 195/119/160
f 221/70/161 195/119/161 219/120/161
f 218/121/162 194/122/162 192/75/162
f 217/67/163 195/119/163 190/67/163
f 222/63/164 191/117/164 194/63/164
f 218/121/165 193/70/165 221/70/165
f 220/123/166 190/67/166 191/117/166
f 183/76/167 178/118/167 200/116/167
f 182/116/168 197/116/168 196/116/168
f 181/116/169 198/116/169 197/116/169
f 196/116/170 183/124/170 182/71/170
f 199/116/171 178/116/171 200/116/171
f 199/116/172 201/116/172 179/116/172
f 198/116/173 202/116/173 203/116/173
f 179/125/174 202/73/174 180/73/174
f 206/80/175 208/126/175 210/79/175
f 187/69/176 207/67/176 186/67/176
f 185/65/177 205/63/177 184/63/177
f 189/75/178 205/77/178 210/75/178
f 187/69/179 209/70/179 208/69/179
f 186/67/180 206/65/180 185/65/180
f 163/65/181 214/67/181 211/123/181
f 171/75/182 212/127/182 169/70/182
f 161/63/183 211/123/183 213/63/183
f 165/67/184 216/69/184 214/67/184
f 161/77/185 215/121/185 171/75/185
f 169/70/186 216/69/186 167/69/186
f 211/123/187 217/67/187 220/123/187
f 215/121/188 221/70/188 212/127/188
f 213/63/189 220/123/189 222/63/189
f 214/67/190 219/120/190 217/67/190
f 215/121/191 222/77/191 218/121/191
f 212/127/192 219/120/192 216/69/192
f 204/116/193 73/116/193 201/116/193
f 203/116/194 77/116/194 79/116/194
f 201/125/195 73/125/195 75/128/195
f 145/82/196 225/96/196 146/96/196
f 146/96/197 226/98/197 147/98/197
f 145/82/198 223/97/198 224/82/198
f 147/98/199 227/85/199 148/85/199
f 248/2/200 26/1/200 25/3/200
f 26/1/201 250/4/201 27/7/201
f 250/4/202 7/6/202 27/7/202
f 250/4/203 231/8/203 233/129/203
f 249/5/204 234/9/204 250/4/204
f 248/2/205 235/10/205 249/5/205
f 230/12/206 248/2/206 232/13/206
f 232/13/207 25/3/207 6/14/207
f 251/15/208 255/16/208 252/18/208
f 252/18/209 256/19/209 253/24/209
f 254/17/210 258/20/210 255/16/210
f 255/16/211 259/22/211 256/19/211
f 230/12/212 251/15/212 236/11/212
f 236/11/213 252/18/213 235/10/213
f 235/10/214 253/24/214 234/9/214
f 253/24/215 231/8/215 234/9/215
f 253/24/216 241/25/216 240/59/216
f 256/19/217 242/26/217 241/25/217
f 259/22/218 229/27/218 242/26/218
f 258/20/219 243/28/219 259/22/219
f 257/21/220 244/29/220 258/20/220
f 228/31/221 257/21/221 237/32/221
f 238/33/222 257/21/222 254/17/222
f 239/23/223 254/17/223 251/15/223
f 261/37/224 45/38/224 262/41/224
f 228/31/225 260/39/225 245/30/225
f 245/30/226 261/37/226 244/29/226
f 244/29/227 262/41/227 243/28/227
f 262/41/228 229/27/228 243/28/228
f 45/38/229 247/42/229 262/41/229
f 246/40/230 43/36/230 260/39/230
f 46/44/231 264/45/231 263/50/231
f 48/46/232 265/47/232 264/45/232
f 6/49/233 263/50/233 232/51/233
f 232/51/234 239/23/234 230/12/234
f 263/50/235 238/33/235 239/23/235
f 264/45/236 237/32/236 238/33/236
f 265/47/237 228/31/237 237/32/237
f 21/53/238 265/47/238 50/48/238
f 266/54/239 55/55/239 53/61/239
f 267/56/240 57/57/240 55/55/240
f 231/8/241 266/54/241 233/60/241
f 233/60/242 53/61/242 7/130/242
f 247/62/243 57/57/243 268/58/243
f 229/27/244 268/58/244 242/26/244
f 241/25/245 268/58/245 267/56/245
f 240/59/246 267/56/246 266/54/246
f 269/63/247 272/64/247 270/97/247
f 271/65/248 274/66/248 272/64/248
f 273/67/249 276/68/249 274/66/249
f 277/70/250 276/68/250 275/69/250
f 278/71/251 280/124/251 274/73/251
f 279/75/252 278/74/252 277/70/252
f 269/77/253 280/76/253 279/75/253
f 271/80/254 277/78/254 273/131/254
f 86/81/255 297/82/255 72/97/255
f 300/84/256 80/85/256 298/98/256
f 79/88/257 289/87/257 285/8/257
f 283/89/258 289/87/258 288/94/258
f 283/89/259 287/90/259 281/91/259
f 71/63/260 287/90/260 81/95/260
f 85/92/261 300/84/261 289/87/261
f 289/87/262 301/93/262 288/94/262
f 288/94/263 299/83/263 287/90/263
f 81/95/264 299/83/264 86/81/264
f 294/96/265 297/82/265 296/96/265
f 293/82/266 72/97/266 297/82/266
f 298/98/267 294/96/267 296/96/267
f 80/85/268 295/98/268 298/98/268
f 284/99/269 297/82/269 282/102/269
f 286/100/270 296/96/270 284/99/270
f 297/82/271 290/101/271 282/102/271
f 300/84/272 286/100/272 292/103/272
f 301/93/273 292/103/273 291/104/273
f 290/101/274 301/93/274 291/104/274
f 348/105/275 304/100/275 347/110/275
f 307/103/276 349/106/276 350/107/276
f 352/108/277 302/102/277 351/109/277
f 302/102/278 348/105/278 351/109/278
f 349/106/279 305/101/279 352/108/279
f 304/100/280 350/107/280 347/110/280
f 308/102/281 353/111/281 354/112/281
f 356/113/282 311/101/282 355/115/282
f 358/114/283 313/103/283 357/107/283
f 353/111/284 310/100/284 358/114/284
f 313/103/285 356/113/285 357/107/285
f 311/101/286 354/112/286 355/115/286
f 315/99/287 310/100/287 309/99/287
f 333/103/288 312/104/288 313/103/288
f 317/101/289 308/102/289 311/101/289
f 308/102/290 315/99/290 309/99/290
f 318/104/291 311/101/291 312/104/291
f 310/100/292 319/103/292 313/103/292
f 314/102/293 321/99/293 315/99/293
f 324/104/294 317/101/294 318/104/294
f 322/100/295 319/103/295 316/100/295
f 315/99/296 322/100/296 316/100/296
f 319/103/297 324/104/297 318/104/297
f 317/101/298 320/102/298 314/102/298
f 331/103/299 324/104/299 325/103/299
f 323/101/300 326/102/300 320/102/300
f 326/102/301 321/99/301 320/102/301
f 324/104/302 329/101/302 323/101/302
f 328/100/303 325/103/303 322/100/303
f 321/99/304 328/100/304 322/100/304
f 337/103/305 332/104/305 333/103/305
f 332/104/306 318/104/306 312/104/306
f 334/104/307 319/103/307 318/104/307
f 319/103/308 333/103/308 313/103/308
f 339/103/309 341/103/309 337/103/309
f 335/103/310 337/103/310 333/103/310
f 338/104/311 335/103/311 334/104/311
f 336/104/312 334/104/312 332/104/312
f 341/103/313 342/104/313 340/104/313
f 342/104/314 339/103/314 338/104/314
f 340/104/315 338/104/315 336/104/315
f 341/103/316 336/104/316 337/103/316
f 295/98/317 345/96/317 294/96/317
f 344/82/318 91/97/318 293/82/318
f 148/85/319 295/98/319 95/85/319
f 345/96/320 293/82/320 294/96/320
f 328/100/321 330/104/321 331/103/321
f 327/99/322 329/101/322 330/104/322
f 347/110/323 292/103/323 286/100/323
f 291/104/324 352/108/324 290/101/324
f 282/102/325 348/105/325 284/99/325
f 290/101/326 351/109/326 282/102/326
f 350/107/327 291/104/327 292/103/327
f 348/105/328 286/100/328 284/99/328
f 355/115/329 302/102/329 305/101/329
f 357/107/330 306/104/330 307/103/330
f 303/99/331 358/114/331 304/100/331
f 304/100/332 357/107/332 307/103/332
f 306/104/333 355/115/333 305/101/333
f 354/112/334 303/99/334 302/102/334
f 361/65/335 360/97/335 359/63/335
f 361/65/336 364/66/336 362/64/336
f 363/67/337 366/68/337 364/66/337
f 367/70/338 366/68/338 365/69/338
f 368/74/339 373/68/339 366/68/339
f 416/116/340 359/63/340 360/97/340
f 162/97/341 171/75/341 415/116/341
f 381/65/342 386/67/342 387/117/342
f 177/76/343 379/74/343 374/74/343
f 372/66/344 362/64/344 364/66/344
f 362/64/345 370/97/345 360/97/345
f 373/68/346 364/66/346 366/68/346
f 379/71/347 183/124/347 375/132/347
f 378/68/348 372/66/348 373/68/348
f 371/64/349 375/97/349 370/97/349
f 375/118/350 177/76/350 370/118/350
f 379/74/351 373/68/351 374/74/351
f 377/66/352 371/64/352 372/66/352
f 384/70/353 399/75/353 385/75/353
f 384/70/354 388/75/354 389/70/354
f 380/63/355 387/117/355 390/63/355
f 386/67/356 383/69/356 391/119/356
f 388/75/357 380/77/357 390/122/357
f 383/69/358 389/70/358 391/119/358
f 391/119/359 410/70/359 408/120/359
f 407/121/360 390/122/360 411/77/360
f 406/67/361 391/119/361 408/120/361
f 411/63/362 387/117/362 409/123/362
f 389/70/363 407/121/363 410/70/363
f 409/123/364 386/67/364 406/67/364
f 183/76/365 200/116/365 375/118/365
f 197/116/366 379/116/366 196/116/366
f 198/116/367 378/116/367 197/116/367
f 196/116/368 379/71/368 183/124/368
f 199/116/369 375/116/369 376/116/369
f 392/116/370 199/116/370 376/116/370
f 198/116/371 393/116/371 377/116/371
f 393/73/372 376/125/372 377/73/372
f 399/79/373 397/126/373 395/80/373
f 396/67/374 383/69/374 382/67/374
f 394/63/375 381/65/375 380/63/375
f 385/75/376 394/77/376 380/77/376
f 383/69/377 398/70/377 384/70/377
f 395/65/378 382/67/378 381/65/378
f 361/65/379 403/67/379 363/67/379
f 401/127/380 369/75/380 367/70/380
f 359/63/381 400/123/381 361/65/381
f 363/67/382 405/69/382 365/69/382
f 404/121/383 359/77/383 369/75/383
f 405/69/384 367/70/384 365/69/384
f 400/123/385 406/67/385 403/67/385
f 410/70/386 404/121/386 401/127/386
f 402/63/387 409/123/387 400/123/387
f 403/67/388 408/120/388 405/69/388
f 404/121/389 411/77/389 402/77/389
f 408/120/390 401/127/390 405/69/390
f 281/116/391 204/116/391 392/116/391
f 203/116/392 285/116/392 393/116/392
f 283/128/393 281/125/393 392/125/393
f 413/96/394 344/82/394 345/96/394
f 414/98/395 345/96/395 346/98/395
f 344/82/396 223/97/396 144/97/396
f 227/85/397 346/98/397 148/85/397
f 415/116/398 176/74/398 177/76/398
f 416/116/399 374/74/399 368/74/399
f 172/118/400 415/116/400 177/76/400
f 416/116/401 370/118/401 177/76/401
f 26/1/402 29/5/402 28/2/402
f 26/1/403 27/7/403 30/4/403
f 7/6/404 8/129/404 30/4/404
f 30/4/405 8/129/405 4/8/405
f 29/5/406 30/4/406 9/9/406
f 28/2/407 29/5/407 10/10/407
f 28/2/408 11/11/408 3/12/408
f 25/3/409 28/2/409 5/13/409
f 31/15/410 32/18/410 35/16/410
f 32/18/411 33/24/411 36/19/411
f 34/17/412 35/16/412 38/20/412
f 35/16/413 36/19/413 39/22/413
f 3/12/414 11/11/414 31/15/414
f 11/11/415 10/10/415 32/18/415
f 10/10/416 9/9/416 33/24/416
f 4/8/417 15/59/417 33/24/417
f 33/24/418 15/59/418 16/25/418
f 36/19/419 16/25/419 17/26/419
f 39/22/420 17/26/420 2/27/420
f 38/20/421 39/22/421 18/28/421
f 37/21/422 38/20/422 19/29/422
f 37/21/423 20/30/423 1/31/423
f 13/33/424 34/17/424 37/21/424
f 14/23/425 31/15/425 34/17/425
f 43/36/426 40/39/426 44/34/426
f 40/39/427 41/37/427 44/34/427
f 41/37/428 42/41/428 45/38/428
f 1/31/429 20/30/429 40/39/429
f 20/30/430 19/29/430 41/37/430
f 19/29/431 18/28/431 42/41/431
f 2/27/432 23/42/432 42/41/432
f 23/42/433 24/133/433 45/38/433
f 22/40/434 40/39/434 43/36/434
f 46/44/435 47/50/435 49/45/435
f 48/46/436 49/45/436 51/47/436
f 6/49/437 5/51/437 47/50/437
f 5/51/438 3/12/438 14/23/438
f 47/50/439 14/23/439 13/33/439
f 49/45/440 13/33/440 12/32/440
f 51/47/441 12/32/441 1/31/441
f 51/47/442 22/52/442 21/53/442
f 52/54/443 53/61/443 55/55/443
f 54/56/444 55/55/444 57/57/444
f 4/8/445 8/60/445 52/54/445
f 8/60/446 7/130/446 53/61/446
f 57/57/447 24/134/447 23/62/447
f 56/58/448 23/62/448 2/27/448
f 16/25/449 54/56/449 56/58/449
f 15/59/450 52/54/450 54/56/450
f 59/63/49 60/97/49 62/64/49
f 61/65/50 62/64/50 64/66/50
f 63/67/51 64/66/51 66/68/51
f 66/68/451 68/74/451 67/70/451
f 64/73/53 62/125/53 68/71/53
f 62/125/53 60/135/53 70/124/53
f 68/71/53 62/125/53 70/124/53
f 68/74/54 70/76/54 69/75/54
f 70/76/55 60/118/55 59/77/55
f 69/79/56 59/136/56 61/80/56
f 61/80/56 63/131/56 67/78/56
f 63/131/56 65/126/56 67/78/56
f 86/81/452 72/97/452 97/82/452
f 100/84/453 98/98/453 80/85/453
f 84/87/454 85/92/454 79/88/454
f 75/89/455 83/94/455 84/87/455
f 82/90/456 83/94/456 75/89/456
f 71/63/457 81/95/457 82/90/457
f 100/84/458 90/86/458 85/92/458
f 101/93/459 100/84/459 84/87/459
f 99/83/460 101/93/460 83/94/460
f 81/95/461 86/81/461 99/83/461
f 97/82/462 92/82/462 93/96/462
f 72/97/463 91/97/463 92/82/463
f 98/98/464 96/96/464 93/96/464
f 80/85/465 98/98/465 94/98/465
f 76/99/466 74/102/466 97/82/466
f 78/100/467 76/99/467 96/96/467
f 87/101/468 99/83/468 97/82/468
f 78/100/469 98/98/469 100/84/469
f 89/103/470 100/84/470 101/93/470
f 87/101/471 88/104/471 101/93/471
f 150/105/472 149/110/472 104/100/472
f 151/106/473 106/104/473 107/103/473
f 154/108/474 153/109/474 102/102/474
f 150/105/475 103/99/475 102/102/475
f 151/106/476 154/108/476 105/101/476
f 152/107/477 107/103/477 104/100/477
f 155/111/478 109/99/478 108/102/478
f 158/113/479 157/115/479 111/101/479
f 160/114/480 159/107/480 113/103/480
f 155/111/481 160/114/481 110/100/481
f 158/113/482 112/104/482 113/103/482
f 156/112/483 108/102/483 111/101/483
f 110/100/484 116/100/484 115/99/484
f 112/104/485 132/104/485 133/103/485
f 108/102/486 114/102/486 117/101/486
f 108/102/487 109/99/487 115/99/487
f 111/101/488 117/101/488 118/104/488
f 110/100/489 113/103/489 119/103/489
f 114/102/490 115/99/490 121/99/490
f 117/101/96 123/101/96 124/104/96
f 119/103/491 125/103/491 122/100/491
f 115/99/492 116/100/492 122/100/492
f 119/103/99 118/104/99 124/104/99
f 117/101/493 114/102/493 120/102/493
f 124/104/494 130/104/494 131/103/494
f 123/101/495 120/102/495 126/102/495
f 121/99/496 127/99/496 126/102/496
f 124/104/497 123/101/497 129/101/497
f 125/103/498 131/103/498 128/100/498
f 121/99/499 122/100/499 128/100/499
f 132/104/107 136/104/107 137/103/107
f 118/104/500 134/104/500 132/104/500
f 119/103/501 135/103/501 134/104/501
f 119/103/502 113/103/502 133/103/502
f 139/103/503 137/103/503 141/103/503
f 135/103/112 133/103/112 137/103/112
f 135/103/113 139/103/113 138/104/113
f 134/104/114 138/104/114 136/104/114
f 141/103/504 140/104/504 142/104/504
f 139/103/505 143/103/505 142/104/505
f 138/104/506 142/104/506 140/104/506
f 136/104/507 140/104/507 141/103/507
f 94/98/508 93/96/508 146/96/508
f 91/97/509 144/97/509 145/82/509
f 94/98/510 147/98/510 148/85/510
f 92/82/511 145/82/511 146/96/511
f 128/100/512 131/103/512 130/104/512
f 127/99/513 130/104/513 129/101/513
f 89/103/514 152/107/514 149/110/514
f 88/104/515 87/101/515 154/108/515
f 74/102/516 76/99/516 150/105/516
f 87/101/517 74/102/517 153/109/517
f 88/104/518 151/106/518 152/107/518
f 78/100/519 149/110/519 150/105/519
f 102/102/520 156/112/520 157/115/520
f 106/104/521 158/113/521 159/107/521
f 103/99/522 104/100/522 160/114/522
f 104/100/523 107/103/523 159/107/523
f 106/104/524 105/101/524 157/115/524
f 103/99/525 155/111/525 156/112/525
f 162/97/526 164/64/526 163/65/526
f 163/65/527 164/64/527 166/66/527
f 165/67/528 166/66/528 168/68/528
f 168/68/529 170/74/529 169/70/529
f 170/74/530 168/68/530 175/68/530
f 368/74/531 367/70/531 369/75/531
f 170/74/532 415/116/532 171/75/532
f 190/67/533 186/67/533 185/65/533
f 177/76/534 176/74/534 182/74/534
f 164/64/535 173/64/535 174/66/535
f 164/64/536 162/97/536 172/97/536
f 166/66/537 174/66/537 175/68/537
f 180/73/538 179/125/538 182/71/538
f 179/125/539 178/132/539 182/71/539
f 178/132/540 183/124/540 182/71/540
f 174/66/541 180/66/541 181/68/541
f 173/64/542 172/97/542 178/97/542
f 177/76/543 183/76/543 178/118/543
f 175/68/544 181/68/544 182/74/544
f 173/64/545 179/64/545 180/66/545
f 188/70/546 189/75/546 210/75/546
f 192/75/547 189/75/547 188/70/547
f 191/117/548 185/65/548 184/63/548
f 190/67/549 195/119/549 187/69/549
f 192/75/550 194/122/550 184/77/550
f 193/70/551 188/70/551 187/69/551
f 221/70/552 193/70/552 195/119/552
f 218/121/553 222/77/553 194/122/553
f 217/67/554 219/120/554 195/119/554
f 222/63/555 220/123/555 191/117/555
f 218/121/556 192/75/556 193/70/556
f 220/123/557 217/67/557 190/67/557
f 182/116/558 181/116/558 197/116/558
f 181/116/559 180/116/559 198/116/559
f 199/116/560 179/116/560 178/116/560
f 199/116/561 204/116/561 201/116/561
f 198/116/562 180/116/562 202/116/562
f 179/125/563 201/125/563 202/73/563
f 210/79/564 205/137/564 206/80/564
f 206/80/565 207/131/565 208/126/565
f 208/126/566 209/78/566 210/79/566
f 187/69/567 208/69/567 207/67/567
f 185/65/568 206/65/568 205/63/568
f 189/75/569 184/77/569 205/77/569
f 187/69/570 188/70/570 209/70/570
f 186/67/571 207/67/571 206/65/571
f 163/65/572 165/67/572 214/67/572
f 171/75/573 215/121/573 212/127/573
f 161/63/574 163/65/574 211/123/574
f 165/67/575 167/69/575 216/69/575
f 161/77/576 213/77/576 215/121/576
f 169/70/577 212/127/577 216/69/577
f 211/123/578 214/67/578 217/67/578
f 215/121/579 218/121/579 221/70/579
f 213/63/580 211/123/580 220/123/580
f 214/67/581 216/69/581 219/120/581
f 215/121/582 213/77/582 222/77/582
f 212/127/583 221/70/583 219/120/583
f 204/116/584 71/116/584 73/116/584
f 203/116/585 202/116/585 77/116/585
f 77/73/586 202/73/586 75/128/586
f 202/73/587 201/125/587 75/128/587
f 145/82/588 224/82/588 225/96/588
f 146/96/197 225/96/197 226/98/197
f 145/82/589 144/97/589 223/97/589
f 147/98/590 226/98/590 227/85/590
f 248/2/591 249/5/591 26/1/591
f 26/1/592 249/5/592 250/4/592
f 250/4/593 233/129/593 7/6/593
f 250/4/594 234/9/594 231/8/594
f 249/5/595 235/10/595 234/9/595
f 248/2/596 236/11/596 235/10/596
f 230/12/597 236/11/597 248/2/597
f 232/13/598 248/2/598 25/3/598
f 251/15/599 254/17/599 255/16/599
f 252/18/600 255/16/600 256/19/600
f 254/17/601 257/21/601 258/20/601
f 255/16/602 258/20/602 259/22/602
f 230/12/603 239/23/603 251/15/603
f 236/11/604 251/15/604 252/18/604
f 235/10/605 252/18/605 253/24/605
f 253/24/606 240/59/606 231/8/606
f 253/24/607 256/19/607 241/25/607
f 256/19/608 259/22/608 242/26/608
f 259/22/609 243/28/609 229/27/609
f 258/20/610 244/29/610 243/28/610
f 257/21/611 245/30/611 244/29/611
f 228/31/612 245/30/612 257/21/612
f 238/33/613 237/32/613 257/21/613
f 239/23/614 238/33/614 254/17/614
f 261/37/615 260/39/615 44/34/615
f 260/39/616 43/36/616 44/34/616
f 261/37/617 44/34/617 45/38/617
f 228/31/618 246/40/618 260/39/618
f 245/30/619 260/39/619 261/37/619
f 244/29/620 261/37/620 262/41/620
f 262/41/621 247/42/621 229/27/621
f 45/38/622 24/133/622 247/42/622
f 246/40/623 21/43/623 43/36/623
f 46/44/624 48/46/624 264/45/624
f 48/46/625 50/48/625 265/47/625
f 6/49/626 46/44/626 263/50/626
f 232/51/627 263/50/627 239/23/627
f 263/50/628 264/45/628 238/33/628
f 264/45/629 265/47/629 237/32/629
f 265/47/630 246/52/630 228/31/630
f 21/53/631 246/52/631 265/47/631
f 266/54/632 267/56/632 55/55/632
f 267/56/633 268/58/633 57/57/633
f 231/8/634 240/59/634 266/54/634
f 233/60/635 266/54/635 53/61/635
f 247/62/636 24/134/636 57/57/636
f 229/27/637 247/62/637 268/58/637
f 241/25/638 242/26/638 268/58/638
f 240/59/639 241/25/639 267/56/639
f 269/63/247 271/65/247 272/64/247
f 271/65/248 273/67/248 274/66/248
f 273/67/249 275/69/249 276/68/249
f 277/70/640 278/74/640 276/68/640
f 270/135/251 272/125/251 280/124/251
f 272/125/251 274/73/251 280/124/251
f 274/73/251 276/72/251 278/71/251
f 279/75/252 280/76/252 278/74/252
f 269/77/253 270/118/253 280/76/253
f 271/80/254 269/136/254 279/79/254
f 279/79/254 277/78/254 271/80/254
f 277/78/254 275/126/254 273/131/254
f 86/81/641 299/83/641 297/82/641
f 300/84/642 90/86/642 80/85/642
f 79/88/643 85/92/643 289/87/643
f 283/89/644 285/8/644 289/87/644
f 283/89/645 288/94/645 287/90/645
f 71/63/646 281/91/646 287/90/646
f 85/92/647 90/86/647 300/84/647
f 289/87/648 300/84/648 301/93/648
f 288/94/649 301/93/649 299/83/649
f 81/95/650 287/90/650 299/83/650
f 294/96/651 293/82/651 297/82/651
f 293/82/652 91/97/652 72/97/652
f 298/98/653 295/98/653 294/96/653
f 80/85/654 95/85/654 295/98/654
f 284/99/655 296/96/655 297/82/655
f 286/100/656 298/98/656 296/96/656
f 297/82/657 299/83/657 290/101/657
f 300/84/658 298/98/658 286/100/658
f 301/93/659 300/84/659 292/103/659
f 290/101/660 299/83/660 301/93/660
f 348/105/661 303/99/661 304/100/661
f 307/103/662 306/104/662 349/106/662
f 352/108/663 305/101/663 302/102/663
f 302/102/664 303/99/664 348/105/664
f 349/106/665 306/104/665 305/101/665
f 304/100/666 307/103/666 350/107/666
f 308/102/667 309/99/667 353/111/667
f 356/113/668 312/104/668 311/101/668
f 358/114/669 310/100/669 313/103/669
f 353/111/670 309/99/670 310/100/670
f 313/103/671 312/104/671 356/113/671
f 311/101/672 308/102/672 354/112/672
f 315/99/673 316/100/673 310/100/673
f 333/103/674 332/104/674 312/104/674
f 317/101/675 314/102/675 308/102/675
f 308/102/676 314/102/676 315/99/676
f 318/104/677 317/101/677 311/101/677
f 310/100/678 316/100/678 319/103/678
f 314/102/679 320/102/679 321/99/679
f 324/104/680 323/101/680 317/101/680
f 322/100/681 325/103/681 319/103/681
f 315/99/682 321/99/682 322/100/682
f 319/103/297 325/103/297 324/104/297
f 317/101/683 323/101/683 320/102/683
f 331/103/684 330/104/684 324/104/684
f 323/101/685 329/101/685 326/102/685
f 326/102/686 327/99/686 321/99/686
f 324/104/687 330/104/687 329/101/687
f 328/100/688 331/103/688 325/103/688
f 321/99/689 327/99/689 328/100/689
f 337/103/305 336/104/305 332/104/305
f 332/104/690 334/104/690 318/104/690
f 334/104/691 335/103/691 319/103/691
f 319/103/692 335/103/692 333/103/692
f 339/103/693 343/103/693 341/103/693
f 335/103/694 339/103/694 337/103/694
f 338/104/311 339/103/311 335/103/311
f 336/104/312 338/104/312 334/104/312
f 341/103/695 343/103/695 342/104/695
f 342/104/696 343/103/696 339/103/696
f 340/104/697 342/104/697 338/104/697
f 341/103/698 340/104/698 336/104/698
f 295/98/699 346/98/699 345/96/699
f 344/82/700 144/97/700 91/97/700
f 148/85/701 346/98/701 295/98/701
f 345/96/702 344/82/702 293/82/702
f 328/100/703 327/99/703 330/104/703
f 327/99/704 326/102/704 329/101/704
f 347/110/705 350/107/705 292/103/705
f 291/104/706 349/106/706 352/108/706
f 282/102/707 351/109/707 348/105/707
f 290/101/708 352/108/708 351/109/708
f 350/107/709 349/106/709 291/104/709
f 348/105/710 347/110/710 286/100/710
f 355/115/711 354/112/711 302/102/711
f 357/107/712 356/113/712 306/104/712
f 303/99/713 353/111/713 358/114/713
f 304/100/714 358/114/714 357/107/714
f 306/104/715 356/113/715 355/115/715
f 354/112/716 353/111/716 303/99/716
f 361/65/717 362/64/717 360/97/717
f 361/65/718 363/67/718 364/66/718
f 363/67/719 365/69/719 366/68/719
f 367/70/720 368/74/720 366/68/720
f 368/74/721 374/74/721 373/68/721
f 416/116/722 369/75/722 359/63/722
f 162/97/723 161/63/723 171/75/723
f 381/65/724 382/67/724 386/67/724
f 177/76/725 183/76/725 379/74/725
f 372/66/726 371/64/726 362/64/726
f 362/64/727 371/64/727 370/97/727
f 373/68/728 372/66/728 364/66/728
f 375/132/729 376/125/729 379/71/729
f 376/125/730 377/73/730 379/71/730
f 377/73/731 378/72/731 379/71/731
f 378/68/732 377/66/732 372/66/732
f 371/64/733 376/64/733 375/97/733
f 375/118/734 183/76/734 177/76/734
f 379/74/735 378/68/735 373/68/735
f 377/66/736 376/64/736 371/64/736
f 384/70/737 398/70/737 399/75/737
f 384/70/738 385/75/738 388/75/738
f 380/63/739 381/65/739 387/117/739
f 386/67/740 382/67/740 383/69/740
f 388/75/741 385/75/741 380/77/741
f 383/69/742 384/70/742 389/70/742
f 391/119/743 389/70/743 410/70/743
f 407/121/744 388/75/744 390/122/744
f 406/67/745 386/67/745 391/119/745
f 411/63/746 390/63/746 387/117/746
f 389/70/747 388/75/747 407/121/747
f 409/123/748 387/117/748 386/67/748
f 197/116/749 378/116/749 379/116/749
f 198/116/750 377/116/750 378/116/750
f 199/116/751 200/116/751 375/116/751
f 392/116/752 204/116/752 199/116/752
f 198/116/753 203/116/753 393/116/753
f 393/73/754 392/125/754 376/125/754
f 395/80/755 394/137/755 399/79/755
f 399/79/756 398/78/756 397/126/756
f 397/126/757 396/131/757 395/80/757
f 396/67/758 397/69/758 383/69/758
f 394/63/759 395/65/759 381/65/759
f 385/75/760 399/75/760 394/77/760
f 383/69/761 397/69/761 398/70/761
f 395/65/762 396/67/762 382/67/762
f 361/65/763 400/123/763 403/67/763
f 401/127/764 404/121/764 369/75/764
f 359/63/765 402/63/765 400/123/765
f 363/67/766 403/67/766 405/69/766
f 404/121/767 402/77/767 359/77/767
f 405/69/768 401/127/768 367/70/768
f 400/123/769 409/123/769 406/67/769
f 410/70/770 407/121/770 404/121/770
f 402/63/771 411/63/771 409/123/771
f 403/67/772 406/67/772 408/120/772
f 404/121/773 407/121/773 411/77/773
f 408/120/774 410/70/774 401/127/774
f 281/116/775 71/116/775 204/116/775
f 203/116/776 79/116/776 285/116/776
f 392/125/777 393/73/777 283/128/777
f 393/73/778 285/73/778 283/128/778
f 413/96/779 412/82/779 344/82/779
f 414/98/395 413/96/395 345/96/395
f 344/82/780 412/82/780 223/97/780
f 227/85/781 414/98/781 346/98/781
f 415/116/782 170/74/782 176/74/782
f 416/116/783 177/76/783 374/74/783
f 172/118/784 162/97/784 415/116/784
f 416/116/785 360/97/785 370/118/785
