# Blender 5.0.0
# www.blender.org
o body
v 0.496492 -0.836496 9.722189
v 0.583336 -0.739346 10.993127
v 0.476577 0.278155 9.789447
v 0.565221 0.486406 11.028839
v 0.246627 0.341088 9.693558
v -0.000000 0.369678 9.638877
v -0.000000 0.658669 11.162484
v 0.340386 0.599495 11.117970
v 0.631619 0.554539 10.787506
v 0.646511 0.545035 10.428615
v 0.576865 0.424383 10.056835
v 0.562963 -0.631520 9.636092
v 0.591550 -0.317049 9.607389
v 0.550611 0.022595 9.678486
v 0.654626 0.225672 11.108173
v 0.703310 -0.145583 11.141068
v 0.665741 -0.502555 11.087224
v 0.654036 -0.830154 10.740224
v 0.671875 -0.892060 10.367547
v 0.600616 -0.885222 9.988052
v -0.000000 -0.970373 9.556294
v 0.267098 -0.925011 9.615355
v 0.358752 -0.817453 11.080931
v -0.000000 -0.856363 11.126119
v -0.000000 0.674132 10.010116
v -0.000000 0.858995 10.428811
v -0.000000 0.860968 10.834505
v 0.290903 0.614872 10.036068
v 0.337850 0.778810 10.432088
v 0.344425 0.778265 10.814829
v 0.749642 0.108478 10.016520
v 0.841644 0.194318 10.413941
v 0.811618 0.221480 10.799637
v 0.812126 -0.260919 9.973364
v 0.912852 -0.205322 10.394156
v 0.878665 -0.167071 10.805375
v 0.764291 -0.610047 9.976046
v 0.857600 -0.587271 10.377871
v 0.825386 -0.539852 10.772004
v 0.317045 -1.052687 9.951994
v 0.365526 -1.074153 10.236256
v 0.369003 -0.996871 10.759681
v -0.000000 -1.112858 9.974174
v -0.000000 -1.133464 10.231327
v -0.000000 -1.050112 10.779279
v -0.000000 0.004889 9.372700
v 0.255090 0.002209 9.458199
v -0.000000 -0.369841 9.257287
v 0.272938 -0.355472 9.356436
v -0.000000 -0.709899 9.323182
v 0.266506 -0.681006 9.410868
v 0.373244 0.271111 11.294781
v -0.000000 0.302962 11.358637
v 0.399412 -0.129139 11.347405
v -0.000000 -0.120306 11.417135
v 0.383312 -0.515705 11.275746
v -0.000000 -0.530811 11.340314
v -0.000000 -1.256591 10.042436
v 0.899103 0.129189 10.403286
v 0.964296 0.059744 10.424372
v 0.972883 0.157159 10.220927
v 1.038076 0.087714 10.242013
v 0.910948 0.053346 9.977786
v 0.976141 -0.016099 9.998872
v 0.775233 -0.078438 9.917001
v 0.840426 -0.147883 9.938087
v 0.701452 -0.106409 10.099360
v 0.766645 -0.175854 10.120445
v 0.763387 -0.002596 10.342502
v 0.828580 -0.072040 10.363587
v 0.000000 0.608116 6.785948
v -0.000045 0.615689 8.934395
v 0.504716 0.474076 6.600330
v 0.828603 0.195195 8.516216
v 0.598099 0.170519 6.558028
v 0.958572 0.096594 8.852365
v 0.495931 -0.140218 6.507497
v 0.866807 -0.237826 8.862083
v -0.000000 -0.261991 6.647042
v 0.000046 -0.518063 8.622059
v -0.000000 0.657830 7.419006
v 0.570473 0.449756 7.426765
v 0.767003 0.023313 7.446252
v 0.571976 -0.306917 7.452345
v -0.000000 -0.421472 7.419006
v 0.000174 0.704476 8.506685
v 0.703747 0.146590 8.088489
v 0.718558 -0.165592 8.051972
v 0.697318 -0.424326 8.282262
v 0.000477 -0.488442 8.293124
v -0.000000 0.515979 9.105283
v 0.439945 0.410787 9.050562
v 0.633971 0.103067 9.056022
v 0.435110 -0.199617 9.068498
v -0.000000 -0.334730 8.897666
v 0.958142 0.102883 8.861733
v 0.710218 0.379752 8.704084
v 0.738425 -0.251298 8.972945
v 0.614287 0.364295 7.982584
v 0.622165 -0.396946 8.283328
v 0.716525 -0.140467 8.034163
v 1.568441 -0.448457 6.971014
v 1.659582 -0.589388 7.046106
v 1.563794 -0.782278 7.152233
v 1.164474 -0.515270 6.828123
v 1.097276 -0.681948 6.844319
v 1.161230 -0.852016 7.003518
v 1.945185 -1.282362 5.768640
v 2.010603 -1.401889 5.849074
v 1.943154 -1.524987 5.952002
v 1.639176 -1.327350 5.706103
v 1.585649 -1.466094 5.753880
v 1.637696 -1.572024 5.886539
v 1.971248 -1.272846 5.663307
v 2.060307 -1.401002 5.831192
v 1.988831 -1.642561 5.964532
v 1.817264 -1.367690 5.544360
v 1.787554 -1.526400 5.647673
v 1.816069 -1.783384 5.844105
v 2.245011 -1.462648 5.280903
v 2.301643 -1.681416 5.432618
v 2.243384 -1.936119 5.625136
v 2.084432 -1.622349 5.182394
v 2.054723 -1.781059 5.285706
v 2.083236 -2.038043 5.482138
v 2.184870 -1.868571 4.856899
v 2.196077 -2.037878 4.931259
v 2.184936 -2.196737 5.096089
v 2.094473 -1.893204 4.949542
v 2.068183 -1.991787 4.993810
v 2.093803 -2.163778 5.143987
v 1.576284 -1.629931 5.607789
v 1.607773 -1.714403 5.730155
v 1.771216 -1.651562 5.559505
v 1.791621 -1.867877 5.732839
v 1.629030 -1.794828 5.463196
v 1.654831 -1.864044 5.563462
v 1.788756 -1.812551 5.423633
v 1.805476 -1.989799 5.565661
v 1.704787 -1.968206 5.311524
v 1.715627 -2.015553 5.385843
v 1.822592 -1.965013 5.305818
v 1.831815 -2.089928 5.409122
v -0.000000 0.404502 9.235825
v 0.158780 0.287954 9.207429
v 0.252719 0.101461 9.143909
v 0.182110 -0.006843 9.143909
v -0.000000 -0.116119 9.105881
v 1.513457 -0.758228 7.259706
v 1.609217 -0.545972 7.178655
v 1.078577 -0.654567 6.899090
v 1.131938 -0.838074 7.061812
v 1.519667 -0.398906 7.099597
v 1.135871 -0.477842 6.905169
v 1.698690 -0.640473 6.935374
v 1.610076 -0.507289 6.851768
v 1.199386 -0.571263 6.750585
v 1.127148 -0.730186 6.789337
v 1.197586 -0.877950 6.961953
v 1.606353 -0.814279 7.064275
v 0.508210 1.456526 4.171006
v 0.519509 0.984956 5.456707
v 0.863355 1.272783 4.058074
v 1.026829 0.730121 5.566976
v 0.863355 1.028485 3.937350
v 1.028275 0.319440 5.275536
v 0.508191 0.843693 3.843562
v 0.513592 0.144739 5.054919
v 0.152952 1.029231 3.948514
v 0.144936 0.281688 5.249184
v 0.153066 1.264585 4.084032
v 0.512164 0.938129 5.715236
v 1.018175 0.620565 5.724986
v 1.020134 0.205591 5.444850
v 0.515757 0.067209 5.161702
v 0.136937 0.196346 5.343554
v -0.000000 0.762457 5.511156
v 0.418974 0.889489 5.844455
v 0.879472 0.473337 6.067018
v 0.876436 -0.034100 5.888623
v 0.449170 -0.134087 5.489417
v 0.134332 0.099359 5.476889
v 0.000000 0.825127 5.636463
v 0.430883 3.001046 2.453762
v 0.691277 2.895583 2.346620
v 0.691277 2.684659 2.132335
v 0.430883 2.579174 2.025142
v 0.170489 2.684503 2.132038
v 0.170489 2.895583 2.346620
v 0.822906 1.481376 3.440732
v 0.822906 1.663086 3.608021
v 0.152560 1.630874 3.580793
v 0.152560 1.448536 3.413282
v 0.487733 1.803966 3.779139
v 0.487733 1.068881 3.545580
v -0.000000 0.007537 5.593563
v -0.000000 -0.191952 5.691787
v -0.000000 -0.269581 5.954594
v 0.000000 0.809428 6.198840
v 0.000000 0.838329 5.890182
v 0.713104 0.432659 6.363254
v 0.709689 -0.106301 6.241091
v -0.000000 -0.238260 6.306279
v 0.000000 0.628045 6.536944
v 0.430883 4.003330 1.163768
v 0.625711 3.947369 1.065261
v 0.625711 3.826779 0.859683
v 0.430883 3.768628 0.763309
v 0.236055 3.822303 0.867249
v 0.236055 3.947275 1.064543
v 0.856043 1.312552 3.964448
v 0.152881 1.084672 3.831179
v 0.504509 1.494001 4.100978
v 0.856043 1.094015 3.831148
v 0.152975 1.312148 3.982644
v 0.504493 0.878453 3.783212
v 0.847217 1.182958 3.708244
v 0.152864 1.383337 3.871215
v 0.500029 0.923810 3.711265
v 0.847217 1.392202 3.865555
v 0.152796 1.171394 3.709077
v 0.500040 1.538117 3.998714
v -0.000000 0.330200 9.876726
v 0.182652 0.209765 9.876726
v 0.252719 0.101461 9.876726
v 0.182110 -0.006843 9.876726
v -0.000000 -0.127185 9.821652
v -0.496493 -0.836496 9.722189
v -0.583336 -0.739346 10.993127
v -0.476577 0.278155 9.789447
v -0.565221 0.486406 11.028839
v -0.246627 0.341088 9.693558
v -0.340386 0.599495 11.117970
v -0.631619 0.554539 10.787506
v -0.646511 0.545035 10.428615
v -0.576865 0.424383 10.056835
v -0.562963 -0.631520 9.636092
v -0.591550 -0.317049 9.607389
v -0.550611 0.022595 9.678486
v -0.654626 0.225672 11.108173
v -0.703310 -0.145583 11.141068
v -0.665741 -0.502555 11.087224
v -0.654036 -0.830154 10.740224
v -0.671875 -0.892060 10.367547
v -0.600616 -0.885222 9.988052
v -0.267098 -0.925011 9.615355
v -0.358752 -0.817453 11.080931
v -0.290903 0.614872 10.036068
v -0.337850 0.778810 10.432088
v -0.344425 0.778265 10.814829
v -0.749642 0.108478 10.016520
v -0.841644 0.194318 10.413941
v -0.811618 0.221480 10.799637
v -0.812126 -0.260919 9.973364
v -0.912852 -0.205322 10.394156
v -0.878665 -0.167071 10.805375
v -0.764291 -0.610047 9.976046
v -0.857600 -0.587271 10.377871
v -0.825386 -0.539852 10.772004
v -0.317045 -1.052687 9.951994
v -0.365526 -1.074153 10.236256
v -0.369003 -0.996871 10.759681
v -0.255090 0.002209 9.458199
v -0.272938 -0.355472 9.356436
v -0.266506 -0.681006 9.410868
v -0.373244 0.271111 11.294781
v -0.399412 -0.129139 11.347405
v -0.383312 -0.515705 11.275746
v -0.899103 0.129189 10.403286
v -0.964296 0.059744 10.424372
v -0.972883 0.157159 10.220927
v -1.038076 0.087714 10.242013
v -0.910948 0.053346 9.977786
v -0.976141 -0.016099 9.998872
v -0.775233 -0.078438 9.917001
v -0.840426 -0.147883 9.938087
v -0.701452 -0.106409 10.099360
v -0.766645 -0.175854 10.120445
v -0.763387 -0.002596 10.342502
v -0.828580 -0.072040 10.363587
v -0.504526 0.476275 6.666128
v -0.822573 0.475490 8.686356
v -0.598793 0.169840 6.623425
v -0.956853 0.156361 8.819901
v -0.495657 -0.121912 6.584832
v -0.863596 -0.081946 8.588320
v -0.567895 0.565337 7.469357
v -0.761846 0.260926 7.464362
v -0.569711 -0.189323 7.429090
v -0.689933 0.736821 8.345705
v -0.701952 0.555671 8.095082
v -0.684200 0.188929 8.062206
v -0.440480 0.379307 9.076688
v -0.634109 0.088419 9.049732
v -0.435366 -0.214358 9.041865
v -0.956583 0.152887 8.831435
v -0.708789 0.435266 8.835624
v -0.738411 -0.249030 8.859217
v -0.607110 0.665496 8.141750
v -0.616809 -0.170621 8.151569
v -0.701481 0.512669 8.072639
v -1.529452 1.347654 7.250088
v -1.620363 1.201903 7.188190
v -1.524707 0.999971 7.101860
v -1.125355 1.418090 7.108431
v -1.058579 1.302913 6.985284
v -1.122022 1.073849 6.952570
v -1.961278 1.708444 5.854434
v -2.026765 1.568591 5.819955
v -1.958800 1.410816 5.791950
v -1.658900 1.729167 5.766602
v -1.607192 1.602524 5.691198
v -1.657127 1.432391 5.700677
v -1.990817 1.793806 5.793561
v -2.077034 1.582135 5.810980
v -2.006925 1.323623 5.713538
v -1.843568 1.822697 5.637555
v -1.814183 1.640835 5.584569
v -1.842115 1.323604 5.521136
v -2.282634 1.954398 5.411125
v -2.339291 1.695692 5.348311
v -2.280615 1.383807 5.280370
v -2.129691 1.925328 5.219404
v -2.100306 1.743465 5.166419
v -2.128238 1.426234 5.102985
v -2.247735 2.007743 4.824521
v -2.260520 1.840310 4.746273
v -2.247505 1.611799 4.734337
v -2.154750 1.922673 4.862966
v -2.129376 1.824789 4.816658
v -2.153936 1.598309 4.786762
v -1.607113 1.605027 5.471501
v -1.636338 1.456968 5.489521
v -1.804114 1.625180 5.431731
v -1.823750 1.352170 5.383428
v -1.669059 1.605064 5.254608
v -1.693005 1.483745 5.269373
v -1.830481 1.621577 5.222021
v -1.846570 1.397874 5.182441
v -1.754456 1.604622 5.027650
v -1.763831 1.517385 5.041225
v -1.872274 1.609803 5.031274
v -1.880940 1.449756 5.005380
v -0.158780 0.287954 9.207429
v -0.252719 0.101461 9.143909
v -0.182110 -0.006843 9.143909
v -1.478942 0.928904 7.175981
v -1.574701 1.122096 7.295462
v -1.039763 1.275853 7.045650
v -1.094175 1.036036 6.996921
v -1.485052 1.272810 7.365705
v -1.098140 1.377135 7.190399
v -1.658740 1.253948 7.089220
v -1.570038 1.404133 7.133820
v -1.163057 1.443575 7.005438
v -1.093095 1.311177 6.907204
v -1.160846 1.084638 6.910329
v -1.565998 1.045158 7.035851
v -0.508053 -0.665087 4.067395
v -0.519458 0.446697 5.106691
v -0.866564 -0.852962 4.186463
v -1.031588 0.219263 5.404858
v -0.866564 -1.078780 4.352515
v -1.033048 -0.241128 5.627670
v -0.508034 -1.243229 4.475747
v -0.513485 -0.521238 5.652718
v -0.149427 -1.061117 4.355622
v -0.141336 -0.190143 5.491004
v -0.149542 -0.824994 4.191440
v -0.512044 0.670959 5.376078
v -1.022851 0.349173 5.583271
v -1.024829 -0.132585 5.776965
v -0.515671 -0.446104 5.713395
v -0.133260 -0.110864 5.540525
v -0.417970 0.784979 5.592917
v -0.882834 0.491855 6.105011
v -0.879769 0.009364 6.106584
v -0.448454 -0.314715 5.864953
v -0.130631 -0.023318 5.601999
v -0.429993 -1.930533 2.016801
v -0.658826 -2.046516 2.080068
v -0.658826 -2.278483 2.206601
v -0.429993 -2.394466 2.269869
v -0.201160 -2.278482 2.206601
v -0.201160 -2.046516 2.080068
v -0.825732 -1.359748 3.747026
v -0.825732 -1.145896 3.616269
v -0.149031 -1.181255 3.639991
v -0.149031 -1.395106 3.770748
v -0.487381 -0.939726 3.527036
v -0.487381 -1.378272 4.171824
v -0.714889 0.439289 6.424617
v -0.711441 -0.052197 6.352708
v -0.429993 -2.868848 0.667112
v -0.608102 -2.963999 0.709841
v -0.608102 -3.133135 0.826846
v -0.429993 -3.217703 0.885348
v -0.251883 -3.133135 0.826846
v -0.251883 -2.963999 0.709841
v -0.859183 -0.905918 4.083385
v -0.149356 -1.121495 4.249889
v -0.504316 -0.708999 3.965860
v -0.859183 -1.129574 4.243056
v -0.149450 -0.889398 4.091749
v -0.504300 -1.267642 4.420804
v -0.850273 -1.190879 4.110940
v -0.149338 -0.967133 3.971425
v -0.499794 -1.297108 4.354489
v -0.850273 -0.969835 3.958971
v -0.149269 -1.194371 4.122272
v -0.499806 -0.793737 3.864603
v -0.182652 0.209765 9.876726
v -0.252719 0.101461 9.876726
v -0.182110 -0.006843 9.876726
v 0.213411 0.665989 5.415855
v -0.199640 0.464678 5.259630
vn 0.2171 0.8930 -0.3943
vn 0.2309 0.9730 -0.0026
vn 0.2282 0.8287 0.5111
vn 0.5934 0.7171 0.3657
vn 0.6038 0.7971 0.0039
vn 0.5368 0.7678 -0.3497
vn 0.4335 0.6757 -0.5962
vn 0.2244 0.7535 -0.6180
vn 0.9488 0.1900 -0.2522
vn 0.9829 0.1719 0.0657
vn 0.9669 -0.1341 -0.2169
vn 0.9843 -0.1466 0.0981
vn 0.7198 0.4412 -0.5359
vn 0.8218 0.4872 -0.2955
vn 0.8739 0.4848 0.0339
vn 0.8176 0.4547 0.3533
vn 0.8793 0.1584 0.4492
vn 0.8717 -0.1659 0.4611
vn 0.7717 -0.4987 0.3948
vn 0.8452 -0.5193 0.1267
vn 0.8441 -0.5094 -0.1677
vn 0.7852 -0.4383 -0.4373
vn 0.8572 -0.1236 -0.4999
vn 0.8229 0.2097 -0.5281
vn 1.0000 -0.0000 -0.0000
vn 0.1564 -0.9765 0.1485
vn 0.4800 -0.7943 -0.3725
vn 0.5169 -0.8425 -0.1518
vn 0.4664 -0.8756 0.1262
vn 0.4808 -0.7739 0.4123
vn 0.1500 -0.8611 0.4857
vn 0.2261 -0.9220 -0.3144
vn 0.3148 0.2794 -0.9071
vn 0.3250 -0.1799 -0.9284
vn 0.2669 0.5681 -0.7785
vn 0.4934 0.5045 -0.7086
vn 0.5804 0.2495 -0.7751
vn 0.6137 -0.1420 -0.7766
vn 0.5175 -0.5489 -0.6564
vn 0.3026 -0.6356 -0.7102
vn 0.1733 0.1395 0.9749
vn 0.1703 -0.1865 0.9676
vn 0.5492 0.4099 0.7283
vn 0.1876 0.4801 0.8569
vn 0.1601 -0.5446 0.8233
vn 0.5064 -0.4648 0.7263
vn 0.5518 -0.1809 0.8141
vn 0.5611 0.1458 0.8148
vn 0.6237 0.6944 0.3588
vn 0.7220 0.5506 -0.4190
vn 0.3616 0.0569 -0.9306
vn -0.6237 -0.6944 -0.3589
vn 0.6532 -0.7421 0.1505
vn -0.7220 -0.5506 0.4190
vn -0.3616 -0.0569 0.9306
vn -0.6532 0.7421 -0.1505
vn 0.4322 0.8985 -0.0767
vn 0.1437 -0.9857 -0.0886
vn 0.1849 -0.9652 -0.1852
vn 0.9482 -0.2910 -0.1277
vn 0.9510 0.3019 -0.0668
vn 0.2593 0.9658 0.0078
vn 0.2016 -0.9724 -0.1175
vn 0.8585 -0.5083 -0.0679
vn 0.9083 0.4183 -0.0073
vn 0.3389 0.9335 0.1168
vn 0.3732 0.6883 0.6220
vn 0.3680 0.9068 0.2058
vn 0.2754 -0.1417 0.9508
vn 0.0411 -0.8319 0.5534
vn 0.7891 0.5261 -0.3170
vn 0.6540 -0.1746 0.7361
vn 0.6599 0.7004 -0.2722
vn -0.3130 -0.8736 0.3725
vn -0.6558 -0.4712 -0.5899
vn 0.8718 0.1283 -0.4728
vn 0.8871 -0.2161 0.4079
vn -0.8174 -0.4966 -0.2920
vn 0.0051 0.9002 -0.4354
vn 0.8254 0.5558 0.0989
vn -0.8474 0.2990 -0.4388
vn 0.0724 -0.9655 0.2500
vn 0.8559 0.5077 -0.0985
vn -0.8553 0.1603 -0.4927
vn 0.0135 -0.8407 0.5413
vn 0.9066 -0.1760 0.3836
vn -0.8772 -0.4775 -0.0508
vn 0.0166 0.8132 -0.5817
vn 0.2808 0.5204 0.8064
vn -0.9522 -0.1120 0.2842
vn -0.0741 0.9454 -0.3174
vn 0.6376 0.7370 0.2243
vn -0.4882 -0.1098 -0.8658
vn -0.5087 -0.1066 0.8543
vn 0.8147 0.4578 0.3560
vn -0.8463 -0.1702 -0.5049
vn 0.0996 -0.7144 0.6926
vn 0.8864 0.1325 0.4435
vn -0.8522 -0.3741 -0.3658
vn -0.2655 0.6853 -0.6781
vn -0.9945 -0.1044 0.0078
vn -0.6951 0.4536 -0.5577
vn 0.9694 0.0935 -0.2270
vn -0.9681 0.1798 -0.1745
vn 0.1937 -0.8884 0.4162
vn 0.9824 -0.1632 -0.0908
vn -0.9466 -0.3217 0.0215
vn -0.1859 0.6598 -0.7281
vn 0.9866 -0.0145 -0.1622
vn -0.5248 -0.6184 0.5849
vn -0.5513 -0.7418 0.3817
vn -0.5762 -0.6824 0.4499
vn 0.9949 0.1009 0.0088
vn -0.1193 0.6327 -0.7651
vn -0.2542 -0.6274 -0.7360
vn 0.9844 0.1568 0.0798
vn -0.1223 0.6227 -0.7729
vn -0.9321 -0.3621 -0.0101
vn 0.1937 -0.1263 0.9729
vn 0.2276 0.5257 0.8197
vn -0.0700 -0.6880 0.7223
vn 0.2212 0.1566 0.9626
vn -0.5155 -0.5993 -0.6124
vn -0.6227 -0.3488 -0.7004
vn -0.0043 -0.9516 0.3073
vn -0.8691 0.2954 -0.3967
vn 0.8055 0.5726 0.1528
vn 0.0463 0.8903 -0.4529
vn -0.9451 -0.1705 -0.2788
vn 0.8749 -0.2276 0.4275
vn 0.0639 0.8225 -0.5652
vn -0.7598 -0.5731 -0.3070
vn 0.8984 -0.1803 0.4005
vn 0.0537 -0.9298 0.3642
vn -0.7732 0.2051 -0.6001
vn 0.8347 0.5504 0.0199
vn 0.5111 0.8084 0.2920
vn 0.9941 0.0480 -0.0971
vn 0.5034 -0.7474 -0.4335
vn -0.5145 -0.7437 -0.4268
vn -0.5011 -0.6203 -0.6034
vn 0.9964 0.0738 -0.0423
vn -1.0000 0.0030 -0.0044
vn 0.9972 0.0504 -0.0548
vn -0.9740 -0.2026 0.1013
vn 0.9992 -0.0207 0.0341
vn 0.4446 0.7245 0.5267
vn 0.4668 -0.7111 -0.5258
vn -0.4686 -0.5971 0.6511
vn 0.4450 -0.8006 -0.4013
vn 0.4357 0.7490 0.4991
vn -0.3561 0.9298 0.0932
vn -0.4884 -0.7011 -0.5195
vn 0.9615 -0.1507 0.2299
vn -0.9992 0.0338 -0.0214
vn -0.9999 0.0068 -0.0074
vn 0.5461 0.6332 0.5485
vn 0.5001 -0.6117 -0.6129
vn -0.5000 0.6085 0.6163
vn -0.4757 -0.6329 -0.6109
vn -0.4796 -0.6775 -0.5576
vn -0.6135 0.6007 0.5126
vn 0.4824 -0.5626 -0.6714
vn 0.5515 0.5463 0.6305
vn -1.0000 -0.0002 0.0006
vn 0.9979 0.0441 -0.0479
vn 0.1266 -0.9906 0.0515
vn -0.4307 -0.3987 -0.8097
vn -0.0041 -0.9590 -0.2833
vn -0.6703 0.0389 -0.7411
vn -0.1107 0.9895 0.0927
vn 0.3797 0.8635 0.3318
vn 0.1898 -0.9779 0.0871
vn 0.9055 -0.1455 0.3986
vn 0.0007 0.8603 -0.5097
vn 0.4998 -0.6316 -0.5926
vn 0.4967 0.6854 0.5325
vn -0.4757 0.6918 0.5432
vn -0.4928 -0.6332 -0.5968
vn 0.9992 0.0283 -0.0279
vn 0.9974 0.0377 -0.0619
vn -1.0000 0.0001 0.0007
vn 0.5361 0.7557 0.3761
vn 0.5056 -0.7183 -0.4780
vn -0.5103 0.7784 0.3656
vn -0.5144 -0.7563 -0.4041
vn 0.9976 0.0417 -0.0555
vn -1.0000 -0.0000 0.0007
vn 0.4709 0.8173 0.3320
vn 0.5044 -0.6819 -0.5297
vn -0.4975 0.7308 0.4674
vn -0.4982 -0.7471 -0.4401
vn 0.2816 0.9562 0.0805
vn 0.2199 -0.9732 -0.0678
vn 0.7556 0.1434 0.6391
vn 0.8931 0.4499 -0.0000
vn 0.8377 -0.5461 -0.0000
vn 0.5488 0.8323 0.0777
vn 0.5165 -0.8562 -0.0132
vn -0.2171 0.8930 -0.3943
vn -0.2332 0.9724 -0.0047
vn -0.2282 0.8287 0.5111
vn -0.5362 0.7239 0.4341
vn -0.6140 0.7893 -0.0094
vn -0.5575 0.7416 -0.3731
vn -0.4335 0.6757 -0.5962
vn -0.2244 0.7535 -0.6180
vn -0.9486 0.1818 -0.2589
vn -0.9832 0.1706 0.0645
vn -0.9679 -0.1309 -0.2144
vn -0.9842 -0.1492 0.0957
vn -0.7191 0.4598 -0.5211
vn -0.8258 0.4724 -0.3080
vn -0.8791 0.4760 0.0239
vn -0.8176 0.4547 0.3533
vn -0.8813 0.1551 0.4463
vn -0.8704 -0.1617 0.4650
vn -0.7756 -0.4470 0.4457
vn -0.8474 -0.5145 0.1312
vn -0.8444 -0.5089 -0.1672
vn -0.7852 -0.4383 -0.4373
vn -0.8583 -0.1214 -0.4987
vn -0.8209 0.2013 -0.5345
vn -0.1488 -0.9784 0.1435
vn -0.5095 -0.7887 -0.3441
vn -0.5440 -0.8308 -0.1171
vn -0.5063 -0.8464 0.1648
vn -0.4808 -0.7739 0.4123
vn -0.1500 -0.8611 0.4857
vn -0.1482 -0.9172 -0.3698
vn -0.3082 0.2745 -0.9109
vn -0.3445 -0.1614 -0.9248
vn -0.2408 0.5577 -0.7943
vn -0.4461 0.4620 -0.7665
vn -0.5707 0.2336 -0.7872
vn -0.6232 -0.1271 -0.7717
vn -0.5828 -0.4680 -0.6643
vn -0.3026 -0.6356 -0.7102
vn -0.1783 0.1347 0.9747
vn -0.1652 -0.1814 0.9694
vn -0.5146 0.4458 0.7324
vn -0.1947 0.4737 0.8589
vn -0.1601 -0.5446 0.8233
vn -0.5064 -0.4648 0.7263
vn -0.5466 -0.1746 0.8190
vn -0.5630 0.1438 0.8139
vn -0.6237 0.6944 0.3588
vn -0.7220 0.5506 -0.4190
vn -0.3616 0.0569 -0.9306
vn 0.6237 -0.6944 -0.3589
vn -0.6532 -0.7421 0.1505
vn 0.7220 -0.5506 0.4190
vn 0.3616 -0.0569 0.9306
vn 0.6532 0.7421 -0.1505
vn -0.2675 0.9435 0.1957
vn -0.3843 -0.9080 -0.1667
vn -0.2590 -0.9607 -0.0994
vn -0.9150 -0.3798 -0.1363
vn -0.9458 0.3061 -0.1086
vn -0.1669 0.9829 -0.0772
vn -0.3774 -0.9261 -0.0006
vn -0.8829 -0.3965 0.2517
vn -0.8354 0.5344 -0.1283
vn -0.0384 0.9983 -0.0428
vn -0.4606 0.3923 0.7962
vn -0.2784 0.8199 0.5002
vn -0.5764 -0.2593 0.7749
vn -0.1731 -0.8745 0.4531
vn -0.6121 0.5103 0.6041
vn -0.9500 -0.3043 -0.0695
vn -0.3476 0.8044 0.4818
vn -0.8609 -0.2687 -0.4319
vn -0.9947 -0.0559 0.0862
vn 0.9944 0.0575 -0.0892
vn -0.8732 -0.4810 0.0779
vn 0.8172 -0.0692 -0.5721
vn 0.0170 0.8423 0.5387
vn -0.8301 0.2652 0.4905
vn 0.8523 0.5226 -0.0219
vn -0.0974 -0.7478 -0.6568
vn -0.8477 0.3957 0.3533
vn 0.8024 0.5655 -0.1908
vn 0.0071 -0.9603 -0.2790
vn -0.8880 -0.4336 0.1530
vn 0.8633 -0.2641 -0.4301
vn -0.0209 0.9724 0.2325
vn -0.2390 -0.2686 0.9331
vn 0.9586 -0.2779 0.0620
vn 0.0864 0.8613 0.5006
vn -0.2105 -0.1400 0.9675
vn 0.4543 0.5853 -0.6716
vn 0.1772 -0.9120 0.3700
vn -0.7720 0.3577 0.5254
vn 0.8233 0.2773 -0.4953
vn -0.0927 -0.9925 -0.0793
vn -0.8024 -0.3884 0.4530
vn 0.8291 0.0385 -0.5578
vn 0.1300 0.9457 0.2979
vn 0.9912 -0.0642 -0.1155
vn 0.3104 0.9448 0.1044
vn -0.9742 0.2225 -0.0377
vn 0.9813 0.1790 -0.0703
vn -0.2010 -0.8996 -0.3878
vn -0.9796 -0.1571 -0.1250
vn 0.9384 -0.2179 -0.2681
vn 0.1764 0.9843 0.0113
vn -0.9918 0.1025 -0.0758
vn 0.5384 -0.8415 -0.0449
vn 0.5878 -0.7539 -0.2936
vn 0.5746 -0.7816 -0.2430
vn -0.9911 0.0494 0.1238
vn 0.1078 0.9937 -0.0306
vn -0.0370 -0.1498 -0.9880
vn -0.9767 0.0327 0.2120
vn 0.1103 0.9929 -0.0435
vn 0.9218 -0.2207 -0.3187
vn -0.2303 -0.1760 0.9571
vn -0.2150 0.5200 0.8266
vn 0.0491 -0.6888 0.7232
vn -0.2414 0.0710 0.9678
vn 0.4945 0.0608 -0.8670
vn 0.4592 0.4744 -0.7511
vn -0.2162 -0.8361 -0.5042
vn 0.9509 0.2274 -0.2100
vn -0.6349 0.5100 0.5804
vn -0.1489 0.8117 0.5647
vn 0.9489 0.0734 -0.3068
vn -0.8960 -0.4354 0.0873
vn -0.0746 0.9613 0.2652
vn 0.7195 -0.1011 -0.6871
vn -0.8503 -0.4875 0.1982
vn 0.0630 -0.9516 -0.3009
vn 0.7855 0.6032 -0.1383
vn -0.8312 0.3276 0.4493
vn -0.5144 0.5828 -0.6291
vn -0.9944 -0.0435 -0.0964
vn -0.4401 -0.7758 0.4522
vn 0.5196 -0.7272 0.4485
vn 0.6642 -0.4579 0.5909
vn 0.2962 0.6539 -0.6962
vn -0.7042 0.6351 0.3174
vn -0.9956 -0.0487 -0.0796
vn 0.9762 -0.1435 0.1626
vn -0.9990 0.0220 0.0390
vn -0.5796 0.6341 -0.5119
vn -0.3549 -0.5936 0.7223
vn -0.1012 -0.0248 0.9946
vn -0.3105 -0.6458 0.6975
vn -0.5741 0.8006 -0.1719
vn -0.0402 0.8915 -0.4513
vn 0.6621 -0.4439 0.6038
vn -0.9271 0.1431 0.3464
vn 0.9995 -0.0148 -0.0271
vn 0.9996 -0.0151 -0.0248
vn -0.5460 0.6908 -0.4740
vn -0.5281 -0.7555 0.3877
vn 0.6163 0.6690 -0.4155
vn 0.4681 -0.7734 0.4274
vn 0.4841 -0.7870 0.3826
vn 0.4974 0.8028 -0.3289
vn -0.4762 -0.8151 0.3298
vn -0.4952 0.7579 -0.4248
vn 1.0000 0.0005 0.0004
vn -0.9981 -0.0351 -0.0510
vn 0.0901 -0.9946 0.0517
vn 0.0463 -0.4413 -0.8962
vn 0.1514 -0.9480 -0.2800
vn -0.0766 0.0522 -0.9957
vn -0.3505 0.9139 0.2049
vn -0.3504 0.8771 0.3284
vn -0.3066 -0.9514 -0.0283
vn -0.8258 -0.0034 0.5639
vn -0.0000 -0.5689 -0.8224
vn -0.4997 -0.7445 0.4428
vn -0.4978 0.7121 -0.4951
vn 0.4978 0.7121 -0.4951
vn 0.4997 -0.7445 0.4428
vn -0.9995 -0.0148 -0.0271
vn -0.9981 -0.0369 -0.0502
vn 1.0000 0.0007 0.0003
vn -0.5267 0.7402 -0.4180
vn -0.4846 -0.8111 0.3275
vn 0.4902 0.7323 -0.4727
vn 0.5166 -0.7689 0.3767
vn -0.9981 -0.0361 -0.0506
vn 1.0000 0.0006 0.0003
vn -0.5427 0.7307 -0.4143
vn -0.4808 -0.8129 0.3285
vn 0.5260 0.6636 -0.5319
vn 0.5025 -0.7769 0.3793
vn -0.2669 0.9599 0.0855
vn -0.2559 -0.9653 -0.0521
vn -0.7570 0.1441 0.6373
vn -0.8931 0.4499 -0.0000
vn -0.8377 -0.5461 -0.0000
vn -0.5999 0.7948 0.0921
vn -0.5165 -0.8562 -0.0132
vn -0.3249 0.1954 -0.9253
vn 0.9813 0.0197 -0.1915
vn 0.0232 0.7281 -0.6850
vn 0.1016 0.6013 -0.7925
vn 0.2158 0.8929 -0.3952
vn 0.2332 0.9724 -0.0047
vn 0.2114 0.8407 0.4986
vn 0.5362 0.7239 0.4341
vn 0.6140 0.7893 -0.0094
vn 0.5575 0.7416 -0.3731
vn 0.4895 0.6746 -0.5525
vn 0.2088 0.7506 -0.6269
vn 0.9486 0.1818 -0.2589
vn 0.9832 0.1706 0.0645
vn 0.9679 -0.1309 -0.2144
vn 0.9842 -0.1492 0.0957
vn 0.7191 0.4598 -0.5211
vn 0.8258 0.4724 -0.3080
vn 0.8791 0.4760 0.0239
vn 0.8171 0.4050 0.4103
vn 0.8813 0.1551 0.4463
vn 0.8704 -0.1617 0.4650
vn 0.7756 -0.4470 0.4457
vn 0.8474 -0.5145 0.1312
vn 0.8444 -0.5089 -0.1672
vn 0.7820 -0.4824 -0.3947
vn 0.8583 -0.1214 -0.4987
vn 0.8209 0.2013 -0.5345
vn 0.1806 -0.9804 -0.0786
vn 0.1607 -0.9818 -0.1015
vn 0.1488 -0.9784 0.1435
vn 0.5095 -0.7887 -0.3441
vn 0.5440 -0.8308 -0.1171
vn 0.5063 -0.8464 0.1648
vn 0.4448 -0.7758 0.4475
vn 0.1542 -0.8626 0.4818
vn 0.1482 -0.9172 -0.3698
vn 0.3082 0.2745 -0.9109
vn 0.3445 -0.1614 -0.9248
vn 0.2408 0.5577 -0.7943
vn 0.4461 0.4620 -0.7665
vn 0.5707 0.2336 -0.7872
vn 0.6232 -0.1271 -0.7717
vn 0.5828 -0.4680 -0.6643
vn 0.2684 -0.6184 -0.7387
vn 0.1783 0.1347 0.9747
vn 0.1652 -0.1814 0.9694
vn 0.5146 0.4458 0.7324
vn 0.1947 0.4737 0.8589
vn 0.1626 -0.5423 0.8243
vn 0.4611 -0.5075 0.7279
vn 0.5466 -0.1746 0.8190
vn 0.5630 0.1438 0.8139
vn -0.6237 -0.6944 -0.3588
vn 0.3643 0.9118 0.1895
vn 0.2696 -0.9504 0.1553
vn 0.2036 -0.9588 -0.1981
vn 0.8337 -0.4968 -0.2409
vn 0.9051 0.4124 -0.1038
vn 0.3426 0.9366 -0.0736
vn 0.1440 -0.9867 -0.0757
vn 0.8981 -0.4282 -0.1006
vn 0.9673 0.2104 0.1417
vn 0.4591 0.8876 -0.0381
vn 0.7187 0.4624 0.5192
vn 0.2600 0.8341 0.4866
vn 0.5134 -0.0495 0.8567
vn 0.0345 -0.8292 0.5579
vn 0.7765 0.6189 -0.1187
vn 0.9438 -0.2528 0.2130
vn 0.9378 0.3213 -0.1316
vn 0.2401 -0.9572 0.1617
vn -0.2399 -0.6296 -0.7389
vn 0.9978 0.0521 -0.0405
vn 0.8645 -0.2169 0.4534
vn -0.8997 -0.4263 -0.0940
vn -0.0082 0.9320 -0.3623
vn 0.8050 0.5820 0.1152
vn -0.8432 0.2890 -0.4534
vn 0.0689 -0.9619 0.2646
vn 0.8918 0.4487 -0.0585
vn -0.8176 0.2445 -0.5213
vn -0.0044 -0.8410 0.5410
vn 0.9005 -0.1874 0.3924
vn -0.8742 -0.4837 -0.0433
vn -0.0006 0.8131 -0.5821
vn 0.5223 0.2884 0.8025
vn -0.9782 -0.1043 0.1797
vn -0.4984 0.8658 -0.0451
vn 0.2525 0.6315 0.7331
vn -0.6769 -0.3084 -0.6684
vn -0.1520 -0.3163 0.9364
vn 0.7897 0.6116 0.0479
vn 0.0041 -0.8165 0.5774
vn 0.8248 0.0659 0.5616
vn -0.1272 0.8492 -0.5125
vn -0.9926 -0.1152 0.0374
vn -0.3155 0.7074 -0.6325
vn 0.9811 -0.0196 -0.1926
vn -0.9852 0.0892 -0.1463
vn -0.1567 -0.9273 0.3399
vn 0.9751 -0.2219 0.0016
vn -0.1340 0.5823 -0.8018
vn 0.9828 -0.0499 -0.1780
vn -0.5311 -0.5735 0.6237
vn -0.5918 -0.7020 0.3962
vn -0.0031 -0.8436 -0.5370
vn 0.9874 0.1375 0.0782
vn -0.0549 0.6029 -0.7959
vn -0.9371 -0.3397 -0.0797
vn 0.2238 -0.1071 0.9687
vn 0.5591 0.6305 0.5384
vn 0.0136 -0.3488 0.9371
vn 0.5008 -0.0422 0.8645
vn -0.5312 -0.6008 -0.5974
vn -0.4954 -0.2425 -0.8342
vn 0.0266 -0.9438 0.3294
vn -0.9401 -0.0047 -0.3408
vn 0.6575 0.7527 -0.0334
vn 0.3571 0.9107 -0.2077
vn -0.9171 -0.3783 -0.1259
vn 0.8739 -0.2310 0.4277
vn -0.0281 0.8925 -0.4502
vn -0.8754 -0.4804 -0.0541
vn 0.8628 -0.1656 0.4777
vn -0.0373 -0.8621 0.5053
vn -0.7924 0.2661 -0.5489
vn 0.8236 0.5665 0.0295
vn 0.3830 0.8817 0.2756
vn 0.9944 0.0637 -0.0848
vn 0.4558 -0.7620 -0.4599
vn -0.5053 -0.7468 -0.4324
vn -0.5196 -0.6964 -0.4951
vn 1.0000 -0.0029 -0.0049
vn -0.9860 0.1308 0.1035
vn 0.9973 0.0527 -0.0519
vn -0.9696 -0.1884 -0.1560
vn 0.9990 -0.0219 0.0395
vn 0.4116 0.8946 0.1737
vn 0.4711 -0.7423 -0.4765
vn -0.5037 -0.2838 0.8159
vn -0.5543 -0.1785 0.8130
vn -0.3954 -0.2665 0.8790
vn 0.4712 -0.8308 -0.2962
vn 0.4281 0.6996 0.5721
vn 0.0844 0.8912 -0.4457
vn -0.4930 -0.6931 -0.5259
vn 0.9369 -0.1209 0.3279
vn -0.9992 0.0283 -0.0279
vn -0.9999 0.0072 -0.0071
vn 0.4993 0.6452 0.5783
vn 0.5356 -0.5890 -0.6051
vn -0.6160 0.5713 0.5424
vn -0.4993 -0.6201 -0.6052
vn -0.4866 -0.6377 -0.5971
vn -0.4917 0.5409 0.6824
vn 0.4755 -0.6441 -0.5992
vn 0.4943 0.6218 0.6074
vn -1.0000 -0.0005 0.0006
vn 0.9981 0.0371 -0.0493
vn -0.3128 -0.4662 -0.8275
vn 0.2570 -0.9658 -0.0332
vn 0.3636 0.7191 0.5923
vn 0.3359 0.8300 0.4453
vn 0.2532 -0.9643 -0.0777
vn 0.8729 -0.1131 0.4747
vn 0.0007 0.8701 -0.4929
vn -0.0072 0.8625 -0.5060
vn -0.0527 0.8436 -0.5344
vn 0.4863 -0.6358 -0.5994
vn 0.4740 0.6924 0.5441
vn -0.4967 0.6854 0.5325
vn -0.4991 -0.6312 -0.5937
vn 0.9992 0.0347 -0.0203
vn 0.9983 0.0260 -0.0527
vn -1.0000 -0.0001 0.0008
vn 0.5120 0.8043 0.3016
vn 0.5026 -0.7354 -0.4544
vn -0.5246 0.7388 0.4231
vn -0.5073 -0.7793 -0.3679
vn 0.9983 0.0303 -0.0497
vn -1.0000 -0.0003 0.0008
vn 0.5426 0.6772 0.4970
vn 0.5047 -0.7158 -0.4826
vn -0.5212 0.7751 0.3572
vn -0.5003 -0.7061 -0.5011
vn 0.2821 0.9563 0.0765
vn 0.1848 -0.9825 0.0232
vn 0.7543 -0.3394 0.5620
vn 0.9090 -0.0976 0.4053
vn 0.8391 0.5429 0.0335
vn 0.5999 0.7948 0.0921
vn 0.5513 -0.8343 -0.0000
vn -0.2158 0.8929 -0.3952
vn -0.2309 0.9730 -0.0026
vn -0.2114 0.8407 0.4986
vn -0.5934 0.7171 0.3657
vn -0.6038 0.7971 0.0039
vn -0.5368 0.7678 -0.3497
vn -0.4895 0.6746 -0.5525
vn -0.2088 0.7506 -0.6269
vn -0.9488 0.1900 -0.2522
vn -0.9829 0.1719 0.0657
vn -0.9669 -0.1341 -0.2169
vn -0.9843 -0.1466 0.0981
vn -0.7198 0.4412 -0.5359
vn -0.8218 0.4872 -0.2955
vn -0.8739 0.4848 0.0339
vn -0.8171 0.4050 0.4103
vn -0.8793 0.1584 0.4492
vn -0.8717 -0.1659 0.4611
vn -0.7717 -0.4987 0.3948
vn -0.8452 -0.5193 0.1267
vn -0.8441 -0.5094 -0.1677
vn -0.7820 -0.4824 -0.3947
vn -0.8572 -0.1236 -0.4999
vn -0.8229 0.2097 -0.5281
vn -0.1607 -0.9818 -0.1015
vn -0.1806 -0.9804 -0.0786
vn -0.1564 -0.9765 0.1485
vn -0.4800 -0.7943 -0.3725
vn -0.5169 -0.8425 -0.1518
vn -0.4664 -0.8756 0.1262
vn -0.4448 -0.7758 0.4475
vn -0.1542 -0.8626 0.4818
vn -0.2261 -0.9220 -0.3144
vn -0.3148 0.2794 -0.9071
vn -0.3250 -0.1799 -0.9284
vn -0.2669 0.5681 -0.7785
vn -0.4934 0.5045 -0.7086
vn -0.5804 0.2495 -0.7751
vn -0.6137 -0.1420 -0.7766
vn -0.5175 -0.5489 -0.6564
vn -0.2683 -0.6184 -0.7387
vn -0.1733 0.1395 0.9749
vn -0.1703 -0.1865 0.9676
vn -0.5492 0.4099 0.7283
vn -0.1876 0.4801 0.8569
vn -0.1626 -0.5423 0.8243
vn -0.4611 -0.5075 0.7279
vn -0.5518 -0.1809 0.8141
vn -0.5611 0.1458 0.8148
vn 0.6237 -0.6944 -0.3588
vn -0.2262 0.9339 0.2767
vn -0.4415 -0.8936 -0.0810
vn -0.3735 -0.9084 -0.1877
vn -0.9417 -0.3186 -0.1080
vn -0.8218 0.5271 -0.2164
vn -0.2230 0.9668 -0.1248
vn -0.4443 -0.8933 -0.0682
vn -0.9897 -0.1297 -0.0612
vn -0.8076 0.5689 -0.1553
vn -0.1722 0.9728 -0.1549
vn -0.5931 0.3266 0.7359
vn -0.2880 0.8271 0.4827
vn -0.4609 -0.3240 0.8262
vn -0.0467 -0.8317 0.5532
vn -0.7362 0.6430 0.2109
vn -0.8762 -0.4676 0.1165
vn 0.9055 0.3449 0.2471
vn -0.6124 -0.7673 -0.1903
vn 0.9007 0.0619 -0.4300
vn -0.6387 0.6078 -0.4719
vn -0.8942 -0.4448 0.0497
vn 0.9070 -0.1982 -0.3715
vn 0.0007 0.8946 0.4468
vn -0.7980 0.2686 0.5395
vn 0.8506 0.5250 -0.0298
vn -0.0843 -0.7838 -0.6153
vn -0.8817 0.3297 0.3374
vn 0.8408 0.4857 -0.2391
vn -0.0153 -0.9606 -0.2776
vn -0.8965 -0.4141 0.1573
vn 0.8597 -0.2763 -0.4296
vn 0.0005 0.9729 0.2313
vn -0.4861 -0.4206 0.7660
vn 0.9810 -0.1939 -0.0019
vn 0.5180 0.6082 0.6015
vn -0.6107 0.3087 0.7292
vn 0.6448 0.3080 -0.6995
vn 0.5359 -0.7086 0.4591
vn -0.7898 0.0242 0.6128
vn -0.0039 -0.9718 -0.2358
vn -0.8665 -0.2563 0.4283
vn 0.2583 0.9642 0.0599
vn 0.9902 -0.0936 -0.1041
vn 0.6860 0.7256 -0.0536
vn -0.9875 0.1221 -0.0999
vn 0.9655 0.2597 -0.0199
vn 0.1455 -0.8640 -0.4820
vn -0.9888 -0.0489 -0.1411
vn 0.1200 0.9884 -0.0933
vn -0.9894 0.0912 -0.1130
vn 0.5296 -0.8418 -0.1040
vn 0.5459 -0.7695 -0.3314
vn 0.2121 0.1449 -0.9664
vn -0.9803 0.0213 0.1965
vn 0.0417 0.9966 -0.0706
vn 0.9249 -0.1535 -0.3477
vn -0.2506 -0.1634 0.9542
vn -0.5591 0.6305 0.5384
vn -0.0457 -0.3954 0.9174
vn -0.4413 -0.0821 0.8936
vn 0.4783 0.0730 -0.8751
vn 0.5886 0.3050 -0.7487
vn -0.0616 -0.7926 -0.6066
vn 0.8856 0.4634 0.0329
vn -0.8083 0.2277 0.5430
vn -0.0139 0.8725 0.4885
vn 0.9145 -0.1296 -0.3833
vn -0.8824 -0.4680 0.0495
vn 0.0459 0.9047 0.4235
vn 0.8709 -0.2662 -0.4132
vn -0.8952 -0.4287 0.1217
vn -0.0812 -0.8454 -0.5279
vn 0.7541 0.5988 -0.2700
vn -0.8074 0.3320 0.4877
vn -0.5879 0.5661 -0.5778
vn -0.9941 -0.0644 -0.0875
vn -0.4956 -0.7414 0.4525
vn 0.6968 -0.5715 0.4334
vn 0.6622 -0.4443 0.6033
vn 0.4839 0.5693 -0.6646
vn -0.5094 0.8065 0.3003
vn -0.9957 -0.0444 -0.0814
vn 0.9849 -0.1548 0.0774
vn -0.9992 0.0184 0.0355
vn -0.5995 0.6607 -0.4517
vn -0.3841 -0.7366 0.5567
vn 0.6473 0.2383 0.7240
vn 0.5588 0.0063 0.8293
vn 0.5577 0.1312 0.8196
vn -0.3297 -0.8057 0.4921
vn -0.5826 0.8101 -0.0652
vn -0.0393 0.8937 -0.4470
vn 0.7497 -0.6271 0.2112
vn -0.9654 -0.0053 0.2605
vn 0.9995 -0.0178 -0.0257
vn 0.9996 -0.0140 -0.0256
vn -0.4986 0.7230 -0.4781
vn -0.5000 -0.7666 0.4030
vn 0.4999 0.7502 -0.4328
vn 0.5000 -0.7611 0.4132
vn 0.4785 -0.7624 0.4357
vn 0.6154 0.6623 -0.4273
vn -0.4758 -0.8097 0.3436
vn -0.5530 0.7571 -0.3478
vn 1.0000 0.0004 0.0007
vn -0.9980 -0.0333 -0.0544
vn -0.1614 -0.5583 -0.8138
vn -0.0819 -0.6635 0.7437
vn -0.1899 0.9775 0.0915
vn -0.2934 0.8424 0.4519
vn -0.2468 -0.9652 0.0860
vn -0.8878 -0.0727 0.4545
vn -0.0000 -0.4097 -0.9122
vn -0.4991 -0.7448 0.4429
vn -0.4988 0.7115 -0.4949
vn 0.4988 0.7115 -0.4949
vn 0.4991 -0.7448 0.4429
vn -0.9995 -0.0178 -0.0257
vn -0.9979 -0.0373 -0.0523
vn 1.0000 0.0007 0.0005
vn -0.5405 0.7648 -0.3506
vn -0.4843 -0.8056 0.3412
vn 0.5175 0.7922 -0.3235
vn 0.5122 -0.7457 0.4262
vn -0.9979 -0.0363 -0.0528
vn 1.0000 0.0006 0.0005
vn -0.4858 0.6595 -0.5736
vn -0.4820 -0.8067 0.3418
vn 0.5024 0.7265 -0.4689
vn 0.5038 -0.7500 0.4286
vn -0.2691 0.9600 0.0768
vn -0.2636 -0.9623 -0.0670
vn -0.8996 -0.0694 0.4312
vn -0.7378 -0.3381 0.5843
vn -0.8391 0.5429 0.0335
vn -0.5488 0.8323 0.0777
vn -0.5513 -0.8343 -0.0000
vn -0.9868 0.1524 0.0541
vn 0.8521 -0.1469 -0.5024
vn -0.7242 0.6818 0.1029
vn 0.2562 0.7394 -0.6226
vt 0.500000 0.375000
vt 0.437500 0.437500
vt 0.437500 0.375000
vt 0.562500 0.437500
vt 0.500000 0.437500
vt 0.625000 0.375000
vt 0.562500 0.375000
vt 0.625000 0.500000
vt 0.562500 0.500000
vt 0.500000 0.500000
vt 0.437500 0.500000
vt 0.375000 0.500000
vt 0.375000 0.437500
vt 0.375000 0.375000
vt 0.437500 0.562500
vt 0.500000 0.625000
vt 0.437500 0.625000
vt 0.500000 0.562500
vt 0.562500 0.625000
vt 0.500000 0.687500
vt 0.437500 0.687500
vt 0.562500 0.687500
vt 0.375000 0.562500
vt 0.562500 0.562500
vt 0.625000 0.625000
vt 0.625000 0.687500
vt 0.625000 0.750000
vt 0.562500 0.750000
vt 0.500000 0.750000
vt 0.437500 0.750000
vt 0.375000 0.750000
vt 0.375000 0.687500
vt 0.375000 0.625000
vt 0.500000 0.875000
vt 0.468750 0.875000
vt 0.437500 0.875000
vt 0.500000 0.812500
vt 0.562500 0.875000
vt 0.437500 0.812500
vt 0.375000 0.812500
vt 0.562500 0.812500
vt 0.625000 0.812500
vt 0.375000 0.875000
vt 0.250000 0.562500
vt 0.312500 0.625000
vt 0.250000 0.625000
vt 0.312500 0.687500
vt 0.250000 0.687500
vt 0.250000 0.500000
vt 0.312500 0.562500
vt 0.312500 0.500000
vt 0.312500 0.750000
vt 0.250000 0.750000
vt 0.687500 0.562500
vt 0.750000 0.625000
vt 0.687500 0.625000
vt 0.750000 0.687500
vt 0.687500 0.687500
vt 0.625000 0.562500
vt 0.687500 0.500000
vt 0.750000 0.562500
vt 0.687500 0.750000
vt 1.000000 0.500000
vt 0.833333 1.000000
vt 0.833333 0.500000
vt 0.666667 1.000000
vt 0.666667 0.500000
vt 0.500000 1.000000
vt 0.500000 0.500000
vt 0.333333 0.500000
vt 0.042154 0.130000
vt 0.250000 0.010000
vt 0.457846 0.130000
vt 0.333333 1.000000
vt 0.166667 0.500000
vt 0.166667 1.000000
vt -0.000000 0.500000
vt 0.542154 0.130000
vt 0.542154 0.370000
vt 0.957846 0.370000
vt 1.000000 0.828637
vt 0.875000 1.000000
vt 0.875000 0.828637
vt 0.625000 0.828637
vt 0.500000 1.000000
vt 0.500000 0.828637
vt 0.625000 0.645722
vt 0.500000 0.500000
vt 0.750000 0.500000
vt 0.875000 0.645722
vt 0.875000 0.500000
vt 0.500000 0.645722
vt 0.750000 0.828637
vt 0.750000 0.645722
vt 1.000000 0.645722
vt 0.750000 1.000000
vt 1.000000 1.000000
vt 0.625000 1.000000
vt 0.749520 0.964446
vt 0.653402 0.965669
vt 0.844587 0.863513
vt 0.844268 0.965118
vt 0.647775 0.863148
vt 0.750840 0.864057
vt 0.749520 0.964446
vt 0.750840 0.864057
vt 0.647775 0.863149
vt 0.844587 0.863513
vt 0.844267 0.965117
vt 0.653402 0.965669
vt 0.749520 0.964446
vt 0.844268 0.965117
vt 0.750840 0.864057
vt 0.653402 0.965669
vt 0.844587 0.863513
vt 0.000000 0.000000
vt 0.833333 0.500000
vt -0.000000 1.000000
vt 0.500000 0.500000
vt 0.500000 0.500000
vt 0.166667 0.500000
vt -0.000000 0.500000
vt 0.833333 0.500000
vt 0.042154 0.370000
vt 0.457846 0.370000
vt 0.750000 0.010000
vt 0.333333 0.500000
vt 0.457846 0.250000
vt 0.625000 0.437500
vt 0.750000 0.500000
vt 0.957846 0.130000
vt 0.250000 0.490000
vt 0.625000 0.875000
vt 0.750000 0.750000
vt 0.250000 0.490000
vt 0.750000 0.490000
vt 0.750000 0.490000
s 0
f 26/1/1 28/2/1 25/3/1
f 26/1/2 30/4/2 29/5/2
f 7/6/3 30/4/3 27/7/3
f 30/4/4 4/8/4 9/9/4
f 29/5/5 9/9/5 10/10/5
f 28/2/6 10/10/6 11/11/6
f 28/2/7 3/12/7 5/13/7
f 25/3/8 5/13/8 6/14/8
f 31/15/9 35/16/9 34/17/9
f 32/18/10 36/19/10 35/16/10
f 34/17/11 38/20/11 37/21/11
f 35/16/12 39/22/12 38/20/12
f 3/12/13 31/15/13 14/23/13
f 11/11/14 32/18/14 31/15/14
f 10/10/15 33/24/15 32/18/15
f 4/8/16 33/24/16 9/9/16
f 33/24/17 16/25/17 36/19/17
f 36/19/18 17/26/18 39/22/18
f 39/22/19 2/27/19 18/28/19
f 38/20/20 18/28/20 19/29/20
f 37/21/21 19/29/21 20/30/21
f 37/21/22 1/31/22 12/32/22
f 13/33/23 37/21/23 12/32/23
f 14/23/24 34/17/24 13/33/24
f 44/34/25 58/35/25 43/36/25
f 41/37/26 45/38/26 44/34/26
f 1/31/27 40/39/27 22/40/27
f 20/30/28 41/37/28 40/39/28
f 19/29/29 42/41/29 41/37/29
f 2/27/30 42/41/30 18/28/30
f 23/42/31 45/38/31 42/41/31
f 22/40/32 43/36/32 21/43/32
f 46/44/33 49/45/33 48/46/33
f 48/46/34 51/47/34 50/48/34
f 6/49/35 47/50/35 46/44/35
f 5/51/36 14/23/36 47/50/36
f 47/50/37 13/33/37 49/45/37
f 49/45/38 12/32/38 51/47/38
f 51/47/39 1/31/39 22/52/39
f 51/47/40 21/53/40 50/48/40
f 52/54/41 55/55/41 54/56/41
f 54/56/42 57/57/42 56/58/42
f 4/8/43 52/54/43 15/59/43
f 8/60/44 53/61/44 52/54/44
f 57/57/45 23/62/45 56/58/45
f 56/58/46 2/27/46 17/26/46
f 16/25/47 56/58/47 17/26/47
f 15/59/48 54/56/48 16/25/48
f 59/63/49 62/64/49 61/65/49
f 61/65/50 64/66/50 63/67/50
f 63/67/51 66/68/51 65/69/51
f 66/68/52 67/70/52 65/69/52
f 68/71/53 66/72/53 64/73/53
f 68/74/54 69/75/54 67/70/54
f 70/76/55 59/77/55 69/75/55
f 67/78/56 69/79/56 61/80/56
f 86/81/57 97/82/57 99/83/57
f 100/84/58 80/85/58 90/86/58
f 84/87/59 79/88/59 77/8/59
f 75/89/60 84/87/60 77/8/60
f 82/90/61 75/89/61 73/91/61
f 71/63/62 82/90/62 73/91/62
f 100/84/63 85/92/63 84/87/63
f 101/93/64 84/87/64 83/94/64
f 99/83/65 83/94/65 82/90/65
f 81/95/66 99/83/66 82/90/66
f 97/82/67 93/96/67 96/96/67
f 72/97/68 92/82/68 97/82/68
f 98/98/69 93/96/69 94/98/69
f 80/85/70 94/98/70 95/85/70
f 76/99/71 97/82/71 96/96/71
f 78/100/72 96/96/72 98/98/72
f 87/101/73 97/82/73 74/102/73
f 78/100/74 100/84/74 89/103/74
f 89/103/75 101/93/75 88/104/75
f 87/101/76 101/93/76 99/83/76
f 150/105/77 104/100/77 103/99/77
f 151/106/78 107/103/78 152/107/78
f 154/108/79 102/102/79 105/101/79
f 150/105/80 102/102/80 153/109/80
f 151/106/81 105/101/81 106/104/81
f 152/107/82 104/100/82 149/110/82
f 155/111/83 108/102/83 156/112/83
f 158/113/84 111/101/84 112/104/84
f 160/114/85 113/103/85 110/100/85
f 155/111/86 110/100/86 109/99/86
f 158/113/87 113/103/87 159/107/87
f 156/112/88 111/101/88 157/115/88
f 110/100/89 115/99/89 109/99/89
f 112/104/90 133/103/90 113/103/90
f 108/102/91 117/101/91 111/101/91
f 108/102/92 115/99/92 114/102/92
f 111/101/93 118/104/93 112/104/93
f 110/100/94 119/103/94 116/100/94
f 114/102/95 121/99/95 120/102/95
f 117/101/96 124/104/96 118/104/96
f 119/103/97 122/100/97 116/100/97
f 115/99/98 122/100/98 121/99/98
f 119/103/99 124/104/99 125/103/99
f 117/101/100 120/102/100 123/101/100
f 124/104/101 131/103/101 125/103/101
f 123/101/102 126/102/102 129/101/102
f 121/99/103 126/102/103 120/102/103
f 124/104/104 129/101/104 130/104/104
f 125/103/105 128/100/105 122/100/105
f 121/99/106 128/100/106 127/99/106
f 132/104/107 137/103/107 133/103/107
f 118/104/108 132/104/108 112/104/108
f 119/103/109 134/104/109 118/104/109
f 119/103/110 133/103/110 135/103/110
f 139/103/111 141/103/111 143/103/111
f 135/103/112 137/103/112 139/103/112
f 135/103/113 138/104/113 134/104/113
f 134/104/114 136/104/114 132/104/114
f 141/103/115 142/104/115 143/103/115
f 139/103/116 142/104/116 138/104/116
f 138/104/117 140/104/117 136/104/117
f 136/104/118 141/103/118 137/103/118
f 94/98/119 146/96/119 147/98/119
f 91/97/120 145/82/120 92/82/120
f 94/98/121 148/85/121 95/85/121
f 92/82/122 146/96/122 93/96/122
f 128/100/123 130/104/123 127/99/123
f 127/99/124 129/101/124 126/102/124
f 89/103/125 149/110/125 78/100/125
f 88/104/126 154/108/126 151/106/126
f 74/102/127 150/105/127 153/109/127
f 87/101/128 153/109/128 154/108/128
f 88/104/129 152/107/129 89/103/129
f 78/100/130 150/105/130 76/99/130
f 102/102/131 157/115/131 105/101/131
f 106/104/132 159/107/132 107/103/132
f 103/99/133 160/114/133 155/111/133
f 104/100/134 159/107/134 160/114/134
f 106/104/135 157/115/135 158/113/135
f 103/99/136 156/112/136 102/102/136
f 162/97/137 163/65/137 161/63/137
f 163/65/138 166/66/138 165/67/138
f 165/67/139 168/68/139 167/69/139
f 168/68/140 169/70/140 167/69/140
f 170/74/141 175/68/141 176/74/141
f 368/74/142 369/75/142 416/116/142
f 170/74/143 171/75/143 169/70/143
f 190/67/144 185/65/144 191/117/144
f 177/76/145 182/74/145 183/76/145
f 164/64/146 174/66/146 166/66/146
f 164/64/147 172/97/147 173/64/147
f 166/66/148 175/68/148 168/68/148
f 182/71/149 181/72/149 180/73/149
f 174/66/150 181/68/150 175/68/150
f 173/64/151 178/97/151 179/64/151
f 177/76/152 178/118/152 172/118/152
f 175/68/153 182/74/153 176/74/153
f 173/64/154 180/66/154 174/66/154
f 188/70/155 210/75/155 209/70/155
f 192/75/156 188/70/156 193/70/156
f 191/117/157 184/63/157 194/63/157
f 190/67/158 187/69/158 186/67/158
f 192/75/159 184/77/159 189/75/159
f 193/70/160 187/69/160 195/119/160
f 221/70/161 195/119/161 219/120/161
f 218/121/162 194/122/162 192/75/162
f 217/67/163 195/119/163 190/67/163
f 222/63/164 191/117/164 194/63/164
f 218/121/165 193/70/165 221/70/165
f 220/123/166 190/67/166 191/117/166
f 183/76/167 178/118/167 200/116/167
f 182/116/168 197/116/168 196/116/168
f 181/116/169 198/116/169 197/116/169
f 196/116/170 183/124/170 182/71/170
f 199/116/171 178/116/171 200/116/171
f 199/116/172 201/116/172 179/116/172
f 198/116/173 202/116/173 203/116/173
f 179/125/174 202/73/174 180/73/174
f 206/80/175 208/126/175 210/79/175
f 187/69/176 207/67/176 186/67/176
f 185/65/177 205/63/177 184/63/177
f 189/75/178 205/77/178 210/75/178
f 187/69/179 209/70/179 208/69/179
f 186/67/180 206/65/180 185/65/180
f 163/65/181 214/67/181 211/123/181
f 171/75/182 212/127/182 169/70/182
f 161/63/183 211/123/183 213/63/183
f 165/67/184 216/69/184 214/67/184
f 161/77/185 215/121/185 171/75/185
f 169/70/186 216/69/186 167/69/186
f 211/123/187 217/67/187 220/123/187
f 215/121/188 221/70/188 212/127/188
f 213/63/189 220/123/189 222/63/189
f 214/67/190 219/120/190 217/67/190
f 215/121/191 222/77/191 218/121/191
f 212/127/192 219/120/192 216/69/192
f 204/116/193 73/116/193 201/116/193
f 203/116/194 77/116/194 79/116/194
f 201/125/195 73/125/195 75/128/195
f 145/82/196 225/96/196 146/96/196
f 146/96/197 226/98/197 147/98/197
f 145/82/198 223/97/198 224/82/198
f 147/98/199 227/85/199 148/85/199
f 248/2/200 26/1/200 25/3/200
f 26/1/201 250/4/201 27/7/201
f 250/4/202 7/6/202 27/7/202
f 250/4/203 231/8/203 233/129/203
f 249/5/204 234/9/204 250/4/204
f 248/2/205 235/10/205 249/5/205
f 230/12/206 248/2/206 232/13/206
f 232/13/207 25/3/207 6/14/207
f 251/15/208 255/16/208 252/18/208
f 252/18/209 256/19/209 253/24/209
f 254/17/210 258/20/210 255/16/210
f 255/16/211 259/22/211 256/19/211
f 230/12/212 251/15/212 236/11/212
f 236/11/213 252/18/213 235/10/213
f 235/10/214 253/24/214 234/9/214
f 253/24/215 231/8/215 234/9/215
f 253/24/216 241/25/216 240/59/216
f 256/19/217 242/26/217 241/25/217
f 259/22/218 229/27/218 242/26/218
f 258/20/219 243/28/219 259/22/219
f 257/21/220 244/29/220 258/20/220
f 228/31/221 257/21/221 237/32/221
f 238/33/222 257/21/222 254/17/222
f 239/23/223 254/17/223 251/15/223
f 261/37/224 45/38/224 262/41/224
f 228/31/225 260/39/225 245/30/225
f 245/30/226 261/37/226 244/29/226
f 244/29/227 262/41/227 243/28/227
f 262/41/228 229/27/228 243/28/228
f 45/38/229 247/42/229 262/41/229
f 246/40/230 43/36/230 260/39/230
f 46/44/231 264/45/231 263/50/231
f 48/46/232 265/47/232 264/45/232
f 6/49/233 263/50/233 232/51/233
f 232/51/234 239/23/234 230/12/234
f 263/50/235 238/33/235 239/23/235
f 264/45/236 237/32/236 238/33/236
f 265/47/237 228/31/237 237/32/237
f 21/53/238 265/47/238 50/48/238
f 266/54/239 55/55/239 53/61/239
f 267/56/240 57/57/240 55/55/240
f 231/8/241 266/54/241 233/60/241
f 233/60/242 53/61/242 7/130/242
f 247/62/243 57/57/243 268/58/243
f 229/27/244 268/58/244 242/26/244
f 241/25/245 268/58/245 267/56/245
f 240/59/246 267/56/246 266/54/246
f 269/63/247 272/64/247 270/97/247
f 271/65/248 274/66/248 272/64/248
f 273/67/249 276/68/249 274/66/249
f 277/70/250 276/68/250 275/69/250
f 278/71/251 280/124/251 274/73/251
f 279/75/252 278/74/252 277/70/252
f 269/77/253 280/76/253 279/75/253
f 271/80/254 277/78/254 273/131/254
f 86/81/255 297/82/255 72/97/255
f 300/84/256 80/85/256 298/98/256
f 79/88/257 289/87/257 285/8/257
f 283/89/258 289/87/258 288/94/258
f 283/89/259 287/90/259 281/91/259
f 71/63/260 287/90/260 81/95/260
f 85/92/261 300/84/261 289/87/261
f 289/87/262 301/93/262 288/94/262
f 288/94/263 299/83/263 287/90/263
f 81/95/264 299/83/264 86/81/264
f 294/96/265 297/82/265 296/96/265
f 293/82/266 72/97/266 297/82/266
f 298/98/267 294/96/267 296/96/267
f 80/85/268 295/98/268 298/98/268
f 284/99/269 297/82/269 282/102/269
f 286/100/270 296/96/270 284/99/270
f 297/82/271 290/101/271 282/102/271
f 300/84/272 286/100/272 292/103/272
f 301/93/273 292/103/273 291/104/273
f 290/101/274 301/93/274 291/104/274
f 348/105/275 304/100/275 347/110/275
f 307/103/276 349/106/276 350/107/276
f 352/108/277 302/102/277 351/109/277
f 302/102/278 348/105/278 351/109/278
f 349/106/279 305/101/279 352/108/279
f 304/100/280 350/107/280 347/110/280
f 308/102/281 353/111/281 354/112/281
f 356/113/282 311/101/282 355/115/282
f 358/114/283 313/103/283 357/107/283
f 353/111/284 310/100/284 358/114/284
f 313/103/285 356/113/285 357/107/285
f 311/101/286 354/112/286 355/115/286
f 315/99/287 310/100/287 309/99/287
f 333/103/288 312/104/288 313/103/288
f 317/101/289 308/102/289 311/101/289
f 308/102/290 315/99/290 309/99/290
f 318/104/291 311/101/291 312/104/291
f 310/100/292 319/103/292 313/103/292
f 314/102/293 321/99/293 315/99/293
f 324/104/294 317/101/294 318/104/294
f 322/100/295 319/103/295 316/100/295
f 315/99/296 322/100/296 316/100/296
f 319/103/297 324/104/297 318/104/297
f 317/101/298 320/102/298 314/102/298
f 331/103/299 324/104/299 325/103/299
f 323/101/300 326/102/300 320/102/300
f 326/102/301 321/99/301 320/102/301
f 324/104/302 329/101/302 323/101/302
f 328/100/303 325/103/303 322/100/303
f 321/99/304 328/100/304 322/100/304
f 337/103/305 332/104/305 333/103/305
f 332/104/306 318/104/306 312/104/306
f 334/104/307 319/103/307 318/104/307
f 319/103/308 333/103/308 313/103/308
f 339/103/309 341/103/309 337/103/309
f 335/103/310 337/103/310 333/103/310
f 338/104/311 335/103/311 334/104/311
f 336/104/312 334/104/312 332/104/312
f 341/103/313 342/104/313 340/104/313
f 342/104/314 339/103/314 338/104/314
f 340/104/315 338/104/315 336/104/315
f 341/103/316 336/104/316 337/103/316
f 295/98/317 345/96/317 294/96/317
f 344/82/318 91/97/318 293/82/318
f 148/85/319 295/98/319 95/85/319
f 345/96/320 293/82/320 294/96/320
f 328/100/321 330/104/321 331/103/321
f 327/99/322 329/101/322 330/104/322
f 347/110/323 292/103/323 286/100/323
f 291/104/324 352/108/324 290/101/324
f 282/102/325 348/105/325 284/99/325
f 290/101/326 351/109/326 282/102/326
f 350/107/327 291/104/327 292/103/327
f 348/105/328 286/100/328 284/99/328
f 355/115/329 302/102/329 305/101/329
f 357/107/330 306/104/330 307/103/330
f 303/99/331 358/114/331 304/100/331
f 304/100/332 357/107/332 307/103/332
f 306/104/333 355/115/333 305/101/333
f 354/112/334 303/99/334 302/102/334
f 361/65/335 360/97/335 359/63/335
f 361/65/336 364/66/336 362/64/336
f 363/67/337 366/68/337 364/66/337
f 367/70/338 366/68/338 365/69/338
f 368/74/339 373/68/339 366/68/339
f 416/116/340 359/63/340 360/97/340
f 162/97/341 171/75/341 415/116/341
f 381/65/342 386/67/342 387/117/342
f 177/76/343 379/74/343 374/74/343
f 372/66/344 362/64/344 364/66/344
f 362/64/345 370/97/345 360/97/345
f 373/68/346 364/66/346 366/68/346
f 379/71/347 183/124/347 375/132/347
f 378/68/348 372/66/348 373/68/348
f 371/64/349 375/97/349 370/97/349
f 375/118/350 177/76/350 370/118/350
f 379/74/351 373/68/351 374/74/351
f 377/66/352 371/64/352 372/66/352
f 384/70/353 399/75/353 385/75/353
f 384/70/354 388/75/354 389/70/354
f 380/63/355 387/117/355 390/63/355
f 386/67/356 383/69/356 391/119/356
f 388/75/357 380/77/357 390/122/357
f 383/69/358 389/70/358 391/119/358
f 391/119/359 410/70/359 408/120/359
f 407/121/360 390/122/360 411/77/360
f 406/67/361 391/119/361 408/120/361
f 411/63/362 387/117/362 409/123/362
f 389/70/363 407/121/363 410/70/363
f 409/123/364 386/67/364 406/67/364
f 183/76/365 200/116/365 375/118/365
f 197/116/366 379/116/366 196/116/366
f 198/116/367 378/116/367 197/116/367
f 196/116/368 379/71/368 183/124/368
f 199/116/369 375/116/369 376/116/369
f 392/116/370 199/116/370 376/116/370
f 198/116/371 393/116/371 377/116/371
f 393/73/372 376/125/372 377/73/372
f 399/79/373 397/126/373 395/80/373
f 396/67/374 383/69/374 382/67/374
f 394/63/375 381/65/375 380/63/375
f 385/75/376 394/77/376 380/77/376
f 383/69/377 398/70/377 384/70/377
f 395/65/378 382/67/378 381/65/378
f 361/65/379 403/67/379 363/67/379
f 401/127/380 369/75/380 367/70/380
f 359/63/381 400/123/381 361/65/381
f 363/67/382 405/69/382 365/69/382
f 404/121/383 359/77/383 369/75/383
f 405/69/384 367/70/384 365/69/384
f 400/123/385 406/67/385 403/67/385
f 410/70/386 404/121/386 401/127/386
f 402/63/387 409/123/387 400/123/387
f 403/67/388 408/120/388 405/69/388
f 404/121/389 411/77/389 402/77/389
f 408/120/390 401/127/390 405/69/390
f 281/116/391 204/116/391 392/116/391
f 203/116/392 285/116/392 393/116/392
f 283/128/393 281/125/393 392/125/393
f 413/96/394 344/82/394 345/96/394
f 414/98/395 345/96/395 346/98/395
f 344/82/396 223/97/396 144/97/396
f 227/85/397 346/98/397 148/85/397
f 415/116/398 176/74/398 177/76/398
f 416/116/399 374/74/399 368/74/399
f 172/118/400 415/116/400 177/76/400
f 416/116/401 370/118/401 177/76/401
f 26/1/402 29/5/402 28/2/402
f 26/1/403 27/7/403 30/4/403
f 7/6/404 8/129/404 30/4/404
f 30/4/405 8/129/405 4/8/405
f 29/5/406 30/4/406 9/9/406
f 28/2/407 29/5/407 10/10/407
f 28/2/408 11/11/408 3/12/408
f 25/3/409 28/2/409 5/13/409
f 31/15/410 32/18/410 35/16/410
f 32/18/411 33/24/411 36/19/411
f 34/17/412 35/16/412 38/20/412
f 35/16/413 36/19/413 39/22/413
f 3/12/414 11/11/414 31/15/414
f 11/11/415 10/10/415 32/18/415
f 10/10/416 9/9/416 33/24/416
f 4/8/417 15/59/417 33/24/417
f 33/24/418 15/59/418 16/25/418
f 36/19/419 16/25/419 17/26/419
f 39/22/420 17/26/420 2/27/420
f 38/20/421 39/22/421 18/28/421
f 37/21/422 38/20/422 19/29/422
f 37/21/423 20/30/423 1/31/423
f 13/33/424 34/17/424 37/21/424
f 14/23/425 31/15/425 34/17/425
f 43/36/426 40/39/426 44/34/426
f 40/39/427 41/37/427 44/34/427
f 41/37/428 42/41/428 45/38/428
f 1/31/429 20/30/429 40/39/429
f 20/30/430 19/29/430 41/37/430
f 19/29/431 18/28/431 42/41/431
f 2/27/432 23/42/432 42/41/432
f 23/42/433 24/133/433 45/38/433
f 22/40/434 40/39/434 43/36/434
f 46/44/435 47/50/435 49/45/435
f 48/46/436 49/45/436 51/47/436
f 6/49/437 5/51/437 47/50/437
f 5/51/438 3/12/438 14/23/438
f 47/50/439 14/23/439 13/33/439
f 49/45/440 13/33/440 12/32/440
f 51/47/441 12/32/441 1/31/441
f 51/47/442 22/52/442 21/53/442
f 52/54/443 53/61/443 55/55/443
f 54/56/444 55/55/444 57/57/444
f 4/8/445 8/60/445 52/54/445
f 8/60/446 7/130/446 53/61/446
f 57/57/447 24/134/447 23/62/447
f 56/58/448 23/62/448 2/27/448
f 16/25/449 54/56/449 56/58/449
f 15/59/450 52/54/450 54/56/450
f 59/63/49 60/97/49 62/64/49
f 61/65/50 62/64/50 64/66/50
f 63/67/51 64/66/51 66/68/51
f 66/68/451 68/74/451 67/70/451
f 64/73/53 62/125/53 68/71/53
f 62/125/53 60/135/53 70/124/53
f 68/71/53 62/125/53 70/124/53
f 68/74/54 70/76/54 69/75/54
f 70/76/55 60/118/55 59/77/55
f 69/79/56 59/136/56 61/80/56
f 61/80/56 63/131/56 67/78/56
f 63/131/56 65/126/56 67/78/56
f 86/81/452 72/97/452 97/82/452
f 100/84/453 98/98/453 80/85/453
f 84/87/454 85/92/454 79/88/454
f 75/89/455 83/94/455 84/87/455
f 82/90/456 83/94/456 75/89/456
f 71/63/457 81/95/457 82/90/457
f 100/84/458 90/86/458 85/92/458
f 101/93/459 100/84/459 84/87/459
f 99/83/460 101/93/460 83/94/460
f 81/95/461 86/81/461 99/83/461
f 97/82/462 92/82/462 93/96/462
f 72/97/463 91/97/463 92/82/463
f 98/98/464 96/96/464 93/96/464
f 80/85/465 98/98/465 94/98/465
f 76/99/466 74/102/466 97/82/466
f 78/100/467 76/99/467 96/96/467
f 87/101/468 99/83/468 97/82/468
f 78/100/469 98/98/469 100/84/469
f 89/103/470 100/84/470 101/93/470
f 87/101/471 88/104/471 101/93/471
f 150/105/472 149/110/472 104/100/472
f 151/106/473 106/104/473 107/103/473
f 154/108/474 153/109/474 102/102/474
f 150/105/475 103/99/475 102/102/475
f 151/106/476 154/108/476 105/101/476
f 152/107/477 107/103/477 104/100/477
f 155/111/478 109/99/478 108/102/478
f 158/113/479 157/115/479 111/101/479
f 160/114/480 159/107/480 113/103/480
f 155/111/481 160/114/481 110/100/481
f 158/113/482 112/104/482 113/103/482
f 156/112/483 108/102/483 111/101/483
f 110/100/484 116/100/484 115/99/484
f 112/104/485 132/104/485 133/103/485
f 108/102/486 114/102/486 117/101/486
f 108/102/487 109/99/487 115/99/487
f 111/101/488 117/101/488 118/104/488
f 110/100/489 113/103/489 119/103/489
f 114/102/490 115/99/490 121/99/490
f 117/101/96 123/101/96 124/104/96
f 119/103/491 125/103/491 122/100/491
f 115/99/492 116/100/492 122/100/492
f 119/103/99 118/104/99 124/104/99
f 117/101/493 114/102/493 120/102/493
f 124/104/494 130/104/494 131/103/494
f 123/101/495 120/102/495 126/102/495
f 121/99/496 127/99/496 126/102/496
f 124/104/497 123/101/497 129/101/497
f 125/103/498 131/103/498 128/100/498
f 121/99/499 122/100/499 128/100/499
f 132/104/107 136/104/107 137/103/107
f 118/104/500 134/104/500 132/104/500
f 119/103/501 135/103/501 134/104/501
f 119/103/502 113/103/502 133/103/502
f 139/103/503 137/103/503 141/103/503
f 135/103/112 133/103/112 137/103/112
f 135/103/113 139/103/113 138/104/113
f 134/104/114 138/104/114 136/104/114
f 141/103/504 140/104/504 142/104/504
f 139/103/505 143/103/505 142/104/505
f 138/104/506 142/104/506 140/104/506
f 136/104/507 140/104/507 141/103/507
f 94/98/508 93/96/508 146/96/508
f 91/97/509 144/97/509 145/82/509
f 94/98/510 147/98/510 148/85/510
f 92/82/511 145/82/511 146/96/511
f 128/100/512 131/103/512 130/104/512
f 127/99/513 130/104/513 129/101/513
f 89/103/514 152/107/514 149/110/514
f 88/104/515 87/101/515 154/108/515
f 74/102/516 76/99/516 150/105/516
f 87/101/517 74/102/517 153/109/517
f 88/104/518 151/106/518 152/107/518
f 78/100/519 149/110/519 150/105/519
f 102/102/520 156/112/520 157/115/520
f 106/104/521 158/113/521 159/107/521
f 103/99/522 104/100/522 160/114/522
f 104/100/523 107/103/523 159/107/523
f 106/104/524 105/101/524 157/115/524
f 103/99/525 155/111/525 156/112/525
f 162/97/526 164/64/526 163/65/526
f 163/65/527 164/64/527 166/66/527
f 165/67/528 166/66/528 168/68/528
f 168/68/529 170/74/529 169/70/529
f 170/74/530 168/68/530 175/68/530
f 368/74/531 367/70/531 369/75/531
f 170/74/532 415/116/532 171/75/532
f 190/67/533 186/67/533 185/65/533
f 177/76/534 176/74/534 182/74/534
f 164/64/535 173/64/535 174/66/535
f 164/64/536 162/97/536 172/97/536
f 166/66/537 174/66/537 175/68/537
f 180/73/538 179/125/538 182/71/538
f 179/125/539 178/132/539 182/71/539
f 178/132/540 183/124/540 182/71/540
f 174/66/541 180/66/541 181/68/541
f 173/64/542 172/97/542 178/97/542
f 177/76/543 183/76/543 178/118/543
f 175/68/544 181/68/544 182/74/544
f 173/64/545 179/64/545 180/66/545
f 188/70/546 189/75/546 210/75/546
f 192/75/547 189/75/547 188/70/547
f 191/117/548 185/65/548 184/63/548
f 190/67/549 195/119/549 187/69/549
f 192/75/550 194/122/550 184/77/550
f 193/70/551 188/70/551 187/69/551
f 221/70/552 193/70/552 195/119/552
f 218/121/553 222/77/553 194/122/553
f 217/67/554 219/120/554 195/119/554
f 222/63/555 220/123/555 191/117/555
f 218/121/556 192/75/556 193/70/556
f 220/123/557 217/67/557 190/67/557
f 182/116/558 181/116/558 197/116/558
f 181/116/559 180/116/559 198/116/559
f 199/116/560 179/116/560 178/116/560
f 199/116/561 204/116/561 201/116/561
f 198/116/562 180/116/562 202/116/562
f 179/125/563 201/125/563 202/73/563
f 210/79/564 205/137/564 206/80/564
f 206/80/565 207/131/565 208/126/565
f 208/126/566 209/78/566 210/79/566
f 187/69/567 208/69/567 207/67/567
f 185/65/568 206/65/568 205/63/568
f 189/75/569 184/77/569 205/77/569
f 187/69/570 188/70/570 209/70/570
f 186/67/571 207/67/571 206/65/571
f 163/65/572 165/67/572 214/67/572
f 171/75/573 215/121/573 212/127/573
f 161/63/574 163/65/574 211/123/574
f 165/67/575 167/69/575 216/69/575
f 161/77/576 213/77/576 215/121/576
f 169/70/577 212/127/577 216/69/577
f 211/123/578 214/67/578 217/67/578
f 215/121/579 218/121/579 221/70/579
f 213/63/580 211/123/580 220/123/580
f 214/67/581 216/69/581 219/120/581
f 215/121/582 213/77/582 222/77/582
f 212/127/583 221/70/583 219/120/583
f 204/116/584 71/116/584 73/116/584
f 203/116/585 202/116/585 77/116/585
f 77/73/586 202/73/586 75/128/586
f 202/73/587 201/125/587 75/128/587
f 145/82/588 224/82/588 225/96/588
f 146/96/197 225/96/197 226/98/197
f 145/82/589 144/97/589 223/97/589
f 147/98/590 226/98/590 227/85/590
f 248/2/591 249/5/591 26/1/591
f 26/1/592 249/5/592 250/4/592
f 250/4/593 233/129/593 7/6/593
f 250/4/594 234/9/594 231/8/594
f 249/5/595 235/10/595 234/9/595
f 248/2/596 236/11/596 235/10/596
f 230/12/597 236/11/597 248/2/597
f 232/13/598 248/2/598 25/3/598
f 251/15/599 254/17/599 255/16/599
f 252/18/600 255/16/600 256/19/600
f 254/17/601 257/21/601 258/20/601
f 255/16/602 258/20/602 259/22/602
f 230/12/603 239/23/603 251/15/603
f 236/11/604 251/15/604 252/18/604
f 235/10/605 252/18/605 253/24/605
f 253/24/606 240/59/606 231/8/606
f 253/24/607 256/19/607 241/25/607
f 256/19/608 259/22/608 242/26/608
f 259/22/609 243/28/609 229/27/609
f 258/20/610 244/29/610 243/28/610
f 257/21/611 245/30/611 244/29/611
f 228/31/612 245/30/612 257/21/612
f 238/33/613 237/32/613 257/21/613
f 239/23/614 238/33/614 254/17/614
f 261/37/615 260/39/615 44/34/615
f 260/39/616 43/36/616 44/34/616
f 261/37/617 44/34/617 45/38/617
f 228/31/618 246/40/618 260/39/618
f 245/30/619 260/39/619 261/37/619
f 244/29/620 261/37/620 262/41/620
f 262/41/621 247/42/621 229/27/621
f 45/38/622 24/133/622 247/42/622
f 246/40/623 21/43/623 43/36/623
f 46/44/624 48/46/624 264/45/624
f 48/46/625 50/48/625 265/47/625
f 6/49/626 46/44/626 263/50/626
f 232/51/627 263/50/627 239/23/627
f 263/50/628 264/45/628 238/33/628
f 264/45/629 265/47/629 237/32/629
f 265/47/630 246/52/630 228/31/630
f 21/53/631 246/52/631 265/47/631
f 266/54/632 267/56/632 55/55/632
f 267/56/633 268/58/633 57/57/633
f 231/8/634 240/59/634 266/54/634
f 233/60/635 266/54/635 53/61/635
f 247/62/636 24/134/636 57/57/636
f 229/27/637 247/62/637 268/58/637
f 241/25/638 242/26/638 268/58/638
f 240/59/639 241/25/639 267/56/639
f 269/63/247 271/65/247 272/64/247
f 271/65/248 273/67/248 274/66/248
f 273/67/249 275/69/249 276/68/249
f 277/70/640 278/74/640 276/68/640
f 270/135/251 272/125/251 280/124/251
f 272/125/251 274/73/251 280/124/251
f 274/73/251 276/72/251 278/71/251
f 279/75/252 280/76/252 278/74/252
f 269/77/253 270/118/253 280/76/253
f 271/80/254 269/136/254 279/79/254
f 279/79/254 277/78/254 271/80/254
f 277/78/254 275/126/254 273/131/254
f 86/81/641 299/83/641 297/82/641
f 300/84/642 90/86/642 80/85/642
f 79/88/643 85/92/643 289/87/643
f 283/89/644 285/8/644 289/87/644
f 283/89/645 288/94/645 287/90/645
f 71/63/646 281/91/646 287/90/646
f 85/92/647 90/86/647 300/84/647
f 289/87/648 300/84/648 301/93/648
f 288/94/649 301/93/649 299/83/649
f 81/95/650 287/90/650 299/83/650
f 294/96/651 293/82/651 297/82/651
f 293/82/652 91/97/652 72/97/652
f 298/98/653 295/98/653 294/96/653
f 80/85/654 95/85/654 295/98/654
f 284/99/655 296/96/655 297/82/655
f 286/100/656 298/98/656 296/96/656
f 297/82/657 299/83/657 290/101/657
f 300/84/658 298/98/658 286/100/658
f 301/93/659 300/84/659 292/103/659
f 290/101/660 299/83/660 301/93/660
f 348/105/661 303/99/661 304/100/661
f 307/103/662 306/104/662 349/106/662
f 352/108/663 305/101/663 302/102/663
f 302/102/664 303/99/664 348/105/664
f 349/106/665 306/104/665 305/101/665
f 304/100/666 307/103/666 350/107/666
f 308/102/667 309/99/667 353/111/667
f 356/113/668 312/104/668 311/101/668
f 358/114/669 310/100/669 313/103/669
f 353/111/670 309/99/670 310/100/670
f 313/103/671 312/104/671 356/113/671
f 311/101/672 308/102/672 354/112/672
f 315/99/673 316/100/673 310/100/673
f 333/103/674 332/104/674 312/104/674
f 317/101/675 314/102/675 308/102/675
f 308/102/676 314/102/676 315/99/676
f 318/104/677 317/101/677 311/101/677
f 310/100/678 316/100/678 319/103/678
f 314/102/679 320/102/679 321/99/679
f 324/104/294 323/101/294 317/101/294
f 322/100/680 325/103/680 319/103/680
f 315/99/681 321/99/681 322/100/681
f 319/103/297 325/103/297 324/104/297
f 317/101/682 323/101/682 320/102/682
f 331/103/683 330/104/683 324/104/683
f 323/101/684 329/101/684 326/102/684
f 326/102/685 327/99/685 321/99/685
f 324/104/686 330/104/686 329/101/686
f 328/100/687 331/103/687 325/103/687
f 321/99/688 327/99/688 328/100/688
f 337/103/305 336/104/305 332/104/305
f 332/104/689 334/104/689 318/104/689
f 334/104/690 335/103/690 319/103/690
f 319/103/691 335/103/691 333/103/691
f 339/103/692 343/103/692 341/103/692
f 335/103/310 339/103/310 337/103/310
f 338/104/311 339/103/311 335/103/311
f 336/104/312 338/104/312 334/104/312
f 341/103/693 343/103/693 342/104/693
f 342/104/694 343/103/694 339/103/694
f 340/104/695 342/104/695 338/104/695
f 341/103/696 340/104/696 336/104/696
f 295/98/697 346/98/697 345/96/697
f 344/82/698 144/97/698 91/97/698
f 148/85/699 346/98/699 295/98/699
f 345/96/700 344/82/700 293/82/700
f 328/100/701 327/99/701 330/104/701
f 327/99/702 326/102/702 329/101/702
f 347/110/703 350/107/703 292/103/703
f 291/104/704 349/106/704 352/108/704
f 282/102/705 351/109/705 348/105/705
f 290/101/706 352/108/706 351/109/706
f 350/107/707 349/106/707 291/104/707
f 348/105/708 347/110/708 286/100/708
f 355/115/709 354/112/709 302/102/709
f 357/107/710 356/113/710 306/104/710
f 303/99/711 353/111/711 358/114/711
f 304/100/712 358/114/712 357/107/712
f 306/104/713 356/113/713 355/115/713
f 354/112/714 353/111/714 303/99/714
f 361/65/715 362/64/715 360/97/715
f 361/65/716 363/67/716 364/66/716
f 363/67/717 365/69/717 366/68/717
f 367/70/718 368/74/718 366/68/718
f 368/74/719 374/74/719 373/68/719
f 416/116/720 369/75/720 359/63/720
f 162/97/721 161/63/721 171/75/721
f 381/65/722 382/67/722 386/67/722
f 177/76/723 183/76/723 379/74/723
f 372/66/724 371/64/724 362/64/724
f 362/64/725 371/64/725 370/97/725
f 373/68/726 372/66/726 364/66/726
f 375/132/727 376/125/727 379/71/727
f 376/125/728 377/73/728 379/71/728
f 377/73/729 378/72/729 379/71/729
f 378/68/730 377/66/730 372/66/730
f 371/64/731 376/64/731 375/97/731
f 375/118/732 183/76/732 177/76/732
f 379/74/733 378/68/733 373/68/733
f 377/66/734 376/64/734 371/64/734
f 384/70/735 398/70/735 399/75/735
f 384/70/736 385/75/736 388/75/736
f 380/63/737 381/65/737 387/117/737
f 386/67/738 382/67/738 383/69/738
f 388/75/739 385/75/739 380/77/739
f 383/69/740 384/70/740 389/70/740
f 391/119/741 389/70/741 410/70/741
f 407/121/742 388/75/742 390/122/742
f 406/67/743 386/67/743 391/119/743
f 411/63/744 390/63/744 387/117/744
f 389/70/745 388/75/745 407/121/745
f 409/123/746 387/117/746 386/67/746
f 197/116/747 378/116/747 379/116/747
f 198/116/748 377/116/748 378/116/748
f 199/116/749 200/116/749 375/116/749
f 392/116/750 204/116/750 199/116/750
f 198/116/751 203/116/751 393/116/751
f 393/73/752 392/125/752 376/125/752
f 395/80/753 394/137/753 399/79/753
f 399/79/373 398/78/373 397/126/373
f 397/126/373 396/131/373 395/80/373
f 396/67/754 397/69/754 383/69/754
f 394/63/755 395/65/755 381/65/755
f 385/75/756 399/75/756 394/77/756
f 383/69/757 397/69/757 398/70/757
f 395/65/758 396/67/758 382/67/758
f 361/65/759 400/123/759 403/67/759
f 401/127/760 404/121/760 369/75/760
f 359/63/761 402/63/761 400/123/761
f 363/67/762 403/67/762 405/69/762
f 404/121/763 402/77/763 359/77/763
f 405/69/764 401/127/764 367/70/764
f 400/123/765 409/123/765 406/67/765
f 410/70/766 407/121/766 404/121/766
f 402/63/767 411/63/767 409/123/767
f 403/67/768 406/67/768 408/120/768
f 404/121/769 407/121/769 411/77/769
f 408/120/770 410/70/770 401/127/770
f 281/116/771 71/116/771 204/116/771
f 203/116/772 79/116/772 285/116/772
f 392/125/773 393/73/773 283/128/773
f 393/73/774 285/73/774 283/128/774
f 413/96/775 412/82/775 344/82/775
f 414/98/395 413/96/395 345/96/395
f 344/82/776 412/82/776 223/97/776
f 227/85/777 414/98/777 346/98/777
f 415/116/778 170/74/778 176/74/778
f 416/116/779 177/76/779 374/74/779
f 172/118/780 162/97/780 415/116/780
f 416/116/781 360/97/781 370/118/781
