# Blender 5.0.0
# www.blender.org
o body
v 0.496492 -0.836496 9.760636
v 0.583336 -0.739345 11.031574
v 0.476577 0.278155 9.827894
v 0.565221 0.486406 11.067286
v 0.246627 0.341088 9.732006
v -0.000000 0.369678 9.677324
v -0.000000 0.658669 11.200932
v 0.340386 0.599495 11.156417
v 0.631619 0.554539 10.825953
v 0.646511 0.545035 10.467062
v 0.576865 0.424383 10.095283
v 0.562963 -0.631520 9.674540
v 0.591550 -0.317049 9.645837
v 0.550611 0.022595 9.716933
v 0.654626 0.225672 11.146621
v 0.703310 -0.145583 11.179516
v 0.665741 -0.502555 11.125671
v 0.654036 -0.830153 10.778671
v 0.671875 -0.892060 10.405994
v 0.600616 -0.885222 10.026500
v -0.000000 -0.970372 9.594742
v 0.267098 -0.925011 9.653802
v 0.358752 -0.817453 11.119378
v -0.000000 -0.856363 11.164566
v -0.000000 0.674132 10.048563
v -0.000000 0.858995 10.467258
v -0.000000 0.860968 10.872952
v 0.290903 0.614872 10.074515
v 0.337850 0.778810 10.470534
v 0.344425 0.778266 10.853276
v 0.749642 0.108478 10.054967
v 0.841644 0.194318 10.452389
v 0.811618 0.221481 10.838084
v 0.812126 -0.260919 10.011811
v 0.912852 -0.205322 10.432603
v 0.878665 -0.167071 10.843822
v 0.764291 -0.610046 10.014493
v 0.857600 -0.587271 10.416318
v 0.825386 -0.539852 10.810452
v 0.317045 -1.052687 9.990441
v 0.365526 -1.074153 10.274703
v 0.369003 -0.996871 10.798128
v -0.000000 -1.112858 10.012622
v -0.000000 -1.133464 10.269774
v -0.000000 -1.050111 10.817726
v -0.000000 0.004889 9.411147
v 0.255090 0.002209 9.496646
v -0.000000 -0.369840 9.295734
v 0.272938 -0.355472 9.394883
v -0.000000 -0.709899 9.361629
v 0.266506 -0.681006 9.449315
v 0.373244 0.271111 11.333229
v -0.000000 0.302962 11.397084
v 0.399412 -0.129139 11.385853
v -0.000000 -0.120306 11.455583
v 0.383312 -0.515705 11.314194
v -0.000000 -0.530811 11.378761
v -0.000000 -1.256591 10.080883
v 0.899103 0.129189 10.441733
v 0.964296 0.059744 10.462819
v 0.972883 0.157159 10.259375
v 1.038076 0.087714 10.280460
v 0.910948 0.053346 10.016233
v 0.976141 -0.016099 10.037319
v 0.775233 -0.078438 9.955448
v 0.840426 -0.147883 9.976534
v 0.701452 -0.106409 10.137807
v 0.766645 -0.175854 10.158893
v 0.763387 -0.002595 10.380949
v 0.828580 -0.072040 10.402035
v 0.000000 0.608116 6.824395
v -0.000045 0.614539 8.972701
v 0.504716 0.474077 6.638778
v 0.828603 0.506499 8.801530
v 0.598099 0.170520 6.596476
v 0.958572 0.167159 8.866391
v 0.495931 -0.120042 6.558338
v 0.866807 -0.019330 8.597564
v 0.000000 -0.261991 6.685490
v 0.000046 -0.514717 8.659652
v -0.000000 0.657830 7.457454
v 0.570473 0.583289 7.530665
v 0.767003 0.306161 7.536809
v 0.571976 -0.162012 7.477669
v -0.000000 -0.421472 7.457454
v 0.000174 0.701208 8.547805
v 0.703747 0.818446 8.514088
v 0.718558 0.689952 8.237915
v 0.697318 0.337417 8.138686
v 0.000477 -0.479155 8.332994
v -0.000000 0.515979 9.143730
v 0.439945 0.369745 9.116130
v 0.633971 0.085870 9.085211
v 0.435110 -0.213898 9.072945
v -0.000000 -0.334730 8.936113
v 0.958142 0.161363 8.877211
v 0.710218 0.428043 8.910887
v 0.738425 -0.234941 8.876865
v 0.614287 0.704767 8.250073
v 0.622165 -0.109873 8.193131
v 0.716525 0.634672 8.205007
v 1.568441 1.657687 7.594170
v 1.659582 1.531237 7.496647
v 1.563794 1.355114 7.364547
v 1.164474 1.760405 7.474458
v 1.097276 1.677030 7.329226
v 1.161230 1.461935 7.239773
v 1.945185 2.410172 6.339233
v 2.010604 2.287664 6.263415
v 1.943154 2.143188 6.193604
v 1.639176 2.448644 6.272491
v 1.585649 2.347988 6.165715
v 1.637696 2.183482 6.123788
v 1.971247 2.510083 6.304544
v 2.060307 2.304326 6.256863
v 1.988831 2.083368 6.091612
v 1.817264 2.579440 6.169144
v 1.787555 2.419953 6.067036
v 1.816069 2.135146 5.913700
v 2.245011 2.780449 5.974151
v 2.301643 2.552127 5.837234
v 2.243385 2.271827 5.684366
v 2.084432 2.804481 5.788057
v 2.054723 2.644994 5.685949
v 2.083236 2.360188 5.532613
v 2.184870 2.999758 5.429674
v 2.196077 2.862293 5.305989
v 2.184936 2.646682 5.229069
v 2.094473 2.905189 5.445362
v 2.068184 2.824262 5.373742
v 2.093803 2.616598 5.278823
v 1.576285 2.413680 5.956264
v 1.607773 2.267390 5.929656
v 1.771216 2.448779 5.916676
v 1.791621 2.201765 5.790894
v 1.629030 2.477572 5.746466
v 1.654831 2.357702 5.724662
v 1.788756 2.506332 5.714027
v 1.805475 2.303930 5.610962
v 1.704787 2.544423 5.526023
v 1.715627 2.457204 5.513469
v 1.822592 2.550939 5.526584
v 1.831815 2.405370 5.455271
v -0.000000 0.404502 9.274272
v 0.158780 0.287954 9.245876
v 0.252719 0.101461 9.182356
v 0.182110 -0.006843 9.182356
v -0.000000 -0.116119 9.144328
v 1.513457 1.267069 7.430707
v 1.609217 1.428313 7.590778
v 1.078577 1.638387 7.376726
v 1.131938 1.414549 7.276475
v 1.519667 1.560902 7.692260
v 1.135871 1.705597 7.540285
v 1.698689 1.611121 7.404507
v 1.610076 1.742141 7.491466
v 1.199386 1.808018 7.391510
v 1.127148 1.707279 7.262630
v 1.197586 1.489139 7.199027
v 1.606353 1.422100 7.299174
v 0.508210 -0.716506 4.090622
v 0.519509 0.454748 5.138811
v 0.863355 -0.901151 4.210167
v 1.026829 0.175148 5.400360
v 0.863355 -1.121540 4.376368
v 1.028275 -0.274038 5.628018
v 0.508191 -1.283518 4.500354
v 0.513592 -0.538412 5.646639
v 0.152952 -1.104685 4.379434
v 0.144936 -0.186443 5.479418
v 0.153066 -0.863777 4.214895
v 0.512164 0.658675 5.393130
v 1.018174 0.313067 5.574348
v 1.020134 -0.162393 5.774393
v 0.515757 -0.469647 5.717741
v 0.136937 -0.108047 5.527791
v -0.000000 0.816953 5.621858
v 0.418974 0.768586 5.601372
v 0.879472 0.485967 6.084166
v 0.876436 -0.002859 6.091544
v 0.449170 -0.310133 5.895545
v 0.134332 -0.020491 5.588913
v -0.000000 0.849235 5.725109
v 0.430883 -1.922420 2.040488
v 0.691278 -2.054910 2.111535
v 0.691278 -2.319895 2.253629
v 0.430883 -2.452423 2.324684
v 0.170489 -2.320117 2.253687
v 0.170489 -2.054910 2.111535
v 0.822906 -1.403016 3.776496
v 0.822906 -1.191350 3.649210
v 0.152560 -1.226543 3.672457
v 0.152560 -1.438252 3.799791
v 0.487733 -0.986853 3.562441
v 0.487733 -1.423857 4.197665
v -0.000000 0.018610 5.624569
v -0.000000 -0.189159 5.726799
v -0.000000 -0.269215 5.991415
v -0.000000 0.806408 6.242946
v -0.000000 0.838970 5.947180
v 0.713104 0.436283 6.400192
v 0.709689 -0.053706 6.329581
v -0.000000 -0.238461 6.344085
v 0.000000 0.628045 6.575392
v 0.430883 -2.872386 0.711090
v 0.625711 -2.981593 0.743621
v 0.625711 -3.201181 0.824995
v 0.430883 -3.306361 0.865245
v 0.236055 -3.196826 0.829155
v 0.236055 -2.982086 0.743573
v 0.856043 -0.955817 4.111059
v 0.152881 -1.167555 4.275718
v 0.504509 -0.761044 3.993927
v 0.856043 -1.174479 4.268787
v 0.152975 -0.939385 4.119195
v 0.504493 -1.309680 4.445931
v 0.847217 -1.237548 4.138253
v 0.152864 -1.016755 4.001270
v 0.500029 -1.341056 4.379972
v 0.847217 -1.019398 3.989127
v 0.152796 -1.240984 4.149476
v 0.500041 -0.845059 3.896030
v -0.000000 0.330200 9.915174
v 0.182652 0.209765 9.915174
v 0.252719 0.101462 9.915174
v 0.182110 -0.006843 9.915174
v -0.000000 -0.127185 9.860100
v -0.496493 -0.836496 9.760636
v -0.583336 -0.739345 11.031574
v -0.476577 0.278155 9.827894
v -0.565221 0.486406 11.067286
v -0.246627 0.341088 9.732006
v -0.340386 0.599495 11.156417
v -0.631619 0.554539 10.825953
v -0.646511 0.545035 10.467062
v -0.576865 0.424383 10.095283
v -0.562963 -0.631520 9.674540
v -0.591550 -0.317049 9.645837
v -0.550611 0.022595 9.716933
v -0.654626 0.225672 11.146621
v -0.703310 -0.145583 11.179516
v -0.665741 -0.502555 11.125671
v -0.654036 -0.830153 10.778671
v -0.671875 -0.892060 10.405994
v -0.600616 -0.885222 10.026500
v -0.267098 -0.925011 9.653802
v -0.358752 -0.817453 11.119378
v -0.290903 0.614872 10.074515
v -0.337850 0.778810 10.470534
v -0.344425 0.778266 10.853276
v -0.749642 0.108478 10.054967
v -0.841644 0.194318 10.452389
v -0.811618 0.221481 10.838084
v -0.812126 -0.260919 10.011811
v -0.912852 -0.205322 10.432603
v -0.878665 -0.167071 10.843822
v -0.764291 -0.610046 10.014493
v -0.857600 -0.587271 10.416318
v -0.825386 -0.539852 10.810452
v -0.317045 -1.052687 9.990441
v -0.365526 -1.074153 10.274703
v -0.369003 -0.996871 10.798128
v -0.255090 0.002209 9.496646
v -0.272938 -0.355472 9.394883
v -0.266506 -0.681006 9.449315
v -0.373244 0.271111 11.333229
v -0.399412 -0.129139 11.385853
v -0.383312 -0.515705 11.314194
v -0.899103 0.129189 10.441733
v -0.964296 0.059744 10.462819
v -0.972883 0.157159 10.259375
v -1.038076 0.087714 10.280460
v -0.910948 0.053346 10.016233
v -0.976141 -0.016099 10.037319
v -0.775233 -0.078438 9.955448
v -0.840426 -0.147883 9.976534
v -0.701452 -0.106409 10.137807
v -0.766645 -0.175854 10.158893
v -0.763387 -0.002595 10.380949
v -0.828580 -0.072040 10.402035
v -0.504526 0.476275 6.704576
v -0.822573 0.153760 8.548401
v -0.598793 0.169840 6.661873
v -0.956853 0.088882 8.890244
v -0.495657 -0.145172 6.610201
v -0.863596 -0.240380 8.933037
v -0.567895 0.435143 7.468308
v -0.761846 -0.002935 7.497561
v -0.569711 -0.317544 7.500798
v -0.689933 0.066500 8.132365
v -0.701952 -0.247324 8.126643
v -0.684200 -0.477594 8.378847
v -0.440480 0.412589 9.084347
v -0.634109 0.104703 9.093879
v -0.435366 -0.196535 9.108758
v -0.956583 0.096058 8.898817
v -0.708789 0.365691 8.730683
v -0.738411 -0.245215 9.022448
v -0.607110 0.322442 8.022756
v -0.616809 -0.413629 8.350530
v -0.701481 -0.214245 8.105993
v -1.529452 -0.658605 7.078011
v -1.620363 -0.792228 7.166198
v -1.524707 -0.976714 7.287805
v -1.125355 -0.740725 6.940173
v -1.058579 -0.907398 6.968719
v -1.122022 -1.062314 7.144312
v -1.961278 -1.537097 5.944981
v -2.026765 -1.650952 6.033210
v -1.958800 -1.770858 6.139511
v -1.658900 -1.593086 5.874206
v -1.607192 -1.730822 5.926672
v -1.657127 -1.829016 6.065931
v -1.990817 -1.531822 5.840269
v -2.077034 -1.649579 6.017021
v -2.006925 -1.886461 6.159184
v -1.843569 -1.636184 5.720766
v -1.814183 -1.790628 5.830441
v -1.842115 -2.037305 6.039748
v -2.282634 -1.731928 5.476945
v -2.339291 -1.941784 5.640758
v -2.280614 -2.188674 5.843076
v -2.129691 -1.900274 5.380707
v -2.100306 -2.054718 5.490381
v -2.128237 -2.301394 5.699689
v -2.247734 -2.158672 5.070941
v -2.260520 -2.323962 5.153619
v -2.247506 -2.475188 5.325348
v -2.154750 -2.181348 5.161498
v -2.129376 -2.278420 5.209484
v -2.153935 -2.442464 5.368470
v -1.607113 -1.901497 5.788314
v -1.636338 -1.979292 5.915571
v -1.804115 -1.920163 5.747825
v -1.823750 -2.127525 5.931860
v -1.669059 -2.071507 5.653630
v -1.693005 -2.135251 5.757904
v -1.830481 -2.086802 5.620454
v -1.846570 -2.256712 5.771251
v -1.754456 -2.249703 5.513073
v -1.763831 -2.293220 5.589890
v -1.872274 -2.243645 5.511262
v -1.880940 -2.363308 5.620653
v -0.158780 0.287954 9.245876
v -0.252719 0.101461 9.182356
v -0.182110 -0.006843 9.182356
v -1.478942 -0.938664 7.391107
v -1.574701 -0.736297 7.287292
v -1.039763 -0.871434 7.026221
v -1.094175 -1.037452 7.206732
v -1.485052 -0.597687 7.194082
v -1.098140 -0.694679 7.013723
v -1.658740 -0.849000 7.067538
v -1.570038 -0.722616 6.973897
v -1.163057 -0.801550 6.865938
v -1.093095 -0.960002 6.910927
v -1.160846 -1.096464 7.094576
v -1.565998 -1.017403 7.203971
v -0.508053 1.434690 4.241964
v -0.519458 1.021945 5.574362
v -0.866564 1.249004 4.128491
v -1.031588 0.703967 5.651663
v -0.866564 1.001470 4.006557
v -1.033048 0.290955 5.360629
v -0.508033 0.814575 3.912107
v -0.513485 0.126702 5.128468
v -0.149427 1.001952 4.017695
v -0.141336 0.290235 5.321474
v -0.149542 1.250821 4.154138
v -0.512044 0.945289 5.831014
v -1.022851 0.598849 5.813302
v -1.024829 0.177626 5.532722
v -0.515671 0.038576 5.242537
v -0.133260 0.202488 5.418566
v -0.417971 0.889414 5.957057
v -0.882834 0.472424 6.165804
v -0.879769 -0.050369 5.983676
v -0.448454 -0.138105 5.528821
v -0.130631 0.103904 5.556012
v -0.429993 2.966274 2.485970
v -0.658825 2.874128 2.391294
v -0.658825 2.689832 2.201941
v -0.429993 2.597685 2.107265
v -0.201160 2.689832 2.201941
v -0.201160 2.874128 2.391294
v -0.825732 1.453507 3.501357
v -0.825732 1.636995 3.672127
v -0.149031 1.604632 3.644457
v -0.149031 1.420726 3.473557
v -0.487381 1.778554 3.845923
v -0.487381 1.037243 3.605636
v -0.714889 0.433343 6.465252
v -0.711441 -0.113695 6.340683
v -0.429992 3.994150 1.204023
v -0.608102 3.944409 1.113012
v -0.608102 3.837925 0.919705
v -0.429992 3.787222 0.829603
v -0.251883 3.834177 0.926385
v -0.251883 3.944343 1.112327
v -0.859182 1.285731 4.031965
v -0.149356 1.054828 3.896462
v -0.504316 1.468551 4.170049
v -0.859182 1.065764 3.897765
v -0.149450 1.285146 4.050380
v -0.504300 0.848527 3.849838
v -0.850273 1.152617 3.771413
v -0.149338 1.354931 3.937136
v -0.499794 0.892880 3.775460
v -0.850273 1.363944 3.931164
v -0.149269 1.140867 3.771893
v -0.499806 1.511088 4.066552
v -0.182652 0.209765 9.915174
v -0.252719 0.101462 9.915174
v -0.182110 -0.006843 9.915174
v 0.213411 0.553222 5.388942
v -0.199640 0.829050 5.542059
vn 0.2171 0.8930 -0.3943
vn 0.2309 0.9730 -0.0026
vn 0.2282 0.8287 0.5111
vn 0.5934 0.7171 0.3657
vn 0.6038 0.7971 0.0039
vn 0.5368 0.7678 -0.3497
vn 0.4335 0.6757 -0.5962
vn 0.2244 0.7535 -0.6180
vn 0.9488 0.1900 -0.2522
vn 0.9829 0.1719 0.0657
vn 0.9669 -0.1341 -0.2169
vn 0.9843 -0.1466 0.0981
vn 0.7198 0.4412 -0.5359
vn 0.8218 0.4872 -0.2955
vn 0.8739 0.4848 0.0339
vn 0.8176 0.4547 0.3533
vn 0.8793 0.1584 0.4492
vn 0.8717 -0.1659 0.4611
vn 0.7717 -0.4987 0.3948
vn 0.8452 -0.5193 0.1267
vn 0.8441 -0.5094 -0.1677
vn 0.7852 -0.4383 -0.4373
vn 0.8572 -0.1236 -0.4999
vn 0.8229 0.2097 -0.5281
vn 1.0000 -0.0000 -0.0000
vn 0.1564 -0.9765 0.1485
vn 0.4800 -0.7943 -0.3725
vn 0.5169 -0.8425 -0.1518
vn 0.4664 -0.8756 0.1262
vn 0.4808 -0.7739 0.4123
vn 0.1500 -0.8611 0.4857
vn 0.2261 -0.9220 -0.3144
vn 0.3148 0.2794 -0.9071
vn 0.3250 -0.1799 -0.9284
vn 0.2669 0.5681 -0.7785
vn 0.4934 0.5045 -0.7086
vn 0.5804 0.2495 -0.7751
vn 0.6137 -0.1420 -0.7766
vn 0.5175 -0.5489 -0.6564
vn 0.3026 -0.6356 -0.7102
vn 0.1733 0.1395 0.9749
vn 0.1703 -0.1865 0.9676
vn 0.5492 0.4099 0.7283
vn 0.1876 0.4801 0.8569
vn 0.1601 -0.5446 0.8233
vn 0.5064 -0.4648 0.7263
vn 0.5518 -0.1809 0.8141
vn 0.5611 0.1458 0.8148
vn 0.6237 0.6944 0.3588
vn 0.7220 0.5506 -0.4190
vn 0.3616 0.0569 -0.9306
vn -0.6237 -0.6944 -0.3589
vn 0.6532 -0.7421 0.1505
vn -0.7220 -0.5506 0.4190
vn -0.3616 -0.0569 0.9306
vn -0.6532 0.7421 -0.1505
vn 0.1691 0.9176 0.3597
vn 0.4928 -0.8651 -0.0935
vn 0.2590 -0.9636 -0.0654
vn 0.9431 -0.3195 -0.0926
vn 0.9460 0.3060 -0.1072
vn 0.2080 0.9689 -0.1340
vn 0.4117 -0.9105 0.0375
vn 0.8785 -0.3991 0.2626
vn 0.8085 0.5702 -0.1455
vn 0.1495 0.9734 -0.1735
vn 0.4575 0.3206 0.8294
vn 0.2556 0.7878 0.5604
vn 0.4895 -0.3573 0.7955
vn 0.0610 -0.8365 0.5446
vn 0.7065 0.6118 0.3558
vn 0.8742 -0.4847 0.0277
vn 0.1706 0.7038 0.6896
vn 0.8574 -0.2017 -0.4735
vn 0.9940 -0.0808 0.0743
vn 0.3500 0.8114 -0.4680
vn 0.8871 -0.4607 -0.0291
vn -0.8174 0.0617 -0.5728
vn 0.0051 0.7674 0.6412
vn 0.8254 0.1386 0.5472
vn -0.8474 0.5230 0.0919
vn 0.0724 -0.6253 -0.7770
vn 0.8559 0.2987 0.4221
vn -0.8553 0.5150 -0.0567
vn 0.0135 -0.8394 -0.5434
vn 0.9066 -0.4221 -0.0024
vn -0.8772 -0.1503 -0.4561
vn 0.0166 0.8649 0.5017
vn 0.2808 -0.5207 0.8062
vn -0.9522 -0.3051 0.0149
vn -0.0741 0.6784 0.7309
vn 0.6376 0.0989 0.7640
vn -0.4882 0.7438 -0.4565
vn -0.5087 -0.8225 0.2546
vn 0.8147 -0.1360 0.5638
vn -0.8463 0.3900 -0.3630
vn 0.0996 -0.9253 -0.3660
vn 0.8864 -0.3497 0.3033
vn -0.8522 0.1793 -0.4915
vn -0.2655 0.9001 0.3454
vn -0.9945 -0.0500 -0.0920
vn -0.6951 0.6950 0.1839
vn 0.9694 0.2454 -0.0082
vn -0.9681 0.2330 0.0921
vn 0.1937 -0.7450 -0.6383
vn 0.9824 0.0156 -0.1861
vn -0.9466 -0.1520 -0.2843
vn -0.1859 0.9351 0.3016
vn 0.9866 0.1419 -0.0800
vn -0.5248 -0.7876 -0.3228
vn -0.5513 -0.6533 -0.5189
vn -0.5762 -0.6909 -0.4367
vn 0.9949 0.0335 0.0956
vn -0.1193 0.9578 0.2617
vn -0.2542 0.4125 -0.8748
vn 0.9844 -0.0082 0.1758
vn -0.1223 0.9607 0.2493
vn -0.9321 -0.1398 -0.3342
vn 0.2673 -0.1742 0.9477
vn 0.2260 0.5249 0.8206
vn -0.0362 -0.6892 0.7236
vn 0.2489 0.0649 0.9664
vn -0.5155 0.3114 -0.7983
vn -0.6227 0.4947 -0.6062
vn 0.2522 -0.7166 -0.6503
vn -0.8845 0.4494 0.1252
vn 0.8034 0.0923 0.5883
vn 0.0102 0.7369 0.6759
vn -0.9436 0.1411 -0.2994
vn 0.8922 -0.4515 0.0087
vn 0.0639 0.8537 0.5169
vn -0.7598 0.0439 -0.6487
vn 0.8984 -0.4392 0.0006
vn 0.0537 -0.7147 -0.6974
vn -0.7732 0.6313 -0.0601
vn 0.8347 0.2084 0.5098
vn 0.5125 0.5699 -0.6423
vn 0.9941 -0.0654 -0.0867
vn 0.4969 -0.7287 0.4713
vn -0.5193 -0.7154 0.4675
vn -0.6966 -0.4269 0.5766
vn 0.9947 0.0827 0.0610
vn -1.0000 -0.0029 -0.0049
vn 0.9972 -0.0384 -0.0638
vn -0.9858 -0.1601 0.0501
vn 0.9990 0.0226 0.0383
vn 0.6059 0.6378 -0.4755
vn 0.3692 -0.6736 0.6402
vn -0.5469 0.2510 0.7987
vn 0.3147 -0.6449 0.6964
vn 0.5987 0.7939 -0.1063
vn 0.0821 0.8961 -0.4362
vn -0.6959 -0.4249 0.5790
vn 0.9267 0.1490 0.3450
vn -0.9992 -0.0147 -0.0369
vn -0.9999 -0.0052 -0.0086
vn 0.5468 0.7040 -0.4532
vn 0.5001 -0.7603 0.4145
vn -0.5000 0.7626 -0.4104
vn -0.4814 -0.7620 0.4331
vn -0.4840 -0.7840 0.3887
vn -0.6148 0.6652 -0.4238
vn 0.4765 -0.8112 0.3390
vn 0.5523 0.7597 -0.3433
vn -1.0000 0.0005 0.0004
vn 0.9980 -0.0329 -0.0547
vn -0.2017 -0.9784 -0.0452
vn -0.3443 -0.4145 -0.8424
vn -0.1474 -0.9467 -0.2864
vn -0.2228 0.1171 -0.9678
vn 0.2492 0.9626 0.1060
vn 0.3753 0.8648 0.3335
vn 0.2527 -0.9639 0.0841
vn 0.8187 0.0036 0.5743
vn 0.0006 -0.3510 -0.9364
vn 0.4998 -0.7472 0.4380
vn 0.4969 0.7061 -0.5045
vn -0.4857 0.7126 -0.5063
vn -0.5009 -0.7470 0.4371
vn 0.9992 -0.0188 -0.0351
vn 0.9979 -0.0380 -0.0527
vn -1.0000 0.0007 0.0003
vn 0.5415 0.7555 -0.3687
vn 0.4870 -0.7963 0.3587
vn -0.4767 0.6900 -0.5447
vn -0.5171 -0.7572 0.3991
vn 0.9979 -0.0364 -0.0533
vn -1.0000 0.0006 0.0003
vn 0.4841 0.6530 -0.5825
vn 0.4848 -0.7999 0.3537
vn -0.5016 0.7235 -0.4742
vn -0.5030 -0.7668 0.3988
vn 0.2798 0.9555 0.0930
vn 0.2588 -0.9636 -0.0664
vn 0.7565 0.1438 0.6380
vn 0.8931 0.4499 -0.0000
vn 0.8377 -0.5461 -0.0000
vn 0.5488 0.8323 0.0777
vn 0.5165 -0.8562 -0.0132
vn -0.2171 0.8930 -0.3943
vn -0.2332 0.9724 -0.0047
vn -0.2282 0.8287 0.5111
vn -0.5362 0.7239 0.4341
vn -0.6140 0.7893 -0.0094
vn -0.5575 0.7416 -0.3731
vn -0.4335 0.6757 -0.5962
vn -0.2244 0.7535 -0.6180
vn -0.9486 0.1818 -0.2589
vn -0.9832 0.1706 0.0645
vn -0.9679 -0.1309 -0.2144
vn -0.9842 -0.1492 0.0957
vn -0.7191 0.4598 -0.5211
vn -0.8258 0.4724 -0.3080
vn -0.8791 0.4760 0.0239
vn -0.8176 0.4547 0.3533
vn -0.8813 0.1551 0.4463
vn -0.8704 -0.1617 0.4650
vn -0.7756 -0.4470 0.4457
vn -0.8474 -0.5145 0.1312
vn -0.8444 -0.5089 -0.1672
vn -0.7852 -0.4383 -0.4373
vn -0.8583 -0.1214 -0.4987
vn -0.8209 0.2013 -0.5345
vn -0.1488 -0.9784 0.1435
vn -0.5095 -0.7887 -0.3441
vn -0.5440 -0.8308 -0.1171
vn -0.5063 -0.8464 0.1648
vn -0.4808 -0.7739 0.4123
vn -0.1500 -0.8611 0.4857
vn -0.1482 -0.9172 -0.3698
vn -0.3082 0.2745 -0.9109
vn -0.3445 -0.1614 -0.9248
vn -0.2408 0.5577 -0.7943
vn -0.4461 0.4620 -0.7665
vn -0.5707 0.2336 -0.7872
vn -0.6232 -0.1271 -0.7717
vn -0.5828 -0.4680 -0.6643
vn -0.3026 -0.6356 -0.7102
vn -0.1783 0.1347 0.9747
vn -0.1652 -0.1814 0.9694
vn -0.5146 0.4458 0.7324
vn -0.1947 0.4737 0.8589
vn -0.1601 -0.5446 0.8233
vn -0.5064 -0.4648 0.7263
vn -0.5466 -0.1746 0.8190
vn -0.5630 0.1438 0.8139
vn -0.6237 0.6944 0.3588
vn -0.7220 0.5506 -0.4190
vn -0.3616 0.0569 -0.9306
vn 0.6237 -0.6944 -0.3588
vn -0.6532 -0.7421 0.1505
vn 0.7220 -0.5506 0.4190
vn 0.3616 -0.0569 0.9306
vn 0.6532 0.7421 -0.1505
vn -0.3811 0.9059 0.1846
vn -0.2517 -0.9485 0.1922
vn -0.1955 -0.9597 -0.2020
vn -0.8218 -0.5046 -0.2647
vn -0.9514 0.3014 -0.0627
vn -0.3653 0.9280 -0.0729
vn -0.1870 -0.9749 -0.1206
vn -0.8490 -0.5195 -0.0962
vn -0.9138 0.4058 0.0178
vn -0.5075 0.8610 -0.0342
vn -0.3763 0.7140 0.5904
vn -0.3763 0.9117 0.1646
vn -0.5171 -0.0206 0.8557
vn -0.0267 -0.8277 0.5605
vn -0.7837 0.5894 -0.1960
vn -0.9441 -0.2377 0.2286
vn -0.6657 0.6588 -0.3504
vn 0.7054 -0.5398 0.4594
vn 0.9732 -0.1317 -0.1887
vn -0.9986 0.0376 0.0374
vn -0.8729 -0.1806 0.4532
vn 0.8543 -0.4845 -0.1881
vn 0.0045 0.8847 -0.4661
vn -0.8312 0.5554 0.0265
vn 0.8482 0.2470 -0.4685
vn -0.0614 -0.9275 0.3688
vn -0.8462 0.5246 -0.0935
vn 0.8052 0.1966 -0.5595
vn -0.0021 -0.8141 0.5807
vn -0.8915 -0.1426 0.4300
vn 0.8617 -0.5042 -0.0567
vn -0.0123 0.7845 -0.6200
vn -0.2390 0.5648 0.7899
vn 0.9586 -0.1239 0.2564
vn 0.0864 0.9272 -0.3644
vn -0.2105 0.6716 0.7104
vn 0.4543 -0.1631 -0.8758
vn 0.1772 -0.2761 0.9447
vn -0.7720 0.6339 0.0458
vn 0.8233 -0.2161 -0.5249
vn -0.0927 -0.6784 0.7288
vn -0.8024 0.1140 0.5857
vn 0.8291 -0.4134 -0.3765
vn 0.1300 0.8206 -0.5564
vn 0.9912 -0.1304 -0.0214
vn 0.3105 0.6684 -0.6759
vn -0.9742 0.1086 -0.1979
vn 0.9813 0.0560 -0.1840
vn -0.2010 -0.8625 0.4645
vn -0.9796 -0.1955 0.0455
vn 0.9384 -0.3454 0.0044
vn 0.1764 0.6199 -0.7646
vn -0.9918 0.0042 -0.1274
vn 0.5384 -0.5576 0.6318
vn 0.5878 -0.6982 0.4087
vn 0.5746 -0.6757 0.4619
vn -0.9911 0.1277 0.0381
vn 0.1078 0.5929 -0.7980
vn -0.0370 -0.8675 -0.4960
vn -0.9767 0.1865 0.1059
vn 0.1103 0.5824 -0.8054
vn 0.9218 -0.3869 -0.0248
vn -0.2256 -0.1010 0.9690
vn -0.2341 0.5285 0.8160
vn 0.0681 -0.6881 0.7224
vn -0.2214 0.1690 0.9604
vn 0.4945 -0.6419 -0.5860
vn 0.4592 -0.2943 -0.8382
vn 0.0314 -0.9151 0.4019
vn 0.9454 -0.0303 -0.3244
vn -0.6661 0.7358 -0.1220
vn -0.3743 0.8764 -0.3031
vn 0.9514 -0.1911 -0.2415
vn -0.8785 -0.1920 0.4374
vn -0.0510 0.7851 -0.6173
vn 0.7884 -0.5739 -0.2214
vn -0.8640 -0.1269 0.4872
vn 0.0209 -0.8317 0.5548
vn 0.7873 0.2166 -0.5773
vn -0.8318 0.5548 -0.0168
vn -0.5067 0.8248 0.2512
vn -0.9944 0.0634 -0.0850
vn -0.4475 -0.7681 -0.4580
vn 0.5143 -0.7475 -0.4204
vn 0.5528 -0.6645 -0.5028
vn 0.5180 0.8158 0.2572
vn -0.3821 0.5992 -0.7035
vn -0.9956 0.0636 -0.0683
vn 0.9764 -0.1662 -0.1379
vn -0.9992 -0.0206 0.0342
vn -0.4798 0.8368 0.2638
vn -0.4646 -0.6964 -0.5469
vn 0.4469 -0.2717 0.8523
vn -0.4438 -0.8054 -0.3928
vn -0.4542 0.6380 0.6218
vn 0.3088 0.9333 0.1833
vn 0.5256 -0.6865 -0.5025
vn -0.9608 -0.1506 0.2329
vn 0.9995 0.0219 -0.0213
vn 0.9996 0.0198 -0.0213
vn -0.5453 0.6426 0.5382
vn -0.5219 -0.5807 -0.6248
vn 0.6157 0.5805 0.5329
vn 0.4602 -0.6237 -0.6319
vn 0.4795 -0.6856 -0.5478
vn 0.4926 0.5400 0.6824
vn -0.4766 -0.6523 -0.5893
vn -0.4954 0.6209 0.6075
vn 1.0000 -0.0002 0.0006
vn -0.9981 0.0372 -0.0492
vn -0.1208 -0.9916 -0.0458
vn 0.1797 -0.4343 -0.8827
vn 0.0189 -0.9570 -0.2895
vn 0.5142 0.1031 -0.8515
vn -0.3157 0.6821 0.6596
vn -0.3597 0.8778 0.3163
vn -0.2405 -0.9689 -0.0585
vn -0.9046 -0.1449 0.4008
vn -0.0008 0.8743 -0.4854
vn -0.4995 -0.6355 -0.5888
vn -0.4972 0.6769 0.5428
vn 0.4972 0.6769 0.5428
vn 0.4995 -0.6349 -0.5894
vn -0.9995 0.0219 -0.0213
vn -0.9983 0.0258 -0.0525
vn 1.0000 0.0001 0.0006
vn -0.5090 0.8167 0.2718
vn -0.5036 -0.7455 -0.4366
vn 0.4912 0.8268 0.2740
vn 0.5140 -0.7657 -0.3867
vn -0.9983 0.0303 -0.0496
vn 1.0000 -0.0000 0.0007
vn -0.5422 0.6864 0.4847
vn -0.5073 -0.7263 -0.4639
vn 0.5201 0.7818 0.3440
vn 0.4963 -0.7585 -0.4223
vn -0.2717 0.9601 0.0666
vn -0.1728 -0.9847 0.0233
vn -0.7559 0.1435 0.6387
vn -0.8931 0.4499 -0.0000
vn -0.8377 -0.5461 -0.0000
vn -0.5999 0.7948 0.0921
vn -0.5165 -0.8562 -0.0132
vn -0.7626 -0.0473 -0.6452
vn 0.9946 0.1033 0.0106
vn -0.1867 0.5611 -0.8064
vn 0.1488 0.9626 -0.2264
vn 0.2158 0.8929 -0.3952
vn 0.2332 0.9724 -0.0047
vn 0.2114 0.8407 0.4986
vn 0.5362 0.7239 0.4341
vn 0.6140 0.7893 -0.0094
vn 0.5575 0.7416 -0.3731
vn 0.4895 0.6746 -0.5525
vn 0.2088 0.7506 -0.6269
vn 0.9486 0.1818 -0.2589
vn 0.9832 0.1706 0.0645
vn 0.9679 -0.1309 -0.2144
vn 0.9842 -0.1492 0.0957
vn 0.7191 0.4598 -0.5211
vn 0.8258 0.4724 -0.3080
vn 0.8791 0.4760 0.0239
vn 0.8171 0.4050 0.4103
vn 0.8813 0.1551 0.4463
vn 0.8704 -0.1617 0.4650
vn 0.7756 -0.4470 0.4457
vn 0.8474 -0.5145 0.1312
vn 0.8444 -0.5089 -0.1672
vn 0.7820 -0.4824 -0.3947
vn 0.8583 -0.1214 -0.4987
vn 0.8209 0.2013 -0.5345
vn 0.1806 -0.9804 -0.0786
vn 0.1607 -0.9818 -0.1015
vn 0.1488 -0.9784 0.1435
vn 0.5095 -0.7887 -0.3441
vn 0.5440 -0.8308 -0.1171
vn 0.5063 -0.8464 0.1648
vn 0.4448 -0.7758 0.4475
vn 0.1542 -0.8626 0.4818
vn 0.1482 -0.9172 -0.3698
vn 0.3082 0.2745 -0.9109
vn 0.3445 -0.1614 -0.9248
vn 0.2408 0.5577 -0.7943
vn 0.4461 0.4620 -0.7665
vn 0.5707 0.2336 -0.7872
vn 0.6232 -0.1271 -0.7717
vn 0.5828 -0.4680 -0.6643
vn 0.2683 -0.6184 -0.7387
vn 0.1783 0.1347 0.9747
vn 0.1652 -0.1814 0.9694
vn 0.5146 0.4458 0.7324
vn 0.1947 0.4737 0.8589
vn 0.1626 -0.5423 0.8243
vn 0.4611 -0.5075 0.7279
vn 0.5466 -0.1746 0.8190
vn 0.5630 0.1438 0.8139
vn -0.6237 -0.6944 -0.3588
vn 0.2649 0.9448 0.1929
vn 0.4034 -0.8855 -0.2306
vn 0.4114 -0.8926 -0.1844
vn 0.9222 -0.3700 -0.1123
vn 0.7973 0.5605 -0.2241
vn 0.1390 0.9873 -0.0775
vn 0.5003 -0.8640 -0.0572
vn 0.9904 -0.1246 -0.0604
vn 0.4039 0.8327 -0.3789
vn -0.0251 0.9989 -0.0397
vn 0.5405 0.2832 0.7922
vn 0.3042 0.8254 0.4756
vn 0.5635 -0.3131 0.7645
vn 0.2107 -0.8825 0.4206
vn 0.5037 0.3443 0.7923
vn 0.9483 -0.2940 -0.1198
vn -0.9492 0.2164 0.2284
vn 0.6628 -0.7085 -0.2423
vn -0.9504 0.1250 -0.2850
vn -0.9908 0.0942 -0.0969
vn 0.8645 -0.5025 -0.0110
vn -0.8997 -0.0898 -0.4272
vn -0.0082 0.7138 0.7003
vn 0.8050 0.1346 0.5778
vn -0.8432 0.5321 0.0767
vn 0.0689 -0.6372 -0.7677
vn 0.8918 0.2380 0.3849
vn -0.8176 0.5757 0.0083
vn -0.0044 -0.8392 -0.5438
vn 0.9005 -0.4348 -0.0092
vn -0.8742 -0.1597 -0.4587
vn -0.0006 0.8652 0.5014
vn 0.5223 -0.6126 0.5932
vn -0.9782 -0.2067 -0.0211
vn -0.4984 0.3975 0.7704
vn 0.2525 -0.4081 0.8773
vn -0.6769 0.4822 -0.5562
vn -0.1520 -0.9836 0.0973
vn 0.7897 0.2081 0.5771
vn 0.0041 -0.8623 -0.5064
vn 0.8248 -0.4846 0.2913
vn -0.1272 0.8167 0.5629
vn -0.9926 -0.0815 -0.0896
vn -0.3155 0.8676 0.3843
vn 0.9811 0.1674 -0.0972
vn -0.9852 0.1700 0.0211
vn -0.1567 -0.6915 -0.7052
vn 0.9751 -0.0928 -0.2015
vn -0.1340 0.9705 0.2006
vn 0.9828 0.1417 -0.1188
vn -0.5311 -0.8045 -0.2658
vn -0.5918 -0.6501 -0.4766
vn -0.0032 0.1421 -0.9898
vn 0.9874 -0.0146 0.1575
vn -0.0549 0.9736 0.2218
vn -0.9371 -0.0672 -0.3424
vn 0.2347 -0.1947 0.9524
vn 0.5591 0.6305 0.5384
vn 0.0568 -0.4113 0.9097
vn 0.4377 -0.0844 0.8952
vn -0.5312 0.2971 -0.7934
vn -0.4954 0.6604 -0.5644
vn 0.0629 -0.6390 -0.7666
vn -0.9471 0.2685 -0.1757
vn 0.6260 0.3709 0.6860
vn 0.0884 0.6939 0.7146
vn -0.9095 -0.0312 -0.4145
vn 0.8768 -0.4790 -0.0421
vn -0.0281 0.7777 0.6281
vn -0.8754 -0.1485 -0.4601
vn 0.8628 -0.5035 0.0457
vn -0.0373 -0.8154 -0.5777
vn -0.7924 0.6098 0.0165
vn 0.8236 0.2063 0.5284
vn 0.6017 0.5496 -0.5796
vn 0.9944 -0.0453 -0.0956
vn 0.4164 -0.7774 0.4715
vn -0.7158 -0.5386 0.4444
vn -0.7050 -0.4990 0.5040
vn 1.0000 0.0030 -0.0046
vn -0.9949 0.0857 -0.0523
vn 0.9973 -0.0349 -0.0652
vn -0.9678 -0.1628 0.1920
vn 0.9992 0.0188 0.0348
vn 0.6007 0.6321 -0.4895
vn 0.3777 -0.7260 0.5747
vn -0.5610 0.0160 0.8277
vn -0.6389 0.2188 0.7375
vn 0.2621 -0.1097 0.9588
vn 0.3163 -0.7822 0.5368
vn 0.5939 0.7902 -0.1513
vn 0.0952 0.9501 -0.2971
vn -0.7729 -0.5881 0.2381
vn 0.9648 -0.0020 0.2632
vn -0.9992 -0.0188 -0.0351
vn -0.9999 -0.0048 -0.0089
vn 0.4993 0.7365 -0.4564
vn 0.5396 -0.7447 0.3926
vn -0.6166 0.6807 -0.3954
vn -0.4995 -0.7550 0.4249
vn -0.4793 -0.7642 0.4315
vn -0.4965 0.8053 -0.3240
vn 0.4765 -0.8121 0.3367
vn 0.4947 0.7607 -0.4202
vn -1.0000 0.0004 0.0007
vn 0.9981 -0.0349 -0.0511
vn 0.0938 -0.6739 -0.7329
vn 0.1055 -0.6349 0.7653
vn 0.3658 0.9121 0.1851
vn 0.3330 0.8309 0.4458
vn 0.2908 -0.9568 -0.0006
vn 0.8872 -0.0719 0.4558
vn 0.0005 -0.2847 -0.9586
vn -0.0061 -0.3475 -0.9377
vn -0.0360 -0.3700 -0.9283
vn 0.4954 -0.7498 0.4387
vn 0.4844 0.7133 -0.5065
vn -0.4969 0.7061 -0.5045
vn -0.4993 -0.7480 0.4373
vn 0.9992 -0.0138 -0.0373
vn 0.9981 -0.0373 -0.0495
vn -1.0000 0.0007 0.0004
vn 0.5264 0.7275 -0.4401
vn 0.4872 -0.7995 0.3512
vn -0.5191 0.7837 -0.3411
vn -0.5124 -0.7342 0.4454
vn 0.9981 -0.0361 -0.0500
vn -1.0000 0.0006 0.0005
vn 0.5429 0.7279 -0.4189
vn 0.4843 -0.8023 0.3489
vn -0.5258 0.6572 -0.5400
vn -0.5037 -0.7466 0.4346
vn 0.2821 0.9563 0.0765
vn 0.2508 -0.9669 -0.0461
vn 0.7348 -0.3357 0.5893
vn 0.8986 -0.0687 0.4334
vn 0.8391 0.5429 0.0335
vn 0.5999 0.7948 0.0921
vn 0.5513 -0.8343 -0.0000
vn -0.2158 0.8929 -0.3952
vn -0.2309 0.9730 -0.0026
vn -0.2114 0.8407 0.4986
vn -0.5934 0.7171 0.3657
vn -0.6038 0.7971 0.0039
vn -0.5368 0.7678 -0.3497
vn -0.4895 0.6746 -0.5525
vn -0.2088 0.7506 -0.6269
vn -0.9488 0.1900 -0.2522
vn -0.9829 0.1719 0.0657
vn -0.9669 -0.1341 -0.2169
vn -0.9843 -0.1466 0.0981
vn -0.7198 0.4412 -0.5359
vn -0.8218 0.4872 -0.2955
vn -0.8739 0.4848 0.0339
vn -0.8171 0.4050 0.4103
vn -0.8793 0.1584 0.4492
vn -0.8717 -0.1659 0.4611
vn -0.7717 -0.4987 0.3948
vn -0.8452 -0.5193 0.1267
vn -0.8441 -0.5094 -0.1677
vn -0.7820 -0.4824 -0.3947
vn -0.8572 -0.1236 -0.4999
vn -0.8229 0.2097 -0.5281
vn -0.1607 -0.9818 -0.1015
vn -0.1806 -0.9804 -0.0786
vn -0.1564 -0.9765 0.1485
vn -0.4800 -0.7943 -0.3725
vn -0.5169 -0.8425 -0.1518
vn -0.4664 -0.8756 0.1262
vn -0.4448 -0.7758 0.4475
vn -0.1542 -0.8626 0.4818
vn -0.2261 -0.9220 -0.3144
vn -0.3148 0.2794 -0.9071
vn -0.3250 -0.1799 -0.9284
vn -0.2669 0.5681 -0.7785
vn -0.4934 0.5045 -0.7086
vn -0.5804 0.2495 -0.7751
vn -0.6137 -0.1420 -0.7766
vn -0.5175 -0.5489 -0.6564
vn -0.2683 -0.6184 -0.7387
vn -0.1733 0.1395 0.9749
vn -0.1703 -0.1865 0.9676
vn -0.5492 0.4099 0.7283
vn -0.1876 0.4801 0.8569
vn -0.1626 -0.5423 0.8243
vn -0.4611 -0.5075 0.7279
vn -0.5518 -0.1809 0.8141
vn -0.5611 0.1458 0.8148
vn -0.4496 0.8853 -0.1187
vn -0.1080 -0.9883 -0.1077
vn -0.1905 -0.9614 -0.1986
vn -0.9480 -0.2883 -0.1346
vn -0.9125 0.3976 -0.0958
vn -0.2595 0.9653 0.0305
vn -0.1072 -0.9921 -0.0653
vn -0.8634 -0.4938 -0.1037
vn -0.9669 0.1954 0.1638
vn -0.3576 0.9198 0.1617
vn -0.7304 0.4746 0.4912
vn -0.2613 0.8363 0.4820
vn -0.2540 -0.1202 0.9597
vn -0.0496 -0.8370 0.5449
vn -0.7868 0.4852 -0.3814
vn -0.5814 -0.0783 0.8098
vn -0.9576 0.2446 -0.1525
vn -0.1851 -0.9606 0.2073
vn 0.3509 -0.6626 -0.6617
vn -0.8767 0.0806 -0.4742
vn -0.8887 -0.1839 0.4200
vn 0.9090 -0.4151 -0.0378
vn -0.0078 0.8489 -0.5286
vn -0.8139 0.5796 0.0392
vn 0.8546 0.2660 -0.4460
vn -0.0560 -0.9187 0.3909
vn -0.8819 0.4688 -0.0497
vn 0.8410 0.1143 -0.5288
vn -0.0150 -0.8135 0.5814
vn -0.8965 -0.1336 0.4225
vn 0.8595 -0.5087 -0.0505
vn -0.0001 0.7841 -0.6206
vn -0.4861 0.3394 0.8053
vn 0.9810 -0.1218 0.1508
vn 0.5180 0.8491 -0.1033
vn -0.6106 0.7634 0.2107
vn 0.6448 -0.3572 -0.6757
vn 0.5358 -0.0800 0.8405
vn -0.7898 0.4954 0.3615
vn -0.0039 -0.7882 0.6154
vn -0.8665 0.1766 0.4668
vn 0.2583 0.6456 -0.7187
vn 0.9902 -0.1397 0.0088
vn 0.6860 0.4084 -0.6021
vn -0.9875 -0.0025 -0.1577
vn 0.9655 0.1456 -0.2159
vn 0.1455 -0.9143 0.3781
vn -0.9888 -0.1410 -0.0493
vn 0.1199 0.5405 -0.8328
vn -0.9894 -0.0320 -0.1416
vn 0.5296 -0.6042 0.5954
vn 0.5459 -0.7376 0.3975
vn 0.2122 -0.6677 -0.7136
vn -0.9803 0.1673 0.1053
vn 0.0416 0.5634 -0.8252
vn 0.9249 -0.3679 -0.0955
vn -0.1902 -0.1240 0.9739
vn -0.5591 0.6305 0.5384
vn -0.0125 -0.3471 0.9377
vn -0.5092 -0.0364 0.8599
vn 0.4783 -0.6408 -0.6005
vn 0.5886 -0.3976 -0.7039
vn -0.0215 -0.8992 0.4370
vn 0.8724 0.2588 -0.4146
vn -0.8127 0.5775 0.0771
vn -0.0474 0.8338 -0.5501
vn 0.9233 -0.3778 -0.0692
vn -0.8787 -0.1914 0.4373
vn 0.0237 0.8475 -0.5303
vn 0.8620 -0.5037 -0.0563
vn -0.8917 -0.1433 0.4293
vn -0.0503 -0.8886 0.4560
vn 0.7722 0.1669 -0.6131
vn -0.8215 0.5702 -0.0086
vn -0.4837 0.8394 0.2479
vn -0.9941 0.0478 -0.0971
vn -0.5039 -0.7509 -0.4269
vn 0.5361 -0.7396 -0.4070
vn 0.5320 -0.6057 -0.5917
vn 0.4909 0.8285 0.2695
vn -0.4735 0.5899 -0.6541
vn -0.9957 0.0664 -0.0647
vn 0.9810 -0.1851 0.0579
vn -0.9990 -0.0218 0.0398
vn -0.5006 0.7131 0.4908
vn -0.4714 -0.7467 -0.4692
vn 0.5513 -0.2105 0.8073
vn 0.5188 -0.2785 0.8083
vn 0.4655 -0.6756 0.5717
vn -0.4631 -0.8420 -0.2767
vn -0.4710 0.7542 0.4576
vn -0.0736 0.9518 -0.2976
vn 0.5420 -0.6523 -0.5298
vn -0.9367 -0.1201 0.3290
vn 0.9995 0.0267 -0.0158
vn 0.9996 0.0209 -0.0204
vn -0.4986 0.6550 0.5677
vn -0.5000 -0.5945 -0.6298
vn 0.4999 0.6187 0.6060
vn 0.5000 -0.6026 -0.6220
vn 0.4885 -0.6366 -0.5968
vn 0.6138 0.6002 0.5127
vn -0.4848 -0.5620 -0.6702
vn -0.5521 0.5457 0.6304
vn 1.0000 -0.0005 0.0006
vn -0.9979 0.0444 -0.0477
vn 0.3438 -0.3537 -0.8699
vn -0.2408 -0.9697 -0.0413
vn 0.1216 0.9866 0.1086
vn -0.2986 0.8410 0.4512
vn -0.1725 -0.9813 0.0856
vn -0.8728 -0.1136 0.4747
vn -0.0008 0.8781 -0.4784
vn 0.0501 0.8593 -0.5091
vn 0.0053 0.8759 -0.4825
vn -0.4840 -0.6405 -0.5963
vn -0.4742 0.6842 0.5541
vn 0.4760 0.6837 0.5532
vn 0.4907 -0.6377 -0.5937
vn -0.9995 0.0273 -0.0151
vn -0.9974 0.0378 -0.0619
vn 1.0000 -0.0002 0.0008
vn -0.5316 0.7766 0.3380
vn -0.5073 -0.7264 -0.4637
vn 0.5229 0.7604 0.3852
vn 0.5051 -0.7912 -0.3448
vn -0.9976 0.0420 -0.0556
vn 1.0000 -0.0003 0.0008
vn -0.4689 0.8240 0.3182
vn -0.5076 -0.6929 -0.5121
vn 0.4972 0.7384 0.4555
vn 0.4994 -0.7130 -0.4921
vn -0.2691 0.9600 0.0768
vn -0.2192 -0.9734 -0.0671
vn -0.9089 -0.0980 0.4053
vn -0.7533 -0.3391 0.5635
vn -0.8391 0.5429 0.0335
vn -0.5488 0.8323 0.0777
vn -0.5513 -0.8343 -0.0000
vn -0.9654 0.0583 -0.2541
vn 0.3736 0.2173 -0.9018
vn -0.2564 0.7505 -0.6092
vn 0.5195 0.8227 0.2307
vt 0.500000 0.375000
vt 0.437500 0.437500
vt 0.437500 0.375000
vt 0.562500 0.437500
vt 0.500000 0.437500
vt 0.625000 0.375000
vt 0.562500 0.375000
vt 0.625000 0.500000
vt 0.562500 0.500000
vt 0.500000 0.500000
vt 0.437500 0.500000
vt 0.375000 0.500000
vt 0.375000 0.437500
vt 0.375000 0.375000
vt 0.437500 0.562500
vt 0.500000 0.625000
vt 0.437500 0.625000
vt 0.500000 0.562500
vt 0.562500 0.625000
vt 0.500000 0.687500
vt 0.437500 0.687500
vt 0.562500 0.687500
vt 0.375000 0.562500
vt 0.562500 0.562500
vt 0.625000 0.625000
vt 0.625000 0.687500
vt 0.625000 0.750000
vt 0.562500 0.750000
vt 0.500000 0.750000
vt 0.437500 0.750000
vt 0.375000 0.750000
vt 0.375000 0.687500
vt 0.375000 0.625000
vt 0.500000 0.875000
vt 0.468750 0.875000
vt 0.437500 0.875000
vt 0.500000 0.812500
vt 0.562500 0.875000
vt 0.437500 0.812500
vt 0.375000 0.812500
vt 0.562500 0.812500
vt 0.625000 0.812500
vt 0.375000 0.875000
vt 0.250000 0.562500
vt 0.312500 0.625000
vt 0.250000 0.625000
vt 0.312500 0.687500
vt 0.250000 0.687500
vt 0.250000 0.500000
vt 0.312500 0.562500
vt 0.312500 0.500000
vt 0.312500 0.750000
vt 0.250000 0.750000
vt 0.687500 0.562500
vt 0.750000 0.625000
vt 0.687500 0.625000
vt 0.750000 0.687500
vt 0.687500 0.687500
vt 0.625000 0.562500
vt 0.687500 0.500000
vt 0.750000 0.562500
vt 0.687500 0.750000
vt 1.000000 0.500000
vt 0.833333 1.000000
vt 0.833333 0.500000
vt 0.666667 1.000000
vt 0.666667 0.500000
vt 0.500000 1.000000
vt 0.500000 0.500000
vt 0.333333 0.500000
vt 0.042154 0.130000
vt 0.250000 0.010000
vt 0.457846 0.130000
vt 0.333333 1.000000
vt 0.166667 0.500000
vt 0.166667 1.000000
vt -0.000000 0.500000
vt 0.542154 0.130000
vt 0.542154 0.370000
vt 0.957846 0.370000
vt 1.000000 0.828637
vt 0.875000 1.000000
vt 0.875000 0.828637
vt 0.625000 0.828637
vt 0.500000 1.000000
vt 0.500000 0.828637
vt 0.625000 0.645722
vt 0.500000 0.500000
vt 0.750000 0.500000
vt 0.875000 0.645722
vt 0.875000 0.500000
vt 0.500000 0.645722
vt 0.750000 0.828637
vt 0.750000 0.645722
vt 1.000000 0.645722
vt 0.750000 1.000000
vt 1.000000 1.000000
vt 0.625000 1.000000
vt 0.749520 0.964446
vt 0.653402 0.965669
vt 0.844587 0.863513
vt 0.844268 0.965118
vt 0.647775 0.863148
vt 0.750840 0.864057
vt 0.749520 0.964446
vt 0.750840 0.864057
vt 0.647775 0.863149
vt 0.844587 0.863513
vt 0.844267 0.965117
vt 0.653402 0.965669
vt 0.749520 0.964446
vt 0.844268 0.965117
vt 0.750840 0.864057
vt 0.653402 0.965669
vt 0.844587 0.863513
vt 0.000000 0.000000
vt 0.833333 0.500000
vt -0.000000 1.000000
vt 0.500000 0.500000
vt 0.500000 0.500000
vt 0.166667 0.500000
vt -0.000000 0.500000
vt 0.833333 0.500000
vt 0.042154 0.370000
vt 0.457846 0.370000
vt 0.750000 0.010000
vt 0.333333 0.500000
vt 0.457846 0.250000
vt 0.625000 0.437500
vt 0.750000 0.500000
vt 0.957846 0.130000
vt 0.250000 0.490000
vt 0.625000 0.875000
vt 0.750000 0.750000
vt 0.250000 0.490000
vt 0.750000 0.490000
vt 0.750000 0.490000
s 0
f 26/1/1 28/2/1 25/3/1
f 26/1/2 30/4/2 29/5/2
f 7/6/3 30/4/3 27/7/3
f 30/4/4 4/8/4 9/9/4
f 29/5/5 9/9/5 10/10/5
f 28/2/6 10/10/6 11/11/6
f 28/2/7 3/12/7 5/13/7
f 25/3/8 5/13/8 6/14/8
f 31/15/9 35/16/9 34/17/9
f 32/18/10 36/19/10 35/16/10
f 34/17/11 38/20/11 37/21/11
f 35/16/12 39/22/12 38/20/12
f 3/12/13 31/15/13 14/23/13
f 11/11/14 32/18/14 31/15/14
f 10/10/15 33/24/15 32/18/15
f 4/8/16 33/24/16 9/9/16
f 33/24/17 16/25/17 36/19/17
f 36/19/18 17/26/18 39/22/18
f 39/22/19 2/27/19 18/28/19
f 38/20/20 18/28/20 19/29/20
f 37/21/21 19/29/21 20/30/21
f 37/21/22 1/31/22 12/32/22
f 13/33/23 37/21/23 12/32/23
f 14/23/24 34/17/24 13/33/24
f 44/34/25 58/35/25 43/36/25
f 41/37/26 45/38/26 44/34/26
f 1/31/27 40/39/27 22/40/27
f 20/30/28 41/37/28 40/39/28
f 19/29/29 42/41/29 41/37/29
f 2/27/30 42/41/30 18/28/30
f 23/42/31 45/38/31 42/41/31
f 22/40/32 43/36/32 21/43/32
f 46/44/33 49/45/33 48/46/33
f 48/46/34 51/47/34 50/48/34
f 6/49/35 47/50/35 46/44/35
f 5/51/36 14/23/36 47/50/36
f 47/50/37 13/33/37 49/45/37
f 49/45/38 12/32/38 51/47/38
f 51/47/39 1/31/39 22/52/39
f 51/47/40 21/53/40 50/48/40
f 52/54/41 55/55/41 54/56/41
f 54/56/42 57/57/42 56/58/42
f 4/8/43 52/54/43 15/59/43
f 8/60/44 53/61/44 52/54/44
f 57/57/45 23/62/45 56/58/45
f 56/58/46 2/27/46 17/26/46
f 16/25/47 56/58/47 17/26/47
f 15/59/48 54/56/48 16/25/48
f 59/63/49 62/64/49 61/65/49
f 61/65/50 64/66/50 63/67/50
f 63/67/51 66/68/51 65/69/51
f 66/68/52 67/70/52 65/69/52
f 68/71/53 66/72/53 64/73/53
f 68/74/54 69/75/54 67/70/54
f 70/76/55 59/77/55 69/75/55
f 67/78/56 69/79/56 61/80/56
f 86/81/57 97/82/57 99/83/57
f 100/84/58 80/85/58 90/86/58
f 84/87/59 79/88/59 77/8/59
f 75/89/60 84/87/60 77/8/60
f 82/90/61 75/89/61 73/91/61
f 71/63/62 82/90/62 73/91/62
f 100/84/63 85/92/63 84/87/63
f 101/93/64 84/87/64 83/94/64
f 99/83/65 83/94/65 82/90/65
f 81/95/66 99/83/66 82/90/66
f 97/82/67 93/96/67 96/96/67
f 72/97/68 92/82/68 97/82/68
f 98/98/69 93/96/69 94/98/69
f 80/85/70 94/98/70 95/85/70
f 76/99/71 97/82/71 96/96/71
f 78/100/72 96/96/72 98/98/72
f 87/101/73 97/82/73 74/102/73
f 78/100/74 100/84/74 89/103/74
f 89/103/75 101/93/75 88/104/75
f 87/101/76 101/93/76 99/83/76
f 150/105/77 104/100/77 103/99/77
f 151/106/78 107/103/78 152/107/78
f 154/108/79 102/102/79 105/101/79
f 150/105/80 102/102/80 153/109/80
f 151/106/81 105/101/81 106/104/81
f 152/107/82 104/100/82 149/110/82
f 155/111/83 108/102/83 156/112/83
f 158/113/84 111/101/84 112/104/84
f 160/114/85 113/103/85 110/100/85
f 155/111/86 110/100/86 109/99/86
f 158/113/87 113/103/87 159/107/87
f 156/112/88 111/101/88 157/115/88
f 110/100/89 115/99/89 109/99/89
f 112/104/90 133/103/90 113/103/90
f 108/102/91 117/101/91 111/101/91
f 108/102/92 115/99/92 114/102/92
f 111/101/93 118/104/93 112/104/93
f 110/100/94 119/103/94 116/100/94
f 114/102/95 121/99/95 120/102/95
f 117/101/96 124/104/96 118/104/96
f 119/103/97 122/100/97 116/100/97
f 115/99/98 122/100/98 121/99/98
f 119/103/99 124/104/99 125/103/99
f 117/101/100 120/102/100 123/101/100
f 124/104/101 131/103/101 125/103/101
f 123/101/102 126/102/102 129/101/102
f 121/99/103 126/102/103 120/102/103
f 124/104/104 129/101/104 130/104/104
f 125/103/105 128/100/105 122/100/105
f 121/99/106 128/100/106 127/99/106
f 132/104/107 137/103/107 133/103/107
f 118/104/108 132/104/108 112/104/108
f 119/103/109 134/104/109 118/104/109
f 119/103/110 133/103/110 135/103/110
f 139/103/111 141/103/111 143/103/111
f 135/103/112 137/103/112 139/103/112
f 135/103/113 138/104/113 134/104/113
f 134/104/114 136/104/114 132/104/114
f 141/103/115 142/104/115 143/103/115
f 139/103/116 142/104/116 138/104/116
f 138/104/117 140/104/117 136/104/117
f 136/104/118 141/103/118 137/103/118
f 94/98/119 146/96/119 147/98/119
f 91/97/120 145/82/120 92/82/120
f 94/98/121 148/85/121 95/85/121
f 92/82/122 146/96/122 93/96/122
f 128/100/123 130/104/123 127/99/123
f 127/99/124 129/101/124 126/102/124
f 89/103/125 149/110/125 78/100/125
f 88/104/126 154/108/126 151/106/126
f 74/102/127 150/105/127 153/109/127
f 87/101/128 153/109/128 154/108/128
f 88/104/129 152/107/129 89/103/129
f 78/100/130 150/105/130 76/99/130
f 102/102/131 157/115/131 105/101/131
f 106/104/132 159/107/132 107/103/132
f 103/99/133 160/114/133 155/111/133
f 104/100/134 159/107/134 160/114/134
f 106/104/135 157/115/135 158/113/135
f 103/99/136 156/112/136 102/102/136
f 162/97/137 163/65/137 161/63/137
f 163/65/138 166/66/138 165/67/138
f 165/67/139 168/68/139 167/69/139
f 168/68/140 169/70/140 167/69/140
f 170/74/141 175/68/141 176/74/141
f 368/74/142 369/75/142 416/116/142
f 170/74/143 171/75/143 169/70/143
f 190/67/144 185/65/144 191/117/144
f 177/76/145 182/74/145 183/76/145
f 164/64/146 174/66/146 166/66/146
f 164/64/147 172/97/147 173/64/147
f 166/66/148 175/68/148 168/68/148
f 182/71/149 181/72/149 180/73/149
f 174/66/150 181/68/150 175/68/150
f 173/64/151 178/97/151 179/64/151
f 177/76/152 178/118/152 172/118/152
f 175/68/153 182/74/153 176/74/153
f 173/64/154 180/66/154 174/66/154
f 188/70/155 210/75/155 209/70/155
f 192/75/156 188/70/156 193/70/156
f 191/117/157 184/63/157 194/63/157
f 190/67/158 187/69/158 186/67/158
f 192/75/159 184/77/159 189/75/159
f 193/70/160 187/69/160 195/119/160
f 221/70/161 195/119/161 219/120/161
f 218/121/162 194/122/162 192/75/162
f 217/67/163 195/119/163 190/67/163
f 222/63/164 191/117/164 194/63/164
f 218/121/165 193/70/165 221/70/165
f 220/123/166 190/67/166 191/117/166
f 183/76/167 178/118/167 200/116/167
f 182/116/168 197/116/168 196/116/168
f 181/116/169 198/116/169 197/116/169
f 196/116/170 183/124/170 182/71/170
f 199/116/171 178/116/171 200/116/171
f 199/116/172 201/116/172 179/116/172
f 198/116/173 202/116/173 203/116/173
f 179/125/174 202/73/174 180/73/174
f 206/80/175 208/126/175 210/79/175
f 187/69/176 207/67/176 186/67/176
f 185/65/177 205/63/177 184/63/177
f 189/75/178 205/77/178 210/75/178
f 187/69/179 209/70/179 208/69/179
f 186/67/180 206/65/180 185/65/180
f 163/65/181 214/67/181 211/123/181
f 171/75/182 212/127/182 169/70/182
f 161/63/183 211/123/183 213/63/183
f 165/67/184 216/69/184 214/67/184
f 161/77/185 215/121/185 171/75/185
f 169/70/186 216/69/186 167/69/186
f 211/123/187 217/67/187 220/123/187
f 215/121/188 221/70/188 212/127/188
f 213/63/189 220/123/189 222/63/189
f 214/67/190 219/120/190 217/67/190
f 215/121/191 222/77/191 218/121/191
f 212/127/192 219/120/192 216/69/192
f 204/116/193 73/116/193 201/116/193
f 203/116/194 77/116/194 79/116/194
f 201/125/195 73/125/195 75/128/195
f 145/82/196 225/96/196 146/96/196
f 146/96/197 226/98/197 147/98/197
f 145/82/198 223/97/198 224/82/198
f 147/98/199 227/85/199 148/85/199
f 248/2/200 26/1/200 25/3/200
f 26/1/201 250/4/201 27/7/201
f 250/4/202 7/6/202 27/7/202
f 250/4/203 231/8/203 233/129/203
f 249/5/204 234/9/204 250/4/204
f 248/2/205 235/10/205 249/5/205
f 230/12/206 248/2/206 232/13/206
f 232/13/207 25/3/207 6/14/207
f 251/15/208 255/16/208 252/18/208
f 252/18/209 256/19/209 253/24/209
f 254/17/210 258/20/210 255/16/210
f 255/16/211 259/22/211 256/19/211
f 230/12/212 251/15/212 236/11/212
f 236/11/213 252/18/213 235/10/213
f 235/10/214 253/24/214 234/9/214
f 253/24/215 231/8/215 234/9/215
f 253/24/216 241/25/216 240/59/216
f 256/19/217 242/26/217 241/25/217
f 259/22/218 229/27/218 242/26/218
f 258/20/219 243/28/219 259/22/219
f 257/21/220 244/29/220 258/20/220
f 228/31/221 257/21/221 237/32/221
f 238/33/222 257/21/222 254/17/222
f 239/23/223 254/17/223 251/15/223
f 261/37/224 45/38/224 262/41/224
f 228/31/225 260/39/225 245/30/225
f 245/30/226 261/37/226 244/29/226
f 244/29/227 262/41/227 243/28/227
f 262/41/228 229/27/228 243/28/228
f 45/38/229 247/42/229 262/41/229
f 246/40/230 43/36/230 260/39/230
f 46/44/231 264/45/231 263/50/231
f 48/46/232 265/47/232 264/45/232
f 6/49/233 263/50/233 232/51/233
f 232/51/234 239/23/234 230/12/234
f 263/50/235 238/33/235 239/23/235
f 264/45/236 237/32/236 238/33/236
f 265/47/237 228/31/237 237/32/237
f 21/53/238 265/47/238 50/48/238
f 266/54/239 55/55/239 53/61/239
f 267/56/240 57/57/240 55/55/240
f 231/8/241 266/54/241 233/60/241
f 233/60/242 53/61/242 7/130/242
f 247/62/243 57/57/243 268/58/243
f 229/27/244 268/58/244 242/26/244
f 241/25/245 268/58/245 267/56/245
f 240/59/246 267/56/246 266/54/246
f 269/63/247 272/64/247 270/97/247
f 271/65/248 274/66/248 272/64/248
f 273/67/249 276/68/249 274/66/249
f 277/70/250 276/68/250 275/69/250
f 278/71/251 280/124/251 274/73/251
f 279/75/252 278/74/252 277/70/252
f 269/77/253 280/76/253 279/75/253
f 271/80/254 277/78/254 273/131/254
f 86/81/255 297/82/255 72/97/255
f 300/84/256 80/85/256 298/98/256
f 79/88/257 289/87/257 285/8/257
f 283/89/258 289/87/258 288/94/258
f 283/89/259 287/90/259 281/91/259
f 71/63/260 287/90/260 81/95/260
f 85/92/261 300/84/261 289/87/261
f 289/87/262 301/93/262 288/94/262
f 288/94/263 299/83/263 287/90/263
f 81/95/264 299/83/264 86/81/264
f 294/96/265 297/82/265 296/96/265
f 293/82/266 72/97/266 297/82/266
f 298/98/267 294/96/267 296/96/267
f 80/85/268 295/98/268 298/98/268
f 284/99/269 297/82/269 282/102/269
f 286/100/270 296/96/270 284/99/270
f 297/82/271 290/101/271 282/102/271
f 300/84/272 286/100/272 292/103/272
f 301/93/273 292/103/273 291/104/273
f 290/101/274 301/93/274 291/104/274
f 348/105/275 304/100/275 347/110/275
f 307/103/276 349/106/276 350/107/276
f 352/108/277 302/102/277 351/109/277
f 302/102/278 348/105/278 351/109/278
f 349/106/279 305/101/279 352/108/279
f 304/100/280 350/107/280 347/110/280
f 308/102/281 353/111/281 354/112/281
f 356/113/282 311/101/282 355/115/282
f 358/114/283 313/103/283 357/107/283
f 353/111/284 310/100/284 358/114/284
f 313/103/285 356/113/285 357/107/285
f 311/101/286 354/112/286 355/115/286
f 315/99/287 310/100/287 309/99/287
f 333/103/288 312/104/288 313/103/288
f 317/101/289 308/102/289 311/101/289
f 308/102/290 315/99/290 309/99/290
f 318/104/291 311/101/291 312/104/291
f 310/100/292 319/103/292 313/103/292
f 314/102/293 321/99/293 315/99/293
f 324/104/294 317/101/294 318/104/294
f 322/100/295 319/103/295 316/100/295
f 315/99/296 322/100/296 316/100/296
f 319/103/297 324/104/297 318/104/297
f 317/101/298 320/102/298 314/102/298
f 331/103/299 324/104/299 325/103/299
f 323/101/300 326/102/300 320/102/300
f 326/102/301 321/99/301 320/102/301
f 324/104/302 329/101/302 323/101/302
f 328/100/303 325/103/303 322/100/303
f 321/99/304 328/100/304 322/100/304
f 337/103/305 332/104/305 333/103/305
f 332/104/306 318/104/306 312/104/306
f 334/104/307 319/103/307 318/104/307
f 319/103/308 333/103/308 313/103/308
f 339/103/309 341/103/309 337/103/309
f 335/103/310 337/103/310 333/103/310
f 338/104/311 335/103/311 334/104/311
f 336/104/312 334/104/312 332/104/312
f 341/103/313 342/104/313 340/104/313
f 342/104/314 339/103/314 338/104/314
f 340/104/315 338/104/315 336/104/315
f 341/103/316 336/104/316 337/103/316
f 295/98/317 345/96/317 294/96/317
f 344/82/318 91/97/318 293/82/318
f 148/85/319 295/98/319 95/85/319
f 345/96/320 293/82/320 294/96/320
f 328/100/321 330/104/321 331/103/321
f 327/99/322 329/101/322 330/104/322
f 347/110/323 292/103/323 286/100/323
f 291/104/324 352/108/324 290/101/324
f 282/102/325 348/105/325 284/99/325
f 290/101/326 351/109/326 282/102/326
f 350/107/327 291/104/327 292/103/327
f 348/105/328 286/100/328 284/99/328
f 355/115/329 302/102/329 305/101/329
f 357/107/330 306/104/330 307/103/330
f 303/99/331 358/114/331 304/100/331
f 304/100/332 357/107/332 307/103/332
f 306/104/333 355/115/333 305/101/333
f 354/112/334 303/99/334 302/102/334
f 361/65/335 360/97/335 359/63/335
f 361/65/336 364/66/336 362/64/336
f 363/67/337 366/68/337 364/66/337
f 367/70/338 366/68/338 365/69/338
f 368/74/339 373/68/339 366/68/339
f 416/116/340 359/63/340 360/97/340
f 162/97/341 171/75/341 415/116/341
f 381/65/342 386/67/342 387/117/342
f 177/76/343 379/74/343 374/74/343
f 372/66/344 362/64/344 364/66/344
f 362/64/345 370/97/345 360/97/345
f 373/68/346 364/66/346 366/68/346
f 379/71/347 183/124/347 375/132/347
f 378/68/348 372/66/348 373/68/348
f 371/64/349 375/97/349 370/97/349
f 375/118/350 177/76/350 370/118/350
f 379/74/351 373/68/351 374/74/351
f 377/66/352 371/64/352 372/66/352
f 384/70/353 399/75/353 385/75/353
f 384/70/354 388/75/354 389/70/354
f 380/63/355 387/117/355 390/63/355
f 386/67/356 383/69/356 391/119/356
f 388/75/357 380/77/357 390/122/357
f 383/69/358 389/70/358 391/119/358
f 391/119/359 410/70/359 408/120/359
f 407/121/360 390/122/360 411/77/360
f 406/67/361 391/119/361 408/120/361
f 411/63/362 387/117/362 409/123/362
f 389/70/363 407/121/363 410/70/363
f 409/123/364 386/67/364 406/67/364
f 183/76/365 200/116/365 375/118/365
f 197/116/366 379/116/366 196/116/366
f 198/116/367 378/116/367 197/116/367
f 196/116/368 379/71/368 183/124/368
f 199/116/369 375/116/369 376/116/369
f 392/116/370 199/116/370 376/116/370
f 198/116/371 393/116/371 377/116/371
f 393/73/372 376/125/372 377/73/372
f 399/79/373 397/126/373 395/80/373
f 396/67/374 383/69/374 382/67/374
f 394/63/375 381/65/375 380/63/375
f 385/75/376 394/77/376 380/77/376
f 383/69/377 398/70/377 384/70/377
f 395/65/378 382/67/378 381/65/378
f 361/65/379 403/67/379 363/67/379
f 401/127/380 369/75/380 367/70/380
f 359/63/381 400/123/381 361/65/381
f 363/67/382 405/69/382 365/69/382
f 404/121/383 359/77/383 369/75/383
f 405/69/384 367/70/384 365/69/384
f 400/123/385 406/67/385 403/67/385
f 410/70/386 404/121/386 401/127/386
f 402/63/387 409/123/387 400/123/387
f 403/67/388 408/120/388 405/69/388
f 404/121/389 411/77/389 402/77/389
f 408/120/390 401/127/390 405/69/390
f 281/116/391 204/116/391 392/116/391
f 203/116/392 285/116/392 393/116/392
f 283/128/393 281/125/393 392/125/393
f 413/96/394 344/82/394 345/96/394
f 414/98/395 345/96/395 346/98/395
f 344/82/396 223/97/396 144/97/396
f 227/85/397 346/98/397 148/85/397
f 415/116/398 176/74/398 177/76/398
f 416/116/399 374/74/399 368/74/399
f 172/118/400 415/116/400 177/76/400
f 416/116/401 370/118/401 177/76/401
f 26/1/402 29/5/402 28/2/402
f 26/1/403 27/7/403 30/4/403
f 7/6/404 8/129/404 30/4/404
f 30/4/405 8/129/405 4/8/405
f 29/5/406 30/4/406 9/9/406
f 28/2/407 29/5/407 10/10/407
f 28/2/408 11/11/408 3/12/408
f 25/3/409 28/2/409 5/13/409
f 31/15/410 32/18/410 35/16/410
f 32/18/411 33/24/411 36/19/411
f 34/17/412 35/16/412 38/20/412
f 35/16/413 36/19/413 39/22/413
f 3/12/414 11/11/414 31/15/414
f 11/11/415 10/10/415 32/18/415
f 10/10/416 9/9/416 33/24/416
f 4/8/417 15/59/417 33/24/417
f 33/24/418 15/59/418 16/25/418
f 36/19/419 16/25/419 17/26/419
f 39/22/420 17/26/420 2/27/420
f 38/20/421 39/22/421 18/28/421
f 37/21/422 38/20/422 19/29/422
f 37/21/423 20/30/423 1/31/423
f 13/33/424 34/17/424 37/21/424
f 14/23/425 31/15/425 34/17/425
f 43/36/426 40/39/426 44/34/426
f 40/39/427 41/37/427 44/34/427
f 41/37/428 42/41/428 45/38/428
f 1/31/429 20/30/429 40/39/429
f 20/30/430 19/29/430 41/37/430
f 19/29/431 18/28/431 42/41/431
f 2/27/432 23/42/432 42/41/432
f 23/42/433 24/133/433 45/38/433
f 22/40/434 40/39/434 43/36/434
f 46/44/435 47/50/435 49/45/435
f 48/46/436 49/45/436 51/47/436
f 6/49/437 5/51/437 47/50/437
f 5/51/438 3/12/438 14/23/438
f 47/50/439 14/23/439 13/33/439
f 49/45/440 13/33/440 12/32/440
f 51/47/441 12/32/441 1/31/441
f 51/47/442 22/52/442 21/53/442
f 52/54/443 53/61/443 55/55/443
f 54/56/444 55/55/444 57/57/444
f 4/8/445 8/60/445 52/54/445
f 8/60/446 7/130/446 53/61/446
f 57/57/447 24/134/447 23/62/447
f 56/58/448 23/62/448 2/27/448
f 16/25/449 54/56/449 56/58/449
f 15/59/450 52/54/450 54/56/450
f 59/63/49 60/97/49 62/64/49
f 61/65/50 62/64/50 64/66/50
f 63/67/51 64/66/51 66/68/51
f 66/68/451 68/74/451 67/70/451
f 64/73/53 62/125/53 68/71/53
f 62/125/53 60/135/53 70/124/53
f 68/71/53 62/125/53 70/124/53
f 68/74/54 70/76/54 69/75/54
f 70/76/55 60/118/55 59/77/55
f 69/79/56 59/136/56 61/80/56
f 61/80/56 63/131/56 67/78/56
f 63/131/56 65/126/56 67/78/56
f 86/81/452 72/97/452 97/82/452
f 100/84/453 98/98/453 80/85/453
f 84/87/454 85/92/454 79/88/454
f 75/89/455 83/94/455 84/87/455
f 82/90/456 83/94/456 75/89/456
f 71/63/457 81/95/457 82/90/457
f 100/84/458 90/86/458 85/92/458
f 101/93/459 100/84/459 84/87/459
f 99/83/460 101/93/460 83/94/460
f 81/95/461 86/81/461 99/83/461
f 97/82/462 92/82/462 93/96/462
f 72/97/463 91/97/463 92/82/463
f 98/98/464 96/96/464 93/96/464
f 80/85/465 98/98/465 94/98/465
f 76/99/466 74/102/466 97/82/466
f 78/100/467 76/99/467 96/96/467
f 87/101/468 99/83/468 97/82/468
f 78/100/469 98/98/469 100/84/469
f 89/103/470 100/84/470 101/93/470
f 87/101/471 88/104/471 101/93/471
f 150/105/472 149/110/472 104/100/472
f 151/106/473 106/104/473 107/103/473
f 154/108/474 153/109/474 102/102/474
f 150/105/475 103/99/475 102/102/475
f 151/106/476 154/108/476 105/101/476
f 152/107/477 107/103/477 104/100/477
f 155/111/478 109/99/478 108/102/478
f 158/113/479 157/115/479 111/101/479
f 160/114/480 159/107/480 113/103/480
f 155/111/481 160/114/481 110/100/481
f 158/113/482 112/104/482 113/103/482
f 156/112/483 108/102/483 111/101/483
f 110/100/484 116/100/484 115/99/484
f 112/104/485 132/104/485 133/103/485
f 108/102/486 114/102/486 117/101/486
f 108/102/487 109/99/487 115/99/487
f 111/101/488 117/101/488 118/104/488
f 110/100/489 113/103/489 119/103/489
f 114/102/490 115/99/490 121/99/490
f 117/101/96 123/101/96 124/104/96
f 119/103/491 125/103/491 122/100/491
f 115/99/492 116/100/492 122/100/492
f 119/103/99 118/104/99 124/104/99
f 117/101/493 114/102/493 120/102/493
f 124/104/494 130/104/494 131/103/494
f 123/101/495 120/102/495 126/102/495
f 121/99/496 127/99/496 126/102/496
f 124/104/497 123/101/497 129/101/497
f 125/103/498 131/103/498 128/100/498
f 121/99/499 122/100/499 128/100/499
f 132/104/107 136/104/107 137/103/107
f 118/104/500 134/104/500 132/104/500
f 119/103/501 135/103/501 134/104/501
f 119/103/502 113/103/502 133/103/502
f 139/103/503 137/103/503 141/103/503
f 135/103/112 133/103/112 137/103/112
f 135/103/113 139/103/113 138/104/113
f 134/104/114 138/104/114 136/104/114
f 141/103/504 140/104/504 142/104/504
f 139/103/505 143/103/505 142/104/505
f 138/104/506 142/104/506 140/104/506
f 136/104/507 140/104/507 141/103/507
f 94/98/508 93/96/508 146/96/508
f 91/97/509 144/97/509 145/82/509
f 94/98/510 147/98/510 148/85/510
f 92/82/511 145/82/511 146/96/511
f 128/100/512 131/103/512 130/104/512
f 127/99/513 130/104/513 129/101/513
f 89/103/514 152/107/514 149/110/514
f 88/104/515 87/101/515 154/108/515
f 74/102/516 76/99/516 150/105/516
f 87/101/517 74/102/517 153/109/517
f 88/104/518 151/106/518 152/107/518
f 78/100/519 149/110/519 150/105/519
f 102/102/520 156/112/520 157/115/520
f 106/104/521 158/113/521 159/107/521
f 103/99/522 104/100/522 160/114/522
f 104/100/523 107/103/523 159/107/523
f 106/104/524 105/101/524 157/115/524
f 103/99/525 155/111/525 156/112/525
f 162/97/526 164/64/526 163/65/526
f 163/65/527 164/64/527 166/66/527
f 165/67/528 166/66/528 168/68/528
f 168/68/529 170/74/529 169/70/529
f 170/74/530 168/68/530 175/68/530
f 368/74/531 367/70/531 369/75/531
f 170/74/532 415/116/532 171/75/532
f 190/67/533 186/67/533 185/65/533
f 177/76/534 176/74/534 182/74/534
f 164/64/535 173/64/535 174/66/535
f 164/64/536 162/97/536 172/97/536
f 166/66/537 174/66/537 175/68/537
f 180/73/538 179/125/538 182/71/538
f 179/125/539 178/132/539 182/71/539
f 178/132/540 183/124/540 182/71/540
f 174/66/541 180/66/541 181/68/541
f 173/64/542 172/97/542 178/97/542
f 177/76/543 183/76/543 178/118/543
f 175/68/544 181/68/544 182/74/544
f 173/64/545 179/64/545 180/66/545
f 188/70/546 189/75/546 210/75/546
f 192/75/547 189/75/547 188/70/547
f 191/117/548 185/65/548 184/63/548
f 190/67/549 195/119/549 187/69/549
f 192/75/550 194/122/550 184/77/550
f 193/70/551 188/70/551 187/69/551
f 221/70/552 193/70/552 195/119/552
f 218/121/553 222/77/553 194/122/553
f 217/67/554 219/120/554 195/119/554
f 222/63/555 220/123/555 191/117/555
f 218/121/556 192/75/556 193/70/556
f 220/123/557 217/67/557 190/67/557
f 182/116/558 181/116/558 197/116/558
f 181/116/559 180/116/559 198/116/559
f 199/116/560 179/116/560 178/116/560
f 199/116/561 204/116/561 201/116/561
f 198/116/562 180/116/562 202/116/562
f 179/125/563 201/125/563 202/73/563
f 210/79/564 205/137/564 206/80/564
f 206/80/565 207/131/565 208/126/565
f 208/126/566 209/78/566 210/79/566
f 187/69/567 208/69/567 207/67/567
f 185/65/568 206/65/568 205/63/568
f 189/75/569 184/77/569 205/77/569
f 187/69/570 188/70/570 209/70/570
f 186/67/571 207/67/571 206/65/571
f 163/65/572 165/67/572 214/67/572
f 171/75/573 215/121/573 212/127/573
f 161/63/574 163/65/574 211/123/574
f 165/67/575 167/69/575 216/69/575
f 161/77/576 213/77/576 215/121/576
f 169/70/577 212/127/577 216/69/577
f 211/123/578 214/67/578 217/67/578
f 215/121/579 218/121/579 221/70/579
f 213/63/580 211/123/580 220/123/580
f 214/67/581 216/69/581 219/120/581
f 215/121/582 213/77/582 222/77/582
f 212/127/583 221/70/583 219/120/583
f 204/116/584 71/116/584 73/116/584
f 203/116/585 202/116/585 77/116/585
f 77/73/586 202/73/586 75/128/586
f 202/73/587 201/125/587 75/128/587
f 145/82/588 224/82/588 225/96/588
f 146/96/197 225/96/197 226/98/197
f 145/82/589 144/97/589 223/97/589
f 147/98/590 226/98/590 227/85/590
f 248/2/591 249/5/591 26/1/591
f 26/1/592 249/5/592 250/4/592
f 250/4/593 233/129/593 7/6/593
f 250/4/594 234/9/594 231/8/594
f 249/5/595 235/10/595 234/9/595
f 248/2/596 236/11/596 235/10/596
f 230/12/597 236/11/597 248/2/597
f 232/13/598 248/2/598 25/3/598
f 251/15/599 254/17/599 255/16/599
f 252/18/600 255/16/600 256/19/600
f 254/17/601 257/21/601 258/20/601
f 255/16/602 258/20/602 259/22/602
f 230/12/603 239/23/603 251/15/603
f 236/11/604 251/15/604 252/18/604
f 235/10/605 252/18/605 253/24/605
f 253/24/606 240/59/606 231/8/606
f 253/24/607 256/19/607 241/25/607
f 256/19/608 259/22/608 242/26/608
f 259/22/609 243/28/609 229/27/609
f 258/20/610 244/29/610 243/28/610
f 257/21/611 245/30/611 244/29/611
f 228/31/612 245/30/612 257/21/612
f 238/33/613 237/32/613 257/21/613
f 239/23/614 238/33/614 254/17/614
f 261/37/615 260/39/615 44/34/615
f 260/39/616 43/36/616 44/34/616
f 261/37/617 44/34/617 45/38/617
f 228/31/618 246/40/618 260/39/618
f 245/30/619 260/39/619 261/37/619
f 244/29/620 261/37/620 262/41/620
f 262/41/621 247/42/621 229/27/621
f 45/38/622 24/133/622 247/42/622
f 246/40/623 21/43/623 43/36/623
f 46/44/624 48/46/624 264/45/624
f 48/46/625 50/48/625 265/47/625
f 6/49/626 46/44/626 263/50/626
f 232/51/627 263/50/627 239/23/627
f 263/50/628 264/45/628 238/33/628
f 264/45/629 265/47/629 237/32/629
f 265/47/630 246/52/630 228/31/630
f 21/53/631 246/52/631 265/47/631
f 266/54/632 267/56/632 55/55/632
f 267/56/633 268/58/633 57/57/633
f 231/8/634 240/59/634 266/54/634
f 233/60/635 266/54/635 53/61/635
f 247/62/636 24/134/636 57/57/636
f 229/27/637 247/62/637 268/58/637
f 241/25/638 242/26/638 268/58/638
f 240/59/639 241/25/639 267/56/639
f 269/63/247 271/65/247 272/64/247
f 271/65/248 273/67/248 274/66/248
f 273/67/249 275/69/249 276/68/249
f 277/70/250 278/74/250 276/68/250
f 270/135/251 272/125/251 280/124/251
f 272/125/251 274/73/251 280/124/251
f 274/73/251 276/72/251 278/71/251
f 279/75/252 280/76/252 278/74/252
f 269/77/253 270/118/253 280/76/253
f 271/80/254 269/136/254 279/79/254
f 279/79/254 277/78/254 271/80/254
f 277/78/254 275/126/254 273/131/254
f 86/81/640 299/83/640 297/82/640
f 300/84/641 90/86/641 80/85/641
f 79/88/642 85/92/642 289/87/642
f 283/89/643 285/8/643 289/87/643
f 283/89/644 288/94/644 287/90/644
f 71/63/645 281/91/645 287/90/645
f 85/92/646 90/86/646 300/84/646
f 289/87/647 300/84/647 301/93/647
f 288/94/648 301/93/648 299/83/648
f 81/95/649 287/90/649 299/83/649
f 294/96/650 293/82/650 297/82/650
f 293/82/651 91/97/651 72/97/651
f 298/98/652 295/98/652 294/96/652
f 80/85/653 95/85/653 295/98/653
f 284/99/654 296/96/654 297/82/654
f 286/100/655 298/98/655 296/96/655
f 297/82/656 299/83/656 290/101/656
f 300/84/657 298/98/657 286/100/657
f 301/93/658 300/84/658 292/103/658
f 290/101/659 299/83/659 301/93/659
f 348/105/660 303/99/660 304/100/660
f 307/103/661 306/104/661 349/106/661
f 352/108/662 305/101/662 302/102/662
f 302/102/663 303/99/663 348/105/663
f 349/106/664 306/104/664 305/101/664
f 304/100/665 307/103/665 350/107/665
f 308/102/666 309/99/666 353/111/666
f 356/113/667 312/104/667 311/101/667
f 358/114/668 310/100/668 313/103/668
f 353/111/669 309/99/669 310/100/669
f 313/103/670 312/104/670 356/113/670
f 311/101/671 308/102/671 354/112/671
f 315/99/672 316/100/672 310/100/672
f 333/103/673 332/104/673 312/104/673
f 317/101/674 314/102/674 308/102/674
f 308/102/675 314/102/675 315/99/675
f 318/104/676 317/101/676 311/101/676
f 310/100/677 316/100/677 319/103/677
f 314/102/678 320/102/678 321/99/678
f 324/104/294 323/101/294 317/101/294
f 322/100/679 325/103/679 319/103/679
f 315/99/680 321/99/680 322/100/680
f 319/103/297 325/103/297 324/104/297
f 317/101/681 323/101/681 320/102/681
f 331/103/682 330/104/682 324/104/682
f 323/101/683 329/101/683 326/102/683
f 326/102/684 327/99/684 321/99/684
f 324/104/685 330/104/685 329/101/685
f 328/100/686 331/103/686 325/103/686
f 321/99/687 327/99/687 328/100/687
f 337/103/305 336/104/305 332/104/305
f 332/104/688 334/104/688 318/104/688
f 334/104/689 335/103/689 319/103/689
f 319/103/690 335/103/690 333/103/690
f 339/103/691 343/103/691 341/103/691
f 335/103/310 339/103/310 337/103/310
f 338/104/311 339/103/311 335/103/311
f 336/104/312 338/104/312 334/104/312
f 341/103/692 343/103/692 342/104/692
f 342/104/693 343/103/693 339/103/693
f 340/104/694 342/104/694 338/104/694
f 341/103/695 340/104/695 336/104/695
f 295/98/696 346/98/696 345/96/696
f 344/82/697 144/97/697 91/97/697
f 148/85/698 346/98/698 295/98/698
f 345/96/699 344/82/699 293/82/699
f 328/100/700 327/99/700 330/104/700
f 327/99/701 326/102/701 329/101/701
f 347/110/702 350/107/702 292/103/702
f 291/104/703 349/106/703 352/108/703
f 282/102/704 351/109/704 348/105/704
f 290/101/705 352/108/705 351/109/705
f 350/107/706 349/106/706 291/104/706
f 348/105/707 347/110/707 286/100/707
f 355/115/708 354/112/708 302/102/708
f 357/107/709 356/113/709 306/104/709
f 303/99/710 353/111/710 358/114/710
f 304/100/711 358/114/711 357/107/711
f 306/104/712 356/113/712 355/115/712
f 354/112/713 353/111/713 303/99/713
f 361/65/714 362/64/714 360/97/714
f 361/65/715 363/67/715 364/66/715
f 363/67/716 365/69/716 366/68/716
f 367/70/717 368/74/717 366/68/717
f 368/74/718 374/74/718 373/68/718
f 416/116/719 369/75/719 359/63/719
f 162/97/720 161/63/720 171/75/720
f 381/65/721 382/67/721 386/67/721
f 177/76/722 183/76/722 379/74/722
f 372/66/723 371/64/723 362/64/723
f 362/64/724 371/64/724 370/97/724
f 373/68/725 372/66/725 364/66/725
f 375/132/726 376/125/726 379/71/726
f 376/125/727 377/73/727 379/71/727
f 377/73/728 378/72/728 379/71/728
f 378/68/729 377/66/729 372/66/729
f 371/64/730 376/64/730 375/97/730
f 375/118/731 183/76/731 177/76/731
f 379/74/732 378/68/732 373/68/732
f 377/66/733 376/64/733 371/64/733
f 384/70/734 398/70/734 399/75/734
f 384/70/735 385/75/735 388/75/735
f 380/63/736 381/65/736 387/117/736
f 386/67/737 382/67/737 383/69/737
f 388/75/738 385/75/738 380/77/738
f 383/69/739 384/70/739 389/70/739
f 391/119/740 389/70/740 410/70/740
f 407/121/741 388/75/741 390/122/741
f 406/67/742 386/67/742 391/119/742
f 411/63/743 390/63/743 387/117/743
f 389/70/744 388/75/744 407/121/744
f 409/123/745 387/117/745 386/67/745
f 197/116/746 378/116/746 379/116/746
f 198/116/747 377/116/747 378/116/747
f 199/116/748 200/116/748 375/116/748
f 392/116/749 204/116/749 199/116/749
f 198/116/750 203/116/750 393/116/750
f 393/73/751 392/125/751 376/125/751
f 395/80/752 394/137/752 399/79/752
f 399/79/753 398/78/753 397/126/753
f 397/126/754 396/131/754 395/80/754
f 396/67/755 397/69/755 383/69/755
f 394/63/756 395/65/756 381/65/756
f 385/75/757 399/75/757 394/77/757
f 383/69/758 397/69/758 398/70/758
f 395/65/759 396/67/759 382/67/759
f 361/65/760 400/123/760 403/67/760
f 401/127/761 404/121/761 369/75/761
f 359/63/762 402/63/762 400/123/762
f 363/67/763 403/67/763 405/69/763
f 404/121/764 402/77/764 359/77/764
f 405/69/765 401/127/765 367/70/765
f 400/123/766 409/123/766 406/67/766
f 410/70/767 407/121/767 404/121/767
f 402/63/768 411/63/768 409/123/768
f 403/67/769 406/67/769 408/120/769
f 404/121/770 407/121/770 411/77/770
f 408/120/771 410/70/771 401/127/771
f 281/116/772 71/116/772 204/116/772
f 203/116/773 79/116/773 285/116/773
f 392/125/774 393/73/774 283/128/774
f 393/73/775 285/73/775 283/128/775
f 413/96/776 412/82/776 344/82/776
f 414/98/395 413/96/395 345/96/395
f 344/82/777 412/82/777 223/97/777
f 227/85/778 414/98/778 346/98/778
f 415/116/779 170/74/779 176/74/779
f 416/116/780 177/76/780 374/74/780
f 172/118/781 162/97/781 415/116/781
f 416/116/782 360/97/782 370/118/782
