# Blender 5.0.0
# www.blender.org
o body
v 0.496492 -0.836496 10.182669
v 0.583336 -0.739346 11.453607
v 0.476577 0.278155 10.249927
v 0.565221 0.486406 11.489319
v 0.246627 0.341088 10.154037
v -0.000000 0.369678 10.099357
v -0.000000 0.658669 11.622964
v 0.340386 0.599495 11.578449
v 0.631619 0.554538 11.247986
v 0.646511 0.545035 10.889094
v 0.576865 0.424383 10.517315
v 0.562963 -0.631520 10.096572
v 0.591550 -0.317049 10.067869
v 0.550611 0.022595 10.138966
v 0.654626 0.225672 11.568653
v 0.703310 -0.145584 11.601548
v 0.665741 -0.502555 11.547704
v 0.654036 -0.830154 11.200704
v 0.671875 -0.892060 10.828027
v 0.600616 -0.885222 10.448532
v -0.000000 -0.970373 10.016774
v 0.267098 -0.925011 10.075834
v 0.358752 -0.817453 11.541410
v -0.000000 -0.856364 11.586598
v -0.000000 0.674132 10.470595
v -0.000000 0.858995 10.889291
v -0.000000 0.860968 11.294985
v 0.290903 0.614872 10.496548
v 0.337850 0.778809 10.892567
v 0.344425 0.778265 11.275309
v 0.749642 0.108478 10.476999
v 0.841644 0.194318 10.874421
v 0.811618 0.221480 11.260117
v 0.812126 -0.260920 10.433844
v 0.912852 -0.205322 10.854635
v 0.878665 -0.167071 11.265855
v 0.764291 -0.610047 10.436525
v 0.857600 -0.587271 10.838350
v 0.825386 -0.539852 11.232484
v 0.317045 -1.052687 10.412474
v 0.365526 -1.074154 10.696735
v 0.369003 -0.996871 11.220160
v -0.000000 -1.112858 10.434654
v -0.000000 -1.133465 10.691807
v -0.000000 -1.050112 11.239758
v -0.000000 0.004889 9.833179
v 0.255090 0.002209 9.918678
v -0.000000 -0.369841 9.717767
v 0.272938 -0.355472 9.816916
v -0.000000 -0.709899 9.783662
v 0.266506 -0.681006 9.871347
v 0.373244 0.271110 11.755261
v -0.000000 0.302962 11.819117
v 0.399412 -0.129139 11.807885
v -0.000000 -0.120306 11.877615
v 0.383312 -0.515705 11.736226
v -0.000000 -0.530811 11.800794
v -0.000000 -1.256592 10.502915
v 0.899103 0.129189 10.863766
v 0.964296 0.059744 10.884851
v 0.972883 0.157159 10.681407
v 1.038076 0.087714 10.702493
v 0.910948 0.053346 10.438266
v 0.976141 -0.016099 10.459352
v 0.775233 -0.078438 10.377481
v 0.840426 -0.147884 10.398566
v 0.701452 -0.106409 10.559839
v 0.766645 -0.175854 10.580925
v 0.763387 -0.002596 10.802981
v 0.828580 -0.072041 10.824067
v 0.000000 0.608116 7.246428
v -0.000045 0.617202 9.394842
v 0.504716 0.474076 7.060810
v 0.828441 0.280677 8.995505
v 0.598099 0.170519 7.018508
v 0.958545 0.108204 9.301096
v 0.495931 -0.132958 6.976261
v 0.866747 -0.223798 9.241419
v -0.000000 -0.261992 7.107522
v 0.000047 -0.521482 9.084557
v -0.000000 0.657830 7.879486
v 0.570407 0.482523 7.887347
v 0.766875 0.084366 7.889783
v 0.571914 -0.279482 7.896265
v -0.000000 -0.421472 7.879486
v 0.000172 0.708349 8.963039
v 0.703413 0.317028 8.560827
v 0.718171 0.018095 8.459111
v 0.697009 -0.291022 8.633199
v 0.000478 -0.498839 8.754235
v -0.000000 0.515979 9.565763
v 0.439960 0.405277 9.520390
v 0.633979 0.098767 9.516331
v 0.435120 -0.205726 9.523631
v -0.000000 -0.334730 9.358145
v 0.958120 0.112240 9.311921
v 0.710178 0.405568 9.193262
v 0.738434 -0.261044 9.405201
v 0.614114 0.453841 8.455623
v 0.622056 -0.352502 8.690665
v 0.716174 0.025838 8.446081
v 1.567462 0.025091 7.343609
v 1.658617 -0.129636 7.383072
v 1.562849 -0.342196 7.440443
v 1.163420 -0.005892 7.189141
v 1.096204 -0.171650 7.165357
v 1.160205 -0.374639 7.279623
v 1.943525 -0.499702 5.977518
v 2.008962 -0.634904 6.027261
v 1.941542 -0.778907 6.098072
v 1.637480 -0.528555 5.906241
v 1.583954 -0.674671 5.919756
v 1.636046 -0.809056 6.023466
v 1.969540 -0.465465 5.877439
v 2.058657 -0.629802 6.010077
v 1.987207 -0.896098 6.082323
v 1.815487 -0.529370 5.739459
v 1.785801 -0.708060 5.802176
v 1.814367 -1.004317 5.932004
v 2.243098 -0.559117 5.460786
v 2.299767 -0.807639 5.556230
v 2.241559 -1.100747 5.682840
v 2.082450 -0.690875 5.327273
v 2.052764 -0.869566 5.389990
v 2.081329 -1.165822 5.519819
v 2.182700 -0.852832 4.952601
v 2.193916 -1.034950 4.984657
v 2.182827 -1.228383 5.107090
v 2.092343 -0.898742 5.036797
v 2.066058 -1.005013 5.056420
v 2.091721 -1.207728 5.161485
v 1.574498 -0.799163 5.738966
v 1.606029 -0.910260 5.837778
v 1.769403 -0.808726 5.686834
v 1.789856 -1.059994 5.803879
v 1.627151 -0.925042 5.559350
v 1.652988 -1.016074 5.640316
v 1.786856 -0.932877 5.516634
v 1.803615 -1.138765 5.612539
v 1.702812 -1.057481 5.370833
v 1.713679 -1.121110 5.431788
v 1.820615 -1.053030 5.365990
v 1.829866 -1.198890 5.436698
v -0.000000 0.404501 9.696304
v 0.158780 0.287954 9.667909
v 0.252719 0.101461 9.604388
v 0.182110 -0.006843 9.604388
v -0.000000 -0.116119 9.566360
v 1.512565 -0.344334 7.550578
v 1.608319 -0.118911 7.522161
v 1.077534 -0.158047 7.225069
v 1.130943 -0.374927 7.339575
v 1.518755 0.042717 7.480301
v 1.134857 0.012186 7.272882
v 1.697665 -0.152989 7.263361
v 1.609033 -0.003766 7.213790
v 1.198287 -0.041889 7.100514
v 1.126043 -0.205465 7.100484
v 1.196538 -0.389972 7.233074
v 1.605362 -0.352414 7.347383
v 0.508211 0.413327 4.289307
v 0.519509 0.808265 5.648071
v 0.863355 0.242531 4.254807
v 1.026829 0.511717 5.859950
v 0.863355 -0.000212 4.250347
v 1.028275 0.012485 5.793894
v 0.508191 -0.199493 4.212566
v 0.513592 -0.239857 5.664247
v 0.152952 -0.012660 4.230533
v 0.144936 0.025371 5.705739
v 0.153066 0.221786 4.266818
v 0.512164 0.877439 5.955639
v 1.018175 0.509938 6.059119
v 1.020134 0.002001 5.984048
v 0.515757 -0.253049 5.773043
v 0.136937 0.011618 5.797289
v 0.000000 0.819707 5.944182
v 0.418974 0.892550 6.146674
v 0.879472 0.481881 6.519771
v 0.876436 -0.042852 6.426493
v 0.449171 -0.280602 6.087104
v 0.134332 -0.004513 5.920112
v 0.000000 0.873960 6.075435
v 0.430883 2.225084 3.801377
v 0.691278 2.195136 3.654051
v 0.691278 2.135243 3.359400
v 0.430883 2.105305 3.212018
v 0.170489 2.135277 3.359055
v 0.170489 2.195136 3.654051
v 0.822906 0.413040 3.799635
v 0.822906 0.474083 4.038964
v 0.152560 0.461938 3.998572
v 0.152560 0.397539 3.757885
v 0.487733 0.498963 4.255674
v 0.487733 -0.000771 3.695330
v -0.000000 -0.041870 6.018734
v -0.000000 -0.244451 6.145887
v -0.000000 -0.292886 6.425439
v 0.000000 0.825028 6.663151
v 0.000000 0.875077 6.341676
v 0.713104 0.434477 6.823562
v 0.709689 -0.089815 6.731048
v -0.000000 -0.244782 6.777167
v 0.000000 0.628045 6.997424
v 0.430883 3.768568 3.266250
v 0.625711 3.776025 3.153285
v 0.625711 3.789595 2.914943
v 0.430883 3.794590 2.802504
v 0.236055 3.781458 2.918915
v 0.236055 3.776351 3.152613
v 0.856043 0.120084 4.141466
v 0.152881 -0.044059 4.028190
v 0.504509 0.265318 4.262420
v 0.856043 -0.010258 4.075539
v 0.152975 0.123991 4.156433
v 0.504493 -0.194293 4.082352
v 0.847217 0.029845 3.895694
v 0.152864 0.140618 4.087082
v 0.500029 -0.169748 3.930900
v 0.847217 0.140820 4.089235
v 0.152796 0.020844 3.894976
v 0.500041 0.226537 4.238006
v -0.000000 0.330200 10.337206
v 0.182652 0.209765 10.337206
v 0.252719 0.101461 10.337206
v 0.182110 -0.006843 10.337206
v -0.000000 -0.127186 10.282132
v -0.496493 -0.836496 10.182669
v -0.583336 -0.739346 11.453607
v -0.476577 0.278155 10.249927
v -0.565221 0.486406 11.489319
v -0.246627 0.341088 10.154037
v -0.340386 0.599495 11.578449
v -0.631619 0.554538 11.247986
v -0.646511 0.545035 10.889094
v -0.576865 0.424383 10.517315
v -0.562963 -0.631520 10.096572
v -0.591550 -0.317049 10.067869
v -0.550611 0.022595 10.138966
v -0.654626 0.225672 11.568653
v -0.703310 -0.145584 11.601548
v -0.665741 -0.502555 11.547704
v -0.654036 -0.830154 11.200704
v -0.671875 -0.892060 10.828027
v -0.600616 -0.885222 10.448532
v -0.267098 -0.925011 10.075834
v -0.358752 -0.817453 11.541410
v -0.290903 0.614872 10.496548
v -0.337850 0.778809 10.892567
v -0.344425 0.778265 11.275309
v -0.749642 0.108478 10.476999
v -0.841644 0.194318 10.874421
v -0.811618 0.221480 11.260117
v -0.812126 -0.260920 10.433844
v -0.912852 -0.205322 10.854635
v -0.878665 -0.167071 11.265855
v -0.764291 -0.610047 10.436525
v -0.857600 -0.587271 10.838350
v -0.825386 -0.539852 11.232484
v -0.317045 -1.052687 10.412474
v -0.365526 -1.074154 10.696735
v -0.369003 -0.996871 11.220160
v -0.255090 0.002209 9.918678
v -0.272938 -0.355472 9.816916
v -0.266506 -0.681006 9.871347
v -0.373244 0.271110 11.755261
v -0.399412 -0.129139 11.807885
v -0.383312 -0.515705 11.736226
v -0.899103 0.129189 10.863766
v -0.964296 0.059744 10.884851
v -0.972883 0.157159 10.681407
v -1.038076 0.087714 10.702493
v -0.910948 0.053346 10.438266
v -0.976141 -0.016099 10.459352
v -0.775233 -0.078438 10.377481
v -0.840426 -0.147884 10.398566
v -0.701452 -0.106409 10.559839
v -0.766645 -0.175854 10.580925
v -0.763387 -0.002596 10.802981
v -0.828580 -0.072041 10.824067
v -0.504526 0.476275 7.126608
v -0.822437 0.380740 9.043235
v -0.598793 0.169840 7.083905
v -0.956823 0.127999 9.283514
v -0.495657 -0.131707 7.043647
v -0.863520 -0.177094 9.140122
v -0.567839 0.523058 7.899500
v -0.761731 0.166016 7.890425
v -0.569654 -0.239861 7.885823
v -0.689645 0.525126 8.632350
v -0.701602 0.265722 8.454047
v -0.683904 -0.086761 8.541249
v -0.440495 0.395156 9.530135
v -0.634116 0.093613 9.514286
v -0.435373 -0.211413 9.514853
v -0.956558 0.128747 9.295292
v -0.708762 0.427755 9.235605
v -0.738410 -0.263040 9.365354
v -0.606963 0.560678 8.502954
v -0.616700 -0.278426 8.640244
v -0.701163 0.250050 8.441646
v -1.528584 0.642480 7.390391
v -1.619497 0.482846 7.379026
v -1.523843 0.262485 7.363291
v -1.124418 0.661259 7.231312
v -1.057614 0.511641 7.152550
v -1.121086 0.281950 7.197528
v -1.959792 0.630240 5.956167
v -2.025285 0.486208 5.957403
v -1.957331 0.326413 5.969413
v -1.657375 0.628532 5.866070
v -1.605654 0.487148 5.824435
v -1.655618 0.324676 5.875771
v -1.989294 0.697849 5.876020
v -2.075548 0.497107 5.945330
v -2.005437 0.222506 5.915042
v -1.841977 0.687161 5.717785
v -1.812596 0.497839 5.711549
v -1.840549 0.174786 5.728721
v -2.280931 0.758638 5.465586
v -2.337600 0.492438 5.468839
v -2.278941 0.173444 5.480356
v -2.127913 0.682943 5.287121
v -2.098533 0.493621 5.280884
v -2.126485 0.170568 5.298057
v -2.245784 0.664903 4.884083
v -2.258562 0.483300 4.849776
v -2.245575 0.258961 4.894864
v -2.152828 0.592015 4.942456
v -2.127448 0.485706 4.921868
v -2.152029 0.258885 4.949037
v -1.605485 0.435113 5.610975
v -1.634739 0.296142 5.665122
v -1.802468 0.444785 5.567366
v -1.822123 0.168323 5.588238
v -1.667342 0.381385 5.400816
v -1.691312 0.267513 5.445184
v -1.828749 0.389310 5.365083
v -1.844854 0.162779 5.382185
v -1.752647 0.324699 5.181014
v -1.762040 0.243551 5.215787
v -1.870465 0.330621 5.183190
v -1.879144 0.169151 5.197774
v -0.158780 0.287954 9.667909
v -0.252719 0.101461 9.604388
v -0.182110 -0.006843 9.604388
v -1.478124 0.229359 7.467915
v -1.573892 0.453038 7.509059
v -1.038827 0.505208 7.220008
v -1.093267 0.263561 7.261745
v -1.484241 0.619699 7.519792
v -1.097241 0.652865 7.317910
v -1.657825 0.497925 7.266266
v -1.569118 0.655183 7.268497
v -1.162079 0.657896 7.134930
v -1.092096 0.504580 7.074709
v -1.159884 0.284811 7.137994
v -1.565094 0.281319 7.272606
v -0.508053 0.088960 4.315810
v -0.519458 0.707502 5.627832
v -0.866564 -0.128595 4.351546
v -1.031588 0.415316 5.877536
v -0.866564 -0.398975 4.418231
v -1.033048 -0.092962 5.914285
v -0.508034 -0.600355 4.468117
v -0.513485 -0.365862 5.834012
v -0.149427 -0.387301 4.427390
v -0.141336 -0.062995 5.802292
v -0.149542 -0.107296 4.368408
v -0.512044 0.829306 5.934786
v -1.022851 0.460737 6.079569
v -1.024829 -0.059329 6.099419
v -0.515671 -0.347044 5.931496
v -0.133260 -0.044523 5.883788
v -0.417970 0.877459 6.142823
v -0.882834 0.487849 6.575762
v -0.879769 -0.031826 6.518001
v -0.448454 -0.316603 6.170426
v -0.130631 -0.024632 5.991122
v -0.429993 -0.103151 1.948316
v -0.658826 -0.235254 1.950161
v -0.658826 -0.499462 1.953852
v -0.429993 -0.631565 1.955698
v -0.201160 -0.499462 1.953852
v -0.201160 -0.235254 1.950161
v -0.825732 -0.405557 3.744987
v -0.825732 -0.155401 3.729109
v -0.149031 -0.197742 3.733593
v -0.149031 -0.448077 3.749558
v -0.487381 0.068399 3.746085
v -0.487381 -0.618441 4.115324
v -0.714889 0.437479 6.886610
v -0.711441 -0.080089 6.803215
v -0.429993 -0.303365 0.316751
v -0.608102 -0.407460 0.310149
v -0.608102 -0.611650 0.334726
v -0.429993 -0.713744 0.347014
v -0.251883 -0.611650 0.334726
v -0.251883 -0.407460 0.310149
v -0.859183 -0.148864 4.244702
v -0.149356 -0.412934 4.304327
v -0.504316 0.079493 4.220869
v -0.859183 -0.411346 4.296118
v -0.149450 -0.137073 4.258957
v -0.504300 -0.607839 4.404011
v -0.850273 -0.421676 4.147514
v -0.149338 -0.159897 4.122062
v -0.499794 -0.615511 4.325850
v -0.850273 -0.157230 4.110477
v -0.149269 -0.429771 4.156139
v -0.499806 0.042771 4.103504
v -0.182652 0.209765 10.337206
v -0.252719 0.101461 10.337206
v -0.182110 -0.006843 10.337206
v 0.213411 0.641162 5.751743
v -0.199640 0.632470 5.721287
vn 0.2171 0.8930 -0.3943
vn 0.2309 0.9730 -0.0026
vn 0.2282 0.8287 0.5111
vn 0.5934 0.7171 0.3657
vn 0.6038 0.7971 0.0039
vn 0.5368 0.7678 -0.3497
vn 0.4335 0.6757 -0.5962
vn 0.2244 0.7535 -0.6180
vn 0.9488 0.1900 -0.2522
vn 0.9829 0.1719 0.0657
vn 0.9669 -0.1341 -0.2169
vn 0.9843 -0.1466 0.0981
vn 0.7198 0.4412 -0.5359
vn 0.8218 0.4872 -0.2955
vn 0.8739 0.4848 0.0339
vn 0.8176 0.4547 0.3533
vn 0.8793 0.1584 0.4492
vn 0.8717 -0.1659 0.4611
vn 0.7717 -0.4987 0.3948
vn 0.8452 -0.5193 0.1267
vn 0.8441 -0.5094 -0.1677
vn 0.7852 -0.4383 -0.4373
vn 0.8572 -0.1236 -0.4999
vn 0.8229 0.2097 -0.5281
vn 1.0000 -0.0000 -0.0000
vn 0.1564 -0.9765 0.1485
vn 0.4800 -0.7943 -0.3725
vn 0.5169 -0.8425 -0.1518
vn 0.4664 -0.8756 0.1262
vn 0.4808 -0.7739 0.4123
vn 0.1500 -0.8611 0.4857
vn 0.2261 -0.9220 -0.3144
vn 0.3148 0.2794 -0.9071
vn 0.3250 -0.1799 -0.9284
vn 0.2669 0.5681 -0.7785
vn 0.4934 0.5045 -0.7086
vn 0.5804 0.2495 -0.7751
vn 0.6137 -0.1420 -0.7766
vn 0.5175 -0.5489 -0.6564
vn 0.3026 -0.6356 -0.7102
vn 0.1733 0.1395 0.9749
vn 0.1703 -0.1865 0.9676
vn 0.5492 0.4099 0.7283
vn 0.1876 0.4801 0.8569
vn 0.1601 -0.5446 0.8233
vn 0.5064 -0.4648 0.7263
vn 0.5518 -0.1809 0.8141
vn 0.5611 0.1458 0.8148
vn 0.6237 0.6944 0.3588
vn 0.7220 0.5506 -0.4190
vn 0.3616 0.0569 -0.9306
vn -0.6237 -0.6944 -0.3589
vn 0.6532 -0.7421 0.1505
vn -0.7220 -0.5506 0.4190
vn -0.3616 -0.0569 0.9306
vn -0.6532 0.7421 -0.1505
vn 0.3896 0.9209 0.0095
vn 0.2222 -0.9727 -0.0664
vn 0.2056 -0.9637 -0.1705
vn 0.9454 -0.3007 -0.1260
vn 0.9497 0.3031 -0.0786
vn 0.2464 0.9687 -0.0295
vn 0.2425 -0.9646 -0.1040
vn 0.8812 -0.4717 0.0307
vn 0.8959 0.4418 -0.0466
vn 0.2934 0.9557 0.0257
vn 0.4023 0.6146 0.6785
vn 0.3476 0.8923 0.2879
vn 0.3266 -0.1911 0.9257
vn 0.0304 -0.8255 0.5635
vn 0.7863 0.5884 -0.1885
vn 0.7790 -0.3244 0.5365
vn 0.6241 0.7729 -0.1149
vn 0.5959 -0.7993 -0.0779
vn 0.9370 -0.2179 -0.2731
vn 0.8649 0.2163 -0.4528
vn 0.8872 -0.3068 0.3445
vn -0.8176 -0.4131 -0.4011
vn 0.0051 0.9778 -0.2094
vn 0.8256 0.5164 0.2276
vn -0.8475 0.3946 -0.3549
vn 0.0724 -0.9973 0.0137
vn 0.8559 0.5165 0.0244
vn -0.8555 0.2727 -0.4401
vn 0.0136 -0.9452 0.3263
vn 0.9067 -0.2620 0.3305
vn -0.8773 -0.4518 -0.1622
vn 0.0165 0.9280 -0.3721
vn 0.2813 0.3142 0.9067
vn -0.9521 -0.1762 0.2499
vn -0.0741 0.9937 -0.0840
vn 0.6378 0.6627 0.3925
vn -0.4886 0.0988 -0.8669
vn -0.5083 -0.3062 0.8049
vn 0.8149 0.3602 0.4541
vn -0.8465 -0.0455 -0.5304
vn 0.0998 -0.8584 0.5032
vn 0.8866 0.0234 0.4619
vn -0.8524 -0.2766 -0.4437
vn -0.2658 0.8266 -0.4960
vn -0.9945 -0.1032 -0.0168
vn -0.6953 0.5730 -0.4338
vn 0.9693 0.1447 -0.1988
vn -0.9682 0.2161 -0.1263
vn 0.1938 -0.9618 0.1934
vn 0.9823 -0.1370 -0.1274
vn -0.9466 -0.3176 -0.0550
vn -0.1861 0.8137 -0.5506
vn 0.9866 0.0243 -0.1615
vn -0.5246 -0.7395 0.4217
vn -0.5513 -0.8112 0.1951
vn -0.5761 -0.7696 0.2754
vn 0.9949 0.0959 0.0321
vn -0.1196 0.7962 -0.5931
vn -0.2546 -0.4349 -0.8637
vn 0.9845 0.1333 0.1143
vn -0.1226 0.7883 -0.6030
vn -0.9321 -0.3493 -0.0953
vn 0.2046 -0.1334 0.9697
vn 0.2162 0.5205 0.8260
vn -0.0707 -0.6880 0.7223
vn 0.2240 0.1290 0.9660
vn -0.5159 -0.4368 -0.7369
vn -0.6231 -0.1726 -0.7628
vn 0.0590 -0.9939 0.0934
vn -0.8720 0.3802 -0.3082
vn 0.8052 0.5200 0.2852
vn 0.0399 0.9753 -0.2175
vn -0.9445 -0.1098 -0.3097
vn 0.8802 -0.3082 0.3609
vn 0.0637 0.9331 -0.3539
vn -0.7600 -0.4839 -0.4338
vn 0.8986 -0.2702 0.3458
vn 0.0537 -0.9896 0.1332
vn -0.7735 0.3417 -0.5339
vn 0.8348 0.5299 0.1495
vn 0.3980 0.8800 -0.2591
vn 0.9943 0.0020 -0.1063
vn 0.4913 -0.8706 -0.0260
vn -0.4663 -0.8843 -0.0229
vn -0.5716 -0.8026 -0.1705
vn 0.9965 0.0826 -0.0083
vn -1.0000 0.0013 -0.0055
vn 0.9972 0.0722 -0.0184
vn -0.9844 -0.1624 0.0671
vn 0.9991 -0.0027 0.0426
vn 0.5830 0.8118 0.0326
vn 0.4606 -0.8800 -0.1159
vn -0.5626 -0.1497 0.8131
vn 0.4459 -0.8950 0.0160
vn 0.5477 0.8088 0.2142
vn -0.1082 0.9855 -0.1307
vn -0.5738 -0.8104 -0.1186
vn 0.9515 -0.0414 0.3048
vn -0.9992 0.0400 0.0009
vn -0.9999 0.0097 -0.0026
vn 0.5403 0.2308 0.8092
vn 0.5001 -0.1784 -0.8474
vn -0.5000 0.1738 0.8484
vn -0.4188 -0.2138 -0.8825
vn -0.3653 -0.7653 -0.5299
vn -0.6096 0.2100 0.7644
vn 0.4905 -0.1825 -0.8521
vn 0.5411 -0.0301 0.8404
vn -1.0000 -0.0004 0.0006
vn 0.9974 0.0701 -0.0179
vn 0.0436 -0.9990 0.0042
vn -0.4283 -0.4804 -0.7654
vn -0.1011 -0.9803 -0.1698
vn -0.6000 0.0494 -0.7985
vn 0.0304 0.9876 0.1538
vn 0.3895 0.8534 0.3464
vn 0.2197 -0.9666 0.1322
vn 0.8794 -0.0883 0.4679
vn 0.0007 0.9986 0.0524
vn 0.4998 -0.2062 -0.8412
vn 0.4967 0.2843 0.8201
vn -0.4746 0.2839 0.8332
vn -0.4918 -0.2051 -0.8462
vn 0.9992 0.0389 -0.0079
vn 0.9875 0.0711 -0.1405
vn -1.0000 0.0004 0.0003
vn -0.2531 0.1790 -0.9507
vn 0.4640 -0.8853 0.0315
vn -0.3402 0.7040 -0.6234
vn -0.4662 -0.8844 -0.0221
vn 0.9804 0.1707 -0.0979
vn -1.0000 -0.0000 0.0007
vn -0.2164 0.5379 -0.8148
vn 0.4705 -0.8561 -0.2140
vn -0.3238 0.9199 0.2211
vn -0.3711 -0.9183 -0.1379
vn 0.2807 0.9559 0.0870
vn 0.2389 -0.9697 -0.0505
vn 0.7553 0.1432 0.6395
vn 0.8931 0.4499 -0.0000
vn 0.8377 -0.5461 -0.0000
vn 0.5488 0.8323 0.0777
vn 0.5165 -0.8562 -0.0132
vn -0.2171 0.8930 -0.3943
vn -0.2332 0.9724 -0.0047
vn -0.2282 0.8287 0.5111
vn -0.5362 0.7239 0.4341
vn -0.6140 0.7893 -0.0094
vn -0.5575 0.7416 -0.3731
vn -0.4335 0.6757 -0.5962
vn -0.2244 0.7535 -0.6180
vn -0.9486 0.1818 -0.2589
vn -0.9832 0.1706 0.0645
vn -0.9679 -0.1309 -0.2144
vn -0.9842 -0.1492 0.0957
vn -0.7190 0.4598 -0.5211
vn -0.8258 0.4724 -0.3080
vn -0.8791 0.4760 0.0239
vn -0.8176 0.4547 0.3533
vn -0.8813 0.1551 0.4463
vn -0.8704 -0.1617 0.4650
vn -0.7756 -0.4470 0.4457
vn -0.8474 -0.5145 0.1312
vn -0.8444 -0.5089 -0.1672
vn -0.7852 -0.4383 -0.4373
vn -0.8583 -0.1214 -0.4987
vn -0.8209 0.2013 -0.5345
vn -0.1488 -0.9784 0.1435
vn -0.5095 -0.7887 -0.3441
vn -0.5440 -0.8308 -0.1171
vn -0.5063 -0.8464 0.1648
vn -0.4808 -0.7739 0.4123
vn -0.1500 -0.8611 0.4857
vn -0.1482 -0.9172 -0.3698
vn -0.3082 0.2745 -0.9109
vn -0.3445 -0.1614 -0.9248
vn -0.2408 0.5577 -0.7943
vn -0.4461 0.4620 -0.7665
vn -0.5707 0.2336 -0.7872
vn -0.6232 -0.1271 -0.7717
vn -0.5828 -0.4680 -0.6643
vn -0.3026 -0.6356 -0.7102
vn -0.1783 0.1347 0.9747
vn -0.1652 -0.1814 0.9694
vn -0.5146 0.4458 0.7324
vn -0.1947 0.4737 0.8589
vn -0.1601 -0.5446 0.8233
vn -0.5064 -0.4648 0.7263
vn -0.5466 -0.1746 0.8190
vn -0.5630 0.1438 0.8139
vn -0.6237 0.6944 0.3588
vn -0.7220 0.5506 -0.4190
vn -0.3616 0.0569 -0.9306
vn 0.6237 -0.6944 -0.3589
vn -0.6532 -0.7421 0.1505
vn 0.7220 -0.5506 0.4190
vn 0.3616 -0.0569 0.9306
vn 0.6532 0.7421 -0.1505
vn -0.2943 0.9351 0.1972
vn -0.3428 -0.9387 -0.0376
vn -0.2342 -0.9615 -0.1440
vn -0.8896 -0.4190 -0.1817
vn -0.9475 0.3049 -0.0961
vn -0.2328 0.9695 -0.0761
vn -0.3037 -0.9504 -0.0675
vn -0.8912 -0.4236 0.1625
vn -0.8746 0.4771 -0.0864
vn -0.2034 0.9780 -0.0456
vn -0.4430 0.5138 0.7347
vn -0.3182 0.8661 0.3856
vn -0.5662 -0.1711 0.8063
vn -0.1055 -0.8543 0.5089
vn -0.7203 0.6392 0.2694
vn -0.9499 -0.3098 0.0410
vn -0.5423 0.8320 0.1171
vn -0.8313 -0.4558 -0.3181
vn -0.9988 -0.0449 0.0214
vn -0.7465 0.3999 -0.5318
vn -0.8730 -0.4195 0.2487
vn 0.8532 -0.2694 -0.4467
vn 0.0051 0.9851 0.1717
vn -0.8313 0.4240 0.3595
vn 0.8486 0.4813 -0.2197
vn -0.0627 -0.9590 -0.2762
vn -0.8464 0.4740 0.2429
vn 0.8052 0.4955 -0.3258
vn -0.0017 -0.9995 -0.0309
vn -0.8915 -0.3742 0.2554
vn 0.8620 -0.3667 -0.3501
vn -0.0126 0.9998 -0.0182
vn -0.2394 -0.0289 0.9705
vn 0.9585 -0.2539 0.1294
vn 0.0863 0.9585 0.2715
vn -0.2109 0.1042 0.9719
vn 0.4546 0.4006 -0.7955
vn 0.1769 -0.7918 0.5846
vn -0.7722 0.4768 0.4200
vn 0.8235 0.1459 -0.5482
vn -0.0928 -0.9812 0.1692
vn -0.8027 -0.2639 0.5348
vn 0.8293 -0.1010 -0.5496
vn 0.1301 0.9900 0.0542
vn 0.9913 -0.0908 -0.0955
vn 0.3105 0.9412 -0.1329
vn -0.9742 0.2063 -0.0921
vn 0.9814 0.1560 -0.1121
vn -0.2009 -0.9676 -0.1528
vn -0.9796 -0.1831 -0.0826
vn 0.9385 -0.2775 -0.2053
vn 0.1765 0.9563 -0.2330
vn -0.9918 0.0805 -0.0993
vn 0.5383 -0.8264 0.1653
vn 0.5878 -0.8031 -0.0973
vn 0.5746 -0.8174 -0.0414
vn -0.9911 0.0786 0.1072
vn 0.1080 0.9551 -0.2760
vn -0.0366 -0.3900 -0.9201
vn -0.9768 0.0843 0.1968
vn 0.1105 0.9512 -0.2882
vn 0.9219 -0.2929 -0.2536
vn -0.2247 -0.1446 0.9636
vn -0.2090 0.5173 0.8299
vn 0.0651 -0.6882 0.7226
vn -0.2307 0.0973 0.9681
vn 0.4949 -0.1560 -0.8548
vn 0.4596 0.2734 -0.8450
vn -0.1345 -0.9731 -0.1871
vn 0.9485 0.1485 -0.2797
vn -0.6481 0.6767 0.3493
vn -0.2407 0.9374 0.2516
vn 0.9497 -0.0295 -0.3119
vn -0.8913 -0.3851 0.2394
vn -0.0521 0.9985 -0.0145
vn 0.7864 -0.3207 -0.5279
vn -0.8637 -0.3971 0.3104
vn 0.0225 -0.9978 -0.0626
vn 0.7874 0.5232 -0.3259
vn -0.8319 0.4507 0.3236
vn -0.5085 0.7771 -0.3708
vn -0.9944 -0.0048 -0.1058
vn -0.4449 -0.8858 0.1317
vn 0.5175 -0.8430 0.1468
vn 0.6312 -0.7588 0.1606
vn 0.3188 0.8584 -0.4019
vn -0.5226 0.8258 -0.2120
vn -0.9956 -0.0059 -0.0931
vn 0.9883 -0.1527 0.0041
vn -0.9990 0.0060 0.0433
vn -0.5769 0.7639 -0.2892
vn -0.4394 -0.8838 0.1608
vn 0.1572 -0.1149 0.9809
vn -0.4202 -0.8778 0.2300
vn -0.5709 0.8182 0.0688
vn 0.0225 0.9717 -0.2351
vn 0.6251 -0.7701 0.1274
vn -0.9451 0.0161 0.3265
vn 0.9995 -0.0004 -0.0309
vn 0.9996 -0.0018 -0.0290
vn -0.5457 0.8324 -0.0968
vn -0.5256 -0.8507 -0.0088
vn 0.6160 0.7858 -0.0553
vn 0.4649 -0.8852 0.0177
vn 0.4831 -0.8746 0.0407
vn 0.4959 0.8648 0.0792
vn -0.4777 -0.8784 -0.0159
vn -0.4959 0.8680 -0.0277
vn 1.0000 0.0003 0.0006
vn -0.9981 -0.0086 -0.0612
vn -0.0077 -1.0000 0.0042
vn 0.1082 -0.5285 -0.8420
vn 0.1476 -0.9745 -0.1688
vn 0.2140 0.0604 -0.9750
vn -0.3628 0.8521 0.3773
vn -0.3648 0.8677 0.3377
vn -0.2840 -0.9588 0.0053
vn -0.8641 -0.0606 0.4997
vn -0.0000 -0.1195 -0.9928
vn -0.4997 -0.8650 0.0443
vn -0.4978 0.8608 -0.1056
vn 0.4978 0.8608 -0.1056
vn 0.4997 -0.8650 0.0443
vn -0.9995 -0.0004 -0.0309
vn -0.9982 -0.0145 -0.0589
vn 1.0000 0.0005 0.0005
vn -0.5230 0.8301 -0.1936
vn -0.4961 -0.8653 0.0721
vn 0.4931 0.8396 -0.2280
vn 0.5173 -0.8460 0.1289
vn -0.9982 -0.0116 -0.0590
vn 1.0000 0.0004 0.0005
vn -0.5432 0.8350 -0.0881
vn -0.4967 -0.8661 0.0564
vn 0.5246 0.8181 -0.2358
vn 0.5025 -0.8572 0.1131
vn -0.2683 0.9600 0.0800
vn -0.2258 -0.9742 -0.0065
vn -0.7556 0.1434 0.6391
vn -0.8931 0.4499 -0.0000
vn -0.8377 -0.5461 -0.0000
vn -0.5999 0.7948 0.0921
vn -0.5165 -0.8562 -0.0132
vn -0.6576 0.0254 -0.7529
vn 0.9910 0.0698 -0.1140
vn -0.0625 0.6962 -0.7152
vn 0.0262 0.7538 -0.6566
vn 0.2158 0.8929 -0.3952
vn 0.2332 0.9724 -0.0047
vn 0.2113 0.8407 0.4986
vn 0.5362 0.7239 0.4341
vn 0.6140 0.7893 -0.0094
vn 0.5575 0.7416 -0.3731
vn 0.4895 0.6746 -0.5525
vn 0.2088 0.7506 -0.6269
vn 0.9486 0.1818 -0.2589
vn 0.9832 0.1706 0.0645
vn 0.9679 -0.1309 -0.2144
vn 0.9842 -0.1492 0.0957
vn 0.7190 0.4598 -0.5211
vn 0.8258 0.4724 -0.3080
vn 0.8791 0.4760 0.0239
vn 0.8171 0.4050 0.4103
vn 0.8813 0.1551 0.4463
vn 0.8704 -0.1617 0.4650
vn 0.7756 -0.4470 0.4457
vn 0.8474 -0.5145 0.1312
vn 0.8444 -0.5089 -0.1672
vn 0.7820 -0.4824 -0.3947
vn 0.8583 -0.1214 -0.4987
vn 0.8209 0.2013 -0.5345
vn 0.1806 -0.9804 -0.0786
vn 0.1607 -0.9818 -0.1015
vn 0.1488 -0.9784 0.1435
vn 0.5095 -0.7887 -0.3441
vn 0.5440 -0.8308 -0.1171
vn 0.5063 -0.8464 0.1648
vn 0.4448 -0.7758 0.4475
vn 0.1542 -0.8626 0.4818
vn 0.1482 -0.9172 -0.3698
vn 0.3082 0.2745 -0.9109
vn 0.3445 -0.1614 -0.9248
vn 0.2408 0.5577 -0.7943
vn 0.4461 0.4620 -0.7665
vn 0.5707 0.2336 -0.7872
vn 0.6232 -0.1271 -0.7717
vn 0.5828 -0.4680 -0.6643
vn 0.2683 -0.6184 -0.7387
vn 0.1783 0.1347 0.9747
vn 0.1652 -0.1814 0.9694
vn 0.5146 0.4458 0.7324
vn 0.1947 0.4737 0.8589
vn 0.1626 -0.5423 0.8243
vn 0.4611 -0.5075 0.7279
vn 0.5466 -0.1746 0.8190
vn 0.5630 0.1438 0.8139
vn -0.6237 -0.6944 -0.3588
vn 0.3305 0.9234 0.1951
vn 0.3038 -0.9500 0.0721
vn 0.2417 -0.9503 -0.1963
vn 0.8597 -0.4645 -0.2125
vn 0.8896 0.4382 -0.1290
vn 0.2939 0.9529 -0.0748
vn 0.2200 -0.9717 -0.0861
vn 0.9521 -0.2931 -0.0870
vn 0.9672 0.2281 0.1121
vn 0.3516 0.9351 -0.0437
vn 0.6950 0.4323 0.5745
vn 0.2598 0.8309 0.4920
vn 0.5336 -0.1043 0.8393
vn 0.0594 -0.8374 0.5433
vn 0.7589 0.6497 0.0436
vn 0.9468 -0.2877 0.1444
vn 0.8616 0.5013 -0.0794
vn 0.3509 -0.9343 0.0624
vn -0.2496 -0.4812 -0.8403
vn 0.9912 0.0837 -0.1022
vn 0.8647 -0.3183 0.3886
vn -0.8998 -0.3918 -0.1921
vn -0.0082 0.9914 -0.1308
vn 0.8051 0.5380 0.2497
vn -0.8433 0.3883 -0.3715
vn 0.0688 -0.9972 0.0288
vn 0.8918 0.4497 0.0492
vn -0.8178 0.3613 -0.4480
vn -0.0043 -0.9454 0.3260
vn 0.9007 -0.2752 0.3363
vn -0.8742 -0.4596 -0.1564
vn -0.0007 0.9280 -0.3725
vn 0.5227 0.0898 0.8478
vn -0.9781 -0.1439 0.1503
vn -0.4983 0.8518 0.1619
vn 0.2529 0.4395 0.8619
vn -0.6772 -0.1409 -0.7221
vn -0.1516 -0.5294 0.8347
vn 0.7898 0.5827 0.1913
vn 0.0042 -0.9301 0.3672
vn 0.8251 -0.0692 0.5608
vn -0.1273 0.9466 -0.2963
vn -0.9926 -0.1208 0.0095
vn -0.3157 0.8373 -0.4464
vn 0.9810 0.0266 -0.1922
vn -0.9853 0.1214 -0.1204
vn -0.1567 -0.9815 0.1102
vn 0.9750 -0.2159 -0.0516
vn -0.1343 0.7560 -0.6407
vn 0.9827 -0.0063 -0.1853
vn -0.5309 -0.7051 0.4701
vn -0.5917 -0.7759 0.2186
vn -0.0035 -0.6921 -0.7218
vn 0.9875 0.1150 0.1081
vn -0.0552 0.7745 -0.6301
vn -0.9372 -0.3111 -0.1576
vn 0.2225 -0.1221 0.9672
vn 0.5591 0.6305 0.5384
vn 0.0185 -0.3559 0.9343
vn 0.4818 -0.0552 0.8745
vn -0.5316 -0.4418 -0.7226
vn -0.4958 -0.0376 -0.8676
vn 0.0372 -0.9963 0.0771
vn -0.9413 0.0662 -0.3310
vn 0.6517 0.7449 0.1429
vn 0.3081 0.9513 -0.0091
vn -0.9148 -0.3403 -0.2178
vn 0.8750 -0.3266 0.3575
vn -0.0282 0.9738 -0.2255
vn -0.8755 -0.4539 -0.1661
vn 0.8630 -0.2743 0.4243
vn -0.0372 -0.9574 0.2863
vn -0.7926 0.3888 -0.4697
vn 0.8236 0.5433 0.1627
vn 0.5538 0.8101 -0.1923
vn 0.9944 0.0167 -0.1041
vn 0.4481 -0.8931 -0.0405
vn -0.5826 -0.8126 0.0178
vn -0.5882 -0.8042 -0.0858
vn 1.0000 -0.0008 -0.0057
vn -0.9939 0.1098 0.0094
vn 0.9973 0.0725 -0.0147
vn -0.9863 -0.1595 -0.0419
vn 0.9991 -0.0026 0.0434
vn 0.5494 0.8179 -0.1708
vn 0.4608 -0.8870 -0.0292
vn -0.5629 -0.1415 0.8143
vn -0.6280 0.0027 0.7782
vn -0.1560 -0.1951 0.9683
vn 0.4510 -0.8907 0.0562
vn 0.5479 0.8115 0.2031
vn 0.0239 0.9239 -0.3819
vn -0.5869 -0.7862 -0.1934
vn 0.9570 -0.0561 0.2847
vn -0.9992 0.0389 -0.0079
vn -0.9999 0.0099 -0.0020
vn 0.4993 0.2253 0.8366
vn 0.4903 -0.1823 -0.8522
vn -0.6110 0.1826 0.7703
vn -0.4992 -0.1889 -0.8456
vn -0.5031 -0.2958 -0.8120
vn -0.3814 -0.0770 0.9212
vn 0.3721 -0.7449 -0.5538
vn 0.4227 0.1653 0.8911
vn -1.0000 -0.0009 0.0002
vn 0.9980 0.0554 -0.0317
vn -0.1504 -0.6315 -0.7606
vn 0.2603 -0.9136 0.3124
vn 0.3884 0.8191 0.4222
vn 0.3368 0.8112 0.4780
vn 0.2743 -0.9616 0.0019
vn 0.8794 -0.0883 0.4678
vn 0.0007 0.9977 0.0671
vn -0.0072 0.9984 0.0568
vn -0.0543 0.9983 0.0218
vn 0.4852 -0.2060 -0.8498
vn 0.4728 0.2839 0.8342
vn -0.4967 0.2843 0.8201
vn -0.4990 -0.2052 -0.8419
vn 0.9992 0.0402 0.0023
vn 0.9991 0.0008 -0.0418
vn -1.0000 -0.0002 0.0010
vn 0.2432 0.6510 -0.7190
vn 0.4927 -0.8688 -0.0487
vn 0.2216 0.1689 -0.9604
vn -0.4072 -0.9025 0.1402
vn 0.9988 0.0223 -0.0440
vn -1.0000 -0.0014 0.0012
vn 0.4446 0.8558 0.2646
vn 0.4558 -0.8764 -0.1555
vn 0.0430 0.5287 -0.8477
vn -0.4090 -0.8204 -0.3995
vn 0.2821 0.9563 0.0765
vn 0.2142 -0.9767 0.0149
vn 0.7395 -0.3306 0.5864
vn 0.9024 -0.0806 0.4233
vn 0.8391 0.5429 0.0335
vn 0.5999 0.7948 0.0921
vn 0.5513 -0.8343 -0.0000
vn -0.2158 0.8929 -0.3952
vn -0.2309 0.9730 -0.0026
vn -0.2113 0.8407 0.4986
vn -0.5934 0.7171 0.3657
vn -0.6038 0.7971 0.0039
vn -0.5368 0.7678 -0.3497
vn -0.4895 0.6746 -0.5525
vn -0.2088 0.7506 -0.6269
vn -0.9488 0.1900 -0.2522
vn -0.9829 0.1719 0.0657
vn -0.9669 -0.1341 -0.2169
vn -0.9843 -0.1466 0.0981
vn -0.7198 0.4412 -0.5359
vn -0.8218 0.4872 -0.2955
vn -0.8739 0.4848 0.0339
vn -0.8171 0.4050 0.4103
vn -0.8793 0.1584 0.4492
vn -0.8717 -0.1659 0.4611
vn -0.7717 -0.4987 0.3948
vn -0.8452 -0.5193 0.1267
vn -0.8441 -0.5094 -0.1677
vn -0.7820 -0.4824 -0.3947
vn -0.8572 -0.1236 -0.4999
vn -0.8229 0.2097 -0.5281
vn -0.1607 -0.9818 -0.1015
vn -0.1806 -0.9804 -0.0786
vn -0.1564 -0.9765 0.1485
vn -0.4800 -0.7943 -0.3725
vn -0.5169 -0.8425 -0.1518
vn -0.4664 -0.8756 0.1262
vn -0.4448 -0.7758 0.4475
vn -0.1542 -0.8626 0.4818
vn -0.2261 -0.9220 -0.3144
vn -0.3148 0.2794 -0.9071
vn -0.3250 -0.1799 -0.9284
vn -0.2669 0.5681 -0.7785
vn -0.4934 0.5045 -0.7086
vn -0.5804 0.2495 -0.7751
vn -0.6137 -0.1420 -0.7766
vn -0.5175 -0.5489 -0.6564
vn -0.2683 -0.6184 -0.7387
vn -0.1733 0.1395 0.9749
vn -0.1703 -0.1865 0.9676
vn -0.5492 0.4099 0.7283
vn -0.1876 0.4801 0.8569
vn -0.1626 -0.5423 0.8243
vn -0.4611 -0.5075 0.7279
vn -0.5518 -0.1809 0.8141
vn -0.5611 0.1458 0.8148
vn 0.6237 -0.6944 -0.3588
vn -0.3231 0.9380 0.1253
vn -0.3249 -0.9435 -0.0651
vn -0.3000 -0.9342 -0.1930
vn -0.9440 -0.3065 -0.1223
vn -0.8638 0.4735 -0.1723
vn -0.2347 0.9689 -0.0779
vn -0.3215 -0.9432 -0.0832
vn -0.9805 -0.1832 -0.0705
vn -0.9584 0.2782 0.0629
vn -0.2328 0.9696 -0.0755
vn -0.6591 0.3894 0.6434
vn -0.2671 0.8291 0.4911
vn -0.3927 -0.2542 0.8838
vn -0.0310 -0.8255 0.5635
vn -0.7720 0.6352 -0.0230
vn -0.8523 -0.4185 0.3138
vn -0.1814 0.9717 0.1511
vn -0.4856 -0.8719 -0.0630
vn 0.5811 -0.2033 -0.7880
vn -0.8323 0.3390 -0.4387
vn -0.8891 -0.4016 0.2197
vn 0.9090 -0.3065 -0.2824
vn -0.0074 0.9951 0.0988
vn -0.8134 0.4358 0.3852
vn 0.8545 0.4826 -0.1920
vn -0.0570 -0.9661 -0.2519
vn -0.8820 0.4032 0.2440
vn 0.8412 0.4112 -0.3513
vn -0.0151 -0.9994 -0.0300
vn -0.8966 -0.3621 0.2550
vn 0.8596 -0.3743 -0.3479
vn -0.0000 0.9998 -0.0190
vn -0.4865 -0.2175 0.8462
vn 0.9810 -0.1883 0.0467
vn 0.5178 0.7383 0.4322
vn -0.6109 0.4799 0.6297
vn 0.6452 0.1250 -0.7538
vn 0.5356 -0.5727 0.6206
vn -0.7901 0.1754 0.5874
vn -0.0040 -0.9999 0.0124
vn -0.8667 -0.1421 0.4781
vn 0.2585 0.9489 -0.1809
vn 0.9902 -0.1166 -0.0772
vn 0.6861 0.6896 -0.2315
vn -0.9874 0.0936 -0.1274
vn 0.9655 0.2466 -0.0832
vn 0.1456 -0.9565 -0.2527
vn -0.9887 -0.0824 -0.1250
vn 0.1201 0.9344 -0.3354
vn -0.9893 0.0603 -0.1325
vn 0.5295 -0.8414 0.1082
vn 0.5459 -0.8277 -0.1301
vn 0.2126 -0.0992 -0.9721
vn -0.9803 0.0694 0.1847
vn 0.0418 0.9480 -0.3155
vn 0.9251 -0.2349 -0.2984
vn -0.2232 -0.1455 0.9638
vn -0.5591 0.6305 0.5384
vn -0.0287 -0.3708 0.9283
vn -0.4596 -0.0700 0.8853
vn 0.4787 -0.1463 -0.8657
vn 0.5889 0.1098 -0.8007
vn -0.0477 -0.9672 -0.2495
vn 0.8800 0.4497 -0.1532
vn -0.8115 0.4097 0.4168
vn -0.0299 0.9939 0.1059
vn 0.9178 -0.2588 -0.3010
vn -0.8809 -0.4180 0.2222
vn 0.0247 0.9951 0.0955
vn 0.8625 -0.3665 -0.3489
vn -0.8920 -0.3745 0.2531
vn -0.0515 -0.9822 -0.1806
vn 0.7716 0.5044 -0.3876
vn -0.8210 0.4583 0.3404
vn -0.5837 0.7428 -0.3279
vn -0.9941 -0.0260 -0.1053
vn -0.4998 -0.8540 0.1446
vn 0.6304 -0.7563 0.1747
vn 0.6251 -0.7723 0.1131
vn 0.4839 0.7752 -0.4060
vn -0.4480 0.8595 -0.2461
vn -0.9957 -0.0013 -0.0927
vn 0.9869 -0.1493 0.0617
vn -0.9991 0.0054 0.0420
vn -0.6061 0.7813 -0.1494
vn -0.4385 -0.8807 0.1794
vn 0.6441 0.0772 0.7610
vn 0.5737 -0.0871 0.8145
vn 0.5716 -0.1242 0.8111
vn -0.4199 -0.8844 0.2036
vn -0.5717 0.8121 0.1170
vn -0.0538 0.9228 -0.3814
vn 0.6474 -0.7573 -0.0856
vn -0.9613 -0.0360 0.2732
vn 0.9995 -0.0037 -0.0311
vn 0.9996 -0.0004 -0.0292
vn -0.4986 0.8626 -0.0855
vn -0.5000 -0.8661 -0.0012
vn 0.4999 0.8655 -0.0328
vn 0.5000 -0.8660 0.0103
vn 0.4832 -0.8746 0.0397
vn 0.6147 0.7851 -0.0760
vn -0.4801 -0.8749 -0.0643
vn -0.5526 0.8324 0.0405
vn 1.0000 0.0001 0.0008
vn -0.9979 -0.0041 -0.0642
vn 0.0443 -0.5574 -0.8291
vn -0.2101 -0.8678 0.4503
vn -0.0674 0.9859 0.1535
vn -0.2947 0.8233 0.4852
vn -0.2190 -0.9667 0.1322
vn -0.8823 -0.0806 0.4637
vn -0.0000 0.0633 -0.9980
vn -0.4991 -0.8654 0.0442
vn -0.4988 0.8602 -0.1058
vn 0.4988 0.8602 -0.1058
vn 0.4991 -0.8654 0.0442
vn -0.9995 -0.0037 -0.0311
vn -0.9977 -0.0130 -0.0665
vn 1.0000 0.0005 0.0007
vn -0.5431 0.8331 -0.1044
vn -0.4969 -0.8659 0.0577
vn 0.5249 0.8488 -0.0640
vn 0.5113 -0.8413 0.1755
vn -0.9978 -0.0092 -0.0657
vn 1.0000 0.0004 0.0008
vn -0.4802 0.8317 -0.2787
vn -0.4956 -0.8680 0.0306
vn 0.5012 0.8536 -0.1419
vn 0.5026 -0.8590 0.0979
vn -0.2691 0.9600 0.0768
vn -0.2478 -0.9675 -0.0504
vn -0.9006 -0.0750 0.4282
vn -0.7365 -0.3307 0.5900
vn -0.8391 0.5429 0.0335
vn -0.5488 0.8323 0.0777
vn -0.5513 -0.8343 -0.0000
vn -0.9909 0.1154 -0.0693
vn 0.7734 -0.0753 -0.6295
vn -0.5207 0.8302 -0.1992
vn 0.3110 0.8808 -0.3570
vt 0.500000 0.375000
vt 0.437500 0.437500
vt 0.437500 0.375000
vt 0.562500 0.437500
vt 0.500000 0.437500
vt 0.625000 0.375000
vt 0.562500 0.375000
vt 0.625000 0.500000
vt 0.562500 0.500000
vt 0.500000 0.500000
vt 0.437500 0.500000
vt 0.375000 0.500000
vt 0.375000 0.437500
vt 0.375000 0.375000
vt 0.437500 0.562500
vt 0.500000 0.625000
vt 0.437500 0.625000
vt 0.500000 0.562500
vt 0.562500 0.625000
vt 0.500000 0.687500
vt 0.437500 0.687500
vt 0.562500 0.687500
vt 0.375000 0.562500
vt 0.562500 0.562500
vt 0.625000 0.625000
vt 0.625000 0.687500
vt 0.625000 0.750000
vt 0.562500 0.750000
vt 0.500000 0.750000
vt 0.437500 0.750000
vt 0.375000 0.750000
vt 0.375000 0.687500
vt 0.375000 0.625000
vt 0.500000 0.875000
vt 0.468750 0.875000
vt 0.437500 0.875000
vt 0.500000 0.812500
vt 0.562500 0.875000
vt 0.437500 0.812500
vt 0.375000 0.812500
vt 0.562500 0.812500
vt 0.625000 0.812500
vt 0.375000 0.875000
vt 0.250000 0.562500
vt 0.312500 0.625000
vt 0.250000 0.625000
vt 0.312500 0.687500
vt 0.250000 0.687500
vt 0.250000 0.500000
vt 0.312500 0.562500
vt 0.312500 0.500000
vt 0.312500 0.750000
vt 0.250000 0.750000
vt 0.687500 0.562500
vt 0.750000 0.625000
vt 0.687500 0.625000
vt 0.750000 0.687500
vt 0.687500 0.687500
vt 0.625000 0.562500
vt 0.687500 0.500000
vt 0.750000 0.562500
vt 0.687500 0.750000
vt 1.000000 0.500000
vt 0.833333 1.000000
vt 0.833333 0.500000
vt 0.666667 1.000000
vt 0.666667 0.500000
vt 0.500000 1.000000
vt 0.500000 0.500000
vt 0.333333 0.500000
vt 0.042154 0.130000
vt 0.250000 0.010000
vt 0.457846 0.130000
vt 0.333333 1.000000
vt 0.166667 0.500000
vt 0.166667 1.000000
vt -0.000000 0.500000
vt 0.542154 0.130000
vt 0.542154 0.370000
vt 0.957846 0.370000
vt 1.000000 0.828637
vt 0.875000 1.000000
vt 0.875000 0.828637
vt 0.625000 0.828637
vt 0.500000 1.000000
vt 0.500000 0.828637
vt 0.625000 0.645722
vt 0.500000 0.500000
vt 0.750000 0.500000
vt 0.875000 0.645722
vt 0.875000 0.500000
vt 0.500000 0.645722
vt 0.750000 0.828637
vt 0.750000 0.645722
vt 1.000000 0.645722
vt 0.750000 1.000000
vt 1.000000 1.000000
vt 0.625000 1.000000
vt 0.749520 0.964446
vt 0.653402 0.965669
vt 0.844587 0.863513
vt 0.844268 0.965118
vt 0.647775 0.863148
vt 0.750840 0.864057
vt 0.749520 0.964446
vt 0.750840 0.864057
vt 0.647775 0.863149
vt 0.844587 0.863513
vt 0.844267 0.965117
vt 0.653402 0.965669
vt 0.749520 0.964446
vt 0.844268 0.965117
vt 0.750840 0.864057
vt 0.653402 0.965669
vt 0.844587 0.863513
vt 0.000000 0.000000
vt 0.833333 0.500000
vt -0.000000 1.000000
vt 0.500000 0.500000
vt 0.500000 0.500000
vt 0.166667 0.500000
vt -0.000000 0.500000
vt 0.833333 0.500000
vt 0.042154 0.370000
vt 0.457846 0.370000
vt 0.750000 0.010000
vt 0.333333 0.500000
vt 0.457846 0.250000
vt 0.625000 0.437500
vt 0.750000 0.500000
vt 0.957846 0.130000
vt 0.250000 0.490000
vt 0.625000 0.875000
vt 0.750000 0.750000
vt 0.250000 0.490000
vt 0.750000 0.490000
vt 0.750000 0.490000
s 0
f 26/1/1 28/2/1 25/3/1
f 26/1/2 30/4/2 29/5/2
f 7/6/3 30/4/3 27/7/3
f 30/4/4 4/8/4 9/9/4
f 29/5/5 9/9/5 10/10/5
f 28/2/6 10/10/6 11/11/6
f 28/2/7 3/12/7 5/13/7
f 25/3/8 5/13/8 6/14/8
f 31/15/9 35/16/9 34/17/9
f 32/18/10 36/19/10 35/16/10
f 34/17/11 38/20/11 37/21/11
f 35/16/12 39/22/12 38/20/12
f 3/12/13 31/15/13 14/23/13
f 11/11/14 32/18/14 31/15/14
f 10/10/15 33/24/15 32/18/15
f 4/8/16 33/24/16 9/9/16
f 33/24/17 16/25/17 36/19/17
f 36/19/18 17/26/18 39/22/18
f 39/22/19 2/27/19 18/28/19
f 38/20/20 18/28/20 19/29/20
f 37/21/21 19/29/21 20/30/21
f 37/21/22 1/31/22 12/32/22
f 13/33/23 37/21/23 12/32/23
f 14/23/24 34/17/24 13/33/24
f 44/34/25 58/35/25 43/36/25
f 41/37/26 45/38/26 44/34/26
f 1/31/27 40/39/27 22/40/27
f 20/30/28 41/37/28 40/39/28
f 19/29/29 42/41/29 41/37/29
f 2/27/30 42/41/30 18/28/30
f 23/42/31 45/38/31 42/41/31
f 22/40/32 43/36/32 21/43/32
f 46/44/33 49/45/33 48/46/33
f 48/46/34 51/47/34 50/48/34
f 6/49/35 47/50/35 46/44/35
f 5/51/36 14/23/36 47/50/36
f 47/50/37 13/33/37 49/45/37
f 49/45/38 12/32/38 51/47/38
f 51/47/39 1/31/39 22/52/39
f 51/47/40 21/53/40 50/48/40
f 52/54/41 55/55/41 54/56/41
f 54/56/42 57/57/42 56/58/42
f 4/8/43 52/54/43 15/59/43
f 8/60/44 53/61/44 52/54/44
f 57/57/45 23/62/45 56/58/45
f 56/58/46 2/27/46 17/26/46
f 16/25/47 56/58/47 17/26/47
f 15/59/48 54/56/48 16/25/48
f 59/63/49 62/64/49 61/65/49
f 61/65/50 64/66/50 63/67/50
f 63/67/51 66/68/51 65/69/51
f 66/68/52 67/70/52 65/69/52
f 68/71/53 66/72/53 64/73/53
f 68/74/54 69/75/54 67/70/54
f 70/76/55 59/77/55 69/75/55
f 67/78/56 69/79/56 61/80/56
f 86/81/57 97/82/57 99/83/57
f 100/84/58 80/85/58 90/86/58
f 84/87/59 79/88/59 77/8/59
f 75/89/60 84/87/60 77/8/60
f 82/90/61 75/89/61 73/91/61
f 71/63/62 82/90/62 73/91/62
f 100/84/63 85/92/63 84/87/63
f 101/93/64 84/87/64 83/94/64
f 99/83/65 83/94/65 82/90/65
f 81/95/66 99/83/66 82/90/66
f 97/82/67 93/96/67 96/96/67
f 72/97/68 92/82/68 97/82/68
f 98/98/69 93/96/69 94/98/69
f 80/85/70 94/98/70 95/85/70
f 76/99/71 97/82/71 96/96/71
f 78/100/72 96/96/72 98/98/72
f 87/101/73 97/82/73 74/102/73
f 78/100/74 100/84/74 89/103/74
f 89/103/75 101/93/75 88/104/75
f 87/101/76 101/93/76 99/83/76
f 150/105/77 104/100/77 103/99/77
f 151/106/78 107/103/78 152/107/78
f 154/108/79 102/102/79 105/101/79
f 150/105/80 102/102/80 153/109/80
f 151/106/81 105/101/81 106/104/81
f 152/107/82 104/100/82 149/110/82
f 155/111/83 108/102/83 156/112/83
f 158/113/84 111/101/84 112/104/84
f 160/114/85 113/103/85 110/100/85
f 155/111/86 110/100/86 109/99/86
f 158/113/87 113/103/87 159/107/87
f 156/112/88 111/101/88 157/115/88
f 110/100/89 115/99/89 109/99/89
f 112/104/90 133/103/90 113/103/90
f 108/102/91 117/101/91 111/101/91
f 108/102/92 115/99/92 114/102/92
f 111/101/93 118/104/93 112/104/93
f 110/100/94 119/103/94 116/100/94
f 114/102/95 121/99/95 120/102/95
f 117/101/96 124/104/96 118/104/96
f 119/103/97 122/100/97 116/100/97
f 115/99/98 122/100/98 121/99/98
f 119/103/99 124/104/99 125/103/99
f 117/101/100 120/102/100 123/101/100
f 124/104/101 131/103/101 125/103/101
f 123/101/102 126/102/102 129/101/102
f 121/99/103 126/102/103 120/102/103
f 124/104/104 129/101/104 130/104/104
f 125/103/105 128/100/105 122/100/105
f 121/99/106 128/100/106 127/99/106
f 132/104/107 137/103/107 133/103/107
f 118/104/108 132/104/108 112/104/108
f 119/103/109 134/104/109 118/104/109
f 119/103/110 133/103/110 135/103/110
f 139/103/111 141/103/111 143/103/111
f 135/103/112 137/103/112 139/103/112
f 135/103/113 138/104/113 134/104/113
f 134/104/114 136/104/114 132/104/114
f 141/103/115 142/104/115 143/103/115
f 139/103/116 142/104/116 138/104/116
f 138/104/117 140/104/117 136/104/117
f 136/104/118 141/103/118 137/103/118
f 94/98/119 146/96/119 147/98/119
f 91/97/120 145/82/120 92/82/120
f 94/98/121 148/85/121 95/85/121
f 92/82/122 146/96/122 93/96/122
f 128/100/123 130/104/123 127/99/123
f 127/99/124 129/101/124 126/102/124
f 89/103/125 149/110/125 78/100/125
f 88/104/126 154/108/126 151/106/126
f 74/102/127 150/105/127 153/109/127
f 87/101/128 153/109/128 154/108/128
f 88/104/129 152/107/129 89/103/129
f 78/100/130 150/105/130 76/99/130
f 102/102/131 157/115/131 105/101/131
f 106/104/132 159/107/132 107/103/132
f 103/99/133 160/114/133 155/111/133
f 104/100/134 159/107/134 160/114/134
f 106/104/135 157/115/135 158/113/135
f 103/99/136 156/112/136 102/102/136
f 162/97/137 163/65/137 161/63/137
f 163/65/138 166/66/138 165/67/138
f 165/67/139 168/68/139 167/69/139
f 168/68/140 169/70/140 167/69/140
f 170/74/141 175/68/141 176/74/141
f 368/74/142 369/75/142 416/116/142
f 170/74/143 171/75/143 169/70/143
f 190/67/144 185/65/144 191/117/144
f 177/76/145 182/74/145 183/76/145
f 164/64/146 174/66/146 166/66/146
f 164/64/147 172/97/147 173/64/147
f 166/66/148 175/68/148 168/68/148
f 182/71/149 181/72/149 180/73/149
f 174/66/150 181/68/150 175/68/150
f 173/64/151 178/97/151 179/64/151
f 177/76/152 178/118/152 172/118/152
f 175/68/153 182/74/153 176/74/153
f 173/64/154 180/66/154 174/66/154
f 188/70/155 210/75/155 209/70/155
f 192/75/156 188/70/156 193/70/156
f 191/117/157 184/63/157 194/63/157
f 190/67/158 187/69/158 186/67/158
f 192/75/159 184/77/159 189/75/159
f 193/70/160 187/69/160 195/119/160
f 221/70/161 195/119/161 219/120/161
f 218/121/162 194/122/162 192/75/162
f 217/67/163 195/119/163 190/67/163
f 222/63/164 191/117/164 194/63/164
f 218/121/165 193/70/165 221/70/165
f 220/123/166 190/67/166 191/117/166
f 183/76/167 178/118/167 200/116/167
f 182/116/168 197/116/168 196/116/168
f 181/116/169 198/116/169 197/116/169
f 196/116/170 183/124/170 182/71/170
f 199/116/171 178/116/171 200/116/171
f 199/116/172 201/116/172 179/116/172
f 198/116/173 202/116/173 203/116/173
f 179/125/174 202/73/174 180/73/174
f 206/80/175 208/126/175 210/79/175
f 187/69/176 207/67/176 186/67/176
f 185/65/177 205/63/177 184/63/177
f 189/75/178 205/77/178 210/75/178
f 187/69/179 209/70/179 208/69/179
f 186/67/180 206/65/180 185/65/180
f 163/65/181 214/67/181 211/123/181
f 171/75/182 212/127/182 169/70/182
f 161/63/183 211/123/183 213/63/183
f 165/67/184 216/69/184 214/67/184
f 161/77/185 215/121/185 171/75/185
f 169/70/186 216/69/186 167/69/186
f 211/123/187 217/67/187 220/123/187
f 215/121/188 221/70/188 212/127/188
f 213/63/189 220/123/189 222/63/189
f 214/67/190 219/120/190 217/67/190
f 215/121/191 222/77/191 218/121/191
f 212/127/192 219/120/192 216/69/192
f 204/116/193 73/116/193 201/116/193
f 203/116/194 77/116/194 79/116/194
f 201/125/195 73/125/195 75/128/195
f 145/82/196 225/96/196 146/96/196
f 146/96/197 226/98/197 147/98/197
f 145/82/198 223/97/198 224/82/198
f 147/98/199 227/85/199 148/85/199
f 248/2/200 26/1/200 25/3/200
f 26/1/201 250/4/201 27/7/201
f 250/4/202 7/6/202 27/7/202
f 250/4/203 231/8/203 233/129/203
f 249/5/204 234/9/204 250/4/204
f 248/2/205 235/10/205 249/5/205
f 230/12/206 248/2/206 232/13/206
f 232/13/207 25/3/207 6/14/207
f 251/15/208 255/16/208 252/18/208
f 252/18/209 256/19/209 253/24/209
f 254/17/210 258/20/210 255/16/210
f 255/16/211 259/22/211 256/19/211
f 230/12/212 251/15/212 236/11/212
f 236/11/213 252/18/213 235/10/213
f 235/10/214 253/24/214 234/9/214
f 253/24/215 231/8/215 234/9/215
f 253/24/216 241/25/216 240/59/216
f 256/19/217 242/26/217 241/25/217
f 259/22/218 229/27/218 242/26/218
f 258/20/219 243/28/219 259/22/219
f 257/21/220 244/29/220 258/20/220
f 228/31/221 257/21/221 237/32/221
f 238/33/222 257/21/222 254/17/222
f 239/23/223 254/17/223 251/15/223
f 261/37/224 45/38/224 262/41/224
f 228/31/225 260/39/225 245/30/225
f 245/30/226 261/37/226 244/29/226
f 244/29/227 262/41/227 243/28/227
f 262/41/228 229/27/228 243/28/228
f 45/38/229 247/42/229 262/41/229
f 246/40/230 43/36/230 260/39/230
f 46/44/231 264/45/231 263/50/231
f 48/46/232 265/47/232 264/45/232
f 6/49/233 263/50/233 232/51/233
f 232/51/234 239/23/234 230/12/234
f 263/50/235 238/33/235 239/23/235
f 264/45/236 237/32/236 238/33/236
f 265/47/237 228/31/237 237/32/237
f 21/53/238 265/47/238 50/48/238
f 266/54/239 55/55/239 53/61/239
f 267/56/240 57/57/240 55/55/240
f 231/8/241 266/54/241 233/60/241
f 233/60/242 53/61/242 7/130/242
f 247/62/243 57/57/243 268/58/243
f 229/27/244 268/58/244 242/26/244
f 241/25/245 268/58/245 267/56/245
f 240/59/246 267/56/246 266/54/246
f 269/63/247 272/64/247 270/97/247
f 271/65/248 274/66/248 272/64/248
f 273/67/249 276/68/249 274/66/249
f 277/70/250 276/68/250 275/69/250
f 278/71/251 280/124/251 274/73/251
f 279/75/252 278/74/252 277/70/252
f 269/77/253 280/76/253 279/75/253
f 271/80/254 277/78/254 273/131/254
f 86/81/255 297/82/255 72/97/255
f 300/84/256 80/85/256 298/98/256
f 79/88/257 289/87/257 285/8/257
f 283/89/258 289/87/258 288/94/258
f 283/89/259 287/90/259 281/91/259
f 71/63/260 287/90/260 81/95/260
f 85/92/261 300/84/261 289/87/261
f 289/87/262 301/93/262 288/94/262
f 288/94/263 299/83/263 287/90/263
f 81/95/264 299/83/264 86/81/264
f 294/96/265 297/82/265 296/96/265
f 293/82/266 72/97/266 297/82/266
f 298/98/267 294/96/267 296/96/267
f 80/85/268 295/98/268 298/98/268
f 284/99/269 297/82/269 282/102/269
f 286/100/270 296/96/270 284/99/270
f 297/82/271 290/101/271 282/102/271
f 300/84/272 286/100/272 292/103/272
f 301/93/273 292/103/273 291/104/273
f 290/101/274 301/93/274 291/104/274
f 348/105/275 304/100/275 347/110/275
f 307/103/276 349/106/276 350/107/276
f 352/108/277 302/102/277 351/109/277
f 302/102/278 348/105/278 351/109/278
f 349/106/279 305/101/279 352/108/279
f 304/100/280 350/107/280 347/110/280
f 308/102/281 353/111/281 354/112/281
f 356/113/282 311/101/282 355/115/282
f 358/114/283 313/103/283 357/107/283
f 353/111/284 310/100/284 358/114/284
f 313/103/285 356/113/285 357/107/285
f 311/101/286 354/112/286 355/115/286
f 315/99/287 310/100/287 309/99/287
f 333/103/288 312/104/288 313/103/288
f 317/101/289 308/102/289 311/101/289
f 308/102/290 315/99/290 309/99/290
f 318/104/291 311/101/291 312/104/291
f 310/100/292 319/103/292 313/103/292
f 314/102/293 321/99/293 315/99/293
f 324/104/294 317/101/294 318/104/294
f 322/100/295 319/103/295 316/100/295
f 315/99/296 322/100/296 316/100/296
f 319/103/297 324/104/297 318/104/297
f 317/101/298 320/102/298 314/102/298
f 331/103/299 324/104/299 325/103/299
f 323/101/300 326/102/300 320/102/300
f 326/102/301 321/99/301 320/102/301
f 324/104/302 329/101/302 323/101/302
f 328/100/303 325/103/303 322/100/303
f 321/99/304 328/100/304 322/100/304
f 337/103/305 332/104/305 333/103/305
f 332/104/306 318/104/306 312/104/306
f 334/104/307 319/103/307 318/104/307
f 319/103/308 333/103/308 313/103/308
f 339/103/309 341/103/309 337/103/309
f 335/103/310 337/103/310 333/103/310
f 338/104/311 335/103/311 334/104/311
f 336/104/312 334/104/312 332/104/312
f 341/103/313 342/104/313 340/104/313
f 342/104/314 339/103/314 338/104/314
f 340/104/315 338/104/315 336/104/315
f 341/103/316 336/104/316 337/103/316
f 295/98/317 345/96/317 294/96/317
f 344/82/318 91/97/318 293/82/318
f 148/85/319 295/98/319 95/85/319
f 345/96/320 293/82/320 294/96/320
f 328/100/321 330/104/321 331/103/321
f 327/99/322 329/101/322 330/104/322
f 347/110/323 292/103/323 286/100/323
f 291/104/324 352/108/324 290/101/324
f 282/102/325 348/105/325 284/99/325
f 290/101/326 351/109/326 282/102/326
f 350/107/327 291/104/327 292/103/327
f 348/105/328 286/100/328 284/99/328
f 355/115/329 302/102/329 305/101/329
f 357/107/330 306/104/330 307/103/330
f 303/99/331 358/114/331 304/100/331
f 304/100/332 357/107/332 307/103/332
f 306/104/333 355/115/333 305/101/333
f 354/112/334 303/99/334 302/102/334
f 361/65/335 360/97/335 359/63/335
f 361/65/336 364/66/336 362/64/336
f 363/67/337 366/68/337 364/66/337
f 367/70/338 366/68/338 365/69/338
f 368/74/339 373/68/339 366/68/339
f 416/116/340 359/63/340 360/97/340
f 162/97/341 171/75/341 415/116/341
f 381/65/342 386/67/342 387/117/342
f 177/76/343 379/74/343 374/74/343
f 372/66/344 362/64/344 364/66/344
f 362/64/345 370/97/345 360/97/345
f 373/68/346 364/66/346 366/68/346
f 379/71/347 183/124/347 375/132/347
f 378/68/348 372/66/348 373/68/348
f 371/64/349 375/97/349 370/97/349
f 375/118/350 177/76/350 370/118/350
f 379/74/351 373/68/351 374/74/351
f 377/66/352 371/64/352 372/66/352
f 384/70/353 399/75/353 385/75/353
f 384/70/354 388/75/354 389/70/354
f 380/63/355 387/117/355 390/63/355
f 386/67/356 383/69/356 391/119/356
f 388/75/357 380/77/357 390/122/357
f 383/69/358 389/70/358 391/119/358
f 391/119/359 410/70/359 408/120/359
f 407/121/360 390/122/360 411/77/360
f 406/67/361 391/119/361 408/120/361
f 411/63/362 387/117/362 409/123/362
f 389/70/363 407/121/363 410/70/363
f 409/123/364 386/67/364 406/67/364
f 183/76/365 200/116/365 375/118/365
f 197/116/366 379/116/366 196/116/366
f 198/116/367 378/116/367 197/116/367
f 196/116/368 379/71/368 183/124/368
f 199/116/369 375/116/369 376/116/369
f 392/116/370 199/116/370 376/116/370
f 198/116/371 393/116/371 377/116/371
f 393/73/372 376/125/372 377/73/372
f 399/79/373 397/126/373 395/80/373
f 396/67/374 383/69/374 382/67/374
f 394/63/375 381/65/375 380/63/375
f 385/75/376 394/77/376 380/77/376
f 383/69/377 398/70/377 384/70/377
f 395/65/378 382/67/378 381/65/378
f 361/65/379 403/67/379 363/67/379
f 401/127/380 369/75/380 367/70/380
f 359/63/381 400/123/381 361/65/381
f 363/67/382 405/69/382 365/69/382
f 404/121/383 359/77/383 369/75/383
f 405/69/384 367/70/384 365/69/384
f 400/123/385 406/67/385 403/67/385
f 410/70/386 404/121/386 401/127/386
f 402/63/387 409/123/387 400/123/387
f 403/67/388 408/120/388 405/69/388
f 404/121/389 411/77/389 402/77/389
f 408/120/390 401/127/390 405/69/390
f 281/116/391 204/116/391 392/116/391
f 203/116/392 285/116/392 393/116/392
f 283/128/393 281/125/393 392/125/393
f 413/96/394 344/82/394 345/96/394
f 414/98/395 345/96/395 346/98/395
f 344/82/396 223/97/396 144/97/396
f 227/85/397 346/98/397 148/85/397
f 415/116/398 176/74/398 177/76/398
f 416/116/399 374/74/399 368/74/399
f 172/118/400 415/116/400 177/76/400
f 416/116/401 370/118/401 177/76/401
f 26/1/402 29/5/402 28/2/402
f 26/1/403 27/7/403 30/4/403
f 7/6/404 8/129/404 30/4/404
f 30/4/405 8/129/405 4/8/405
f 29/5/406 30/4/406 9/9/406
f 28/2/407 29/5/407 10/10/407
f 28/2/408 11/11/408 3/12/408
f 25/3/409 28/2/409 5/13/409
f 31/15/410 32/18/410 35/16/410
f 32/18/411 33/24/411 36/19/411
f 34/17/412 35/16/412 38/20/412
f 35/16/413 36/19/413 39/22/413
f 3/12/414 11/11/414 31/15/414
f 11/11/415 10/10/415 32/18/415
f 10/10/416 9/9/416 33/24/416
f 4/8/417 15/59/417 33/24/417
f 33/24/418 15/59/418 16/25/418
f 36/19/419 16/25/419 17/26/419
f 39/22/420 17/26/420 2/27/420
f 38/20/421 39/22/421 18/28/421
f 37/21/422 38/20/422 19/29/422
f 37/21/423 20/30/423 1/31/423
f 13/33/424 34/17/424 37/21/424
f 14/23/425 31/15/425 34/17/425
f 43/36/426 40/39/426 44/34/426
f 40/39/427 41/37/427 44/34/427
f 41/37/428 42/41/428 45/38/428
f 1/31/429 20/30/429 40/39/429
f 20/30/430 19/29/430 41/37/430
f 19/29/431 18/28/431 42/41/431
f 2/27/432 23/42/432 42/41/432
f 23/42/433 24/133/433 45/38/433
f 22/40/434 40/39/434 43/36/434
f 46/44/435 47/50/435 49/45/435
f 48/46/436 49/45/436 51/47/436
f 6/49/437 5/51/437 47/50/437
f 5/51/438 3/12/438 14/23/438
f 47/50/439 14/23/439 13/33/439
f 49/45/440 13/33/440 12/32/440
f 51/47/441 12/32/441 1/31/441
f 51/47/442 22/52/442 21/53/442
f 52/54/443 53/61/443 55/55/443
f 54/56/444 55/55/444 57/57/444
f 4/8/445 8/60/445 52/54/445
f 8/60/446 7/130/446 53/61/446
f 57/57/447 24/134/447 23/62/447
f 56/58/448 23/62/448 2/27/448
f 16/25/449 54/56/449 56/58/449
f 15/59/450 52/54/450 54/56/450
f 59/63/49 60/97/49 62/64/49
f 61/65/50 62/64/50 64/66/50
f 63/67/51 64/66/51 66/68/51
f 66/68/451 68/74/451 67/70/451
f 64/73/53 62/125/53 68/71/53
f 62/125/53 60/135/53 70/124/53
f 68/71/53 62/125/53 70/124/53
f 68/74/54 70/76/54 69/75/54
f 70/76/55 60/118/55 59/77/55
f 69/79/56 59/136/56 61/80/56
f 61/80/56 63/131/56 67/78/56
f 63/131/56 65/126/56 67/78/56
f 86/81/452 72/97/452 97/82/452
f 100/84/453 98/98/453 80/85/453
f 84/87/454 85/92/454 79/88/454
f 75/89/455 83/94/455 84/87/455
f 82/90/456 83/94/456 75/89/456
f 71/63/457 81/95/457 82/90/457
f 100/84/458 90/86/458 85/92/458
f 101/93/459 100/84/459 84/87/459
f 99/83/460 101/93/460 83/94/460
f 81/95/461 86/81/461 99/83/461
f 97/82/462 92/82/462 93/96/462
f 72/97/463 91/97/463 92/82/463
f 98/98/464 96/96/464 93/96/464
f 80/85/465 98/98/465 94/98/465
f 76/99/466 74/102/466 97/82/466
f 78/100/467 76/99/467 96/96/467
f 87/101/468 99/83/468 97/82/468
f 78/100/469 98/98/469 100/84/469
f 89/103/470 100/84/470 101/93/470
f 87/101/471 88/104/471 101/93/471
f 150/105/472 149/110/472 104/100/472
f 151/106/473 106/104/473 107/103/473
f 154/108/474 153/109/474 102/102/474
f 150/105/475 103/99/475 102/102/475
f 151/106/476 154/108/476 105/101/476
f 152/107/477 107/103/477 104/100/477
f 155/111/478 109/99/478 108/102/478
f 158/113/479 157/115/479 111/101/479
f 160/114/480 159/107/480 113/103/480
f 155/111/481 160/114/481 110/100/481
f 158/113/482 112/104/482 113/103/482
f 156/112/483 108/102/483 111/101/483
f 110/100/484 116/100/484 115/99/484
f 112/104/485 132/104/485 133/103/485
f 108/102/486 114/102/486 117/101/486
f 108/102/487 109/99/487 115/99/487
f 111/101/488 117/101/488 118/104/488
f 110/100/489 113/103/489 119/103/489
f 114/102/490 115/99/490 121/99/490
f 117/101/96 123/101/96 124/104/96
f 119/103/491 125/103/491 122/100/491
f 115/99/492 116/100/492 122/100/492
f 119/103/99 118/104/99 124/104/99
f 117/101/493 114/102/493 120/102/493
f 124/104/494 130/104/494 131/103/494
f 123/101/495 120/102/495 126/102/495
f 121/99/496 127/99/496 126/102/496
f 124/104/497 123/101/497 129/101/497
f 125/103/498 131/103/498 128/100/498
f 121/99/499 122/100/499 128/100/499
f 132/104/107 136/104/107 137/103/107
f 118/104/500 134/104/500 132/104/500
f 119/103/501 135/103/501 134/104/501
f 119/103/502 113/103/502 133/103/502
f 139/103/503 137/103/503 141/103/503
f 135/103/112 133/103/112 137/103/112
f 135/103/113 139/103/113 138/104/113
f 134/104/114 138/104/114 136/104/114
f 141/103/504 140/104/504 142/104/504
f 139/103/505 143/103/505 142/104/505
f 138/104/506 142/104/506 140/104/506
f 136/104/507 140/104/507 141/103/507
f 94/98/508 93/96/508 146/96/508
f 91/97/509 144/97/509 145/82/509
f 94/98/510 147/98/510 148/85/510
f 92/82/511 145/82/511 146/96/511
f 128/100/512 131/103/512 130/104/512
f 127/99/513 130/104/513 129/101/513
f 89/103/514 152/107/514 149/110/514
f 88/104/515 87/101/515 154/108/515
f 74/102/516 76/99/516 150/105/516
f 87/101/517 74/102/517 153/109/517
f 88/104/518 151/106/518 152/107/518
f 78/100/519 149/110/519 150/105/519
f 102/102/520 156/112/520 157/115/520
f 106/104/521 158/113/521 159/107/521
f 103/99/522 104/100/522 160/114/522
f 104/100/523 107/103/523 159/107/523
f 106/104/524 105/101/524 157/115/524
f 103/99/525 155/111/525 156/112/525
f 162/97/526 164/64/526 163/65/526
f 163/65/527 164/64/527 166/66/527
f 165/67/528 166/66/528 168/68/528
f 168/68/529 170/74/529 169/70/529
f 170/74/530 168/68/530 175/68/530
f 368/74/531 367/70/531 369/75/531
f 170/74/532 415/116/532 171/75/532
f 190/67/533 186/67/533 185/65/533
f 177/76/534 176/74/534 182/74/534
f 164/64/535 173/64/535 174/66/535
f 164/64/536 162/97/536 172/97/536
f 166/66/537 174/66/537 175/68/537
f 180/73/538 179/125/538 182/71/538
f 179/125/539 178/132/539 182/71/539
f 178/132/540 183/124/540 182/71/540
f 174/66/541 180/66/541 181/68/541
f 173/64/542 172/97/542 178/97/542
f 177/76/543 183/76/543 178/118/543
f 175/68/544 181/68/544 182/74/544
f 173/64/545 179/64/545 180/66/545
f 188/70/546 189/75/546 210/75/546
f 192/75/547 189/75/547 188/70/547
f 191/117/548 185/65/548 184/63/548
f 190/67/549 195/119/549 187/69/549
f 192/75/550 194/122/550 184/77/550
f 193/70/551 188/70/551 187/69/551
f 221/70/552 193/70/552 195/119/552
f 218/121/553 222/77/553 194/122/553
f 217/67/554 219/120/554 195/119/554
f 222/63/555 220/123/555 191/117/555
f 218/121/556 192/75/556 193/70/556
f 220/123/557 217/67/557 190/67/557
f 182/116/558 181/116/558 197/116/558
f 181/116/559 180/116/559 198/116/559
f 199/116/560 179/116/560 178/116/560
f 199/116/561 204/116/561 201/116/561
f 198/116/562 180/116/562 202/116/562
f 179/125/563 201/125/563 202/73/563
f 210/79/564 205/137/564 206/80/564
f 206/80/565 207/131/565 208/126/565
f 208/126/566 209/78/566 210/79/566
f 187/69/567 208/69/567 207/67/567
f 185/65/568 206/65/568 205/63/568
f 189/75/569 184/77/569 205/77/569
f 187/69/570 188/70/570 209/70/570
f 186/67/571 207/67/571 206/65/571
f 163/65/572 165/67/572 214/67/572
f 171/75/573 215/121/573 212/127/573
f 161/63/574 163/65/574 211/123/574
f 165/67/575 167/69/575 216/69/575
f 161/77/576 213/77/576 215/121/576
f 169/70/577 212/127/577 216/69/577
f 211/123/578 214/67/578 217/67/578
f 215/121/579 218/121/579 221/70/579
f 213/63/580 211/123/580 220/123/580
f 214/67/581 216/69/581 219/120/581
f 215/121/582 213/77/582 222/77/582
f 212/127/583 221/70/583 219/120/583
f 204/116/584 71/116/584 73/116/584
f 203/116/585 202/116/585 77/116/585
f 77/73/586 202/73/586 75/128/586
f 202/73/587 201/125/587 75/128/587
f 145/82/588 224/82/588 225/96/588
f 146/96/197 225/96/197 226/98/197
f 145/82/589 144/97/589 223/97/589
f 147/98/590 226/98/590 227/85/590
f 248/2/591 249/5/591 26/1/591
f 26/1/592 249/5/592 250/4/592
f 250/4/593 233/129/593 7/6/593
f 250/4/594 234/9/594 231/8/594
f 249/5/595 235/10/595 234/9/595
f 248/2/596 236/11/596 235/10/596
f 230/12/597 236/11/597 248/2/597
f 232/13/598 248/2/598 25/3/598
f 251/15/599 254/17/599 255/16/599
f 252/18/600 255/16/600 256/19/600
f 254/17/601 257/21/601 258/20/601
f 255/16/602 258/20/602 259/22/602
f 230/12/603 239/23/603 251/15/603
f 236/11/604 251/15/604 252/18/604
f 235/10/605 252/18/605 253/24/605
f 253/24/606 240/59/606 231/8/606
f 253/24/607 256/19/607 241/25/607
f 256/19/608 259/22/608 242/26/608
f 259/22/609 243/28/609 229/27/609
f 258/20/610 244/29/610 243/28/610
f 257/21/611 245/30/611 244/29/611
f 228/31/612 245/30/612 257/21/612
f 238/33/613 237/32/613 257/21/613
f 239/23/614 238/33/614 254/17/614
f 261/37/615 260/39/615 44/34/615
f 260/39/616 43/36/616 44/34/616
f 261/37/617 44/34/617 45/38/617
f 228/31/618 246/40/618 260/39/618
f 245/30/619 260/39/619 261/37/619
f 244/29/620 261/37/620 262/41/620
f 262/41/621 247/42/621 229/27/621
f 45/38/622 24/133/622 247/42/622
f 246/40/623 21/43/623 43/36/623
f 46/44/624 48/46/624 264/45/624
f 48/46/625 50/48/625 265/47/625
f 6/49/626 46/44/626 263/50/626
f 232/51/627 263/50/627 239/23/627
f 263/50/628 264/45/628 238/33/628
f 264/45/629 265/47/629 237/32/629
f 265/47/630 246/52/630 228/31/630
f 21/53/631 246/52/631 265/47/631
f 266/54/632 267/56/632 55/55/632
f 267/56/633 268/58/633 57/57/633
f 231/8/634 240/59/634 266/54/634
f 233/60/635 266/54/635 53/61/635
f 247/62/636 24/134/636 57/57/636
f 229/27/637 247/62/637 268/58/637
f 241/25/638 242/26/638 268/58/638
f 240/59/639 241/25/639 267/56/639
f 269/63/247 271/65/247 272/64/247
f 271/65/248 273/67/248 274/66/248
f 273/67/249 275/69/249 276/68/249
f 277/70/640 278/74/640 276/68/640
f 270/135/251 272/125/251 280/124/251
f 272/125/251 274/73/251 280/124/251
f 274/73/251 276/72/251 278/71/251
f 279/75/252 280/76/252 278/74/252
f 269/77/253 270/118/253 280/76/253
f 271/80/254 269/136/254 279/79/254
f 279/79/254 277/78/254 271/80/254
f 277/78/254 275/126/254 273/131/254
f 86/81/641 299/83/641 297/82/641
f 300/84/642 90/86/642 80/85/642
f 79/88/643 85/92/643 289/87/643
f 283/89/644 285/8/644 289/87/644
f 283/89/645 288/94/645 287/90/645
f 71/63/646 281/91/646 287/90/646
f 85/92/647 90/86/647 300/84/647
f 289/87/648 300/84/648 301/93/648
f 288/94/649 301/93/649 299/83/649
f 81/95/650 287/90/650 299/83/650
f 294/96/651 293/82/651 297/82/651
f 293/82/652 91/97/652 72/97/652
f 298/98/653 295/98/653 294/96/653
f 80/85/654 95/85/654 295/98/654
f 284/99/655 296/96/655 297/82/655
f 286/100/656 298/98/656 296/96/656
f 297/82/657 299/83/657 290/101/657
f 300/84/658 298/98/658 286/100/658
f 301/93/659 300/84/659 292/103/659
f 290/101/660 299/83/660 301/93/660
f 348/105/661 303/99/661 304/100/661
f 307/103/662 306/104/662 349/106/662
f 352/108/663 305/101/663 302/102/663
f 302/102/664 303/99/664 348/105/664
f 349/106/665 306/104/665 305/101/665
f 304/100/666 307/103/666 350/107/666
f 308/102/667 309/99/667 353/111/667
f 356/113/668 312/104/668 311/101/668
f 358/114/669 310/100/669 313/103/669
f 353/111/670 309/99/670 310/100/670
f 313/103/671 312/104/671 356/113/671
f 311/101/672 308/102/672 354/112/672
f 315/99/673 316/100/673 310/100/673
f 333/103/674 332/104/674 312/104/674
f 317/101/675 314/102/675 308/102/675
f 308/102/676 314/102/676 315/99/676
f 318/104/677 317/101/677 311/101/677
f 310/100/678 316/100/678 319/103/678
f 314/102/679 320/102/679 321/99/679
f 324/104/294 323/101/294 317/101/294
f 322/100/680 325/103/680 319/103/680
f 315/99/681 321/99/681 322/100/681
f 319/103/297 325/103/297 324/104/297
f 317/101/682 323/101/682 320/102/682
f 331/103/683 330/104/683 324/104/683
f 323/101/684 329/101/684 326/102/684
f 326/102/685 327/99/685 321/99/685
f 324/104/686 330/104/686 329/101/686
f 328/100/687 331/103/687 325/103/687
f 321/99/688 327/99/688 328/100/688
f 337/103/305 336/104/305 332/104/305
f 332/104/689 334/104/689 318/104/689
f 334/104/690 335/103/690 319/103/690
f 319/103/691 335/103/691 333/103/691
f 339/103/692 343/103/692 341/103/692
f 335/103/310 339/103/310 337/103/310
f 338/104/311 339/103/311 335/103/311
f 336/104/312 338/104/312 334/104/312
f 341/103/693 343/103/693 342/104/693
f 342/104/694 343/103/694 339/103/694
f 340/104/695 342/104/695 338/104/695
f 341/103/696 340/104/696 336/104/696
f 295/98/697 346/98/697 345/96/697
f 344/82/698 144/97/698 91/97/698
f 148/85/699 346/98/699 295/98/699
f 345/96/700 344/82/700 293/82/700
f 328/100/701 327/99/701 330/104/701
f 327/99/702 326/102/702 329/101/702
f 347/110/703 350/107/703 292/103/703
f 291/104/704 349/106/704 352/108/704
f 282/102/705 351/109/705 348/105/705
f 290/101/706 352/108/706 351/109/706
f 350/107/707 349/106/707 291/104/707
f 348/105/708 347/110/708 286/100/708
f 355/115/709 354/112/709 302/102/709
f 357/107/710 356/113/710 306/104/710
f 303/99/711 353/111/711 358/114/711
f 304/100/712 358/114/712 357/107/712
f 306/104/713 356/113/713 355/115/713
f 354/112/714 353/111/714 303/99/714
f 361/65/715 362/64/715 360/97/715
f 361/65/716 363/67/716 364/66/716
f 363/67/717 365/69/717 366/68/717
f 367/70/718 368/74/718 366/68/718
f 368/74/719 374/74/719 373/68/719
f 416/116/720 369/75/720 359/63/720
f 162/97/721 161/63/721 171/75/721
f 381/65/722 382/67/722 386/67/722
f 177/76/723 183/76/723 379/74/723
f 372/66/724 371/64/724 362/64/724
f 362/64/725 371/64/725 370/97/725
f 373/68/726 372/66/726 364/66/726
f 375/132/727 376/125/727 379/71/727
f 376/125/728 377/73/728 379/71/728
f 377/73/729 378/72/729 379/71/729
f 378/68/730 377/66/730 372/66/730
f 371/64/731 376/64/731 375/97/731
f 375/118/732 183/76/732 177/76/732
f 379/74/733 378/68/733 373/68/733
f 377/66/734 376/64/734 371/64/734
f 384/70/735 398/70/735 399/75/735
f 384/70/736 385/75/736 388/75/736
f 380/63/737 381/65/737 387/117/737
f 386/67/738 382/67/738 383/69/738
f 388/75/739 385/75/739 380/77/739
f 383/69/740 384/70/740 389/70/740
f 391/119/741 389/70/741 410/70/741
f 407/121/742 388/75/742 390/122/742
f 406/67/743 386/67/743 391/119/743
f 411/63/744 390/63/744 387/117/744
f 389/70/745 388/75/745 407/121/745
f 409/123/746 387/117/746 386/67/746
f 197/116/747 378/116/747 379/116/747
f 198/116/748 377/116/748 378/116/748
f 199/116/749 200/116/749 375/116/749
f 392/116/750 204/116/750 199/116/750
f 198/116/751 203/116/751 393/116/751
f 393/73/752 392/125/752 376/125/752
f 395/80/753 394/137/753 399/79/753
f 399/79/373 398/78/373 397/126/373
f 397/126/373 396/131/373 395/80/373
f 396/67/754 397/69/754 383/69/754
f 394/63/755 395/65/755 381/65/755
f 385/75/756 399/75/756 394/77/756
f 383/69/757 397/69/757 398/70/757
f 395/65/758 396/67/758 382/67/758
f 361/65/759 400/123/759 403/67/759
f 401/127/760 404/121/760 369/75/760
f 359/63/761 402/63/761 400/123/761
f 363/67/762 403/67/762 405/69/762
f 404/121/763 402/77/763 359/77/763
f 405/69/764 401/127/764 367/70/764
f 400/123/765 409/123/765 406/67/765
f 410/70/766 407/121/766 404/121/766
f 402/63/767 411/63/767 409/123/767
f 403/67/768 406/67/768 408/120/768
f 404/121/769 407/121/769 411/77/769
f 408/120/770 410/70/770 401/127/770
f 281/116/771 71/116/771 204/116/771
f 203/116/772 79/116/772 285/116/772
f 392/125/773 393/73/773 283/128/773
f 393/73/774 285/73/774 283/128/774
f 413/96/775 412/82/775 344/82/775
f 414/98/395 413/96/395 345/96/395
f 344/82/776 412/82/776 223/97/776
f 227/85/777 414/98/777 346/98/777
f 415/116/778 170/74/778 176/74/778
f 416/116/779 177/76/779 374/74/779
f 172/118/780 162/97/780 415/116/780
f 416/116/781 360/97/781 370/118/781
