# Blender 5.0.0
# www.blender.org
o body
v 0.496492 -0.836496 10.142933
v 0.583336 -0.739346 11.413871
v 0.476577 0.278155 10.210191
v 0.565221 0.486406 11.449583
v 0.246627 0.341088 10.114302
v -0.000000 0.369678 10.059621
v -0.000000 0.658669 11.583228
v 0.340386 0.599495 11.538713
v 0.631619 0.554539 11.208250
v 0.646511 0.545035 10.849359
v 0.576865 0.424383 10.477579
v 0.562963 -0.631520 10.056836
v 0.591550 -0.317049 10.028133
v 0.550611 0.022595 10.099230
v 0.654626 0.225672 11.528917
v 0.703310 -0.145583 11.561812
v 0.665741 -0.502555 11.507968
v 0.654036 -0.830154 11.160968
v 0.671875 -0.892060 10.788291
v 0.600616 -0.885222 10.408796
v -0.000000 -0.970373 9.977038
v 0.267098 -0.925011 10.036098
v 0.358752 -0.817453 11.501675
v -0.000000 -0.856363 11.546863
v -0.000000 0.674132 10.430860
v -0.000000 0.858995 10.849555
v -0.000000 0.860968 11.255249
v 0.290903 0.614872 10.456812
v 0.337850 0.778810 10.852832
v 0.344425 0.778265 11.235573
v 0.749642 0.108478 10.437263
v 0.841644 0.194318 10.834685
v 0.811618 0.221480 11.220381
v 0.812126 -0.260919 10.394108
v 0.912852 -0.205322 10.814899
v 0.878665 -0.167071 11.226119
v 0.764291 -0.610047 10.396790
v 0.857600 -0.587271 10.798615
v 0.825386 -0.539852 11.192748
v 0.317045 -1.052687 10.372738
v 0.365526 -1.074153 10.657000
v 0.369003 -0.996871 11.180425
v -0.000000 -1.112858 10.394918
v -0.000000 -1.133464 10.652071
v -0.000000 -1.050112 11.200023
v -0.000000 0.004889 9.793444
v 0.255090 0.002209 9.878942
v -0.000000 -0.369841 9.678031
v 0.272938 -0.355472 9.777180
v -0.000000 -0.709899 9.743926
v 0.266506 -0.681006 9.831612
v 0.373244 0.271111 11.715525
v -0.000000 0.302962 11.779381
v 0.399412 -0.129139 11.768149
v -0.000000 -0.120306 11.837879
v 0.383312 -0.515705 11.696490
v -0.000000 -0.530811 11.761058
v -0.000000 -1.256591 10.463180
v 0.899103 0.129189 10.824030
v 0.964296 0.059744 10.845116
v 0.972883 0.157159 10.641671
v 1.038076 0.087714 10.662757
v 0.910948 0.053346 10.398530
v 0.976141 -0.016099 10.419616
v 0.775233 -0.078438 10.337745
v 0.840426 -0.147883 10.358830
v 0.701452 -0.106409 10.520103
v 0.766645 -0.175854 10.541189
v 0.763387 -0.002596 10.763246
v 0.828580 -0.072040 10.784331
v 0.000000 0.608116 7.206692
v -0.000043 0.616294 9.355234
v 0.504716 0.474076 7.021074
v 0.828769 0.224653 8.941081
v 0.598099 0.170519 6.978772
v 0.958550 0.100070 9.268912
v 0.495931 -0.139998 6.928656
v 0.866571 -0.235321 9.254966
v -0.000000 -0.261991 7.067786
v 0.000048 -0.519505 9.043288
v -0.000000 0.657830 7.839750
v 0.570514 0.460918 7.846635
v 0.767027 0.043620 7.859570
v 0.571958 -0.298014 7.866705
v -0.000000 -0.421472 7.839750
v 0.000165 0.706360 8.926093
v 0.703998 0.204787 8.508642
v 0.718621 -0.104659 8.449650
v 0.697142 -0.381988 8.662214
v 0.000468 -0.492415 8.713224
v -0.000000 0.515979 9.526027
v 0.439968 0.409191 9.474610
v 0.633965 0.101607 9.476820
v 0.435086 -0.201820 9.487581
v -0.000000 -0.334730 9.318410
v 0.958122 0.105638 9.278832
v 0.710340 0.389305 9.133857
v 0.738325 -0.255365 9.384375
v 0.614438 0.395104 8.405121
v 0.622055 -0.383228 8.684797
v 0.716581 -0.085291 8.433921
v 1.568760 -0.290718 7.349604
v 1.659773 -0.437353 7.413022
v 1.563808 -0.638161 7.503087
v 1.164802 -0.345397 7.201623
v 1.097480 -0.512791 7.204195
v 1.161252 -0.695284 7.349064
v 1.945380 -1.024403 6.083548
v 2.010683 -1.150121 6.154021
v 1.943107 -1.281128 6.246580
v 1.639364 -1.063934 6.017461
v 1.585720 -1.206064 6.053783
v 1.637641 -1.322465 6.177410
v 1.971490 -1.006376 5.979345
v 2.060394 -1.147820 6.136287
v 1.988696 -1.399366 6.249526
v 1.817485 -1.091125 5.853032
v 1.787624 -1.257685 5.943092
v 1.815881 -1.529807 6.117994
v 2.245267 -1.164667 5.582868
v 2.301686 -1.395085 5.716317
v 2.243173 -1.664551 5.887475
v 2.084614 -1.315714 5.471651
v 2.054752 -1.482274 5.561710
v 2.083008 -1.754396 5.736612
v 2.185003 -1.534736 5.127252
v 2.196062 -1.709536 5.187607
v 2.184745 -1.881260 5.338974
v 2.094553 -1.566752 5.217555
v 2.068177 -1.668588 5.253655
v 2.093617 -1.852236 5.389363
v 1.576297 -1.357477 5.894855
v 1.607678 -1.451639 6.009960
v 1.771231 -1.375254 5.845037
v 1.791417 -1.604958 6.000220
v 1.628982 -1.510112 5.737354
v 1.654695 -1.587269 5.831671
v 1.788710 -1.524679 5.696534
v 1.805250 -1.712898 5.823690
v 1.704674 -1.670644 5.572117
v 1.715453 -1.723882 5.642344
v 1.822484 -1.667084 5.566727
v 1.831578 -1.799990 5.659539
v -0.000000 0.404502 9.656569
v 0.158780 0.287954 9.628173
v 0.252719 0.101461 9.564652
v 0.182110 -0.006843 9.564652
v -0.000000 -0.116119 9.526625
v 1.513446 -0.622890 7.612144
v 1.609387 -0.404819 7.548644
v 1.078778 -0.489939 7.261003
v 1.131947 -0.686105 7.408289
v 1.519971 -0.251747 7.481773
v 1.136195 -0.314335 7.281447
v 1.698887 -0.479297 7.298517
v 1.610400 -0.339692 7.225985
v 1.199704 -0.394928 7.119802
v 1.127339 -0.556422 7.145483
v 1.197605 -0.717780 7.305540
v 1.606378 -0.662938 7.412832
v 0.508210 1.436430 4.564968
v 0.519509 0.966103 5.863297
v 0.863355 1.242980 4.460791
v 1.026829 0.722718 5.978638
v 0.863355 0.991243 4.348068
v 1.028275 0.306157 5.695666
v 0.508191 0.804329 4.265736
v 0.513592 0.126561 5.479985
v 0.152952 0.996377 4.363986
v 0.144936 0.263544 5.676606
v 0.153066 1.240887 4.488179
v 0.512164 0.929251 6.122572
v 1.018174 0.617222 6.139410
v 1.020134 0.196386 5.866858
v 0.515757 0.051200 5.589626
v 0.136937 0.179883 5.774556
v 0.000000 0.738410 5.919929
v 0.418974 0.884148 6.253186
v 0.879472 0.473767 6.487525
v 0.876436 -0.035222 6.312487
v 0.449171 -0.141140 5.920877
v 0.134332 0.085646 5.912464
v 0.000000 0.807710 6.043460
v 0.430883 2.669397 2.536140
v 0.691277 2.544238 2.452852
v 0.691277 2.293920 2.286275
v 0.430883 2.168722 2.202927
v 0.170489 2.293661 2.285926
v 0.170489 2.544238 2.452852
v 0.822906 1.383910 3.813257
v 0.822906 1.596014 3.939813
v 0.152560 1.558911 3.919754
v 0.152560 1.346705 3.793175
v 0.487733 1.769011 4.079119
v 0.487733 1.002626 3.994069
v -0.000000 -0.002870 6.034269
v -0.000000 -0.192676 6.131546
v -0.000000 -0.265253 6.383385
v 0.000000 0.809590 6.613424
v 0.000000 0.831363 6.297941
v 0.713104 0.432736 6.784008
v 0.709689 -0.105907 6.663218
v -0.000000 -0.234387 6.729087
v 0.000000 0.628045 6.957688
v 0.430883 3.380372 1.064818
v 0.625711 3.310804 0.976615
v 0.625711 3.167229 0.781647
v 0.430883 3.099443 0.691948
v 0.236055 3.162987 0.792206
v 0.236055 3.310543 0.975714
v 0.856043 1.301751 4.365235
v 0.152881 1.056147 4.257930
v 0.504509 1.497763 4.480397
v 0.856043 1.059372 4.249101
v 0.152975 1.302521 4.383550
v 0.504493 0.839128 4.215714
v 0.847217 1.143241 4.130301
v 0.152864 1.368581 4.259574
v 0.500029 0.881679 4.155416
v 0.847217 1.377905 4.251549
v 0.152796 1.131744 4.132632
v 0.500040 1.542700 4.360732
v -0.000000 0.330200 10.297470
v 0.182652 0.209765 10.297470
v 0.252719 0.101461 10.297470
v 0.182110 -0.006843 10.297470
v -0.000000 -0.127185 10.242396
v -0.496493 -0.836496 10.142933
v -0.583336 -0.739346 11.413871
v -0.476577 0.278155 10.210191
v -0.565221 0.486406 11.449583
v -0.246627 0.341088 10.114302
v -0.340386 0.599495 11.538713
v -0.631619 0.554539 11.208250
v -0.646511 0.545035 10.849359
v -0.576865 0.424383 10.477579
v -0.562963 -0.631520 10.056836
v -0.591550 -0.317049 10.028133
v -0.550611 0.022595 10.099230
v -0.654626 0.225672 11.528917
v -0.703310 -0.145583 11.561812
v -0.665741 -0.502555 11.507968
v -0.654036 -0.830154 11.160968
v -0.671875 -0.892060 10.788291
v -0.600616 -0.885222 10.408796
v -0.267098 -0.925011 10.036098
v -0.358752 -0.817453 11.501675
v -0.290903 0.614872 10.456812
v -0.337850 0.778810 10.852832
v -0.344425 0.778265 11.235573
v -0.749642 0.108478 10.437263
v -0.841644 0.194318 10.834685
v -0.811618 0.221480 11.220381
v -0.812126 -0.260919 10.394108
v -0.912852 -0.205322 10.814899
v -0.878665 -0.167071 11.226119
v -0.764291 -0.610047 10.396790
v -0.857600 -0.587271 10.798615
v -0.825386 -0.539852 11.192748
v -0.317045 -1.052687 10.372738
v -0.365526 -1.074153 10.657000
v -0.369003 -0.996871 11.180425
v -0.255090 0.002209 9.878942
v -0.272938 -0.355472 9.777180
v -0.266506 -0.681006 9.831612
v -0.373244 0.271111 11.715525
v -0.399412 -0.129139 11.768149
v -0.383312 -0.515705 11.696490
v -0.899103 0.129189 10.824030
v -0.964296 0.059744 10.845116
v -0.972883 0.157159 10.641671
v -1.038076 0.087714 10.662757
v -0.910948 0.053346 10.398530
v -0.976141 -0.016099 10.419616
v -0.775233 -0.078438 10.337745
v -0.840426 -0.147883 10.358830
v -0.701452 -0.106409 10.520103
v -0.766645 -0.175854 10.541189
v -0.763387 -0.002596 10.763246
v -0.828580 -0.072040 10.784331
v -0.504526 0.476275 7.086872
v -0.823006 0.449013 9.069558
v -0.598793 0.169840 7.044169
v -0.956874 0.146759 9.240575
v -0.495657 -0.119585 7.005420
v -0.863414 -0.116781 9.034736
v -0.568038 0.552973 7.878457
v -0.762061 0.231677 7.869922
v -0.569779 -0.205485 7.846467
v -0.690718 0.675551 8.701144
v -0.702597 0.465974 8.470689
v -0.684451 0.098829 8.477347
v -0.440484 0.384780 9.495803
v -0.634090 0.089937 9.472014
v -0.435324 -0.213906 9.466781
v -0.956599 0.144651 9.252362
v -0.708988 0.435403 9.236421
v -0.738283 -0.255498 9.294181
v -0.607540 0.635829 8.525833
v -0.616841 -0.206650 8.576880
v -0.702063 0.431436 8.452643
v -1.531259 1.129219 7.539069
v -1.622001 0.977166 7.490817
v -1.526112 0.767234 7.423718
v -1.127283 1.185865 7.389588
v -1.060391 1.059236 7.277767
v -1.123553 0.826314 7.267255
v -1.963920 1.414326 6.130532
v -2.029244 1.272947 6.102588
v -1.961092 1.114127 6.081896
v -1.661593 1.431328 6.041730
v -1.609750 1.301394 5.972253
v -1.659471 1.131820 5.989617
v -1.993582 1.496741 6.065781
v -2.079532 1.286000 6.093013
v -2.009132 1.023338 6.007622
v -1.846414 1.518558 5.908555
v -1.816818 1.334473 5.864037
v -1.844378 1.014611 5.815370
v -2.285708 1.639096 5.676421
v -2.342063 1.377690 5.625672
v -2.283020 1.063066 5.572226
v -2.132783 1.601366 5.486198
v -2.103189 1.417281 5.441680
v -2.130747 1.097419 5.393014
v -2.251042 1.665264 5.087963
v -2.263644 1.494372 5.017557
v -2.250350 1.265568 5.016210
v -2.157942 1.582180 5.130274
v -2.132460 1.482287 5.088540
v -2.156748 1.254635 5.069171
v -1.609737 1.293721 5.752677
v -1.638774 1.146619 5.777543
v -1.806775 1.311770 5.712084
v -1.826087 1.036792 5.676480
v -1.671746 1.283639 5.536036
v -1.695537 1.163104 5.556411
v -1.833197 1.298428 5.502774
v -1.849021 1.073113 5.473601
v -1.757208 1.272583 5.309371
v -1.766471 1.186058 5.326974
v -1.875031 1.277782 5.312792
v -1.883507 1.116698 5.294339
v -0.158780 0.287954 9.628173
v -0.252719 0.101461 9.564652
v -0.182110 -0.006843 9.564652
v -1.480244 0.707683 7.512149
v -1.576221 0.913683 7.608131
v -1.041526 1.037498 7.341273
v -1.095647 0.793203 7.321130
v -1.486748 1.072182 7.660191
v -1.100002 1.155514 7.473126
v -1.660466 1.018825 7.385804
v -1.571939 1.171945 7.421283
v -1.165041 1.203731 7.290812
v -1.094942 1.066326 7.199904
v -1.162410 0.838909 7.215776
v -1.567478 0.806419 7.345584
v -0.508053 -0.844576 4.621734
v -0.519458 0.377847 5.522047
v -0.866564 -1.021908 4.733622
v -1.031588 0.173849 5.833551
v -0.866564 -1.231441 4.902675
v -1.033048 -0.265426 6.096209
v -0.508034 -1.401562 5.028976
v -0.513485 -0.541900 6.146011
v -0.149427 -1.230372 4.907373
v -0.141336 -0.220629 5.955530
v -0.149542 -1.004175 4.748099
v -0.512044 0.626127 5.776274
v -1.022851 0.321749 6.001949
v -1.024829 -0.141747 6.233222
v -0.515671 -0.458110 6.197043
v -0.133260 -0.133234 5.996565
v -0.417970 0.757414 5.989819
v -0.882834 0.492208 6.523191
v -0.879769 0.021451 6.536270
v -0.448453 -0.309933 6.327432
v -0.130631 -0.036930 6.047832
v -0.429993 -1.272931 2.443041
v -0.658826 -1.404539 2.454615
v -0.658826 -1.667756 2.477762
v -0.429993 -1.799365 2.489336
v -0.201160 -1.667756 2.477762
v -0.201160 -1.404539 2.454615
v -0.825732 -1.442135 4.257110
v -0.825732 -1.193829 4.222843
v -0.149032 -1.235725 4.230435
v -0.149032 -1.484744 4.265330
v -0.487382 -0.970420 4.222466
v -0.487382 -1.617086 4.651814
v -0.714889 0.439619 6.844916
v -0.711441 -0.045285 6.774201
v -0.429993 -1.602238 0.834028
v -0.608102 -1.706513 0.826897
v -0.608102 -1.918141 0.835129
v -0.429993 -2.021155 0.839817
v -0.251883 -1.916680 0.837881
v -0.251883 -1.706762 0.826769
v -0.859183 -1.116759 4.687310
v -0.149356 -1.344530 4.807733
v -0.504316 -0.907387 4.605033
v -0.859183 -1.321584 4.798497
v -0.149450 -1.101074 4.696272
v -0.504300 -1.460370 4.964702
v -0.850273 -1.410737 4.661225
v -0.149339 -1.163753 4.594756
v -0.499794 -1.526088 4.881753
v -0.850273 -1.163827 4.586418
v -0.149269 -1.416887 4.670919
v -0.499806 -0.970984 4.544003
v -0.182652 0.209765 10.297470
v -0.252719 0.101461 10.297470
v -0.182110 -0.006843 10.297470
v 0.213411 0.636447 5.830169
v -0.199640 0.412687 5.677390
vn 0.2171 0.8930 -0.3943
vn 0.2309 0.9730 -0.0026
vn 0.2282 0.8287 0.5111
vn 0.5934 0.7171 0.3657
vn 0.6038 0.7971 0.0039
vn 0.5368 0.7678 -0.3497
vn 0.4335 0.6757 -0.5962
vn 0.2244 0.7535 -0.6180
vn 0.9488 0.1900 -0.2522
vn 0.9829 0.1719 0.0657
vn 0.9669 -0.1341 -0.2169
vn 0.9843 -0.1466 0.0981
vn 0.7198 0.4412 -0.5359
vn 0.8218 0.4872 -0.2955
vn 0.8739 0.4848 0.0339
vn 0.8176 0.4547 0.3533
vn 0.8793 0.1584 0.4492
vn 0.8717 -0.1659 0.4611
vn 0.7717 -0.4987 0.3948
vn 0.8452 -0.5193 0.1267
vn 0.8441 -0.5094 -0.1677
vn 0.7852 -0.4383 -0.4373
vn 0.8572 -0.1236 -0.4999
vn 0.8229 0.2097 -0.5281
vn 1.0000 -0.0000 -0.0000
vn 0.1564 -0.9765 0.1485
vn 0.4800 -0.7943 -0.3725
vn 0.5169 -0.8425 -0.1518
vn 0.4664 -0.8756 0.1262
vn 0.4808 -0.7739 0.4123
vn 0.1500 -0.8611 0.4857
vn 0.2261 -0.9220 -0.3144
vn 0.3148 0.2794 -0.9071
vn 0.3250 -0.1799 -0.9284
vn 0.2669 0.5681 -0.7785
vn 0.4934 0.5045 -0.7086
vn 0.5804 0.2495 -0.7751
vn 0.6137 -0.1420 -0.7766
vn 0.5175 -0.5489 -0.6564
vn 0.3026 -0.6356 -0.7102
vn 0.1733 0.1395 0.9749
vn 0.1703 -0.1865 0.9676
vn 0.5492 0.4099 0.7283
vn 0.1876 0.4801 0.8569
vn 0.1601 -0.5446 0.8233
vn 0.5064 -0.4648 0.7263
vn 0.5518 -0.1809 0.8141
vn 0.5611 0.1458 0.8148
vn 0.6237 0.6944 0.3588
vn 0.7220 0.5506 -0.4190
vn 0.3616 0.0569 -0.9306
vn -0.6237 -0.6944 -0.3589
vn 0.6532 -0.7421 0.1505
vn -0.7220 -0.5506 0.4190
vn -0.3616 -0.0569 0.9306
vn -0.6532 0.7421 -0.1505
vn 0.4188 0.9068 -0.0479
vn 0.1689 -0.9824 -0.0804
vn 0.1877 -0.9660 -0.1779
vn 0.9482 -0.2916 -0.1260
vn 0.9506 0.3023 -0.0709
vn 0.2550 0.9669 -0.0049
vn 0.2148 -0.9700 -0.1142
vn 0.8676 -0.4961 -0.0351
vn 0.9048 0.4254 -0.0210
vn 0.3241 0.9421 0.0855
vn 0.3839 0.6635 0.6421
vn 0.3613 0.9026 0.2340
vn 0.2929 -0.1586 0.9429
vn 0.0368 -0.8296 0.5572
vn 0.7893 0.5493 -0.2743
vn 0.7082 -0.2367 0.6652
vn 0.6505 0.7267 -0.2211
vn 0.0814 -0.9727 0.2174
vn 0.1926 -0.6063 -0.7716
vn 0.8715 0.1574 -0.4645
vn 0.8868 -0.2492 0.3892
vn -0.8176 -0.4706 -0.3316
vn 0.0059 0.9326 -0.3608
vn 0.8258 0.5453 0.1440
vn -0.8470 0.3343 -0.4133
vn 0.0716 -0.9827 0.1707
vn 0.8563 0.5134 -0.0566
vn -0.8550 0.2005 -0.4783
vn 0.0127 -0.8820 0.4712
vn 0.9063 -0.2072 0.3684
vn -0.8775 -0.4711 -0.0897
vn 0.0174 0.8578 -0.5137
vn 0.2809 0.4529 0.8461
vn -0.9524 -0.1340 0.2738
vn -0.0733 0.9681 -0.2395
vn 0.6380 0.7158 0.2837
vn -0.4880 -0.0387 -0.8720
vn -0.5091 -0.1753 0.8427
vn 0.8149 0.4267 0.3923
vn -0.8462 -0.1280 -0.5173
vn 0.0988 -0.7684 0.6323
vn 0.8863 0.0953 0.4531
vn -0.8523 -0.3425 -0.3953
vn -0.2648 0.7383 -0.6203
vn -0.9946 -0.1040 -0.0011
vn -0.6946 0.4980 -0.5192
vn 0.9695 0.1109 -0.2184
vn -0.9679 0.1941 -0.1596
vn 0.1930 -0.9194 0.3427
vn 0.9823 -0.1560 -0.1035
vn -0.9468 -0.3217 -0.0050
vn -0.1852 0.7170 -0.6721
vn 0.9867 -0.0020 -0.1625
vn -0.5255 -0.6635 0.5326
vn -0.5520 -0.7700 0.3200
vn -0.5768 -0.7162 0.3927
vn 0.9949 0.0991 0.0173
vn -0.1186 0.6929 -0.7112
vn -0.2543 -0.5654 -0.7847
vn 0.9845 0.1491 0.0926
vn -0.1216 0.6835 -0.7197
vn -0.9323 -0.3594 -0.0398
vn 0.1971 -0.1285 0.9719
vn 0.2232 0.5237 0.8221
vn -0.0707 -0.6880 0.7223
vn 0.2220 0.1470 0.9639
vn -0.5157 -0.5472 -0.6593
vn -0.6227 -0.2903 -0.7266
vn 0.0165 -0.9717 0.2357
vn -0.8696 0.3274 -0.3696
vn 0.8057 0.5578 0.1995
vn 0.0451 0.9257 -0.3757
vn -0.9448 -0.1500 -0.2912
vn 0.8764 -0.2573 0.4071
vn 0.0647 0.8657 -0.4964
vn -0.7601 -0.5457 -0.3528
vn 0.8981 -0.2129 0.3848
vn 0.0529 -0.9563 0.2875
vn -0.7728 0.2538 -0.5817
vn 0.8351 0.5463 0.0648
vn 0.5217 0.8035 0.2865
vn 0.9941 0.0444 -0.0991
vn 0.4968 -0.7569 -0.4247
vn -0.5188 -0.7474 -0.4149
vn -0.5020 -0.6370 -0.5850
vn 0.9963 0.0691 -0.0516
vn -1.0000 0.0028 -0.0046
vn 0.9972 0.0382 -0.0639
vn -0.9729 -0.2015 0.1130
vn 0.9992 -0.0201 0.0346
vn 0.4394 0.7400 0.5092
vn 0.4657 -0.7250 -0.5075
vn -0.4523 -0.6035 0.6567
vn 0.4433 -0.8110 -0.3818
vn 0.4310 0.7608 0.4852
vn -0.3685 0.9279 0.0575
vn -0.4871 -0.7168 -0.4990
vn 0.9612 -0.1468 0.2336
vn -0.9992 0.0316 -0.0254
vn -0.9999 0.0052 -0.0087
vn 0.5468 0.7318 0.4069
vn 0.5002 -0.7242 -0.4747
vn -0.5000 0.7217 0.4787
vn -0.4811 -0.7416 -0.4675
vn -0.4839 -0.7175 -0.5010
vn -0.6147 0.6879 0.3859
vn 0.4769 -0.6821 -0.5544
vn 0.5523 0.6614 0.5074
vn -1.0000 -0.0001 0.0007
vn 0.9980 0.0328 -0.0549
vn 0.1341 -0.9867 0.0917
vn -0.4518 -0.4069 -0.7939
vn -0.0196 -0.9607 -0.2769
vn -0.6747 0.0084 -0.7380
vn -0.1175 0.9907 0.0684
vn 0.3776 0.8646 0.3315
vn 0.1853 -0.9788 0.0874
vn 0.9047 -0.1434 0.4012
vn 0.0008 0.8026 -0.5965
vn 0.4999 -0.7394 -0.4510
vn 0.4965 0.7816 0.3777
vn -0.4639 0.7946 0.3916
vn -0.4803 -0.7468 -0.4600
vn 0.9992 0.0219 -0.0330
vn 0.9979 0.0283 -0.0590
vn -1.0000 0.0001 0.0007
vn 0.5420 0.6914 0.4777
vn 0.4887 -0.7014 -0.5189
vn -0.5044 0.7438 0.4386
vn -0.5172 -0.7200 -0.4627
vn 0.9979 0.0297 -0.0576
vn -1.0000 -0.0000 0.0007
vn 0.4835 0.8253 0.2918
vn 0.4864 -0.6963 -0.5277
vn -0.5015 0.7634 0.4072
vn -0.5032 -0.7232 -0.4731
vn 0.2815 0.9561 0.0807
vn 0.2171 -0.9729 -0.0793
vn 0.7556 0.1434 0.6392
vn 0.8931 0.4499 -0.0000
vn 0.8377 -0.5461 -0.0000
vn 0.5488 0.8323 0.0777
vn 0.5165 -0.8562 -0.0132
vn -0.2171 0.8930 -0.3943
vn -0.2332 0.9724 -0.0047
vn -0.2282 0.8287 0.5111
vn -0.5362 0.7239 0.4341
vn -0.6140 0.7893 -0.0094
vn -0.5575 0.7416 -0.3731
vn -0.4335 0.6757 -0.5962
vn -0.2244 0.7535 -0.6180
vn -0.9486 0.1818 -0.2589
vn -0.9832 0.1706 0.0645
vn -0.9679 -0.1309 -0.2144
vn -0.9842 -0.1492 0.0957
vn -0.7191 0.4598 -0.5211
vn -0.8258 0.4724 -0.3080
vn -0.8791 0.4760 0.0239
vn -0.8176 0.4547 0.3533
vn -0.8813 0.1551 0.4463
vn -0.8704 -0.1617 0.4650
vn -0.7756 -0.4470 0.4457
vn -0.8474 -0.5145 0.1312
vn -0.8444 -0.5089 -0.1672
vn -0.7852 -0.4383 -0.4373
vn -0.8583 -0.1214 -0.4987
vn -0.8209 0.2013 -0.5345
vn -0.1488 -0.9784 0.1435
vn -0.5095 -0.7887 -0.3441
vn -0.5440 -0.8308 -0.1171
vn -0.5063 -0.8464 0.1648
vn -0.4808 -0.7739 0.4123
vn -0.1500 -0.8611 0.4857
vn -0.1482 -0.9172 -0.3698
vn -0.3082 0.2745 -0.9109
vn -0.3445 -0.1614 -0.9248
vn -0.2408 0.5577 -0.7943
vn -0.4461 0.4620 -0.7665
vn -0.5707 0.2336 -0.7872
vn -0.6232 -0.1271 -0.7717
vn -0.5828 -0.4680 -0.6643
vn -0.3026 -0.6356 -0.7102
vn -0.1783 0.1347 0.9747
vn -0.1652 -0.1814 0.9694
vn -0.5146 0.4458 0.7324
vn -0.1947 0.4737 0.8589
vn -0.1601 -0.5446 0.8233
vn -0.5064 -0.4648 0.7263
vn -0.5466 -0.1746 0.8190
vn -0.5630 0.1438 0.8139
vn -0.6237 0.6944 0.3588
vn -0.7220 0.5506 -0.4190
vn -0.3616 0.0569 -0.9306
vn 0.6237 -0.6944 -0.3589
vn -0.6532 -0.7421 0.1505
vn 0.7220 -0.5506 0.4190
vn 0.3616 -0.0569 0.9306
vn 0.6532 0.7421 -0.1505
vn -0.2733 0.9414 0.1975
vn -0.3716 -0.9199 -0.1256
vn -0.2600 -0.9580 -0.1208
vn -0.9079 -0.3913 -0.1502
vn -0.9462 0.3058 -0.1055
vn -0.1861 0.9795 -0.0769
vn -0.3546 -0.9347 -0.0243
vn -0.8864 -0.4022 0.2291
vn -0.8487 0.5156 -0.1178
vn -0.0862 0.9953 -0.0444
vn -0.4566 0.4315 0.7780
vn -0.2912 0.8362 0.4647
vn -0.5742 -0.2312 0.7854
vn -0.1500 -0.8685 0.4725
vn -0.6558 0.5703 0.4946
vn -0.9499 -0.3107 -0.0334
vn -0.4252 0.8311 0.3584
vn -0.8589 -0.3203 -0.3997
vn -0.9969 -0.0481 0.0626
vn 0.9891 0.0799 -0.1236
vn -0.8722 -0.4698 0.1361
vn 0.8402 -0.1430 -0.5231
vn 0.0095 0.9060 0.4232
vn -0.8309 0.3193 0.4557
vn 0.8496 0.5199 -0.0886
vn -0.0753 -0.8448 -0.5298
vn -0.8473 0.4123 0.3347
vn 0.8032 0.5542 -0.2183
vn 0.0031 -0.9723 -0.2336
vn -0.8895 -0.4224 0.1742
vn 0.8627 -0.2851 -0.4178
vn -0.0172 0.9824 0.1858
vn -0.2384 -0.2254 0.9447
vn 0.9590 -0.2736 0.0745
vn 0.0855 0.8837 0.4602
vn -0.2100 -0.0953 0.9730
vn 0.4534 0.5542 -0.6981
vn 0.1784 -0.8936 0.4118
vn -0.7723 0.3807 0.5085
vn 0.8228 0.2551 -0.5079
vn -0.0915 -0.9952 -0.0332
vn -0.8018 -0.3680 0.4708
vn 0.8289 0.0137 -0.5593
vn 0.1290 0.9586 0.2537
vn 0.9913 -0.0683 -0.1127
vn 0.3093 0.9490 0.0604
vn -0.9745 0.2193 -0.0477
vn 0.9811 0.1768 -0.0789
vn -0.2000 -0.9168 -0.3457
vn -0.9795 -0.1639 -0.1172
vn 0.9386 -0.2289 -0.2580
vn 0.1751 0.9839 -0.0344
vn -0.9920 0.0977 -0.0802
vn 0.5395 -0.8420 -0.0061
vn 0.5886 -0.7659 -0.2586
vn 0.5755 -0.7913 -0.2067
vn -0.9911 0.0539 0.1217
vn 0.1066 0.9913 -0.0766
vn -0.0371 -0.1954 -0.9800
vn -0.9767 0.0413 0.2106
vn 0.1091 0.9900 -0.0894
vn 0.9220 -0.2341 -0.3085
vn -0.2281 -0.1657 0.9594
vn -0.2112 0.5183 0.8287
vn 0.0553 -0.6886 0.7230
vn -0.2375 0.0779 0.9682
vn 0.4942 0.0212 -0.8691
vn 0.4584 0.4396 -0.7724
vn -0.1903 -0.8935 -0.4067
vn 0.9497 0.2058 -0.2361
vn -0.6399 0.5731 0.5120
vn -0.1801 0.8655 0.4675
vn 0.9489 0.0412 -0.3127
vn -0.8941 -0.4258 0.1392
vn -0.0628 0.9776 0.2008
vn 0.7637 -0.1791 -0.6203
vn -0.8581 -0.4629 0.2221
vn 0.0385 -0.9635 -0.2648
vn 0.7860 0.5868 -0.1943
vn -0.8320 0.3635 0.4192
vn -0.4777 0.5181 -0.7095
vn -0.9943 -0.0521 -0.0926
vn -0.4378 -0.7277 0.5279
vn 0.5050 -0.6828 0.5280
vn 0.6593 -0.3785 0.6497
vn 0.3096 0.5658 -0.7642
vn -0.7111 0.6286 0.3151
vn -0.9956 -0.0128 -0.0925
vn 0.9716 -0.1313 0.1967
vn -0.9990 0.0254 0.0370
vn -0.5776 0.5924 -0.5617
vn -0.3403 -0.4956 0.7991
vn -0.1302 0.0253 0.9912
vn -0.2894 -0.5550 0.7799
vn -0.5715 0.7871 -0.2321
vn -0.0459 0.8599 -0.5084
vn 0.6574 -0.3680 0.6576
vn -0.9215 0.1766 0.3460
vn 0.9995 -0.0027 -0.0306
vn 0.9996 -0.0040 -0.0287
vn -0.5442 0.8240 -0.1576
vn -0.5117 -0.8572 0.0587
vn 0.6147 0.7806 -0.1129
vn 0.4474 -0.8901 0.0869
vn 0.4631 -0.8153 0.3476
vn 0.4796 0.8773 0.0201
vn -0.4649 -0.8315 0.3040
vn -0.4891 0.8659 -0.1045
vn 1.0000 0.0004 0.0005
vn -0.9981 -0.0179 -0.0592
vn 0.1073 -0.9900 0.0920
vn 0.0265 -0.4559 -0.8896
vn 0.1292 -0.9528 -0.2746
vn -0.1062 0.0113 -0.9943
vn -0.3482 0.9243 0.1561
vn -0.3492 0.8786 0.3259
vn -0.3162 -0.9478 -0.0421
vn -0.8149 0.0108 0.5795
vn -0.0004 -0.0412 -0.9991
vn -0.4996 -0.8585 0.1154
vn -0.4976 0.8498 -0.1739
vn 0.4976 0.8498 -0.1739
vn 0.4996 -0.8586 0.1149
vn -0.9995 -0.0027 -0.0306
vn -0.9986 -0.0336 -0.0417
vn 1.0000 0.0006 0.0001
vn -0.4376 0.3668 -0.8209
vn -0.5076 -0.6501 0.5653
vn 0.4620 0.4186 -0.7819
vn 0.5012 -0.6238 0.5998
vn -0.9985 -0.0260 -0.0479
vn 1.0000 0.0005 0.0003
vn -0.5330 0.7478 -0.3959
vn -0.5107 -0.6872 0.5167
vn 0.4949 0.6197 -0.6092
vn 0.4707 -0.6789 0.5635
vn -0.2666 0.9599 0.0864
vn -0.2603 -0.9632 -0.0666
vn -0.7575 0.1443 0.6367
vn -0.8931 0.4499 -0.0000
vn -0.8377 -0.5461 -0.0000
vn -0.5999 0.7948 0.0921
vn -0.5165 -0.8562 -0.0132
vn -0.3137 0.1664 -0.9348
vn 0.9800 0.0029 -0.1989
vn 0.0274 0.6922 -0.7212
vn 0.1123 0.5483 -0.8287
vn 0.2158 0.8929 -0.3952
vn 0.2332 0.9724 -0.0047
vn 0.2114 0.8407 0.4986
vn 0.5362 0.7239 0.4341
vn 0.6140 0.7893 -0.0094
vn 0.5575 0.7416 -0.3731
vn 0.4895 0.6746 -0.5525
vn 0.2088 0.7506 -0.6269
vn 0.9486 0.1818 -0.2589
vn 0.9832 0.1706 0.0645
vn 0.9679 -0.1309 -0.2144
vn 0.9842 -0.1492 0.0957
vn 0.7191 0.4598 -0.5211
vn 0.8258 0.4724 -0.3080
vn 0.8791 0.4760 0.0239
vn 0.8171 0.4050 0.4103
vn 0.8813 0.1551 0.4463
vn 0.8704 -0.1617 0.4650
vn 0.7756 -0.4470 0.4457
vn 0.8474 -0.5145 0.1312
vn 0.8444 -0.5089 -0.1672
vn 0.7820 -0.4824 -0.3947
vn 0.8583 -0.1214 -0.4987
vn 0.8209 0.2013 -0.5345
vn 0.1806 -0.9804 -0.0786
vn 0.1607 -0.9818 -0.1015
vn 0.1488 -0.9784 0.1435
vn 0.5095 -0.7887 -0.3441
vn 0.5440 -0.8308 -0.1171
vn 0.5063 -0.8464 0.1648
vn 0.4448 -0.7758 0.4475
vn 0.1542 -0.8626 0.4818
vn 0.1482 -0.9172 -0.3698
vn 0.3082 0.2745 -0.9109
vn 0.3445 -0.1614 -0.9248
vn 0.2408 0.5577 -0.7943
vn 0.4461 0.4620 -0.7665
vn 0.5707 0.2336 -0.7872
vn 0.6232 -0.1271 -0.7717
vn 0.5828 -0.4680 -0.6643
vn 0.2684 -0.6184 -0.7387
vn 0.1783 0.1347 0.9747
vn 0.1652 -0.1814 0.9694
vn 0.5146 0.4458 0.7324
vn 0.1947 0.4737 0.8589
vn 0.1626 -0.5423 0.8243
vn 0.4611 -0.5075 0.7279
vn 0.5466 -0.1746 0.8190
vn 0.5630 0.1438 0.8139
vn -0.6237 -0.6944 -0.3588
vn 0.3526 0.9158 0.1924
vn 0.2816 -0.9511 0.1270
vn 0.2157 -0.9563 -0.1976
vn 0.8427 -0.4860 -0.2316
vn 0.9003 0.4205 -0.1121
vn 0.3262 0.9424 -0.0740
vn 0.1689 -0.9824 -0.0799
vn 0.9229 -0.3731 -0.0954
vn 0.9678 0.2137 0.1330
vn 0.4241 0.9047 -0.0405
vn 0.7113 0.4525 0.5379
vn 0.2593 0.8328 0.4891
vn 0.5206 -0.0682 0.8510
vn 0.0417 -0.8316 0.5538
vn 0.7722 0.6321 -0.0655
vn 0.9447 -0.2670 0.1906
vn 0.9217 0.3694 -0.1184
vn 0.2778 -0.9521 0.1278
vn -0.2247 -0.5849 -0.7793
vn 0.9966 0.0581 -0.0577
vn 0.8642 -0.2537 0.4346
vn -0.8999 -0.4166 -0.1287
vn -0.0074 0.9584 -0.2853
vn 0.8053 0.5701 0.1624
vn -0.8428 0.3255 -0.4287
vn 0.0681 -0.9803 0.1856
vn 0.8921 0.4513 -0.0215
vn -0.8172 0.2867 -0.4999
vn -0.0052 -0.8822 0.4708
vn 0.9002 -0.2193 0.3762
vn -0.8745 -0.4780 -0.0828
vn 0.0002 0.8578 -0.5140
vn 0.5222 0.2219 0.8235
vn -0.9783 -0.1179 0.1703
vn -0.4978 0.8669 0.0253
vn 0.2526 0.5696 0.7821
vn -0.6768 -0.2525 -0.6915
vn -0.1526 -0.3912 0.9076
vn 0.7901 0.6051 0.0977
vn 0.0033 -0.8607 0.5091
vn 0.8246 0.0195 0.5653
vn -0.1264 0.8882 -0.4418
vn -0.9927 -0.1171 0.0276
vn -0.3148 0.7567 -0.5730
vn 0.9811 -0.0046 -0.1932
vn -0.9851 0.1015 -0.1388
vn -0.1575 -0.9518 0.2634
vn 0.9749 -0.2220 -0.0162
vn -0.1333 0.6457 -0.7519
vn 0.9828 -0.0360 -0.1812
vn -0.5318 -0.6219 0.5749
vn -0.5924 -0.7314 0.3377
vn -0.0035 -0.7972 -0.6038
vn 0.9875 0.1300 0.0894
vn -0.0542 0.6656 -0.7443
vn -0.9373 -0.3314 -0.1074
vn 0.2231 -0.1119 0.9683
vn 0.5591 0.6305 0.5384
vn 0.0149 -0.3507 0.9364
vn 0.4942 -0.0467 0.8681
vn -0.5314 -0.5498 -0.6444
vn -0.4952 -0.1735 -0.8513
vn 0.0295 -0.9690 0.2453
vn -0.9403 0.0203 -0.3398
vn 0.6561 0.7542 0.0269
vn 0.3419 0.9290 -0.1413
vn -0.9164 -0.3674 -0.1586
vn 0.8739 -0.2660 0.4069
vn -0.0273 0.9262 -0.3761
vn -0.8757 -0.4738 -0.0932
vn 0.8625 -0.2045 0.4629
vn -0.0381 -0.9003 0.4335
vn -0.7920 0.3104 -0.5257
vn 0.8239 0.5616 0.0757
vn 0.3671 0.8913 0.2660
vn 0.9944 0.0618 -0.0859
vn 0.4559 -0.7696 -0.4470
vn -0.5051 -0.7522 -0.4231
vn -0.5183 -0.7095 -0.4774
vn 1.0000 -0.0029 -0.0049
vn -0.9849 0.1372 0.1061
vn 0.9973 0.0410 -0.0616
vn -0.9682 -0.1975 -0.1533
vn 0.9990 -0.0212 0.0399
vn 0.4022 0.9048 0.1400
vn 0.4699 -0.7531 -0.4605
vn -0.4904 -0.2808 0.8250
vn -0.5528 -0.1525 0.8192
vn -0.4004 -0.2352 0.8856
vn 0.4679 -0.8369 -0.2841
vn 0.4246 0.7184 0.5510
vn 0.0855 0.8689 -0.4875
vn -0.4942 -0.7050 -0.5087
vn 0.9382 -0.1175 0.3254
vn -0.9992 0.0220 -0.0330
vn -0.9999 0.0056 -0.0084
vn 0.4993 0.7499 0.4340
vn 0.5394 -0.6977 -0.4714
vn -0.6166 0.6699 0.4136
vn -0.4991 -0.7311 -0.4652
vn -0.4799 -0.7414 -0.4691
vn -0.4963 0.6660 0.5569
vn 0.4767 -0.6856 -0.5502
vn 0.4948 0.7297 0.4719
vn -1.0000 -0.0004 0.0007
vn 0.9981 0.0284 -0.0550
vn -0.3259 -0.4826 -0.8129
vn 0.2528 -0.9674 -0.0141
vn 0.3626 0.7344 0.5737
vn 0.3353 0.8333 0.4395
vn 0.2473 -0.9659 -0.0771
vn 0.8731 -0.1119 0.4745
vn 0.0009 0.7861 -0.6180
vn -0.0072 0.8052 -0.5930
vn -0.0681 0.7775 -0.6252
vn 0.4736 -0.7499 -0.4619
vn 0.4617 0.7954 0.3925
vn -0.4965 0.7816 0.3777
vn -0.4989 -0.7394 -0.4522
vn 0.9992 0.0331 -0.0243
vn 0.9981 0.0252 -0.0564
vn -1.0000 -0.0001 0.0008
vn 0.5261 0.7418 0.4160
vn 0.4888 -0.6988 -0.5223
vn -0.5201 0.6804 0.5162
vn -0.5124 -0.7483 -0.4214
vn 0.9981 0.0265 -0.0554
vn 0.5430 0.7166 0.4378
vn 0.4864 -0.6965 -0.5275
vn -0.5257 0.7897 0.3162
vn -0.5036 -0.7399 -0.4461
vn 0.2821 0.9563 0.0765
vn 0.1798 -0.9835 0.0184
vn 0.7536 -0.3389 0.5633
vn 0.9087 -0.0968 0.4062
vn 0.8391 0.5429 0.0335
vn 0.5999 0.7948 0.0921
vn 0.5513 -0.8343 -0.0000
vn -0.2158 0.8929 -0.3952
vn -0.2309 0.9730 -0.0026
vn -0.2114 0.8407 0.4986
vn -0.5934 0.7171 0.3657
vn -0.6038 0.7971 0.0039
vn -0.5368 0.7678 -0.3497
vn -0.4895 0.6746 -0.5525
vn -0.2088 0.7506 -0.6269
vn -0.9488 0.1900 -0.2522
vn -0.9829 0.1719 0.0657
vn -0.9669 -0.1341 -0.2169
vn -0.9843 -0.1466 0.0981
vn -0.7198 0.4412 -0.5359
vn -0.8218 0.4872 -0.2955
vn -0.8739 0.4848 0.0339
vn -0.8171 0.4050 0.4103
vn -0.8793 0.1584 0.4492
vn -0.8717 -0.1659 0.4611
vn -0.7717 -0.4987 0.3948
vn -0.8452 -0.5193 0.1267
vn -0.8441 -0.5094 -0.1677
vn -0.7820 -0.4824 -0.3947
vn -0.8572 -0.1236 -0.4999
vn -0.8229 0.2097 -0.5281
vn -0.1607 -0.9818 -0.1015
vn -0.1806 -0.9804 -0.0786
vn -0.1564 -0.9765 0.1485
vn -0.4800 -0.7943 -0.3725
vn -0.5169 -0.8425 -0.1518
vn -0.4664 -0.8756 0.1262
vn -0.4448 -0.7758 0.4475
vn -0.1542 -0.8626 0.4818
vn -0.2261 -0.9220 -0.3144
vn -0.3148 0.2794 -0.9071
vn -0.3250 -0.1799 -0.9284
vn -0.2669 0.5681 -0.7785
vn -0.4934 0.5045 -0.7086
vn -0.5804 0.2495 -0.7751
vn -0.6137 -0.1420 -0.7766
vn -0.5175 -0.5489 -0.6564
vn -0.2683 -0.6184 -0.7387
vn -0.1733 0.1395 0.9749
vn -0.1703 -0.1865 0.9676
vn -0.5492 0.4099 0.7283
vn -0.1876 0.4801 0.8569
vn -0.1626 -0.5423 0.8243
vn -0.4611 -0.5075 0.7279
vn -0.5518 -0.1809 0.8141
vn -0.5611 0.1458 0.8148
vn 0.6237 -0.6944 -0.3588
vn -0.2590 0.9386 0.2278
vn -0.4052 -0.9111 -0.0753
vn -0.3500 -0.9174 -0.1895
vn -0.9405 -0.3197 -0.1155
vn -0.8357 0.5101 -0.2034
vn -0.2263 0.9676 -0.1119
vn -0.4055 -0.9111 -0.0738
vn -0.9875 -0.1443 -0.0639
vn -0.8983 0.4358 -0.0569
vn -0.1888 0.9726 -0.1360
vn -0.6166 0.3479 0.7062
vn -0.2799 0.8278 0.4863
vn -0.4401 -0.3025 0.8454
vn -0.0404 -0.8295 0.5571
vn -0.7509 0.6468 0.1332
vn -0.8718 -0.4572 0.1760
vn 0.8079 0.5269 0.2639
vn -0.5754 -0.8036 -0.1521
vn 0.8310 0.0027 -0.5562
vn -0.7311 0.5031 -0.4609
vn -0.8906 -0.4415 0.1086
vn 0.9084 -0.2306 -0.3488
vn -0.0048 0.9394 0.3429
vn -0.8076 0.3260 0.4915
vn 0.8523 0.5174 -0.0761
vn -0.0663 -0.8650 -0.4973
vn -0.8822 0.3440 0.3216
vn 0.8403 0.4750 -0.2614
vn -0.0141 -0.9725 -0.2324
vn -0.8959 -0.4075 0.1768
vn 0.8598 -0.2948 -0.4170
vn -0.0010 0.9828 0.1848
vn -0.4854 -0.3852 0.7848
vn 0.9813 -0.1925 0.0068
vn 0.5174 0.6360 0.5725
vn -0.6108 0.3414 0.7144
vn 0.6442 0.2761 -0.7133
vn 0.5369 -0.6859 0.4912
vn -0.7897 0.0516 0.6113
vn -0.0028 -0.9817 -0.1906
vn -0.8661 -0.2373 0.4400
vn 0.2572 0.9663 0.0151
vn 0.9902 -0.0971 -0.1000
vn 0.6851 0.7232 -0.0874
vn -0.9877 0.1161 -0.1051
vn 0.9652 0.2597 -0.0322
vn 0.1464 -0.8852 -0.4415
vn -0.9888 -0.0566 -0.1384
vn 0.1187 0.9831 -0.1390
vn -0.9895 0.0846 -0.1168
vn 0.5306 -0.8451 -0.0651
vn 0.5467 -0.7834 -0.2956
vn -0.9911 0.0538 0.1217
vn 0.2117 0.1002 -0.9722
vn -0.9802 0.0292 0.1957
vn 0.0404 0.9923 -0.1167
vn 0.9250 -0.1683 -0.3406
vn -0.2414 -0.1574 0.9576
vn -0.5591 0.6305 0.5384
vn -0.0397 -0.3868 0.9213
vn -0.4461 -0.0790 0.8915
vn 0.4780 0.0329 -0.8778
vn 0.5880 0.2707 -0.7622
vn -0.0558 -0.8646 -0.4994
vn 0.8830 0.4686 -0.0278
vn -0.8101 0.2899 0.5097
vn -0.0211 0.9288 0.3700
vn 0.9158 -0.1730 -0.3624
vn -0.8811 -0.4606 0.1075
vn 0.0324 0.9431 0.3309
vn 0.8661 -0.2856 -0.4103
vn -0.8928 -0.4211 0.1599
vn -0.0623 -0.9050 -0.4209
vn 0.7636 0.5789 -0.2861
vn -0.8160 0.3687 0.4452
vn -0.5865 0.5030 -0.6348
vn -0.9942 -0.0677 -0.0839
vn -0.5087 -0.6835 0.5235
vn 0.6992 -0.5175 0.4932
vn 0.6578 -0.3691 0.6566
vn 0.4763 0.4939 -0.7274
vn -0.5090 0.8079 0.2971
vn -0.9957 -0.0081 -0.0924
vn 0.9847 -0.1519 0.0852
vn -0.9992 0.0210 0.0334
vn -0.5952 0.6188 -0.5126
vn -0.3755 -0.6767 0.6333
vn 0.6475 0.2858 0.7064
vn 0.5474 0.0268 0.8364
vn 0.5461 0.1979 0.8140
vn -0.3150 -0.7645 0.5625
vn -0.5825 0.8058 -0.1070
vn -0.0421 0.8714 -0.4888
vn 0.7558 -0.5910 0.2820
vn -0.9658 0.0009 0.2591
vn 0.9995 -0.0016 -0.0307
vn 0.9996 -0.0026 -0.0291
vn -0.4986 0.8539 -0.1488
vn -0.5000 -0.8638 0.0626
vn 0.4999 0.8607 -0.0965
vn 0.5000 -0.8629 0.0738
vn 0.4982 -0.8551 0.1434
vn 0.6120 0.7759 -0.1528
vn -0.4932 -0.8691 0.0376
vn -0.5509 0.8343 -0.0198
vn 1.0000 0.0001 0.0008
vn -0.9977 -0.0092 -0.0666
vn -0.1916 -0.5845 -0.7885
vn -0.0449 -0.5738 0.8178
vn -0.2216 0.9728 0.0671
vn -0.2932 0.8457 0.4460
vn -0.2508 -0.9642 0.0861
vn -0.8890 -0.0723 0.4522
vn -0.0003 0.0688 -0.9976
vn 0.0201 -0.0529 -0.9984
vn 0.0038 -0.0389 -0.9992
vn -0.4924 0.8529 -0.1736
vn 0.4932 0.8524 -0.1736
vn 0.5035 -0.8563 0.1151
vn -0.9995 -0.0012 -0.0307
vn -0.9963 -0.0408 -0.0752
vn 1.0000 0.0006 0.0006
vn -0.3428 0.2223 -0.9127
vn -0.5137 -0.6665 0.5403
vn 0.3708 0.2592 -0.8918
vn 0.4804 -0.5765 0.6609
vn -0.9967 -0.0234 -0.0771
vn 1.0000 0.0005 0.0008
vn -0.4185 0.6132 -0.6699
vn -0.5188 -0.7319 0.4417
vn 0.4780 0.7476 -0.4611
vn 0.4864 -0.7722 0.4087
vn -0.2691 0.9600 0.0768
vn -0.2662 -0.9607 -0.0783
vn -0.8999 -0.0692 0.4306
vn -0.7394 -0.3412 0.5804
vn -0.8391 0.5429 0.0335
vn -0.5488 0.8323 0.0777
vn -0.5513 -0.8343 -0.0000
vn -0.9858 0.1585 0.0548
vn 0.8620 -0.1737 -0.4763
vn -0.7345 0.6745 0.0751
vn 0.2550 0.6880 -0.6794
vt 0.500000 0.375000
vt 0.437500 0.437500
vt 0.437500 0.375000
vt 0.562500 0.437500
vt 0.500000 0.437500
vt 0.625000 0.375000
vt 0.562500 0.375000
vt 0.625000 0.500000
vt 0.562500 0.500000
vt 0.500000 0.500000
vt 0.437500 0.500000
vt 0.375000 0.500000
vt 0.375000 0.437500
vt 0.375000 0.375000
vt 0.437500 0.562500
vt 0.500000 0.625000
vt 0.437500 0.625000
vt 0.500000 0.562500
vt 0.562500 0.625000
vt 0.500000 0.687500
vt 0.437500 0.687500
vt 0.562500 0.687500
vt 0.375000 0.562500
vt 0.562500 0.562500
vt 0.625000 0.625000
vt 0.625000 0.687500
vt 0.625000 0.750000
vt 0.562500 0.750000
vt 0.500000 0.750000
vt 0.437500 0.750000
vt 0.375000 0.750000
vt 0.375000 0.687500
vt 0.375000 0.625000
vt 0.500000 0.875000
vt 0.468750 0.875000
vt 0.437500 0.875000
vt 0.500000 0.812500
vt 0.562500 0.875000
vt 0.437500 0.812500
vt 0.375000 0.812500
vt 0.562500 0.812500
vt 0.625000 0.812500
vt 0.375000 0.875000
vt 0.250000 0.562500
vt 0.312500 0.625000
vt 0.250000 0.625000
vt 0.312500 0.687500
vt 0.250000 0.687500
vt 0.250000 0.500000
vt 0.312500 0.562500
vt 0.312500 0.500000
vt 0.312500 0.750000
vt 0.250000 0.750000
vt 0.687500 0.562500
vt 0.750000 0.625000
vt 0.687500 0.625000
vt 0.750000 0.687500
vt 0.687500 0.687500
vt 0.625000 0.562500
vt 0.687500 0.500000
vt 0.750000 0.562500
vt 0.687500 0.750000
vt 1.000000 0.500000
vt 0.833333 1.000000
vt 0.833333 0.500000
vt 0.666667 1.000000
vt 0.666667 0.500000
vt 0.500000 1.000000
vt 0.500000 0.500000
vt 0.333333 0.500000
vt 0.042154 0.130000
vt 0.250000 0.010000
vt 0.457846 0.130000
vt 0.333333 1.000000
vt 0.166667 0.500000
vt 0.166667 1.000000
vt -0.000000 0.500000
vt 0.542154 0.130000
vt 0.542154 0.370000
vt 0.957846 0.370000
vt 1.000000 0.828637
vt 0.875000 1.000000
vt 0.875000 0.828637
vt 0.625000 0.828637
vt 0.500000 1.000000
vt 0.500000 0.828637
vt 0.625000 0.645722
vt 0.500000 0.500000
vt 0.750000 0.500000
vt 0.875000 0.645722
vt 0.875000 0.500000
vt 0.500000 0.645722
vt 0.750000 0.828637
vt 0.750000 0.645722
vt 1.000000 0.645722
vt 0.750000 1.000000
vt 1.000000 1.000000
vt 0.625000 1.000000
vt 0.749520 0.964446
vt 0.653402 0.965669
vt 0.844587 0.863513
vt 0.844268 0.965118
vt 0.647775 0.863148
vt 0.750840 0.864057
vt 0.749520 0.964446
vt 0.750840 0.864057
vt 0.647775 0.863149
vt 0.844587 0.863513
vt 0.844267 0.965117
vt 0.653402 0.965669
vt 0.749520 0.964446
vt 0.844268 0.965117
vt 0.750840 0.864057
vt 0.653402 0.965669
vt 0.844587 0.863513
vt 0.000000 0.000000
vt 0.833333 0.500000
vt -0.000000 1.000000
vt 0.500000 0.500000
vt 0.500000 0.500000
vt 0.166667 0.500000
vt -0.000000 0.500000
vt 0.833333 0.500000
vt 0.042154 0.370000
vt 0.457846 0.370000
vt 0.750000 0.010000
vt 0.333333 0.500000
vt 0.457846 0.250000
vt 0.625000 0.437500
vt 0.750000 0.500000
vt 0.957846 0.130000
vt 0.250000 0.490000
vt 0.625000 0.875000
vt 0.750000 0.750000
vt 0.250000 0.490000
vt 0.750000 0.490000
vt 0.750000 0.490000
s 0
f 26/1/1 28/2/1 25/3/1
f 26/1/2 30/4/2 29/5/2
f 7/6/3 30/4/3 27/7/3
f 30/4/4 4/8/4 9/9/4
f 29/5/5 9/9/5 10/10/5
f 28/2/6 10/10/6 11/11/6
f 28/2/7 3/12/7 5/13/7
f 25/3/8 5/13/8 6/14/8
f 31/15/9 35/16/9 34/17/9
f 32/18/10 36/19/10 35/16/10
f 34/17/11 38/20/11 37/21/11
f 35/16/12 39/22/12 38/20/12
f 3/12/13 31/15/13 14/23/13
f 11/11/14 32/18/14 31/15/14
f 10/10/15 33/24/15 32/18/15
f 4/8/16 33/24/16 9/9/16
f 33/24/17 16/25/17 36/19/17
f 36/19/18 17/26/18 39/22/18
f 39/22/19 2/27/19 18/28/19
f 38/20/20 18/28/20 19/29/20
f 37/21/21 19/29/21 20/30/21
f 37/21/22 1/31/22 12/32/22
f 13/33/23 37/21/23 12/32/23
f 14/23/24 34/17/24 13/33/24
f 44/34/25 58/35/25 43/36/25
f 41/37/26 45/38/26 44/34/26
f 1/31/27 40/39/27 22/40/27
f 20/30/28 41/37/28 40/39/28
f 19/29/29 42/41/29 41/37/29
f 2/27/30 42/41/30 18/28/30
f 23/42/31 45/38/31 42/41/31
f 22/40/32 43/36/32 21/43/32
f 46/44/33 49/45/33 48/46/33
f 48/46/34 51/47/34 50/48/34
f 6/49/35 47/50/35 46/44/35
f 5/51/36 14/23/36 47/50/36
f 47/50/37 13/33/37 49/45/37
f 49/45/38 12/32/38 51/47/38
f 51/47/39 1/31/39 22/52/39
f 51/47/40 21/53/40 50/48/40
f 52/54/41 55/55/41 54/56/41
f 54/56/42 57/57/42 56/58/42
f 4/8/43 52/54/43 15/59/43
f 8/60/44 53/61/44 52/54/44
f 57/57/45 23/62/45 56/58/45
f 56/58/46 2/27/46 17/26/46
f 16/25/47 56/58/47 17/26/47
f 15/59/48 54/56/48 16/25/48
f 59/63/49 62/64/49 61/65/49
f 61/65/50 64/66/50 63/67/50
f 63/67/51 66/68/51 65/69/51
f 66/68/52 67/70/52 65/69/52
f 68/71/53 66/72/53 64/73/53
f 68/74/54 69/75/54 67/70/54
f 70/76/55 59/77/55 69/75/55
f 67/78/56 69/79/56 61/80/56
f 86/81/57 97/82/57 99/83/57
f 100/84/58 80/85/58 90/86/58
f 84/87/59 79/88/59 77/8/59
f 75/89/60 84/87/60 77/8/60
f 82/90/61 75/89/61 73/91/61
f 71/63/62 82/90/62 73/91/62
f 100/84/63 85/92/63 84/87/63
f 101/93/64 84/87/64 83/94/64
f 99/83/65 83/94/65 82/90/65
f 81/95/66 99/83/66 82/90/66
f 97/82/67 93/96/67 96/96/67
f 72/97/68 92/82/68 97/82/68
f 98/98/69 93/96/69 94/98/69
f 80/85/70 94/98/70 95/85/70
f 76/99/71 97/82/71 96/96/71
f 78/100/72 96/96/72 98/98/72
f 87/101/73 97/82/73 74/102/73
f 78/100/74 100/84/74 89/103/74
f 89/103/75 101/93/75 88/104/75
f 87/101/76 101/93/76 99/83/76
f 150/105/77 104/100/77 103/99/77
f 151/106/78 107/103/78 152/107/78
f 154/108/79 102/102/79 105/101/79
f 150/105/80 102/102/80 153/109/80
f 151/106/81 105/101/81 106/104/81
f 152/107/82 104/100/82 149/110/82
f 155/111/83 108/102/83 156/112/83
f 158/113/84 111/101/84 112/104/84
f 160/114/85 113/103/85 110/100/85
f 155/111/86 110/100/86 109/99/86
f 158/113/87 113/103/87 159/107/87
f 156/112/88 111/101/88 157/115/88
f 110/100/89 115/99/89 109/99/89
f 112/104/90 133/103/90 113/103/90
f 108/102/91 117/101/91 111/101/91
f 108/102/92 115/99/92 114/102/92
f 111/101/93 118/104/93 112/104/93
f 110/100/94 119/103/94 116/100/94
f 114/102/95 121/99/95 120/102/95
f 117/101/96 124/104/96 118/104/96
f 119/103/97 122/100/97 116/100/97
f 115/99/98 122/100/98 121/99/98
f 119/103/99 124/104/99 125/103/99
f 117/101/100 120/102/100 123/101/100
f 124/104/101 131/103/101 125/103/101
f 123/101/102 126/102/102 129/101/102
f 121/99/103 126/102/103 120/102/103
f 124/104/104 129/101/104 130/104/104
f 125/103/105 128/100/105 122/100/105
f 121/99/106 128/100/106 127/99/106
f 132/104/107 137/103/107 133/103/107
f 118/104/108 132/104/108 112/104/108
f 119/103/109 134/104/109 118/104/109
f 119/103/110 133/103/110 135/103/110
f 139/103/111 141/103/111 143/103/111
f 135/103/112 137/103/112 139/103/112
f 135/103/113 138/104/113 134/104/113
f 134/104/114 136/104/114 132/104/114
f 141/103/115 142/104/115 143/103/115
f 139/103/116 142/104/116 138/104/116
f 138/104/117 140/104/117 136/104/117
f 136/104/118 141/103/118 137/103/118
f 94/98/119 146/96/119 147/98/119
f 91/97/120 145/82/120 92/82/120
f 94/98/121 148/85/121 95/85/121
f 92/82/122 146/96/122 93/96/122
f 128/100/123 130/104/123 127/99/123
f 127/99/124 129/101/124 126/102/124
f 89/103/125 149/110/125 78/100/125
f 88/104/126 154/108/126 151/106/126
f 74/102/127 150/105/127 153/109/127
f 87/101/128 153/109/128 154/108/128
f 88/104/129 152/107/129 89/103/129
f 78/100/130 150/105/130 76/99/130
f 102/102/131 157/115/131 105/101/131
f 106/104/132 159/107/132 107/103/132
f 103/99/133 160/114/133 155/111/133
f 104/100/134 159/107/134 160/114/134
f 106/104/135 157/115/135 158/113/135
f 103/99/136 156/112/136 102/102/136
f 162/97/137 163/65/137 161/63/137
f 163/65/138 166/66/138 165/67/138
f 165/67/139 168/68/139 167/69/139
f 168/68/140 169/70/140 167/69/140
f 170/74/141 175/68/141 176/74/141
f 368/74/142 369/75/142 416/116/142
f 170/74/143 171/75/143 169/70/143
f 190/67/144 185/65/144 191/117/144
f 177/76/145 182/74/145 183/76/145
f 164/64/146 174/66/146 166/66/146
f 164/64/147 172/97/147 173/64/147
f 166/66/148 175/68/148 168/68/148
f 182/71/149 181/72/149 180/73/149
f 174/66/150 181/68/150 175/68/150
f 173/64/151 178/97/151 179/64/151
f 177/76/152 178/118/152 172/118/152
f 175/68/153 182/74/153 176/74/153
f 173/64/154 180/66/154 174/66/154
f 188/70/155 210/75/155 209/70/155
f 192/75/156 188/70/156 193/70/156
f 191/117/157 184/63/157 194/63/157
f 190/67/158 187/69/158 186/67/158
f 192/75/159 184/77/159 189/75/159
f 193/70/160 187/69/160 195/119/160
f 221/70/161 195/119/161 219/120/161
f 218/121/162 194/122/162 192/75/162
f 217/67/163 195/119/163 190/67/163
f 222/63/164 191/117/164 194/63/164
f 218/121/165 193/70/165 221/70/165
f 220/123/166 190/67/166 191/117/166
f 183/76/167 178/118/167 200/116/167
f 182/116/168 197/116/168 196/116/168
f 181/116/169 198/116/169 197/116/169
f 196/116/170 183/124/170 182/71/170
f 199/116/171 178/116/171 200/116/171
f 199/116/172 201/116/172 179/116/172
f 198/116/173 202/116/173 203/116/173
f 179/125/174 202/73/174 180/73/174
f 206/80/175 208/126/175 210/79/175
f 187/69/176 207/67/176 186/67/176
f 185/65/177 205/63/177 184/63/177
f 189/75/178 205/77/178 210/75/178
f 187/69/179 209/70/179 208/69/179
f 186/67/180 206/65/180 185/65/180
f 163/65/181 214/67/181 211/123/181
f 171/75/182 212/127/182 169/70/182
f 161/63/183 211/123/183 213/63/183
f 165/67/184 216/69/184 214/67/184
f 161/77/185 215/121/185 171/75/185
f 169/70/186 216/69/186 167/69/186
f 211/123/187 217/67/187 220/123/187
f 215/121/188 221/70/188 212/127/188
f 213/63/189 220/123/189 222/63/189
f 214/67/190 219/120/190 217/67/190
f 215/121/191 222/77/191 218/121/191
f 212/127/192 219/120/192 216/69/192
f 204/116/193 73/116/193 201/116/193
f 203/116/194 77/116/194 79/116/194
f 201/125/195 73/125/195 75/128/195
f 145/82/196 225/96/196 146/96/196
f 146/96/197 226/98/197 147/98/197
f 145/82/198 223/97/198 224/82/198
f 147/98/199 227/85/199 148/85/199
f 248/2/200 26/1/200 25/3/200
f 26/1/201 250/4/201 27/7/201
f 250/4/202 7/6/202 27/7/202
f 250/4/203 231/8/203 233/129/203
f 249/5/204 234/9/204 250/4/204
f 248/2/205 235/10/205 249/5/205
f 230/12/206 248/2/206 232/13/206
f 232/13/207 25/3/207 6/14/207
f 251/15/208 255/16/208 252/18/208
f 252/18/209 256/19/209 253/24/209
f 254/17/210 258/20/210 255/16/210
f 255/16/211 259/22/211 256/19/211
f 230/12/212 251/15/212 236/11/212
f 236/11/213 252/18/213 235/10/213
f 235/10/214 253/24/214 234/9/214
f 253/24/215 231/8/215 234/9/215
f 253/24/216 241/25/216 240/59/216
f 256/19/217 242/26/217 241/25/217
f 259/22/218 229/27/218 242/26/218
f 258/20/219 243/28/219 259/22/219
f 257/21/220 244/29/220 258/20/220
f 228/31/221 257/21/221 237/32/221
f 238/33/222 257/21/222 254/17/222
f 239/23/223 254/17/223 251/15/223
f 261/37/224 45/38/224 262/41/224
f 228/31/225 260/39/225 245/30/225
f 245/30/226 261/37/226 244/29/226
f 244/29/227 262/41/227 243/28/227
f 262/41/228 229/27/228 243/28/228
f 45/38/229 247/42/229 262/41/229
f 246/40/230 43/36/230 260/39/230
f 46/44/231 264/45/231 263/50/231
f 48/46/232 265/47/232 264/45/232
f 6/49/233 263/50/233 232/51/233
f 232/51/234 239/23/234 230/12/234
f 263/50/235 238/33/235 239/23/235
f 264/45/236 237/32/236 238/33/236
f 265/47/237 228/31/237 237/32/237
f 21/53/238 265/47/238 50/48/238
f 266/54/239 55/55/239 53/61/239
f 267/56/240 57/57/240 55/55/240
f 231/8/241 266/54/241 233/60/241
f 233/60/242 53/61/242 7/130/242
f 247/62/243 57/57/243 268/58/243
f 229/27/244 268/58/244 242/26/244
f 241/25/245 268/58/245 267/56/245
f 240/59/246 267/56/246 266/54/246
f 269/63/247 272/64/247 270/97/247
f 271/65/248 274/66/248 272/64/248
f 273/67/249 276/68/249 274/66/249
f 277/70/250 276/68/250 275/69/250
f 278/71/251 280/124/251 274/73/251
f 279/75/252 278/74/252 277/70/252
f 269/77/253 280/76/253 279/75/253
f 271/80/254 277/78/254 273/131/254
f 86/81/255 297/82/255 72/97/255
f 300/84/256 80/85/256 298/98/256
f 79/88/257 289/87/257 285/8/257
f 283/89/258 289/87/258 288/94/258
f 283/89/259 287/90/259 281/91/259
f 71/63/260 287/90/260 81/95/260
f 85/92/261 300/84/261 289/87/261
f 289/87/262 301/93/262 288/94/262
f 288/94/263 299/83/263 287/90/263
f 81/95/264 299/83/264 86/81/264
f 294/96/265 297/82/265 296/96/265
f 293/82/266 72/97/266 297/82/266
f 298/98/267 294/96/267 296/96/267
f 80/85/268 295/98/268 298/98/268
f 284/99/269 297/82/269 282/102/269
f 286/100/270 296/96/270 284/99/270
f 297/82/271 290/101/271 282/102/271
f 300/84/272 286/100/272 292/103/272
f 301/93/273 292/103/273 291/104/273
f 290/101/274 301/93/274 291/104/274
f 348/105/275 304/100/275 347/110/275
f 307/103/276 349/106/276 350/107/276
f 352/108/277 302/102/277 351/109/277
f 302/102/278 348/105/278 351/109/278
f 349/106/279 305/101/279 352/108/279
f 304/100/280 350/107/280 347/110/280
f 308/102/281 353/111/281 354/112/281
f 356/113/282 311/101/282 355/115/282
f 358/114/283 313/103/283 357/107/283
f 353/111/284 310/100/284 358/114/284
f 313/103/285 356/113/285 357/107/285
f 311/101/286 354/112/286 355/115/286
f 315/99/287 310/100/287 309/99/287
f 333/103/288 312/104/288 313/103/288
f 317/101/289 308/102/289 311/101/289
f 308/102/290 315/99/290 309/99/290
f 318/104/291 311/101/291 312/104/291
f 310/100/292 319/103/292 313/103/292
f 314/102/293 321/99/293 315/99/293
f 324/104/294 317/101/294 318/104/294
f 322/100/295 319/103/295 316/100/295
f 315/99/296 322/100/296 316/100/296
f 319/103/297 324/104/297 318/104/297
f 317/101/298 320/102/298 314/102/298
f 331/103/299 324/104/299 325/103/299
f 323/101/300 326/102/300 320/102/300
f 326/102/301 321/99/301 320/102/301
f 324/104/302 329/101/302 323/101/302
f 328/100/303 325/103/303 322/100/303
f 321/99/304 328/100/304 322/100/304
f 337/103/305 332/104/305 333/103/305
f 332/104/306 318/104/306 312/104/306
f 334/104/307 319/103/307 318/104/307
f 319/103/308 333/103/308 313/103/308
f 339/103/309 341/103/309 337/103/309
f 335/103/310 337/103/310 333/103/310
f 338/104/311 335/103/311 334/104/311
f 336/104/312 334/104/312 332/104/312
f 341/103/313 342/104/313 340/104/313
f 342/104/314 339/103/314 338/104/314
f 340/104/315 338/104/315 336/104/315
f 341/103/316 336/104/316 337/103/316
f 295/98/317 345/96/317 294/96/317
f 344/82/318 91/97/318 293/82/318
f 148/85/319 295/98/319 95/85/319
f 345/96/320 293/82/320 294/96/320
f 328/100/321 330/104/321 331/103/321
f 327/99/322 329/101/322 330/104/322
f 347/110/323 292/103/323 286/100/323
f 291/104/324 352/108/324 290/101/324
f 282/102/325 348/105/325 284/99/325
f 290/101/326 351/109/326 282/102/326
f 350/107/327 291/104/327 292/103/327
f 348/105/328 286/100/328 284/99/328
f 355/115/329 302/102/329 305/101/329
f 357/107/330 306/104/330 307/103/330
f 303/99/331 358/114/331 304/100/331
f 304/100/332 357/107/332 307/103/332
f 306/104/333 355/115/333 305/101/333
f 354/112/334 303/99/334 302/102/334
f 361/65/335 360/97/335 359/63/335
f 361/65/336 364/66/336 362/64/336
f 363/67/337 366/68/337 364/66/337
f 367/70/338 366/68/338 365/69/338
f 368/74/339 373/68/339 366/68/339
f 416/116/340 359/63/340 360/97/340
f 162/97/341 171/75/341 415/116/341
f 381/65/342 386/67/342 387/117/342
f 177/76/343 379/74/343 374/74/343
f 372/66/344 362/64/344 364/66/344
f 362/64/345 370/97/345 360/97/345
f 373/68/346 364/66/346 366/68/346
f 379/71/347 183/124/347 375/132/347
f 378/68/348 372/66/348 373/68/348
f 371/64/349 375/97/349 370/97/349
f 375/118/350 177/76/350 370/118/350
f 379/74/351 373/68/351 374/74/351
f 377/66/352 371/64/352 372/66/352
f 384/70/353 399/75/353 385/75/353
f 384/70/354 388/75/354 389/70/354
f 380/63/355 387/117/355 390/63/355
f 386/67/356 383/69/356 391/119/356
f 388/75/357 380/77/357 390/122/357
f 383/69/358 389/70/358 391/119/358
f 391/119/359 410/70/359 408/120/359
f 407/121/360 390/122/360 411/77/360
f 406/67/361 391/119/361 408/120/361
f 411/63/362 387/117/362 409/123/362
f 389/70/363 407/121/363 410/70/363
f 409/123/364 386/67/364 406/67/364
f 183/76/365 200/116/365 375/118/365
f 197/116/366 379/116/366 196/116/366
f 198/116/367 378/116/367 197/116/367
f 196/116/368 379/71/368 183/124/368
f 199/116/369 375/116/369 376/116/369
f 392/116/370 199/116/370 376/116/370
f 198/116/371 393/116/371 377/116/371
f 393/73/372 376/125/372 377/73/372
f 399/79/373 397/126/373 395/80/373
f 396/67/374 383/69/374 382/67/374
f 394/63/375 381/65/375 380/63/375
f 385/75/376 394/77/376 380/77/376
f 383/69/377 398/70/377 384/70/377
f 395/65/378 382/67/378 381/65/378
f 361/65/379 403/67/379 363/67/379
f 401/127/380 369/75/380 367/70/380
f 359/63/381 400/123/381 361/65/381
f 363/67/382 405/69/382 365/69/382
f 404/121/383 359/77/383 369/75/383
f 405/69/384 367/70/384 365/69/384
f 400/123/385 406/67/385 403/67/385
f 410/70/386 404/121/386 401/127/386
f 402/63/387 409/123/387 400/123/387
f 403/67/388 408/120/388 405/69/388
f 404/121/389 411/77/389 402/77/389
f 408/120/390 401/127/390 405/69/390
f 281/116/391 204/116/391 392/116/391
f 203/116/392 285/116/392 393/116/392
f 283/128/393 281/125/393 392/125/393
f 413/96/394 344/82/394 345/96/394
f 414/98/395 345/96/395 346/98/395
f 344/82/396 223/97/396 144/97/396
f 227/85/397 346/98/397 148/85/397
f 415/116/398 176/74/398 177/76/398
f 416/116/399 374/74/399 368/74/399
f 172/118/400 415/116/400 177/76/400
f 416/116/401 370/118/401 177/76/401
f 26/1/402 29/5/402 28/2/402
f 26/1/403 27/7/403 30/4/403
f 7/6/404 8/129/404 30/4/404
f 30/4/405 8/129/405 4/8/405
f 29/5/406 30/4/406 9/9/406
f 28/2/407 29/5/407 10/10/407
f 28/2/408 11/11/408 3/12/408
f 25/3/409 28/2/409 5/13/409
f 31/15/410 32/18/410 35/16/410
f 32/18/411 33/24/411 36/19/411
f 34/17/412 35/16/412 38/20/412
f 35/16/413 36/19/413 39/22/413
f 3/12/414 11/11/414 31/15/414
f 11/11/415 10/10/415 32/18/415
f 10/10/416 9/9/416 33/24/416
f 4/8/417 15/59/417 33/24/417
f 33/24/418 15/59/418 16/25/418
f 36/19/419 16/25/419 17/26/419
f 39/22/420 17/26/420 2/27/420
f 38/20/421 39/22/421 18/28/421
f 37/21/422 38/20/422 19/29/422
f 37/21/423 20/30/423 1/31/423
f 13/33/424 34/17/424 37/21/424
f 14/23/425 31/15/425 34/17/425
f 43/36/426 40/39/426 44/34/426
f 40/39/427 41/37/427 44/34/427
f 41/37/428 42/41/428 45/38/428
f 1/31/429 20/30/429 40/39/429
f 20/30/430 19/29/430 41/37/430
f 19/29/431 18/28/431 42/41/431
f 2/27/432 23/42/432 42/41/432
f 23/42/433 24/133/433 45/38/433
f 22/40/434 40/39/434 43/36/434
f 46/44/435 47/50/435 49/45/435
f 48/46/436 49/45/436 51/47/436
f 6/49/437 5/51/437 47/50/437
f 5/51/438 3/12/438 14/23/438
f 47/50/439 14/23/439 13/33/439
f 49/45/440 13/33/440 12/32/440
f 51/47/441 12/32/441 1/31/441
f 51/47/442 22/52/442 21/53/442
f 52/54/443 53/61/443 55/55/443
f 54/56/444 55/55/444 57/57/444
f 4/8/445 8/60/445 52/54/445
f 8/60/446 7/130/446 53/61/446
f 57/57/447 24/134/447 23/62/447
f 56/58/448 23/62/448 2/27/448
f 16/25/449 54/56/449 56/58/449
f 15/59/450 52/54/450 54/56/450
f 59/63/49 60/97/49 62/64/49
f 61/65/50 62/64/50 64/66/50
f 63/67/51 64/66/51 66/68/51
f 66/68/451 68/74/451 67/70/451
f 64/73/53 62/125/53 68/71/53
f 62/125/53 60/135/53 70/124/53
f 68/71/53 62/125/53 70/124/53
f 68/74/54 70/76/54 69/75/54
f 70/76/55 60/118/55 59/77/55
f 69/79/56 59/136/56 61/80/56
f 61/80/56 63/131/56 67/78/56
f 63/131/56 65/126/56 67/78/56
f 86/81/452 72/97/452 97/82/452
f 100/84/453 98/98/453 80/85/453
f 84/87/454 85/92/454 79/88/454
f 75/89/455 83/94/455 84/87/455
f 82/90/456 83/94/456 75/89/456
f 71/63/457 81/95/457 82/90/457
f 100/84/458 90/86/458 85/92/458
f 101/93/459 100/84/459 84/87/459
f 99/83/460 101/93/460 83/94/460
f 81/95/461 86/81/461 99/83/461
f 97/82/462 92/82/462 93/96/462
f 72/97/463 91/97/463 92/82/463
f 98/98/464 96/96/464 93/96/464
f 80/85/465 98/98/465 94/98/465
f 76/99/466 74/102/466 97/82/466
f 78/100/467 76/99/467 96/96/467
f 87/101/468 99/83/468 97/82/468
f 78/100/469 98/98/469 100/84/469
f 89/103/470 100/84/470 101/93/470
f 87/101/471 88/104/471 101/93/471
f 150/105/472 149/110/472 104/100/472
f 151/106/473 106/104/473 107/103/473
f 154/108/474 153/109/474 102/102/474
f 150/105/475 103/99/475 102/102/475
f 151/106/476 154/108/476 105/101/476
f 152/107/477 107/103/477 104/100/477
f 155/111/478 109/99/478 108/102/478
f 158/113/479 157/115/479 111/101/479
f 160/114/480 159/107/480 113/103/480
f 155/111/481 160/114/481 110/100/481
f 158/113/482 112/104/482 113/103/482
f 156/112/483 108/102/483 111/101/483
f 110/100/484 116/100/484 115/99/484
f 112/104/485 132/104/485 133/103/485
f 108/102/486 114/102/486 117/101/486
f 108/102/487 109/99/487 115/99/487
f 111/101/488 117/101/488 118/104/488
f 110/100/489 113/103/489 119/103/489
f 114/102/490 115/99/490 121/99/490
f 117/101/96 123/101/96 124/104/96
f 119/103/491 125/103/491 122/100/491
f 115/99/492 116/100/492 122/100/492
f 119/103/99 118/104/99 124/104/99
f 117/101/493 114/102/493 120/102/493
f 124/104/494 130/104/494 131/103/494
f 123/101/495 120/102/495 126/102/495
f 121/99/496 127/99/496 126/102/496
f 124/104/497 123/101/497 129/101/497
f 125/103/498 131/103/498 128/100/498
f 121/99/499 122/100/499 128/100/499
f 132/104/107 136/104/107 137/103/107
f 118/104/500 134/104/500 132/104/500
f 119/103/501 135/103/501 134/104/501
f 119/103/502 113/103/502 133/103/502
f 139/103/503 137/103/503 141/103/503
f 135/103/112 133/103/112 137/103/112
f 135/103/113 139/103/113 138/104/113
f 134/104/114 138/104/114 136/104/114
f 141/103/504 140/104/504 142/104/504
f 139/103/505 143/103/505 142/104/505
f 138/104/506 142/104/506 140/104/506
f 136/104/507 140/104/507 141/103/507
f 94/98/508 93/96/508 146/96/508
f 91/97/509 144/97/509 145/82/509
f 94/98/510 147/98/510 148/85/510
f 92/82/511 145/82/511 146/96/511
f 128/100/512 131/103/512 130/104/512
f 127/99/513 130/104/513 129/101/513
f 89/103/514 152/107/514 149/110/514
f 88/104/515 87/101/515 154/108/515
f 74/102/516 76/99/516 150/105/516
f 87/101/517 74/102/517 153/109/517
f 88/104/518 151/106/518 152/107/518
f 78/100/519 149/110/519 150/105/519
f 102/102/520 156/112/520 157/115/520
f 106/104/521 158/113/521 159/107/521
f 103/99/522 104/100/522 160/114/522
f 104/100/523 107/103/523 159/107/523
f 106/104/524 105/101/524 157/115/524
f 103/99/525 155/111/525 156/112/525
f 162/97/526 164/64/526 163/65/526
f 163/65/527 164/64/527 166/66/527
f 165/67/528 166/66/528 168/68/528
f 168/68/529 170/74/529 169/70/529
f 170/74/530 168/68/530 175/68/530
f 368/74/531 367/70/531 369/75/531
f 170/74/532 415/116/532 171/75/532
f 190/67/533 186/67/533 185/65/533
f 177/76/534 176/74/534 182/74/534
f 164/64/535 173/64/535 174/66/535
f 164/64/536 162/97/536 172/97/536
f 166/66/537 174/66/537 175/68/537
f 180/73/538 179/125/538 182/71/538
f 179/125/539 178/132/539 182/71/539
f 178/132/540 183/124/540 182/71/540
f 174/66/541 180/66/541 181/68/541
f 173/64/542 172/97/542 178/97/542
f 177/76/543 183/76/543 178/118/543
f 175/68/544 181/68/544 182/74/544
f 173/64/545 179/64/545 180/66/545
f 188/70/546 189/75/546 210/75/546
f 192/75/547 189/75/547 188/70/547
f 191/117/548 185/65/548 184/63/548
f 190/67/549 195/119/549 187/69/549
f 192/75/550 194/122/550 184/77/550
f 193/70/551 188/70/551 187/69/551
f 221/70/552 193/70/552 195/119/552
f 218/121/553 222/77/553 194/122/553
f 217/67/554 219/120/554 195/119/554
f 222/63/555 220/123/555 191/117/555
f 218/121/556 192/75/556 193/70/556
f 220/123/557 217/67/557 190/67/557
f 182/116/558 181/116/558 197/116/558
f 181/116/559 180/116/559 198/116/559
f 199/116/560 179/116/560 178/116/560
f 199/116/561 204/116/561 201/116/561
f 198/116/562 180/116/562 202/116/562
f 179/125/563 201/125/563 202/73/563
f 210/79/564 205/137/564 206/80/564
f 206/80/565 207/131/565 208/126/565
f 208/126/566 209/78/566 210/79/566
f 187/69/567 208/69/567 207/67/567
f 185/65/568 206/65/568 205/63/568
f 189/75/569 184/77/569 205/77/569
f 187/69/570 188/70/570 209/70/570
f 186/67/571 207/67/571 206/65/571
f 163/65/572 165/67/572 214/67/572
f 171/75/573 215/121/573 212/127/573
f 161/63/574 163/65/574 211/123/574
f 165/67/575 167/69/575 216/69/575
f 161/77/576 213/77/576 215/121/576
f 169/70/577 212/127/577 216/69/577
f 211/123/578 214/67/578 217/67/578
f 215/121/573 218/121/573 221/70/573
f 213/63/579 211/123/579 220/123/579
f 214/67/580 216/69/580 219/120/580
f 215/121/581 213/77/581 222/77/581
f 212/127/582 221/70/582 219/120/582
f 204/116/583 71/116/583 73/116/583
f 203/116/584 202/116/584 77/116/584
f 77/73/585 202/73/585 75/128/585
f 202/73/586 201/125/586 75/128/586
f 145/82/587 224/82/587 225/96/587
f 146/96/197 225/96/197 226/98/197
f 145/82/588 144/97/588 223/97/588
f 147/98/589 226/98/589 227/85/589
f 248/2/590 249/5/590 26/1/590
f 26/1/591 249/5/591 250/4/591
f 250/4/592 233/129/592 7/6/592
f 250/4/593 234/9/593 231/8/593
f 249/5/594 235/10/594 234/9/594
f 248/2/595 236/11/595 235/10/595
f 230/12/596 236/11/596 248/2/596
f 232/13/597 248/2/597 25/3/597
f 251/15/598 254/17/598 255/16/598
f 252/18/599 255/16/599 256/19/599
f 254/17/600 257/21/600 258/20/600
f 255/16/601 258/20/601 259/22/601
f 230/12/602 239/23/602 251/15/602
f 236/11/603 251/15/603 252/18/603
f 235/10/604 252/18/604 253/24/604
f 253/24/605 240/59/605 231/8/605
f 253/24/606 256/19/606 241/25/606
f 256/19/607 259/22/607 242/26/607
f 259/22/608 243/28/608 229/27/608
f 258/20/609 244/29/609 243/28/609
f 257/21/610 245/30/610 244/29/610
f 228/31/611 245/30/611 257/21/611
f 238/33/612 237/32/612 257/21/612
f 239/23/613 238/33/613 254/17/613
f 261/37/614 260/39/614 44/34/614
f 260/39/615 43/36/615 44/34/615
f 261/37/616 44/34/616 45/38/616
f 228/31/617 246/40/617 260/39/617
f 245/30/618 260/39/618 261/37/618
f 244/29/619 261/37/619 262/41/619
f 262/41/620 247/42/620 229/27/620
f 45/38/621 24/133/621 247/42/621
f 246/40/622 21/43/622 43/36/622
f 46/44/623 48/46/623 264/45/623
f 48/46/624 50/48/624 265/47/624
f 6/49/625 46/44/625 263/50/625
f 232/51/626 263/50/626 239/23/626
f 263/50/627 264/45/627 238/33/627
f 264/45/628 265/47/628 237/32/628
f 265/47/629 246/52/629 228/31/629
f 21/53/630 246/52/630 265/47/630
f 266/54/631 267/56/631 55/55/631
f 267/56/632 268/58/632 57/57/632
f 231/8/633 240/59/633 266/54/633
f 233/60/634 266/54/634 53/61/634
f 247/62/635 24/134/635 57/57/635
f 229/27/636 247/62/636 268/58/636
f 241/25/637 242/26/637 268/58/637
f 240/59/638 241/25/638 267/56/638
f 269/63/247 271/65/247 272/64/247
f 271/65/248 273/67/248 274/66/248
f 273/67/249 275/69/249 276/68/249
f 277/70/639 278/74/639 276/68/639
f 270/135/251 272/125/251 280/124/251
f 272/125/251 274/73/251 280/124/251
f 274/73/251 276/72/251 278/71/251
f 279/75/252 280/76/252 278/74/252
f 269/77/253 270/118/253 280/76/253
f 271/80/254 269/136/254 279/79/254
f 279/79/254 277/78/254 271/80/254
f 277/78/254 275/126/254 273/131/254
f 86/81/640 299/83/640 297/82/640
f 300/84/641 90/86/641 80/85/641
f 79/88/642 85/92/642 289/87/642
f 283/89/643 285/8/643 289/87/643
f 283/89/644 288/94/644 287/90/644
f 71/63/645 281/91/645 287/90/645
f 85/92/646 90/86/646 300/84/646
f 289/87/647 300/84/647 301/93/647
f 288/94/648 301/93/648 299/83/648
f 81/95/649 287/90/649 299/83/649
f 294/96/650 293/82/650 297/82/650
f 293/82/651 91/97/651 72/97/651
f 298/98/652 295/98/652 294/96/652
f 80/85/653 95/85/653 295/98/653
f 284/99/654 296/96/654 297/82/654
f 286/100/655 298/98/655 296/96/655
f 297/82/656 299/83/656 290/101/656
f 300/84/657 298/98/657 286/100/657
f 301/93/658 300/84/658 292/103/658
f 290/101/659 299/83/659 301/93/659
f 348/105/660 303/99/660 304/100/660
f 307/103/661 306/104/661 349/106/661
f 352/108/662 305/101/662 302/102/662
f 302/102/663 303/99/663 348/105/663
f 349/106/664 306/104/664 305/101/664
f 304/100/665 307/103/665 350/107/665
f 308/102/666 309/99/666 353/111/666
f 356/113/667 312/104/667 311/101/667
f 358/114/668 310/100/668 313/103/668
f 353/111/669 309/99/669 310/100/669
f 313/103/670 312/104/670 356/113/670
f 311/101/671 308/102/671 354/112/671
f 315/99/672 316/100/672 310/100/672
f 333/103/673 332/104/673 312/104/673
f 317/101/674 314/102/674 308/102/674
f 308/102/675 314/102/675 315/99/675
f 318/104/676 317/101/676 311/101/676
f 310/100/677 316/100/677 319/103/677
f 314/102/678 320/102/678 321/99/678
f 324/104/294 323/101/294 317/101/294
f 322/100/679 325/103/679 319/103/679
f 315/99/680 321/99/680 322/100/680
f 319/103/297 325/103/297 324/104/297
f 317/101/681 323/101/681 320/102/681
f 331/103/682 330/104/682 324/104/682
f 323/101/683 329/101/683 326/102/683
f 326/102/684 327/99/684 321/99/684
f 324/104/685 330/104/685 329/101/685
f 328/100/686 331/103/686 325/103/686
f 321/99/687 327/99/687 328/100/687
f 337/103/305 336/104/305 332/104/305
f 332/104/688 334/104/688 318/104/688
f 334/104/689 335/103/689 319/103/689
f 319/103/690 335/103/690 333/103/690
f 339/103/691 343/103/691 341/103/691
f 335/103/310 339/103/310 337/103/310
f 338/104/692 339/103/692 335/103/692
f 336/104/312 338/104/312 334/104/312
f 341/103/693 343/103/693 342/104/693
f 342/104/694 343/103/694 339/103/694
f 340/104/695 342/104/695 338/104/695
f 341/103/696 340/104/696 336/104/696
f 295/98/697 346/98/697 345/96/697
f 344/82/698 144/97/698 91/97/698
f 148/85/699 346/98/699 295/98/699
f 345/96/700 344/82/700 293/82/700
f 328/100/701 327/99/701 330/104/701
f 327/99/702 326/102/702 329/101/702
f 347/110/703 350/107/703 292/103/703
f 291/104/704 349/106/704 352/108/704
f 282/102/705 351/109/705 348/105/705
f 290/101/706 352/108/706 351/109/706
f 350/107/707 349/106/707 291/104/707
f 348/105/708 347/110/708 286/100/708
f 355/115/709 354/112/709 302/102/709
f 357/107/710 356/113/710 306/104/710
f 303/99/711 353/111/711 358/114/711
f 304/100/712 358/114/712 357/107/712
f 306/104/713 356/113/713 355/115/713
f 354/112/714 353/111/714 303/99/714
f 361/65/715 362/64/715 360/97/715
f 361/65/716 363/67/716 364/66/716
f 363/67/717 365/69/717 366/68/717
f 367/70/718 368/74/718 366/68/718
f 368/74/719 374/74/719 373/68/719
f 416/116/720 369/75/720 359/63/720
f 162/97/721 161/63/721 171/75/721
f 381/65/722 382/67/722 386/67/722
f 177/76/723 183/76/723 379/74/723
f 372/66/724 371/64/724 362/64/724
f 362/64/725 371/64/725 370/97/725
f 373/68/726 372/66/726 364/66/726
f 375/132/727 376/125/727 379/71/727
f 376/125/728 377/73/728 379/71/728
f 377/73/729 378/72/729 379/71/729
f 378/68/730 377/66/730 372/66/730
f 371/64/731 376/64/731 375/97/731
f 375/118/732 183/76/732 177/76/732
f 379/74/733 378/68/733 373/68/733
f 377/66/734 376/64/734 371/64/734
f 384/70/735 398/70/735 399/75/735
f 384/70/736 385/75/736 388/75/736
f 380/63/737 381/65/737 387/117/737
f 386/67/738 382/67/738 383/69/738
f 388/75/739 385/75/739 380/77/739
f 383/69/740 384/70/740 389/70/740
f 391/119/741 389/70/741 410/70/741
f 407/121/742 388/75/742 390/122/742
f 406/67/743 386/67/743 391/119/743
f 411/63/744 390/63/744 387/117/744
f 389/70/745 388/75/745 407/121/745
f 409/123/746 387/117/746 386/67/746
f 197/116/747 378/116/747 379/116/747
f 198/116/748 377/116/748 378/116/748
f 199/116/749 200/116/749 375/116/749
f 392/116/750 204/116/750 199/116/750
f 198/116/751 203/116/751 393/116/751
f 393/73/752 392/125/752 376/125/752
f 395/80/753 394/137/753 399/79/753
f 399/79/754 398/78/754 397/126/754
f 397/126/755 396/131/755 395/80/755
f 396/67/374 397/69/374 383/69/374
f 394/63/756 395/65/756 381/65/756
f 385/75/757 399/75/757 394/77/757
f 383/69/758 397/69/758 398/70/758
f 395/65/759 396/67/759 382/67/759
f 361/65/760 400/123/760 403/67/760
f 401/127/761 404/121/761 369/75/761
f 359/63/762 402/63/762 400/123/762
f 363/67/763 403/67/763 405/69/763
f 404/121/764 402/77/764 359/77/764
f 405/69/765 401/127/765 367/70/765
f 400/123/766 409/123/766 406/67/766
f 410/70/767 407/121/767 404/121/767
f 402/63/768 411/63/768 409/123/768
f 403/67/769 406/67/769 408/120/769
f 404/121/770 407/121/770 411/77/770
f 408/120/771 410/70/771 401/127/771
f 281/116/772 71/116/772 204/116/772
f 203/116/773 79/116/773 285/116/773
f 392/125/774 393/73/774 283/128/774
f 393/73/775 285/73/775 283/128/775
f 413/96/776 412/82/776 344/82/776
f 414/98/395 413/96/395 345/96/395
f 344/82/777 412/82/777 223/97/777
f 227/85/778 414/98/778 346/98/778
f 415/116/779 170/74/779 176/74/779
f 416/116/780 177/76/780 374/74/780
f 172/118/781 162/97/781 415/116/781
f 416/116/782 360/97/782 370/118/782
