# Blender 5.0.0
# www.blender.org
o body
v 0.496492 -0.836496 9.973421
v 0.583336 -0.739346 11.244358
v 0.476577 0.278155 10.040679
v 0.565221 0.486406 11.280071
v 0.246627 0.341088 9.944791
v -0.000000 0.369678 9.890109
v -0.000000 0.658669 11.413716
v 0.340386 0.599495 11.369202
v 0.631619 0.554538 11.038737
v 0.646511 0.545035 10.679847
v 0.576865 0.424383 10.308067
v 0.562963 -0.631520 9.887324
v 0.591550 -0.317049 9.858622
v 0.550611 0.022595 9.929718
v 0.654626 0.225672 11.359406
v 0.703310 -0.145583 11.392301
v 0.665741 -0.502555 11.338456
v 0.654036 -0.830154 10.991456
v 0.671875 -0.892060 10.618779
v 0.600616 -0.885222 10.239285
v -0.000000 -0.970373 9.807527
v 0.267098 -0.925011 9.866587
v 0.358752 -0.817453 11.332163
v -0.000000 -0.856364 11.377350
v -0.000000 0.674132 10.261348
v -0.000000 0.858995 10.680043
v -0.000000 0.860968 11.085737
v 0.290903 0.614872 10.287299
v 0.337850 0.778809 10.683319
v 0.344425 0.778265 11.066061
v 0.749642 0.108478 10.267752
v 0.841644 0.194318 10.665174
v 0.811618 0.221480 11.050869
v 0.812126 -0.260919 10.224596
v 0.912852 -0.205322 10.645388
v 0.878665 -0.167071 11.056607
v 0.764291 -0.610047 10.227278
v 0.857600 -0.587271 10.629103
v 0.825386 -0.539852 11.023236
v 0.317045 -1.052687 10.203225
v 0.365526 -1.074154 10.487488
v 0.369003 -0.996871 11.010913
v -0.000000 -1.112858 10.225407
v -0.000000 -1.133464 10.482559
v -0.000000 -1.050112 11.030511
v -0.000000 0.004889 9.623932
v 0.255090 0.002209 9.709431
v -0.000000 -0.369841 9.508519
v 0.272938 -0.355472 9.607668
v -0.000000 -0.709899 9.574414
v 0.266506 -0.681006 9.662100
v 0.373244 0.271110 11.546013
v -0.000000 0.302962 11.609869
v 0.399412 -0.129139 11.598638
v -0.000000 -0.120306 11.668367
v 0.383312 -0.515705 11.526978
v -0.000000 -0.530811 11.591546
v -0.000000 -1.256591 10.293668
v 0.899103 0.129189 10.654518
v 0.964296 0.059744 10.675604
v 0.972883 0.157159 10.472159
v 1.038076 0.087714 10.493245
v 0.910948 0.053346 10.229018
v 0.976141 -0.016099 10.250104
v 0.775233 -0.078438 10.168233
v 0.840426 -0.147883 10.189319
v 0.701452 -0.106409 10.350592
v 0.766645 -0.175854 10.371677
v 0.763387 -0.002595 10.593734
v 0.828580 -0.072040 10.614820
v 0.000000 0.608116 7.037180
v -0.000044 0.616656 9.186032
v 0.504716 0.474076 6.851562
v 0.828603 0.421047 8.875428
v 0.598099 0.170519 6.809260
v 0.958572 0.136515 9.078697
v 0.495931 -0.125236 6.770485
v 0.866807 -0.146105 8.896564
v -0.000000 -0.261991 6.898274
v 0.000046 -0.520553 8.873631
v -0.000000 0.657830 7.670238
v 0.570473 0.540963 7.699473
v 0.767003 0.204368 7.689820
v 0.571976 -0.219747 7.675191
v -0.000000 -0.421472 7.670238
v 0.000173 0.708159 8.756362
v 0.703747 0.613597 8.483301
v 0.718558 0.380635 8.273806
v 0.697318 0.018062 8.314837
v 0.000474 -0.494565 8.541889
v -0.000000 0.515979 9.356515
v 0.439945 0.389380 9.324210
v 0.633971 0.091204 9.303979
v 0.435110 -0.213158 9.300847
v -0.000000 -0.334730 9.148897
v 0.958142 0.135584 9.090653
v 0.710218 0.433030 9.051960
v 0.738425 -0.260120 9.139246
v 0.614287 0.605564 8.326755
v 0.622165 -0.238648 8.415272
v 0.716525 0.354251 8.257999
v 1.568441 0.927306 7.286002
v 1.659582 0.771059 7.253031
v 1.563794 0.555055 7.210470
v 1.164474 0.967883 7.133572
v 1.097276 0.829733 7.038922
v 1.161230 0.597130 7.051696
v 1.945185 1.060508 5.828829
v 2.010603 0.917233 5.813700
v 1.943154 0.756774 5.813517
v 1.639176 1.066197 5.752003
v 1.585649 0.929172 5.699499
v 1.637695 0.762772 5.733131
v 1.971247 1.135459 5.754212
v 2.060306 0.929399 5.800565
v 1.988831 0.658614 5.747598
v 1.817264 1.139172 5.602127
v 1.787554 0.951172 5.579364
v 1.816068 0.628038 5.564845
v 2.245011 1.235622 5.339212
v 2.301643 0.970501 5.314968
v 2.243385 0.651629 5.298915
v 2.084432 1.176499 5.161131
v 2.054723 0.988499 5.138368
v 2.083236 0.665365 5.123849
v 2.184870 1.196865 4.753508
v 2.196077 1.019340 4.701747
v 2.184936 0.791710 4.726037
v 2.094473 1.118478 4.808688
v 2.068183 1.014486 4.779293
v 2.093803 0.786204 4.783917
v 1.576285 0.897441 5.482294
v 1.607773 0.754100 5.521819
v 1.771216 0.911877 5.431394
v 1.791621 0.634750 5.425295
v 1.629030 0.863938 5.265556
v 1.654831 0.746484 5.297943
v 1.788756 0.875767 5.223849
v 1.805475 0.648690 5.218851
v 1.704787 0.828480 5.037945
v 1.715627 0.744456 5.064492
v 1.822592 0.834593 5.035622
v 1.831815 0.672499 5.034560
v -0.000000 0.404502 9.487057
v 0.158780 0.287954 9.458661
v 0.252719 0.101461 9.395141
v 0.182110 -0.006843 9.395141
v -0.000000 -0.116119 9.357113
v 1.513457 0.504453 7.308288
v 1.609217 0.719194 7.382506
v 1.078577 0.815538 7.098488
v 1.131938 0.570371 7.105330
v 1.519667 0.882690 7.416380
v 1.135871 0.947079 7.216663
v 1.698689 0.803033 7.135349
v 1.610076 0.958812 7.156821
v 1.199386 0.974774 7.038178
v 1.127148 0.828079 6.965797
v 1.197586 0.603952 7.003181
v 1.606353 0.587026 7.122500
v 0.508211 -0.280383 4.147693
v 0.519509 0.582957 5.328409
v 0.863355 -0.484575 4.207853
v 1.026829 0.305548 5.603384
v 0.863355 -0.734625 4.310440
v 1.028275 -0.183585 5.723155
v 0.508191 -0.929137 4.385350
v 0.513592 -0.458842 5.685024
v 0.152952 -0.729233 4.316604
v 0.144936 -0.147571 5.596749
v 0.153066 -0.463604 4.224581
v 0.512164 0.750545 5.621869
v 1.018174 0.392251 5.796895
v 1.020134 -0.115162 5.894856
v 0.515757 -0.423484 5.777521
v 0.136937 -0.108716 5.668461
v -0.000000 0.806853 5.728701
v 0.418974 0.828584 5.831619
v 0.879472 0.485384 6.302392
v 0.876436 -0.024249 6.274136
v 0.449171 -0.328563 6.026297
v 0.134332 -0.065682 5.763333
v 0.000000 0.860904 5.853739
v 0.430883 -0.346154 1.878618
v 0.691277 -0.496366 1.872444
v 0.691277 -0.796789 1.860097
v 0.430883 -0.947009 1.853923
v 0.170489 -0.796837 1.860089
v 0.170489 -0.496366 1.872444
v 0.822906 -0.781412 3.637610
v 0.822906 -0.534429 3.635605
v 0.152560 -0.576554 3.637733
v 0.152560 -0.824412 3.640179
v 0.487733 -0.314912 3.664037
v 0.487733 -1.009153 3.999105
v -0.000000 -0.061401 5.835764
v -0.000000 -0.250418 5.966043
v -0.000000 -0.288153 6.229969
v 0.000000 0.826451 6.445998
v 0.000000 0.868944 6.115371
v 0.713104 0.435693 6.613613
v 0.709689 -0.068876 6.537138
v -0.000000 -0.239185 6.572194
v 0.000000 0.628045 6.788177
v 0.430883 -0.476250 0.247282
v 0.625711 -0.589269 0.230859
v 0.625711 -0.816132 0.233956
v 0.430883 -0.928657 0.235826
v 0.236055 -0.815677 0.235119
v 0.236055 -0.589358 0.230806
v 0.856043 -0.538059 4.124565
v 0.152881 -0.789082 4.194921
v 0.504509 -0.314862 4.088687
v 0.856043 -0.777213 4.189384
v 0.152975 -0.524958 4.137019
v 0.504493 -0.956560 4.315221
v 0.847217 -0.812951 4.038207
v 0.152864 -0.557364 4.014092
v 0.500029 -0.985233 4.227879
v 0.847217 -0.555303 4.004848
v 0.152796 -0.820366 4.046961
v 0.500040 -0.358617 3.996667
v -0.000000 0.330200 10.127958
v 0.182652 0.209765 10.127958
v 0.252719 0.101461 10.127958
v 0.182110 -0.006843 10.127958
v -0.000000 -0.127185 10.072885
v -0.496493 -0.836496 9.973421
v -0.583336 -0.739346 11.244358
v -0.476577 0.278155 10.040679
v -0.565221 0.486406 11.280071
v -0.246627 0.341088 9.944791
v -0.340386 0.599495 11.369202
v -0.631619 0.554538 11.038737
v -0.646511 0.545035 10.679847
v -0.576865 0.424383 10.308067
v -0.562963 -0.631520 9.887324
v -0.591550 -0.317049 9.858622
v -0.550611 0.022595 9.929718
v -0.654626 0.225672 11.359406
v -0.703310 -0.145583 11.392301
v -0.665741 -0.502555 11.338456
v -0.654036 -0.830154 10.991456
v -0.671875 -0.892060 10.618779
v -0.600616 -0.885222 10.239285
v -0.267098 -0.925011 9.866587
v -0.358752 -0.817453 11.332163
v -0.290903 0.614872 10.287299
v -0.337850 0.778809 10.683319
v -0.344425 0.778265 11.066061
v -0.749642 0.108478 10.267752
v -0.841644 0.194318 10.665174
v -0.811618 0.221480 11.050869
v -0.812126 -0.260919 10.224596
v -0.912852 -0.205322 10.645388
v -0.878665 -0.167071 11.056607
v -0.764291 -0.610047 10.227278
v -0.857600 -0.587271 10.629103
v -0.825386 -0.539852 11.023236
v -0.317045 -1.052687 10.203225
v -0.365526 -1.074154 10.487488
v -0.369003 -0.996871 11.010913
v -0.255090 0.002209 9.709431
v -0.272938 -0.355472 9.607668
v -0.266506 -0.681006 9.662100
v -0.373244 0.271110 11.546013
v -0.399412 -0.129139 11.598638
v -0.383312 -0.515705 11.526978
v -0.899103 0.129189 10.654518
v -0.964296 0.059744 10.675604
v -0.972883 0.157159 10.472159
v -1.038076 0.087714 10.493245
v -0.910948 0.053346 10.229018
v -0.976141 -0.016099 10.250104
v -0.775233 -0.078438 10.168233
v -0.840426 -0.147883 10.189319
v -0.701452 -0.106409 10.350592
v -0.766645 -0.175854 10.371677
v -0.763387 -0.002595 10.593734
v -0.828580 -0.072040 10.614820
v -0.504526 0.476275 6.917360
v -0.822631 0.265328 8.776366
v -0.598793 0.169840 6.874658
v -0.956864 0.104712 9.086509
v -0.495657 -0.136423 6.832063
v -0.863617 -0.228659 9.040678
v -0.567918 0.476783 7.678085
v -0.761891 0.073234 7.682829
v -0.569732 -0.284467 7.689948
v -0.690052 0.286223 8.343579
v -0.702090 -0.016516 8.253111
v -0.684310 -0.317226 8.438642
v -0.440475 0.406438 9.309606
v -0.634106 0.099411 9.306821
v -0.435363 -0.204769 9.315350
v -0.956592 0.109163 9.097100
v -0.708804 0.401387 8.976894
v -0.738408 -0.260027 9.199903
v -0.607171 0.438032 8.242910
v -0.616848 -0.361658 8.490597
v -0.701605 -0.005431 8.240309
v -1.529799 -0.061079 7.128996
v -1.620704 -0.213344 7.176261
v -1.525042 -0.424025 7.241303
v -1.125728 -0.100393 6.974296
v -1.058959 -0.268271 6.954998
v -1.122385 -0.465333 7.079481
v -1.961860 -0.632055 5.809993
v -2.027339 -0.763974 5.867837
v -1.959364 -0.906166 5.941711
v -1.659496 -0.669122 5.727659
v -1.607788 -0.815491 5.744980
v -1.657706 -0.944652 5.856130
v -1.991415 -0.601429 5.709726
v -2.077610 -0.758697 5.852479
v -2.007493 -1.023077 5.932637
v -1.844192 -0.673537 5.568374
v -1.814798 -0.850046 5.637113
v -1.842712 -1.140283 5.780024
v -2.283303 -0.706987 5.308648
v -2.339946 -0.950427 5.416409
v -2.281251 -1.239170 5.552474
v -2.130384 -0.846818 5.174271
v -2.100991 -1.023328 5.243010
v -2.128904 -1.313564 5.385921
v -2.248493 -1.021963 4.810906
v -2.261275 -1.202415 4.850828
v -2.248242 -1.390921 4.980538
v -2.155496 -1.066019 4.893196
v -2.130119 -1.171858 4.916082
v -2.154663 -1.369691 5.030318
v -1.607741 -0.947316 5.569211
v -1.636950 -1.053769 5.673686
v -1.804751 -0.955552 5.525428
v -1.824369 -1.201501 5.653403
v -1.669719 -1.079390 5.397178
v -1.693652 -1.166617 5.482784
v -1.831147 -1.086138 5.361302
v -1.847222 -1.287667 5.466165
v -1.755149 -1.217973 5.217457
v -1.764514 -1.278893 5.281359
v -1.872967 -1.211655 5.217196
v -1.881623 -1.354362 5.294141
v -0.158780 0.287954 9.458661
v -0.252719 0.101461 9.395141
v -0.182110 -0.006843 9.395141
v -1.479258 -0.422367 7.347939
v -1.575020 -0.198399 7.308844
v -1.040132 -0.249815 7.019546
v -1.094527 -0.461722 7.142635
v -1.485376 -0.038668 7.261016
v -1.098498 -0.077559 7.060210
v -1.659101 -0.239168 7.066254
v -1.570406 -0.093328 7.007897
v -1.163447 -0.142174 6.883008
v -1.093487 -0.306939 6.887033
v -1.161218 -0.484397 7.030012
v -1.566347 -0.436511 7.154760
v -0.508053 0.410805 4.118088
v -0.519458 0.815513 5.492939
v -0.866564 0.233211 4.084618
v -1.031588 0.512942 5.704339
v -0.866564 -0.013905 4.080535
v -1.033048 0.008705 5.639379
v -0.508034 -0.217958 4.045914
v -0.513485 -0.244458 5.507843
v -0.149427 -0.027040 4.063821
v -0.141336 0.019249 5.554693
v -0.149542 0.217805 4.097812
v -0.512044 0.880679 5.798132
v -1.022851 0.511893 5.905488
v -1.024830 -0.001134 5.831289
v -0.515671 -0.259032 5.620683
v -0.133260 0.001482 5.651608
v -0.417970 0.895762 5.987236
v -0.882834 0.484251 6.371117
v -0.879769 -0.045255 6.277584
v -0.448454 -0.287731 5.895096
v -0.130631 -0.017717 5.782393
v -0.429993 2.175485 3.394991
v -0.658826 2.138632 3.268118
v -0.658826 2.064926 3.014373
v -0.429993 2.028072 2.887501
v -0.201160 2.064926 3.014373
v -0.201160 2.138632 3.268118
v -0.825732 0.363007 3.580463
v -0.825732 0.444733 3.817425
v -0.149032 0.429168 3.777794
v -0.149032 0.345367 3.540187
v -0.487382 0.488215 4.034233
v -0.487382 -0.058622 3.509699
v -0.714889 0.436330 6.677855
v -0.711441 -0.092723 6.584658
v -0.429993 3.683394 2.732238
v -0.608103 3.693671 2.631074
v -0.608103 3.737069 2.406357
v -0.429993 3.756275 2.304693
v -0.251884 3.726347 2.411681
v -0.251884 3.694189 2.630134
v -0.859183 0.105776 3.966487
v -0.149356 -0.072822 3.855557
v -0.504316 0.260886 4.085256
v -0.859183 -0.032096 3.903372
v -0.149450 0.109059 3.982105
v -0.504300 -0.220371 3.914868
v -0.850273 -0.008183 3.714201
v -0.149339 0.118398 3.902135
v -0.499794 -0.206547 3.760591
v -0.850273 0.119954 3.902075
v -0.149269 -0.017998 3.712286
v -0.499806 0.218304 4.050666
v -0.182652 0.209765 10.127958
v -0.252719 0.101461 10.127958
v -0.182110 -0.006843 10.127958
v 0.213411 0.553393 5.509527
v -0.199640 0.685259 5.548222
vn 0.2171 0.8930 -0.3943
vn 0.2309 0.9730 -0.0026
vn 0.2282 0.8287 0.5111
vn 0.5934 0.7171 0.3657
vn 0.6038 0.7971 0.0039
vn 0.5368 0.7678 -0.3497
vn 0.4335 0.6757 -0.5962
vn 0.2244 0.7535 -0.6180
vn 0.9488 0.1900 -0.2522
vn 0.9829 0.1719 0.0657
vn 0.9669 -0.1341 -0.2169
vn 0.9843 -0.1466 0.0981
vn 0.7198 0.4412 -0.5359
vn 0.8218 0.4872 -0.2955
vn 0.8739 0.4848 0.0339
vn 0.8176 0.4547 0.3533
vn 0.8793 0.1584 0.4492
vn 0.8717 -0.1659 0.4611
vn 0.7717 -0.4987 0.3948
vn 0.8452 -0.5193 0.1267
vn 0.8441 -0.5094 -0.1677
vn 0.7852 -0.4383 -0.4373
vn 0.8572 -0.1236 -0.4999
vn 0.8229 0.2097 -0.5281
vn 1.0000 -0.0000 -0.0000
vn 0.1564 -0.9765 0.1485
vn 0.4800 -0.7943 -0.3725
vn 0.5169 -0.8425 -0.1518
vn 0.4664 -0.8756 0.1262
vn 0.4808 -0.7739 0.4123
vn 0.1500 -0.8611 0.4857
vn 0.2261 -0.9220 -0.3144
vn 0.3148 0.2794 -0.9071
vn 0.3250 -0.1799 -0.9284
vn 0.2669 0.5681 -0.7785
vn 0.4934 0.5045 -0.7086
vn 0.5804 0.2495 -0.7751
vn 0.6137 -0.1420 -0.7766
vn 0.5175 -0.5489 -0.6564
vn 0.3026 -0.6356 -0.7102
vn 0.1733 0.1395 0.9749
vn 0.1703 -0.1865 0.9676
vn 0.5492 0.4099 0.7283
vn 0.1876 0.4801 0.8569
vn 0.1601 -0.5446 0.8233
vn 0.5064 -0.4648 0.7263
vn 0.5518 -0.1809 0.8141
vn 0.5611 0.1458 0.8148
vn 0.6237 0.6944 0.3588
vn 0.7220 0.5506 -0.4190
vn 0.3616 0.0569 -0.9306
vn -0.6237 -0.6944 -0.3589
vn 0.6532 -0.7421 0.1505
vn -0.7220 -0.5506 0.4190
vn -0.3616 -0.0569 0.9306
vn -0.6532 0.7421 -0.1505
vn 0.2869 0.9398 0.1856
vn 0.3671 -0.9274 -0.0722
vn 0.2349 -0.9645 -0.1205
vn 0.9437 -0.3113 -0.1118
vn 0.9473 0.3050 -0.0975
vn 0.2232 0.9703 -0.0938
vn 0.3326 -0.9419 -0.0466
vn 0.8897 -0.4157 0.1887
vn 0.8568 0.5035 -0.1117
vn 0.2050 0.9721 -0.1144
vn 0.4406 0.4670 0.7667
vn 0.3015 0.8483 0.4353
vn 0.4169 -0.2813 0.8643
vn 0.0362 -0.8283 0.5591
vn 0.7608 0.6443 0.0775
vn 0.8601 -0.4475 0.2448
vn 0.4749 0.8403 0.2614
vn 0.8495 -0.3884 -0.3571
vn 0.9978 -0.0614 -0.0259
vn 0.7699 0.4397 -0.4625
vn 0.8871 -0.4276 0.1738
vn -0.8174 -0.1931 -0.5427
vn 0.0051 0.9696 0.2445
vn 0.8254 0.3624 0.4328
vn -0.8474 0.5110 -0.1442
vn 0.0724 -0.9006 -0.4286
vn 0.8559 0.4523 0.2506
vn -0.8553 0.4393 -0.2746
vn 0.0135 -0.9920 -0.1252
vn 0.9066 -0.3813 0.1810
vn -0.8772 -0.3333 -0.3456
vn 0.0166 0.9969 0.0766
vn 0.2808 -0.1191 0.9523
vn -0.9522 -0.2684 0.1459
vn -0.0741 0.9284 0.3640
vn 0.6376 0.4207 0.6453
vn -0.4882 0.4720 -0.7341
vn -0.5087 -0.6304 0.5863
vn 0.8147 0.1222 0.5669
vn -0.8463 0.1938 -0.4963
vn 0.0996 -0.9924 0.0719
vn 0.8864 -0.1833 0.4250
vn -0.8522 -0.0518 -0.5207
vn -0.2655 0.9608 -0.0795
vn -0.9945 -0.0850 -0.0611
vn -0.6951 0.7059 -0.1360
vn 0.9694 0.2175 -0.1139
vn -0.9681 0.2499 -0.0182
vn 0.1937 -0.9482 -0.2516
vn 0.9824 -0.0667 -0.1744
vn -0.9466 -0.2604 -0.1901
vn -0.1859 0.9734 -0.1342
vn 0.9866 0.0931 -0.1337
vn -0.5248 -0.8497 0.0511
vn -0.5513 -0.8137 -0.1839
vn -0.5762 -0.8120 -0.0935
vn 0.9949 0.0717 0.0716
vn -0.1193 0.9764 -0.1800
vn -0.2542 -0.0081 -0.9671
vn 0.9844 0.0689 0.1619
vn -0.1223 0.9737 -0.1924
vn -0.9321 -0.2710 -0.2404
vn 0.2337 -0.1523 0.9603
vn 0.2099 0.5177 0.8294
vn -0.0601 -0.6884 0.7228
vn 0.2339 0.0865 0.9684
vn -0.5155 -0.0659 -0.8543
vn -0.6227 0.1825 -0.7609
vn 0.1704 -0.9342 -0.3133
vn -0.8783 0.4685 -0.0957
vn 0.8041 0.3393 0.4882
vn 0.0252 0.9646 0.2626
vn -0.9435 0.0178 -0.3309
vn 0.8878 -0.4157 0.1977
vn 0.0639 0.9934 0.0951
vn -0.7598 -0.2420 -0.6034
vn 0.8984 -0.3954 0.1911
vn 0.0536 -0.9466 -0.3181
vn -0.7732 0.5427 -0.3281
vn 0.8347 0.4091 0.3688
vn 0.4907 0.7011 -0.5173
vn 0.9941 -0.0410 -0.1000
vn 0.5061 -0.8117 0.2916
vn -0.5113 -0.8074 0.2943
vn -0.6593 -0.6895 0.3000
vn 0.9962 0.0873 0.0063
vn -1.0000 -0.0015 -0.0056
vn 0.9972 -0.0006 -0.0745
vn -0.9867 -0.1493 0.0646
vn 0.9990 0.0133 0.0421
vn 0.6181 0.7273 -0.2982
vn 0.4296 -0.8468 0.3136
vn -0.5669 0.1340 0.8128
vn 0.4009 -0.8150 0.4183
vn 0.5891 0.8080 0.0128
vn 0.0336 0.9415 -0.3354
vn -0.6594 -0.6913 0.2954
vn 0.9383 0.0691 0.3389
vn -0.9992 -0.0008 -0.0403
vn -0.9999 -0.0001 -0.0101
vn 0.5457 0.8374 -0.0320
vn 0.5000 -0.8655 -0.0295
vn -0.5000 0.8653 0.0342
vn -0.4719 -0.8815 -0.0130
vn -0.4750 -0.8722 0.1167
vn -0.6129 0.7892 -0.0397
vn 0.4850 -0.8690 -0.0978
vn 0.5510 0.8298 0.0886
vn -1.0000 0.0003 0.0006
vn 0.9978 -0.0005 -0.0657
vn -0.0753 -0.9967 0.0306
vn -0.4194 -0.5152 -0.7474
vn -0.1515 -0.9785 -0.1399
vn -0.4741 0.0172 -0.8803
vn 0.1789 0.9758 0.1254
vn 0.3878 0.8552 0.3439
vn 0.2376 -0.9616 0.1376
vn 0.8467 -0.0345 0.5310
vn 0.0001 -0.0147 -0.9999
vn 0.4999 -0.8661 -0.0099
vn 0.4973 0.8649 -0.0690
vn -0.4965 0.8653 -0.0688
vn -0.5016 -0.8650 -0.0098
vn 0.9992 0.0016 -0.0400
vn 0.9970 -0.0202 -0.0746
vn -1.0000 0.0005 0.0003
vn 0.5094 0.7287 -0.4578
vn 0.5107 -0.8202 0.2577
vn -0.4798 0.7188 -0.5031
vn -0.5104 -0.7914 0.3364
vn 0.9973 -0.0093 -0.0722
vn -1.0000 0.0005 0.0005
vn 0.4590 0.7935 -0.3996
vn 0.5108 -0.8428 0.1694
vn -0.4928 0.8415 -0.2214
vn -0.4912 -0.8199 0.2943
vn 0.2801 0.9556 0.0911
vn 0.2490 -0.9661 -0.0676
vn 0.7559 0.1435 0.6388
vn 0.8931 0.4499 -0.0000
vn 0.8377 -0.5461 -0.0000
vn 0.5488 0.8323 0.0777
vn 0.5165 -0.8562 -0.0132
vn -0.2171 0.8930 -0.3943
vn -0.2332 0.9724 -0.0047
vn -0.2282 0.8287 0.5111
vn -0.5362 0.7239 0.4341
vn -0.6140 0.7893 -0.0094
vn -0.5575 0.7416 -0.3731
vn -0.4335 0.6757 -0.5962
vn -0.2244 0.7535 -0.6180
vn -0.9486 0.1818 -0.2589
vn -0.9832 0.1706 0.0645
vn -0.9679 -0.1309 -0.2144
vn -0.9842 -0.1492 0.0957
vn -0.7191 0.4598 -0.5211
vn -0.8258 0.4724 -0.3080
vn -0.8791 0.4760 0.0239
vn -0.8176 0.4547 0.3533
vn -0.8813 0.1551 0.4463
vn -0.8704 -0.1617 0.4650
vn -0.7756 -0.4470 0.4457
vn -0.8474 -0.5145 0.1312
vn -0.8444 -0.5089 -0.1672
vn -0.7852 -0.4383 -0.4373
vn -0.8583 -0.1214 -0.4987
vn -0.8209 0.2013 -0.5345
vn -0.1488 -0.9784 0.1435
vn -0.5095 -0.7887 -0.3441
vn -0.5440 -0.8308 -0.1171
vn -0.5063 -0.8464 0.1648
vn -0.4808 -0.7739 0.4123
vn -0.1500 -0.8611 0.4857
vn -0.1482 -0.9172 -0.3698
vn -0.3082 0.2745 -0.9109
vn -0.3445 -0.1614 -0.9248
vn -0.2408 0.5577 -0.7943
vn -0.4461 0.4620 -0.7665
vn -0.5707 0.2336 -0.7872
vn -0.6232 -0.1271 -0.7717
vn -0.5828 -0.4680 -0.6643
vn -0.3026 -0.6356 -0.7102
vn -0.1782 0.1347 0.9747
vn -0.1652 -0.1814 0.9694
vn -0.5146 0.4458 0.7324
vn -0.1947 0.4736 0.8589
vn -0.1601 -0.5446 0.8233
vn -0.5064 -0.4648 0.7263
vn -0.5466 -0.1746 0.8190
vn -0.5630 0.1438 0.8139
vn -0.6237 0.6944 0.3588
vn -0.7220 0.5506 -0.4190
vn -0.3616 0.0569 -0.9306
vn 0.6237 -0.6944 -0.3588
vn -0.6532 -0.7421 0.1505
vn 0.7220 -0.5506 0.4190
vn 0.3616 -0.0569 0.9306
vn 0.6532 0.7421 -0.1505
vn -0.3375 0.9207 0.1959
vn -0.2978 -0.9508 0.0852
vn -0.2182 -0.9584 -0.1842
vn -0.8558 -0.4643 -0.2282
vn -0.9496 0.3032 -0.0793
vn -0.3038 0.9498 -0.0746
vn -0.2360 -0.9659 -0.1070
vn -0.8808 -0.4726 0.0286
vn -0.9010 0.4327 -0.0329
vn -0.3756 0.9258 -0.0428
vn -0.4130 0.6233 0.6640
vn -0.3519 0.8962 0.2702
vn -0.5449 -0.0899 0.8337
vn -0.0548 -0.8370 0.5444
vn -0.7671 0.6415 0.0002
vn -0.9477 -0.2848 0.1440
vn -0.6315 0.7594 -0.1568
vn -0.5315 -0.8464 -0.0338
vn -0.9677 -0.1714 -0.1850
vn -0.9992 0.0405 -0.0027
vn -0.8728 -0.3069 0.3795
vn 0.8401 -0.4171 -0.3467
vn 0.0104 0.9853 -0.1708
vn -0.8306 0.5232 0.1907
vn 0.8502 0.3752 -0.3692
vn -0.0762 -0.9959 0.0482
vn -0.8469 0.5304 0.0382
vn 0.8039 0.3292 -0.4953
vn 0.0021 -0.9313 0.3643
vn -0.8900 -0.2462 0.3837
vn 0.8624 -0.4735 -0.1791
vn -0.0161 0.9123 -0.4092
vn -0.2388 0.3554 0.9037
vn 0.9586 -0.1826 0.2183
vn 0.0864 0.9881 -0.1276
vn -0.2103 0.4783 0.8527
vn 0.4541 0.0552 -0.8892
vn 0.1773 -0.4979 0.8489
vn -0.7720 0.6037 0.1990
vn 0.8232 -0.0817 -0.5619
vn -0.0926 -0.8355 0.5416
vn -0.8023 -0.0321 0.5960
vn 0.8290 -0.3092 -0.4660
vn 0.1300 0.9315 -0.3398
vn 0.9912 -0.1213 -0.0527
vn 0.3104 0.8129 -0.4927
vn -0.9742 0.1535 -0.1653
vn 0.9813 0.0992 -0.1650
vn -0.2009 -0.9497 0.2404
vn -0.9796 -0.2007 -0.0033
vn 0.9384 -0.3361 -0.0801
vn 0.1763 0.7875 -0.5906
vn -0.9919 0.0351 -0.1224
vn 0.5385 -0.6948 0.4768
vn 0.5878 -0.7768 0.2262
vn 0.5746 -0.7679 0.2832
vn -0.9911 0.1146 0.0682
vn 0.1077 0.7695 -0.6295
vn -0.0371 -0.7206 -0.6924
vn -0.9767 0.1551 0.1484
vn 0.1103 0.7610 -0.6393
vn 0.9218 -0.3692 -0.1185
vn -0.2234 -0.1188 0.9675
vn -0.2175 0.5211 0.8253
vn 0.0708 -0.6879 0.7223
vn -0.2243 0.1327 0.9654
vn 0.4944 -0.4799 -0.7248
vn 0.4591 -0.0812 -0.8847
vn -0.0489 -0.9902 0.1311
vn 0.9465 0.0572 -0.3175
vn -0.6580 0.7461 0.1016
vn -0.3169 0.9471 -0.0514
vn 0.9502 -0.1210 -0.2873
vn -0.8851 -0.2968 0.3584
vn -0.0617 0.9170 -0.3942
vn 0.7636 -0.5022 -0.4059
vn -0.8587 -0.2521 0.4462
vn 0.0374 -0.9420 0.3336
vn 0.7867 0.3697 -0.4943
vn -0.8316 0.5385 0.1354
vn -0.4089 0.8745 -0.2608
vn -0.9944 0.0163 -0.1041
vn -0.4448 -0.8950 -0.0345
vn 0.4704 -0.8823 -0.0142
vn 0.5834 -0.8068 -0.0929
vn 0.4022 0.8792 -0.2555
vn -0.4000 0.7277 -0.5572
vn -0.9956 0.0882 -0.0304
vn 0.9863 -0.1591 -0.0432
vn -0.9991 -0.0026 0.0427
vn -0.5506 0.8190 -0.1615
vn -0.4596 -0.8796 -0.1225
vn 0.2929 -0.1206 0.9485
vn -0.4466 -0.8946 0.0158
vn -0.5440 0.8134 0.2058
vn 0.1228 0.9826 -0.1394
vn 0.5654 -0.8144 -0.1309
vn -0.9514 -0.0405 0.3052
vn 0.9995 0.0291 -0.0085
vn 0.9996 0.0274 -0.0096
vn -0.5405 0.3141 0.7805
vn -0.4753 -0.2394 -0.8466
vn 0.6116 0.2620 0.7466
vn 0.4031 -0.2717 -0.8739
vn 0.3714 -0.8077 -0.4579
vn 0.3990 0.0374 0.9162
vn -0.3819 -0.7877 -0.4833
vn -0.4375 0.2576 0.8615
vn 1.0000 -0.0004 0.0006
vn -0.9979 0.0530 -0.0361
vn -0.0733 -0.9968 0.0306
vn 0.1451 -0.5615 -0.8147
vn 0.1042 -0.9845 -0.1408
vn 0.3833 0.0180 -0.9234
vn -0.3559 0.8201 0.4481
vn -0.3651 0.8684 0.3356
vn -0.2663 -0.9639 -0.0030
vn -0.8792 -0.0878 0.4684
vn -0.0009 0.9822 0.1879
vn -0.4995 -0.2826 -0.8189
vn -0.4968 0.3492 0.7945
vn 0.4968 0.3492 0.7945
vn 0.4996 -0.2819 -0.8191
vn -0.9995 0.0291 -0.0085
vn -0.9991 0.0007 -0.0417
vn 1.0000 0.0004 0.0002
vn -0.2548 0.6494 -0.7165
vn -0.4945 -0.8692 0.0019
vn 0.3334 0.6871 -0.6455
vn 0.4686 -0.8829 0.0296
vn -0.9988 0.0204 -0.0445
vn 1.0000 0.0001 0.0006
vn -0.4346 0.8903 0.1359
vn -0.4643 -0.8808 -0.0925
vn 0.0460 0.6328 -0.7730
vn 0.3726 -0.9252 -0.0720
vn -0.2692 0.9600 0.0764
vn -0.2016 -0.9795 0.0028
vn -0.7553 0.1432 0.6395
vn -0.8931 0.4499 -0.0000
vn -0.8377 -0.5461 -0.0000
vn -0.5999 0.7948 0.0921
vn -0.5165 -0.8562 -0.0132
vn -0.7538 -0.0698 -0.6533
vn 0.9940 0.0864 -0.0670
vn -0.0991 0.6018 -0.7925
vn 0.0372 0.8092 -0.5863
vn 0.2158 0.8929 -0.3952
vn 0.2332 0.9724 -0.0047
vn 0.2114 0.8407 0.4986
vn 0.5362 0.7239 0.4341
vn 0.6140 0.7893 -0.0094
vn 0.5575 0.7416 -0.3731
vn 0.4895 0.6746 -0.5525
vn 0.2088 0.7506 -0.6269
vn 0.9486 0.1818 -0.2589
vn 0.9832 0.1706 0.0645
vn 0.9679 -0.1309 -0.2144
vn 0.9842 -0.1492 0.0957
vn 0.7191 0.4598 -0.5211
vn 0.8258 0.4724 -0.3080
vn 0.8791 0.4760 0.0239
vn 0.8171 0.4050 0.4103
vn 0.8813 0.1551 0.4463
vn 0.8704 -0.1617 0.4650
vn 0.7756 -0.4470 0.4457
vn 0.8474 -0.5145 0.1312
vn 0.8444 -0.5089 -0.1672
vn 0.7820 -0.4824 -0.3947
vn 0.8583 -0.1214 -0.4987
vn 0.8209 0.2013 -0.5345
vn 0.1806 -0.9804 -0.0786
vn 0.1607 -0.9818 -0.1015
vn 0.1488 -0.9784 0.1435
vn 0.5095 -0.7887 -0.3441
vn 0.5440 -0.8308 -0.1171
vn 0.5063 -0.8464 0.1648
vn 0.4448 -0.7758 0.4475
vn 0.1542 -0.8626 0.4818
vn 0.1482 -0.9172 -0.3698
vn 0.3082 0.2745 -0.9109
vn 0.3445 -0.1614 -0.9248
vn 0.2408 0.5577 -0.7943
vn 0.4461 0.4620 -0.7665
vn 0.5707 0.2336 -0.7872
vn 0.6232 -0.1271 -0.7717
vn 0.5828 -0.4680 -0.6643
vn 0.2684 -0.6184 -0.7387
vn 0.1782 0.1347 0.9747
vn 0.1652 -0.1814 0.9694
vn 0.5146 0.4458 0.7324
vn 0.1947 0.4736 0.8589
vn 0.1626 -0.5423 0.8243
vn 0.4611 -0.5075 0.7279
vn 0.5466 -0.1746 0.8190
vn 0.5630 0.1438 0.8139
vn -0.6237 -0.6944 -0.3588
vn 0.2805 0.9388 0.2001
vn 0.3585 -0.9296 -0.0851
vn 0.3279 -0.9252 -0.1911
vn 0.8993 -0.4082 -0.1568
vn 0.8469 0.4997 -0.1817
vn 0.2039 0.9760 -0.0766
vn 0.3659 -0.9274 -0.0780
vn 0.9820 -0.1751 -0.0711
vn 0.9244 0.3811 -0.0184
vn 0.1333 0.9900 -0.0459
vn 0.6311 0.3642 0.6849
vn 0.2742 0.8281 0.4889
vn 0.5573 -0.2108 0.8031
vn 0.1277 -0.8622 0.4903
vn 0.6790 0.6061 0.4142
vn 0.9492 -0.3144 0.0097
vn -0.5308 0.8060 0.2620
vn 0.5347 -0.8377 -0.1107
vn -0.6836 -0.0835 -0.7250
vn -0.8615 0.3081 -0.4036
vn 0.8645 -0.4575 0.2082
vn -0.8997 -0.2664 -0.3459
vn -0.0082 0.9470 0.3210
vn 0.8050 0.3720 0.4622
vn -0.8432 0.5127 -0.1619
vn 0.0689 -0.9072 -0.4150
vn 0.8918 0.3815 0.2434
vn -0.8176 0.5222 -0.2424
vn -0.0044 -0.9921 -0.1256
vn 0.9005 -0.3957 0.1804
vn -0.8742 -0.3429 -0.3439
vn -0.0006 0.9971 0.0762
vn 0.5223 -0.2944 0.8003
vn -0.9782 -0.1954 0.0707
vn -0.4984 0.6925 0.5215
vn 0.2525 0.0131 0.9675
vn -0.6769 0.1930 -0.7103
vn -0.1520 -0.8439 0.5145
vn 0.7897 0.4379 0.4296
vn 0.0041 -0.9966 -0.0819
vn 0.8248 -0.3102 0.4728
vn -0.1272 0.9801 0.1527
vn -0.9926 -0.1123 -0.0453
vn -0.3155 0.9484 -0.0304
vn 0.9811 0.1087 -0.1602
vn -0.9852 0.1623 -0.0548
vn -0.1567 -0.9290 -0.3351
vn 0.9751 -0.1710 -0.1413
vn -0.1340 0.9614 -0.2405
vn 0.9828 0.0761 -0.1685
vn -0.5311 -0.8402 0.1097
vn -0.5918 -0.7925 -0.1472
vn -0.0031 -0.3016 -0.9534
vn 0.9874 0.0552 0.1483
vn -0.0549 0.9733 -0.2228
vn -0.9371 -0.2092 -0.2793
vn 0.2257 -0.1573 0.9614
vn 0.5591 0.6305 0.5384
vn 0.0348 -0.3798 0.9244
vn 0.4521 -0.0750 0.8888
vn -0.5312 -0.0767 -0.8437
vn -0.4954 0.3500 -0.7951
vn 0.0539 -0.9155 -0.3987
vn -0.9439 0.1856 -0.2731
vn 0.6387 0.6186 0.4575
vn 0.1992 0.9032 0.3801
vn -0.9110 -0.2082 -0.3561
vn 0.8761 -0.4502 0.1723
vn -0.0281 0.9732 0.2283
vn -0.8754 -0.3335 -0.3500
vn 0.8628 -0.4338 0.2597
vn -0.0373 -0.9853 -0.1665
vn -0.7924 0.5566 -0.2498
vn 0.8236 0.4152 0.3865
vn 0.6032 0.6617 -0.4453
vn 0.9943 -0.0225 -0.1038
vn 0.4361 -0.8545 0.2824
vn -0.6557 -0.6889 0.3089
vn -0.6575 -0.6986 0.2824
vn 1.0000 0.0012 -0.0055
vn -0.9952 0.0938 -0.0275
vn 0.9973 0.0030 -0.0739
vn -0.9878 -0.1504 0.0411
vn 0.9992 0.0115 0.0395
vn 0.5950 0.7043 -0.3873
vn 0.4272 -0.8328 0.3521
vn -0.5649 -0.0423 0.8241
vn -0.6499 0.1500 0.7451
vn 0.0455 -0.0905 0.9949
vn 0.3978 -0.8466 0.3536
vn 0.5867 0.8088 -0.0403
vn 0.0498 0.9168 -0.3963
vn -0.6830 -0.7244 0.0936
vn 0.9632 -0.0206 0.2681
vn -0.9992 0.0016 -0.0400
vn -0.9999 0.0004 -0.0101
vn 0.4993 0.8662 -0.0186
vn 0.5328 -0.8454 -0.0386
vn -0.6156 0.7880 0.0058
vn -0.4998 -0.8659 -0.0184
vn -0.4900 -0.8717 0.0090
vn -0.4875 0.8632 0.1315
vn 0.4724 -0.8789 0.0665
vn 0.4926 0.8701 0.0168
vn -1.0000 -0.0000 0.0008
vn 0.9981 -0.0079 -0.0612
vn -0.0345 -0.7272 -0.6856
vn 0.2027 -0.7736 0.6004
vn 0.3860 0.8832 0.2663
vn 0.3355 0.8150 0.4725
vn 0.2874 -0.9576 0.0197
vn 0.8843 -0.0758 0.4606
vn 0.0001 0.1440 -0.9896
vn -0.0017 -0.0137 -0.9999
vn -0.0074 -0.0191 -0.9998
vn 0.5000 -0.8659 -0.0098
vn 0.4962 0.8655 -0.0688
vn -0.4973 0.8649 -0.0690
vn -0.4997 -0.8661 -0.0101
vn 0.9992 -0.0005 -0.0403
vn 0.9984 -0.0216 -0.0527
vn -1.0000 0.0005 0.0007
vn 0.4937 0.7114 -0.5002
vn 0.5060 -0.8120 0.2908
vn -0.5087 0.7568 -0.4103
vn -0.5007 -0.7766 0.3823
vn 0.9984 -0.0148 -0.0548
vn -1.0000 0.0004 0.0008
vn 0.5407 0.8261 -0.1588
vn 0.5087 -0.8253 0.2449
vn -0.5158 0.7831 -0.3473
vn -0.4968 -0.8490 0.1798
vn 0.2821 0.9563 0.0765
vn 0.2323 -0.9724 -0.0221
vn 0.7342 -0.3313 0.5926
vn 0.8992 -0.0715 0.4316
vn 0.8391 0.5429 0.0335
vn 0.5999 0.7948 0.0921
vn 0.5513 -0.8343 -0.0000
vn -0.2158 0.8929 -0.3952
vn -0.2309 0.9730 -0.0026
vn -0.2114 0.8407 0.4986
vn -0.5934 0.7171 0.3657
vn -0.6038 0.7971 0.0039
vn -0.5368 0.7678 -0.3497
vn -0.4895 0.6746 -0.5525
vn -0.2088 0.7506 -0.6269
vn -0.9488 0.1900 -0.2522
vn -0.9829 0.1719 0.0657
vn -0.9669 -0.1341 -0.2169
vn -0.9843 -0.1466 0.0981
vn -0.7198 0.4412 -0.5359
vn -0.8218 0.4872 -0.2955
vn -0.8739 0.4848 0.0339
vn -0.8171 0.4050 0.4103
vn -0.8793 0.1584 0.4492
vn -0.8717 -0.1659 0.4611
vn -0.7717 -0.4987 0.3948
vn -0.8452 -0.5193 0.1267
vn -0.8441 -0.5094 -0.1677
vn -0.7820 -0.4824 -0.3947
vn -0.8572 -0.1236 -0.4999
vn -0.8229 0.2097 -0.5281
vn -0.1607 -0.9818 -0.1015
vn -0.1806 -0.9804 -0.0786
vn -0.1564 -0.9765 0.1485
vn -0.4800 -0.7943 -0.3725
vn -0.5169 -0.8425 -0.1518
vn -0.4664 -0.8756 0.1262
vn -0.4448 -0.7758 0.4475
vn -0.1542 -0.8626 0.4818
vn -0.2261 -0.9220 -0.3144
vn -0.3148 0.2794 -0.9071
vn -0.3250 -0.1799 -0.9284
vn -0.2669 0.5681 -0.7785
vn -0.4934 0.5045 -0.7086
vn -0.5804 0.2495 -0.7751
vn -0.6137 -0.1420 -0.7766
vn -0.5175 -0.5489 -0.6564
vn -0.2683 -0.6184 -0.7387
vn -0.1733 0.1395 0.9749
vn -0.1703 -0.1865 0.9676
vn -0.5492 0.4099 0.7283
vn -0.1876 0.4801 0.8569
vn -0.1626 -0.5423 0.8243
vn -0.4611 -0.5075 0.7279
vn -0.5518 -0.1809 0.8141
vn -0.5611 0.1458 0.8148
vn -0.3996 0.9166 -0.0096
vn -0.2038 -0.9760 -0.0767
vn -0.2357 -0.9517 -0.1966
vn -0.9447 -0.2996 -0.1333
vn -0.8943 0.4283 -0.1293
vn -0.2480 0.9685 -0.0213
vn -0.2033 -0.9757 -0.0817
vn -0.9546 -0.2860 -0.0837
vn -0.9694 0.2057 0.1339
vn -0.3029 0.9520 0.0443
vn -0.7029 0.4382 0.5602
vn -0.2591 0.8316 0.4912
vn -0.3206 -0.1834 0.9293
vn -0.0335 -0.8284 0.5592
vn -0.7869 0.5759 -0.2218
vn -0.7768 -0.3057 0.5506
vn -0.9003 0.4228 -0.1035
vn -0.3338 -0.9395 0.0774
vn 0.2964 -0.5008 -0.8132
vn -0.8790 0.1897 -0.4375
vn -0.8912 -0.2994 0.3408
vn 0.9082 -0.3893 -0.1536
vn -0.0038 0.9667 -0.2557
vn -0.8073 0.5491 0.2163
vn 0.8529 0.3803 -0.3575
vn -0.0672 -0.9940 0.0865
vn -0.8818 0.4669 0.0665
vn 0.8408 0.2396 -0.4854
vn -0.0151 -0.9308 0.3653
vn -0.8964 -0.2325 0.3773
vn 0.8595 -0.4810 -0.1729
vn 0.0001 0.9120 -0.4102
vn -0.4860 0.1330 0.8638
vn 0.9810 -0.1549 0.1164
vn 0.5180 0.8487 0.1066
vn -0.6106 0.6890 0.3904
vn 0.6447 -0.1818 -0.7425
vn 0.5360 -0.2824 0.7956
vn -0.7898 0.3925 0.4715
vn -0.0039 -0.9144 0.4049
vn -0.8664 0.0576 0.4959
vn 0.2583 0.8012 -0.5398
vn 0.9901 -0.1377 -0.0257
vn 0.6859 0.5428 -0.4846
vn -0.9875 0.0360 -0.1534
vn 0.9655 0.1938 -0.1741
vn 0.1455 -0.9788 0.1440
vn -0.9888 -0.1248 -0.0820
vn 0.1198 0.7271 -0.6760
vn -0.9894 0.0035 -0.1450
vn 0.5297 -0.7310 0.4302
vn 0.5459 -0.8122 0.2057
vn 0.2120 -0.4737 -0.8548
vn -0.9802 0.1366 0.1431
vn 0.0416 0.7474 -0.6631
vn 0.9249 -0.3336 -0.1824
vn -0.2025 -0.1320 0.9703
vn -0.5591 0.6305 0.5384
vn -0.0175 -0.3545 0.9349
vn -0.4845 -0.0534 0.8732
vn 0.4782 -0.4752 -0.7386
vn 0.5884 -0.2142 -0.7797
vn -0.0363 -0.9919 0.1221
vn 0.8758 0.3699 -0.3100
vn -0.8111 0.5296 0.2485
vn -0.0386 0.9645 -0.2611
vn 0.9199 -0.3447 -0.1869
vn -0.8801 -0.3141 0.3560
vn 0.0334 0.9629 -0.2677
vn 0.8658 -0.4696 -0.1727
vn -0.8933 -0.2533 0.3713
vn -0.0632 -0.9831 0.1720
vn 0.7643 0.3107 -0.5651
vn -0.8157 0.5576 0.1538
vn -0.5575 0.8067 -0.1961
vn -0.9943 0.0018 -0.1062
vn -0.4958 -0.8682 -0.0176
vn 0.5762 -0.8170 0.0222
vn 0.5630 -0.8033 -0.1942
vn 0.4462 0.8562 -0.2605
vn -0.4784 0.7110 -0.5153
vn -0.9957 0.0890 -0.0259
vn 0.9862 -0.1520 0.0657
vn -0.9991 -0.0024 0.0434
vn -0.5810 0.8134 0.0295
vn -0.4602 -0.8875 -0.0258
vn 0.6251 0.0217 0.7802
vn 0.5495 -0.1423 0.8233
vn 0.5339 -0.2982 0.7912
vn -0.4496 -0.8913 0.0580
vn -0.5439 0.8120 0.2118
vn -0.0501 0.9168 -0.3963
vn 0.5835 -0.7805 -0.2245
vn -0.9571 -0.0558 0.2845
vn 0.9995 0.0322 0.0047
vn 0.9996 0.0281 -0.0081
vn -0.4986 0.3115 0.8089
vn -0.5000 -0.2288 -0.8353
vn 0.4999 0.2614 0.8257
vn 0.5000 -0.2393 -0.8323
vn 0.5100 -0.3685 -0.7773
vn 0.6094 0.2940 0.7363
vn -0.5011 -0.2638 -0.8242
vn -0.5449 0.0759 0.8351
vn 1.0000 -0.0009 0.0003
vn -0.9973 0.0691 -0.0238
vn 0.1750 -0.5475 -0.8183
vn -0.2366 -0.9189 0.3157
vn 0.0246 0.9915 0.1274
vn -0.2956 0.8264 0.4792
vn -0.1974 -0.9704 0.1389
vn -0.8795 -0.0881 0.4678
vn -0.0012 0.9947 0.1031
vn 0.0785 0.9863 0.1452
vn 0.0024 0.9819 0.1896
vn -0.4518 -0.2851 -0.8454
vn -0.4469 0.3516 0.8226
vn 0.4495 0.3515 0.8212
vn 0.4582 -0.2840 -0.8422
vn -0.9994 0.0326 0.0063
vn -0.9909 0.0560 -0.1223
vn 1.0000 -0.0001 0.0009
vn 0.2247 0.2138 -0.9507
vn -0.4693 -0.8802 0.0708
vn -0.1911 0.2054 -0.9598
vn 0.4042 -0.8933 0.1965
vn -0.9832 0.1507 -0.1028
vn 1.0000 -0.0012 0.0012
vn 0.1448 0.6331 -0.7605
vn -0.4749 -0.8700 -0.1323
vn 0.3155 0.9425 0.1105
vn 0.4128 -0.8508 -0.3253
vn -0.2691 0.9600 0.0768
vn -0.2365 -0.9693 -0.0678
vn -0.9024 -0.0805 0.4234
vn -0.7394 -0.3306 0.5865
vn -0.8391 0.5429 0.0335
vn -0.5488 0.8323 0.0777
vn -0.5513 -0.8343 -0.0000
vn -0.9854 0.0774 -0.1518
vn 0.6845 -0.0436 -0.7278
vn -0.3562 0.8076 -0.4701
vn 0.3991 0.8947 -0.2007
vt 0.500000 0.375000
vt 0.437500 0.437500
vt 0.437500 0.375000
vt 0.562500 0.437500
vt 0.500000 0.437500
vt 0.625000 0.375000
vt 0.562500 0.375000
vt 0.625000 0.500000
vt 0.562500 0.500000
vt 0.500000 0.500000
vt 0.437500 0.500000
vt 0.375000 0.500000
vt 0.375000 0.437500
vt 0.375000 0.375000
vt 0.437500 0.562500
vt 0.500000 0.625000
vt 0.437500 0.625000
vt 0.500000 0.562500
vt 0.562500 0.625000
vt 0.500000 0.687500
vt 0.437500 0.687500
vt 0.562500 0.687500
vt 0.375000 0.562500
vt 0.562500 0.562500
vt 0.625000 0.625000
vt 0.625000 0.687500
vt 0.625000 0.750000
vt 0.562500 0.750000
vt 0.500000 0.750000
vt 0.437500 0.750000
vt 0.375000 0.750000
vt 0.375000 0.687500
vt 0.375000 0.625000
vt 0.500000 0.875000
vt 0.468750 0.875000
vt 0.437500 0.875000
vt 0.500000 0.812500
vt 0.562500 0.875000
vt 0.437500 0.812500
vt 0.375000 0.812500
vt 0.562500 0.812500
vt 0.625000 0.812500
vt 0.375000 0.875000
vt 0.250000 0.562500
vt 0.312500 0.625000
vt 0.250000 0.625000
vt 0.312500 0.687500
vt 0.250000 0.687500
vt 0.250000 0.500000
vt 0.312500 0.562500
vt 0.312500 0.500000
vt 0.312500 0.750000
vt 0.250000 0.750000
vt 0.687500 0.562500
vt 0.750000 0.625000
vt 0.687500 0.625000
vt 0.750000 0.687500
vt 0.687500 0.687500
vt 0.625000 0.562500
vt 0.687500 0.500000
vt 0.750000 0.562500
vt 0.687500 0.750000
vt 1.000000 0.500000
vt 0.833333 1.000000
vt 0.833333 0.500000
vt 0.666667 1.000000
vt 0.666667 0.500000
vt 0.500000 1.000000
vt 0.500000 0.500000
vt 0.333333 0.500000
vt 0.042154 0.130000
vt 0.250000 0.010000
vt 0.457846 0.130000
vt 0.333333 1.000000
vt 0.166667 0.500000
vt 0.166667 1.000000
vt -0.000000 0.500000
vt 0.542154 0.130000
vt 0.542154 0.370000
vt 0.957846 0.370000
vt 1.000000 0.828637
vt 0.875000 1.000000
vt 0.875000 0.828637
vt 0.625000 0.828637
vt 0.500000 1.000000
vt 0.500000 0.828637
vt 0.625000 0.645722
vt 0.500000 0.500000
vt 0.750000 0.500000
vt 0.875000 0.645722
vt 0.875000 0.500000
vt 0.500000 0.645722
vt 0.750000 0.828637
vt 0.750000 0.645722
vt 1.000000 0.645722
vt 0.750000 1.000000
vt 1.000000 1.000000
vt 0.625000 1.000000
vt 0.749520 0.964446
vt 0.653402 0.965669
vt 0.844587 0.863513
vt 0.844268 0.965118
vt 0.647775 0.863148
vt 0.750840 0.864057
vt 0.749520 0.964446
vt 0.750840 0.864057
vt 0.647775 0.863149
vt 0.844587 0.863513
vt 0.844267 0.965117
vt 0.653402 0.965669
vt 0.749520 0.964446
vt 0.844268 0.965117
vt 0.750840 0.864057
vt 0.653402 0.965669
vt 0.844587 0.863513
vt 0.000000 0.000000
vt 0.833333 0.500000
vt -0.000000 1.000000
vt 0.500000 0.500000
vt 0.500000 0.500000
vt 0.166667 0.500000
vt -0.000000 0.500000
vt 0.833333 0.500000
vt 0.042154 0.370000
vt 0.457846 0.370000
vt 0.750000 0.010000
vt 0.333333 0.500000
vt 0.457846 0.250000
vt 0.625000 0.437500
vt 0.750000 0.500000
vt 0.957846 0.130000
vt 0.250000 0.490000
vt 0.625000 0.875000
vt 0.750000 0.750000
vt 0.250000 0.490000
vt 0.750000 0.490000
vt 0.750000 0.490000
s 0
f 26/1/1 28/2/1 25/3/1
f 26/1/2 30/4/2 29/5/2
f 7/6/3 30/4/3 27/7/3
f 30/4/4 4/8/4 9/9/4
f 29/5/5 9/9/5 10/10/5
f 28/2/6 10/10/6 11/11/6
f 28/2/7 3/12/7 5/13/7
f 25/3/8 5/13/8 6/14/8
f 31/15/9 35/16/9 34/17/9
f 32/18/10 36/19/10 35/16/10
f 34/17/11 38/20/11 37/21/11
f 35/16/12 39/22/12 38/20/12
f 3/12/13 31/15/13 14/23/13
f 11/11/14 32/18/14 31/15/14
f 10/10/15 33/24/15 32/18/15
f 4/8/16 33/24/16 9/9/16
f 33/24/17 16/25/17 36/19/17
f 36/19/18 17/26/18 39/22/18
f 39/22/19 2/27/19 18/28/19
f 38/20/20 18/28/20 19/29/20
f 37/21/21 19/29/21 20/30/21
f 37/21/22 1/31/22 12/32/22
f 13/33/23 37/21/23 12/32/23
f 14/23/24 34/17/24 13/33/24
f 44/34/25 58/35/25 43/36/25
f 41/37/26 45/38/26 44/34/26
f 1/31/27 40/39/27 22/40/27
f 20/30/28 41/37/28 40/39/28
f 19/29/29 42/41/29 41/37/29
f 2/27/30 42/41/30 18/28/30
f 23/42/31 45/38/31 42/41/31
f 22/40/32 43/36/32 21/43/32
f 46/44/33 49/45/33 48/46/33
f 48/46/34 51/47/34 50/48/34
f 6/49/35 47/50/35 46/44/35
f 5/51/36 14/23/36 47/50/36
f 47/50/37 13/33/37 49/45/37
f 49/45/38 12/32/38 51/47/38
f 51/47/39 1/31/39 22/52/39
f 51/47/40 21/53/40 50/48/40
f 52/54/41 55/55/41 54/56/41
f 54/56/42 57/57/42 56/58/42
f 4/8/43 52/54/43 15/59/43
f 8/60/44 53/61/44 52/54/44
f 57/57/45 23/62/45 56/58/45
f 56/58/46 2/27/46 17/26/46
f 16/25/47 56/58/47 17/26/47
f 15/59/48 54/56/48 16/25/48
f 59/63/49 62/64/49 61/65/49
f 61/65/50 64/66/50 63/67/50
f 63/67/51 66/68/51 65/69/51
f 66/68/52 67/70/52 65/69/52
f 68/71/53 66/72/53 64/73/53
f 68/74/54 69/75/54 67/70/54
f 70/76/55 59/77/55 69/75/55
f 67/78/56 69/79/56 61/80/56
f 86/81/57 97/82/57 99/83/57
f 100/84/58 80/85/58 90/86/58
f 84/87/59 79/88/59 77/8/59
f 75/89/60 84/87/60 77/8/60
f 82/90/61 75/89/61 73/91/61
f 71/63/62 82/90/62 73/91/62
f 100/84/63 85/92/63 84/87/63
f 101/93/64 84/87/64 83/94/64
f 99/83/65 83/94/65 82/90/65
f 81/95/66 99/83/66 82/90/66
f 97/82/67 93/96/67 96/96/67
f 72/97/68 92/82/68 97/82/68
f 98/98/69 93/96/69 94/98/69
f 80/85/70 94/98/70 95/85/70
f 76/99/71 97/82/71 96/96/71
f 78/100/72 96/96/72 98/98/72
f 87/101/73 97/82/73 74/102/73
f 78/100/74 100/84/74 89/103/74
f 89/103/75 101/93/75 88/104/75
f 87/101/76 101/93/76 99/83/76
f 150/105/77 104/100/77 103/99/77
f 151/106/78 107/103/78 152/107/78
f 154/108/79 102/102/79 105/101/79
f 150/105/80 102/102/80 153/109/80
f 151/106/81 105/101/81 106/104/81
f 152/107/82 104/100/82 149/110/82
f 155/111/83 108/102/83 156/112/83
f 158/113/84 111/101/84 112/104/84
f 160/114/85 113/103/85 110/100/85
f 155/111/86 110/100/86 109/99/86
f 158/113/87 113/103/87 159/107/87
f 156/112/88 111/101/88 157/115/88
f 110/100/89 115/99/89 109/99/89
f 112/104/90 133/103/90 113/103/90
f 108/102/91 117/101/91 111/101/91
f 108/102/92 115/99/92 114/102/92
f 111/101/93 118/104/93 112/104/93
f 110/100/94 119/103/94 116/100/94
f 114/102/95 121/99/95 120/102/95
f 117/101/96 124/104/96 118/104/96
f 119/103/97 122/100/97 116/100/97
f 115/99/98 122/100/98 121/99/98
f 119/103/99 124/104/99 125/103/99
f 117/101/100 120/102/100 123/101/100
f 124/104/101 131/103/101 125/103/101
f 123/101/102 126/102/102 129/101/102
f 121/99/103 126/102/103 120/102/103
f 124/104/104 129/101/104 130/104/104
f 125/103/105 128/100/105 122/100/105
f 121/99/106 128/100/106 127/99/106
f 132/104/107 137/103/107 133/103/107
f 118/104/108 132/104/108 112/104/108
f 119/103/109 134/104/109 118/104/109
f 119/103/110 133/103/110 135/103/110
f 139/103/111 141/103/111 143/103/111
f 135/103/112 137/103/112 139/103/112
f 135/103/113 138/104/113 134/104/113
f 134/104/114 136/104/114 132/104/114
f 141/103/115 142/104/115 143/103/115
f 139/103/116 142/104/116 138/104/116
f 138/104/117 140/104/117 136/104/117
f 136/104/118 141/103/118 137/103/118
f 94/98/119 146/96/119 147/98/119
f 91/97/120 145/82/120 92/82/120
f 94/98/121 148/85/121 95/85/121
f 92/82/122 146/96/122 93/96/122
f 128/100/123 130/104/123 127/99/123
f 127/99/124 129/101/124 126/102/124
f 89/103/125 149/110/125 78/100/125
f 88/104/126 154/108/126 151/106/126
f 74/102/127 150/105/127 153/109/127
f 87/101/128 153/109/128 154/108/128
f 88/104/129 152/107/129 89/103/129
f 78/100/130 150/105/130 76/99/130
f 102/102/131 157/115/131 105/101/131
f 106/104/132 159/107/132 107/103/132
f 103/99/133 160/114/133 155/111/133
f 104/100/134 159/107/134 160/114/134
f 106/104/135 157/115/135 158/113/135
f 103/99/136 156/112/136 102/102/136
f 162/97/137 163/65/137 161/63/137
f 163/65/138 166/66/138 165/67/138
f 165/67/139 168/68/139 167/69/139
f 168/68/140 169/70/140 167/69/140
f 170/74/141 175/68/141 176/74/141
f 368/74/142 369/75/142 416/116/142
f 170/74/143 171/75/143 169/70/143
f 190/67/144 185/65/144 191/117/144
f 177/76/145 182/74/145 183/76/145
f 164/64/146 174/66/146 166/66/146
f 164/64/147 172/97/147 173/64/147
f 166/66/148 175/68/148 168/68/148
f 182/71/149 181/72/149 180/73/149
f 174/66/150 181/68/150 175/68/150
f 173/64/151 178/97/151 179/64/151
f 177/76/152 178/118/152 172/118/152
f 175/68/153 182/74/153 176/74/153
f 173/64/154 180/66/154 174/66/154
f 188/70/155 210/75/155 209/70/155
f 192/75/156 188/70/156 193/70/156
f 191/117/157 184/63/157 194/63/157
f 190/67/158 187/69/158 186/67/158
f 192/75/159 184/77/159 189/75/159
f 193/70/160 187/69/160 195/119/160
f 221/70/161 195/119/161 219/120/161
f 218/121/162 194/122/162 192/75/162
f 217/67/163 195/119/163 190/67/163
f 222/63/164 191/117/164 194/63/164
f 218/121/165 193/70/165 221/70/165
f 220/123/166 190/67/166 191/117/166
f 183/76/167 178/118/167 200/116/167
f 182/116/168 197/116/168 196/116/168
f 181/116/169 198/116/169 197/116/169
f 196/116/170 183/124/170 182/71/170
f 199/116/171 178/116/171 200/116/171
f 199/116/172 201/116/172 179/116/172
f 198/116/173 202/116/173 203/116/173
f 179/125/174 202/73/174 180/73/174
f 206/80/175 208/126/175 210/79/175
f 187/69/176 207/67/176 186/67/176
f 185/65/177 205/63/177 184/63/177
f 189/75/178 205/77/178 210/75/178
f 187/69/179 209/70/179 208/69/179
f 186/67/180 206/65/180 185/65/180
f 163/65/181 214/67/181 211/123/181
f 171/75/182 212/127/182 169/70/182
f 161/63/183 211/123/183 213/63/183
f 165/67/184 216/69/184 214/67/184
f 161/77/185 215/121/185 171/75/185
f 169/70/186 216/69/186 167/69/186
f 211/123/187 217/67/187 220/123/187
f 215/121/188 221/70/188 212/127/188
f 213/63/189 220/123/189 222/63/189
f 214/67/190 219/120/190 217/67/190
f 215/121/191 222/77/191 218/121/191
f 212/127/192 219/120/192 216/69/192
f 204/116/193 73/116/193 201/116/193
f 203/116/194 77/116/194 79/116/194
f 201/125/195 73/125/195 75/128/195
f 145/82/196 225/96/196 146/96/196
f 146/96/197 226/98/197 147/98/197
f 145/82/198 223/97/198 224/82/198
f 147/98/199 227/85/199 148/85/199
f 248/2/200 26/1/200 25/3/200
f 26/1/201 250/4/201 27/7/201
f 250/4/202 7/6/202 27/7/202
f 250/4/203 231/8/203 233/129/203
f 249/5/204 234/9/204 250/4/204
f 248/2/205 235/10/205 249/5/205
f 230/12/206 248/2/206 232/13/206
f 232/13/207 25/3/207 6/14/207
f 251/15/208 255/16/208 252/18/208
f 252/18/209 256/19/209 253/24/209
f 254/17/210 258/20/210 255/16/210
f 255/16/211 259/22/211 256/19/211
f 230/12/212 251/15/212 236/11/212
f 236/11/213 252/18/213 235/10/213
f 235/10/214 253/24/214 234/9/214
f 253/24/215 231/8/215 234/9/215
f 253/24/216 241/25/216 240/59/216
f 256/19/217 242/26/217 241/25/217
f 259/22/218 229/27/218 242/26/218
f 258/20/219 243/28/219 259/22/219
f 257/21/220 244/29/220 258/20/220
f 228/31/221 257/21/221 237/32/221
f 238/33/222 257/21/222 254/17/222
f 239/23/223 254/17/223 251/15/223
f 261/37/224 45/38/224 262/41/224
f 228/31/225 260/39/225 245/30/225
f 245/30/226 261/37/226 244/29/226
f 244/29/227 262/41/227 243/28/227
f 262/41/228 229/27/228 243/28/228
f 45/38/229 247/42/229 262/41/229
f 246/40/230 43/36/230 260/39/230
f 46/44/231 264/45/231 263/50/231
f 48/46/232 265/47/232 264/45/232
f 6/49/233 263/50/233 232/51/233
f 232/51/234 239/23/234 230/12/234
f 263/50/235 238/33/235 239/23/235
f 264/45/236 237/32/236 238/33/236
f 265/47/237 228/31/237 237/32/237
f 21/53/238 265/47/238 50/48/238
f 266/54/239 55/55/239 53/61/239
f 267/56/240 57/57/240 55/55/240
f 231/8/241 266/54/241 233/60/241
f 233/60/242 53/61/242 7/130/242
f 247/62/243 57/57/243 268/58/243
f 229/27/244 268/58/244 242/26/244
f 241/25/245 268/58/245 267/56/245
f 240/59/246 267/56/246 266/54/246
f 269/63/247 272/64/247 270/97/247
f 271/65/248 274/66/248 272/64/248
f 273/67/249 276/68/249 274/66/249
f 277/70/250 276/68/250 275/69/250
f 278/71/251 280/124/251 274/73/251
f 279/75/252 278/74/252 277/70/252
f 269/77/253 280/76/253 279/75/253
f 271/80/254 277/78/254 273/131/254
f 86/81/255 297/82/255 72/97/255
f 300/84/256 80/85/256 298/98/256
f 79/88/257 289/87/257 285/8/257
f 283/89/258 289/87/258 288/94/258
f 283/89/259 287/90/259 281/91/259
f 71/63/260 287/90/260 81/95/260
f 85/92/261 300/84/261 289/87/261
f 289/87/262 301/93/262 288/94/262
f 288/94/263 299/83/263 287/90/263
f 81/95/264 299/83/264 86/81/264
f 294/96/265 297/82/265 296/96/265
f 293/82/266 72/97/266 297/82/266
f 298/98/267 294/96/267 296/96/267
f 80/85/268 295/98/268 298/98/268
f 284/99/269 297/82/269 282/102/269
f 286/100/270 296/96/270 284/99/270
f 297/82/271 290/101/271 282/102/271
f 300/84/272 286/100/272 292/103/272
f 301/93/273 292/103/273 291/104/273
f 290/101/274 301/93/274 291/104/274
f 348/105/275 304/100/275 347/110/275
f 307/103/276 349/106/276 350/107/276
f 352/108/277 302/102/277 351/109/277
f 302/102/278 348/105/278 351/109/278
f 349/106/279 305/101/279 352/108/279
f 304/100/280 350/107/280 347/110/280
f 308/102/281 353/111/281 354/112/281
f 356/113/282 311/101/282 355/115/282
f 358/114/283 313/103/283 357/107/283
f 353/111/284 310/100/284 358/114/284
f 313/103/285 356/113/285 357/107/285
f 311/101/286 354/112/286 355/115/286
f 315/99/287 310/100/287 309/99/287
f 333/103/288 312/104/288 313/103/288
f 317/101/289 308/102/289 311/101/289
f 308/102/290 315/99/290 309/99/290
f 318/104/291 311/101/291 312/104/291
f 310/100/292 319/103/292 313/103/292
f 314/102/293 321/99/293 315/99/293
f 324/104/294 317/101/294 318/104/294
f 322/100/295 319/103/295 316/100/295
f 315/99/296 322/100/296 316/100/296
f 319/103/297 324/104/297 318/104/297
f 317/101/298 320/102/298 314/102/298
f 331/103/299 324/104/299 325/103/299
f 323/101/300 326/102/300 320/102/300
f 326/102/301 321/99/301 320/102/301
f 324/104/302 329/101/302 323/101/302
f 328/100/303 325/103/303 322/100/303
f 321/99/304 328/100/304 322/100/304
f 337/103/305 332/104/305 333/103/305
f 332/104/306 318/104/306 312/104/306
f 334/104/307 319/103/307 318/104/307
f 319/103/308 333/103/308 313/103/308
f 339/103/309 341/103/309 337/103/309
f 335/103/310 337/103/310 333/103/310
f 338/104/311 335/103/311 334/104/311
f 336/104/312 334/104/312 332/104/312
f 341/103/313 342/104/313 340/104/313
f 342/104/314 339/103/314 338/104/314
f 340/104/315 338/104/315 336/104/315
f 341/103/316 336/104/316 337/103/316
f 295/98/317 345/96/317 294/96/317
f 344/82/318 91/97/318 293/82/318
f 148/85/319 295/98/319 95/85/319
f 345/96/320 293/82/320 294/96/320
f 328/100/321 330/104/321 331/103/321
f 327/99/322 329/101/322 330/104/322
f 347/110/323 292/103/323 286/100/323
f 291/104/324 352/108/324 290/101/324
f 282/102/325 348/105/325 284/99/325
f 290/101/326 351/109/326 282/102/326
f 350/107/327 291/104/327 292/103/327
f 348/105/328 286/100/328 284/99/328
f 355/115/329 302/102/329 305/101/329
f 357/107/330 306/104/330 307/103/330
f 303/99/331 358/114/331 304/100/331
f 304/100/332 357/107/332 307/103/332
f 306/104/333 355/115/333 305/101/333
f 354/112/334 303/99/334 302/102/334
f 361/65/335 360/97/335 359/63/335
f 361/65/336 364/66/336 362/64/336
f 363/67/337 366/68/337 364/66/337
f 367/70/338 366/68/338 365/69/338
f 368/74/339 373/68/339 366/68/339
f 416/116/340 359/63/340 360/97/340
f 162/97/341 171/75/341 415/116/341
f 381/65/342 386/67/342 387/117/342
f 177/76/343 379/74/343 374/74/343
f 372/66/344 362/64/344 364/66/344
f 362/64/345 370/97/345 360/97/345
f 373/68/346 364/66/346 366/68/346
f 379/71/347 183/124/347 375/132/347
f 378/68/348 372/66/348 373/68/348
f 371/64/349 375/97/349 370/97/349
f 375/118/350 177/76/350 370/118/350
f 379/74/351 373/68/351 374/74/351
f 377/66/352 371/64/352 372/66/352
f 384/70/353 399/75/353 385/75/353
f 384/70/354 388/75/354 389/70/354
f 380/63/355 387/117/355 390/63/355
f 386/67/356 383/69/356 391/119/356
f 388/75/357 380/77/357 390/122/357
f 383/69/358 389/70/358 391/119/358
f 391/119/359 410/70/359 408/120/359
f 407/121/360 390/122/360 411/77/360
f 406/67/361 391/119/361 408/120/361
f 411/63/362 387/117/362 409/123/362
f 389/70/363 407/121/363 410/70/363
f 409/123/364 386/67/364 406/67/364
f 183/76/365 200/116/365 375/118/365
f 197/116/366 379/116/366 196/116/366
f 198/116/367 378/116/367 197/116/367
f 196/116/368 379/71/368 183/124/368
f 199/116/369 375/116/369 376/116/369
f 392/116/370 199/116/370 376/116/370
f 198/116/371 393/116/371 377/116/371
f 393/73/372 376/125/372 377/73/372
f 399/79/373 397/126/373 395/80/373
f 396/67/374 383/69/374 382/67/374
f 394/63/375 381/65/375 380/63/375
f 385/75/376 394/77/376 380/77/376
f 383/69/377 398/70/377 384/70/377
f 395/65/378 382/67/378 381/65/378
f 361/65/379 403/67/379 363/67/379
f 401/127/380 369/75/380 367/70/380
f 359/63/381 400/123/381 361/65/381
f 363/67/382 405/69/382 365/69/382
f 404/121/383 359/77/383 369/75/383
f 405/69/384 367/70/384 365/69/384
f 400/123/385 406/67/385 403/67/385
f 410/70/386 404/121/386 401/127/386
f 402/63/387 409/123/387 400/123/387
f 403/67/388 408/120/388 405/69/388
f 404/121/389 411/77/389 402/77/389
f 408/120/390 401/127/390 405/69/390
f 281/116/391 204/116/391 392/116/391
f 203/116/392 285/116/392 393/116/392
f 283/128/393 281/125/393 392/125/393
f 413/96/394 344/82/394 345/96/394
f 414/98/395 345/96/395 346/98/395
f 344/82/396 223/97/396 144/97/396
f 227/85/397 346/98/397 148/85/397
f 415/116/398 176/74/398 177/76/398
f 416/116/399 374/74/399 368/74/399
f 172/118/400 415/116/400 177/76/400
f 416/116/401 370/118/401 177/76/401
f 26/1/402 29/5/402 28/2/402
f 26/1/403 27/7/403 30/4/403
f 7/6/404 8/129/404 30/4/404
f 30/4/405 8/129/405 4/8/405
f 29/5/406 30/4/406 9/9/406
f 28/2/407 29/5/407 10/10/407
f 28/2/408 11/11/408 3/12/408
f 25/3/409 28/2/409 5/13/409
f 31/15/410 32/18/410 35/16/410
f 32/18/411 33/24/411 36/19/411
f 34/17/412 35/16/412 38/20/412
f 35/16/413 36/19/413 39/22/413
f 3/12/414 11/11/414 31/15/414
f 11/11/415 10/10/415 32/18/415
f 10/10/416 9/9/416 33/24/416
f 4/8/417 15/59/417 33/24/417
f 33/24/418 15/59/418 16/25/418
f 36/19/419 16/25/419 17/26/419
f 39/22/420 17/26/420 2/27/420
f 38/20/421 39/22/421 18/28/421
f 37/21/422 38/20/422 19/29/422
f 37/21/423 20/30/423 1/31/423
f 13/33/424 34/17/424 37/21/424
f 14/23/425 31/15/425 34/17/425
f 43/36/426 40/39/426 44/34/426
f 40/39/427 41/37/427 44/34/427
f 41/37/428 42/41/428 45/38/428
f 1/31/429 20/30/429 40/39/429
f 20/30/430 19/29/430 41/37/430
f 19/29/431 18/28/431 42/41/431
f 2/27/432 23/42/432 42/41/432
f 23/42/433 24/133/433 45/38/433
f 22/40/434 40/39/434 43/36/434
f 46/44/435 47/50/435 49/45/435
f 48/46/436 49/45/436 51/47/436
f 6/49/437 5/51/437 47/50/437
f 5/51/438 3/12/438 14/23/438
f 47/50/439 14/23/439 13/33/439
f 49/45/440 13/33/440 12/32/440
f 51/47/441 12/32/441 1/31/441
f 51/47/442 22/52/442 21/53/442
f 52/54/443 53/61/443 55/55/443
f 54/56/444 55/55/444 57/57/444
f 4/8/445 8/60/445 52/54/445
f 8/60/446 7/130/446 53/61/446
f 57/57/447 24/134/447 23/62/447
f 56/58/448 23/62/448 2/27/448
f 16/25/449 54/56/449 56/58/449
f 15/59/450 52/54/450 54/56/450
f 59/63/49 60/97/49 62/64/49
f 61/65/50 62/64/50 64/66/50
f 63/67/51 64/66/51 66/68/51
f 66/68/451 68/74/451 67/70/451
f 64/73/53 62/125/53 68/71/53
f 62/125/53 60/135/53 70/124/53
f 68/71/53 62/125/53 70/124/53
f 68/74/54 70/76/54 69/75/54
f 70/76/55 60/118/55 59/77/55
f 69/79/56 59/136/56 61/80/56
f 61/80/56 63/131/56 67/78/56
f 63/131/56 65/126/56 67/78/56
f 86/81/452 72/97/452 97/82/452
f 100/84/453 98/98/453 80/85/453
f 84/87/454 85/92/454 79/88/454
f 75/89/455 83/94/455 84/87/455
f 82/90/456 83/94/456 75/89/456
f 71/63/457 81/95/457 82/90/457
f 100/84/458 90/86/458 85/92/458
f 101/93/459 100/84/459 84/87/459
f 99/83/460 101/93/460 83/94/460
f 81/95/461 86/81/461 99/83/461
f 97/82/462 92/82/462 93/96/462
f 72/97/463 91/97/463 92/82/463
f 98/98/464 96/96/464 93/96/464
f 80/85/465 98/98/465 94/98/465
f 76/99/466 74/102/466 97/82/466
f 78/100/467 76/99/467 96/96/467
f 87/101/468 99/83/468 97/82/468
f 78/100/469 98/98/469 100/84/469
f 89/103/470 100/84/470 101/93/470
f 87/101/471 88/104/471 101/93/471
f 150/105/472 149/110/472 104/100/472
f 151/106/473 106/104/473 107/103/473
f 154/108/474 153/109/474 102/102/474
f 150/105/475 103/99/475 102/102/475
f 151/106/476 154/108/476 105/101/476
f 152/107/477 107/103/477 104/100/477
f 155/111/478 109/99/478 108/102/478
f 158/113/479 157/115/479 111/101/479
f 160/114/480 159/107/480 113/103/480
f 155/111/481 160/114/481 110/100/481
f 158/113/482 112/104/482 113/103/482
f 156/112/483 108/102/483 111/101/483
f 110/100/484 116/100/484 115/99/484
f 112/104/485 132/104/485 133/103/485
f 108/102/486 114/102/486 117/101/486
f 108/102/487 109/99/487 115/99/487
f 111/101/488 117/101/488 118/104/488
f 110/100/489 113/103/489 119/103/489
f 114/102/490 115/99/490 121/99/490
f 117/101/96 123/101/96 124/104/96
f 119/103/491 125/103/491 122/100/491
f 115/99/492 116/100/492 122/100/492
f 119/103/99 118/104/99 124/104/99
f 117/101/493 114/102/493 120/102/493
f 124/104/494 130/104/494 131/103/494
f 123/101/495 120/102/495 126/102/495
f 121/99/496 127/99/496 126/102/496
f 124/104/497 123/101/497 129/101/497
f 125/103/498 131/103/498 128/100/498
f 121/99/499 122/100/499 128/100/499
f 132/104/107 136/104/107 137/103/107
f 118/104/500 134/104/500 132/104/500
f 119/103/501 135/103/501 134/104/501
f 119/103/502 113/103/502 133/103/502
f 139/103/503 137/103/503 141/103/503
f 135/103/112 133/103/112 137/103/112
f 135/103/113 139/103/113 138/104/113
f 134/104/114 138/104/114 136/104/114
f 141/103/504 140/104/504 142/104/504
f 139/103/505 143/103/505 142/104/505
f 138/104/506 142/104/506 140/104/506
f 136/104/507 140/104/507 141/103/507
f 94/98/508 93/96/508 146/96/508
f 91/97/509 144/97/509 145/82/509
f 94/98/510 147/98/510 148/85/510
f 92/82/511 145/82/511 146/96/511
f 128/100/512 131/103/512 130/104/512
f 127/99/513 130/104/513 129/101/513
f 89/103/514 152/107/514 149/110/514
f 88/104/515 87/101/515 154/108/515
f 74/102/516 76/99/516 150/105/516
f 87/101/517 74/102/517 153/109/517
f 88/104/518 151/106/518 152/107/518
f 78/100/519 149/110/519 150/105/519
f 102/102/520 156/112/520 157/115/520
f 106/104/521 158/113/521 159/107/521
f 103/99/522 104/100/522 160/114/522
f 104/100/523 107/103/523 159/107/523
f 106/104/524 105/101/524 157/115/524
f 103/99/525 155/111/525 156/112/525
f 162/97/526 164/64/526 163/65/526
f 163/65/527 164/64/527 166/66/527
f 165/67/528 166/66/528 168/68/528
f 168/68/529 170/74/529 169/70/529
f 170/74/530 168/68/530 175/68/530
f 368/74/531 367/70/531 369/75/531
f 170/74/532 415/116/532 171/75/532
f 190/67/533 186/67/533 185/65/533
f 177/76/534 176/74/534 182/74/534
f 164/64/535 173/64/535 174/66/535
f 164/64/536 162/97/536 172/97/536
f 166/66/537 174/66/537 175/68/537
f 180/73/538 179/125/538 182/71/538
f 179/125/539 178/132/539 182/71/539
f 178/132/540 183/124/540 182/71/540
f 174/66/541 180/66/541 181/68/541
f 173/64/542 172/97/542 178/97/542
f 177/76/543 183/76/543 178/118/543
f 175/68/544 181/68/544 182/74/544
f 173/64/545 179/64/545 180/66/545
f 188/70/546 189/75/546 210/75/546
f 192/75/547 189/75/547 188/70/547
f 191/117/548 185/65/548 184/63/548
f 190/67/549 195/119/549 187/69/549
f 192/75/550 194/122/550 184/77/550
f 193/70/551 188/70/551 187/69/551
f 221/70/552 193/70/552 195/119/552
f 218/121/553 222/77/553 194/122/553
f 217/67/554 219/120/554 195/119/554
f 222/63/555 220/123/555 191/117/555
f 218/121/556 192/75/556 193/70/556
f 220/123/557 217/67/557 190/67/557
f 182/116/558 181/116/558 197/116/558
f 181/116/559 180/116/559 198/116/559
f 199/116/560 179/116/560 178/116/560
f 199/116/561 204/116/561 201/116/561
f 198/116/562 180/116/562 202/116/562
f 179/125/563 201/125/563 202/73/563
f 210/79/564 205/137/564 206/80/564
f 206/80/565 207/131/565 208/126/565
f 208/126/566 209/78/566 210/79/566
f 187/69/567 208/69/567 207/67/567
f 185/65/568 206/65/568 205/63/568
f 189/75/569 184/77/569 205/77/569
f 187/69/570 188/70/570 209/70/570
f 186/67/571 207/67/571 206/65/571
f 163/65/572 165/67/572 214/67/572
f 171/75/573 215/121/573 212/127/573
f 161/63/574 163/65/574 211/123/574
f 165/67/575 167/69/575 216/69/575
f 161/77/576 213/77/576 215/121/576
f 169/70/577 212/127/577 216/69/577
f 211/123/578 214/67/578 217/67/578
f 215/121/579 218/121/579 221/70/579
f 213/63/580 211/123/580 220/123/580
f 214/67/581 216/69/581 219/120/581
f 215/121/582 213/77/582 222/77/582
f 212/127/583 221/70/583 219/120/583
f 204/116/584 71/116/584 73/116/584
f 203/116/585 202/116/585 77/116/585
f 77/73/586 202/73/586 75/128/586
f 202/73/587 201/125/587 75/128/587
f 145/82/588 224/82/588 225/96/588
f 146/96/197 225/96/197 226/98/197
f 145/82/589 144/97/589 223/97/589
f 147/98/590 226/98/590 227/85/590
f 248/2/591 249/5/591 26/1/591
f 26/1/592 249/5/592 250/4/592
f 250/4/593 233/129/593 7/6/593
f 250/4/594 234/9/594 231/8/594
f 249/5/595 235/10/595 234/9/595
f 248/2/596 236/11/596 235/10/596
f 230/12/597 236/11/597 248/2/597
f 232/13/598 248/2/598 25/3/598
f 251/15/599 254/17/599 255/16/599
f 252/18/600 255/16/600 256/19/600
f 254/17/601 257/21/601 258/20/601
f 255/16/602 258/20/602 259/22/602
f 230/12/603 239/23/603 251/15/603
f 236/11/604 251/15/604 252/18/604
f 235/10/605 252/18/605 253/24/605
f 253/24/606 240/59/606 231/8/606
f 253/24/607 256/19/607 241/25/607
f 256/19/608 259/22/608 242/26/608
f 259/22/609 243/28/609 229/27/609
f 258/20/610 244/29/610 243/28/610
f 257/21/611 245/30/611 244/29/611
f 228/31/612 245/30/612 257/21/612
f 238/33/613 237/32/613 257/21/613
f 239/23/614 238/33/614 254/17/614
f 261/37/615 260/39/615 44/34/615
f 260/39/616 43/36/616 44/34/616
f 261/37/617 44/34/617 45/38/617
f 228/31/618 246/40/618 260/39/618
f 245/30/619 260/39/619 261/37/619
f 244/29/620 261/37/620 262/41/620
f 262/41/621 247/42/621 229/27/621
f 45/38/622 24/133/622 247/42/622
f 246/40/623 21/43/623 43/36/623
f 46/44/624 48/46/624 264/45/624
f 48/46/625 50/48/625 265/47/625
f 6/49/626 46/44/626 263/50/626
f 232/51/627 263/50/627 239/23/627
f 263/50/628 264/45/628 238/33/628
f 264/45/629 265/47/629 237/32/629
f 265/47/630 246/52/630 228/31/630
f 21/53/631 246/52/631 265/47/631
f 266/54/632 267/56/632 55/55/632
f 267/56/633 268/58/633 57/57/633
f 231/8/634 240/59/634 266/54/634
f 233/60/635 266/54/635 53/61/635
f 247/62/636 24/134/636 57/57/636
f 229/27/637 247/62/637 268/58/637
f 241/25/638 242/26/638 268/58/638
f 240/59/639 241/25/639 267/56/639
f 269/63/247 271/65/247 272/64/247
f 271/65/248 273/67/248 274/66/248
f 273/67/249 275/69/249 276/68/249
f 277/70/250 278/74/250 276/68/250
f 270/135/251 272/125/251 280/124/251
f 272/125/251 274/73/251 280/124/251
f 274/73/251 276/72/251 278/71/251
f 279/75/252 280/76/252 278/74/252
f 269/77/253 270/118/253 280/76/253
f 271/80/254 269/136/254 279/79/254
f 279/79/254 277/78/254 271/80/254
f 277/78/254 275/126/254 273/131/254
f 86/81/640 299/83/640 297/82/640
f 300/84/641 90/86/641 80/85/641
f 79/88/642 85/92/642 289/87/642
f 283/89/643 285/8/643 289/87/643
f 283/89/644 288/94/644 287/90/644
f 71/63/645 281/91/645 287/90/645
f 85/92/646 90/86/646 300/84/646
f 289/87/647 300/84/647 301/93/647
f 288/94/648 301/93/648 299/83/648
f 81/95/649 287/90/649 299/83/649
f 294/96/650 293/82/650 297/82/650
f 293/82/651 91/97/651 72/97/651
f 298/98/652 295/98/652 294/96/652
f 80/85/653 95/85/653 295/98/653
f 284/99/654 296/96/654 297/82/654
f 286/100/655 298/98/655 296/96/655
f 297/82/656 299/83/656 290/101/656
f 300/84/657 298/98/657 286/100/657
f 301/93/658 300/84/658 292/103/658
f 290/101/659 299/83/659 301/93/659
f 348/105/660 303/99/660 304/100/660
f 307/103/661 306/104/661 349/106/661
f 352/108/662 305/101/662 302/102/662
f 302/102/663 303/99/663 348/105/663
f 349/106/664 306/104/664 305/101/664
f 304/100/665 307/103/665 350/107/665
f 308/102/666 309/99/666 353/111/666
f 356/113/667 312/104/667 311/101/667
f 358/114/668 310/100/668 313/103/668
f 353/111/669 309/99/669 310/100/669
f 313/103/670 312/104/670 356/113/670
f 311/101/671 308/102/671 354/112/671
f 315/99/672 316/100/672 310/100/672
f 333/103/673 332/104/673 312/104/673
f 317/101/674 314/102/674 308/102/674
f 308/102/675 314/102/675 315/99/675
f 318/104/676 317/101/676 311/101/676
f 310/100/677 316/100/677 319/103/677
f 314/102/678 320/102/678 321/99/678
f 324/104/294 323/101/294 317/101/294
f 322/100/679 325/103/679 319/103/679
f 315/99/680 321/99/680 322/100/680
f 319/103/297 325/103/297 324/104/297
f 317/101/681 323/101/681 320/102/681
f 331/103/682 330/104/682 324/104/682
f 323/101/683 329/101/683 326/102/683
f 326/102/684 327/99/684 321/99/684
f 324/104/685 330/104/685 329/101/685
f 328/100/686 331/103/686 325/103/686
f 321/99/687 327/99/687 328/100/687
f 337/103/305 336/104/305 332/104/305
f 332/104/688 334/104/688 318/104/688
f 334/104/689 335/103/689 319/103/689
f 319/103/690 335/103/690 333/103/690
f 339/103/691 343/103/691 341/103/691
f 335/103/310 339/103/310 337/103/310
f 338/104/311 339/103/311 335/103/311
f 336/104/312 338/104/312 334/104/312
f 341/103/692 343/103/692 342/104/692
f 342/104/693 343/103/693 339/103/693
f 340/104/694 342/104/694 338/104/694
f 341/103/695 340/104/695 336/104/695
f 295/98/696 346/98/696 345/96/696
f 344/82/697 144/97/697 91/97/697
f 148/85/698 346/98/698 295/98/698
f 345/96/699 344/82/699 293/82/699
f 328/100/700 327/99/700 330/104/700
f 327/99/701 326/102/701 329/101/701
f 347/110/702 350/107/702 292/103/702
f 291/104/703 349/106/703 352/108/703
f 282/102/704 351/109/704 348/105/704
f 290/101/705 352/108/705 351/109/705
f 350/107/706 349/106/706 291/104/706
f 348/105/707 347/110/707 286/100/707
f 355/115/708 354/112/708 302/102/708
f 357/107/709 356/113/709 306/104/709
f 303/99/710 353/111/710 358/114/710
f 304/100/711 358/114/711 357/107/711
f 306/104/712 356/113/712 355/115/712
f 354/112/713 353/111/713 303/99/713
f 361/65/714 362/64/714 360/97/714
f 361/65/715 363/67/715 364/66/715
f 363/67/716 365/69/716 366/68/716
f 367/70/717 368/74/717 366/68/717
f 368/74/718 374/74/718 373/68/718
f 416/116/719 369/75/719 359/63/719
f 162/97/720 161/63/720 171/75/720
f 381/65/721 382/67/721 386/67/721
f 177/76/722 183/76/722 379/74/722
f 372/66/723 371/64/723 362/64/723
f 362/64/724 371/64/724 370/97/724
f 373/68/725 372/66/725 364/66/725
f 375/132/726 376/125/726 379/71/726
f 376/125/727 377/73/727 379/71/727
f 377/73/728 378/72/728 379/71/728
f 378/68/729 377/66/729 372/66/729
f 371/64/730 376/64/730 375/97/730
f 375/118/731 183/76/731 177/76/731
f 379/74/732 378/68/732 373/68/732
f 377/66/733 376/64/733 371/64/733
f 384/70/734 398/70/734 399/75/734
f 384/70/735 385/75/735 388/75/735
f 380/63/736 381/65/736 387/117/736
f 386/67/737 382/67/737 383/69/737
f 388/75/738 385/75/738 380/77/738
f 383/69/739 384/70/739 389/70/739
f 391/119/740 389/70/740 410/70/740
f 407/121/741 388/75/741 390/122/741
f 406/67/742 386/67/742 391/119/742
f 411/63/743 390/63/743 387/117/743
f 389/70/744 388/75/744 407/121/744
f 409/123/745 387/117/745 386/67/745
f 197/116/746 378/116/746 379/116/746
f 198/116/747 377/116/747 378/116/747
f 199/116/748 200/116/748 375/116/748
f 392/116/749 204/116/749 199/116/749
f 198/116/750 203/116/750 393/116/750
f 393/73/751 392/125/751 376/125/751
f 395/80/752 394/137/752 399/79/752
f 399/79/753 398/78/753 397/126/753
f 397/126/754 396/131/754 395/80/754
f 396/67/755 397/69/755 383/69/755
f 394/63/756 395/65/756 381/65/756
f 385/75/757 399/75/757 394/77/757
f 383/69/758 397/69/758 398/70/758
f 395/65/759 396/67/759 382/67/759
f 361/65/760 400/123/760 403/67/760
f 401/127/761 404/121/761 369/75/761
f 359/63/762 402/63/762 400/123/762
f 363/67/763 403/67/763 405/69/763
f 404/121/764 402/77/764 359/77/764
f 405/69/765 401/127/765 367/70/765
f 400/123/766 409/123/766 406/67/766
f 410/70/767 407/121/767 404/121/767
f 402/63/768 411/63/768 409/123/768
f 403/67/769 406/67/769 408/120/769
f 404/121/770 407/121/770 411/77/770
f 408/120/771 410/70/771 401/127/771
f 281/116/772 71/116/772 204/116/772
f 203/116/773 79/116/773 285/116/773
f 392/125/774 393/73/774 283/128/774
f 393/73/775 285/73/775 283/128/775
f 413/96/776 412/82/776 344/82/776
f 414/98/395 413/96/395 345/96/395
f 344/82/777 412/82/777 223/97/777
f 227/85/778 414/98/778 346/98/778
f 415/116/779 170/74/779 176/74/779
f 416/116/780 177/76/780 374/74/780
f 172/118/781 162/97/781 415/116/781
f 416/116/782 360/97/782 370/118/782
