# Blender 5.0.0
# www.blender.org
o body
v 0.496492 -0.836496 9.648985
v 0.583336 -0.739346 10.919923
v 0.476577 0.278155 9.716243
v 0.565221 0.486406 10.955635
v 0.246627 0.341088 9.620354
v -0.000000 0.369678 9.565673
v -0.000000 0.658669 11.089280
v 0.340386 0.599495 11.044765
v 0.631619 0.554539 10.714302
v 0.646511 0.545035 10.355411
v 0.576865 0.424383 9.983631
v 0.562963 -0.631520 9.562888
v 0.591550 -0.317049 9.534185
v 0.550611 0.022595 9.605282
v 0.654626 0.225672 11.034969
v 0.703310 -0.145583 11.067864
v 0.665741 -0.502555 11.014020
v 0.654036 -0.830154 10.667020
v 0.671875 -0.892060 10.294343
v 0.600616 -0.885222 9.914848
v -0.000000 -0.970373 9.483090
v 0.267098 -0.925011 9.542150
v 0.358752 -0.817453 11.007727
v -0.000000 -0.856363 11.052915
v -0.000000 0.674132 9.936912
v -0.000000 0.858995 10.355607
v -0.000000 0.860968 10.761301
v 0.290903 0.614872 9.962864
v 0.337850 0.778810 10.358884
v 0.344425 0.778265 10.741625
v 0.749642 0.108478 9.943316
v 0.841644 0.194318 10.340737
v 0.811618 0.221480 10.726433
v 0.812126 -0.260919 9.900160
v 0.912852 -0.205322 10.320951
v 0.878665 -0.167071 10.732171
v 0.764291 -0.610047 9.902842
v 0.857600 -0.587271 10.304667
v 0.825386 -0.539852 10.698800
v 0.317045 -1.052687 9.878790
v 0.365526 -1.074153 10.163052
v 0.369003 -0.996871 10.686477
v -0.000000 -1.112858 9.900970
v -0.000000 -1.133464 10.158123
v -0.000000 -1.050112 10.706075
v -0.000000 0.004889 9.299496
v 0.255090 0.002209 9.384995
v -0.000000 -0.369841 9.184083
v 0.272938 -0.355472 9.283232
v -0.000000 -0.709899 9.249978
v 0.266506 -0.681006 9.337664
v 0.373244 0.271111 11.221577
v -0.000000 0.302962 11.285433
v 0.399412 -0.129139 11.274201
v -0.000000 -0.120306 11.343931
v 0.383312 -0.515705 11.202542
v -0.000000 -0.530811 11.267110
v -0.000000 -1.256591 9.969232
v 0.899103 0.129189 10.330082
v 0.964296 0.059744 10.351168
v 0.972883 0.157159 10.147723
v 1.038076 0.087714 10.168809
v 0.910948 0.053346 9.904582
v 0.976141 -0.016099 9.925668
v 0.775233 -0.078438 9.843797
v 0.840426 -0.147883 9.864882
v 0.701452 -0.106409 10.026155
v 0.766645 -0.175854 10.047241
v 0.763387 -0.002596 10.269298
v 0.828580 -0.072040 10.290383
v 0.000000 0.608116 6.712744
v -0.000045 0.614588 8.861100
v 0.504716 0.474076 6.527126
v 0.828603 0.505483 8.686925
v 0.598099 0.170519 6.484824
v 0.958573 0.166588 8.754602
v 0.495931 -0.118359 6.446638
v 0.866807 -0.022062 8.486994
v 0.000000 -0.261991 6.573838
v 0.000045 -0.514896 8.547945
v -0.000000 0.657830 7.345802
v 0.570473 0.582682 7.418015
v 0.767004 0.304508 7.423615
v 0.571976 -0.163028 7.365491
v -0.000000 -0.421472 7.345802
v 0.000176 0.701468 8.436155
v 0.703748 0.815636 8.397024
v 0.718558 0.684909 8.121662
v 0.697319 0.331600 8.025013
v 0.000480 -0.479514 8.221006
v -0.000000 0.515979 9.032079
v 0.439945 0.370132 9.004473
v 0.633971 0.085944 8.973694
v 0.435110 -0.213948 8.961579
v -0.000000 -0.334730 8.824462
v 0.958142 0.160878 8.765464
v 0.710218 0.428436 8.797915
v 0.738425 -0.235620 8.766036
v 0.614287 0.703481 8.135462
v 0.622165 -0.112319 8.081116
v 0.716525 0.630098 8.089194
v 1.568441 1.646212 7.469722
v 1.659582 1.518935 7.373281
v 1.563794 1.341692 7.242688
v 1.164474 1.747905 7.349138
v 1.097276 1.663294 7.204622
v 1.161230 1.447445 7.117007
v 1.945186 2.387966 6.208414
v 2.010604 2.264816 6.133643
v 1.943155 2.119749 6.065065
v 1.639177 2.425867 6.141345
v 1.585649 2.324304 6.035432
v 1.637697 2.159447 5.994909
v 1.971248 2.487577 6.172873
v 2.060307 2.281421 6.126948
v 1.988832 2.059062 5.963588
v 1.817264 2.555777 6.036886
v 1.787555 2.395425 5.936142
v 1.816069 2.109321 5.785241
v 2.245011 2.755115 5.840186
v 2.301644 2.525634 5.705222
v 2.243385 2.244040 5.554750
v 2.084433 2.777560 5.653893
v 2.054723 2.617208 5.553149
v 2.083237 2.331104 5.402248
v 2.184870 2.969772 5.293858
v 2.196078 2.831258 5.171350
v 2.184936 2.614998 5.096272
v 2.094474 2.875340 5.310351
v 2.068184 2.793805 5.239425
v 2.093803 2.585340 5.146280
v 1.576285 2.388207 5.825428
v 1.607773 2.241695 5.800068
v 1.771217 2.422967 5.785542
v 1.791622 2.174889 5.661871
v 1.629031 2.450308 5.615092
v 1.654832 2.330256 5.594312
v 1.788757 2.478789 5.582409
v 1.805476 2.275516 5.481074
v 1.704787 2.515276 5.394087
v 1.715628 2.427953 5.382277
v 1.822593 2.521796 5.394592
v 1.831815 2.375625 5.324523
v -0.000000 0.404502 9.162621
v 0.158780 0.287954 9.134225
v 0.252719 0.101461 9.070704
v 0.182110 -0.006843 9.070704
v -0.000000 -0.116119 9.032677
v 1.513457 1.254214 7.309597
v 1.609217 1.416818 7.468287
v 1.078577 1.625058 7.252451
v 1.131939 1.400373 7.154113
v 1.519667 1.550268 7.568634
v 1.135871 1.693661 7.415430
v 1.698690 1.598031 7.280463
v 1.610076 1.729787 7.366302
v 1.199386 1.794809 7.265788
v 1.127148 1.692975 7.137772
v 1.197586 1.474300 7.076031
v 1.606353 1.408118 7.176746
v 0.508210 -0.859176 4.083887
v 0.519508 0.398551 5.024662
v 0.863355 -1.036157 4.201628
v 1.026829 0.134155 5.298132
v 0.863355 -1.244266 4.373708
v 1.028275 -0.297099 5.558162
v 0.508191 -1.407979 4.502886
v 0.513592 -0.558224 5.595928
v 0.152952 -1.237643 4.378016
v 0.144936 -0.213263 5.404060
v 0.153066 -1.004138 4.212315
v 0.512164 0.621730 5.267496
v 1.018174 0.287415 5.463430
v 1.020134 -0.172938 5.694388
v 0.515757 -0.482663 5.660821
v 0.136937 -0.128135 5.445523
v -0.000000 0.803329 5.501790
v 0.418974 0.745425 5.472991
v 0.879472 0.485888 5.970756
v 0.876436 0.005405 5.988458
v 0.449170 -0.306450 5.817605
v 0.134332 -0.033249 5.498347
v -0.000000 0.838475 5.603913
v 0.430883 -1.575628 1.934201
v 0.691277 -1.721263 1.971512
v 0.691277 -2.012532 2.046135
v 0.430883 -2.158195 2.083448
v 0.170489 -2.012701 2.046144
v 0.170489 -1.721263 1.971512
v 0.822906 -1.486319 3.744043
v 0.822906 -1.250360 3.671052
v 0.152560 -1.290091 3.685211
v 0.152560 -1.526781 3.758902
v 0.487733 -1.031980 3.635100
v 0.487733 -1.600128 4.156011
v -0.000000 0.010781 5.528245
v -0.000000 -0.189434 5.630112
v -0.000000 -0.265663 5.886045
v -0.000000 0.806555 6.126753
v -0.000000 0.834053 5.826062
v 0.713104 0.436440 6.288310
v 0.709689 -0.048629 6.218857
v -0.000000 -0.235360 6.233998
v 0.000000 0.628045 6.463740
v 0.430883 -2.176482 0.414119
v 0.625711 -2.290257 0.423455
v 0.625711 -2.518317 0.464487
v 0.430883 -2.628978 0.485389
v 0.236055 -2.515828 0.468124
v 0.236055 -2.290604 0.423346
v 0.856043 -1.112678 4.139051
v 0.152881 -1.331818 4.279574
v 0.504509 -0.909889 4.039457
v 0.856043 -1.321535 4.270763
v 0.152975 -1.096493 4.147070
v 0.504493 -1.455597 4.443795
v 0.847217 -1.400865 4.136776
v 0.152864 -1.163439 4.039622
v 0.500029 -1.509517 4.368473
v 0.847217 -1.164144 4.030283
v 0.152796 -1.405396 4.147302
v 0.500040 -0.978408 3.965341
v -0.000000 0.330200 9.803522
v 0.182652 0.209765 9.803522
v 0.252719 0.101461 9.803522
v 0.182110 -0.006843 9.803522
v -0.000000 -0.127185 9.748448
v -0.496493 -0.836496 9.648985
v -0.583336 -0.739346 10.919923
v -0.476577 0.278155 9.716243
v -0.565221 0.486406 10.955635
v -0.246627 0.341088 9.620354
v -0.340386 0.599495 11.044765
v -0.631619 0.554539 10.714302
v -0.646511 0.545035 10.355411
v -0.576865 0.424383 9.983631
v -0.562963 -0.631520 9.562888
v -0.591550 -0.317049 9.534185
v -0.550611 0.022595 9.605282
v -0.654626 0.225672 11.034969
v -0.703310 -0.145583 11.067864
v -0.665741 -0.502555 11.014020
v -0.654036 -0.830154 10.667020
v -0.671875 -0.892060 10.294343
v -0.600616 -0.885222 9.914848
v -0.267098 -0.925011 9.542150
v -0.358752 -0.817453 11.007727
v -0.290903 0.614872 9.962864
v -0.337850 0.778810 10.358884
v -0.344425 0.778265 10.741625
v -0.749642 0.108478 9.943316
v -0.841644 0.194318 10.340737
v -0.811618 0.221480 10.726433
v -0.812126 -0.260919 9.900160
v -0.912852 -0.205322 10.320951
v -0.878665 -0.167071 10.732171
v -0.764291 -0.610047 9.902842
v -0.857600 -0.587271 10.304667
v -0.825386 -0.539852 10.698800
v -0.317045 -1.052687 9.878790
v -0.365526 -1.074153 10.163052
v -0.369003 -0.996871 10.686477
v -0.255090 0.002209 9.384995
v -0.272938 -0.355472 9.283232
v -0.266506 -0.681006 9.337664
v -0.373244 0.271111 11.221577
v -0.399412 -0.129139 11.274201
v -0.383312 -0.515705 11.202542
v -0.899103 0.129189 10.330082
v -0.964296 0.059744 10.351168
v -0.972883 0.157159 10.147723
v -1.038076 0.087714 10.168809
v -0.910948 0.053346 9.904582
v -0.976141 -0.016099 9.925668
v -0.775233 -0.078438 9.843797
v -0.840426 -0.147883 9.864882
v -0.701452 -0.106409 10.026155
v -0.766645 -0.175854 10.047241
v -0.763387 -0.002596 10.269298
v -0.828580 -0.072040 10.290383
v -0.504526 0.476275 6.592924
v -0.822512 0.157434 8.436688
v -0.598793 0.169840 6.550221
v -0.956843 0.089304 8.777946
v -0.495657 -0.144982 6.498873
v -0.863582 -0.240513 8.817913
v -0.567872 0.436476 7.356370
v -0.761802 -0.000604 7.384665
v -0.569691 -0.316587 7.388233
v -0.689811 0.073595 8.019615
v -0.701818 -0.240280 8.011101
v -0.684101 -0.473146 8.261493
v -0.440484 0.412452 8.973133
v -0.634112 0.104533 8.982259
v -0.435370 -0.196830 8.996948
v -0.956575 0.096403 8.786597
v -0.708771 0.367006 8.619944
v -0.738417 -0.245864 8.909725
v -0.607046 0.326218 7.910806
v -0.616776 -0.412296 8.236295
v -0.701360 -0.207873 7.990813
v -1.529110 -0.639822 6.952789
v -1.620030 -0.770977 7.043064
v -1.524387 -0.952660 7.167737
v -1.124987 -0.722976 6.817005
v -1.058209 -0.888945 6.848463
v -1.121675 -1.039954 7.025582
v -1.960717 -1.587102 5.870448
v -2.026214 -1.694922 5.965951
v -1.958263 -1.807588 6.079906
v -1.658325 -1.647604 5.803552
v -1.606621 -1.781597 5.864956
v -1.656575 -1.870438 6.010353
v -1.990238 -1.588715 5.765611
v -2.076480 -1.694617 5.949698
v -2.006388 -1.921652 6.107117
v -1.842966 -1.700691 5.653242
v -1.813594 -1.847600 5.772824
v -1.841553 -2.080005 5.997870
v -2.281988 -1.812254 5.416160
v -2.338666 -2.010905 5.593388
v -2.280015 -2.243979 5.811488
v -2.129023 -1.986549 5.331207
v -2.099651 -2.133458 5.450788
v -2.127610 -2.365861 5.675836
v -2.247006 -2.264731 5.039054
v -2.259800 -2.424237 5.132402
v -2.246810 -2.563861 5.313692
v -2.154037 -2.281409 5.130919
v -2.128667 -2.375120 5.185179
v -2.153248 -2.528374 5.354589
v -1.606513 -1.960987 5.738101
v -1.635756 -2.030261 5.870186
v -1.803507 -1.982280 5.698893
v -1.823167 -2.177112 5.896141
v -1.668431 -2.139474 5.614859
v -1.692392 -2.196236 5.723089
v -1.829847 -2.156921 5.582732
v -1.845955 -2.316566 5.744356
v -1.753799 -2.326518 5.486290
v -1.763185 -2.364898 5.565795
v -1.871617 -2.320598 5.484065
v -1.880297 -2.432821 5.601075
v -0.158780 0.287954 9.134225
v -0.252719 0.101461 9.070704
v -0.182110 -0.006843 9.070704
v -1.478640 -0.921168 7.268743
v -1.574391 -0.718494 7.165787
v -1.039403 -0.852198 6.904423
v -1.093838 -1.018755 7.084090
v -1.484732 -0.579818 7.073381
v -1.097786 -0.675648 6.892932
v -1.658389 -0.828001 6.945765
v -1.569676 -0.706847 6.845915
v -1.162674 -0.791301 6.741832
v -1.092714 -0.946984 6.795982
v -1.160491 -1.072265 6.986021
v -1.565663 -0.989068 7.089914
v -0.508053 1.396731 4.113594
v -0.519458 1.012963 5.452326
v -0.866564 1.215664 4.000083
v -1.031588 0.699556 5.534053
v -0.866564 0.970901 3.880123
v -1.033048 0.282335 5.248922
v -0.508033 0.783816 3.782524
v -0.513485 0.114705 5.019390
v -0.149427 0.968899 3.887066
v -0.141336 0.278780 5.213525
v -0.149542 1.213489 4.024134
v -0.512044 0.940963 5.709877
v -1.022851 0.597173 5.697559
v -1.024829 0.171860 5.422308
v -0.515671 0.028393 5.135637
v -0.133260 0.191988 5.313644
v -0.417970 0.886876 5.836766
v -0.882834 0.472818 6.054018
v -0.879769 -0.050786 5.874406
v -0.448454 -0.142971 5.425195
v -0.130631 0.095301 5.454915
v -0.429993 3.077996 2.582620
v -0.658826 2.998827 2.476852
v -0.658826 2.840488 2.265315
v -0.429993 2.761317 2.159546
v -0.201160 2.840487 2.265315
v -0.201160 2.998827 2.476852
v -0.825732 1.446924 3.394459
v -0.825732 1.606859 3.587464
v -0.149031 1.578336 3.555852
v -0.149031 1.417735 3.362598
v -0.487381 1.724882 3.777587
v -0.487381 1.019615 3.449158
v -0.714889 0.433430 6.353616
v -0.711441 -0.113306 6.230079
v -0.429993 4.255111 1.429119
v -0.608102 4.231038 1.330790
v -0.608102 4.199854 1.102764
v -0.429993 4.185572 1.000297
v -0.251883 4.191052 1.111876
v -0.251883 4.231222 1.329670
v -0.859182 1.233591 3.899667
v -0.149356 1.015205 3.753105
v -0.504316 1.406802 4.047065
v -0.859182 1.030370 3.762427
v -0.149450 1.232543 3.917904
v -0.504300 0.816879 3.710555
v -0.850273 1.116666 3.629261
v -0.149338 1.300333 3.811743
v -0.499794 0.862178 3.625265
v -0.850273 1.308625 3.807054
v -0.149269 1.105044 3.628714
v -0.499806 1.442330 3.954436
v -0.182652 0.209765 9.803522
v -0.252719 0.101461 9.803522
v -0.182110 -0.006843 9.803522
v 0.213411 0.521233 5.274948
v -0.199640 0.815349 5.423051
vn 0.2171 0.8930 -0.3943
vn 0.2309 0.9730 -0.0026
vn 0.2282 0.8287 0.5111
vn 0.5934 0.7171 0.3657
vn 0.6038 0.7971 0.0039
vn 0.5368 0.7678 -0.3497
vn 0.4335 0.6757 -0.5962
vn 0.2244 0.7535 -0.6180
vn 0.9488 0.1900 -0.2522
vn 0.9829 0.1719 0.0657
vn 0.9669 -0.1341 -0.2169
vn 0.9843 -0.1466 0.0981
vn 0.7198 0.4412 -0.5359
vn 0.8218 0.4872 -0.2955
vn 0.8739 0.4848 0.0339
vn 0.8176 0.4547 0.3533
vn 0.8793 0.1584 0.4492
vn 0.8717 -0.1659 0.4611
vn 0.7717 -0.4987 0.3948
vn 0.8452 -0.5193 0.1267
vn 0.8441 -0.5094 -0.1677
vn 0.7852 -0.4383 -0.4373
vn 0.8572 -0.1236 -0.4999
vn 0.8229 0.2097 -0.5281
vn 1.0000 -0.0000 -0.0000
vn 0.1564 -0.9765 0.1485
vn 0.4800 -0.7943 -0.3725
vn 0.5169 -0.8425 -0.1518
vn 0.4664 -0.8756 0.1262
vn 0.4808 -0.7739 0.4123
vn 0.1500 -0.8611 0.4857
vn 0.2261 -0.9220 -0.3144
vn 0.3148 0.2794 -0.9071
vn 0.3250 -0.1799 -0.9284
vn 0.2669 0.5681 -0.7785
vn 0.4934 0.5045 -0.7086
vn 0.5804 0.2495 -0.7751
vn 0.6137 -0.1420 -0.7766
vn 0.5175 -0.5489 -0.6564
vn 0.3026 -0.6356 -0.7102
vn 0.1733 0.1395 0.9749
vn 0.1703 -0.1865 0.9676
vn 0.5492 0.4099 0.7283
vn 0.1876 0.4801 0.8569
vn 0.1601 -0.5446 0.8233
vn 0.5064 -0.4648 0.7263
vn 0.5518 -0.1809 0.8141
vn 0.5611 0.1458 0.8148
vn 0.6237 0.6944 0.3588
vn 0.7220 0.5506 -0.4190
vn 0.3616 0.0569 -0.9306
vn -0.6237 -0.6944 -0.3589
vn 0.6532 -0.7421 0.1505
vn -0.7220 -0.5506 0.4190
vn -0.3616 -0.0569 0.9306
vn -0.6532 0.7421 -0.1505
vn 0.1715 0.9184 0.3565
vn 0.4907 -0.8663 -0.0931
vn 0.2613 -0.9628 -0.0684
vn 0.9425 -0.3209 -0.0936
vn 0.9460 0.3059 -0.1071
vn 0.2082 0.9689 -0.1335
vn 0.4105 -0.9112 0.0358
vn 0.8787 -0.3991 0.2619
vn 0.8094 0.5690 -0.1452
vn 0.1501 0.9734 -0.1731
vn 0.4574 0.3233 0.8284
vn 0.2565 0.7890 0.5583
vn 0.4883 -0.3560 0.7968
vn 0.0604 -0.8363 0.5449
vn 0.7078 0.6133 0.3505
vn 0.8743 -0.4844 0.0315
vn 0.1780 0.7092 0.6821
vn 0.8578 -0.2048 -0.4715
vn 0.9943 -0.0794 0.0718
vn 0.3647 0.8041 -0.4695
vn 0.8871 -0.4609 -0.0251
vn -0.8174 0.0568 -0.5733
vn 0.0051 0.7728 0.6346
vn 0.8254 0.1433 0.5460
vn -0.8474 0.5237 0.0874
vn 0.0724 -0.6319 -0.7717
vn 0.8559 0.3023 0.4196
vn -0.8553 0.5145 -0.0611
vn 0.0135 -0.8440 -0.5362
vn 0.9066 -0.4221 0.0012
vn -0.8772 -0.1541 -0.4548
vn 0.0166 0.8691 0.4943
vn 0.2808 -0.5138 0.8106
vn -0.9522 -0.3049 0.0175
vn -0.0741 0.6846 0.7251
vn 0.6376 0.1054 0.7631
vn -0.4882 0.7399 -0.4628
vn -0.5087 -0.8203 0.2616
vn 0.8147 -0.1312 0.5649
vn -0.8463 0.3869 -0.3663
vn 0.0996 -0.9284 -0.3581
vn 0.8864 -0.3471 0.3063
vn -0.8522 0.1751 -0.4931
vn -0.2655 0.9030 0.3377
vn -0.9945 -0.0508 -0.0915
vn -0.6951 0.6965 0.1779
vn 0.9694 0.2453 -0.0103
vn -0.9681 0.2338 0.0901
vn 0.1937 -0.7505 -0.6319
vn 0.9824 0.0140 -0.1862
vn -0.9466 -0.1545 -0.2830
vn -0.1859 0.9377 0.2936
vn 0.9866 0.1412 -0.0812
vn -0.5248 -0.7904 -0.3161
vn -0.5513 -0.6577 -0.5133
vn -0.5762 -0.6946 -0.4307
vn 0.9949 0.0343 0.0953
vn -0.1193 0.9600 0.2535
vn -0.2542 0.4050 -0.8783
vn 0.9844 -0.0067 0.1758
vn -0.1223 0.9628 0.2411
vn -0.9321 -0.1427 -0.3330
vn 0.2666 -0.1738 0.9480
vn 0.2255 0.5247 0.8209
vn -0.0367 -0.6892 0.7236
vn 0.2486 0.0650 0.9664
vn -0.5155 0.3046 -0.8009
vn -0.6227 0.4895 -0.6104
vn 0.2510 -0.7220 -0.6448
vn -0.8844 0.4507 0.1212
vn 0.8034 0.0974 0.5874
vn 0.0105 0.7430 0.6692
vn -0.9436 0.1389 -0.3004
vn 0.8922 -0.4515 0.0124
vn 0.0639 0.8580 0.5096
vn -0.7598 0.0383 -0.6490
vn 0.8984 -0.4392 0.0043
vn 0.0536 -0.7206 -0.6913
vn -0.7732 0.6308 -0.0655
vn 0.8347 0.2128 0.5080
vn 0.4907 0.5191 -0.6998
vn 0.9941 -0.0689 -0.0833
vn 0.5063 -0.6820 0.5277
vn -0.5109 -0.6775 0.5292
vn -0.6948 -0.3667 0.6187
vn 0.9946 0.0847 0.0597
vn -1.0000 -0.0030 -0.0049
vn 0.9972 -0.0220 -0.0711
vn -0.9858 -0.1585 0.0546
vn 0.9990 0.0254 0.0366
vn 0.6011 0.6015 -0.5262
vn 0.3626 -0.6131 0.7018
vn -0.5361 0.3029 0.7879
vn 0.2984 -0.5690 0.7663
vn 0.5995 0.7873 -0.1441
vn 0.0870 0.8705 -0.4845
vn -0.6941 -0.3646 0.6208
vn 0.9224 0.1764 0.3437
vn -0.9992 -0.0078 -0.0390
vn -0.9999 -0.0030 -0.0096
vn 0.5457 0.7928 -0.2716
vn 0.5001 -0.8374 0.2208
vn -0.5000 0.8386 -0.2162
vn -0.4715 -0.8482 0.2413
vn -0.4744 -0.7995 0.3684
vn -0.6128 0.7443 -0.2655
vn 0.4852 -0.8602 0.1571
vn 0.5509 0.8203 -0.1536
vn -1.0000 0.0005 0.0005
vn 0.9978 -0.0194 -0.0629
vn -0.2225 -0.9747 -0.0194
vn -0.3278 -0.4284 -0.8420
vn -0.1294 -0.9503 -0.2831
vn -0.1884 0.0894 -0.9780
vn 0.2762 0.9571 0.0875
vn 0.3745 0.8661 0.3311
vn 0.2552 -0.9632 0.0839
vn 0.8081 0.0166 0.5888
vn 0.0004 -0.1801 -0.9836
vn 0.4998 -0.8308 0.2449
vn 0.4970 0.8070 -0.3190
vn -0.4902 0.8111 -0.3190
vn -0.5031 -0.8290 0.2442
vn 0.9992 -0.0099 -0.0387
vn 0.9970 -0.0415 -0.0658
vn -1.0000 0.0006 0.0002
vn 0.5049 0.5476 -0.6672
vn 0.5110 -0.7045 0.4925
vn -0.4689 0.5099 -0.7212
vn -0.5100 -0.6539 0.5589
vn 0.9973 -0.0300 -0.0667
vn -1.0000 0.0006 0.0003
vn 0.4575 0.6390 -0.6183
vn 0.5113 -0.7538 0.4127
vn -0.4923 0.7390 -0.4599
vn -0.4904 -0.6946 0.5263
vn 0.2797 0.9555 0.0935
vn 0.2595 -0.9628 -0.0754
vn 0.7568 0.1439 0.6377
vn 0.8931 0.4499 -0.0000
vn 0.8377 -0.5461 -0.0000
vn 0.5488 0.8323 0.0777
vn 0.5165 -0.8562 -0.0132
vn -0.2171 0.8930 -0.3943
vn -0.2332 0.9724 -0.0047
vn -0.2282 0.8287 0.5111
vn -0.5362 0.7239 0.4341
vn -0.6140 0.7893 -0.0094
vn -0.5575 0.7416 -0.3731
vn -0.4335 0.6757 -0.5962
vn -0.2244 0.7535 -0.6180
vn -0.9486 0.1818 -0.2589
vn -0.9832 0.1706 0.0645
vn -0.9679 -0.1309 -0.2144
vn -0.9842 -0.1492 0.0957
vn -0.7191 0.4598 -0.5211
vn -0.8258 0.4724 -0.3080
vn -0.8791 0.4760 0.0239
vn -0.8176 0.4547 0.3533
vn -0.8813 0.1551 0.4463
vn -0.8704 -0.1617 0.4650
vn -0.7756 -0.4470 0.4457
vn -0.8474 -0.5145 0.1312
vn -0.8444 -0.5089 -0.1672
vn -0.7852 -0.4383 -0.4373
vn -0.8583 -0.1214 -0.4987
vn -0.8209 0.2013 -0.5345
vn -0.1488 -0.9784 0.1435
vn -0.5095 -0.7887 -0.3441
vn -0.5440 -0.8308 -0.1171
vn -0.5063 -0.8464 0.1648
vn -0.4808 -0.7739 0.4123
vn -0.1500 -0.8611 0.4857
vn -0.1482 -0.9172 -0.3698
vn -0.3082 0.2745 -0.9109
vn -0.3445 -0.1614 -0.9248
vn -0.2408 0.5577 -0.7943
vn -0.4461 0.4620 -0.7665
vn -0.5707 0.2336 -0.7872
vn -0.6232 -0.1271 -0.7717
vn -0.5828 -0.4680 -0.6643
vn -0.3026 -0.6356 -0.7102
vn -0.1783 0.1347 0.9747
vn -0.1652 -0.1814 0.9694
vn -0.5146 0.4458 0.7324
vn -0.1947 0.4737 0.8589
vn -0.1601 -0.5446 0.8233
vn -0.5064 -0.4648 0.7263
vn -0.5466 -0.1746 0.8190
vn -0.5630 0.1438 0.8139
vn -0.6237 0.6944 0.3588
vn -0.7220 0.5506 -0.4190
vn -0.3616 0.0569 -0.9306
vn 0.6237 -0.6944 -0.3589
vn -0.6532 -0.7421 0.1505
vn 0.7220 -0.5506 0.4190
vn 0.3616 -0.0569 0.9306
vn 0.6532 0.7421 -0.1505
vn -0.3796 0.9064 0.1851
vn -0.2532 -0.9488 0.1888
vn -0.1961 -0.9597 -0.2015
vn -0.8229 -0.5033 -0.2636
vn -0.9514 0.3015 -0.0632
vn -0.3634 0.9288 -0.0729
vn -0.1884 -0.9747 -0.1205
vn -0.8504 -0.5180 -0.0923
vn -0.9136 0.4064 0.0163
vn -0.5036 0.8632 -0.0345
vn -0.3777 0.7111 0.5930
vn -0.3756 0.9114 0.1680
vn -0.5182 -0.0227 0.8550
vn -0.0272 -0.8280 0.5601
vn -0.7835 0.5916 -0.1903
vn -0.9442 -0.2396 0.2258
vn -0.6651 0.6624 -0.3448
vn 0.6843 -0.5675 0.4580
vn 0.9713 -0.1359 -0.1951
vn -0.9986 0.0372 0.0368
vn -0.8730 -0.1826 0.4523
vn 0.8360 -0.5049 -0.2148
vn 0.0119 0.8935 -0.4490
vn -0.8305 0.5562 0.0289
vn 0.8508 0.2513 -0.4615
vn -0.0804 -0.9407 0.3297
vn -0.8471 0.5162 -0.1263
vn 0.8037 0.1621 -0.5725
vn 0.0030 -0.7747 0.6323
vn -0.8897 -0.1175 0.4411
vn 0.8627 -0.5052 -0.0254
vn -0.0169 0.7430 -0.6691
vn -0.2391 0.6154 0.7511
vn 0.9586 -0.1068 0.2641
vn 0.0864 0.9013 -0.4245
vn -0.2106 0.7168 0.6648
vn 0.4544 -0.2202 -0.8631
vn 0.1770 -0.2135 0.9608
vn -0.7720 0.6356 0.0039
vn 0.8234 -0.2500 -0.5094
vn -0.0928 -0.6291 0.7718
vn -0.8025 0.1522 0.5769
vn 0.8291 -0.4372 -0.3484
vn 0.1301 0.7824 -0.6091
vn 0.9912 -0.1315 -0.0126
vn 0.3105 0.6226 -0.7183
vn -0.9742 0.0953 -0.2047
vn 0.9814 0.0439 -0.1871
vn -0.2010 -0.8301 0.5200
vn -0.9796 -0.1921 0.0581
vn 0.9385 -0.3443 0.0272
vn 0.1765 0.5684 -0.8036
vn -0.9918 -0.0042 -0.1276
vn 0.5384 -0.5149 0.6671
vn 0.5877 -0.6698 0.4537
vn 0.5745 -0.6439 0.5053
vn -0.9911 0.1299 0.0295
vn 0.1079 0.5392 -0.8352
vn -0.0369 -0.8982 -0.4380
vn -0.9767 0.1930 0.0933
vn 0.1105 0.5283 -0.8419
vn 0.9218 -0.3876 0.0008
vn -0.2255 -0.1015 0.9689
vn -0.2334 0.5282 0.8164
vn 0.0683 -0.6881 0.7224
vn -0.2214 0.1677 0.9606
vn 0.4947 -0.6790 -0.5425
vn 0.4594 -0.3487 -0.8170
vn 0.0272 -0.9191 0.3930
vn 0.9456 -0.0274 -0.3242
vn -0.6654 0.7376 -0.1147
vn -0.3719 0.8801 -0.2952
vn 0.9513 -0.1893 -0.2433
vn -0.8790 -0.1958 0.4348
vn -0.0643 0.7543 -0.6534
vn 0.7559 -0.6066 -0.2463
vn -0.8572 -0.1054 0.5040
vn 0.0422 -0.7937 0.6069
vn 0.7867 0.2062 -0.5819
vn -0.8316 0.5544 -0.0321
vn -0.4965 0.8355 0.2353
vn -0.9943 0.0623 -0.0860
vn -0.4469 -0.7762 -0.4448
vn 0.5098 -0.7576 -0.4076
vn 0.5528 -0.6740 -0.4900
vn 0.5262 0.8162 0.2385
vn -0.3955 0.5355 -0.7462
vn -0.9956 0.0719 -0.0596
vn 0.9759 -0.1711 -0.1353
vn -0.9992 -0.0201 0.0345
vn -0.4762 0.8432 0.2494
vn -0.4639 -0.7071 -0.5337
vn 0.4488 -0.2508 0.8577
vn -0.4422 -0.8131 -0.3785
vn -0.4518 0.6494 0.6117
vn 0.3173 0.9342 0.1629
vn 0.5253 -0.6976 -0.4872
vn -0.9606 -0.1479 0.2354
vn 0.9995 0.0242 -0.0181
vn 0.9996 0.0223 -0.0185
vn -0.5448 0.5680 0.6170
vn -0.5169 -0.4984 -0.6961
vn 0.6152 0.5070 0.6037
vn 0.4539 -0.5399 -0.7089
vn 0.4722 -0.6734 -0.5688
vn 0.4868 0.4480 0.7499
vn -0.4720 -0.6405 -0.6058
vn -0.4930 0.5418 0.6808
vn 1.0000 -0.0002 0.0006
vn -0.9981 0.0420 -0.0453
vn -0.1259 -0.9919 -0.0197
vn 0.2026 -0.4441 -0.8728
vn 0.0311 -0.9579 -0.2853
vn 0.5257 0.0774 -0.8472
vn -0.3156 0.6939 0.6472
vn -0.3581 0.8785 0.3163
vn -0.2361 -0.9699 -0.0587
vn -0.9041 -0.1434 0.4026
vn -0.0009 0.9906 -0.1368
vn -0.4996 -0.5522 -0.6675
vn -0.4967 0.6075 0.6199
vn 0.4967 0.6075 0.6199
vn 0.4996 -0.5517 -0.6679
vn -0.9995 0.0243 -0.0182
vn -0.9984 0.0246 -0.0502
vn 1.0000 0.0001 0.0006
vn -0.4776 0.8703 0.1203
vn -0.5071 -0.7729 -0.3814
vn 0.4800 0.8634 0.1553
vn 0.5076 -0.7926 -0.3378
vn -0.9984 0.0314 -0.0465
vn 1.0000 -0.0001 0.0007
vn -0.5386 0.6793 0.4985
vn -0.5116 -0.7474 -0.4240
vn 0.5101 0.7945 0.3296
vn 0.4843 -0.7830 -0.3903
vn -0.2717 0.9601 0.0669
vn -0.1692 -0.9854 0.0197
vn -0.7559 0.1435 0.6388
vn -0.8931 0.4499 -0.0000
vn -0.8377 -0.5461 -0.0000
vn -0.5999 0.7948 0.0921
vn -0.5165 -0.8562 -0.0132
vn -0.7713 -0.0752 -0.6321
vn 0.9945 0.1041 0.0101
vn -0.1958 0.5203 -0.8312
vn 0.1558 0.9559 -0.2490
vn 0.2158 0.8929 -0.3952
vn 0.2332 0.9724 -0.0047
vn 0.2114 0.8407 0.4986
vn 0.5362 0.7239 0.4341
vn 0.6140 0.7893 -0.0094
vn 0.5575 0.7416 -0.3731
vn 0.4895 0.6746 -0.5525
vn 0.2088 0.7506 -0.6269
vn 0.9486 0.1818 -0.2589
vn 0.9832 0.1706 0.0645
vn 0.9679 -0.1309 -0.2144
vn 0.9842 -0.1492 0.0957
vn 0.7191 0.4598 -0.5211
vn 0.8258 0.4724 -0.3080
vn 0.8791 0.4760 0.0239
vn 0.8171 0.4050 0.4103
vn 0.8813 0.1551 0.4463
vn 0.8704 -0.1617 0.4650
vn 0.7756 -0.4470 0.4457
vn 0.8474 -0.5145 0.1312
vn 0.8444 -0.5089 -0.1672
vn 0.7820 -0.4824 -0.3947
vn 0.8583 -0.1214 -0.4987
vn 0.8209 0.2013 -0.5345
vn 0.1806 -0.9804 -0.0786
vn 0.1607 -0.9818 -0.1015
vn 0.1488 -0.9784 0.1435
vn 0.5095 -0.7887 -0.3441
vn 0.5440 -0.8308 -0.1171
vn 0.5063 -0.8464 0.1648
vn 0.4448 -0.7758 0.4475
vn 0.1542 -0.8626 0.4818
vn 0.1482 -0.9172 -0.3698
vn 0.3082 0.2745 -0.9109
vn 0.3445 -0.1614 -0.9248
vn 0.2408 0.5577 -0.7943
vn 0.4461 0.4620 -0.7665
vn 0.5707 0.2336 -0.7872
vn 0.6232 -0.1271 -0.7717
vn 0.5828 -0.4680 -0.6643
vn 0.2684 -0.6184 -0.7387
vn 0.1783 0.1347 0.9747
vn 0.1652 -0.1814 0.9694
vn 0.5146 0.4458 0.7324
vn 0.1947 0.4737 0.8589
vn 0.1626 -0.5423 0.8243
vn 0.4611 -0.5075 0.7279
vn 0.5466 -0.1746 0.8190
vn 0.5630 0.1438 0.8139
vn -0.6237 -0.6944 -0.3588
vn 0.2648 0.9447 0.1933
vn 0.4026 -0.8865 -0.2279
vn 0.4100 -0.8932 -0.1845
vn 0.9219 -0.3705 -0.1130
vn 0.7982 0.5594 -0.2235
vn 0.1398 0.9871 -0.0775
vn 0.4981 -0.8652 -0.0577
vn 0.9903 -0.1252 -0.0606
vn 0.4244 0.8257 -0.3717
vn -0.0228 0.9989 -0.0400
vn 0.5425 0.2848 0.7903
vn 0.3035 0.8254 0.4760
vn 0.5635 -0.3112 0.7653
vn 0.2090 -0.8822 0.4220
vn 0.5081 0.3519 0.7862
vn 0.9483 -0.2947 -0.1174
vn -0.9478 0.2215 0.2292
vn 0.6608 -0.7111 -0.2402
vn -0.9485 0.1237 -0.2916
vn -0.9906 0.0950 -0.0984
vn 0.8645 -0.5026 -0.0067
vn -0.8997 -0.0935 -0.4265
vn -0.0082 0.7198 0.6942
vn 0.8050 0.1395 0.5767
vn -0.8432 0.5328 0.0721
vn 0.0689 -0.6437 -0.7622
vn 0.8918 0.2413 0.3828
vn -0.8176 0.5758 0.0034
vn -0.0044 -0.8438 -0.5366
vn 0.9005 -0.4348 -0.0055
vn -0.8742 -0.1636 -0.4573
vn -0.0006 0.8694 0.4940
vn 0.5223 -0.6075 0.5984
vn -0.9782 -0.2069 -0.0193
vn -0.4984 0.4041 0.7670
vn 0.2525 -0.4006 0.8808
vn -0.6769 0.4774 -0.5603
vn -0.1520 -0.9827 0.1056
vn 0.7897 0.2130 0.5753
vn 0.0041 -0.8666 -0.4990
vn 0.8248 -0.4821 0.2954
vn -0.1272 0.8214 0.5559
vn -0.9926 -0.0823 -0.0889
vn -0.3155 0.8709 0.3769
vn 0.9811 0.1666 -0.0986
vn -0.9852 0.1702 0.0196
vn -0.1567 -0.6975 -0.6992
vn 0.9751 -0.0945 -0.2007
vn -0.1340 0.9721 0.1923
vn 0.9828 0.1407 -0.1200
vn -0.5311 -0.8067 -0.2590
vn -0.5918 -0.6541 -0.4711
vn -0.1193 0.9599 0.2535
vn -0.0031 0.1336 -0.9910
vn 0.9874 -0.0133 0.1576
vn -0.0549 0.9754 0.2135
vn -0.9371 -0.0701 -0.3418
vn 0.2345 -0.1940 0.9526
vn 0.5591 0.6305 0.5384
vn 0.0564 -0.4106 0.9101
vn 0.4377 -0.0844 0.8951
vn -0.5312 0.2903 -0.7959
vn -0.4954 0.6555 -0.5700
vn 0.0628 -0.6457 -0.7610
vn -0.9471 0.2673 -0.1778
vn 0.6262 0.3765 0.6827
vn 0.0904 0.6992 0.7091
vn -0.9095 -0.0347 -0.4142
vn 0.8768 -0.4793 -0.0380
vn -0.0281 0.7830 0.6214
vn -0.8754 -0.1524 -0.4588
vn 0.8628 -0.5031 0.0500
vn -0.0373 -0.8203 -0.5707
vn -0.7924 0.6099 0.0113
vn 0.8235 0.2108 0.5266
vn 0.5983 0.5018 -0.6247
vn 0.9943 -0.0524 -0.0924
vn 0.4137 -0.7383 0.5328
vn -0.7180 -0.4954 0.4890
vn -0.7058 -0.4498 0.5473
vn 1.0000 0.0030 -0.0045
vn -0.9948 0.0820 -0.0612
vn 0.9973 -0.0183 -0.0716
vn -0.9604 -0.1552 0.2314
vn 0.9992 0.0208 0.0330
vn 0.5988 0.5986 -0.5321
vn 0.3720 -0.6749 0.6373
vn -0.5520 0.0342 0.8331
vn -0.6388 0.2571 0.7251
vn 0.2828 -0.0722 0.9564
vn 0.3026 -0.7422 0.5980
vn 0.5929 0.7799 -0.2006
vn 0.1077 0.9401 -0.3235
vn -0.7786 -0.5549 0.2930
vn 0.9649 0.0036 0.2624
vn -0.9992 -0.0099 -0.0387
vn -0.9999 -0.0025 -0.0098
vn 0.4993 0.8243 -0.2671
vn 0.5325 -0.8209 0.2064
vn -0.6156 0.7564 -0.2212
vn -0.4996 -0.8347 0.2316
vn -0.4904 -0.8318 0.2602
vn -0.4870 0.8648 -0.1221
vn 0.4720 -0.8204 0.3226
vn 0.4923 0.8382 -0.2345
vn -1.0000 0.0002 0.0008
vn 0.9981 -0.0253 -0.0563
vn 0.1144 -0.6962 -0.7086
vn 0.0755 -0.5567 0.8273
vn 0.3616 0.9209 0.1456
vn 0.3325 0.8334 0.4415
vn 0.2965 -0.9550 -0.0094
vn 0.8881 -0.0713 0.4542
vn 0.0004 -0.0812 -0.9967
vn -0.0050 -0.1771 -0.9842
vn -0.0263 -0.1949 -0.9805
vn 0.4986 -0.8315 0.2450
vn 0.4893 0.8117 -0.3191
vn -0.4970 0.8070 -0.3190
vn -0.4994 -0.8312 0.2443
vn 0.9992 -0.0070 -0.0392
vn 0.9984 -0.0362 -0.0438
vn -1.0000 0.0007 0.0005
vn 0.4914 0.5227 -0.6966
vn 0.5063 -0.6867 0.5217
vn -0.5057 0.5891 -0.6303
vn -0.4999 -0.6256 0.5989
vn 0.9984 -0.0302 -0.0479
vn -1.0000 0.0006 0.0007
vn 0.5405 0.7427 -0.3953
vn 0.5090 -0.7139 0.4809
vn -0.5151 0.6446 -0.5649
vn -0.4964 -0.7585 0.4222
vn 0.2821 0.9563 0.0765
vn 0.2529 -0.9657 -0.0583
vn 0.7357 -0.3378 0.5870
vn 0.8986 -0.0684 0.4334
vn 0.8391 0.5429 0.0335
vn 0.5999 0.7948 0.0921
vn 0.5513 -0.8343 -0.0000
vn -0.2158 0.8929 -0.3952
vn -0.2309 0.9730 -0.0026
vn -0.2114 0.8407 0.4986
vn -0.5934 0.7171 0.3657
vn -0.6038 0.7971 0.0039
vn -0.5368 0.7678 -0.3497
vn -0.4895 0.6746 -0.5525
vn -0.2088 0.7506 -0.6269
vn -0.9488 0.1900 -0.2522
vn -0.9829 0.1719 0.0657
vn -0.9669 -0.1341 -0.2169
vn -0.9843 -0.1466 0.0981
vn -0.7198 0.4412 -0.5359
vn -0.8218 0.4872 -0.2955
vn -0.8739 0.4848 0.0339
vn -0.8171 0.4050 0.4103
vn -0.8793 0.1584 0.4492
vn -0.8717 -0.1659 0.4611
vn -0.7717 -0.4987 0.3948
vn -0.8452 -0.5193 0.1267
vn -0.8441 -0.5094 -0.1677
vn -0.7820 -0.4824 -0.3947
vn -0.8572 -0.1236 -0.4999
vn -0.8229 0.2097 -0.5281
vn -0.1607 -0.9818 -0.1015
vn -0.1806 -0.9804 -0.0786
vn -0.1564 -0.9765 0.1485
vn -0.4800 -0.7943 -0.3725
vn -0.5169 -0.8425 -0.1518
vn -0.4664 -0.8756 0.1262
vn -0.4448 -0.7758 0.4475
vn -0.1542 -0.8626 0.4818
vn -0.2261 -0.9220 -0.3144
vn -0.3148 0.2794 -0.9071
vn -0.3250 -0.1799 -0.9284
vn -0.2669 0.5681 -0.7785
vn -0.4934 0.5045 -0.7086
vn -0.5804 0.2495 -0.7751
vn -0.6137 -0.1420 -0.7766
vn -0.5175 -0.5489 -0.6564
vn -0.2683 -0.6184 -0.7387
vn -0.1733 0.1395 0.9749
vn -0.1703 -0.1865 0.9676
vn -0.5492 0.4099 0.7283
vn -0.1876 0.4801 0.8569
vn -0.1626 -0.5423 0.8243
vn -0.4611 -0.5075 0.7279
vn -0.5518 -0.1809 0.8141
vn -0.5611 0.1458 0.8148
vn 0.6237 -0.6944 -0.3588
vn -0.4481 0.8865 -0.1153
vn -0.1103 -0.9881 -0.1071
vn -0.1917 -0.9611 -0.1986
vn -0.9479 -0.2886 -0.1346
vn -0.9121 0.3984 -0.0968
vn -0.2591 0.9654 0.0288
vn -0.1096 -0.9918 -0.0657
vn -0.8695 -0.4832 -0.1028
vn -0.9671 0.1952 0.1632
vn -0.3561 0.9210 0.1580
vn -0.7297 0.4735 0.4934
vn -0.2611 0.8362 0.4823
vn -0.2562 -0.1222 0.9589
vn -0.0490 -0.8368 0.5452
vn -0.7869 0.4887 -0.3766
vn -0.5916 -0.0888 0.8013
vn -0.9568 0.2482 -0.1515
vn -0.1900 -0.9605 0.2031
vn 0.3457 -0.6591 -0.6679
vn -0.8776 0.0843 -0.4719
vn -0.8919 -0.1870 0.4117
vn 0.9080 -0.4178 -0.0308
vn -0.0028 0.8491 -0.5283
vn -0.8055 0.5907 0.0469
vn 0.8526 0.2568 -0.4551
vn -0.0705 -0.9266 0.3693
vn -0.8818 0.4647 -0.0801
vn 0.8410 0.0792 -0.5352
vn -0.0153 -0.7739 0.6331
vn -0.8966 -0.1057 0.4301
vn 0.8596 -0.5107 -0.0167
vn 0.0003 0.7423 -0.6700
vn -0.4863 0.3915 0.7812
vn 0.9810 -0.1116 0.1587
vn 0.5179 0.8405 -0.1588
vn -0.6107 0.7755 0.1600
vn 0.6450 -0.4007 -0.6507
vn 0.5357 -0.0247 0.8440
vn -0.7899 0.5181 0.3281
vn -0.0040 -0.7461 0.6658
vn -0.8666 0.2068 0.4541
vn 0.2584 0.5970 -0.7595
vn 0.9902 -0.1388 0.0181
vn 0.6861 0.3681 -0.6275
vn -0.9875 -0.0129 -0.1574
vn 0.9655 0.1312 -0.2248
vn 0.1454 -0.8875 0.4373
vn -0.9888 -0.1440 -0.0401
vn 0.1201 0.4846 -0.8664
vn -0.9894 -0.0413 -0.1394
vn 0.5295 -0.5638 0.6339
vn 0.5458 -0.7099 0.4452
vn 0.2123 -0.7131 -0.6682
vn -0.9803 0.1738 0.0940
vn 0.0418 0.5080 -0.8604
vn 0.9250 -0.3733 -0.0710
vn -0.1904 -0.1242 0.9738
vn -0.5591 0.6305 0.5384
vn -0.0126 -0.3473 0.9377
vn -0.5083 -0.0370 0.8604
vn 0.4784 -0.6788 -0.5571
vn 0.5887 -0.4429 -0.6762
vn -0.0242 -0.9038 0.4272
vn 0.8731 0.2620 -0.4112
vn -0.8115 0.5787 0.0812
vn -0.0448 0.8393 -0.5419
vn 0.9226 -0.3790 -0.0719
vn -0.8793 -0.1946 0.4346
vn 0.0361 0.8404 -0.5408
vn 0.8669 -0.4981 -0.0192
vn -0.8938 -0.1307 0.4290
vn -0.0669 -0.8897 0.4517
vn 0.7624 0.1215 -0.6356
vn -0.8141 0.5803 -0.0192
vn -0.4803 0.8456 0.2328
vn -0.9941 0.0475 -0.0970
vn -0.5072 -0.7571 -0.4118
vn 0.5347 -0.7483 -0.3926
vn 0.5333 -0.6174 -0.5783
vn 0.4898 0.8338 0.2548
vn -0.4714 0.5310 -0.7042
vn -0.9957 0.0742 -0.0556
vn 0.9806 -0.1851 0.0637
vn -0.9990 -0.0213 0.0401
vn -0.4980 0.7228 0.4792
vn -0.4705 -0.7541 -0.4582
vn 0.5507 -0.1920 0.8124
vn 0.5100 -0.2764 0.8145
vn 0.4551 -0.6789 0.5762
vn -0.4607 -0.8459 -0.2688
vn -0.4679 0.7611 0.4493
vn -0.0716 0.9431 -0.3246
vn 0.5438 -0.6608 -0.5173
vn -0.9376 -0.1177 0.3272
vn 0.9995 0.0324 -0.0060
vn 0.9996 0.0234 -0.0175
vn -0.4986 0.5764 0.6474
vn -0.5000 -0.5083 -0.7012
vn 0.4999 0.5354 0.6807
vn 0.5000 -0.5173 -0.6945
vn 0.4940 -0.5637 -0.6620
vn 0.6129 0.5348 0.5817
vn -0.4896 -0.4808 -0.7274
vn -0.5515 0.4599 0.6960
vn 1.0000 -0.0006 0.0005
vn -0.9978 0.0510 -0.0423
vn 0.3551 -0.3663 -0.8601
vn -0.2368 -0.9711 -0.0281
vn 0.1271 0.9878 0.0903
vn -0.2984 0.8434 0.4468
vn -0.1689 -0.9819 0.0855
vn -0.8730 -0.1127 0.4745
vn -0.0012 0.9718 -0.2357
vn 0.0831 0.9800 -0.1807
vn 0.0015 0.9908 -0.1355
vn -0.4449 -0.5653 -0.6946
vn -0.4416 0.6207 0.6479
vn 0.4442 0.6202 0.6466
vn 0.4510 -0.5634 -0.6922
vn -0.9994 0.0334 -0.0046
vn -0.9969 0.0442 -0.0654
vn 1.0000 -0.0002 0.0008
vn -0.4714 0.8755 0.1061
vn -0.5131 -0.7527 -0.4125
vn 0.4809 0.8625 0.1576
vn 0.4934 -0.8221 -0.2839
vn -0.9972 0.0508 -0.0548
vn 1.0000 -0.0004 0.0008
vn -0.4478 0.8419 0.3011
vn -0.5159 -0.7028 -0.4899
vn 0.4890 0.7349 0.4698
vn 0.4936 -0.7052 -0.5090
vn -0.2691 0.9600 0.0768
vn -0.2181 -0.9729 -0.0762
vn -0.9087 -0.0975 0.4059
vn -0.7528 -0.3387 0.5644
vn -0.8391 0.5429 0.0335
vn -0.5488 0.8323 0.0777
vn -0.5513 -0.8343 -0.0000
vn -0.9615 0.0419 -0.2715
vn 0.3699 0.1987 -0.9076
vn -0.2546 0.7082 -0.6585
vn 0.5275 0.8220 0.2146
vt 0.500000 0.375000
vt 0.437500 0.437500
vt 0.437500 0.375000
vt 0.562500 0.437500
vt 0.500000 0.437500
vt 0.625000 0.375000
vt 0.562500 0.375000
vt 0.625000 0.500000
vt 0.562500 0.500000
vt 0.500000 0.500000
vt 0.437500 0.500000
vt 0.375000 0.500000
vt 0.375000 0.437500
vt 0.375000 0.375000
vt 0.437500 0.562500
vt 0.500000 0.625000
vt 0.437500 0.625000
vt 0.500000 0.562500
vt 0.562500 0.625000
vt 0.500000 0.687500
vt 0.437500 0.687500
vt 0.562500 0.687500
vt 0.375000 0.562500
vt 0.562500 0.562500
vt 0.625000 0.625000
vt 0.625000 0.687500
vt 0.625000 0.750000
vt 0.562500 0.750000
vt 0.500000 0.750000
vt 0.437500 0.750000
vt 0.375000 0.750000
vt 0.375000 0.687500
vt 0.375000 0.625000
vt 0.500000 0.875000
vt 0.468750 0.875000
vt 0.437500 0.875000
vt 0.500000 0.812500
vt 0.562500 0.875000
vt 0.437500 0.812500
vt 0.375000 0.812500
vt 0.562500 0.812500
vt 0.625000 0.812500
vt 0.375000 0.875000
vt 0.250000 0.562500
vt 0.312500 0.625000
vt 0.250000 0.625000
vt 0.312500 0.687500
vt 0.250000 0.687500
vt 0.250000 0.500000
vt 0.312500 0.562500
vt 0.312500 0.500000
vt 0.312500 0.750000
vt 0.250000 0.750000
vt 0.687500 0.562500
vt 0.750000 0.625000
vt 0.687500 0.625000
vt 0.750000 0.687500
vt 0.687500 0.687500
vt 0.625000 0.562500
vt 0.687500 0.500000
vt 0.750000 0.562500
vt 0.687500 0.750000
vt 1.000000 0.500000
vt 0.833333 1.000000
vt 0.833333 0.500000
vt 0.666667 1.000000
vt 0.666667 0.500000
vt 0.500000 1.000000
vt 0.500000 0.500000
vt 0.333333 0.500000
vt 0.042154 0.130000
vt 0.250000 0.010000
vt 0.457846 0.130000
vt 0.333333 1.000000
vt 0.166667 0.500000
vt 0.166667 1.000000
vt -0.000000 0.500000
vt 0.542154 0.130000
vt 0.542154 0.370000
vt 0.957846 0.370000
vt 1.000000 0.828637
vt 0.875000 1.000000
vt 0.875000 0.828637
vt 0.625000 0.828637
vt 0.500000 1.000000
vt 0.500000 0.828637
vt 0.625000 0.645722
vt 0.500000 0.500000
vt 0.750000 0.500000
vt 0.875000 0.645722
vt 0.875000 0.500000
vt 0.500000 0.645722
vt 0.750000 0.828637
vt 0.750000 0.645722
vt 1.000000 0.645722
vt 0.750000 1.000000
vt 1.000000 1.000000
vt 0.625000 1.000000
vt 0.749520 0.964446
vt 0.653402 0.965669
vt 0.844587 0.863513
vt 0.844268 0.965118
vt 0.647775 0.863148
vt 0.750840 0.864057
vt 0.749520 0.964446
vt 0.750840 0.864057
vt 0.647775 0.863149
vt 0.844587 0.863513
vt 0.844267 0.965117
vt 0.653402 0.965669
vt 0.749520 0.964446
vt 0.844268 0.965117
vt 0.750840 0.864057
vt 0.653402 0.965669
vt 0.844587 0.863513
vt 0.000000 0.000000
vt 0.833333 0.500000
vt -0.000000 1.000000
vt 0.500000 0.500000
vt 0.500000 0.500000
vt 0.166667 0.500000
vt -0.000000 0.500000
vt 0.833333 0.500000
vt 0.042154 0.370000
vt 0.457846 0.370000
vt 0.750000 0.010000
vt 0.333333 0.500000
vt 0.457846 0.250000
vt 0.625000 0.437500
vt 0.750000 0.500000
vt 0.957846 0.130000
vt 0.250000 0.490000
vt 0.625000 0.875000
vt 0.750000 0.750000
vt 0.250000 0.490000
vt 0.750000 0.490000
vt 0.750000 0.490000
s 0
f 26/1/1 28/2/1 25/3/1
f 26/1/2 30/4/2 29/5/2
f 7/6/3 30/4/3 27/7/3
f 30/4/4 4/8/4 9/9/4
f 29/5/5 9/9/5 10/10/5
f 28/2/6 10/10/6 11/11/6
f 28/2/7 3/12/7 5/13/7
f 25/3/8 5/13/8 6/14/8
f 31/15/9 35/16/9 34/17/9
f 32/18/10 36/19/10 35/16/10
f 34/17/11 38/20/11 37/21/11
f 35/16/12 39/22/12 38/20/12
f 3/12/13 31/15/13 14/23/13
f 11/11/14 32/18/14 31/15/14
f 10/10/15 33/24/15 32/18/15
f 4/8/16 33/24/16 9/9/16
f 33/24/17 16/25/17 36/19/17
f 36/19/18 17/26/18 39/22/18
f 39/22/19 2/27/19 18/28/19
f 38/20/20 18/28/20 19/29/20
f 37/21/21 19/29/21 20/30/21
f 37/21/22 1/31/22 12/32/22
f 13/33/23 37/21/23 12/32/23
f 14/23/24 34/17/24 13/33/24
f 44/34/25 58/35/25 43/36/25
f 41/37/26 45/38/26 44/34/26
f 1/31/27 40/39/27 22/40/27
f 20/30/28 41/37/28 40/39/28
f 19/29/29 42/41/29 41/37/29
f 2/27/30 42/41/30 18/28/30
f 23/42/31 45/38/31 42/41/31
f 22/40/32 43/36/32 21/43/32
f 46/44/33 49/45/33 48/46/33
f 48/46/34 51/47/34 50/48/34
f 6/49/35 47/50/35 46/44/35
f 5/51/36 14/23/36 47/50/36
f 47/50/37 13/33/37 49/45/37
f 49/45/38 12/32/38 51/47/38
f 51/47/39 1/31/39 22/52/39
f 51/47/40 21/53/40 50/48/40
f 52/54/41 55/55/41 54/56/41
f 54/56/42 57/57/42 56/58/42
f 4/8/43 52/54/43 15/59/43
f 8/60/44 53/61/44 52/54/44
f 57/57/45 23/62/45 56/58/45
f 56/58/46 2/27/46 17/26/46
f 16/25/47 56/58/47 17/26/47
f 15/59/48 54/56/48 16/25/48
f 59/63/49 62/64/49 61/65/49
f 61/65/50 64/66/50 63/67/50
f 63/67/51 66/68/51 65/69/51
f 66/68/52 67/70/52 65/69/52
f 68/71/53 66/72/53 64/73/53
f 68/74/54 69/75/54 67/70/54
f 70/76/55 59/77/55 69/75/55
f 67/78/56 69/79/56 61/80/56
f 86/81/57 97/82/57 99/83/57
f 100/84/58 80/85/58 90/86/58
f 84/87/59 79/88/59 77/8/59
f 75/89/60 84/87/60 77/8/60
f 82/90/61 75/89/61 73/91/61
f 71/63/62 82/90/62 73/91/62
f 100/84/63 85/92/63 84/87/63
f 101/93/64 84/87/64 83/94/64
f 99/83/65 83/94/65 82/90/65
f 81/95/66 99/83/66 82/90/66
f 97/82/67 93/96/67 96/96/67
f 72/97/68 92/82/68 97/82/68
f 98/98/69 93/96/69 94/98/69
f 80/85/70 94/98/70 95/85/70
f 76/99/71 97/82/71 96/96/71
f 78/100/72 96/96/72 98/98/72
f 87/101/73 97/82/73 74/102/73
f 78/100/74 100/84/74 89/103/74
f 89/103/75 101/93/75 88/104/75
f 87/101/76 101/93/76 99/83/76
f 150/105/77 104/100/77 103/99/77
f 151/106/78 107/103/78 152/107/78
f 154/108/79 102/102/79 105/101/79
f 150/105/80 102/102/80 153/109/80
f 151/106/81 105/101/81 106/104/81
f 152/107/82 104/100/82 149/110/82
f 155/111/83 108/102/83 156/112/83
f 158/113/84 111/101/84 112/104/84
f 160/114/85 113/103/85 110/100/85
f 155/111/86 110/100/86 109/99/86
f 158/113/87 113/103/87 159/107/87
f 156/112/88 111/101/88 157/115/88
f 110/100/89 115/99/89 109/99/89
f 112/104/90 133/103/90 113/103/90
f 108/102/91 117/101/91 111/101/91
f 108/102/92 115/99/92 114/102/92
f 111/101/93 118/104/93 112/104/93
f 110/100/94 119/103/94 116/100/94
f 114/102/95 121/99/95 120/102/95
f 117/101/96 124/104/96 118/104/96
f 119/103/97 122/100/97 116/100/97
f 115/99/98 122/100/98 121/99/98
f 119/103/99 124/104/99 125/103/99
f 117/101/100 120/102/100 123/101/100
f 124/104/101 131/103/101 125/103/101
f 123/101/102 126/102/102 129/101/102
f 121/99/103 126/102/103 120/102/103
f 124/104/104 129/101/104 130/104/104
f 125/103/105 128/100/105 122/100/105
f 121/99/106 128/100/106 127/99/106
f 132/104/107 137/103/107 133/103/107
f 118/104/108 132/104/108 112/104/108
f 119/103/109 134/104/109 118/104/109
f 119/103/110 133/103/110 135/103/110
f 139/103/111 141/103/111 143/103/111
f 135/103/112 137/103/112 139/103/112
f 135/103/113 138/104/113 134/104/113
f 134/104/114 136/104/114 132/104/114
f 141/103/115 142/104/115 143/103/115
f 139/103/116 142/104/116 138/104/116
f 138/104/117 140/104/117 136/104/117
f 136/104/118 141/103/118 137/103/118
f 94/98/119 146/96/119 147/98/119
f 91/97/120 145/82/120 92/82/120
f 94/98/121 148/85/121 95/85/121
f 92/82/122 146/96/122 93/96/122
f 128/100/123 130/104/123 127/99/123
f 127/99/124 129/101/124 126/102/124
f 89/103/125 149/110/125 78/100/125
f 88/104/126 154/108/126 151/106/126
f 74/102/127 150/105/127 153/109/127
f 87/101/128 153/109/128 154/108/128
f 88/104/129 152/107/129 89/103/129
f 78/100/130 150/105/130 76/99/130
f 102/102/131 157/115/131 105/101/131
f 106/104/132 159/107/132 107/103/132
f 103/99/133 160/114/133 155/111/133
f 104/100/134 159/107/134 160/114/134
f 106/104/135 157/115/135 158/113/135
f 103/99/136 156/112/136 102/102/136
f 162/97/137 163/65/137 161/63/137
f 163/65/138 166/66/138 165/67/138
f 165/67/139 168/68/139 167/69/139
f 168/68/140 169/70/140 167/69/140
f 170/74/141 175/68/141 176/74/141
f 368/74/142 369/75/142 416/116/142
f 170/74/143 171/75/143 169/70/143
f 190/67/144 185/65/144 191/117/144
f 177/76/145 182/74/145 183/76/145
f 164/64/146 174/66/146 166/66/146
f 164/64/147 172/97/147 173/64/147
f 166/66/148 175/68/148 168/68/148
f 182/71/149 181/72/149 180/73/149
f 174/66/150 181/68/150 175/68/150
f 173/64/151 178/97/151 179/64/151
f 177/76/152 178/118/152 172/118/152
f 175/68/153 182/74/153 176/74/153
f 173/64/154 180/66/154 174/66/154
f 188/70/155 210/75/155 209/70/155
f 192/75/156 188/70/156 193/70/156
f 191/117/157 184/63/157 194/63/157
f 190/67/158 187/69/158 186/67/158
f 192/75/159 184/77/159 189/75/159
f 193/70/160 187/69/160 195/119/160
f 221/70/161 195/119/161 219/120/161
f 218/121/162 194/122/162 192/75/162
f 217/67/163 195/119/163 190/67/163
f 222/63/164 191/117/164 194/63/164
f 218/121/165 193/70/165 221/70/165
f 220/123/166 190/67/166 191/117/166
f 183/76/167 178/118/167 200/116/167
f 182/116/168 197/116/168 196/116/168
f 181/116/169 198/116/169 197/116/169
f 196/116/170 183/124/170 182/71/170
f 199/116/171 178/116/171 200/116/171
f 199/116/172 201/116/172 179/116/172
f 198/116/173 202/116/173 203/116/173
f 179/125/174 202/73/174 180/73/174
f 206/80/175 208/126/175 210/79/175
f 187/69/176 207/67/176 186/67/176
f 185/65/177 205/63/177 184/63/177
f 189/75/178 205/77/178 210/75/178
f 187/69/179 209/70/179 208/69/179
f 186/67/180 206/65/180 185/65/180
f 163/65/181 214/67/181 211/123/181
f 171/75/182 212/127/182 169/70/182
f 161/63/183 211/123/183 213/63/183
f 165/67/184 216/69/184 214/67/184
f 161/77/185 215/121/185 171/75/185
f 169/70/186 216/69/186 167/69/186
f 211/123/187 217/67/187 220/123/187
f 215/121/188 221/70/188 212/127/188
f 213/63/189 220/123/189 222/63/189
f 214/67/190 219/120/190 217/67/190
f 215/121/191 222/77/191 218/121/191
f 212/127/192 219/120/192 216/69/192
f 204/116/193 73/116/193 201/116/193
f 203/116/194 77/116/194 79/116/194
f 201/125/195 73/125/195 75/128/195
f 145/82/196 225/96/196 146/96/196
f 146/96/197 226/98/197 147/98/197
f 145/82/198 223/97/198 224/82/198
f 147/98/199 227/85/199 148/85/199
f 248/2/200 26/1/200 25/3/200
f 26/1/201 250/4/201 27/7/201
f 250/4/202 7/6/202 27/7/202
f 250/4/203 231/8/203 233/129/203
f 249/5/204 234/9/204 250/4/204
f 248/2/205 235/10/205 249/5/205
f 230/12/206 248/2/206 232/13/206
f 232/13/207 25/3/207 6/14/207
f 251/15/208 255/16/208 252/18/208
f 252/18/209 256/19/209 253/24/209
f 254/17/210 258/20/210 255/16/210
f 255/16/211 259/22/211 256/19/211
f 230/12/212 251/15/212 236/11/212
f 236/11/213 252/18/213 235/10/213
f 235/10/214 253/24/214 234/9/214
f 253/24/215 231/8/215 234/9/215
f 253/24/216 241/25/216 240/59/216
f 256/19/217 242/26/217 241/25/217
f 259/22/218 229/27/218 242/26/218
f 258/20/219 243/28/219 259/22/219
f 257/21/220 244/29/220 258/20/220
f 228/31/221 257/21/221 237/32/221
f 238/33/222 257/21/222 254/17/222
f 239/23/223 254/17/223 251/15/223
f 261/37/224 45/38/224 262/41/224
f 228/31/225 260/39/225 245/30/225
f 245/30/226 261/37/226 244/29/226
f 244/29/227 262/41/227 243/28/227
f 262/41/228 229/27/228 243/28/228
f 45/38/229 247/42/229 262/41/229
f 246/40/230 43/36/230 260/39/230
f 46/44/231 264/45/231 263/50/231
f 48/46/232 265/47/232 264/45/232
f 6/49/233 263/50/233 232/51/233
f 232/51/234 239/23/234 230/12/234
f 263/50/235 238/33/235 239/23/235
f 264/45/236 237/32/236 238/33/236
f 265/47/237 228/31/237 237/32/237
f 21/53/238 265/47/238 50/48/238
f 266/54/239 55/55/239 53/61/239
f 267/56/240 57/57/240 55/55/240
f 231/8/241 266/54/241 233/60/241
f 233/60/242 53/61/242 7/130/242
f 247/62/243 57/57/243 268/58/243
f 229/27/244 268/58/244 242/26/244
f 241/25/245 268/58/245 267/56/245
f 240/59/246 267/56/246 266/54/246
f 269/63/247 272/64/247 270/97/247
f 271/65/248 274/66/248 272/64/248
f 273/67/249 276/68/249 274/66/249
f 277/70/250 276/68/250 275/69/250
f 278/71/251 280/124/251 274/73/251
f 279/75/252 278/74/252 277/70/252
f 269/77/253 280/76/253 279/75/253
f 271/80/254 277/78/254 273/131/254
f 86/81/255 297/82/255 72/97/255
f 300/84/256 80/85/256 298/98/256
f 79/88/257 289/87/257 285/8/257
f 283/89/258 289/87/258 288/94/258
f 283/89/259 287/90/259 281/91/259
f 71/63/260 287/90/260 81/95/260
f 85/92/261 300/84/261 289/87/261
f 289/87/262 301/93/262 288/94/262
f 288/94/263 299/83/263 287/90/263
f 81/95/264 299/83/264 86/81/264
f 294/96/265 297/82/265 296/96/265
f 293/82/266 72/97/266 297/82/266
f 298/98/267 294/96/267 296/96/267
f 80/85/268 295/98/268 298/98/268
f 284/99/269 297/82/269 282/102/269
f 286/100/270 296/96/270 284/99/270
f 297/82/271 290/101/271 282/102/271
f 300/84/272 286/100/272 292/103/272
f 301/93/273 292/103/273 291/104/273
f 290/101/274 301/93/274 291/104/274
f 348/105/275 304/100/275 347/110/275
f 307/103/276 349/106/276 350/107/276
f 352/108/277 302/102/277 351/109/277
f 302/102/278 348/105/278 351/109/278
f 349/106/279 305/101/279 352/108/279
f 304/100/280 350/107/280 347/110/280
f 308/102/281 353/111/281 354/112/281
f 356/113/282 311/101/282 355/115/282
f 358/114/283 313/103/283 357/107/283
f 353/111/284 310/100/284 358/114/284
f 313/103/285 356/113/285 357/107/285
f 311/101/286 354/112/286 355/115/286
f 315/99/287 310/100/287 309/99/287
f 333/103/288 312/104/288 313/103/288
f 317/101/289 308/102/289 311/101/289
f 308/102/290 315/99/290 309/99/290
f 318/104/291 311/101/291 312/104/291
f 310/100/292 319/103/292 313/103/292
f 314/102/293 321/99/293 315/99/293
f 324/104/294 317/101/294 318/104/294
f 322/100/295 319/103/295 316/100/295
f 315/99/296 322/100/296 316/100/296
f 319/103/297 324/104/297 318/104/297
f 317/101/298 320/102/298 314/102/298
f 331/103/299 324/104/299 325/103/299
f 323/101/300 326/102/300 320/102/300
f 326/102/301 321/99/301 320/102/301
f 324/104/302 329/101/302 323/101/302
f 328/100/303 325/103/303 322/100/303
f 321/99/304 328/100/304 322/100/304
f 337/103/305 332/104/305 333/103/305
f 332/104/306 318/104/306 312/104/306
f 334/104/307 319/103/307 318/104/307
f 319/103/308 333/103/308 313/103/308
f 339/103/309 341/103/309 337/103/309
f 335/103/310 337/103/310 333/103/310
f 338/104/311 335/103/311 334/104/311
f 336/104/312 334/104/312 332/104/312
f 341/103/313 342/104/313 340/104/313
f 342/104/314 339/103/314 338/104/314
f 340/104/315 338/104/315 336/104/315
f 341/103/316 336/104/316 337/103/316
f 295/98/317 345/96/317 294/96/317
f 344/82/318 91/97/318 293/82/318
f 148/85/319 295/98/319 95/85/319
f 345/96/320 293/82/320 294/96/320
f 328/100/321 330/104/321 331/103/321
f 327/99/322 329/101/322 330/104/322
f 347/110/323 292/103/323 286/100/323
f 291/104/324 352/108/324 290/101/324
f 282/102/325 348/105/325 284/99/325
f 290/101/326 351/109/326 282/102/326
f 350/107/327 291/104/327 292/103/327
f 348/105/328 286/100/328 284/99/328
f 355/115/329 302/102/329 305/101/329
f 357/107/330 306/104/330 307/103/330
f 303/99/331 358/114/331 304/100/331
f 304/100/332 357/107/332 307/103/332
f 306/104/333 355/115/333 305/101/333
f 354/112/334 303/99/334 302/102/334
f 361/65/335 360/97/335 359/63/335
f 361/65/336 364/66/336 362/64/336
f 363/67/337 366/68/337 364/66/337
f 367/70/338 366/68/338 365/69/338
f 368/74/339 373/68/339 366/68/339
f 416/116/340 359/63/340 360/97/340
f 162/97/341 171/75/341 415/116/341
f 381/65/342 386/67/342 387/117/342
f 177/76/343 379/74/343 374/74/343
f 372/66/344 362/64/344 364/66/344
f 362/64/345 370/97/345 360/97/345
f 373/68/346 364/66/346 366/68/346
f 379/71/347 183/124/347 375/132/347
f 378/68/348 372/66/348 373/68/348
f 371/64/349 375/97/349 370/97/349
f 375/118/350 177/76/350 370/118/350
f 379/74/351 373/68/351 374/74/351
f 377/66/352 371/64/352 372/66/352
f 384/70/353 399/75/353 385/75/353
f 384/70/354 388/75/354 389/70/354
f 380/63/355 387/117/355 390/63/355
f 386/67/356 383/69/356 391/119/356
f 388/75/357 380/77/357 390/122/357
f 383/69/358 389/70/358 391/119/358
f 391/119/359 410/70/359 408/120/359
f 407/121/360 390/122/360 411/77/360
f 406/67/361 391/119/361 408/120/361
f 411/63/362 387/117/362 409/123/362
f 389/70/363 407/121/363 410/70/363
f 409/123/364 386/67/364 406/67/364
f 183/76/365 200/116/365 375/118/365
f 197/116/366 379/116/366 196/116/366
f 198/116/367 378/116/367 197/116/367
f 196/116/368 379/71/368 183/124/368
f 199/116/369 375/116/369 376/116/369
f 392/116/370 199/116/370 376/116/370
f 198/116/371 393/116/371 377/116/371
f 393/73/372 376/125/372 377/73/372
f 399/79/373 397/126/373 395/80/373
f 396/67/374 383/69/374 382/67/374
f 394/63/375 381/65/375 380/63/375
f 385/75/376 394/77/376 380/77/376
f 383/69/377 398/70/377 384/70/377
f 395/65/378 382/67/378 381/65/378
f 361/65/379 403/67/379 363/67/379
f 401/127/380 369/75/380 367/70/380
f 359/63/381 400/123/381 361/65/381
f 363/67/382 405/69/382 365/69/382
f 404/121/383 359/77/383 369/75/383
f 405/69/384 367/70/384 365/69/384
f 400/123/385 406/67/385 403/67/385
f 410/70/386 404/121/386 401/127/386
f 402/63/387 409/123/387 400/123/387
f 403/67/388 408/120/388 405/69/388
f 404/121/389 411/77/389 402/77/389
f 408/120/390 401/127/390 405/69/390
f 281/116/391 204/116/391 392/116/391
f 203/116/392 285/116/392 393/116/392
f 283/128/393 281/125/393 392/125/393
f 413/96/394 344/82/394 345/96/394
f 414/98/395 345/96/395 346/98/395
f 344/82/396 223/97/396 144/97/396
f 227/85/397 346/98/397 148/85/397
f 415/116/398 176/74/398 177/76/398
f 416/116/399 374/74/399 368/74/399
f 172/118/400 415/116/400 177/76/400
f 416/116/401 370/118/401 177/76/401
f 26/1/402 29/5/402 28/2/402
f 26/1/403 27/7/403 30/4/403
f 7/6/404 8/129/404 30/4/404
f 30/4/405 8/129/405 4/8/405
f 29/5/406 30/4/406 9/9/406
f 28/2/407 29/5/407 10/10/407
f 28/2/408 11/11/408 3/12/408
f 25/3/409 28/2/409 5/13/409
f 31/15/410 32/18/410 35/16/410
f 32/18/411 33/24/411 36/19/411
f 34/17/412 35/16/412 38/20/412
f 35/16/413 36/19/413 39/22/413
f 3/12/414 11/11/414 31/15/414
f 11/11/415 10/10/415 32/18/415
f 10/10/416 9/9/416 33/24/416
f 4/8/417 15/59/417 33/24/417
f 33/24/418 15/59/418 16/25/418
f 36/19/419 16/25/419 17/26/419
f 39/22/420 17/26/420 2/27/420
f 38/20/421 39/22/421 18/28/421
f 37/21/422 38/20/422 19/29/422
f 37/21/423 20/30/423 1/31/423
f 13/33/424 34/17/424 37/21/424
f 14/23/425 31/15/425 34/17/425
f 43/36/426 40/39/426 44/34/426
f 40/39/427 41/37/427 44/34/427
f 41/37/428 42/41/428 45/38/428
f 1/31/429 20/30/429 40/39/429
f 20/30/430 19/29/430 41/37/430
f 19/29/431 18/28/431 42/41/431
f 2/27/432 23/42/432 42/41/432
f 23/42/433 24/133/433 45/38/433
f 22/40/434 40/39/434 43/36/434
f 46/44/435 47/50/435 49/45/435
f 48/46/436 49/45/436 51/47/436
f 6/49/437 5/51/437 47/50/437
f 5/51/438 3/12/438 14/23/438
f 47/50/439 14/23/439 13/33/439
f 49/45/440 13/33/440 12/32/440
f 51/47/441 12/32/441 1/31/441
f 51/47/442 22/52/442 21/53/442
f 52/54/443 53/61/443 55/55/443
f 54/56/444 55/55/444 57/57/444
f 4/8/445 8/60/445 52/54/445
f 8/60/446 7/130/446 53/61/446
f 57/57/447 24/134/447 23/62/447
f 56/58/448 23/62/448 2/27/448
f 16/25/449 54/56/449 56/58/449
f 15/59/450 52/54/450 54/56/450
f 59/63/49 60/97/49 62/64/49
f 61/65/50 62/64/50 64/66/50
f 63/67/51 64/66/51 66/68/51
f 66/68/451 68/74/451 67/70/451
f 64/73/53 62/125/53 68/71/53
f 62/125/53 60/135/53 70/124/53
f 68/71/53 62/125/53 70/124/53
f 68/74/54 70/76/54 69/75/54
f 70/76/55 60/118/55 59/77/55
f 69/79/56 59/136/56 61/80/56
f 61/80/56 63/131/56 67/78/56
f 63/131/56 65/126/56 67/78/56
f 86/81/452 72/97/452 97/82/452
f 100/84/453 98/98/453 80/85/453
f 84/87/454 85/92/454 79/88/454
f 75/89/455 83/94/455 84/87/455
f 82/90/456 83/94/456 75/89/456
f 71/63/457 81/95/457 82/90/457
f 100/84/458 90/86/458 85/92/458
f 101/93/459 100/84/459 84/87/459
f 99/83/460 101/93/460 83/94/460
f 81/95/461 86/81/461 99/83/461
f 97/82/462 92/82/462 93/96/462
f 72/97/463 91/97/463 92/82/463
f 98/98/464 96/96/464 93/96/464
f 80/85/465 98/98/465 94/98/465
f 76/99/466 74/102/466 97/82/466
f 78/100/467 76/99/467 96/96/467
f 87/101/468 99/83/468 97/82/468
f 78/100/469 98/98/469 100/84/469
f 89/103/470 100/84/470 101/93/470
f 87/101/471 88/104/471 101/93/471
f 150/105/472 149/110/472 104/100/472
f 151/106/473 106/104/473 107/103/473
f 154/108/474 153/109/474 102/102/474
f 150/105/475 103/99/475 102/102/475
f 151/106/476 154/108/476 105/101/476
f 152/107/477 107/103/477 104/100/477
f 155/111/478 109/99/478 108/102/478
f 158/113/479 157/115/479 111/101/479
f 160/114/480 159/107/480 113/103/480
f 155/111/481 160/114/481 110/100/481
f 158/113/482 112/104/482 113/103/482
f 156/112/483 108/102/483 111/101/483
f 110/100/484 116/100/484 115/99/484
f 112/104/485 132/104/485 133/103/485
f 108/102/486 114/102/486 117/101/486
f 108/102/487 109/99/487 115/99/487
f 111/101/488 117/101/488 118/104/488
f 110/100/489 113/103/489 119/103/489
f 114/102/490 115/99/490 121/99/490
f 117/101/96 123/101/96 124/104/96
f 119/103/491 125/103/491 122/100/491
f 115/99/492 116/100/492 122/100/492
f 119/103/99 118/104/99 124/104/99
f 117/101/493 114/102/493 120/102/493
f 124/104/494 130/104/494 131/103/494
f 123/101/495 120/102/495 126/102/495
f 121/99/496 127/99/496 126/102/496
f 124/104/497 123/101/497 129/101/497
f 125/103/498 131/103/498 128/100/498
f 121/99/499 122/100/499 128/100/499
f 132/104/107 136/104/107 137/103/107
f 118/104/500 134/104/500 132/104/500
f 119/103/501 135/103/501 134/104/501
f 119/103/502 113/103/502 133/103/502
f 139/103/503 137/103/503 141/103/503
f 135/103/112 133/103/112 137/103/112
f 135/103/113 139/103/113 138/104/113
f 134/104/504 138/104/504 136/104/504
f 141/103/505 140/104/505 142/104/505
f 139/103/506 143/103/506 142/104/506
f 138/104/507 142/104/507 140/104/507
f 136/104/508 140/104/508 141/103/508
f 94/98/509 93/96/509 146/96/509
f 91/97/510 144/97/510 145/82/510
f 94/98/511 147/98/511 148/85/511
f 92/82/512 145/82/512 146/96/512
f 128/100/513 131/103/513 130/104/513
f 127/99/514 130/104/514 129/101/514
f 89/103/515 152/107/515 149/110/515
f 88/104/516 87/101/516 154/108/516
f 74/102/517 76/99/517 150/105/517
f 87/101/518 74/102/518 153/109/518
f 88/104/519 151/106/519 152/107/519
f 78/100/520 149/110/520 150/105/520
f 102/102/521 156/112/521 157/115/521
f 106/104/522 158/113/522 159/107/522
f 103/99/523 104/100/523 160/114/523
f 104/100/524 107/103/524 159/107/524
f 106/104/525 105/101/525 157/115/525
f 103/99/526 155/111/526 156/112/526
f 162/97/527 164/64/527 163/65/527
f 163/65/528 164/64/528 166/66/528
f 165/67/529 166/66/529 168/68/529
f 168/68/530 170/74/530 169/70/530
f 170/74/531 168/68/531 175/68/531
f 368/74/532 367/70/532 369/75/532
f 170/74/533 415/116/533 171/75/533
f 190/67/534 186/67/534 185/65/534
f 177/76/535 176/74/535 182/74/535
f 164/64/536 173/64/536 174/66/536
f 164/64/537 162/97/537 172/97/537
f 166/66/538 174/66/538 175/68/538
f 180/73/539 179/125/539 182/71/539
f 179/125/540 178/132/540 182/71/540
f 178/132/541 183/124/541 182/71/541
f 174/66/542 180/66/542 181/68/542
f 173/64/543 172/97/543 178/97/543
f 177/76/544 183/76/544 178/118/544
f 175/68/545 181/68/545 182/74/545
f 173/64/546 179/64/546 180/66/546
f 188/70/547 189/75/547 210/75/547
f 192/75/548 189/75/548 188/70/548
f 191/117/549 185/65/549 184/63/549
f 190/67/550 195/119/550 187/69/550
f 192/75/551 194/122/551 184/77/551
f 193/70/552 188/70/552 187/69/552
f 221/70/553 193/70/553 195/119/553
f 218/121/554 222/77/554 194/122/554
f 217/67/555 219/120/555 195/119/555
f 222/63/556 220/123/556 191/117/556
f 218/121/557 192/75/557 193/70/557
f 220/123/558 217/67/558 190/67/558
f 182/116/559 181/116/559 197/116/559
f 181/116/560 180/116/560 198/116/560
f 199/116/561 179/116/561 178/116/561
f 199/116/562 204/116/562 201/116/562
f 198/116/563 180/116/563 202/116/563
f 179/125/564 201/125/564 202/73/564
f 210/79/565 205/137/565 206/80/565
f 206/80/566 207/131/566 208/126/566
f 208/126/567 209/78/567 210/79/567
f 187/69/568 208/69/568 207/67/568
f 185/65/569 206/65/569 205/63/569
f 189/75/570 184/77/570 205/77/570
f 187/69/571 188/70/571 209/70/571
f 186/67/572 207/67/572 206/65/572
f 163/65/573 165/67/573 214/67/573
f 171/75/574 215/121/574 212/127/574
f 161/63/575 163/65/575 211/123/575
f 165/67/576 167/69/576 216/69/576
f 161/77/577 213/77/577 215/121/577
f 169/70/578 212/127/578 216/69/578
f 211/123/579 214/67/579 217/67/579
f 215/121/580 218/121/580 221/70/580
f 213/63/581 211/123/581 220/123/581
f 214/67/582 216/69/582 219/120/582
f 215/121/583 213/77/583 222/77/583
f 212/127/584 221/70/584 219/120/584
f 204/116/585 71/116/585 73/116/585
f 203/116/586 202/116/586 77/116/586
f 77/73/587 202/73/587 75/128/587
f 202/73/588 201/125/588 75/128/588
f 145/82/589 224/82/589 225/96/589
f 146/96/197 225/96/197 226/98/197
f 145/82/590 144/97/590 223/97/590
f 147/98/591 226/98/591 227/85/591
f 248/2/592 249/5/592 26/1/592
f 26/1/593 249/5/593 250/4/593
f 250/4/594 233/129/594 7/6/594
f 250/4/595 234/9/595 231/8/595
f 249/5/596 235/10/596 234/9/596
f 248/2/597 236/11/597 235/10/597
f 230/12/598 236/11/598 248/2/598
f 232/13/599 248/2/599 25/3/599
f 251/15/600 254/17/600 255/16/600
f 252/18/601 255/16/601 256/19/601
f 254/17/602 257/21/602 258/20/602
f 255/16/603 258/20/603 259/22/603
f 230/12/604 239/23/604 251/15/604
f 236/11/605 251/15/605 252/18/605
f 235/10/606 252/18/606 253/24/606
f 253/24/607 240/59/607 231/8/607
f 253/24/608 256/19/608 241/25/608
f 256/19/609 259/22/609 242/26/609
f 259/22/610 243/28/610 229/27/610
f 258/20/611 244/29/611 243/28/611
f 257/21/612 245/30/612 244/29/612
f 228/31/613 245/30/613 257/21/613
f 238/33/614 237/32/614 257/21/614
f 239/23/615 238/33/615 254/17/615
f 261/37/616 260/39/616 44/34/616
f 260/39/617 43/36/617 44/34/617
f 261/37/618 44/34/618 45/38/618
f 228/31/619 246/40/619 260/39/619
f 245/30/620 260/39/620 261/37/620
f 244/29/621 261/37/621 262/41/621
f 262/41/622 247/42/622 229/27/622
f 45/38/623 24/133/623 247/42/623
f 246/40/624 21/43/624 43/36/624
f 46/44/625 48/46/625 264/45/625
f 48/46/626 50/48/626 265/47/626
f 6/49/627 46/44/627 263/50/627
f 232/51/628 263/50/628 239/23/628
f 263/50/629 264/45/629 238/33/629
f 264/45/630 265/47/630 237/32/630
f 265/47/631 246/52/631 228/31/631
f 21/53/632 246/52/632 265/47/632
f 266/54/633 267/56/633 55/55/633
f 267/56/634 268/58/634 57/57/634
f 231/8/635 240/59/635 266/54/635
f 233/60/636 266/54/636 53/61/636
f 247/62/637 24/134/637 57/57/637
f 229/27/638 247/62/638 268/58/638
f 241/25/639 242/26/639 268/58/639
f 240/59/640 241/25/640 267/56/640
f 269/63/247 271/65/247 272/64/247
f 271/65/248 273/67/248 274/66/248
f 273/67/249 275/69/249 276/68/249
f 277/70/641 278/74/641 276/68/641
f 270/135/251 272/125/251 280/124/251
f 272/125/251 274/73/251 280/124/251
f 274/73/251 276/72/251 278/71/251
f 279/75/252 280/76/252 278/74/252
f 269/77/253 270/118/253 280/76/253
f 271/80/254 269/136/254 279/79/254
f 279/79/254 277/78/254 271/80/254
f 277/78/254 275/126/254 273/131/254
f 86/81/642 299/83/642 297/82/642
f 300/84/643 90/86/643 80/85/643
f 79/88/644 85/92/644 289/87/644
f 283/89/645 285/8/645 289/87/645
f 283/89/646 288/94/646 287/90/646
f 71/63/647 281/91/647 287/90/647
f 85/92/648 90/86/648 300/84/648
f 289/87/649 300/84/649 301/93/649
f 288/94/650 301/93/650 299/83/650
f 81/95/651 287/90/651 299/83/651
f 294/96/652 293/82/652 297/82/652
f 293/82/653 91/97/653 72/97/653
f 298/98/654 295/98/654 294/96/654
f 80/85/655 95/85/655 295/98/655
f 284/99/656 296/96/656 297/82/656
f 286/100/657 298/98/657 296/96/657
f 297/82/658 299/83/658 290/101/658
f 300/84/659 298/98/659 286/100/659
f 301/93/660 300/84/660 292/103/660
f 290/101/661 299/83/661 301/93/661
f 348/105/662 303/99/662 304/100/662
f 307/103/663 306/104/663 349/106/663
f 352/108/664 305/101/664 302/102/664
f 302/102/665 303/99/665 348/105/665
f 349/106/666 306/104/666 305/101/666
f 304/100/667 307/103/667 350/107/667
f 308/102/668 309/99/668 353/111/668
f 356/113/669 312/104/669 311/101/669
f 358/114/670 310/100/670 313/103/670
f 353/111/671 309/99/671 310/100/671
f 313/103/672 312/104/672 356/113/672
f 311/101/673 308/102/673 354/112/673
f 315/99/674 316/100/674 310/100/674
f 333/103/675 332/104/675 312/104/675
f 317/101/676 314/102/676 308/102/676
f 308/102/677 314/102/677 315/99/677
f 318/104/678 317/101/678 311/101/678
f 310/100/679 316/100/679 319/103/679
f 314/102/680 320/102/680 321/99/680
f 324/104/294 323/101/294 317/101/294
f 322/100/681 325/103/681 319/103/681
f 315/99/682 321/99/682 322/100/682
f 319/103/297 325/103/297 324/104/297
f 317/101/683 323/101/683 320/102/683
f 331/103/684 330/104/684 324/104/684
f 323/101/685 329/101/685 326/102/685
f 326/102/686 327/99/686 321/99/686
f 324/104/687 330/104/687 329/101/687
f 328/100/688 331/103/688 325/103/688
f 321/99/689 327/99/689 328/100/689
f 337/103/305 336/104/305 332/104/305
f 332/104/690 334/104/690 318/104/690
f 334/104/691 335/103/691 319/103/691
f 319/103/692 335/103/692 333/103/692
f 339/103/693 343/103/693 341/103/693
f 335/103/310 339/103/310 337/103/310
f 338/104/311 339/103/311 335/103/311
f 336/104/312 338/104/312 334/104/312
f 341/103/694 343/103/694 342/104/694
f 342/104/695 343/103/695 339/103/695
f 340/104/696 342/104/696 338/104/696
f 341/103/697 340/104/697 336/104/697
f 295/98/698 346/98/698 345/96/698
f 344/82/699 144/97/699 91/97/699
f 148/85/700 346/98/700 295/98/700
f 345/96/701 344/82/701 293/82/701
f 328/100/702 327/99/702 330/104/702
f 327/99/703 326/102/703 329/101/703
f 347/110/704 350/107/704 292/103/704
f 291/104/705 349/106/705 352/108/705
f 282/102/706 351/109/706 348/105/706
f 290/101/707 352/108/707 351/109/707
f 350/107/708 349/106/708 291/104/708
f 348/105/709 347/110/709 286/100/709
f 355/115/710 354/112/710 302/102/710
f 357/107/711 356/113/711 306/104/711
f 303/99/712 353/111/712 358/114/712
f 304/100/713 358/114/713 357/107/713
f 306/104/714 356/113/714 355/115/714
f 354/112/715 353/111/715 303/99/715
f 361/65/716 362/64/716 360/97/716
f 361/65/717 363/67/717 364/66/717
f 363/67/718 365/69/718 366/68/718
f 367/70/719 368/74/719 366/68/719
f 368/74/720 374/74/720 373/68/720
f 416/116/721 369/75/721 359/63/721
f 162/97/722 161/63/722 171/75/722
f 381/65/723 382/67/723 386/67/723
f 177/76/724 183/76/724 379/74/724
f 372/66/725 371/64/725 362/64/725
f 362/64/726 371/64/726 370/97/726
f 373/68/727 372/66/727 364/66/727
f 375/132/728 376/125/728 379/71/728
f 376/125/729 377/73/729 379/71/729
f 377/73/730 378/72/730 379/71/730
f 378/68/731 377/66/731 372/66/731
f 371/64/732 376/64/732 375/97/732
f 375/118/733 183/76/733 177/76/733
f 379/74/734 378/68/734 373/68/734
f 377/66/735 376/64/735 371/64/735
f 384/70/736 398/70/736 399/75/736
f 384/70/737 385/75/737 388/75/737
f 380/63/738 381/65/738 387/117/738
f 386/67/739 382/67/739 383/69/739
f 388/75/740 385/75/740 380/77/740
f 383/69/741 384/70/741 389/70/741
f 391/119/742 389/70/742 410/70/742
f 407/121/743 388/75/743 390/122/743
f 406/67/744 386/67/744 391/119/744
f 411/63/745 390/63/745 387/117/745
f 389/70/746 388/75/746 407/121/746
f 409/123/747 387/117/747 386/67/747
f 197/116/748 378/116/748 379/116/748
f 198/116/749 377/116/749 378/116/749
f 199/116/750 200/116/750 375/116/750
f 392/116/751 204/116/751 199/116/751
f 198/116/752 203/116/752 393/116/752
f 393/73/753 392/125/753 376/125/753
f 395/80/754 394/137/754 399/79/754
f 399/79/755 398/78/755 397/126/755
f 397/126/756 396/131/756 395/80/756
f 396/67/757 397/69/757 383/69/757
f 394/63/758 395/65/758 381/65/758
f 385/75/759 399/75/759 394/77/759
f 383/69/760 397/69/760 398/70/760
f 395/65/761 396/67/761 382/67/761
f 361/65/762 400/123/762 403/67/762
f 401/127/763 404/121/763 369/75/763
f 359/63/764 402/63/764 400/123/764
f 363/67/765 403/67/765 405/69/765
f 404/121/766 402/77/766 359/77/766
f 405/69/767 401/127/767 367/70/767
f 400/123/768 409/123/768 406/67/768
f 410/70/769 407/121/769 404/121/769
f 402/63/770 411/63/770 409/123/770
f 403/67/771 406/67/771 408/120/771
f 404/121/772 407/121/772 411/77/772
f 408/120/773 410/70/773 401/127/773
f 281/116/774 71/116/774 204/116/774
f 203/116/775 79/116/775 285/116/775
f 392/125/776 393/73/776 283/128/776
f 393/73/777 285/73/777 283/128/777
f 413/96/778 412/82/778 344/82/778
f 414/98/395 413/96/395 345/96/395
f 344/82/779 412/82/779 223/97/779
f 227/85/780 414/98/780 346/98/780
f 415/116/781 170/74/781 176/74/781
f 416/116/782 177/76/782 374/74/782
f 172/118/783 162/97/783 415/116/783
f 416/116/784 360/97/784 370/118/784
