# Blender 5.0.0
# www.blender.org
o body
v 0.496492 -0.836496 9.686867
v 0.583336 -0.739346 10.957805
v 0.476577 0.278155 9.754125
v 0.565221 0.486406 10.993517
v 0.246627 0.341088 9.658236
v -0.000000 0.369678 9.603555
v -0.000000 0.658669 11.127162
v 0.340386 0.599495 11.082647
v 0.631619 0.554539 10.752184
v 0.646511 0.545035 10.393292
v 0.576865 0.424383 10.021513
v 0.562963 -0.631520 9.600770
v 0.591550 -0.317049 9.572067
v 0.550611 0.022595 9.643164
v 0.654626 0.225672 11.072851
v 0.703310 -0.145583 11.105746
v 0.665741 -0.502555 11.051902
v 0.654036 -0.830154 10.704902
v 0.671875 -0.892060 10.332225
v 0.600616 -0.885222 9.952730
v -0.000000 -0.970373 9.520972
v 0.267098 -0.925011 9.580032
v 0.358752 -0.817453 11.045609
v -0.000000 -0.856363 11.090796
v -0.000000 0.674132 9.974793
v -0.000000 0.858995 10.393489
v -0.000000 0.860968 10.799183
v 0.290903 0.614872 10.000746
v 0.337850 0.778810 10.396766
v 0.344425 0.778265 10.779507
v 0.749642 0.108478 9.981197
v 0.841644 0.194318 10.378619
v 0.811618 0.221480 10.764315
v 0.812126 -0.260919 9.938042
v 0.912852 -0.205322 10.358833
v 0.878665 -0.167071 10.770053
v 0.764291 -0.610047 9.940723
v 0.857600 -0.587271 10.342548
v 0.825386 -0.539852 10.736682
v 0.317045 -1.052687 9.916672
v 0.365526 -1.074153 10.200933
v 0.369003 -0.996871 10.724359
v -0.000000 -1.112858 9.938852
v -0.000000 -1.133464 10.196005
v -0.000000 -1.050112 10.743957
v -0.000000 0.004889 9.337378
v 0.255090 0.002209 9.422876
v -0.000000 -0.369841 9.221965
v 0.272938 -0.355472 9.321114
v -0.000000 -0.709899 9.287860
v 0.266506 -0.681006 9.375546
v 0.373244 0.271111 11.259459
v -0.000000 0.302962 11.323315
v 0.399412 -0.129139 11.312083
v -0.000000 -0.120306 11.381813
v 0.383312 -0.515705 11.240424
v -0.000000 -0.530811 11.304992
v -0.000000 -1.256591 10.007113
v 0.899103 0.129189 10.367964
v 0.964296 0.059744 10.389050
v 0.972883 0.157159 10.185605
v 1.038076 0.087714 10.206691
v 0.910948 0.053346 9.942464
v 0.976141 -0.016099 9.963550
v 0.775233 -0.078438 9.881679
v 0.840426 -0.147883 9.902764
v 0.701452 -0.106409 10.064037
v 0.766645 -0.175854 10.085123
v 0.763387 -0.002596 10.307179
v 0.828580 -0.072040 10.328265
v 0.000000 0.608116 6.750626
v -0.000045 0.614545 8.898939
v 0.504716 0.474076 6.565008
v 0.828603 0.506373 8.727390
v 0.598099 0.170519 6.522706
v 0.958573 0.167088 8.792604
v 0.495931 -0.119516 6.484567
v 0.866807 -0.019672 8.523928
v 0.000000 -0.261991 6.611720
v 0.000046 -0.514740 8.585875
v -0.000000 0.657830 7.383684
v 0.570473 0.583214 7.456771
v 0.767003 0.305955 7.462846
v 0.571976 -0.162139 7.403833
v -0.000000 -0.421472 7.383684
v 0.000175 0.701242 8.474037
v 0.703748 0.818097 8.439639
v 0.718558 0.689324 8.163568
v 0.697319 0.336691 8.064661
v 0.000478 -0.479200 8.259182
v -0.000000 0.515979 9.069961
v 0.439945 0.369793 9.042359
v 0.633971 0.085879 9.011458
v 0.435110 -0.213904 8.999210
v -0.000000 -0.334730 8.862344
v 0.958142 0.161302 8.803429
v 0.710218 0.428093 8.836952
v 0.738425 -0.235026 8.803198
v 0.614287 0.704607 8.175933
v 0.622165 -0.110178 8.119315
v 0.716525 0.634102 8.130715
v 1.568441 1.656259 7.518795
v 1.659582 1.529704 7.421407
v 1.563794 1.353441 7.289495
v 1.164474 1.758849 7.398974
v 1.097276 1.675318 7.253831
v 1.161230 1.460129 7.164607
v 1.945185 2.407405 6.263058
v 2.010604 2.284817 6.187370
v 1.943154 2.140266 6.117712
v 1.639176 2.445806 6.196274
v 1.585649 2.345036 6.089606
v 1.637696 2.180486 6.047854
v 1.971248 2.507279 6.228262
v 2.060307 2.301471 6.180799
v 1.988832 2.080338 6.015784
v 1.817264 2.576492 6.092788
v 1.787555 2.416896 5.990849
v 1.816069 2.131926 5.837817
v 2.245011 2.777293 5.897580
v 2.301643 2.548825 5.760907
v 2.243385 2.268362 5.608338
v 2.084433 2.801126 5.711461
v 2.054723 2.641531 5.609523
v 2.083237 2.356561 5.456491
v 2.184870 2.996021 5.352870
v 2.196077 2.858425 5.229331
v 2.184936 2.642731 5.152641
v 2.094474 2.901468 5.368659
v 2.068184 2.820466 5.297126
v 2.093803 2.612700 5.202427
v 1.576285 2.410505 5.880085
v 1.607773 2.264186 5.853631
v 1.771216 2.445561 5.840459
v 1.791622 2.198413 5.714941
v 1.629031 2.474174 5.670219
v 1.654832 2.354280 5.648542
v 1.788757 2.502898 5.637749
v 1.805476 2.300386 5.534900
v 1.704787 2.540789 5.449705
v 1.715628 2.453557 5.437243
v 1.822593 2.547305 5.450258
v 1.831815 2.401662 5.379100
v -0.000000 0.404502 9.200502
v 0.158780 0.287954 9.172107
v 0.252719 0.101461 9.108586
v 0.182110 -0.006843 9.108586
v -0.000000 -0.116119 9.070559
v 1.513457 1.265467 7.355749
v 1.609217 1.426881 7.515648
v 1.078577 1.636726 7.301373
v 1.131939 1.412781 7.201360
v 1.519667 1.559579 7.616988
v 1.135871 1.704111 7.464859
v 1.698690 1.609491 7.329182
v 1.610076 1.740603 7.416001
v 1.199386 1.806373 7.315975
v 1.127148 1.705498 7.187203
v 1.197586 1.487289 7.123832
v 1.606353 1.420357 7.224051
v 0.508211 -0.761185 4.048639
v 0.519509 0.437345 5.064117
v 0.863355 -0.943810 4.167756
v 1.026829 0.162272 5.329210
v 0.863355 -1.160665 4.335925
v 1.028275 -0.281570 5.567120
v 0.508191 -1.323366 4.461825
v 0.513592 -0.545033 5.591740
v 0.152952 -1.146927 4.339562
v 0.144936 -0.194835 5.416822
v 0.153066 -0.907902 4.174454
v 0.512164 0.647265 5.314914
v 1.018174 0.305050 5.500606
v 1.020134 -0.165936 5.710423
v 0.515757 -0.474048 5.660943
v 0.136937 -0.114208 5.463085
v -0.000000 0.812823 5.546013
v 0.418974 0.761450 5.522396
v 0.879472 0.485956 6.009847
v 0.876436 -0.000346 6.020514
v 0.449170 -0.309122 5.832255
v 0.134332 -0.024204 5.521642
v -0.000000 0.845893 5.648814
v 0.430883 -1.819863 1.955171
v 0.691278 -1.957275 2.016158
v 0.691278 -2.232100 2.138133
v 0.430883 -2.369544 2.199125
v 0.170489 -2.232289 2.138171
v 0.170489 -1.957275 2.016158
v 0.822906 -1.431126 3.725026
v 0.822906 -1.210571 3.613848
v 0.152560 -1.247397 3.634411
v 0.152560 -1.468196 3.745851
v 0.487733 -1.000482 3.542377
v 0.487733 -1.480907 4.145825
v -0.000000 0.016580 5.555463
v -0.000000 -0.188979 5.657459
v -0.000000 -0.268056 5.919442
v -0.000000 0.806364 6.167838
v -0.000000 0.837340 5.870728
v 0.713104 0.436334 6.326352
v 0.709689 -0.052128 6.256141
v -0.000000 -0.237517 6.270725
v 0.000000 0.628045 6.501622
v 0.430883 -2.666125 0.557071
v 0.625711 -2.777053 0.583767
v 0.625711 -2.997831 0.657111
v 0.430883 -3.104368 0.693627
v 0.236055 -2.994398 0.660762
v 0.236055 -2.777459 0.583705
v 0.856043 -1.004720 4.080196
v 0.152881 -1.219554 4.237865
v 0.504509 -0.806801 3.968091
v 0.856043 -1.221191 4.230029
v 0.152975 -0.988334 4.088312
v 0.504493 -1.356329 4.406244
v 0.847217 -1.289515 4.098484
v 0.152864 -1.062456 3.973242
v 0.500029 -1.394940 4.337670
v 0.847217 -1.064455 3.961910
v 0.152796 -1.293307 4.109532
v 0.500041 -0.885763 3.877122
v -0.000000 0.330200 9.841404
v 0.182652 0.209765 9.841404
v 0.252719 0.101461 9.841404
v 0.182110 -0.006843 9.841404
v -0.000000 -0.127185 9.786330
v -0.496493 -0.836496 9.686867
v -0.583336 -0.739346 10.957805
v -0.476577 0.278155 9.754125
v -0.565221 0.486406 10.993517
v -0.246627 0.341088 9.658236
v -0.340386 0.599495 11.082647
v -0.631619 0.554539 10.752184
v -0.646511 0.545035 10.393292
v -0.576865 0.424383 10.021513
v -0.562963 -0.631520 9.600770
v -0.591550 -0.317049 9.572067
v -0.550611 0.022595 9.643164
v -0.654626 0.225672 11.072851
v -0.703310 -0.145583 11.105746
v -0.665741 -0.502555 11.051902
v -0.654036 -0.830154 10.704902
v -0.671875 -0.892060 10.332225
v -0.600616 -0.885222 9.952730
v -0.267098 -0.925011 9.580032
v -0.358752 -0.817453 11.045609
v -0.290903 0.614872 10.000746
v -0.337850 0.778810 10.396766
v -0.344425 0.778265 10.779507
v -0.749642 0.108478 9.981197
v -0.841644 0.194318 10.378619
v -0.811618 0.221480 10.764315
v -0.812126 -0.260919 9.938042
v -0.912852 -0.205322 10.358833
v -0.878665 -0.167071 10.770053
v -0.764291 -0.610047 9.940723
v -0.857600 -0.587271 10.342548
v -0.825386 -0.539852 10.736682
v -0.317045 -1.052687 9.916672
v -0.365526 -1.074153 10.200933
v -0.369003 -0.996871 10.724359
v -0.255090 0.002209 9.422876
v -0.272938 -0.355472 9.321114
v -0.266506 -0.681006 9.375546
v -0.373244 0.271111 11.259459
v -0.399412 -0.129139 11.312083
v -0.383312 -0.515705 11.240424
v -0.899103 0.129189 10.367964
v -0.964296 0.059744 10.389050
v -0.972883 0.157159 10.185605
v -1.038076 0.087714 10.206691
v -0.910948 0.053346 9.942464
v -0.976141 -0.016099 9.963550
v -0.775233 -0.078438 9.881679
v -0.840426 -0.147883 9.902764
v -0.701452 -0.106409 10.064037
v -0.766645 -0.175854 10.085123
v -0.763387 -0.002596 10.307179
v -0.828580 -0.072040 10.328265
v -0.504526 0.476275 6.630806
v -0.822551 0.154240 8.474617
v -0.598793 0.169840 6.588103
v -0.956849 0.088934 8.816381
v -0.495657 -0.145144 6.536479
v -0.863591 -0.240401 8.858807
v -0.567887 0.435318 7.394504
v -0.761829 -0.002630 7.423630
v -0.569703 -0.317418 7.426910
v -0.689887 0.067431 8.058449
v -0.701902 -0.246402 8.052361
v -0.684163 -0.477013 8.304329
v -0.440481 0.412572 9.010636
v -0.634110 0.104681 9.020114
v -0.435368 -0.196574 9.034968
v -0.956580 0.096101 8.824964
v -0.708783 0.365864 8.657033
v -0.738413 -0.245301 8.948538
v -0.607086 0.322939 7.948950
v -0.616797 -0.413455 8.276424
v -0.701435 -0.213410 8.031759
v -1.529324 -0.656041 7.001026
v -1.620238 -0.788509 7.090379
v -1.524587 -0.971636 7.213662
v -1.125217 -0.738927 6.864173
v -1.058440 -0.905285 6.894271
v -1.121892 -1.058267 7.070881
v -1.961067 -1.564309 5.889319
v -2.026557 -1.675660 5.980687
v -1.958597 -1.792555 6.090294
v -1.658683 -1.622246 5.820153
v -1.606976 -1.758464 5.876444
v -1.656918 -1.852737 6.018384
v -1.990599 -1.561958 5.784500
v -2.076824 -1.674740 5.964462
v -2.006722 -1.907564 6.113180
v -1.843341 -1.669610 5.667964
v -1.813960 -1.820934 5.781904
v -1.841902 -2.061678 5.998009
v -2.282390 -1.772124 5.426880
v -2.339055 -1.977330 5.596479
v -2.280387 -2.218481 5.805608
v -2.129438 -1.943086 5.335384
v -2.100058 -2.094411 5.449325
v -2.127999 -2.335153 5.665430
v -2.247459 -2.210025 5.032938
v -2.260247 -2.372945 5.120193
v -2.247241 -2.519322 5.296074
v -2.154480 -2.230165 5.124098
v -2.129107 -2.325861 5.174774
v -2.153674 -2.485407 5.338273
v -1.606886 -1.932932 5.742900
v -1.636117 -2.007148 5.872275
v -1.803885 -1.952723 5.702935
v -1.823529 -2.154871 5.892680
v -1.668821 -2.106632 5.613006
v -1.692772 -2.167444 5.719015
v -1.830241 -2.122849 5.580258
v -1.846336 -2.288489 5.735735
v -1.754207 -2.288682 5.477468
v -1.763586 -2.330039 5.555468
v -1.872024 -2.282679 5.475481
v -1.880695 -2.399244 5.588166
v -0.158780 0.287954 9.172107
v -0.252719 0.101461 9.108586
v -0.182110 -0.006843 9.108586
v -1.478829 -0.935840 7.315951
v -1.574585 -0.733607 7.211950
v -1.039628 -0.868861 6.951097
v -1.094049 -1.034637 7.131712
v -1.484932 -0.595202 7.118692
v -1.098007 -0.692209 6.938537
v -1.658608 -0.845641 6.992380
v -1.569903 -0.721468 6.895985
v -1.162914 -0.802835 6.789682
v -1.092952 -0.960167 6.838629
v -1.160712 -1.091893 7.025167
v -1.565872 -1.010922 7.132270
v -0.508053 1.425339 4.165766
v -0.519458 1.019865 5.498984
v -0.866564 1.242081 4.051432
v -1.031588 0.703324 5.577014
v -0.866564 0.996220 3.929276
v -1.033048 0.289689 5.286843
v -0.508033 0.809550 3.832676
v -0.513485 0.124921 5.055117
v -0.149427 0.995527 3.938631
v -0.141336 0.288012 5.248994
v -0.149542 1.242042 4.076449
v -0.512044 0.944030 5.755547
v -1.022851 0.598606 5.738930
v -1.024829 0.176778 5.459129
v -0.515671 0.037008 5.169766
v -0.133260 0.200235 5.346918
v -0.417970 0.888446 5.881491
v -0.882834 0.472482 6.092015
v -0.879769 -0.050433 5.910255
v -0.448454 -0.138754 5.456932
v -0.130631 0.101853 5.485455
v -0.429993 3.032148 2.511395
v -0.658826 2.945860 2.411350
v -0.658826 2.773283 2.211259
v -0.429993 2.686993 2.111214
v -0.201160 2.773282 2.211259
v -0.201160 2.945859 2.411350
v -0.825732 1.461071 3.433996
v -0.825732 1.633960 3.615488
v -0.149031 1.603319 3.585923
v -0.149031 1.429904 3.404251
v -0.487381 1.764832 3.797275
v -0.487381 1.038886 3.515228
v -0.714889 0.433356 6.391485
v -0.711441 -0.113639 6.267067
v -0.429993 4.132213 1.289376
v -0.608102 4.092110 1.194369
v -0.608102 4.011555 0.985653
v -0.429993 3.973536 0.889457
v -0.251883 4.006258 0.993213
v -0.251883 4.092113 1.193542
v -0.859182 1.271013 3.953580
v -0.149355 1.045906 3.812151
v -0.504316 1.449255 4.096602
v -0.859182 1.058772 3.816924
v -0.149450 1.270149 3.971926
v -0.504300 0.843260 3.766338
v -0.850273 1.145837 3.687953
v -0.149338 1.339636 3.862039
v -0.499794 0.888203 3.687382
v -0.850273 1.348379 3.856669
v -0.149269 1.134125 3.687937
v -0.499805 1.489321 3.998057
v -0.182652 0.209765 9.841404
v -0.252719 0.101461 9.841404
v -0.182110 -0.006843 9.841404
v 0.213411 0.543551 5.314798
v -0.199640 0.825371 5.467122
vn 0.2171 0.8930 -0.3943
vn 0.2309 0.9730 -0.0026
vn 0.2282 0.8287 0.5111
vn 0.5934 0.7171 0.3657
vn 0.6038 0.7971 0.0039
vn 0.5368 0.7678 -0.3497
vn 0.4335 0.6757 -0.5962
vn 0.2244 0.7535 -0.6180
vn 0.9488 0.1900 -0.2522
vn 0.9829 0.1719 0.0657
vn 0.9669 -0.1341 -0.2169
vn 0.9843 -0.1466 0.0981
vn 0.7198 0.4412 -0.5359
vn 0.8218 0.4872 -0.2955
vn 0.8739 0.4848 0.0339
vn 0.8176 0.4547 0.3533
vn 0.8793 0.1584 0.4492
vn 0.8717 -0.1659 0.4611
vn 0.7717 -0.4987 0.3948
vn 0.8452 -0.5193 0.1267
vn 0.8441 -0.5094 -0.1677
vn 0.7852 -0.4383 -0.4373
vn 0.8572 -0.1236 -0.4999
vn 0.8229 0.2097 -0.5281
vn 1.0000 -0.0000 -0.0000
vn 0.1564 -0.9765 0.1485
vn 0.4800 -0.7943 -0.3725
vn 0.5169 -0.8425 -0.1518
vn 0.4664 -0.8756 0.1262
vn 0.4808 -0.7739 0.4123
vn 0.1500 -0.8611 0.4857
vn 0.2261 -0.9220 -0.3144
vn 0.3148 0.2794 -0.9071
vn 0.3250 -0.1799 -0.9284
vn 0.2669 0.5681 -0.7785
vn 0.4934 0.5045 -0.7086
vn 0.5804 0.2495 -0.7751
vn 0.6137 -0.1420 -0.7766
vn 0.5175 -0.5489 -0.6564
vn 0.3026 -0.6356 -0.7102
vn 0.1733 0.1395 0.9749
vn 0.1703 -0.1865 0.9676
vn 0.5492 0.4099 0.7283
vn 0.1876 0.4801 0.8569
vn 0.1601 -0.5446 0.8233
vn 0.5064 -0.4648 0.7263
vn 0.5518 -0.1809 0.8141
vn 0.5611 0.1458 0.8148
vn 0.6237 0.6944 0.3588
vn 0.7220 0.5506 -0.4190
vn 0.3616 0.0569 -0.9306
vn -0.6237 -0.6944 -0.3589
vn 0.6532 -0.7421 0.1505
vn -0.7220 -0.5506 0.4190
vn -0.3616 -0.0569 0.9306
vn -0.6532 0.7421 -0.1505
vn 0.1694 0.9177 0.3593
vn 0.4926 -0.8652 -0.0935
vn 0.2598 -0.9634 -0.0662
vn 0.9429 -0.3199 -0.0928
vn 0.9460 0.3060 -0.1072
vn 0.2081 0.9689 -0.1339
vn 0.4116 -0.9106 0.0373
vn 0.8785 -0.3991 0.2625
vn 0.8087 0.5700 -0.1455
vn 0.1495 0.9734 -0.1734
vn 0.4575 0.3209 0.8293
vn 0.2557 0.7879 0.5601
vn 0.4893 -0.3571 0.7957
vn 0.0610 -0.8365 0.5446
vn 0.7066 0.6120 0.3552
vn 0.8742 -0.4847 0.0281
vn 0.1716 0.7045 0.6887
vn 0.8574 -0.2021 -0.4732
vn 0.9940 -0.0806 0.0740
vn 0.3519 0.8105 -0.4682
vn 0.8871 -0.4607 -0.0286
vn -0.8174 0.0610 -0.5728
vn 0.0051 0.7681 0.6403
vn 0.8254 0.1392 0.5471
vn -0.8474 0.5231 0.0913
vn 0.0724 -0.6261 -0.7764
vn 0.8559 0.2992 0.4218
vn -0.8553 0.5149 -0.0573
vn 0.0135 -0.8400 -0.5425
vn 0.9066 -0.4221 -0.0020
vn -0.8772 -0.1507 -0.4559
vn 0.0166 0.8654 0.5008
vn 0.2808 -0.5198 0.8068
vn -0.9522 -0.3051 0.0152
vn -0.0741 0.6792 0.7302
vn 0.6376 0.0997 0.7639
vn -0.4882 0.7433 -0.4573
vn -0.5087 -0.8222 0.2555
vn 0.8147 -0.1354 0.5639
vn -0.8463 0.3896 -0.3634
vn 0.0996 -0.9257 -0.3650
vn 0.8864 -0.3493 0.3037
vn -0.8522 0.1788 -0.4917
vn -0.2655 0.9005 0.3444
vn -0.9945 -0.0501 -0.0919
vn -0.6951 0.6952 0.1831
vn 0.9694 0.2454 -0.0085
vn -0.9681 0.2331 0.0918
vn 0.1937 -0.7457 -0.6375
vn 0.9824 0.0154 -0.1861
vn -0.9466 -0.1523 -0.2841
vn -0.1859 0.9355 0.3006
vn 0.9866 0.1418 -0.0802
vn -0.5248 -0.7880 -0.3220
vn -0.5513 -0.6538 -0.5182
vn -0.5762 -0.6914 -0.4359
vn 0.9949 0.0336 0.0956
vn -0.1193 0.9580 0.2607
vn -0.2542 0.4115 -0.8752
vn 0.9844 -0.0080 0.1758
vn -0.1223 0.9609 0.2483
vn -0.9321 -0.1402 -0.3340
vn 0.2672 -0.1742 0.9478
vn 0.2259 0.5249 0.8206
vn -0.0362 -0.6892 0.7236
vn 0.2488 0.0649 0.9664
vn -0.5155 0.3106 -0.7986
vn -0.6227 0.4940 -0.6067
vn 0.2520 -0.7173 -0.6496
vn -0.8845 0.4496 0.1247
vn 0.8034 0.0930 0.5882
vn 0.0102 0.7377 0.6751
vn -0.9436 0.1408 -0.2995
vn 0.8922 -0.4515 0.0091
vn 0.0639 0.8542 0.5160
vn -0.7598 0.0432 -0.6487
vn 0.8984 -0.4392 0.0010
vn 0.0537 -0.7154 -0.6966
vn -0.7732 0.6312 -0.0607
vn 0.8347 0.2090 0.5096
vn 0.5066 0.5546 -0.6602
vn 0.9941 -0.0665 -0.0857
vn 0.5006 -0.7140 0.4895
vn -0.5172 -0.7037 0.4872
vn -0.6961 -0.4080 0.5907
vn 0.9947 0.0833 0.0608
vn -1.0000 -0.0029 -0.0049
vn 0.9972 -0.0335 -0.0665
vn -0.9858 -0.1597 0.0514
vn 0.9990 0.0235 0.0378
vn 0.6044 0.6269 -0.4917
vn 0.3669 -0.6551 0.6605
vn -0.5436 0.2669 0.7958
vn 0.3095 -0.6221 0.7192
vn 0.5990 0.7920 -0.1182
vn 0.0835 0.8884 -0.4514
vn -0.6954 -0.4060 0.5930
vn 0.9254 0.1574 0.3448
vn -0.9992 -0.0133 -0.0375
vn -0.9999 -0.0045 -0.0090
vn 0.5465 0.7360 -0.3995
vn 0.5001 -0.7891 0.3568
vn -0.5000 0.7910 -0.3525
vn -0.4789 -0.7932 0.3761
vn -0.4826 -0.7873 0.3837
vn -0.6142 0.6929 -0.3777
vn 0.4795 -0.8304 0.2837
vn 0.5519 0.7824 -0.2884
vn -1.0000 0.0005 0.0004
vn 0.9979 -0.0290 -0.0575
vn -0.2083 -0.9773 -0.0377
vn -0.3391 -0.4181 -0.8427
vn -0.1422 -0.9476 -0.2860
vn -0.2113 0.1093 -0.9713
vn 0.2574 0.9611 0.1002
vn 0.3750 0.8652 0.3328
vn 0.2535 -0.9637 0.0838
vn 0.8155 0.0076 0.5788
vn 0.0005 -0.3185 -0.9479
vn 0.4998 -0.7782 0.3802
vn 0.4970 0.7424 -0.4493
vn -0.4886 0.7473 -0.4503
vn -0.5025 -0.7770 0.3792
vn 0.9992 -0.0162 -0.0365
vn 0.9977 -0.0389 -0.0562
vn -1.0000 0.0006 0.0002
vn 0.5431 0.7197 -0.4325
vn 0.4976 -0.7674 0.4043
vn -0.4777 0.6424 -0.5993
vn -0.5169 -0.7208 0.4618
vn 0.9978 -0.0346 -0.0570
vn -1.0000 0.0006 0.0003
vn 0.4789 0.6512 -0.5887
vn 0.4956 -0.7839 0.3739
vn -0.5003 0.7281 -0.4685
vn -0.5024 -0.7390 0.4488
vn 0.2798 0.9555 0.0932
vn 0.2590 -0.9634 -0.0691
vn 0.7566 0.1439 0.6379
vn 0.8931 0.4499 -0.0000
vn 0.8377 -0.5461 -0.0000
vn 0.5488 0.8323 0.0777
vn 0.5165 -0.8562 -0.0132
vn -0.2171 0.8930 -0.3943
vn -0.2332 0.9724 -0.0047
vn -0.2282 0.8287 0.5111
vn -0.5362 0.7239 0.4341
vn -0.6140 0.7893 -0.0094
vn -0.5575 0.7416 -0.3731
vn -0.4335 0.6757 -0.5962
vn -0.2244 0.7535 -0.6180
vn -0.9486 0.1818 -0.2589
vn -0.9832 0.1706 0.0645
vn -0.9679 -0.1309 -0.2144
vn -0.9842 -0.1492 0.0957
vn -0.7191 0.4598 -0.5211
vn -0.8258 0.4724 -0.3080
vn -0.8791 0.4760 0.0239
vn -0.8176 0.4547 0.3533
vn -0.8813 0.1551 0.4463
vn -0.8704 -0.1617 0.4650
vn -0.7756 -0.4470 0.4457
vn -0.8474 -0.5145 0.1312
vn -0.8444 -0.5089 -0.1672
vn -0.7852 -0.4383 -0.4373
vn -0.8583 -0.1214 -0.4987
vn -0.8209 0.2013 -0.5345
vn -0.1488 -0.9784 0.1435
vn -0.5095 -0.7887 -0.3441
vn -0.5440 -0.8308 -0.1171
vn -0.5063 -0.8464 0.1648
vn -0.4808 -0.7739 0.4123
vn -0.1500 -0.8611 0.4857
vn -0.1482 -0.9172 -0.3698
vn -0.3082 0.2745 -0.9109
vn -0.3445 -0.1614 -0.9248
vn -0.2408 0.5577 -0.7943
vn -0.4461 0.4620 -0.7665
vn -0.5707 0.2336 -0.7872
vn -0.6232 -0.1271 -0.7717
vn -0.5828 -0.4680 -0.6643
vn -0.3026 -0.6356 -0.7102
vn -0.1783 0.1347 0.9747
vn -0.1652 -0.1814 0.9694
vn -0.5146 0.4458 0.7324
vn -0.1947 0.4737 0.8589
vn -0.1601 -0.5446 0.8233
vn -0.5064 -0.4648 0.7263
vn -0.5466 -0.1746 0.8190
vn -0.5630 0.1438 0.8139
vn -0.6237 0.6944 0.3588
vn -0.7220 0.5506 -0.4190
vn -0.3616 0.0569 -0.9306
vn 0.6237 -0.6944 -0.3589
vn -0.6532 -0.7421 0.1505
vn 0.7220 -0.5506 0.4190
vn 0.3616 -0.0569 0.9306
vn 0.6532 0.7421 -0.1505
vn -0.3809 0.9060 0.1847
vn -0.2519 -0.9486 0.1917
vn -0.1956 -0.9597 -0.2019
vn -0.8219 -0.5044 -0.2645
vn -0.9514 0.3014 -0.0628
vn -0.3651 0.9281 -0.0729
vn -0.1872 -0.9749 -0.1206
vn -0.8492 -0.5193 -0.0957
vn -0.9138 0.4058 0.0177
vn -0.5070 0.8613 -0.0342
vn -0.3765 0.7136 0.5908
vn -0.3762 0.9117 0.1650
vn -0.5172 -0.0208 0.8556
vn -0.0268 -0.8277 0.5605
vn -0.7837 0.5896 -0.1953
vn -0.9441 -0.2379 0.2282
vn -0.6656 0.6593 -0.3497
vn 0.7028 -0.5433 0.4593
vn 0.9730 -0.1320 -0.1893
vn -0.9986 0.0375 0.0374
vn -0.8729 -0.1801 0.4535
vn 0.8477 -0.4926 -0.1967
vn 0.0075 0.8871 -0.4615
vn -0.8309 0.5558 0.0261
vn 0.8493 0.2475 -0.4663
vn -0.0684 -0.9317 0.3567
vn -0.8466 0.5213 -0.1075
vn 0.8046 0.1820 -0.5652
vn -0.0001 -0.7978 0.6029
vn -0.8909 -0.1319 0.4347
vn 0.8621 -0.5049 -0.0434
vn -0.0141 0.7672 -0.6412
vn -0.2390 0.5866 0.7738
vn 0.9586 -0.1167 0.2598
vn 0.0864 0.9167 -0.3901
vn -0.2105 0.6911 0.6914
vn 0.4543 -0.1874 -0.8709
vn 0.1771 -0.2496 0.9520
vn -0.7720 0.6350 0.0280
vn 0.8233 -0.2306 -0.5186
vn -0.0928 -0.6578 0.7475
vn -0.8025 0.1303 0.5823
vn 0.8291 -0.4237 -0.3648
vn 0.1301 0.8048 -0.5791
vn 0.9912 -0.1309 -0.0177
vn 0.3105 0.6493 -0.6942
vn -0.9742 0.1030 -0.2009
vn 0.9813 0.0509 -0.1855
vn -0.2010 -0.8492 0.4883
vn -0.9796 -0.1942 0.0509
vn 0.9385 -0.3451 0.0141
vn 0.1764 0.5983 -0.7816
vn -0.9918 0.0006 -0.1276
vn 0.5384 -0.5398 0.6471
vn 0.5878 -0.6865 0.4280
vn 0.5746 -0.6625 0.4806
vn -0.9911 0.1287 0.0345
vn 0.1079 0.5704 -0.8142
vn -0.0369 -0.8810 -0.4716
vn -0.9767 0.1894 0.1006
vn 0.1104 0.5597 -0.8213
vn 0.9218 -0.3874 -0.0140
vn -0.2256 -0.1011 0.9690
vn -0.2340 0.5285 0.8161
vn 0.0681 -0.6881 0.7224
vn -0.2214 0.1688 0.9605
vn 0.4946 -0.6580 -0.5678
vn 0.4593 -0.3175 -0.8296
vn 0.0304 -0.9157 0.4006
vn 0.9455 -0.0299 -0.3243
vn -0.6659 0.7361 -0.1210
vn -0.3738 0.8769 -0.3021
vn 0.9514 -0.1910 -0.2417
vn -0.8786 -0.1925 0.4370
vn -0.0563 0.7717 -0.6335
vn 0.7771 -0.5863 -0.2287
vn -0.8616 -0.1176 0.4938
vn 0.0287 -0.8167 0.5764
vn 0.7872 0.2111 -0.5795
vn -0.8318 0.5546 -0.0241
vn -0.5024 0.8284 0.2476
vn -0.9944 0.0633 -0.0852
vn -0.4472 -0.7698 -0.4555
vn 0.5125 -0.7502 -0.4178
vn 0.5527 -0.6664 -0.5004
vn 0.5210 0.8154 0.2524
vn -0.3864 0.5797 -0.7174
vn -0.9956 0.0676 -0.0644
vn 0.9762 -0.1676 -0.1376
vn -0.9992 -0.0205 0.0342
vn -0.4783 0.8383 0.2616
vn -0.4644 -0.6985 -0.5445
vn 0.4480 -0.2661 0.8535
vn -0.4433 -0.8070 -0.3902
vn -0.4529 0.6399 0.6208
vn 0.3122 0.9331 0.1786
vn 0.5254 -0.6890 -0.4993
vn -0.9607 -0.1502 0.2333
vn 0.9995 0.0231 -0.0199
vn 0.9996 0.0210 -0.0200
vn -0.5451 0.6091 0.5760
vn -0.5198 -0.5434 -0.6591
vn 0.6155 0.5474 0.5670
vn 0.4576 -0.5858 -0.6689
vn 0.4767 -0.6782 -0.5593
vn 0.4904 0.4987 0.7147
vn -0.4750 -0.6449 -0.5987
vn -0.4946 0.5852 0.6426
vn 1.0000 -0.0002 0.0006
vn -0.9981 0.0395 -0.0474
vn -0.1222 -0.9918 -0.0382
vn 0.1866 -0.4367 -0.8801
vn 0.0220 -0.9571 -0.2889
vn 0.5180 0.0957 -0.8500
vn -0.3154 0.6849 0.6568
vn -0.3592 0.8781 0.3162
vn -0.2391 -0.9692 -0.0589
vn -0.9045 -0.1447 0.4011
vn -0.0009 0.9318 -0.3629
vn -0.4995 -0.5990 -0.6259
vn -0.4970 0.6449 0.5806
vn 0.4970 0.6449 0.5806
vn 0.4995 -0.5983 -0.6265
vn -0.9995 0.0231 -0.0199
vn -0.9984 0.0255 -0.0514
vn 1.0000 0.0001 0.0006
vn -0.4975 0.8414 0.2112
vn -0.5056 -0.7573 -0.4133
vn 0.4876 0.8430 0.2271
vn 0.5114 -0.7774 -0.3662
vn -0.9984 0.0310 -0.0481
vn 1.0000 -0.0000 0.0007
vn -0.5410 0.6808 0.4938
vn -0.5100 -0.7347 -0.4473
vn 0.5165 0.7847 0.3427
vn 0.4916 -0.7686 -0.4094
vn -0.2717 0.9601 0.0667
vn -0.1716 -0.9849 0.0223
vn -0.7559 0.1435 0.6387
vn -0.8931 0.4499 -0.0000
vn -0.8377 -0.5461 -0.0000
vn -0.5999 0.7948 0.0921
vn -0.5165 -0.8562 -0.0132
vn -0.7652 -0.0556 -0.6414
vn 0.9946 0.1035 0.0108
vn -0.1901 0.5485 -0.8143
vn 0.1517 0.9610 -0.2311
vn 0.2158 0.8929 -0.3952
vn 0.2332 0.9724 -0.0047
vn 0.2114 0.8407 0.4986
vn 0.5362 0.7239 0.4341
vn 0.6140 0.7893 -0.0094
vn 0.5575 0.7416 -0.3731
vn 0.4895 0.6746 -0.5525
vn 0.2088 0.7506 -0.6269
vn 0.9486 0.1818 -0.2589
vn 0.9832 0.1706 0.0645
vn 0.9679 -0.1309 -0.2144
vn 0.9842 -0.1492 0.0957
vn 0.7191 0.4598 -0.5211
vn 0.8258 0.4724 -0.3080
vn 0.8791 0.4760 0.0239
vn 0.8171 0.4050 0.4103
vn 0.8813 0.1551 0.4463
vn 0.8704 -0.1617 0.4650
vn 0.7756 -0.4470 0.4457
vn 0.8474 -0.5145 0.1312
vn 0.8444 -0.5089 -0.1672
vn 0.7820 -0.4824 -0.3947
vn 0.8583 -0.1214 -0.4987
vn 0.8209 0.2013 -0.5345
vn 0.1806 -0.9804 -0.0786
vn 0.1607 -0.9818 -0.1015
vn 0.1488 -0.9784 0.1435
vn 0.5095 -0.7887 -0.3441
vn 0.5440 -0.8308 -0.1171
vn 0.5063 -0.8464 0.1648
vn 0.4448 -0.7758 0.4475
vn 0.1542 -0.8626 0.4818
vn 0.1482 -0.9172 -0.3698
vn 0.3082 0.2745 -0.9109
vn 0.3445 -0.1614 -0.9248
vn 0.2408 0.5577 -0.7943
vn 0.4461 0.4620 -0.7665
vn 0.5707 0.2336 -0.7872
vn 0.6232 -0.1271 -0.7717
vn 0.5828 -0.4680 -0.6643
vn 0.2684 -0.6184 -0.7387
vn 0.1783 0.1347 0.9747
vn 0.1652 -0.1814 0.9694
vn 0.5146 0.4458 0.7324
vn 0.1947 0.4737 0.8589
vn 0.1626 -0.5423 0.8243
vn 0.4611 -0.5075 0.7279
vn 0.5466 -0.1746 0.8190
vn 0.5630 0.1438 0.8139
vn -0.6237 -0.6944 -0.3588
vn 0.2649 0.9448 0.1929
vn 0.4033 -0.8856 -0.2302
vn 0.4112 -0.8927 -0.1844
vn 0.9222 -0.3701 -0.1124
vn 0.7974 0.5603 -0.2240
vn 0.1391 0.9872 -0.0775
vn 0.5000 -0.8641 -0.0572
vn 0.9904 -0.1246 -0.0604
vn 0.4065 0.8318 -0.3780
vn -0.0248 0.9989 -0.0398
vn 0.5408 0.2834 0.7920
vn 0.3041 0.8254 0.4756
vn 0.5635 -0.3128 0.7646
vn 0.2104 -0.8824 0.4207
vn 0.5042 0.3453 0.7915
vn 0.9483 -0.2941 -0.1195
vn -0.9490 0.2171 0.2285
vn 0.6625 -0.7088 -0.2420
vn -0.9501 0.1248 -0.2858
vn -0.9908 0.0943 -0.0971
vn 0.8645 -0.5025 -0.0104
vn -0.8997 -0.0903 -0.4271
vn -0.0082 0.7146 0.6995
vn 0.8050 0.1352 0.5777
vn -0.8432 0.5322 0.0761
vn 0.0689 -0.6380 -0.7670
vn 0.8918 0.2384 0.3846
vn -0.8176 0.5757 0.0076
vn -0.0044 -0.8398 -0.5429
vn 0.9005 -0.4348 -0.0088
vn -0.8742 -0.1602 -0.4585
vn -0.0006 0.8657 0.5005
vn 0.5223 -0.6120 0.5939
vn -0.9782 -0.2067 -0.0209
vn -0.4984 0.3983 0.7700
vn 0.2525 -0.4072 0.8777
vn -0.6769 0.4816 -0.5567
vn -0.1520 -0.9835 0.0983
vn 0.7897 0.2087 0.5769
vn 0.0041 -0.8628 -0.5055
vn 0.8248 -0.4843 0.2918
vn -0.1272 0.8173 0.5621
vn -0.9926 -0.0816 -0.0895
vn -0.3155 0.8680 0.3834
vn 0.9811 0.1673 -0.0974
vn -0.9852 0.1700 0.0209
vn -0.1567 -0.6923 -0.7044
vn 0.9751 -0.0930 -0.2014
vn -0.1340 0.9707 0.1996
vn 0.9828 0.1415 -0.1189
vn -0.5311 -0.8048 -0.2650
vn -0.5918 -0.6506 -0.4759
vn -0.0032 0.1410 -0.9900
vn 0.9874 -0.0144 0.1575
vn -0.0549 0.9738 0.2207
vn -0.9371 -0.0676 -0.3424
vn 0.2347 -0.1946 0.9524
vn 0.5591 0.6305 0.5384
vn 0.0568 -0.4112 0.9098
vn 0.4377 -0.0844 0.8952
vn -0.5312 0.2963 -0.7937
vn -0.4954 0.6598 -0.5651
vn 0.0629 -0.6399 -0.7659
vn -0.9471 0.2683 -0.1760
vn 0.6260 0.3716 0.6856
vn 0.0887 0.6946 0.7140
vn -0.9095 -0.0316 -0.4145
vn 0.8768 -0.4790 -0.0416
vn -0.0281 0.7783 0.6272
vn -0.8754 -0.1490 -0.4599
vn 0.8628 -0.5035 0.0463
vn -0.0373 -0.8160 -0.5768
vn -0.7924 0.6098 0.0159
vn 0.8236 0.2069 0.5282
vn 0.6006 0.5351 -0.5941
vn 0.9944 -0.0475 -0.0947
vn 0.4154 -0.7657 0.4911
vn -0.7166 -0.5252 0.4589
vn -0.7053 -0.4837 0.5182
vn 1.0000 0.0030 -0.0045
vn -0.9949 0.0846 -0.0551
vn 0.9973 -0.0300 -0.0676
vn -0.9656 -0.1609 0.2044
vn 0.9992 0.0194 0.0343
vn 0.6001 0.6220 -0.5030
vn 0.3758 -0.7107 0.5948
vn -0.5582 0.0217 0.8294
vn -0.6388 0.2307 0.7339
vn 0.2692 -0.0985 0.9580
vn 0.3119 -0.7705 0.5560
vn 0.5936 0.7873 -0.1667
vn 0.0990 0.9473 -0.3047
vn -0.7750 -0.5781 0.2553
vn 0.9648 -0.0003 0.2629
vn -0.9992 -0.0162 -0.0365
vn -0.9999 -0.0041 -0.0093
vn 0.4993 0.7684 -0.4003
vn 0.5379 -0.7727 0.3370
vn -0.6163 0.7085 -0.3437
vn -0.4995 -0.7846 0.3673
vn -0.4831 -0.7890 0.3797
vn -0.4947 0.8276 -0.2654
vn 0.4769 -0.8131 0.3338
vn 0.4950 0.7883 -0.3655
vn -1.0000 0.0004 0.0007
vn 0.9981 -0.0321 -0.0528
vn 0.1005 -0.6803 -0.7260
vn 0.0964 -0.6120 0.7850
vn 0.3644 0.9150 0.1729
vn 0.3328 0.8317 0.4443
vn 0.2925 -0.9563 -0.0032
vn 0.8875 -0.0716 0.4553
vn 0.0004 -0.2333 -0.9724
vn -0.0055 -0.3153 -0.9490
vn -0.0300 -0.3346 -0.9419
vn 0.4976 -0.7795 0.3805
vn 0.4876 0.7480 -0.4504
vn -0.4970 0.7424 -0.4493
vn -0.4994 -0.7788 0.3796
vn 0.9992 -0.0125 -0.0378
vn 0.9982 -0.0370 -0.0478
vn -1.0000 0.0007 0.0004
vn 0.5222 0.6790 -0.5160
vn 0.4966 -0.7606 0.4181
vn -0.5249 0.7508 -0.4011
vn -0.5113 -0.6992 0.4997
vn 0.9982 -0.0341 -0.0493
vn -1.0000 0.0006 0.0006
vn 0.5432 0.7324 -0.4104
vn 0.4969 -0.7696 0.4010
vn -0.5244 0.6556 -0.5433
vn -0.5026 -0.7494 0.4310
vn 0.2821 0.9563 0.0765
vn 0.2515 -0.9666 -0.0498
vn 0.7351 -0.3363 0.5887
vn 0.8986 -0.0686 0.4334
vn 0.8391 0.5429 0.0335
vn 0.5999 0.7948 0.0921
vn 0.5513 -0.8343 -0.0000
vn -0.2158 0.8929 -0.3952
vn -0.2309 0.9730 -0.0026
vn -0.2114 0.8407 0.4986
vn -0.5934 0.7171 0.3657
vn -0.6038 0.7971 0.0039
vn -0.5368 0.7678 -0.3497
vn -0.4895 0.6746 -0.5525
vn -0.2088 0.7506 -0.6269
vn -0.9488 0.1900 -0.2522
vn -0.9829 0.1719 0.0657
vn -0.9669 -0.1341 -0.2169
vn -0.9843 -0.1466 0.0981
vn -0.7198 0.4412 -0.5359
vn -0.8218 0.4872 -0.2955
vn -0.8739 0.4848 0.0339
vn -0.8171 0.4050 0.4103
vn -0.8793 0.1584 0.4492
vn -0.8717 -0.1659 0.4611
vn -0.7717 -0.4987 0.3948
vn -0.8452 -0.5193 0.1267
vn -0.8441 -0.5094 -0.1677
vn -0.7820 -0.4824 -0.3947
vn -0.8572 -0.1236 -0.4999
vn -0.8229 0.2097 -0.5281
vn -0.1607 -0.9818 -0.1015
vn -0.1806 -0.9804 -0.0786
vn -0.1564 -0.9765 0.1485
vn -0.4800 -0.7943 -0.3725
vn -0.5169 -0.8425 -0.1518
vn -0.4664 -0.8756 0.1262
vn -0.4448 -0.7758 0.4475
vn -0.1542 -0.8626 0.4818
vn -0.2261 -0.9220 -0.3144
vn -0.3148 0.2794 -0.9071
vn -0.3250 -0.1799 -0.9284
vn -0.2669 0.5681 -0.7785
vn -0.4934 0.5045 -0.7086
vn -0.5804 0.2495 -0.7751
vn -0.6137 -0.1420 -0.7766
vn -0.5175 -0.5489 -0.6564
vn -0.2683 -0.6184 -0.7387
vn -0.1733 0.1395 0.9749
vn -0.1703 -0.1865 0.9676
vn -0.5492 0.4099 0.7283
vn -0.1876 0.4801 0.8569
vn -0.1626 -0.5423 0.8243
vn -0.4611 -0.5075 0.7279
vn -0.5518 -0.1809 0.8141
vn -0.5611 0.1458 0.8148
vn 0.6237 -0.6944 -0.3588
vn -0.4494 0.8855 -0.1182
vn -0.1083 -0.9883 -0.1077
vn -0.1907 -0.9614 -0.1986
vn -0.9480 -0.2883 -0.1346
vn -0.9125 0.3977 -0.0960
vn -0.2594 0.9653 0.0302
vn -0.1075 -0.9921 -0.0654
vn -0.8642 -0.4923 -0.1036
vn -0.9670 0.1954 0.1637
vn -0.3574 0.9199 0.1612
vn -0.7303 0.4744 0.4915
vn -0.2613 0.8363 0.4820
vn -0.2543 -0.1205 0.9596
vn -0.0495 -0.8370 0.5450
vn -0.7868 0.4857 -0.3809
vn -0.5828 -0.0797 0.8087
vn -0.9575 0.2450 -0.1524
vn -0.1858 -0.9606 0.2067
vn 0.3503 -0.6621 -0.6625
vn -0.8769 0.0811 -0.4739
vn -0.8900 -0.1839 0.4173
vn 0.9086 -0.4162 -0.0340
vn -0.0058 0.8477 -0.5304
vn -0.8108 0.5839 0.0408
vn 0.8539 0.2613 -0.4502
vn -0.0613 -0.9206 0.3857
vn -0.8819 0.4673 -0.0626
vn 0.8410 0.0995 -0.5318
vn -0.0151 -0.7971 0.6036
vn -0.8965 -0.1218 0.4260
vn 0.8595 -0.5098 -0.0362
vn 0.0001 0.7667 -0.6420
vn -0.4862 0.3617 0.7955
vn 0.9810 -0.1175 0.1542
vn 0.5180 0.8459 -0.1270
vn -0.6107 0.7689 0.1893
vn 0.6449 -0.3759 -0.6655
vn 0.5358 -0.0566 0.8425
vn -0.7899 0.5053 0.3475
vn -0.0040 -0.7707 0.6372
vn -0.8666 0.1895 0.4617
vn 0.2584 0.6253 -0.7364
vn 0.9902 -0.1394 0.0128
vn 0.6861 0.3915 -0.6132
vn -0.9875 -0.0069 -0.1576
vn 0.9655 0.1396 -0.2198
vn 0.1455 -0.9034 0.4035
vn -0.9888 -0.1424 -0.0454
vn 0.1200 0.5170 -0.8475
vn -0.9894 -0.0360 -0.1408
vn 0.5296 -0.5873 0.6120
vn 0.5458 -0.7262 0.4180
vn 0.2122 -0.6873 -0.6947
vn -0.9803 0.1701 0.1006
vn 0.0417 0.5401 -0.8405
vn 0.9250 -0.3704 -0.0852
vn -0.1902 -0.1240 0.9739
vn -0.5591 0.6305 0.5384
vn -0.0125 -0.3472 0.9377
vn -0.5091 -0.0365 0.8600
vn 0.4784 -0.6573 -0.5824
vn 0.5886 -0.4171 -0.6925
vn -0.0224 -0.8998 0.4357
vn 0.8727 0.2590 -0.4140
vn -0.8123 0.5782 0.0772
vn -0.0465 0.8345 -0.5491
vn 0.9231 -0.3784 -0.0692
vn -0.8789 -0.1915 0.4368
vn 0.0285 0.8435 -0.5364
vn 0.8639 -0.5020 -0.0407
vn -0.8926 -0.1373 0.4295
vn -0.0566 -0.8876 0.4571
vn 0.7684 0.1480 -0.6226
vn -0.8187 0.5740 -0.0141
vn -0.4825 0.8410 0.2448
vn -0.9941 0.0481 -0.0969
vn -0.5055 -0.7518 -0.4233
vn 0.5354 -0.7418 -0.4038
vn 0.5324 -0.6081 -0.5889
vn 0.4906 0.8297 0.2663
vn -0.4736 0.5720 -0.6698
vn -0.9957 0.0702 -0.0606
vn 0.9809 -0.1853 0.0596
vn -0.9990 -0.0217 0.0398
vn -0.4994 0.7150 0.4893
vn -0.4711 -0.7479 -0.4677
vn 0.5507 -0.2061 0.8089
vn 0.5160 -0.2785 0.8101
vn 0.4620 -0.6780 0.5717
vn -0.4624 -0.8427 -0.2758
vn -0.4697 0.7558 0.4562
vn -0.0734 0.9494 -0.3054
vn 0.5424 -0.6540 -0.5273
vn -0.9368 -0.1197 0.3287
vn 0.9995 0.0289 -0.0124
vn 0.9996 0.0221 -0.0191
vn -0.4986 0.6197 0.6061
vn -0.5000 -0.5555 -0.6644
vn 0.4999 0.5812 0.6421
vn 0.5000 -0.5641 -0.6571
vn 0.4910 -0.6032 -0.6285
vn 0.6134 0.5708 0.5458
vn -0.4870 -0.5246 -0.6983
vn -0.5518 0.5073 0.6619
vn 1.0000 -0.0006 0.0006
vn -0.9978 0.0475 -0.0453
vn 0.3478 -0.3566 -0.8671
vn -0.2396 -0.9701 -0.0389
vn 0.1233 0.9870 0.1029
vn -0.2985 0.8418 0.4497
vn -0.1713 -0.9815 0.0853
vn -0.8728 -0.1135 0.4747
vn -0.0009 0.9219 -0.3874
vn 0.0605 0.9175 -0.3932
vn 0.0047 0.9329 -0.3601
vn -0.4742 -0.6063 -0.6384
vn -0.4654 0.6539 0.5965
vn 0.4675 0.6533 0.5955
vn 0.4812 -0.6036 -0.6357
vn -0.9995 0.0296 -0.0114
vn -0.9972 0.0407 -0.0632
vn 1.0000 -0.0002 0.0008
vn -0.5142 0.8188 0.2553
vn -0.5105 -0.7366 -0.4436
vn 0.5124 0.8027 0.3052
vn 0.5005 -0.8044 -0.3201
vn -0.9974 0.0459 -0.0551
vn 1.0000 -0.0003 0.0008
vn -0.4610 0.8292 0.3160
vn -0.5119 -0.6952 -0.5047
vn 0.4942 0.7345 0.4650
vn 0.4972 -0.7075 -0.5022
vn -0.2691 0.9600 0.0768
vn -0.2188 -0.9733 -0.0699
vn -0.9089 -0.0979 0.4054
vn -0.7532 -0.3390 0.5637
vn -0.8391 0.5429 0.0335
vn -0.5488 0.8323 0.0777
vn -0.5513 -0.8343 -0.0000
vn -0.9641 0.0535 -0.2599
vn 0.3706 0.2132 -0.9040
vn -0.2558 0.7376 -0.6249
vn 0.5224 0.8217 0.2278
vt 0.500000 0.375000
vt 0.437500 0.437500
vt 0.437500 0.375000
vt 0.562500 0.437500
vt 0.500000 0.437500
vt 0.625000 0.375000
vt 0.562500 0.375000
vt 0.625000 0.500000
vt 0.562500 0.500000
vt 0.500000 0.500000
vt 0.437500 0.500000
vt 0.375000 0.500000
vt 0.375000 0.437500
vt 0.375000 0.375000
vt 0.437500 0.562500
vt 0.500000 0.625000
vt 0.437500 0.625000
vt 0.500000 0.562500
vt 0.562500 0.625000
vt 0.500000 0.687500
vt 0.437500 0.687500
vt 0.562500 0.687500
vt 0.375000 0.562500
vt 0.562500 0.562500
vt 0.625000 0.625000
vt 0.625000 0.687500
vt 0.625000 0.750000
vt 0.562500 0.750000
vt 0.500000 0.750000
vt 0.437500 0.750000
vt 0.375000 0.750000
vt 0.375000 0.687500
vt 0.375000 0.625000
vt 0.500000 0.875000
vt 0.468750 0.875000
vt 0.437500 0.875000
vt 0.500000 0.812500
vt 0.562500 0.875000
vt 0.437500 0.812500
vt 0.375000 0.812500
vt 0.562500 0.812500
vt 0.625000 0.812500
vt 0.375000 0.875000
vt 0.250000 0.562500
vt 0.312500 0.625000
vt 0.250000 0.625000
vt 0.312500 0.687500
vt 0.250000 0.687500
vt 0.250000 0.500000
vt 0.312500 0.562500
vt 0.312500 0.500000
vt 0.312500 0.750000
vt 0.250000 0.750000
vt 0.687500 0.562500
vt 0.750000 0.625000
vt 0.687500 0.625000
vt 0.750000 0.687500
vt 0.687500 0.687500
vt 0.625000 0.562500
vt 0.687500 0.500000
vt 0.750000 0.562500
vt 0.687500 0.750000
vt 1.000000 0.500000
vt 0.833333 1.000000
vt 0.833333 0.500000
vt 0.666667 1.000000
vt 0.666667 0.500000
vt 0.500000 1.000000
vt 0.500000 0.500000
vt 0.333333 0.500000
vt 0.042154 0.130000
vt 0.250000 0.010000
vt 0.457846 0.130000
vt 0.333333 1.000000
vt 0.166667 0.500000
vt 0.166667 1.000000
vt -0.000000 0.500000
vt 0.542154 0.130000
vt 0.542154 0.370000
vt 0.957846 0.370000
vt 1.000000 0.828637
vt 0.875000 1.000000
vt 0.875000 0.828637
vt 0.625000 0.828637
vt 0.500000 1.000000
vt 0.500000 0.828637
vt 0.625000 0.645722
vt 0.500000 0.500000
vt 0.750000 0.500000
vt 0.875000 0.645722
vt 0.875000 0.500000
vt 0.500000 0.645722
vt 0.750000 0.828637
vt 0.750000 0.645722
vt 1.000000 0.645722
vt 0.750000 1.000000
vt 1.000000 1.000000
vt 0.625000 1.000000
vt 0.749520 0.964446
vt 0.653402 0.965669
vt 0.844587 0.863513
vt 0.844268 0.965118
vt 0.647775 0.863148
vt 0.750840 0.864057
vt 0.749520 0.964446
vt 0.750840 0.864057
vt 0.647775 0.863149
vt 0.844587 0.863513
vt 0.844267 0.965117
vt 0.653402 0.965669
vt 0.749520 0.964446
vt 0.844268 0.965117
vt 0.750840 0.864057
vt 0.653402 0.965669
vt 0.844587 0.863513
vt 0.000000 0.000000
vt 0.833333 0.500000
vt -0.000000 1.000000
vt 0.500000 0.500000
vt 0.500000 0.500000
vt 0.166667 0.500000
vt -0.000000 0.500000
vt 0.833333 0.500000
vt 0.042154 0.370000
vt 0.457846 0.370000
vt 0.750000 0.010000
vt 0.333333 0.500000
vt 0.457846 0.250000
vt 0.625000 0.437500
vt 0.750000 0.500000
vt 0.957846 0.130000
vt 0.250000 0.490000
vt 0.625000 0.875000
vt 0.750000 0.750000
vt 0.250000 0.490000
vt 0.750000 0.490000
vt 0.750000 0.490000
s 0
f 26/1/1 28/2/1 25/3/1
f 26/1/2 30/4/2 29/5/2
f 7/6/3 30/4/3 27/7/3
f 30/4/4 4/8/4 9/9/4
f 29/5/5 9/9/5 10/10/5
f 28/2/6 10/10/6 11/11/6
f 28/2/7 3/12/7 5/13/7
f 25/3/8 5/13/8 6/14/8
f 31/15/9 35/16/9 34/17/9
f 32/18/10 36/19/10 35/16/10
f 34/17/11 38/20/11 37/21/11
f 35/16/12 39/22/12 38/20/12
f 3/12/13 31/15/13 14/23/13
f 11/11/14 32/18/14 31/15/14
f 10/10/15 33/24/15 32/18/15
f 4/8/16 33/24/16 9/9/16
f 33/24/17 16/25/17 36/19/17
f 36/19/18 17/26/18 39/22/18
f 39/22/19 2/27/19 18/28/19
f 38/20/20 18/28/20 19/29/20
f 37/21/21 19/29/21 20/30/21
f 37/21/22 1/31/22 12/32/22
f 13/33/23 37/21/23 12/32/23
f 14/23/24 34/17/24 13/33/24
f 44/34/25 58/35/25 43/36/25
f 41/37/26 45/38/26 44/34/26
f 1/31/27 40/39/27 22/40/27
f 20/30/28 41/37/28 40/39/28
f 19/29/29 42/41/29 41/37/29
f 2/27/30 42/41/30 18/28/30
f 23/42/31 45/38/31 42/41/31
f 22/40/32 43/36/32 21/43/32
f 46/44/33 49/45/33 48/46/33
f 48/46/34 51/47/34 50/48/34
f 6/49/35 47/50/35 46/44/35
f 5/51/36 14/23/36 47/50/36
f 47/50/37 13/33/37 49/45/37
f 49/45/38 12/32/38 51/47/38
f 51/47/39 1/31/39 22/52/39
f 51/47/40 21/53/40 50/48/40
f 52/54/41 55/55/41 54/56/41
f 54/56/42 57/57/42 56/58/42
f 4/8/43 52/54/43 15/59/43
f 8/60/44 53/61/44 52/54/44
f 57/57/45 23/62/45 56/58/45
f 56/58/46 2/27/46 17/26/46
f 16/25/47 56/58/47 17/26/47
f 15/59/48 54/56/48 16/25/48
f 59/63/49 62/64/49 61/65/49
f 61/65/50 64/66/50 63/67/50
f 63/67/51 66/68/51 65/69/51
f 66/68/52 67/70/52 65/69/52
f 68/71/53 66/72/53 64/73/53
f 68/74/54 69/75/54 67/70/54
f 70/76/55 59/77/55 69/75/55
f 67/78/56 69/79/56 61/80/56
f 86/81/57 97/82/57 99/83/57
f 100/84/58 80/85/58 90/86/58
f 84/87/59 79/88/59 77/8/59
f 75/89/60 84/87/60 77/8/60
f 82/90/61 75/89/61 73/91/61
f 71/63/62 82/90/62 73/91/62
f 100/84/63 85/92/63 84/87/63
f 101/93/64 84/87/64 83/94/64
f 99/83/65 83/94/65 82/90/65
f 81/95/66 99/83/66 82/90/66
f 97/82/67 93/96/67 96/96/67
f 72/97/68 92/82/68 97/82/68
f 98/98/69 93/96/69 94/98/69
f 80/85/70 94/98/70 95/85/70
f 76/99/71 97/82/71 96/96/71
f 78/100/72 96/96/72 98/98/72
f 87/101/73 97/82/73 74/102/73
f 78/100/74 100/84/74 89/103/74
f 89/103/75 101/93/75 88/104/75
f 87/101/76 101/93/76 99/83/76
f 150/105/77 104/100/77 103/99/77
f 151/106/78 107/103/78 152/107/78
f 154/108/79 102/102/79 105/101/79
f 150/105/80 102/102/80 153/109/80
f 151/106/81 105/101/81 106/104/81
f 152/107/82 104/100/82 149/110/82
f 155/111/83 108/102/83 156/112/83
f 158/113/84 111/101/84 112/104/84
f 160/114/85 113/103/85 110/100/85
f 155/111/86 110/100/86 109/99/86
f 158/113/87 113/103/87 159/107/87
f 156/112/88 111/101/88 157/115/88
f 110/100/89 115/99/89 109/99/89
f 112/104/90 133/103/90 113/103/90
f 108/102/91 117/101/91 111/101/91
f 108/102/92 115/99/92 114/102/92
f 111/101/93 118/104/93 112/104/93
f 110/100/94 119/103/94 116/100/94
f 114/102/95 121/99/95 120/102/95
f 117/101/96 124/104/96 118/104/96
f 119/103/97 122/100/97 116/100/97
f 115/99/98 122/100/98 121/99/98
f 119/103/99 124/104/99 125/103/99
f 117/101/100 120/102/100 123/101/100
f 124/104/101 131/103/101 125/103/101
f 123/101/102 126/102/102 129/101/102
f 121/99/103 126/102/103 120/102/103
f 124/104/104 129/101/104 130/104/104
f 125/103/105 128/100/105 122/100/105
f 121/99/106 128/100/106 127/99/106
f 132/104/107 137/103/107 133/103/107
f 118/104/108 132/104/108 112/104/108
f 119/103/109 134/104/109 118/104/109
f 119/103/110 133/103/110 135/103/110
f 139/103/111 141/103/111 143/103/111
f 135/103/112 137/103/112 139/103/112
f 135/103/113 138/104/113 134/104/113
f 134/104/114 136/104/114 132/104/114
f 141/103/115 142/104/115 143/103/115
f 139/103/116 142/104/116 138/104/116
f 138/104/117 140/104/117 136/104/117
f 136/104/118 141/103/118 137/103/118
f 94/98/119 146/96/119 147/98/119
f 91/97/120 145/82/120 92/82/120
f 94/98/121 148/85/121 95/85/121
f 92/82/122 146/96/122 93/96/122
f 128/100/123 130/104/123 127/99/123
f 127/99/124 129/101/124 126/102/124
f 89/103/125 149/110/125 78/100/125
f 88/104/126 154/108/126 151/106/126
f 74/102/127 150/105/127 153/109/127
f 87/101/128 153/109/128 154/108/128
f 88/104/129 152/107/129 89/103/129
f 78/100/130 150/105/130 76/99/130
f 102/102/131 157/115/131 105/101/131
f 106/104/132 159/107/132 107/103/132
f 103/99/133 160/114/133 155/111/133
f 104/100/134 159/107/134 160/114/134
f 106/104/135 157/115/135 158/113/135
f 103/99/136 156/112/136 102/102/136
f 162/97/137 163/65/137 161/63/137
f 163/65/138 166/66/138 165/67/138
f 165/67/139 168/68/139 167/69/139
f 168/68/140 169/70/140 167/69/140
f 170/74/141 175/68/141 176/74/141
f 368/74/142 369/75/142 416/116/142
f 170/74/143 171/75/143 169/70/143
f 190/67/144 185/65/144 191/117/144
f 177/76/145 182/74/145 183/76/145
f 164/64/146 174/66/146 166/66/146
f 164/64/147 172/97/147 173/64/147
f 166/66/148 175/68/148 168/68/148
f 182/71/149 181/72/149 180/73/149
f 174/66/150 181/68/150 175/68/150
f 173/64/151 178/97/151 179/64/151
f 177/76/152 178/118/152 172/118/152
f 175/68/153 182/74/153 176/74/153
f 173/64/154 180/66/154 174/66/154
f 188/70/155 210/75/155 209/70/155
f 192/75/156 188/70/156 193/70/156
f 191/117/157 184/63/157 194/63/157
f 190/67/158 187/69/158 186/67/158
f 192/75/159 184/77/159 189/75/159
f 193/70/160 187/69/160 195/119/160
f 221/70/161 195/119/161 219/120/161
f 218/121/162 194/122/162 192/75/162
f 217/67/163 195/119/163 190/67/163
f 222/63/164 191/117/164 194/63/164
f 218/121/165 193/70/165 221/70/165
f 220/123/166 190/67/166 191/117/166
f 183/76/167 178/118/167 200/116/167
f 182/116/168 197/116/168 196/116/168
f 181/116/169 198/116/169 197/116/169
f 196/116/170 183/124/170 182/71/170
f 199/116/171 178/116/171 200/116/171
f 199/116/172 201/116/172 179/116/172
f 198/116/173 202/116/173 203/116/173
f 179/125/174 202/73/174 180/73/174
f 206/80/175 208/126/175 210/79/175
f 187/69/176 207/67/176 186/67/176
f 185/65/177 205/63/177 184/63/177
f 189/75/178 205/77/178 210/75/178
f 187/69/179 209/70/179 208/69/179
f 186/67/180 206/65/180 185/65/180
f 163/65/181 214/67/181 211/123/181
f 171/75/182 212/127/182 169/70/182
f 161/63/183 211/123/183 213/63/183
f 165/67/184 216/69/184 214/67/184
f 161/77/185 215/121/185 171/75/185
f 169/70/186 216/69/186 167/69/186
f 211/123/187 217/67/187 220/123/187
f 215/121/188 221/70/188 212/127/188
f 213/63/189 220/123/189 222/63/189
f 214/67/190 219/120/190 217/67/190
f 215/121/191 222/77/191 218/121/191
f 212/127/192 219/120/192 216/69/192
f 204/116/193 73/116/193 201/116/193
f 203/116/194 77/116/194 79/116/194
f 201/125/195 73/125/195 75/128/195
f 145/82/196 225/96/196 146/96/196
f 146/96/197 226/98/197 147/98/197
f 145/82/198 223/97/198 224/82/198
f 147/98/199 227/85/199 148/85/199
f 248/2/200 26/1/200 25/3/200
f 26/1/201 250/4/201 27/7/201
f 250/4/202 7/6/202 27/7/202
f 250/4/203 231/8/203 233/129/203
f 249/5/204 234/9/204 250/4/204
f 248/2/205 235/10/205 249/5/205
f 230/12/206 248/2/206 232/13/206
f 232/13/207 25/3/207 6/14/207
f 251/15/208 255/16/208 252/18/208
f 252/18/209 256/19/209 253/24/209
f 254/17/210 258/20/210 255/16/210
f 255/16/211 259/22/211 256/19/211
f 230/12/212 251/15/212 236/11/212
f 236/11/213 252/18/213 235/10/213
f 235/10/214 253/24/214 234/9/214
f 253/24/215 231/8/215 234/9/215
f 253/24/216 241/25/216 240/59/216
f 256/19/217 242/26/217 241/25/217
f 259/22/218 229/27/218 242/26/218
f 258/20/219 243/28/219 259/22/219
f 257/21/220 244/29/220 258/20/220
f 228/31/221 257/21/221 237/32/221
f 238/33/222 257/21/222 254/17/222
f 239/23/223 254/17/223 251/15/223
f 261/37/224 45/38/224 262/41/224
f 228/31/225 260/39/225 245/30/225
f 245/30/226 261/37/226 244/29/226
f 244/29/227 262/41/227 243/28/227
f 262/41/228 229/27/228 243/28/228
f 45/38/229 247/42/229 262/41/229
f 246/40/230 43/36/230 260/39/230
f 46/44/231 264/45/231 263/50/231
f 48/46/232 265/47/232 264/45/232
f 6/49/233 263/50/233 232/51/233
f 232/51/234 239/23/234 230/12/234
f 263/50/235 238/33/235 239/23/235
f 264/45/236 237/32/236 238/33/236
f 265/47/237 228/31/237 237/32/237
f 21/53/238 265/47/238 50/48/238
f 266/54/239 55/55/239 53/61/239
f 267/56/240 57/57/240 55/55/240
f 231/8/241 266/54/241 233/60/241
f 233/60/242 53/61/242 7/130/242
f 247/62/243 57/57/243 268/58/243
f 229/27/244 268/58/244 242/26/244
f 241/25/245 268/58/245 267/56/245
f 240/59/246 267/56/246 266/54/246
f 269/63/247 272/64/247 270/97/247
f 271/65/248 274/66/248 272/64/248
f 273/67/249 276/68/249 274/66/249
f 277/70/250 276/68/250 275/69/250
f 278/71/251 280/124/251 274/73/251
f 279/75/252 278/74/252 277/70/252
f 269/77/253 280/76/253 279/75/253
f 271/80/254 277/78/254 273/131/254
f 86/81/255 297/82/255 72/97/255
f 300/84/256 80/85/256 298/98/256
f 79/88/257 289/87/257 285/8/257
f 283/89/258 289/87/258 288/94/258
f 283/89/259 287/90/259 281/91/259
f 71/63/260 287/90/260 81/95/260
f 85/92/261 300/84/261 289/87/261
f 289/87/262 301/93/262 288/94/262
f 288/94/263 299/83/263 287/90/263
f 81/95/264 299/83/264 86/81/264
f 294/96/265 297/82/265 296/96/265
f 293/82/266 72/97/266 297/82/266
f 298/98/267 294/96/267 296/96/267
f 80/85/268 295/98/268 298/98/268
f 284/99/269 297/82/269 282/102/269
f 286/100/270 296/96/270 284/99/270
f 297/82/271 290/101/271 282/102/271
f 300/84/272 286/100/272 292/103/272
f 301/93/273 292/103/273 291/104/273
f 290/101/274 301/93/274 291/104/274
f 348/105/275 304/100/275 347/110/275
f 307/103/276 349/106/276 350/107/276
f 352/108/277 302/102/277 351/109/277
f 302/102/278 348/105/278 351/109/278
f 349/106/279 305/101/279 352/108/279
f 304/100/280 350/107/280 347/110/280
f 308/102/281 353/111/281 354/112/281
f 356/113/282 311/101/282 355/115/282
f 358/114/283 313/103/283 357/107/283
f 353/111/284 310/100/284 358/114/284
f 313/103/285 356/113/285 357/107/285
f 311/101/286 354/112/286 355/115/286
f 315/99/287 310/100/287 309/99/287
f 333/103/288 312/104/288 313/103/288
f 317/101/289 308/102/289 311/101/289
f 308/102/290 315/99/290 309/99/290
f 318/104/291 311/101/291 312/104/291
f 310/100/292 319/103/292 313/103/292
f 314/102/293 321/99/293 315/99/293
f 324/104/294 317/101/294 318/104/294
f 322/100/295 319/103/295 316/100/295
f 315/99/296 322/100/296 316/100/296
f 319/103/297 324/104/297 318/104/297
f 317/101/298 320/102/298 314/102/298
f 331/103/299 324/104/299 325/103/299
f 323/101/300 326/102/300 320/102/300
f 326/102/301 321/99/301 320/102/301
f 324/104/302 329/101/302 323/101/302
f 328/100/303 325/103/303 322/100/303
f 321/99/304 328/100/304 322/100/304
f 337/103/305 332/104/305 333/103/305
f 332/104/306 318/104/306 312/104/306
f 334/104/307 319/103/307 318/104/307
f 319/103/308 333/103/308 313/103/308
f 339/103/309 341/103/309 337/103/309
f 335/103/310 337/103/310 333/103/310
f 338/104/311 335/103/311 334/104/311
f 336/104/312 334/104/312 332/104/312
f 341/103/313 342/104/313 340/104/313
f 342/104/314 339/103/314 338/104/314
f 340/104/315 338/104/315 336/104/315
f 341/103/316 336/104/316 337/103/316
f 295/98/317 345/96/317 294/96/317
f 344/82/318 91/97/318 293/82/318
f 148/85/319 295/98/319 95/85/319
f 345/96/320 293/82/320 294/96/320
f 328/100/321 330/104/321 331/103/321
f 327/99/322 329/101/322 330/104/322
f 347/110/323 292/103/323 286/100/323
f 291/104/324 352/108/324 290/101/324
f 282/102/325 348/105/325 284/99/325
f 290/101/326 351/109/326 282/102/326
f 350/107/327 291/104/327 292/103/327
f 348/105/328 286/100/328 284/99/328
f 355/115/329 302/102/329 305/101/329
f 357/107/330 306/104/330 307/103/330
f 303/99/331 358/114/331 304/100/331
f 304/100/332 357/107/332 307/103/332
f 306/104/333 355/115/333 305/101/333
f 354/112/334 303/99/334 302/102/334
f 361/65/335 360/97/335 359/63/335
f 361/65/336 364/66/336 362/64/336
f 363/67/337 366/68/337 364/66/337
f 367/70/338 366/68/338 365/69/338
f 368/74/339 373/68/339 366/68/339
f 416/116/340 359/63/340 360/97/340
f 162/97/341 171/75/341 415/116/341
f 381/65/342 386/67/342 387/117/342
f 177/76/343 379/74/343 374/74/343
f 372/66/344 362/64/344 364/66/344
f 362/64/345 370/97/345 360/97/345
f 373/68/346 364/66/346 366/68/346
f 379/71/347 183/124/347 375/132/347
f 378/68/348 372/66/348 373/68/348
f 371/64/349 375/97/349 370/97/349
f 375/118/350 177/76/350 370/118/350
f 379/74/351 373/68/351 374/74/351
f 377/66/352 371/64/352 372/66/352
f 384/70/353 399/75/353 385/75/353
f 384/70/354 388/75/354 389/70/354
f 380/63/355 387/117/355 390/63/355
f 386/67/356 383/69/356 391/119/356
f 388/75/357 380/77/357 390/122/357
f 383/69/358 389/70/358 391/119/358
f 391/119/359 410/70/359 408/120/359
f 407/121/360 390/122/360 411/77/360
f 406/67/361 391/119/361 408/120/361
f 411/63/362 387/117/362 409/123/362
f 389/70/363 407/121/363 410/70/363
f 409/123/364 386/67/364 406/67/364
f 183/76/365 200/116/365 375/118/365
f 197/116/366 379/116/366 196/116/366
f 198/116/367 378/116/367 197/116/367
f 196/116/368 379/71/368 183/124/368
f 199/116/369 375/116/369 376/116/369
f 392/116/370 199/116/370 376/116/370
f 198/116/371 393/116/371 377/116/371
f 393/73/372 376/125/372 377/73/372
f 399/79/373 397/126/373 395/80/373
f 396/67/374 383/69/374 382/67/374
f 394/63/375 381/65/375 380/63/375
f 385/75/376 394/77/376 380/77/376
f 383/69/377 398/70/377 384/70/377
f 395/65/378 382/67/378 381/65/378
f 361/65/379 403/67/379 363/67/379
f 401/127/380 369/75/380 367/70/380
f 359/63/381 400/123/381 361/65/381
f 363/67/382 405/69/382 365/69/382
f 404/121/383 359/77/383 369/75/383
f 405/69/384 367/70/384 365/69/384
f 400/123/385 406/67/385 403/67/385
f 410/70/386 404/121/386 401/127/386
f 402/63/387 409/123/387 400/123/387
f 403/67/388 408/120/388 405/69/388
f 404/121/389 411/77/389 402/77/389
f 408/120/390 401/127/390 405/69/390
f 281/116/391 204/116/391 392/116/391
f 203/116/392 285/116/392 393/116/392
f 283/128/393 281/125/393 392/125/393
f 413/96/394 344/82/394 345/96/394
f 414/98/395 345/96/395 346/98/395
f 344/82/396 223/97/396 144/97/396
f 227/85/397 346/98/397 148/85/397
f 415/116/398 176/74/398 177/76/398
f 416/116/399 374/74/399 368/74/399
f 172/118/400 415/116/400 177/76/400
f 416/116/401 370/118/401 177/76/401
f 26/1/402 29/5/402 28/2/402
f 26/1/403 27/7/403 30/4/403
f 7/6/404 8/129/404 30/4/404
f 30/4/405 8/129/405 4/8/405
f 29/5/406 30/4/406 9/9/406
f 28/2/407 29/5/407 10/10/407
f 28/2/408 11/11/408 3/12/408
f 25/3/409 28/2/409 5/13/409
f 31/15/410 32/18/410 35/16/410
f 32/18/411 33/24/411 36/19/411
f 34/17/412 35/16/412 38/20/412
f 35/16/413 36/19/413 39/22/413
f 3/12/414 11/11/414 31/15/414
f 11/11/415 10/10/415 32/18/415
f 10/10/416 9/9/416 33/24/416
f 4/8/417 15/59/417 33/24/417
f 33/24/418 15/59/418 16/25/418
f 36/19/419 16/25/419 17/26/419
f 39/22/420 17/26/420 2/27/420
f 38/20/421 39/22/421 18/28/421
f 37/21/422 38/20/422 19/29/422
f 37/21/423 20/30/423 1/31/423
f 13/33/424 34/17/424 37/21/424
f 14/23/425 31/15/425 34/17/425
f 43/36/426 40/39/426 44/34/426
f 40/39/427 41/37/427 44/34/427
f 41/37/428 42/41/428 45/38/428
f 1/31/429 20/30/429 40/39/429
f 20/30/430 19/29/430 41/37/430
f 19/29/431 18/28/431 42/41/431
f 2/27/432 23/42/432 42/41/432
f 23/42/433 24/133/433 45/38/433
f 22/40/434 40/39/434 43/36/434
f 46/44/435 47/50/435 49/45/435
f 48/46/436 49/45/436 51/47/436
f 6/49/437 5/51/437 47/50/437
f 5/51/438 3/12/438 14/23/438
f 47/50/439 14/23/439 13/33/439
f 49/45/440 13/33/440 12/32/440
f 51/47/441 12/32/441 1/31/441
f 51/47/442 22/52/442 21/53/442
f 52/54/443 53/61/443 55/55/443
f 54/56/444 55/55/444 57/57/444
f 4/8/445 8/60/445 52/54/445
f 8/60/446 7/130/446 53/61/446
f 57/57/447 24/134/447 23/62/447
f 56/58/448 23/62/448 2/27/448
f 16/25/449 54/56/449 56/58/449
f 15/59/450 52/54/450 54/56/450
f 59/63/49 60/97/49 62/64/49
f 61/65/50 62/64/50 64/66/50
f 63/67/51 64/66/51 66/68/51
f 66/68/451 68/74/451 67/70/451
f 64/73/53 62/125/53 68/71/53
f 62/125/53 60/135/53 70/124/53
f 68/71/53 62/125/53 70/124/53
f 68/74/54 70/76/54 69/75/54
f 70/76/55 60/118/55 59/77/55
f 69/79/56 59/136/56 61/80/56
f 61/80/56 63/131/56 67/78/56
f 63/131/56 65/126/56 67/78/56
f 86/81/452 72/97/452 97/82/452
f 100/84/453 98/98/453 80/85/453
f 84/87/454 85/92/454 79/88/454
f 75/89/455 83/94/455 84/87/455
f 82/90/456 83/94/456 75/89/456
f 71/63/457 81/95/457 82/90/457
f 100/84/458 90/86/458 85/92/458
f 101/93/459 100/84/459 84/87/459
f 99/83/460 101/93/460 83/94/460
f 81/95/461 86/81/461 99/83/461
f 97/82/462 92/82/462 93/96/462
f 72/97/463 91/97/463 92/82/463
f 98/98/464 96/96/464 93/96/464
f 80/85/465 98/98/465 94/98/465
f 76/99/466 74/102/466 97/82/466
f 78/100/467 76/99/467 96/96/467
f 87/101/468 99/83/468 97/82/468
f 78/100/469 98/98/469 100/84/469
f 89/103/470 100/84/470 101/93/470
f 87/101/471 88/104/471 101/93/471
f 150/105/472 149/110/472 104/100/472
f 151/106/473 106/104/473 107/103/473
f 154/108/474 153/109/474 102/102/474
f 150/105/475 103/99/475 102/102/475
f 151/106/476 154/108/476 105/101/476
f 152/107/477 107/103/477 104/100/477
f 155/111/478 109/99/478 108/102/478
f 158/113/479 157/115/479 111/101/479
f 160/114/480 159/107/480 113/103/480
f 155/111/481 160/114/481 110/100/481
f 158/113/482 112/104/482 113/103/482
f 156/112/483 108/102/483 111/101/483
f 110/100/484 116/100/484 115/99/484
f 112/104/485 132/104/485 133/103/485
f 108/102/486 114/102/486 117/101/486
f 108/102/487 109/99/487 115/99/487
f 111/101/488 117/101/488 118/104/488
f 110/100/489 113/103/489 119/103/489
f 114/102/490 115/99/490 121/99/490
f 117/101/96 123/101/96 124/104/96
f 119/103/491 125/103/491 122/100/491
f 115/99/492 116/100/492 122/100/492
f 119/103/99 118/104/99 124/104/99
f 117/101/493 114/102/493 120/102/493
f 124/104/494 130/104/494 131/103/494
f 123/101/495 120/102/495 126/102/495
f 121/99/496 127/99/496 126/102/496
f 124/104/497 123/101/497 129/101/497
f 125/103/498 131/103/498 128/100/498
f 121/99/499 122/100/499 128/100/499
f 132/104/107 136/104/107 137/103/107
f 118/104/500 134/104/500 132/104/500
f 119/103/501 135/103/501 134/104/501
f 119/103/502 113/103/502 133/103/502
f 139/103/503 137/103/503 141/103/503
f 135/103/112 133/103/112 137/103/112
f 135/103/113 139/103/113 138/104/113
f 134/104/114 138/104/114 136/104/114
f 141/103/504 140/104/504 142/104/504
f 139/103/505 143/103/505 142/104/505
f 138/104/506 142/104/506 140/104/506
f 136/104/507 140/104/507 141/103/507
f 94/98/508 93/96/508 146/96/508
f 91/97/509 144/97/509 145/82/509
f 94/98/510 147/98/510 148/85/510
f 92/82/511 145/82/511 146/96/511
f 128/100/512 131/103/512 130/104/512
f 127/99/513 130/104/513 129/101/513
f 89/103/514 152/107/514 149/110/514
f 88/104/515 87/101/515 154/108/515
f 74/102/516 76/99/516 150/105/516
f 87/101/517 74/102/517 153/109/517
f 88/104/518 151/106/518 152/107/518
f 78/100/519 149/110/519 150/105/519
f 102/102/520 156/112/520 157/115/520
f 106/104/521 158/113/521 159/107/521
f 103/99/522 104/100/522 160/114/522
f 104/100/523 107/103/523 159/107/523
f 106/104/524 105/101/524 157/115/524
f 103/99/525 155/111/525 156/112/525
f 162/97/526 164/64/526 163/65/526
f 163/65/527 164/64/527 166/66/527
f 165/67/528 166/66/528 168/68/528
f 168/68/529 170/74/529 169/70/529
f 170/74/530 168/68/530 175/68/530
f 368/74/531 367/70/531 369/75/531
f 170/74/532 415/116/532 171/75/532
f 190/67/533 186/67/533 185/65/533
f 177/76/534 176/74/534 182/74/534
f 164/64/535 173/64/535 174/66/535
f 164/64/536 162/97/536 172/97/536
f 166/66/537 174/66/537 175/68/537
f 180/73/538 179/125/538 182/71/538
f 179/125/539 178/132/539 182/71/539
f 178/132/540 183/124/540 182/71/540
f 174/66/541 180/66/541 181/68/541
f 173/64/542 172/97/542 178/97/542
f 177/76/543 183/76/543 178/118/543
f 175/68/544 181/68/544 182/74/544
f 173/64/545 179/64/545 180/66/545
f 188/70/546 189/75/546 210/75/546
f 192/75/547 189/75/547 188/70/547
f 191/117/548 185/65/548 184/63/548
f 190/67/549 195/119/549 187/69/549
f 192/75/550 194/122/550 184/77/550
f 193/70/551 188/70/551 187/69/551
f 221/70/552 193/70/552 195/119/552
f 218/121/553 222/77/553 194/122/553
f 217/67/554 219/120/554 195/119/554
f 222/63/555 220/123/555 191/117/555
f 218/121/556 192/75/556 193/70/556
f 220/123/557 217/67/557 190/67/557
f 182/116/558 181/116/558 197/116/558
f 181/116/559 180/116/559 198/116/559
f 199/116/560 179/116/560 178/116/560
f 199/116/561 204/116/561 201/116/561
f 198/116/562 180/116/562 202/116/562
f 179/125/563 201/125/563 202/73/563
f 210/79/564 205/137/564 206/80/564
f 206/80/565 207/131/565 208/126/565
f 208/126/566 209/78/566 210/79/566
f 187/69/567 208/69/567 207/67/567
f 185/65/568 206/65/568 205/63/568
f 189/75/569 184/77/569 205/77/569
f 187/69/570 188/70/570 209/70/570
f 186/67/571 207/67/571 206/65/571
f 163/65/572 165/67/572 214/67/572
f 171/75/573 215/121/573 212/127/573
f 161/63/574 163/65/574 211/123/574
f 165/67/575 167/69/575 216/69/575
f 161/77/576 213/77/576 215/121/576
f 169/70/577 212/127/577 216/69/577
f 211/123/578 214/67/578 217/67/578
f 215/121/579 218/121/579 221/70/579
f 213/63/580 211/123/580 220/123/580
f 214/67/581 216/69/581 219/120/581
f 215/121/582 213/77/582 222/77/582
f 212/127/583 221/70/583 219/120/583
f 204/116/584 71/116/584 73/116/584
f 203/116/585 202/116/585 77/116/585
f 77/73/586 202/73/586 75/128/586
f 202/73/587 201/125/587 75/128/587
f 145/82/588 224/82/588 225/96/588
f 146/96/197 225/96/197 226/98/197
f 145/82/589 144/97/589 223/97/589
f 147/98/590 226/98/590 227/85/590
f 248/2/591 249/5/591 26/1/591
f 26/1/592 249/5/592 250/4/592
f 250/4/593 233/129/593 7/6/593
f 250/4/594 234/9/594 231/8/594
f 249/5/595 235/10/595 234/9/595
f 248/2/596 236/11/596 235/10/596
f 230/12/597 236/11/597 248/2/597
f 232/13/598 248/2/598 25/3/598
f 251/15/599 254/17/599 255/16/599
f 252/18/600 255/16/600 256/19/600
f 254/17/601 257/21/601 258/20/601
f 255/16/602 258/20/602 259/22/602
f 230/12/603 239/23/603 251/15/603
f 236/11/604 251/15/604 252/18/604
f 235/10/605 252/18/605 253/24/605
f 253/24/606 240/59/606 231/8/606
f 253/24/607 256/19/607 241/25/607
f 256/19/608 259/22/608 242/26/608
f 259/22/609 243/28/609 229/27/609
f 258/20/610 244/29/610 243/28/610
f 257/21/611 245/30/611 244/29/611
f 228/31/612 245/30/612 257/21/612
f 238/33/613 237/32/613 257/21/613
f 239/23/614 238/33/614 254/17/614
f 261/37/615 260/39/615 44/34/615
f 260/39/616 43/36/616 44/34/616
f 261/37/617 44/34/617 45/38/617
f 228/31/618 246/40/618 260/39/618
f 245/30/619 260/39/619 261/37/619
f 244/29/620 261/37/620 262/41/620
f 262/41/621 247/42/621 229/27/621
f 45/38/622 24/133/622 247/42/622
f 246/40/623 21/43/623 43/36/623
f 46/44/624 48/46/624 264/45/624
f 48/46/625 50/48/625 265/47/625
f 6/49/626 46/44/626 263/50/626
f 232/51/627 263/50/627 239/23/627
f 263/50/628 264/45/628 238/33/628
f 264/45/629 265/47/629 237/32/629
f 265/47/630 246/52/630 228/31/630
f 21/53/631 246/52/631 265/47/631
f 266/54/632 267/56/632 55/55/632
f 267/56/633 268/58/633 57/57/633
f 231/8/634 240/59/634 266/54/634
f 233/60/635 266/54/635 53/61/635
f 247/62/636 24/134/636 57/57/636
f 229/27/637 247/62/637 268/58/637
f 241/25/638 242/26/638 268/58/638
f 240/59/639 241/25/639 267/56/639
f 269/63/247 271/65/247 272/64/247
f 271/65/248 273/67/248 274/66/248
f 273/67/249 275/69/249 276/68/249
f 277/70/640 278/74/640 276/68/640
f 270/135/251 272/125/251 280/124/251
f 272/125/251 274/73/251 280/124/251
f 274/73/251 276/72/251 278/71/251
f 279/75/252 280/76/252 278/74/252
f 269/77/253 270/118/253 280/76/253
f 271/80/254 269/136/254 279/79/254
f 279/79/254 277/78/254 271/80/254
f 277/78/254 275/126/254 273/131/254
f 86/81/641 299/83/641 297/82/641
f 300/84/642 90/86/642 80/85/642
f 79/88/643 85/92/643 289/87/643
f 283/89/644 285/8/644 289/87/644
f 283/89/645 288/94/645 287/90/645
f 71/63/646 281/91/646 287/90/646
f 85/92/647 90/86/647 300/84/647
f 289/87/648 300/84/648 301/93/648
f 288/94/649 301/93/649 299/83/649
f 81/95/650 287/90/650 299/83/650
f 294/96/651 293/82/651 297/82/651
f 293/82/652 91/97/652 72/97/652
f 298/98/653 295/98/653 294/96/653
f 80/85/654 95/85/654 295/98/654
f 284/99/655 296/96/655 297/82/655
f 286/100/656 298/98/656 296/96/656
f 297/82/657 299/83/657 290/101/657
f 300/84/658 298/98/658 286/100/658
f 301/93/659 300/84/659 292/103/659
f 290/101/660 299/83/660 301/93/660
f 348/105/661 303/99/661 304/100/661
f 307/103/662 306/104/662 349/106/662
f 352/108/663 305/101/663 302/102/663
f 302/102/664 303/99/664 348/105/664
f 349/106/665 306/104/665 305/101/665
f 304/100/666 307/103/666 350/107/666
f 308/102/667 309/99/667 353/111/667
f 356/113/668 312/104/668 311/101/668
f 358/114/669 310/100/669 313/103/669
f 353/111/670 309/99/670 310/100/670
f 313/103/671 312/104/671 356/113/671
f 311/101/672 308/102/672 354/112/672
f 315/99/673 316/100/673 310/100/673
f 333/103/674 332/104/674 312/104/674
f 317/101/675 314/102/675 308/102/675
f 308/102/676 314/102/676 315/99/676
f 318/104/677 317/101/677 311/101/677
f 310/100/678 316/100/678 319/103/678
f 314/102/679 320/102/679 321/99/679
f 324/104/294 323/101/294 317/101/294
f 322/100/680 325/103/680 319/103/680
f 315/99/681 321/99/681 322/100/681
f 319/103/297 325/103/297 324/104/297
f 317/101/682 323/101/682 320/102/682
f 331/103/683 330/104/683 324/104/683
f 323/101/684 329/101/684 326/102/684
f 326/102/685 327/99/685 321/99/685
f 324/104/686 330/104/686 329/101/686
f 328/100/687 331/103/687 325/103/687
f 321/99/688 327/99/688 328/100/688
f 337/103/305 336/104/305 332/104/305
f 332/104/689 334/104/689 318/104/689
f 334/104/690 335/103/690 319/103/690
f 319/103/691 335/103/691 333/103/691
f 339/103/692 343/103/692 341/103/692
f 335/103/310 339/103/310 337/103/310
f 338/104/311 339/103/311 335/103/311
f 336/104/312 338/104/312 334/104/312
f 341/103/693 343/103/693 342/104/693
f 342/104/694 343/103/694 339/103/694
f 340/104/695 342/104/695 338/104/695
f 341/103/696 340/104/696 336/104/696
f 295/98/697 346/98/697 345/96/697
f 344/82/698 144/97/698 91/97/698
f 148/85/699 346/98/699 295/98/699
f 345/96/700 344/82/700 293/82/700
f 328/100/701 327/99/701 330/104/701
f 327/99/702 326/102/702 329/101/702
f 347/110/703 350/107/703 292/103/703
f 291/104/704 349/106/704 352/108/704
f 282/102/705 351/109/705 348/105/705
f 290/101/706 352/108/706 351/109/706
f 350/107/707 349/106/707 291/104/707
f 348/105/708 347/110/708 286/100/708
f 355/115/709 354/112/709 302/102/709
f 357/107/710 356/113/710 306/104/710
f 303/99/711 353/111/711 358/114/711
f 304/100/712 358/114/712 357/107/712
f 306/104/713 356/113/713 355/115/713
f 354/112/714 353/111/714 303/99/714
f 361/65/715 362/64/715 360/97/715
f 361/65/716 363/67/716 364/66/716
f 363/67/717 365/69/717 366/68/717
f 367/70/718 368/74/718 366/68/718
f 368/74/719 374/74/719 373/68/719
f 416/116/720 369/75/720 359/63/720
f 162/97/721 161/63/721 171/75/721
f 381/65/722 382/67/722 386/67/722
f 177/76/723 183/76/723 379/74/723
f 372/66/724 371/64/724 362/64/724
f 362/64/725 371/64/725 370/97/725
f 373/68/726 372/66/726 364/66/726
f 375/132/727 376/125/727 379/71/727
f 376/125/728 377/73/728 379/71/728
f 377/73/729 378/72/729 379/71/729
f 378/68/730 377/66/730 372/66/730
f 371/64/731 376/64/731 375/97/731
f 375/118/732 183/76/732 177/76/732
f 379/74/733 378/68/733 373/68/733
f 377/66/734 376/64/734 371/64/734
f 384/70/735 398/70/735 399/75/735
f 384/70/736 385/75/736 388/75/736
f 380/63/737 381/65/737 387/117/737
f 386/67/738 382/67/738 383/69/738
f 388/75/739 385/75/739 380/77/739
f 383/69/740 384/70/740 389/70/740
f 391/119/741 389/70/741 410/70/741
f 407/121/742 388/75/742 390/122/742
f 406/67/743 386/67/743 391/119/743
f 411/63/744 390/63/744 387/117/744
f 389/70/745 388/75/745 407/121/745
f 409/123/746 387/117/746 386/67/746
f 197/116/747 378/116/747 379/116/747
f 198/116/748 377/116/748 378/116/748
f 199/116/749 200/116/749 375/116/749
f 392/116/750 204/116/750 199/116/750
f 198/116/751 203/116/751 393/116/751
f 393/73/752 392/125/752 376/125/752
f 395/80/753 394/137/753 399/79/753
f 399/79/754 398/78/754 397/126/754
f 397/126/755 396/131/755 395/80/755
f 396/67/756 397/69/756 383/69/756
f 394/63/757 395/65/757 381/65/757
f 385/75/758 399/75/758 394/77/758
f 383/69/759 397/69/759 398/70/759
f 395/65/760 396/67/760 382/67/760
f 361/65/761 400/123/761 403/67/761
f 401/127/762 404/121/762 369/75/762
f 359/63/763 402/63/763 400/123/763
f 363/67/764 403/67/764 405/69/764
f 404/121/765 402/77/765 359/77/765
f 405/69/766 401/127/766 367/70/766
f 400/123/767 409/123/767 406/67/767
f 410/70/768 407/121/768 404/121/768
f 402/63/769 411/63/769 409/123/769
f 403/67/770 406/67/770 408/120/770
f 404/121/771 407/121/771 411/77/771
f 408/120/772 410/70/772 401/127/772
f 281/116/773 71/116/773 204/116/773
f 203/116/774 79/116/774 285/116/774
f 392/125/775 393/73/775 283/128/775
f 393/73/776 285/73/776 283/128/776
f 413/96/777 412/82/777 344/82/777
f 414/98/395 413/96/395 345/96/395
f 344/82/778 412/82/778 223/97/778
f 227/85/779 414/98/779 346/98/779
f 415/116/780 170/74/780 176/74/780
f 416/116/781 177/76/781 374/74/781
f 172/118/782 162/97/782 415/116/782
f 416/116/783 360/97/783 370/118/783
