# Blender 5.0.0
# www.blender.org
o body
v 0.496492 -0.836496 10.595617
v 0.583336 -0.739346 11.866554
v 0.476577 0.278155 10.662875
v 0.565221 0.486406 11.902267
v 0.246627 0.341088 10.566987
v -0.000000 0.369678 10.512305
v -0.000000 0.658669 12.035913
v 0.340386 0.599495 11.991398
v 0.631619 0.554538 11.660933
v 0.646511 0.545035 11.302043
v 0.576865 0.424383 10.930264
v 0.562963 -0.631520 10.509521
v 0.591550 -0.317049 10.480818
v 0.550611 0.022595 10.551914
v 0.654626 0.225672 11.981602
v 0.703310 -0.145583 12.014497
v 0.665741 -0.502555 11.960652
v 0.654036 -0.830154 11.613652
v 0.671875 -0.892060 11.240975
v 0.600616 -0.885222 10.861481
v -0.000000 -0.970373 10.429723
v 0.267098 -0.925011 10.488783
v 0.358752 -0.817453 11.954359
v -0.000000 -0.856364 11.999546
v -0.000000 0.674132 10.883544
v -0.000000 0.858995 11.302239
v -0.000000 0.860968 11.707933
v 0.290903 0.614872 10.909495
v 0.337850 0.778809 11.305515
v 0.344425 0.778265 11.688257
v 0.749642 0.108478 10.889948
v 0.841644 0.194318 11.287371
v 0.811618 0.221480 11.673065
v 0.812126 -0.260919 10.846792
v 0.912852 -0.205322 11.267584
v 0.878665 -0.167071 11.678803
v 0.764291 -0.610047 10.849474
v 0.857600 -0.587271 11.251299
v 0.825386 -0.539852 11.645432
v 0.317045 -1.052687 10.825421
v 0.365526 -1.074154 11.109684
v 0.369003 -0.996871 11.633109
v -0.000000 -1.112858 10.847603
v -0.000000 -1.133464 11.104755
v -0.000000 -1.050112 11.652707
v -0.000000 0.004889 10.246128
v 0.255090 0.002209 10.331627
v -0.000000 -0.369841 10.130715
v 0.272938 -0.355472 10.229864
v -0.000000 -0.709899 10.196610
v 0.266506 -0.681006 10.284296
v 0.373244 0.271110 12.168209
v -0.000000 0.302962 12.232065
v 0.399412 -0.129139 12.220834
v -0.000000 -0.120306 12.290564
v 0.383312 -0.515705 12.149175
v -0.000000 -0.530811 12.213742
v -0.000000 -1.256591 10.915864
v 0.899103 0.129189 11.276714
v 0.964296 0.059744 11.297800
v 0.972883 0.157159 11.094356
v 1.038076 0.087714 11.115441
v 0.910948 0.053346 10.851214
v 0.976141 -0.016099 10.872300
v 0.775233 -0.078438 10.790429
v 0.840426 -0.147883 10.811515
v 0.701452 -0.106409 10.972788
v 0.766645 -0.175854 10.993874
v 0.763387 -0.002595 11.215930
v 0.828580 -0.072040 11.237016
v 0.000000 0.608116 7.659376
v -0.000047 0.617108 9.807940
v 0.504716 0.474076 7.473759
v 0.828799 0.387049 9.467110
v 0.598099 0.170519 7.431457
v 0.958612 0.128226 9.703330
v 0.495931 -0.117174 7.393162
v 0.866920 -0.173356 9.552063
v -0.000000 -0.261991 7.520471
v 0.000048 -0.521317 9.497018
v -0.000000 0.657830 8.292435
v 0.570555 0.526097 8.313168
v 0.767173 0.172261 8.303980
v 0.572060 -0.236477 8.297829
v -0.000000 -0.421472 8.292435
v 0.000175 0.708575 9.376592
v 0.704163 0.539200 9.056222
v 0.719069 0.283439 8.872948
v 0.697758 -0.070704 8.952475
v 0.000490 -0.497828 9.166046
v -0.000000 0.515979 9.978711
v 0.439923 0.394288 9.943563
v 0.633960 0.093114 9.927357
v 0.435100 -0.211759 9.927037
v -0.000000 -0.334730 9.771093
v 0.958175 0.128694 9.715200
v 0.710255 0.428683 9.654460
v 0.738428 -0.262955 9.776774
v 0.614500 0.568101 8.920151
v 0.622328 -0.272524 9.050140
v 0.716988 0.266182 8.859436
v 1.569711 0.689557 7.826606
v 1.660852 0.530414 7.813412
v 1.565062 0.310796 7.798027
v 1.165845 0.710852 7.670050
v 1.098688 0.561992 7.593303
v 1.162603 0.332788 7.634992
v 1.947387 0.640189 6.364430
v 2.012795 0.496142 6.367307
v 1.945324 0.336913 6.387069
v 1.641426 0.636281 6.287298
v 1.587914 0.493786 6.252237
v 1.639917 0.332868 6.306367
v 1.973506 0.705261 6.281075
v 2.062508 0.506574 6.352791
v 1.991030 0.231304 6.333920
v 1.819618 0.690009 6.129613
v 1.789897 0.500639 6.130426
v 1.818377 0.178211 6.156289
v 2.247543 0.752934 5.857004
v 2.304154 0.486854 5.866011
v 2.245863 0.168470 5.889764
v 2.087068 0.672098 5.687572
v 2.057347 0.482728 5.688385
v 2.085826 0.160301 5.714249
v 2.187763 0.641525 5.280651
v 2.198979 0.458934 5.251414
v 2.187792 0.236103 5.303862
v 2.097322 0.570627 5.345109
v 2.071036 0.463784 5.328879
v 2.096622 0.237855 5.361919
v 1.578681 0.435247 6.040670
v 1.610125 0.297944 6.097763
v 1.773646 0.443220 5.988493
v 1.794018 0.167489 6.016974
v 1.631558 0.375004 5.829827
v 1.657323 0.262498 5.876609
v 1.791312 0.381537 5.787074
v 1.808004 0.155605 5.810411
v 1.707453 0.311466 5.608454
v 1.718265 0.231402 5.645267
v 1.825261 0.317235 5.605463
v 1.834462 0.156271 5.624606
v -0.000000 0.404502 10.109253
v 0.158780 0.287954 10.080857
v 0.252719 0.101461 10.017337
v 0.182110 -0.006843 10.017337
v -0.000000 -0.116119 9.979309
v 1.514656 0.272775 7.901355
v 1.610398 0.495083 7.948307
v 1.079949 0.555328 7.654160
v 1.133274 0.312920 7.691522
v 1.520849 0.661531 7.961494
v 1.137187 0.700562 7.755067
v 1.700037 0.547478 7.692689
v 1.611431 0.704723 7.694532
v 1.200818 0.705805 7.574563
v 1.128605 0.551241 7.520972
v 1.198990 0.333512 7.586028
v 1.607680 0.331558 7.706787
v 0.508210 -1.013008 5.144579
v 0.519509 0.345839 5.950892
v 0.863355 -1.162610 5.231467
v 1.026829 0.105643 6.253232
v 0.863355 -1.346395 5.388874
v 1.028275 -0.311522 6.535311
v 0.508191 -1.520486 5.491872
v 0.513592 -0.573018 6.587352
v 0.152952 -1.369455 5.381672
v 0.144936 -0.251511 6.376640
v 0.153066 -1.160542 5.250769
v 0.512164 0.591350 6.190151
v 1.018174 0.269343 6.411717
v 1.020134 -0.178978 6.663821
v 0.515757 -0.496426 6.649120
v 0.136937 -0.167486 6.414205
v 0.000000 0.781548 6.393957
v 0.418974 0.728713 6.393334
v 0.879472 0.485754 6.916151
v 0.876436 0.011617 6.940767
v 0.449171 -0.311023 6.795093
v 0.134332 -0.074415 6.464243
v 0.000000 0.828685 6.502976
v 0.430883 0.057157 3.614963
v 0.691277 -0.060683 3.521606
v 0.691277 -0.296361 3.334891
v 0.430883 -0.414233 3.241476
v 0.170489 -0.296581 3.334548
v 0.170489 -0.060683 3.521606
v 0.822906 -1.329582 4.781350
v 0.822906 -1.128676 4.925020
v 0.152560 -1.163993 4.901960
v 0.152560 -1.368383 4.759479
v 0.487733 -0.970083 5.074667
v 0.487732 -1.712523 4.968791
v -0.000000 -0.033724 6.496630
v -0.000000 -0.215183 6.609817
v -0.000000 -0.268239 6.852641
v 0.000000 0.815038 7.062830
v 0.000000 0.839385 6.740772
v 0.713104 0.436540 7.234773
v 0.709689 -0.045005 7.165918
v -0.000000 -0.231063 7.189291
v 0.000000 0.628045 7.410373
v 0.430883 0.888986 2.208683
v 0.625711 0.825351 2.115744
v 0.625711 0.693177 1.914122
v 0.430883 0.630337 1.820842
v 0.236055 0.688543 1.923720
v 0.236055 0.825165 2.114885
v 0.856043 -1.332338 5.228241
v 0.152881 -1.528261 5.249511
v 0.504508 -1.145018 5.224750
v 0.856043 -1.470668 5.263653
v 0.152974 -1.319591 5.236825
v 0.504492 -1.603269 5.389518
v 0.847217 -1.559756 5.101715
v 0.152864 -1.352774 5.175467
v 0.500028 -1.685329 5.258216
v 0.847216 -1.351267 5.177249
v 0.152795 -1.566973 5.106979
v 0.500040 -1.190581 5.234554
v -0.000000 0.330200 10.750154
v 0.182652 0.209765 10.750154
v 0.252719 0.101461 10.750154
v 0.182110 -0.006843 10.750154
v -0.000000 -0.127185 10.695081
v -0.496493 -0.836496 10.595617
v -0.583336 -0.739346 11.866554
v -0.476577 0.278155 10.662875
v -0.565221 0.486406 11.902267
v -0.246627 0.341088 10.566987
v -0.340386 0.599495 11.991398
v -0.631619 0.554538 11.660933
v -0.646511 0.545035 11.302043
v -0.576865 0.424383 10.930264
v -0.562963 -0.631520 10.509521
v -0.591550 -0.317049 10.480818
v -0.550611 0.022595 10.551914
v -0.654626 0.225672 11.981602
v -0.703310 -0.145583 12.014497
v -0.665741 -0.502555 11.960652
v -0.654036 -0.830154 11.613652
v -0.671875 -0.892060 11.240975
v -0.600616 -0.885222 10.861481
v -0.267098 -0.925011 10.488783
v -0.358752 -0.817453 11.954359
v -0.290903 0.614872 10.909495
v -0.337850 0.778809 11.305515
v -0.344425 0.778265 11.688257
v -0.749642 0.108478 10.889948
v -0.841644 0.194318 11.287371
v -0.811618 0.221480 11.673065
v -0.812126 -0.260919 10.846792
v -0.912852 -0.205322 11.267584
v -0.878665 -0.167071 11.678803
v -0.764291 -0.610047 10.849474
v -0.857600 -0.587271 11.251299
v -0.825386 -0.539852 11.645432
v -0.317045 -1.052687 10.825421
v -0.365526 -1.074154 11.109684
v -0.369003 -0.996871 11.633109
v -0.255090 0.002209 10.331627
v -0.272938 -0.355472 10.229864
v -0.266506 -0.681006 10.284296
v -0.373244 0.271110 12.168209
v -0.399412 -0.129139 12.220834
v -0.383312 -0.515705 12.149175
v -0.899103 0.129189 11.276714
v -0.964296 0.059744 11.297800
v -0.972883 0.157159 11.094356
v -1.038076 0.087714 11.115441
v -0.910948 0.053346 10.851214
v -0.976141 -0.016099 10.872300
v -0.775233 -0.078438 10.790429
v -0.840426 -0.147883 10.811515
v -0.701452 -0.106409 10.972788
v -0.766645 -0.175854 10.993874
v -0.763387 -0.002595 11.215930
v -0.828580 -0.072040 11.237016
v -0.504526 0.476275 7.539557
v -0.822646 0.282217 9.404015
v -0.598793 0.169840 7.496854
v -0.956867 0.107627 9.706586
v -0.495657 -0.142025 7.449530
v -0.863625 -0.223924 9.646888
v -0.567924 0.483327 8.300968
v -0.761903 0.085816 8.302868
v -0.569738 -0.278680 8.309393
v -0.690083 0.320357 8.971625
v -0.702127 0.021688 8.868315
v -0.684341 -0.288101 9.041548
v -0.440473 0.405138 9.933566
v -0.634105 0.098586 9.928894
v -0.435362 -0.205875 9.936356
v -0.956595 0.111599 9.717414
v -0.708807 0.405998 9.605266
v -0.738408 -0.261345 9.816207
v -0.607187 0.455761 8.869453
v -0.616859 -0.351578 9.102950
v -0.701639 0.029143 8.856120
v -1.529890 0.033662 7.748490
v -1.620796 -0.122666 7.783869
v -1.525134 -0.338302 7.832551
v -1.125827 0.005171 7.590251
v -1.059061 -0.160870 7.558165
v -1.122485 -0.368001 7.668019
v -1.962020 -0.374537 6.375469
v -2.027501 -0.512675 6.416288
v -1.959526 -0.663021 6.471714
v -1.659661 -0.400975 6.289118
v -1.607956 -0.548361 6.287914
v -1.657873 -0.690460 6.381962
v -1.991579 -0.331558 6.279845
v -2.077772 -0.505509 6.401716
v -2.007659 -0.777866 6.448028
v -1.844363 -0.385343 6.130548
v -1.814972 -0.569090 6.176570
v -1.842887 -0.874977 6.281894
v -2.283486 -0.385894 5.868698
v -2.340131 -0.640941 5.945029
v -2.281439 -0.944489 6.043745
v -2.130577 -0.507742 5.717814
v -2.101185 -0.691489 5.763836
v -2.129101 -0.997376 5.869160
v -2.248706 -0.635855 5.335333
v -2.261491 -0.819892 5.352272
v -2.248458 -1.023198 5.457276
v -2.155706 -0.689900 5.411432
v -2.130332 -0.797776 5.420842
v -2.154876 -1.008391 5.509324
v -1.607920 -0.657064 6.096978
v -1.637128 -0.775797 6.187256
v -1.804931 -0.659731 6.052516
v -1.824551 -0.919806 6.148585
v -1.669908 -0.766482 5.909721
v -1.693841 -0.863770 5.983694
v -1.831338 -0.768667 5.873289
v -1.847414 -0.981771 5.952008
v -1.755350 -0.881391 5.714020
v -1.764714 -0.949855 5.769764
v -1.873168 -0.875087 5.714561
v -1.881824 -1.026328 5.772970
v -0.158780 0.287954 10.080857
v -0.252719 0.101461 10.017337
v -0.182110 -0.006843 10.017337
v -1.479345 -0.337408 7.943735
v -1.575105 -0.111552 7.916800
v -1.040231 -0.147532 7.624861
v -1.094623 -0.366008 7.736390
v -1.485461 0.050901 7.877573
v -1.098594 0.022611 7.674579
v -1.659198 -0.141290 7.671343
v -1.570502 0.010394 7.629504
v -1.163549 -0.024360 7.500381
v -1.093593 -0.188315 7.484984
v -1.161323 -0.382139 7.607068
v -1.566445 -0.347608 7.738070
v -0.508053 1.078098 4.871702
v -0.519458 0.938671 6.270687
v -0.866564 0.866022 4.805548
v -1.031588 0.632988 6.407767
v -0.866564 0.593466 4.741242
v -1.033048 0.168046 6.206593
v -0.508034 0.392781 4.695562
v -0.513485 -0.040047 6.012452
v -0.149427 0.602101 4.756421
v -0.141336 0.164134 6.161865
v -0.149542 0.879893 4.830121
v -0.512044 0.921687 6.552360
v -1.022851 0.569383 6.592264
v -1.024829 0.097160 6.393208
v -0.515671 -0.098359 6.134989
v -0.133260 0.102396 6.269808
v -0.417970 0.892768 6.705214
v -0.882834 0.477855 6.998340
v -0.879769 -0.053049 6.853158
v -0.448454 -0.209901 6.432408
v -0.130631 0.035682 6.418594
v -0.429993 1.845597 2.592888
v -0.658826 1.722930 2.543820
v -0.658826 1.477597 2.445682
v -0.429993 1.354930 2.396615
v -0.201160 1.477597 2.445682
v -0.201160 1.722930 2.543820
v -0.825732 0.875891 4.135337
v -0.825732 1.112936 4.216823
v -0.149031 1.072123 4.204690
v -0.149032 0.835048 4.123204
v -0.487381 1.313076 4.318798
v -0.487381 0.536732 4.392315
v -0.714889 0.434613 7.300334
v -0.711441 -0.106714 7.190062
v -0.429993 2.246151 0.991925
v -0.608102 2.177917 0.918571
v -0.608102 2.043615 0.728489
v -0.429993 1.984017 0.643958
v -0.251883 2.040016 0.742131
v -0.251883 2.177485 0.917382
v -0.859182 0.908166 4.698906
v -0.149356 0.642228 4.640930
v -0.504316 1.124893 4.774112
v -0.859183 0.643008 4.630929
v -0.149450 0.912451 4.716920
v -0.504300 0.418244 4.640425
v -0.850273 0.703516 4.497913
v -0.149339 0.953864 4.580477
v -0.499794 0.449217 4.573853
v -0.850273 0.961592 4.570504
v -0.149269 0.692582 4.502493
v -0.499806 1.146931 4.645316
v -0.182652 0.209765 10.750154
v -0.252719 0.101461 10.750154
v -0.182110 -0.006843 10.750154
v 0.213411 0.469104 6.178726
v -0.199640 0.750687 6.277889
vn 0.2171 0.8930 -0.3943
vn 0.2309 0.9730 -0.0026
vn 0.2282 0.8287 0.5111
vn 0.5934 0.7171 0.3657
vn 0.6038 0.7971 0.0039
vn 0.5368 0.7678 -0.3497
vn 0.4335 0.6757 -0.5962
vn 0.2244 0.7535 -0.6180
vn 0.9488 0.1900 -0.2522
vn 0.9829 0.1719 0.0657
vn 0.9669 -0.1341 -0.2169
vn 0.9843 -0.1466 0.0981
vn 0.7198 0.4412 -0.5359
vn 0.8218 0.4872 -0.2955
vn 0.8739 0.4848 0.0339
vn 0.8176 0.4547 0.3533
vn 0.8793 0.1584 0.4492
vn 0.8717 -0.1659 0.4611
vn 0.7717 -0.4987 0.3948
vn 0.8452 -0.5193 0.1267
vn 0.8441 -0.5094 -0.1677
vn 0.7852 -0.4383 -0.4373
vn 0.8572 -0.1236 -0.4999
vn 0.8229 0.2097 -0.5281
vn 1.0000 -0.0000 -0.0000
vn 0.1564 -0.9765 0.1485
vn 0.4800 -0.7943 -0.3725
vn 0.5169 -0.8425 -0.1518
vn 0.4664 -0.8756 0.1262
vn 0.4808 -0.7739 0.4123
vn 0.1500 -0.8611 0.4857
vn 0.2261 -0.9220 -0.3144
vn 0.3148 0.2794 -0.9071
vn 0.3250 -0.1799 -0.9284
vn 0.2669 0.5681 -0.7785
vn 0.4934 0.5045 -0.7086
vn 0.5804 0.2495 -0.7751
vn 0.6137 -0.1420 -0.7766
vn 0.5175 -0.5489 -0.6564
vn 0.3026 -0.6356 -0.7102
vn 0.1733 0.1395 0.9749
vn 0.1703 -0.1865 0.9676
vn 0.5492 0.4099 0.7283
vn 0.1876 0.4801 0.8569
vn 0.1601 -0.5446 0.8233
vn 0.5064 -0.4648 0.7263
vn 0.5518 -0.1809 0.8141
vn 0.5611 0.1458 0.8148
vn 0.6237 0.6944 0.3588
vn 0.7220 0.5506 -0.4190
vn 0.3616 0.0569 -0.9306
vn -0.6237 -0.6944 -0.3589
vn 0.6532 -0.7421 0.1505
vn -0.7220 -0.5506 0.4190
vn -0.3616 -0.0569 0.9306
vn -0.6532 0.7421 -0.1505
vn 0.3164 0.9387 0.1370
vn 0.3289 -0.9420 -0.0664
vn 0.2423 -0.9590 -0.1469
vn 0.9404 -0.3178 -0.1211
vn 0.9479 0.3046 -0.0932
vn 0.2290 0.9703 -0.0781
vn 0.3076 -0.9492 -0.0660
vn 0.8910 -0.4276 0.1528
vn 0.8690 0.4854 -0.0965
vn 0.2271 0.9703 -0.0836
vn 0.4320 0.5079 0.7453
vn 0.3145 0.8624 0.3967
vn 0.3936 -0.2577 0.8824
vn 0.0319 -0.8262 0.5625
vn 0.7705 0.6375 0.0033
vn 0.8480 -0.4263 0.3149
vn 0.5289 0.8355 0.1490
vn 0.8299 -0.4617 -0.3132
vn 0.9955 -0.0733 -0.0597
vn 0.8107 0.3669 -0.4562
vn 0.8869 -0.4027 0.2263
vn -0.8171 -0.2591 -0.5150
vn 0.0051 0.9925 0.1219
vn 0.8252 0.4135 0.3848
vn -0.8472 0.4891 -0.2073
vn 0.0726 -0.9470 -0.3130
vn 0.8558 0.4800 0.1929
vn -0.8551 0.4018 -0.3278
vn 0.0134 -0.9999 -0.0006
vn 0.9064 -0.3558 0.2277
vn -0.8770 -0.3737 -0.3020
vn 0.0167 0.9987 -0.0482
vn 0.2802 0.0004 0.9599
vn -0.9523 -0.2480 0.1775
vn -0.0742 0.9666 0.2455
vn 0.6373 0.4978 0.5883
vn -0.4877 0.3769 -0.7875
vn -0.5091 -0.5525 0.6600
vn 0.8143 0.1918 0.5478
vn -0.8459 0.1305 -0.5171
vn 0.0994 -0.9757 0.1951
vn 0.8861 -0.1290 0.4451
vn -0.8519 -0.1162 -0.5107
vn -0.2654 0.9434 -0.1988
vn -0.9945 -0.0919 -0.0507
vn -0.6950 0.6835 -0.2233
vn 0.9695 0.2015 -0.1395
vn -0.9681 0.2457 -0.0498
vn 0.1938 -0.9722 -0.1314
vn 0.9825 -0.0880 -0.1641
vn -0.9465 -0.2820 -0.1568
vn -0.1857 0.9491 -0.2545
vn 0.9867 0.0756 -0.1436
vn -0.5249 -0.8367 0.1562
vn -0.5513 -0.8303 -0.0815
vn -0.5762 -0.8172 0.0080
vn 0.9948 0.0800 0.0628
vn -0.1191 0.9464 -0.3003
vn -0.2536 -0.1285 -0.9587
vn 0.9843 0.0885 0.1527
vn -0.1221 0.9421 -0.3123
vn -0.9320 -0.2988 -0.2053
vn 0.2250 -0.1467 0.9633
vn 0.2094 0.5175 0.8297
vn -0.0645 -0.6882 0.7226
vn 0.2306 0.0965 0.9682
vn -0.5150 -0.1718 -0.8398
vn -0.6222 0.0864 -0.7781
vn 0.1422 -0.9682 -0.2059
vn -0.8763 0.4551 -0.1580
vn 0.8041 0.3976 0.4421
vn 0.0294 0.9907 0.1327
vn -0.9434 -0.0176 -0.3312
vn 0.8858 -0.3931 0.2468
vn 0.0640 0.9975 -0.0293
vn -0.7595 -0.3153 -0.5690
vn 0.8982 -0.3686 0.2395
vn 0.0537 -0.9788 -0.1976
vn -0.7729 0.4976 -0.3937
vn 0.8345 0.4518 0.3155
vn 0.3909 0.4673 -0.7930
vn 0.9943 -0.0691 -0.0807
vn 0.4890 -0.6609 0.5692
vn -0.4644 -0.6687 0.5806
vn -0.6934 -0.3481 0.6309
vn 0.9950 0.0905 0.0425
vn -1.0000 -0.0026 -0.0051
vn 0.9972 0.0433 -0.0606
vn -0.9866 -0.1495 0.0647
vn 0.9990 0.0273 0.0352
vn 0.6058 0.5697 -0.5554
vn 0.3718 -0.5891 0.7174
vn -0.5332 0.3606 0.7653
vn 0.3038 -0.5196 0.7986
vn 0.6029 0.7797 -0.1687
vn 0.1059 0.8456 -0.5231
vn -0.6956 -0.3552 0.6244
vn 0.9191 0.1962 0.3418
vn -0.9992 0.0329 -0.0235
vn -0.9999 0.0058 -0.0083
vn 0.5402 0.6980 0.4702
vn 0.5001 -0.6825 -0.5330
vn -0.5000 0.6796 0.5367
vn -0.4172 -0.7330 -0.5372
vn -0.3606 -0.9271 0.1024
vn -0.6095 0.6521 0.4508
vn 0.4902 -0.6898 -0.5328
vn 0.5405 0.5135 0.6665
vn -1.0000 0.0001 0.0007
vn 0.9974 0.0421 -0.0589
vn -0.2210 -0.9743 0.0438
vn -0.3428 -0.4972 -0.7971
vn -0.1195 -0.9699 -0.2119
vn -0.2323 0.0072 -0.9726
vn 0.3099 0.9481 0.0717
vn 0.3788 0.8642 0.3313
vn 0.2554 -0.9610 0.1061
vn 0.8002 0.0260 0.5992
vn 0.0008 0.8339 -0.5520
vn 0.4999 -0.6997 -0.5104
vn 0.4965 0.7471 0.4419
vn -0.4674 0.7577 0.4554
vn -0.4843 -0.7049 -0.5183
vn 0.9992 0.0246 -0.0311
vn 0.9872 -0.0396 -0.1546
vn -1.0000 0.0005 -0.0001
vn -0.2563 -0.4965 -0.8293
vn 0.4614 -0.6430 0.6112
vn -0.3170 0.0830 -0.9448
vn -0.4650 -0.6801 0.5668
vn 0.9781 0.0709 -0.1956
vn -1.0000 0.0005 0.0005
vn -0.2414 -0.1815 -0.9533
vn 0.4672 -0.7852 0.4065
vn -0.3135 0.8355 -0.4513
vn -0.3669 -0.7832 0.5020
vn 0.2797 0.9555 0.0938
vn 0.2579 -0.9620 -0.0898
vn 0.7569 0.1440 0.6374
vn 0.8931 0.4499 -0.0000
vn 0.8377 -0.5461 -0.0000
vn 0.5488 0.8323 0.0777
vn 0.5165 -0.8562 -0.0132
vn -0.2171 0.8930 -0.3943
vn -0.2332 0.9724 -0.0047
vn -0.2282 0.8287 0.5111
vn -0.5362 0.7239 0.4341
vn -0.6140 0.7893 -0.0094
vn -0.5575 0.7416 -0.3731
vn -0.4335 0.6757 -0.5962
vn -0.2244 0.7535 -0.6180
vn -0.9486 0.1818 -0.2589
vn -0.9832 0.1706 0.0645
vn -0.9679 -0.1309 -0.2144
vn -0.9842 -0.1492 0.0957
vn -0.7191 0.4598 -0.5211
vn -0.8258 0.4724 -0.3080
vn -0.8791 0.4760 0.0239
vn -0.8176 0.4547 0.3533
vn -0.8813 0.1551 0.4463
vn -0.8704 -0.1617 0.4650
vn -0.7756 -0.4470 0.4457
vn -0.8474 -0.5145 0.1312
vn -0.8444 -0.5089 -0.1672
vn -0.7852 -0.4383 -0.4373
vn -0.8583 -0.1214 -0.4987
vn -0.8209 0.2013 -0.5345
vn -0.1488 -0.9784 0.1435
vn -0.5095 -0.7887 -0.3441
vn -0.5440 -0.8308 -0.1171
vn -0.5063 -0.8464 0.1648
vn -0.4808 -0.7739 0.4123
vn -0.1500 -0.8611 0.4857
vn -0.1482 -0.9172 -0.3698
vn -0.3082 0.2745 -0.9109
vn -0.3445 -0.1614 -0.9248
vn -0.2408 0.5577 -0.7943
vn -0.4461 0.4620 -0.7665
vn -0.5707 0.2336 -0.7872
vn -0.6232 -0.1271 -0.7717
vn -0.5828 -0.4680 -0.6643
vn -0.3026 -0.6356 -0.7102
vn -0.1782 0.1347 0.9747
vn -0.1652 -0.1814 0.9694
vn -0.5146 0.4458 0.7324
vn -0.1947 0.4736 0.8589
vn -0.1601 -0.5446 0.8233
vn -0.5064 -0.4648 0.7263
vn -0.5466 -0.1746 0.8190
vn -0.5630 0.1438 0.8139
vn -0.6237 0.6944 0.3588
vn -0.7220 0.5506 -0.4190
vn -0.3616 0.0569 -0.9306
vn 0.6237 -0.6944 -0.3588
vn -0.6532 -0.7421 0.1505
vn 0.7220 -0.5506 0.4190
vn 0.3616 -0.0569 0.9306
vn 0.6532 0.7421 -0.1505
vn -0.3309 0.9232 0.1956
vn -0.3049 -0.9499 0.0682
vn -0.2086 -0.9629 -0.1710
vn -0.8609 -0.4578 -0.2219
vn -0.9493 0.3034 -0.0819
vn -0.2939 0.9529 -0.0748
vn -0.2447 -0.9641 -0.1031
vn -0.8839 -0.4651 0.0486
vn -0.8980 0.4380 -0.0408
vn -0.3526 0.9348 -0.0437
vn -0.4178 0.6086 0.6746
vn -0.3479 0.8927 0.2867
vn -0.5484 -0.1010 0.8301
vn -0.0612 -0.8385 0.5414
vn -0.7628 0.6458 0.0343
vn -0.9481 -0.2901 0.1302
vn -0.6229 0.7726 -0.1228
vn -0.6292 -0.7702 -0.1047
vn -0.9864 -0.1196 -0.1126
vn -0.9989 0.0447 -0.0127
vn -0.8729 -0.3269 0.3621
vn 0.8580 -0.3864 -0.3384
vn 0.0026 0.9911 -0.1332
vn -0.8313 0.5113 0.2178
vn 0.8474 0.3945 -0.3553
vn -0.0572 -0.9979 0.0316
vn -0.8459 0.5232 0.1035
vn 0.8054 0.3859 -0.4499
vn -0.0033 -0.9694 0.2453
vn -0.8919 -0.2882 0.3486
vn 0.8615 -0.4497 -0.2360
vn -0.0112 0.9561 -0.2927
vn -0.2388 0.2390 0.9412
vn 0.9586 -0.2086 0.1936
vn 0.0864 0.9963 -0.0024
vn -0.2103 0.3674 0.9060
vn 0.4541 0.1665 -0.8753
vn 0.1773 -0.6006 0.7796
vn -0.7719 0.5740 0.2733
vn 0.8232 -0.0105 -0.5677
vn -0.0926 -0.8969 0.4324
vn -0.8023 -0.1067 0.5873
vn 0.8289 -0.2482 -0.5012
vn 0.1300 0.9668 -0.2201
vn 0.9912 -0.1137 -0.0675
vn 0.3104 0.8684 -0.3867
vn -0.9742 0.1731 -0.1446
vn 0.9813 0.1191 -0.1513
vn -0.2010 -0.9723 0.1192
vn -0.9797 -0.1987 -0.0284
vn 0.9384 -0.3234 -0.1217
vn 0.1763 0.8554 -0.4870
vn -0.9919 0.0502 -0.1170
vn 0.5385 -0.7491 0.3857
vn 0.5878 -0.7990 0.1268
vn 0.5746 -0.7974 0.1845
vn -0.9911 0.1051 0.0821
vn 0.1077 0.8424 -0.5279
vn -0.0372 -0.6279 -0.7774
vn -0.9767 0.1353 0.1667
vn 0.1102 0.8353 -0.5386
vn 0.9218 -0.3514 -0.1640
vn -0.2233 -0.1221 0.9671
vn -0.2156 0.5203 0.8263
vn 0.0706 -0.6880 0.7223
vn -0.2250 0.1274 0.9660
vn 0.4944 -0.3850 -0.7793
vn 0.4590 0.0305 -0.8879
vn -0.0595 -0.9944 0.0878
vn 0.9467 0.0706 -0.3144
vn -0.6572 0.7413 0.1362
vn -0.3079 0.9514 -0.0105
vn 0.9501 -0.1088 -0.2922
vn -0.8859 -0.3111 0.3441
vn -0.0477 0.9547 -0.2937
vn 0.7948 -0.4559 -0.4007
vn -0.8654 -0.2920 0.4072
vn 0.0163 -0.9762 0.2161
vn 0.7873 0.4062 -0.4639
vn -0.8318 0.5247 0.1813
vn -0.5185 0.8513 0.0806
vn -0.9944 0.0446 -0.0959
vn -0.4484 -0.8435 -0.2958
vn 0.5192 -0.8125 -0.2649
vn 0.5546 -0.7552 -0.3495
vn 0.5032 0.8595 0.0898
vn -0.4007 0.4645 -0.7897
vn -0.9956 0.0303 -0.0883
vn 0.9799 -0.1748 -0.0957
vn -0.9992 -0.0137 0.0388
vn -0.4985 0.8644 0.0652
vn -0.4639 -0.7967 -0.3874
vn 0.4094 -0.1630 0.8977
vn -0.4463 -0.8664 -0.2240
vn -0.4857 0.7543 0.4417
vn 0.2688 0.9631 0.0168
vn 0.5296 -0.7705 -0.3548
vn -0.9577 -0.1084 0.2666
vn 0.9995 0.0112 -0.0280
vn 0.9996 0.0094 -0.0274
vn -0.5459 0.8055 0.2304
vn -0.5278 -0.7805 -0.3352
vn 0.6162 0.7465 0.2508
vn 0.4677 -0.8225 -0.3238
vn 0.4841 -0.8007 -0.3529
vn 0.4972 0.7655 0.4084
vn -0.4766 -0.7787 -0.4080
vn -0.4953 0.8106 0.3125
vn 1.0000 0.0001 0.0007
vn -0.9981 0.0168 -0.0596
vn -0.1303 -0.9905 0.0446
vn 0.2201 -0.5163 -0.8277
vn 0.0727 -0.9744 -0.2129
vn 0.5153 0.0063 -0.8570
vn -0.3320 0.7634 0.5540
vn -0.3581 0.8755 0.3245
vn -0.2375 -0.9707 -0.0360
vn -0.8955 -0.1222 0.4280
vn -0.0009 0.8166 -0.5772
vn -0.4996 -0.8182 -0.2845
vn -0.4966 0.8420 0.2107
vn 0.4966 0.8420 0.2107
vn 0.4996 -0.8180 -0.2849
vn -0.9995 0.0112 -0.0281
vn -0.9981 0.0142 -0.0604
vn 1.0000 0.0002 0.0007
vn -0.5265 0.8025 0.2807
vn -0.4867 -0.7801 -0.3932
vn 0.4908 0.8372 0.2412
vn 0.5170 -0.7899 -0.3298
vn -0.9981 0.0153 -0.0599
vn -0.5428 0.7881 0.2902
vn -0.4838 -0.7805 -0.3959
vn 0.5259 0.8351 0.1613
vn 0.5029 -0.7962 -0.3364
vn -0.2707 0.9601 0.0708
vn -0.1722 -0.9850 0.0091
vn -0.7554 0.1433 0.6394
vn -0.8931 0.4499 -0.0000
vn -0.8377 -0.5461 -0.0000
vn -0.5999 0.7948 0.0921
vn -0.5165 -0.8562 -0.0132
vn -0.7903 -0.1268 -0.5995
vn 0.9947 0.1020 -0.0160
vn -0.1640 0.4812 -0.8611
vn 0.1119 0.8956 -0.4306
vn 0.2158 0.8929 -0.3952
vn 0.2332 0.9724 -0.0047
vn 0.2114 0.8407 0.4986
vn 0.5362 0.7239 0.4341
vn 0.6140 0.7893 -0.0094
vn 0.5575 0.7416 -0.3731
vn 0.4895 0.6746 -0.5525
vn 0.2088 0.7506 -0.6269
vn 0.9486 0.1818 -0.2589
vn 0.9832 0.1706 0.0645
vn 0.9679 -0.1309 -0.2144
vn 0.9842 -0.1492 0.0957
vn 0.7191 0.4598 -0.5211
vn 0.8258 0.4724 -0.3080
vn 0.8791 0.4760 0.0239
vn 0.8171 0.4050 0.4103
vn 0.8813 0.1551 0.4463
vn 0.8704 -0.1617 0.4650
vn 0.7756 -0.4470 0.4457
vn 0.8474 -0.5145 0.1312
vn 0.8444 -0.5089 -0.1672
vn 0.7820 -0.4824 -0.3947
vn 0.8583 -0.1214 -0.4987
vn 0.8209 0.2013 -0.5345
vn 0.1806 -0.9804 -0.0786
vn 0.1607 -0.9818 -0.1015
vn 0.1488 -0.9784 0.1435
vn 0.5095 -0.7887 -0.3441
vn 0.5440 -0.8308 -0.1171
vn 0.5063 -0.8464 0.1648
vn 0.4448 -0.7758 0.4475
vn 0.1542 -0.8626 0.4818
vn 0.1482 -0.9172 -0.3698
vn 0.3082 0.2745 -0.9109
vn 0.3445 -0.1614 -0.9248
vn 0.2408 0.5577 -0.7943
vn 0.4461 0.4620 -0.7665
vn 0.5707 0.2336 -0.7872
vn 0.6232 -0.1271 -0.7717
vn 0.5828 -0.4680 -0.6643
vn 0.2684 -0.6184 -0.7387
vn 0.1782 0.1347 0.9747
vn 0.1652 -0.1814 0.9694
vn 0.5146 0.4458 0.7324
vn 0.1947 0.4736 0.8589
vn 0.1626 -0.5423 0.8243
vn 0.4611 -0.5075 0.7279
vn 0.5466 -0.1746 0.8190
vn 0.5630 0.1438 0.8139
vn -0.6237 -0.6944 -0.3588
vn 0.2912 0.9358 0.1986
vn 0.3443 -0.9379 -0.0427
vn 0.3036 -0.9331 -0.1928
vn 0.8901 -0.4223 -0.1716
vn 0.8599 0.4822 -0.1676
vn 0.2269 0.9709 -0.0762
vn 0.3259 -0.9418 -0.0825
vn 0.9773 -0.1982 -0.0748
vn 0.9484 0.3154 0.0324
vn 0.1901 0.9807 -0.0459
vn 0.6511 0.3843 0.6545
vn 0.2685 0.8289 0.4908
vn 0.5523 -0.1820 0.8135
vn 0.1070 -0.8551 0.5073
vn 0.7084 0.6355 0.3070
vn 0.9488 -0.3122 0.0472
vn 0.0419 0.9826 0.1811
vn 0.4895 -0.8694 -0.0668
vn -0.5379 -0.1957 -0.8199
vn 0.2859 0.5691 -0.7710
vn 0.8643 -0.4280 0.2641
vn -0.8995 -0.3073 -0.3106
vn -0.0082 0.9796 0.2006
vn 0.8047 0.4267 0.4127
vn -0.8430 0.4886 -0.2250
vn 0.0690 -0.9518 -0.2987
vn 0.8917 0.4088 0.1946
vn -0.8174 0.4880 -0.3061
vn -0.0045 -1.0000 -0.0010
vn 0.9003 -0.3702 0.2288
vn -0.8740 -0.3830 -0.2991
vn -0.0005 0.9988 -0.0486
vn 0.5218 -0.1925 0.8311
vn -0.9782 -0.1850 0.0939
vn -0.4986 0.7521 0.4309
vn 0.2519 0.1335 0.9585
vn -0.6764 0.1030 -0.7293
vn -0.1524 -0.7732 0.6156
vn 0.7895 0.4880 0.3722
vn 0.0040 -0.9991 0.0429
vn 0.8245 -0.2489 0.5082
vn -0.1271 0.9915 0.0293
vn -0.9926 -0.1170 -0.0316
vn -0.3154 0.9373 -0.1485
vn 0.9812 0.0878 -0.1719
vn -0.9852 0.1543 -0.0752
vn -0.1566 -0.9635 -0.2169
vn 0.9751 -0.1874 -0.1183
vn -0.1337 0.9239 -0.3585
vn 0.9829 0.0544 -0.1760
vn -0.5313 -0.8199 0.2131
vn -0.5918 -0.8047 -0.0477
vn -0.0026 -0.4180 -0.9084
vn 0.9873 0.0732 0.1409
vn -0.0546 0.9380 -0.3423
vn -0.9370 -0.2423 -0.2517
vn 0.2242 -0.1472 0.9634
vn 0.5591 0.6305 0.5384
vn 0.0296 -0.3722 0.9277
vn 0.4591 -0.0704 0.8856
vn -0.5307 -0.1812 -0.8279
vn -0.4948 0.2482 -0.8328
vn 0.0501 -0.9602 -0.2748
vn -0.9428 0.1560 -0.2944
vn 0.6421 0.6670 0.3779
vn 0.2300 0.9333 0.2758
vn -0.9116 -0.2507 -0.3258
vn 0.8756 -0.4254 0.2286
vn -0.0281 0.9940 0.1053
vn -0.8752 -0.3744 -0.3063
vn 0.8625 -0.3981 0.3123
vn -0.0373 -0.9984 -0.0425
vn -0.7921 0.5212 -0.3177
vn 0.8234 0.4601 0.3323
vn 0.6047 0.4509 -0.6565
vn 0.9944 -0.0566 -0.0888
vn 0.4159 -0.7040 0.5757
vn -0.7100 -0.4710 0.5235
vn -0.7018 -0.4351 0.5641
vn 1.0000 0.0018 -0.0052
vn -0.9948 0.0758 -0.0683
vn 0.9973 0.0459 -0.0580
vn -0.9700 -0.1357 0.2018
vn 0.9993 0.0222 0.0317
vn 0.6030 0.5659 -0.5622
vn 0.3783 -0.6323 0.6761
vn -0.5436 0.0470 0.8380
vn -0.6466 0.2914 0.7050
vn 0.2523 -0.0040 0.9676
vn 0.3098 -0.7005 0.6429
vn 0.5946 0.7658 -0.2450
vn 0.1144 0.9119 -0.3943
vn -0.7669 -0.5438 0.3409
vn 0.9650 0.0074 0.2622
vn -0.9992 0.0246 -0.0311
vn -0.9999 0.0063 -0.0079
vn 0.4993 0.7114 0.4946
vn 0.4889 -0.6895 -0.5343
vn -0.6109 0.6361 0.4714
vn -0.4991 -0.6895 -0.5249
vn -0.5030 -0.7505 -0.4286
vn -0.3769 0.5299 0.7597
vn 0.3676 -0.9272 0.0715
vn 0.4195 0.7003 0.5776
vn -1.0000 -0.0005 0.0008
vn 0.9980 0.0218 -0.0601
vn 0.1022 -0.7606 -0.6412
vn 0.0660 -0.4819 0.8737
vn 0.3644 0.9249 0.1088
vn 0.3330 0.8304 0.4468
vn 0.3054 -0.9521 -0.0133
vn 0.8887 -0.0711 0.4530
vn 0.0008 0.8259 -0.5637
vn -0.0073 0.8363 -0.5482
vn -0.0638 0.8119 -0.5803
vn 0.4775 -0.7079 -0.5205
vn 0.4654 0.7584 0.4563
vn -0.4965 0.7471 0.4419
vn -0.4989 -0.6995 -0.5116
vn 0.9992 0.0341 -0.0224
vn 0.9991 -0.0270 -0.0315
vn -1.0000 0.0005 0.0009
vn 0.2408 0.0081 -0.9705
vn 0.4917 -0.6856 0.5368
vn 0.2249 -0.5104 -0.8300
vn -0.4047 -0.5849 0.7030
vn 0.9988 -0.0122 -0.0477
vn -1.0000 -0.0003 0.0020
vn 0.4382 0.8153 -0.3785
vn 0.4529 -0.7629 0.4614
vn 0.0742 -0.2167 -0.9734
vn -0.4052 -0.8822 0.2399
vn 0.2821 0.9563 0.0765
vn 0.2508 -0.9655 -0.0707
vn 0.7366 -0.3394 0.5850
vn 0.8987 -0.0683 0.4331
vn 0.8391 0.5429 0.0335
vn 0.5999 0.7948 0.0921
vn 0.5513 -0.8343 -0.0000
vn -0.2158 0.8929 -0.3952
vn -0.2309 0.9730 -0.0026
vn -0.2114 0.8407 0.4986
vn -0.5934 0.7171 0.3657
vn -0.6038 0.7971 0.0039
vn -0.5368 0.7678 -0.3497
vn -0.4895 0.6746 -0.5525
vn -0.2088 0.7506 -0.6269
vn -0.9488 0.1900 -0.2522
vn -0.9829 0.1719 0.0657
vn -0.9669 -0.1341 -0.2169
vn -0.9843 -0.1466 0.0981
vn -0.7198 0.4412 -0.5359
vn -0.8218 0.4872 -0.2955
vn -0.8739 0.4848 0.0339
vn -0.8171 0.4050 0.4103
vn -0.8793 0.1584 0.4492
vn -0.8717 -0.1659 0.4611
vn -0.7717 -0.4987 0.3948
vn -0.8452 -0.5193 0.1267
vn -0.8441 -0.5094 -0.1677
vn -0.7820 -0.4824 -0.3947
vn -0.8572 -0.1236 -0.4999
vn -0.8229 0.2097 -0.5281
vn -0.1607 -0.9818 -0.1015
vn -0.1806 -0.9804 -0.0786
vn -0.1564 -0.9765 0.1485
vn -0.4800 -0.7943 -0.3725
vn -0.5169 -0.8425 -0.1518
vn -0.4664 -0.8756 0.1262
vn -0.4448 -0.7758 0.4475
vn -0.1542 -0.8626 0.4818
vn -0.2261 -0.9220 -0.3144
vn -0.3148 0.2794 -0.9071
vn -0.3250 -0.1799 -0.9284
vn -0.2669 0.5681 -0.7785
vn -0.4934 0.5045 -0.7086
vn -0.5804 0.2495 -0.7751
vn -0.6137 -0.1420 -0.7766
vn -0.5175 -0.5489 -0.6564
vn -0.2683 -0.6184 -0.7387
vn -0.1733 0.1395 0.9749
vn -0.1703 -0.1865 0.9676
vn -0.5492 0.4099 0.7283
vn -0.1876 0.4801 0.8569
vn -0.1626 -0.5423 0.8243
vn -0.4611 -0.5075 0.7279
vn -0.5518 -0.1809 0.8141
vn -0.5611 0.1458 0.8148
vn -0.3902 0.9207 0.0084
vn -0.2233 -0.9723 -0.0693
vn -0.2439 -0.9498 -0.1962
vn -0.9472 -0.2938 -0.1283
vn -0.8907 0.4340 -0.1350
vn -0.2462 0.9688 -0.0295
vn -0.2215 -0.9715 -0.0848
vn -0.9603 -0.2667 -0.0815
vn -0.9693 0.2106 0.1272
vn -0.2933 0.9557 0.0261
vn -0.6977 0.4320 0.5714
vn -0.2595 0.8309 0.4921
vn -0.3308 -0.1933 0.9237
vn -0.0310 -0.8262 0.5625
vn -0.7857 0.5868 -0.1955
vn -0.7928 -0.3277 0.5139
vn -0.8781 0.4701 -0.0895
vn -0.3562 -0.9327 0.0573
vn 0.3139 -0.4663 -0.8271
vn -0.8759 0.2075 -0.4356
vn -0.8878 -0.3189 0.3318
vn 0.9091 -0.3748 -0.1817
vn -0.0091 0.9798 -0.1997
vn -0.8158 0.5279 0.2363
vn 0.8550 0.4061 -0.3226
vn -0.0529 -0.9973 0.0506
vn -0.8819 0.4548 0.1242
vn 0.8410 0.2987 -0.4512
vn -0.0150 -0.9691 0.2460
vn -0.8964 -0.2780 0.3453
vn 0.8594 -0.4556 -0.2322
vn -0.0002 0.9560 -0.2934
vn -0.4859 0.0235 0.8737
vn 0.9810 -0.1683 0.0960
vn 0.5180 0.8286 0.2123
vn -0.6105 0.6345 0.4739
vn 0.6447 -0.0871 -0.7595
vn 0.5360 -0.3801 0.7538
vn -0.7897 0.3301 0.5171
vn -0.0039 -0.9580 0.2868
vn -0.8664 -0.0052 0.4993
vn 0.2583 0.8626 -0.4349
vn 0.9901 -0.1334 -0.0428
vn 0.6859 0.5994 -0.4126
vn -0.9875 0.0550 -0.1476
vn 0.9655 0.2141 -0.1484
vn 0.1455 -0.9892 0.0199
vn -0.9888 -0.1135 -0.0969
vn 0.1198 0.8062 -0.5794
vn -0.9894 0.0217 -0.1434
vn 0.5297 -0.7793 0.3349
vn 0.5459 -0.8316 0.1021
vn 0.2119 -0.3626 -0.9075
vn -0.9802 0.1176 0.1591
vn 0.0415 0.8248 -0.5639
vn 0.9249 -0.3080 -0.2229
vn -0.2050 -0.1337 0.9696
vn -0.5591 0.6305 0.5384
vn -0.0187 -0.3563 0.9342
vn -0.4808 -0.0559 0.8751
vn 0.4781 -0.3786 -0.7925
vn 0.5884 -0.1145 -0.8004
vn -0.0359 -0.9968 0.0708
vn 0.8758 0.3853 -0.2906
vn -0.8123 0.5146 0.2747
vn -0.0397 0.9765 -0.2117
vn 0.9202 -0.3336 -0.2048
vn -0.8797 -0.3324 0.3402
vn 0.0206 0.9799 -0.1987
vn 0.8608 -0.4503 -0.2373
vn -0.8911 -0.2869 0.3516
vn -0.0464 -0.9919 0.1180
vn 0.7744 0.3781 -0.5072
vn -0.8231 0.5344 0.1924
vn -0.4963 0.8649 0.0747
vn -0.9941 0.0249 -0.1057
vn -0.4961 -0.8242 -0.2730
vn 0.5415 -0.8018 -0.2530
vn 0.5343 -0.7159 -0.4494
vn 0.4900 0.8666 0.0943
vn -0.4252 0.4645 -0.7768
vn -0.9957 0.0344 -0.0861
vn 0.9828 -0.1697 0.0734
vn -0.9990 -0.0138 0.0426
vn -0.5258 0.7962 0.2994
vn -0.4694 -0.8321 -0.2954
vn 0.5799 -0.0768 0.8110
vn 0.5087 -0.2244 0.8312
vn 0.4639 -0.5618 0.6850
vn -0.4579 -0.8776 -0.1422
vn -0.4917 0.7976 0.3493
vn -0.0512 0.9167 -0.3963
vn 0.5496 -0.7338 -0.3994
vn -0.9476 -0.0893 0.3066
vn 0.9994 0.0267 -0.0209
vn 0.9996 0.0108 -0.0271
vn -0.4986 0.8292 0.2526
vn -0.5000 -0.7991 -0.3339
vn 0.4999 0.8116 0.3023
vn 0.5000 -0.8034 -0.3233
vn 0.4793 -0.8217 -0.3083
vn 0.6153 0.7518 0.2371
vn -0.4764 -0.7811 -0.4036
vn -0.5530 0.7509 0.3610
vn 1.0000 -0.0003 0.0007
vn -0.9980 0.0208 -0.0604
vn 0.3214 -0.4625 -0.8263
vn -0.2359 -0.9646 0.1178
vn 0.1201 0.9899 0.0748
vn -0.2972 0.8408 0.4524
vn -0.1711 -0.9793 0.1081
vn -0.8755 -0.1018 0.4723
vn -0.0014 0.7339 -0.6793
vn 0.0924 0.7834 -0.6145
vn -0.0006 0.8167 -0.5770
vn -0.4293 -0.8501 -0.3051
vn -0.4296 0.8730 0.2310
vn 0.4324 0.8718 0.2302
vn 0.4343 -0.8478 -0.3043
vn -0.9994 0.0285 -0.0201
vn -0.9979 0.0161 -0.0627
vn 1.0000 0.0001 0.0008
vn -0.5413 0.7661 0.3466
vn -0.4865 -0.7844 -0.3848
vn 0.5189 0.7629 0.3857
vn 0.5124 -0.8113 -0.2816
vn -0.9979 0.0174 -0.0620
vn 1.0000 -0.0000 0.0008
vn -0.4852 0.8646 0.1309
vn -0.4843 -0.7837 -0.3889
vn 0.5023 0.8273 0.2515
vn 0.5037 -0.8120 -0.2950
vn -0.2691 0.9600 0.0768
vn -0.2220 -0.9708 -0.0907
vn -0.9059 -0.0901 0.4138
vn -0.7465 -0.3342 0.5754
vn -0.8391 0.5429 0.0335
vn -0.5488 0.8323 0.0777
vn -0.5513 -0.8343 -0.0000
vn -0.9667 0.0219 -0.2548
vn 0.4945 0.0614 -0.8670
vn -0.2484 0.6722 -0.6974
vn 0.5057 0.8618 0.0387
vt 0.500000 0.375000
vt 0.437500 0.437500
vt 0.437500 0.375000
vt 0.562500 0.437500
vt 0.500000 0.437500
vt 0.625000 0.375000
vt 0.562500 0.375000
vt 0.625000 0.500000
vt 0.562500 0.500000
vt 0.500000 0.500000
vt 0.437500 0.500000
vt 0.375000 0.500000
vt 0.375000 0.437500
vt 0.375000 0.375000
vt 0.437500 0.562500
vt 0.500000 0.625000
vt 0.437500 0.625000
vt 0.500000 0.562500
vt 0.562500 0.625000
vt 0.500000 0.687500
vt 0.437500 0.687500
vt 0.562500 0.687500
vt 0.375000 0.562500
vt 0.562500 0.562500
vt 0.625000 0.625000
vt 0.625000 0.687500
vt 0.625000 0.750000
vt 0.562500 0.750000
vt 0.500000 0.750000
vt 0.437500 0.750000
vt 0.375000 0.750000
vt 0.375000 0.687500
vt 0.375000 0.625000
vt 0.500000 0.875000
vt 0.468750 0.875000
vt 0.437500 0.875000
vt 0.500000 0.812500
vt 0.562500 0.875000
vt 0.437500 0.812500
vt 0.375000 0.812500
vt 0.562500 0.812500
vt 0.625000 0.812500
vt 0.375000 0.875000
vt 0.250000 0.562500
vt 0.312500 0.625000
vt 0.250000 0.625000
vt 0.312500 0.687500
vt 0.250000 0.687500
vt 0.250000 0.500000
vt 0.312500 0.562500
vt 0.312500 0.500000
vt 0.312500 0.750000
vt 0.250000 0.750000
vt 0.687500 0.562500
vt 0.750000 0.625000
vt 0.687500 0.625000
vt 0.750000 0.687500
vt 0.687500 0.687500
vt 0.625000 0.562500
vt 0.687500 0.500000
vt 0.750000 0.562500
vt 0.687500 0.750000
vt 1.000000 0.500000
vt 0.833333 1.000000
vt 0.833333 0.500000
vt 0.666667 1.000000
vt 0.666667 0.500000
vt 0.500000 1.000000
vt 0.500000 0.500000
vt 0.333333 0.500000
vt 0.042154 0.130000
vt 0.250000 0.010000
vt 0.457846 0.130000
vt 0.333333 1.000000
vt 0.166667 0.500000
vt 0.166667 1.000000
vt -0.000000 0.500000
vt 0.542154 0.130000
vt 0.542154 0.370000
vt 0.957846 0.370000
vt 1.000000 0.828637
vt 0.875000 1.000000
vt 0.875000 0.828637
vt 0.625000 0.828637
vt 0.500000 1.000000
vt 0.500000 0.828637
vt 0.625000 0.645722
vt 0.500000 0.500000
vt 0.750000 0.500000
vt 0.875000 0.645722
vt 0.875000 0.500000
vt 0.500000 0.645722
vt 0.750000 0.828637
vt 0.750000 0.645722
vt 1.000000 0.645722
vt 0.750000 1.000000
vt 1.000000 1.000000
vt 0.625000 1.000000
vt 0.749520 0.964446
vt 0.653402 0.965669
vt 0.844587 0.863513
vt 0.844268 0.965118
vt 0.647775 0.863148
vt 0.750840 0.864057
vt 0.749520 0.964446
vt 0.750840 0.864057
vt 0.647775 0.863149
vt 0.844587 0.863513
vt 0.844267 0.965117
vt 0.653402 0.965669
vt 0.749520 0.964446
vt 0.844268 0.965117
vt 0.750840 0.864057
vt 0.653402 0.965669
vt 0.844587 0.863513
vt 0.000000 0.000000
vt 0.833333 0.500000
vt -0.000000 1.000000
vt 0.500000 0.500000
vt 0.500000 0.500000
vt 0.166667 0.500000
vt -0.000000 0.500000
vt 0.833333 0.500000
vt 0.042154 0.370000
vt 0.457846 0.370000
vt 0.750000 0.010000
vt 0.333333 0.500000
vt 0.457846 0.250000
vt 0.625000 0.437500
vt 0.750000 0.500000
vt 0.957846 0.130000
vt 0.250000 0.490000
vt 0.625000 0.875000
vt 0.750000 0.750000
vt 0.250000 0.490000
vt 0.750000 0.490000
vt 0.750000 0.490000
s 0
f 26/1/1 28/2/1 25/3/1
f 26/1/2 30/4/2 29/5/2
f 7/6/3 30/4/3 27/7/3
f 30/4/4 4/8/4 9/9/4
f 29/5/5 9/9/5 10/10/5
f 28/2/6 10/10/6 11/11/6
f 28/2/7 3/12/7 5/13/7
f 25/3/8 5/13/8 6/14/8
f 31/15/9 35/16/9 34/17/9
f 32/18/10 36/19/10 35/16/10
f 34/17/11 38/20/11 37/21/11
f 35/16/12 39/22/12 38/20/12
f 3/12/13 31/15/13 14/23/13
f 11/11/14 32/18/14 31/15/14
f 10/10/15 33/24/15 32/18/15
f 4/8/16 33/24/16 9/9/16
f 33/24/17 16/25/17 36/19/17
f 36/19/18 17/26/18 39/22/18
f 39/22/19 2/27/19 18/28/19
f 38/20/20 18/28/20 19/29/20
f 37/21/21 19/29/21 20/30/21
f 37/21/22 1/31/22 12/32/22
f 13/33/23 37/21/23 12/32/23
f 14/23/24 34/17/24 13/33/24
f 44/34/25 58/35/25 43/36/25
f 41/37/26 45/38/26 44/34/26
f 1/31/27 40/39/27 22/40/27
f 20/30/28 41/37/28 40/39/28
f 19/29/29 42/41/29 41/37/29
f 2/27/30 42/41/30 18/28/30
f 23/42/31 45/38/31 42/41/31
f 22/40/32 43/36/32 21/43/32
f 46/44/33 49/45/33 48/46/33
f 48/46/34 51/47/34 50/48/34
f 6/49/35 47/50/35 46/44/35
f 5/51/36 14/23/36 47/50/36
f 47/50/37 13/33/37 49/45/37
f 49/45/38 12/32/38 51/47/38
f 51/47/39 1/31/39 22/52/39
f 51/47/40 21/53/40 50/48/40
f 52/54/41 55/55/41 54/56/41
f 54/56/42 57/57/42 56/58/42
f 4/8/43 52/54/43 15/59/43
f 8/60/44 53/61/44 52/54/44
f 57/57/45 23/62/45 56/58/45
f 56/58/46 2/27/46 17/26/46
f 16/25/47 56/58/47 17/26/47
f 15/59/48 54/56/48 16/25/48
f 59/63/49 62/64/49 61/65/49
f 61/65/50 64/66/50 63/67/50
f 63/67/51 66/68/51 65/69/51
f 66/68/52 67/70/52 65/69/52
f 68/71/53 66/72/53 64/73/53
f 68/74/54 69/75/54 67/70/54
f 70/76/55 59/77/55 69/75/55
f 67/78/56 69/79/56 61/80/56
f 86/81/57 97/82/57 99/83/57
f 100/84/58 80/85/58 90/86/58
f 84/87/59 79/88/59 77/8/59
f 75/89/60 84/87/60 77/8/60
f 82/90/61 75/89/61 73/91/61
f 71/63/62 82/90/62 73/91/62
f 100/84/63 85/92/63 84/87/63
f 101/93/64 84/87/64 83/94/64
f 99/83/65 83/94/65 82/90/65
f 81/95/66 99/83/66 82/90/66
f 97/82/67 93/96/67 96/96/67
f 72/97/68 92/82/68 97/82/68
f 98/98/69 93/96/69 94/98/69
f 80/85/70 94/98/70 95/85/70
f 76/99/71 97/82/71 96/96/71
f 78/100/72 96/96/72 98/98/72
f 87/101/73 97/82/73 74/102/73
f 78/100/74 100/84/74 89/103/74
f 89/103/75 101/93/75 88/104/75
f 87/101/76 101/93/76 99/83/76
f 150/105/77 104/100/77 103/99/77
f 151/106/78 107/103/78 152/107/78
f 154/108/79 102/102/79 105/101/79
f 150/105/80 102/102/80 153/109/80
f 151/106/81 105/101/81 106/104/81
f 152/107/82 104/100/82 149/110/82
f 155/111/83 108/102/83 156/112/83
f 158/113/84 111/101/84 112/104/84
f 160/114/85 113/103/85 110/100/85
f 155/111/86 110/100/86 109/99/86
f 158/113/87 113/103/87 159/107/87
f 156/112/88 111/101/88 157/115/88
f 110/100/89 115/99/89 109/99/89
f 112/104/90 133/103/90 113/103/90
f 108/102/91 117/101/91 111/101/91
f 108/102/92 115/99/92 114/102/92
f 111/101/93 118/104/93 112/104/93
f 110/100/94 119/103/94 116/100/94
f 114/102/95 121/99/95 120/102/95
f 117/101/96 124/104/96 118/104/96
f 119/103/97 122/100/97 116/100/97
f 115/99/98 122/100/98 121/99/98
f 119/103/99 124/104/99 125/103/99
f 117/101/100 120/102/100 123/101/100
f 124/104/101 131/103/101 125/103/101
f 123/101/102 126/102/102 129/101/102
f 121/99/103 126/102/103 120/102/103
f 124/104/104 129/101/104 130/104/104
f 125/103/105 128/100/105 122/100/105
f 121/99/106 128/100/106 127/99/106
f 132/104/107 137/103/107 133/103/107
f 118/104/108 132/104/108 112/104/108
f 119/103/109 134/104/109 118/104/109
f 119/103/110 133/103/110 135/103/110
f 139/103/111 141/103/111 143/103/111
f 135/103/112 137/103/112 139/103/112
f 135/103/113 138/104/113 134/104/113
f 134/104/114 136/104/114 132/104/114
f 141/103/115 142/104/115 143/103/115
f 139/103/116 142/104/116 138/104/116
f 138/104/117 140/104/117 136/104/117
f 136/104/118 141/103/118 137/103/118
f 94/98/119 146/96/119 147/98/119
f 91/97/120 145/82/120 92/82/120
f 94/98/121 148/85/121 95/85/121
f 92/82/122 146/96/122 93/96/122
f 128/100/123 130/104/123 127/99/123
f 127/99/124 129/101/124 126/102/124
f 89/103/125 149/110/125 78/100/125
f 88/104/126 154/108/126 151/106/126
f 74/102/127 150/105/127 153/109/127
f 87/101/128 153/109/128 154/108/128
f 88/104/129 152/107/129 89/103/129
f 78/100/130 150/105/130 76/99/130
f 102/102/131 157/115/131 105/101/131
f 106/104/132 159/107/132 107/103/132
f 103/99/133 160/114/133 155/111/133
f 104/100/134 159/107/134 160/114/134
f 106/104/135 157/115/135 158/113/135
f 103/99/136 156/112/136 102/102/136
f 162/97/137 163/65/137 161/63/137
f 163/65/138 166/66/138 165/67/138
f 165/67/139 168/68/139 167/69/139
f 168/68/140 169/70/140 167/69/140
f 170/74/141 175/68/141 176/74/141
f 368/74/142 369/75/142 416/116/142
f 170/74/143 171/75/143 169/70/143
f 190/67/144 185/65/144 191/117/144
f 177/76/145 182/74/145 183/76/145
f 164/64/146 174/66/146 166/66/146
f 164/64/147 172/97/147 173/64/147
f 166/66/148 175/68/148 168/68/148
f 182/71/149 181/72/149 180/73/149
f 174/66/150 181/68/150 175/68/150
f 173/64/151 178/97/151 179/64/151
f 177/76/152 178/118/152 172/118/152
f 175/68/153 182/74/153 176/74/153
f 173/64/154 180/66/154 174/66/154
f 188/70/155 210/75/155 209/70/155
f 192/75/156 188/70/156 193/70/156
f 191/117/157 184/63/157 194/63/157
f 190/67/158 187/69/158 186/67/158
f 192/75/159 184/77/159 189/75/159
f 193/70/160 187/69/160 195/119/160
f 221/70/161 195/119/161 219/120/161
f 218/121/162 194/122/162 192/75/162
f 217/67/163 195/119/163 190/67/163
f 222/63/164 191/117/164 194/63/164
f 218/121/165 193/70/165 221/70/165
f 220/123/166 190/67/166 191/117/166
f 183/76/167 178/118/167 200/116/167
f 182/116/168 197/116/168 196/116/168
f 181/116/169 198/116/169 197/116/169
f 196/116/170 183/124/170 182/71/170
f 199/116/171 178/116/171 200/116/171
f 199/116/172 201/116/172 179/116/172
f 198/116/173 202/116/173 203/116/173
f 179/125/174 202/73/174 180/73/174
f 206/80/175 208/126/175 210/79/175
f 187/69/176 207/67/176 186/67/176
f 185/65/177 205/63/177 184/63/177
f 189/75/178 205/77/178 210/75/178
f 187/69/179 209/70/179 208/69/179
f 186/67/180 206/65/180 185/65/180
f 163/65/181 214/67/181 211/123/181
f 171/75/182 212/127/182 169/70/182
f 161/63/183 211/123/183 213/63/183
f 165/67/184 216/69/184 214/67/184
f 161/77/185 215/121/185 171/75/185
f 169/70/186 216/69/186 167/69/186
f 211/123/187 217/67/187 220/123/187
f 215/121/188 221/70/188 212/127/188
f 213/63/189 220/123/189 222/63/189
f 214/67/190 219/120/190 217/67/190
f 215/121/191 222/77/191 218/121/191
f 212/127/192 219/120/192 216/69/192
f 204/116/193 73/116/193 201/116/193
f 203/116/194 77/116/194 79/116/194
f 201/125/195 73/125/195 75/128/195
f 145/82/196 225/96/196 146/96/196
f 146/96/197 226/98/197 147/98/197
f 145/82/198 223/97/198 224/82/198
f 147/98/199 227/85/199 148/85/199
f 248/2/200 26/1/200 25/3/200
f 26/1/201 250/4/201 27/7/201
f 250/4/202 7/6/202 27/7/202
f 250/4/203 231/8/203 233/129/203
f 249/5/204 234/9/204 250/4/204
f 248/2/205 235/10/205 249/5/205
f 230/12/206 248/2/206 232/13/206
f 232/13/207 25/3/207 6/14/207
f 251/15/208 255/16/208 252/18/208
f 252/18/209 256/19/209 253/24/209
f 254/17/210 258/20/210 255/16/210
f 255/16/211 259/22/211 256/19/211
f 230/12/212 251/15/212 236/11/212
f 236/11/213 252/18/213 235/10/213
f 235/10/214 253/24/214 234/9/214
f 253/24/215 231/8/215 234/9/215
f 253/24/216 241/25/216 240/59/216
f 256/19/217 242/26/217 241/25/217
f 259/22/218 229/27/218 242/26/218
f 258/20/219 243/28/219 259/22/219
f 257/21/220 244/29/220 258/20/220
f 228/31/221 257/21/221 237/32/221
f 238/33/222 257/21/222 254/17/222
f 239/23/223 254/17/223 251/15/223
f 261/37/224 45/38/224 262/41/224
f 228/31/225 260/39/225 245/30/225
f 245/30/226 261/37/226 244/29/226
f 244/29/227 262/41/227 243/28/227
f 262/41/228 229/27/228 243/28/228
f 45/38/229 247/42/229 262/41/229
f 246/40/230 43/36/230 260/39/230
f 46/44/231 264/45/231 263/50/231
f 48/46/232 265/47/232 264/45/232
f 6/49/233 263/50/233 232/51/233
f 232/51/234 239/23/234 230/12/234
f 263/50/235 238/33/235 239/23/235
f 264/45/236 237/32/236 238/33/236
f 265/47/237 228/31/237 237/32/237
f 21/53/238 265/47/238 50/48/238
f 266/54/239 55/55/239 53/61/239
f 267/56/240 57/57/240 55/55/240
f 231/8/241 266/54/241 233/60/241
f 233/60/242 53/61/242 7/130/242
f 247/62/243 57/57/243 268/58/243
f 229/27/244 268/58/244 242/26/244
f 241/25/245 268/58/245 267/56/245
f 240/59/246 267/56/246 266/54/246
f 269/63/247 272/64/247 270/97/247
f 271/65/248 274/66/248 272/64/248
f 273/67/249 276/68/249 274/66/249
f 277/70/250 276/68/250 275/69/250
f 278/71/251 280/124/251 274/73/251
f 279/75/252 278/74/252 277/70/252
f 269/77/253 280/76/253 279/75/253
f 271/80/254 277/78/254 273/131/254
f 86/81/255 297/82/255 72/97/255
f 300/84/256 80/85/256 298/98/256
f 79/88/257 289/87/257 285/8/257
f 283/89/258 289/87/258 288/94/258
f 283/89/259 287/90/259 281/91/259
f 71/63/260 287/90/260 81/95/260
f 85/92/261 300/84/261 289/87/261
f 289/87/262 301/93/262 288/94/262
f 288/94/263 299/83/263 287/90/263
f 81/95/264 299/83/264 86/81/264
f 294/96/265 297/82/265 296/96/265
f 293/82/266 72/97/266 297/82/266
f 298/98/267 294/96/267 296/96/267
f 80/85/268 295/98/268 298/98/268
f 284/99/269 297/82/269 282/102/269
f 286/100/270 296/96/270 284/99/270
f 297/82/271 290/101/271 282/102/271
f 300/84/272 286/100/272 292/103/272
f 301/93/273 292/103/273 291/104/273
f 290/101/274 301/93/274 291/104/274
f 348/105/275 304/100/275 347/110/275
f 307/103/276 349/106/276 350/107/276
f 352/108/277 302/102/277 351/109/277
f 302/102/278 348/105/278 351/109/278
f 349/106/279 305/101/279 352/108/279
f 304/100/280 350/107/280 347/110/280
f 308/102/281 353/111/281 354/112/281
f 356/113/282 311/101/282 355/115/282
f 358/114/283 313/103/283 357/107/283
f 353/111/284 310/100/284 358/114/284
f 313/103/285 356/113/285 357/107/285
f 311/101/286 354/112/286 355/115/286
f 315/99/287 310/100/287 309/99/287
f 333/103/288 312/104/288 313/103/288
f 317/101/289 308/102/289 311/101/289
f 308/102/290 315/99/290 309/99/290
f 318/104/291 311/101/291 312/104/291
f 310/100/292 319/103/292 313/103/292
f 314/102/293 321/99/293 315/99/293
f 324/104/294 317/101/294 318/104/294
f 322/100/295 319/103/295 316/100/295
f 315/99/296 322/100/296 316/100/296
f 319/103/297 324/104/297 318/104/297
f 317/101/298 320/102/298 314/102/298
f 331/103/299 324/104/299 325/103/299
f 323/101/300 326/102/300 320/102/300
f 326/102/301 321/99/301 320/102/301
f 324/104/302 329/101/302 323/101/302
f 328/100/303 325/103/303 322/100/303
f 321/99/304 328/100/304 322/100/304
f 337/103/305 332/104/305 333/103/305
f 332/104/306 318/104/306 312/104/306
f 334/104/307 319/103/307 318/104/307
f 319/103/308 333/103/308 313/103/308
f 339/103/309 341/103/309 337/103/309
f 335/103/310 337/103/310 333/103/310
f 338/104/311 335/103/311 334/104/311
f 336/104/312 334/104/312 332/104/312
f 341/103/313 342/104/313 340/104/313
f 342/104/314 339/103/314 338/104/314
f 340/104/315 338/104/315 336/104/315
f 341/103/316 336/104/316 337/103/316
f 295/98/317 345/96/317 294/96/317
f 344/82/318 91/97/318 293/82/318
f 148/85/319 295/98/319 95/85/319
f 345/96/320 293/82/320 294/96/320
f 328/100/321 330/104/321 331/103/321
f 327/99/322 329/101/322 330/104/322
f 347/110/323 292/103/323 286/100/323
f 291/104/324 352/108/324 290/101/324
f 282/102/325 348/105/325 284/99/325
f 290/101/326 351/109/326 282/102/326
f 350/107/327 291/104/327 292/103/327
f 348/105/328 286/100/328 284/99/328
f 355/115/329 302/102/329 305/101/329
f 357/107/330 306/104/330 307/103/330
f 303/99/331 358/114/331 304/100/331
f 304/100/332 357/107/332 307/103/332
f 306/104/333 355/115/333 305/101/333
f 354/112/334 303/99/334 302/102/334
f 361/65/335 360/97/335 359/63/335
f 361/65/336 364/66/336 362/64/336
f 363/67/337 366/68/337 364/66/337
f 367/70/338 366/68/338 365/69/338
f 368/74/339 373/68/339 366/68/339
f 416/116/340 359/63/340 360/97/340
f 162/97/341 171/75/341 415/116/341
f 381/65/342 386/67/342 387/117/342
f 177/76/343 379/74/343 374/74/343
f 372/66/344 362/64/344 364/66/344
f 362/64/345 370/97/345 360/97/345
f 373/68/346 364/66/346 366/68/346
f 379/71/347 183/124/347 375/132/347
f 378/68/348 372/66/348 373/68/348
f 371/64/349 375/97/349 370/97/349
f 375/118/350 177/76/350 370/118/350
f 379/74/351 373/68/351 374/74/351
f 377/66/352 371/64/352 372/66/352
f 384/70/353 399/75/353 385/75/353
f 384/70/354 388/75/354 389/70/354
f 380/63/355 387/117/355 390/63/355
f 386/67/356 383/69/356 391/119/356
f 388/75/357 380/77/357 390/122/357
f 383/69/358 389/70/358 391/119/358
f 391/119/359 410/70/359 408/120/359
f 407/121/360 390/122/360 411/77/360
f 406/67/361 391/119/361 408/120/361
f 411/63/362 387/117/362 409/123/362
f 389/70/363 407/121/363 410/70/363
f 409/123/364 386/67/364 406/67/364
f 183/76/365 200/116/365 375/118/365
f 197/116/366 379/116/366 196/116/366
f 198/116/367 378/116/367 197/116/367
f 196/116/368 379/71/368 183/124/368
f 199/116/369 375/116/369 376/116/369
f 392/116/370 199/116/370 376/116/370
f 198/116/371 393/116/371 377/116/371
f 393/73/372 376/125/372 377/73/372
f 399/79/373 397/126/373 395/80/373
f 396/67/374 383/69/374 382/67/374
f 394/63/375 381/65/375 380/63/375
f 385/75/376 394/77/376 380/77/376
f 383/69/377 398/70/377 384/70/377
f 395/65/378 382/67/378 381/65/378
f 361/65/379 403/67/379 363/67/379
f 401/127/380 369/75/380 367/70/380
f 359/63/381 400/123/381 361/65/381
f 363/67/382 405/69/382 365/69/382
f 404/121/383 359/77/383 369/75/383
f 405/69/384 367/70/384 365/69/384
f 400/123/385 406/67/385 403/67/385
f 410/70/380 404/121/380 401/127/380
f 402/63/386 409/123/386 400/123/386
f 403/67/387 408/120/387 405/69/387
f 404/121/388 411/77/388 402/77/388
f 408/120/389 401/127/389 405/69/389
f 281/116/390 204/116/390 392/116/390
f 203/116/391 285/116/391 393/116/391
f 283/128/392 281/125/392 392/125/392
f 413/96/393 344/82/393 345/96/393
f 414/98/394 345/96/394 346/98/394
f 344/82/395 223/97/395 144/97/395
f 227/85/396 346/98/396 148/85/396
f 415/116/397 176/74/397 177/76/397
f 416/116/398 374/74/398 368/74/398
f 172/118/399 415/116/399 177/76/399
f 416/116/400 370/118/400 177/76/400
f 26/1/401 29/5/401 28/2/401
f 26/1/402 27/7/402 30/4/402
f 7/6/403 8/129/403 30/4/403
f 30/4/404 8/129/404 4/8/404
f 29/5/405 30/4/405 9/9/405
f 28/2/406 29/5/406 10/10/406
f 28/2/407 11/11/407 3/12/407
f 25/3/408 28/2/408 5/13/408
f 31/15/409 32/18/409 35/16/409
f 32/18/410 33/24/410 36/19/410
f 34/17/411 35/16/411 38/20/411
f 35/16/412 36/19/412 39/22/412
f 3/12/413 11/11/413 31/15/413
f 11/11/414 10/10/414 32/18/414
f 10/10/415 9/9/415 33/24/415
f 4/8/416 15/59/416 33/24/416
f 33/24/417 15/59/417 16/25/417
f 36/19/418 16/25/418 17/26/418
f 39/22/419 17/26/419 2/27/419
f 38/20/420 39/22/420 18/28/420
f 37/21/421 38/20/421 19/29/421
f 37/21/422 20/30/422 1/31/422
f 13/33/423 34/17/423 37/21/423
f 14/23/424 31/15/424 34/17/424
f 43/36/425 40/39/425 44/34/425
f 40/39/426 41/37/426 44/34/426
f 41/37/427 42/41/427 45/38/427
f 1/31/428 20/30/428 40/39/428
f 20/30/429 19/29/429 41/37/429
f 19/29/430 18/28/430 42/41/430
f 2/27/431 23/42/431 42/41/431
f 23/42/432 24/133/432 45/38/432
f 22/40/433 40/39/433 43/36/433
f 46/44/434 47/50/434 49/45/434
f 48/46/435 49/45/435 51/47/435
f 6/49/436 5/51/436 47/50/436
f 5/51/437 3/12/437 14/23/437
f 47/50/438 14/23/438 13/33/438
f 49/45/439 13/33/439 12/32/439
f 51/47/440 12/32/440 1/31/440
f 51/47/441 22/52/441 21/53/441
f 52/54/442 53/61/442 55/55/442
f 54/56/443 55/55/443 57/57/443
f 4/8/444 8/60/444 52/54/444
f 8/60/445 7/130/445 53/61/445
f 57/57/446 24/134/446 23/62/446
f 56/58/447 23/62/447 2/27/447
f 16/25/448 54/56/448 56/58/448
f 15/59/449 52/54/449 54/56/449
f 59/63/49 60/97/49 62/64/49
f 61/65/50 62/64/50 64/66/50
f 63/67/51 64/66/51 66/68/51
f 66/68/450 68/74/450 67/70/450
f 64/73/53 62/125/53 68/71/53
f 62/125/53 60/135/53 70/124/53
f 68/71/53 62/125/53 70/124/53
f 68/74/54 70/76/54 69/75/54
f 70/76/55 60/118/55 59/77/55
f 69/79/56 59/136/56 61/80/56
f 61/80/56 63/131/56 67/78/56
f 63/131/56 65/126/56 67/78/56
f 86/81/451 72/97/451 97/82/451
f 100/84/452 98/98/452 80/85/452
f 84/87/453 85/92/453 79/88/453
f 75/89/454 83/94/454 84/87/454
f 82/90/455 83/94/455 75/89/455
f 71/63/456 81/95/456 82/90/456
f 100/84/457 90/86/457 85/92/457
f 101/93/458 100/84/458 84/87/458
f 99/83/459 101/93/459 83/94/459
f 81/95/460 86/81/460 99/83/460
f 97/82/461 92/82/461 93/96/461
f 72/97/462 91/97/462 92/82/462
f 98/98/463 96/96/463 93/96/463
f 80/85/464 98/98/464 94/98/464
f 76/99/465 74/102/465 97/82/465
f 78/100/466 76/99/466 96/96/466
f 87/101/467 99/83/467 97/82/467
f 78/100/468 98/98/468 100/84/468
f 89/103/469 100/84/469 101/93/469
f 87/101/470 88/104/470 101/93/470
f 150/105/471 149/110/471 104/100/471
f 151/106/472 106/104/472 107/103/472
f 154/108/473 153/109/473 102/102/473
f 150/105/474 103/99/474 102/102/474
f 151/106/475 154/108/475 105/101/475
f 152/107/476 107/103/476 104/100/476
f 155/111/477 109/99/477 108/102/477
f 158/113/478 157/115/478 111/101/478
f 160/114/479 159/107/479 113/103/479
f 155/111/480 160/114/480 110/100/480
f 158/113/481 112/104/481 113/103/481
f 156/112/482 108/102/482 111/101/482
f 110/100/483 116/100/483 115/99/483
f 112/104/484 132/104/484 133/103/484
f 108/102/485 114/102/485 117/101/485
f 108/102/486 109/99/486 115/99/486
f 111/101/487 117/101/487 118/104/487
f 110/100/488 113/103/488 119/103/488
f 114/102/489 115/99/489 121/99/489
f 117/101/96 123/101/96 124/104/96
f 119/103/490 125/103/490 122/100/490
f 115/99/491 116/100/491 122/100/491
f 119/103/99 118/104/99 124/104/99
f 117/101/492 114/102/492 120/102/492
f 124/104/493 130/104/493 131/103/493
f 123/101/494 120/102/494 126/102/494
f 121/99/495 127/99/495 126/102/495
f 124/104/496 123/101/496 129/101/496
f 125/103/497 131/103/497 128/100/497
f 121/99/498 122/100/498 128/100/498
f 132/104/107 136/104/107 137/103/107
f 118/104/499 134/104/499 132/104/499
f 119/103/500 135/103/500 134/104/500
f 119/103/501 113/103/501 133/103/501
f 139/103/502 137/103/502 141/103/502
f 135/103/112 133/103/112 137/103/112
f 135/103/113 139/103/113 138/104/113
f 134/104/114 138/104/114 136/104/114
f 141/103/503 140/104/503 142/104/503
f 139/103/504 143/103/504 142/104/504
f 138/104/505 142/104/505 140/104/505
f 136/104/506 140/104/506 141/103/506
f 94/98/507 93/96/507 146/96/507
f 91/97/508 144/97/508 145/82/508
f 94/98/509 147/98/509 148/85/509
f 92/82/510 145/82/510 146/96/510
f 128/100/511 131/103/511 130/104/511
f 127/99/512 130/104/512 129/101/512
f 89/103/513 152/107/513 149/110/513
f 88/104/514 87/101/514 154/108/514
f 74/102/515 76/99/515 150/105/515
f 87/101/516 74/102/516 153/109/516
f 88/104/517 151/106/517 152/107/517
f 78/100/518 149/110/518 150/105/518
f 102/102/519 156/112/519 157/115/519
f 106/104/520 158/113/520 159/107/520
f 103/99/521 104/100/521 160/114/521
f 104/100/522 107/103/522 159/107/522
f 106/104/523 105/101/523 157/115/523
f 103/99/524 155/111/524 156/112/524
f 162/97/525 164/64/525 163/65/525
f 163/65/526 164/64/526 166/66/526
f 165/67/527 166/66/527 168/68/527
f 168/68/528 170/74/528 169/70/528
f 170/74/529 168/68/529 175/68/529
f 368/74/530 367/70/530 369/75/530
f 170/74/531 415/116/531 171/75/531
f 190/67/532 186/67/532 185/65/532
f 177/76/533 176/74/533 182/74/533
f 164/64/534 173/64/534 174/66/534
f 164/64/535 162/97/535 172/97/535
f 166/66/536 174/66/536 175/68/536
f 180/73/537 179/125/537 182/71/537
f 179/125/538 178/132/538 182/71/538
f 178/132/539 183/124/539 182/71/539
f 174/66/540 180/66/540 181/68/540
f 173/64/541 172/97/541 178/97/541
f 177/76/542 183/76/542 178/118/542
f 175/68/543 181/68/543 182/74/543
f 173/64/544 179/64/544 180/66/544
f 188/70/545 189/75/545 210/75/545
f 192/75/546 189/75/546 188/70/546
f 191/117/547 185/65/547 184/63/547
f 190/67/548 195/119/548 187/69/548
f 192/75/549 194/122/549 184/77/549
f 193/70/550 188/70/550 187/69/550
f 221/70/551 193/70/551 195/119/551
f 218/121/552 222/77/552 194/122/552
f 217/67/553 219/120/553 195/119/553
f 222/63/554 220/123/554 191/117/554
f 218/121/555 192/75/555 193/70/555
f 220/123/556 217/67/556 190/67/556
f 182/116/557 181/116/557 197/116/557
f 181/116/558 180/116/558 198/116/558
f 199/116/559 179/116/559 178/116/559
f 199/116/560 204/116/560 201/116/560
f 198/116/561 180/116/561 202/116/561
f 179/125/562 201/125/562 202/73/562
f 210/79/563 205/137/563 206/80/563
f 206/80/564 207/131/564 208/126/564
f 208/126/565 209/78/565 210/79/565
f 187/69/566 208/69/566 207/67/566
f 185/65/567 206/65/567 205/63/567
f 189/75/568 184/77/568 205/77/568
f 187/69/569 188/70/569 209/70/569
f 186/67/570 207/67/570 206/65/570
f 163/65/571 165/67/571 214/67/571
f 171/75/572 215/121/572 212/127/572
f 161/63/573 163/65/573 211/123/573
f 165/67/574 167/69/574 216/69/574
f 161/77/575 213/77/575 215/121/575
f 169/70/576 212/127/576 216/69/576
f 211/123/577 214/67/577 217/67/577
f 215/121/578 218/121/578 221/70/578
f 213/63/579 211/123/579 220/123/579
f 214/67/580 216/69/580 219/120/580
f 215/121/581 213/77/581 222/77/581
f 212/127/582 221/70/582 219/120/582
f 204/116/583 71/116/583 73/116/583
f 203/116/584 202/116/584 77/116/584
f 77/73/585 202/73/585 75/128/585
f 202/73/586 201/125/586 75/128/586
f 145/82/587 224/82/587 225/96/587
f 146/96/197 225/96/197 226/98/197
f 145/82/588 144/97/588 223/97/588
f 147/98/589 226/98/589 227/85/589
f 248/2/590 249/5/590 26/1/590
f 26/1/591 249/5/591 250/4/591
f 250/4/592 233/129/592 7/6/592
f 250/4/593 234/9/593 231/8/593
f 249/5/594 235/10/594 234/9/594
f 248/2/595 236/11/595 235/10/595
f 230/12/596 236/11/596 248/2/596
f 232/13/597 248/2/597 25/3/597
f 251/15/598 254/17/598 255/16/598
f 252/18/599 255/16/599 256/19/599
f 254/17/600 257/21/600 258/20/600
f 255/16/601 258/20/601 259/22/601
f 230/12/602 239/23/602 251/15/602
f 236/11/603 251/15/603 252/18/603
f 235/10/604 252/18/604 253/24/604
f 253/24/605 240/59/605 231/8/605
f 253/24/606 256/19/606 241/25/606
f 256/19/607 259/22/607 242/26/607
f 259/22/608 243/28/608 229/27/608
f 258/20/609 244/29/609 243/28/609
f 257/21/610 245/30/610 244/29/610
f 228/31/611 245/30/611 257/21/611
f 238/33/612 237/32/612 257/21/612
f 239/23/613 238/33/613 254/17/613
f 261/37/614 260/39/614 44/34/614
f 260/39/615 43/36/615 44/34/615
f 261/37/616 44/34/616 45/38/616
f 228/31/617 246/40/617 260/39/617
f 245/30/618 260/39/618 261/37/618
f 244/29/619 261/37/619 262/41/619
f 262/41/620 247/42/620 229/27/620
f 45/38/621 24/133/621 247/42/621
f 246/40/622 21/43/622 43/36/622
f 46/44/623 48/46/623 264/45/623
f 48/46/624 50/48/624 265/47/624
f 6/49/625 46/44/625 263/50/625
f 232/51/626 263/50/626 239/23/626
f 263/50/627 264/45/627 238/33/627
f 264/45/628 265/47/628 237/32/628
f 265/47/629 246/52/629 228/31/629
f 21/53/630 246/52/630 265/47/630
f 266/54/631 267/56/631 55/55/631
f 267/56/632 268/58/632 57/57/632
f 231/8/633 240/59/633 266/54/633
f 233/60/634 266/54/634 53/61/634
f 247/62/635 24/134/635 57/57/635
f 229/27/636 247/62/636 268/58/636
f 241/25/637 242/26/637 268/58/637
f 240/59/638 241/25/638 267/56/638
f 269/63/247 271/65/247 272/64/247
f 271/65/248 273/67/248 274/66/248
f 273/67/249 275/69/249 276/68/249
f 277/70/250 278/74/250 276/68/250
f 270/135/251 272/125/251 280/124/251
f 272/125/251 274/73/251 280/124/251
f 274/73/251 276/72/251 278/71/251
f 279/75/252 280/76/252 278/74/252
f 269/77/253 270/118/253 280/76/253
f 271/80/254 269/136/254 279/79/254
f 279/79/254 277/78/254 271/80/254
f 277/78/254 275/126/254 273/131/254
f 86/81/639 299/83/639 297/82/639
f 300/84/640 90/86/640 80/85/640
f 79/88/641 85/92/641 289/87/641
f 283/89/642 285/8/642 289/87/642
f 283/89/643 288/94/643 287/90/643
f 71/63/644 281/91/644 287/90/644
f 85/92/645 90/86/645 300/84/645
f 289/87/646 300/84/646 301/93/646
f 288/94/647 301/93/647 299/83/647
f 81/95/648 287/90/648 299/83/648
f 294/96/649 293/82/649 297/82/649
f 293/82/650 91/97/650 72/97/650
f 298/98/651 295/98/651 294/96/651
f 80/85/652 95/85/652 295/98/652
f 284/99/653 296/96/653 297/82/653
f 286/100/654 298/98/654 296/96/654
f 297/82/655 299/83/655 290/101/655
f 300/84/656 298/98/656 286/100/656
f 301/93/657 300/84/657 292/103/657
f 290/101/658 299/83/658 301/93/658
f 348/105/659 303/99/659 304/100/659
f 307/103/660 306/104/660 349/106/660
f 352/108/661 305/101/661 302/102/661
f 302/102/662 303/99/662 348/105/662
f 349/106/663 306/104/663 305/101/663
f 304/100/664 307/103/664 350/107/664
f 308/102/665 309/99/665 353/111/665
f 356/113/666 312/104/666 311/101/666
f 358/114/667 310/100/667 313/103/667
f 353/111/668 309/99/668 310/100/668
f 313/103/669 312/104/669 356/113/669
f 311/101/670 308/102/670 354/112/670
f 315/99/671 316/100/671 310/100/671
f 333/103/672 332/104/672 312/104/672
f 317/101/673 314/102/673 308/102/673
f 308/102/674 314/102/674 315/99/674
f 318/104/675 317/101/675 311/101/675
f 310/100/676 316/100/676 319/103/676
f 314/102/677 320/102/677 321/99/677
f 324/104/294 323/101/294 317/101/294
f 322/100/678 325/103/678 319/103/678
f 315/99/679 321/99/679 322/100/679
f 319/103/297 325/103/297 324/104/297
f 317/101/680 323/101/680 320/102/680
f 331/103/681 330/104/681 324/104/681
f 323/101/682 329/101/682 326/102/682
f 326/102/683 327/99/683 321/99/683
f 324/104/684 330/104/684 329/101/684
f 328/100/685 331/103/685 325/103/685
f 321/99/686 327/99/686 328/100/686
f 337/103/305 336/104/305 332/104/305
f 332/104/687 334/104/687 318/104/687
f 334/104/688 335/103/688 319/103/688
f 319/103/689 335/103/689 333/103/689
f 339/103/690 343/103/690 341/103/690
f 335/103/310 339/103/310 337/103/310
f 338/104/311 339/103/311 335/103/311
f 336/104/312 338/104/312 334/104/312
f 341/103/691 343/103/691 342/104/691
f 342/104/692 343/103/692 339/103/692
f 340/104/693 342/104/693 338/104/693
f 341/103/694 340/104/694 336/104/694
f 295/98/695 346/98/695 345/96/695
f 344/82/696 144/97/696 91/97/696
f 148/85/697 346/98/697 295/98/697
f 345/96/698 344/82/698 293/82/698
f 328/100/699 327/99/699 330/104/699
f 327/99/700 326/102/700 329/101/700
f 347/110/701 350/107/701 292/103/701
f 291/104/702 349/106/702 352/108/702
f 282/102/703 351/109/703 348/105/703
f 290/101/704 352/108/704 351/109/704
f 350/107/705 349/106/705 291/104/705
f 348/105/706 347/110/706 286/100/706
f 355/115/707 354/112/707 302/102/707
f 357/107/708 356/113/708 306/104/708
f 303/99/709 353/111/709 358/114/709
f 304/100/710 358/114/710 357/107/710
f 306/104/711 356/113/711 355/115/711
f 354/112/712 353/111/712 303/99/712
f 361/65/713 362/64/713 360/97/713
f 361/65/714 363/67/714 364/66/714
f 363/67/715 365/69/715 366/68/715
f 367/70/716 368/74/716 366/68/716
f 368/74/717 374/74/717 373/68/717
f 416/116/718 369/75/718 359/63/718
f 162/97/719 161/63/719 171/75/719
f 381/65/720 382/67/720 386/67/720
f 177/76/721 183/76/721 379/74/721
f 372/66/722 371/64/722 362/64/722
f 362/64/723 371/64/723 370/97/723
f 373/68/724 372/66/724 364/66/724
f 375/132/725 376/125/725 379/71/725
f 376/125/726 377/73/726 379/71/726
f 377/73/727 378/72/727 379/71/727
f 378/68/728 377/66/728 372/66/728
f 371/64/729 376/64/729 375/97/729
f 375/118/730 183/76/730 177/76/730
f 379/74/731 378/68/731 373/68/731
f 377/66/732 376/64/732 371/64/732
f 384/70/733 398/70/733 399/75/733
f 384/70/734 385/75/734 388/75/734
f 380/63/735 381/65/735 387/117/735
f 386/67/736 382/67/736 383/69/736
f 388/75/737 385/75/737 380/77/737
f 383/69/738 384/70/738 389/70/738
f 391/119/739 389/70/739 410/70/739
f 407/121/740 388/75/740 390/122/740
f 406/67/741 386/67/741 391/119/741
f 411/63/742 390/63/742 387/117/742
f 389/70/743 388/75/743 407/121/743
f 409/123/744 387/117/744 386/67/744
f 197/116/745 378/116/745 379/116/745
f 198/116/746 377/116/746 378/116/746
f 199/116/747 200/116/747 375/116/747
f 392/116/748 204/116/748 199/116/748
f 198/116/749 203/116/749 393/116/749
f 393/73/750 392/125/750 376/125/750
f 395/80/751 394/137/751 399/79/751
f 399/79/752 398/78/752 397/126/752
f 397/126/753 396/131/753 395/80/753
f 396/67/754 397/69/754 383/69/754
f 394/63/755 395/65/755 381/65/755
f 385/75/756 399/75/756 394/77/756
f 383/69/757 397/69/757 398/70/757
f 395/65/758 396/67/758 382/67/758
f 361/65/759 400/123/759 403/67/759
f 401/127/760 404/121/760 369/75/760
f 359/63/761 402/63/761 400/123/761
f 363/67/762 403/67/762 405/69/762
f 404/121/763 402/77/763 359/77/763
f 405/69/764 401/127/764 367/70/764
f 400/123/765 409/123/765 406/67/765
f 410/70/766 407/121/766 404/121/766
f 402/63/767 411/63/767 409/123/767
f 403/67/768 406/67/768 408/120/768
f 404/121/769 407/121/769 411/77/769
f 408/120/770 410/70/770 401/127/770
f 281/116/771 71/116/771 204/116/771
f 203/116/772 79/116/772 285/116/772
f 392/125/773 393/73/773 283/128/773
f 393/73/774 285/73/774 283/128/774
f 413/96/775 412/82/775 344/82/775
f 414/98/394 413/96/394 345/96/394
f 344/82/776 412/82/776 223/97/776
f 227/85/777 414/98/777 346/98/777
f 415/116/778 170/74/778 176/74/778
f 416/116/779 177/76/779 374/74/779
f 172/118/780 162/97/780 415/116/780
f 416/116/781 360/97/781 370/118/781
