# Blender 5.0.0
# www.blender.org
o body
v 0.496492 -0.836496 9.718613
v 0.583336 -0.739346 10.989551
v 0.476577 0.278155 9.785871
v 0.565221 0.486405 11.025263
v 0.246627 0.341087 9.689982
v -0.000000 0.369678 9.635301
v -0.000000 0.658669 11.158908
v 0.340386 0.599495 11.114393
v 0.631619 0.554538 10.783930
v 0.646511 0.545035 10.425038
v 0.576865 0.424382 10.053259
v 0.562963 -0.631520 9.632516
v 0.591550 -0.317049 9.603813
v 0.550611 0.022595 9.674910
v 0.654626 0.225672 11.104597
v 0.703310 -0.145584 11.137492
v 0.665741 -0.502555 11.083648
v 0.654036 -0.830154 10.736648
v 0.671875 -0.892060 10.363971
v 0.600616 -0.885222 9.984476
v -0.000000 -0.970373 9.552718
v 0.267098 -0.925012 9.611778
v 0.358752 -0.817454 11.077354
v -0.000000 -0.856364 11.122542
v -0.000000 0.674132 10.006539
v -0.000000 0.858995 10.425235
v -0.000000 0.860968 10.830929
v 0.290903 0.614872 10.032492
v 0.337850 0.778809 10.428512
v 0.344425 0.778265 10.811253
v 0.749642 0.108478 10.012943
v 0.841644 0.194318 10.410366
v 0.811618 0.221480 10.796061
v 0.812126 -0.260920 9.969788
v 0.912852 -0.205322 10.390579
v 0.878665 -0.167071 10.801799
v 0.764291 -0.610047 9.972469
v 0.857600 -0.587272 10.374294
v 0.825386 -0.539852 10.768428
v 0.317045 -1.052687 9.948418
v 0.365526 -1.074154 10.232679
v 0.369003 -0.996871 10.756105
v -0.000000 -1.112858 9.970598
v -0.000000 -1.133465 10.227751
v -0.000000 -1.050112 10.775702
v -0.000000 0.004889 9.369123
v 0.255090 0.002208 9.454622
v -0.000000 -0.369841 9.253712
v 0.272938 -0.355472 9.352859
v -0.000000 -0.709899 9.319606
v 0.266506 -0.681007 9.407291
v 0.373244 0.271110 11.291205
v -0.000000 0.302962 11.355061
v 0.399412 -0.129140 11.343829
v -0.000000 -0.120306 11.413559
v 0.383312 -0.515706 11.272170
v -0.000000 -0.530811 11.336738
v -0.000000 -1.256592 10.038859
v 0.899103 0.129188 10.399710
v 0.964296 0.059743 10.420795
v 0.972883 0.157159 10.217351
v 1.038076 0.087714 10.238437
v 0.910948 0.053346 9.974210
v 0.976141 -0.016100 9.995296
v 0.775233 -0.078439 9.913425
v 0.840426 -0.147884 9.934510
v 0.701452 -0.106409 10.095783
v 0.766645 -0.175854 10.116869
v 0.763387 -0.002596 10.338925
v 0.828580 -0.072041 10.360011
v 0.000000 0.608116 6.782372
v -0.000045 0.615029 8.930812
v 0.504716 0.474076 6.596754
v 0.828573 0.176998 8.511317
v 0.598099 0.170519 6.554452
v 0.958577 0.094575 8.851526
v 0.495931 -0.140089 6.504168
v 0.866856 -0.238268 8.875656
v -0.000000 -0.261992 6.643466
v 0.000046 -0.516532 8.617680
v -0.000000 0.657830 7.415430
v 0.570466 0.442984 7.424164
v 0.767002 0.011216 7.448020
v 0.571981 -0.312088 7.453020
v -0.000000 -0.421473 7.415430
v 0.000175 0.702721 8.504849
v 0.703704 0.111054 8.087602
v 0.718554 -0.201899 8.064937
v 0.697360 -0.448548 8.305311
v 0.000481 -0.483884 8.289486
v -0.000000 0.515979 9.101707
v 0.439941 0.411639 9.044895
v 0.633972 0.103958 9.052352
v 0.435115 -0.198198 9.065845
v -0.000000 -0.334731 8.894090
v 0.958147 0.101285 8.860528
v 0.710194 0.373558 8.695369
v 0.738445 -0.248439 8.974899
v 0.614260 0.345424 7.979130
v 0.622190 -0.404530 8.292070
v 0.716521 -0.173334 8.045622
v 1.568397 -0.543434 6.999670
v 1.659565 -0.680435 7.081684
v 1.563812 -0.867811 7.197296
v 1.164431 -0.617340 6.860315
v 1.097259 -0.783014 6.884801
v 1.161248 -0.944930 7.052272
v 1.945182 -1.436156 5.840309
v 2.010623 -1.551518 5.926594
v 1.943199 -1.669344 6.035532
v 1.639175 -1.484247 5.780115
v 1.585671 -1.620447 5.834748
v 1.637743 -1.719628 5.972517
v 1.971236 -1.431896 5.734631
v 2.060325 -1.551516 5.908687
v 1.988894 -1.786141 6.053901
v 1.817258 -1.532571 5.620569
v 1.787579 -1.685940 5.731663
v 1.816144 -1.932814 5.940653
v 2.245001 -1.640477 5.362138
v 2.301675 -1.851405 5.524560
v 2.243467 -2.096208 5.729533
v 2.084439 -1.804910 5.271720
v 2.054760 -1.958279 5.382813
v 2.083324 -2.205153 5.591804
v 2.184890 -2.067029 4.958890
v 2.196128 -2.232419 5.041592
v 2.185021 -2.382870 5.214133
v 2.094504 -2.087029 5.052651
v 2.068232 -2.183288 5.101778
v 2.093886 -2.347579 5.260336
v 1.576322 -1.791361 5.697003
v 1.607830 -1.869627 5.823423
v 1.771253 -1.815342 5.649842
v 1.791701 -2.022750 5.833736
v 1.629081 -1.963249 5.560802
v 1.654899 -2.027379 5.664390
v 1.788807 -1.982899 5.522159
v 1.805562 -2.152848 5.672840
v 1.704853 -2.143958 5.417952
v 1.715705 -2.187541 5.494535
v 1.822658 -2.141037 5.412084
v 1.831905 -2.260648 5.521482
v -0.000000 0.404501 9.232248
v 0.158780 0.287954 9.203853
v 0.252719 0.101461 9.140332
v 0.182110 -0.006843 9.140332
v -0.000000 -0.116119 9.102304
v 1.513479 -0.838444 7.303442
v 1.609202 -0.630476 7.211908
v 1.078559 -0.752941 6.938141
v 1.131958 -0.928105 7.109800
v 1.519625 -0.487545 7.125628
v 1.135827 -0.576124 6.935404
v 1.698672 -0.736968 6.973632
v 1.610033 -0.608128 6.883501
v 1.199345 -0.677123 6.785662
v 1.127134 -0.833928 6.832289
v 1.197605 -0.972898 7.012048
v 1.606369 -0.904150 7.111039
v 0.508210 1.420384 4.153397
v 0.519509 0.973138 5.444569
v 0.863355 1.242697 4.039534
v 1.026829 0.725746 5.557985
v 0.863355 1.001893 3.919981
v 1.028275 0.311550 5.271562
v 0.508191 0.817457 3.821703
v 0.513592 0.133886 5.053952
v 0.152952 0.999877 3.926218
v 0.144936 0.270511 5.249938
v 0.153066 1.229181 4.064046
v 0.512164 0.932505 5.703472
v 1.018175 0.618594 5.717647
v 1.020134 0.200119 5.442002
v 0.515757 0.057608 5.162537
v 0.136937 0.186088 5.346574
v 0.000000 0.747002 5.499790
v 0.418974 0.886039 5.833451
v 0.879472 0.473593 6.063303
v 0.876436 -0.034774 5.886897
v 0.449170 -0.138308 5.492491
v 0.134332 0.090676 5.482825
v 0.000000 0.813947 5.623993
v 0.430883 3.142229 2.711850
v 0.691278 3.054606 2.589687
v 0.691278 2.879360 2.345360
v 0.430883 2.791725 2.223106
v 0.170489 2.879245 2.344820
v 0.170489 3.054606 2.589687
v 0.822906 1.488203 3.451918
v 0.822906 1.641854 3.645298
v 0.152560 1.614241 3.613415
v 0.152560 1.459520 3.419570
v 0.487733 1.754613 3.835558
v 0.487733 1.062517 3.497080
v -0.000000 0.000827 5.602806
v -0.000000 -0.192432 5.700428
v -0.000000 -0.266806 5.956191
v 0.000000 0.809540 6.191303
v 0.000000 0.833869 5.878245
v 0.713104 0.432705 6.359684
v 0.709689 -0.106071 6.238338
v -0.000000 -0.235774 6.304031
v 0.000000 0.628045 6.533368
v 0.430883 4.323011 1.579890
v 0.625711 4.296649 1.472321
v 0.625711 4.259156 1.228719
v 0.430883 4.240948 1.118019
v 0.236055 4.248710 1.238696
v 0.236055 4.296820 1.471141
v 0.856043 1.262580 3.942969
v 0.152881 1.049964 3.796113
v 0.504509 1.432285 4.090953
v 0.856043 1.063301 3.804613
v 0.152975 1.261705 3.960933
v 0.504493 0.852173 3.750944
v 0.847217 1.153973 3.675828
v 0.152864 1.332204 3.858971
v 0.500029 0.899909 3.667531
v 0.847217 1.340128 3.855046
v 0.152796 1.142587 3.675674
v 0.500040 1.469823 4.002323
v -0.000000 0.330200 9.873151
v 0.182652 0.209765 9.873150
v 0.252719 0.101461 9.873150
v 0.182110 -0.006843 9.873150
v -0.000000 -0.127186 9.818077
v -0.496493 -0.836496 9.718613
v -0.583336 -0.739346 10.989551
v -0.476577 0.278155 9.785871
v -0.565221 0.486405 11.025263
v -0.246627 0.341087 9.689982
v -0.340386 0.599495 11.114393
v -0.631619 0.554538 10.783930
v -0.646511 0.545035 10.425038
v -0.576865 0.424382 10.053259
v -0.562963 -0.631520 9.632516
v -0.591550 -0.317049 9.603813
v -0.550611 0.022595 9.674910
v -0.654626 0.225672 11.104597
v -0.703310 -0.145584 11.137492
v -0.665741 -0.502555 11.083648
v -0.654036 -0.830154 10.736648
v -0.671875 -0.892060 10.363971
v -0.600616 -0.885222 9.984476
v -0.267098 -0.925012 9.611778
v -0.358752 -0.817454 11.077354
v -0.290903 0.614872 10.032492
v -0.337850 0.778809 10.428512
v -0.344425 0.778265 10.811253
v -0.749642 0.108478 10.012943
v -0.841644 0.194318 10.410366
v -0.811618 0.221480 10.796061
v -0.812126 -0.260920 9.969788
v -0.912852 -0.205322 10.390579
v -0.878665 -0.167071 10.801799
v -0.764291 -0.610047 9.972469
v -0.857600 -0.587272 10.374294
v -0.825386 -0.539852 10.768428
v -0.317045 -1.052687 9.948418
v -0.365526 -1.074154 10.232679
v -0.369003 -0.996871 10.756105
v -0.255090 0.002208 9.454622
v -0.272938 -0.355472 9.352859
v -0.266506 -0.681007 9.407291
v -0.373244 0.271110 11.291205
v -0.399412 -0.129140 11.343829
v -0.383312 -0.515706 11.272170
v -0.899103 0.129188 10.399710
v -0.964296 0.059743 10.420795
v -0.972883 0.157159 10.217351
v -1.038076 0.087714 10.238437
v -0.910948 0.053346 9.974210
v -0.976141 -0.016100 9.995296
v -0.775233 -0.078439 9.913425
v -0.840426 -0.147884 9.934510
v -0.701452 -0.106409 10.095783
v -0.766645 -0.175854 10.116869
v -0.763387 -0.002596 10.338925
v -0.828580 -0.072041 10.360011
v -0.504526 0.476274 6.662552
v -0.822482 0.496085 8.721266
v -0.598793 0.169840 6.619849
v -0.956846 0.165211 8.817528
v -0.495657 -0.120404 6.581178
v -0.863622 -0.046223 8.564537
v -0.567864 0.575722 7.478182
v -0.761797 0.286848 7.478468
v -0.569693 -0.174403 7.430540
v -0.689765 0.787198 8.410796
v -0.701804 0.635188 8.144406
v -0.684129 0.273386 8.074264
v -0.440480 0.373982 9.074015
v -0.634113 0.087166 9.044530
v -0.435375 -0.214288 9.034298
v -0.956578 0.160483 8.828664
v -0.708750 0.432866 8.850854
v -0.738434 -0.241295 8.842963
v -0.607018 0.689397 8.176167
v -0.616794 -0.136004 8.147810
v -0.701347 0.584721 8.116839
v -1.529045 1.533328 7.398879
v -1.619988 1.395911 7.320232
v -1.524376 1.205536 7.210711
v -1.124921 1.619866 7.266527
v -1.058165 1.519988 7.130667
v -1.121663 1.296392 7.071183
v -1.960688 2.056194 6.055455
v -2.026206 1.921396 6.004731
v -1.958278 1.768003 5.958331
v -1.658298 2.087047 5.970689
v -1.606616 1.970161 5.880888
v -1.656593 1.800108 5.870248
v -1.990201 2.148143 6.005064
v -2.076471 1.935916 5.997414
v -2.006419 1.690671 5.870187
v -1.842934 2.195181 5.853557
v -1.813590 2.020823 5.779510
v -1.841596 1.713285 5.679131
v -2.281953 2.352760 5.644209
v -2.338669 2.103274 5.551342
v -2.280064 1.801555 5.447120
v -2.129003 2.346449 5.450404
v -2.099659 2.172091 5.376356
v -2.127664 1.864553 5.275978
v -2.247000 2.474858 5.067982
v -2.259820 2.317816 4.970546
v -2.246861 2.092300 4.931763
v -2.154039 2.385827 5.096136
v -2.128685 2.294075 5.038616
v -2.153299 2.072702 4.982237
v -1.606521 1.998538 5.663017
v -1.635783 1.849394 5.663461
v -1.803515 2.023287 5.625892
v -1.823214 1.757877 5.545749
v -1.668452 2.024152 5.447638
v -1.692429 1.901944 5.448001
v -1.829868 2.044431 5.417216
v -1.846009 1.826955 5.351548
v -1.753834 2.050482 5.222205
v -1.763231 1.962256 5.225405
v -1.871650 2.055229 5.226410
v -1.880354 1.899351 5.181834
v -0.158780 0.287954 9.203853
v -0.252719 0.101461 9.140332
v -0.182110 -0.006843 9.140332
v -1.478633 1.126217 7.275941
v -1.574353 1.304006 7.417354
v -1.039360 1.485997 7.187425
v -1.093828 1.253609 7.110769
v -1.484672 1.445369 7.504872
v -1.097722 1.569530 7.343099
v -1.658345 1.459266 7.228085
v -1.569610 1.603126 7.290076
v -1.162610 1.657321 7.167254
v -1.092674 1.537405 7.054103
v -1.160481 1.312093 7.030505
v -1.565651 1.258197 7.150484
v -0.508053 -0.781262 4.150359
v -0.519458 0.402179 5.098993
v -0.866564 -0.963304 4.264340
v -1.031588 0.189770 5.405969
v -0.866564 -1.179326 4.432068
v -1.033048 -0.257351 5.654801
v -0.508034 -1.348403 4.557730
v -0.513485 -0.535353 5.695918
v -0.149427 -1.172699 4.436867
v -0.141336 -0.210251 5.515495
v -0.149542 -0.941785 4.276136
v -0.512044 0.642127 5.358802
v -1.022851 0.331432 5.578078
v -1.024829 -0.138880 5.796296
v -0.515671 -0.454491 5.750432
v -0.133260 -0.125591 5.559605
v -0.417970 0.767343 5.573688
v -0.882834 0.492109 6.099778
v -0.879769 0.017101 6.108922
v -0.448454 -0.311985 5.888426
v -0.130631 -0.032222 5.614547
v -0.429993 -1.489323 1.973764
v -0.658826 -1.618201 2.002840
v -0.658826 -1.875956 2.060987
v -0.429993 -2.004834 2.090062
v -0.201160 -1.875956 2.060987
v -0.201160 -1.618201 2.002839
v -0.825732 -1.414352 3.794165
v -0.825732 -1.172861 3.726991
v -0.149032 -1.213364 3.740119
v -0.149032 -1.455313 3.807740
v -0.487382 -0.951006 3.696958
v -0.487382 -1.540027 4.205832
v -0.714889 0.439507 6.420756
v -0.711441 -0.047728 6.349688
v -0.429993 -2.022009 0.418664
v -0.608103 -2.125226 0.433692
v -0.608103 -2.319944 0.499887
v -0.429993 -2.417304 0.532986
v -0.251884 -2.319944 0.499887
v -0.251884 -2.125226 0.433692
v -0.859183 -1.042473 4.200351
v -0.149356 -1.269059 4.336536
v -0.504316 -0.834922 4.106014
v -0.859183 -1.256380 4.326971
v -0.149450 -1.026444 4.209213
v -0.504300 -1.396252 4.497428
v -0.850273 -1.336570 4.191689
v -0.149339 -1.093479 4.100366
v -0.499794 -1.450655 4.420853
v -0.850273 -1.094258 4.090532
v -0.149269 -1.341943 4.202050
v -0.499806 -0.904195 4.030488
v -0.182652 0.209765 9.873150
v -0.252719 0.101461 9.873150
v -0.182110 -0.006843 9.873150
v 0.213411 0.647080 5.408238
v -0.199640 0.431083 5.253738
vn 0.2171 0.8930 -0.3943
vn 0.2309 0.9730 -0.0026
vn 0.2282 0.8287 0.5111
vn 0.5934 0.7171 0.3657
vn 0.6038 0.7971 0.0039
vn 0.5368 0.7678 -0.3497
vn 0.4335 0.6757 -0.5962
vn 0.2244 0.7535 -0.6180
vn 0.9488 0.1900 -0.2522
vn 0.9829 0.1719 0.0657
vn 0.9669 -0.1341 -0.2169
vn 0.9843 -0.1466 0.0981
vn 0.7198 0.4412 -0.5359
vn 0.8218 0.4872 -0.2955
vn 0.8739 0.4848 0.0339
vn 0.8176 0.4547 0.3533
vn 0.8793 0.1584 0.4492
vn 0.8717 -0.1659 0.4611
vn 0.7717 -0.4987 0.3948
vn 0.8452 -0.5193 0.1267
vn 0.8441 -0.5094 -0.1677
vn 0.7852 -0.4383 -0.4373
vn 0.8572 -0.1236 -0.4999
vn 0.8229 0.2097 -0.5281
vn 1.0000 -0.0000 -0.0000
vn 0.1564 -0.9765 0.1485
vn 0.4800 -0.7943 -0.3725
vn 0.5169 -0.8425 -0.1518
vn 0.4664 -0.8756 0.1262
vn 0.4808 -0.7739 0.4123
vn 0.1500 -0.8611 0.4857
vn 0.2261 -0.9220 -0.3144
vn 0.3148 0.2794 -0.9071
vn 0.3250 -0.1799 -0.9284
vn 0.2669 0.5681 -0.7785
vn 0.4934 0.5045 -0.7086
vn 0.5804 0.2495 -0.7751
vn 0.6137 -0.1420 -0.7766
vn 0.5175 -0.5489 -0.6564
vn 0.3026 -0.6356 -0.7102
vn 0.1733 0.1395 0.9749
vn 0.1703 -0.1865 0.9676
vn 0.5492 0.4099 0.7283
vn 0.1876 0.4801 0.8569
vn 0.1601 -0.5446 0.8233
vn 0.5064 -0.4648 0.7263
vn 0.5518 -0.1809 0.8141
vn 0.5611 0.1458 0.8148
vn 0.6237 0.6944 0.3588
vn 0.7220 0.5506 -0.4190
vn 0.3616 0.0569 -0.9306
vn -0.6237 -0.6944 -0.3589
vn 0.6532 -0.7421 0.1505
vn -0.7220 -0.5506 0.4190
vn -0.3616 -0.0569 0.9306
vn -0.6532 0.7421 -0.1505
vn 0.4394 0.8934 -0.0939
vn 0.1264 -0.9871 -0.0980
vn 0.1838 -0.9645 -0.1896
vn 0.9480 -0.2910 -0.1287
vn 0.9513 0.3016 -0.0643
vn 0.2619 0.9650 0.0154
vn 0.1940 -0.9738 -0.1189
vn 0.8524 -0.5155 -0.0872
vn 0.9101 0.4143 0.0010
vn 0.3474 0.9279 0.1357
vn 0.3663 0.7032 0.6093
vn 0.3715 0.9092 0.1882
vn 0.2646 -0.1315 0.9553
vn 0.0452 -0.8346 0.5490
vn 0.7887 0.5104 -0.3427
vn 0.6127 -0.1300 0.7795
vn 0.6647 0.6833 -0.3022
vn -0.5118 -0.7455 0.4270
vn -0.8278 -0.3535 -0.4357
vn 0.8704 0.1101 -0.4799
vn 0.8872 -0.1954 0.4181
vn -0.8174 -0.5106 -0.2668
vn 0.0050 0.8774 -0.4797
vn 0.8253 0.5601 0.0710
vn -0.8475 0.2766 -0.4531
vn 0.0726 -0.9519 0.2978
vn 0.8558 0.5022 -0.1237
vn -0.8554 0.1355 -0.5000
vn 0.0136 -0.8127 0.5825
vn 0.9066 -0.1565 0.3919
vn -0.8771 -0.4796 -0.0269
vn 0.0165 0.7833 -0.6215
vn 0.2808 0.5600 0.7795
vn -0.9522 -0.0978 0.2895
vn -0.0743 0.9284 -0.3641
vn 0.6375 0.7473 0.1873
vn -0.4883 -0.1529 -0.8592
vn -0.5086 -0.0639 0.8586
vn 0.8146 0.4751 0.3327
vn -0.8463 -0.1953 -0.4957
vn 0.0997 -0.6790 0.7273
vn 0.8864 0.1545 0.4363
vn -0.8522 -0.3920 -0.3466
vn -0.2657 0.6506 -0.7114
vn -0.9945 -0.1040 0.0130
vn -0.6952 0.4252 -0.5795
vn 0.9694 0.0822 -0.2315
vn -0.9681 0.1708 -0.1831
vn 0.1939 -0.8665 0.4600
vn 0.9824 -0.1673 -0.0827
vn -0.9466 -0.3203 0.0376
vn -0.1860 0.6227 -0.7600
vn 0.9866 -0.0224 -0.1614
vn -0.5247 -0.5886 0.6151
vn -0.5512 -0.7220 0.4183
vn -0.5761 -0.6592 0.4834
vn 0.9948 0.1014 0.0037
vn -0.1194 0.5938 -0.7957
vn -0.2541 -0.6634 -0.7038
vn 0.9844 0.1607 0.0718
vn -0.1225 0.5834 -0.8029
vn -0.9320 -0.3623 0.0080
vn 0.1919 -0.1251 0.9734
vn 0.2306 0.5270 0.8180
vn -0.0693 -0.6880 0.7224
vn 0.2209 0.1626 0.9617
vn -0.5155 -0.6291 -0.5818
vn -0.6227 -0.3834 -0.6821
vn -0.0173 -0.9364 0.3504
vn -0.8687 0.2750 -0.4120
vn 0.8055 0.5795 0.1238
vn 0.0473 0.8656 -0.4985
vn -0.9453 -0.1824 -0.2705
vn 0.8738 -0.2090 0.4391
vn 0.0637 0.7933 -0.6055
vn -0.7597 -0.5878 -0.2780
vn 0.8985 -0.1600 0.4089
vn 0.0538 -0.9105 0.4101
vn -0.7733 0.1749 -0.6095
vn 0.8346 0.5508 -0.0076
vn 0.4998 0.8198 0.2796
vn 0.9941 0.0480 -0.0968
vn 0.5071 -0.7528 -0.4198
vn -0.5093 -0.7535 -0.4158
vn -0.5016 -0.6305 -0.5923
vn 0.9963 0.0708 -0.0484
vn -1.0000 0.0031 -0.0043
vn 0.9972 0.0583 -0.0463
vn -0.9733 -0.2020 0.1089
vn 0.9992 -0.0203 0.0344
vn 0.4409 0.7340 0.5165
vn 0.4660 -0.7196 -0.5148
vn -0.4579 -0.6020 0.6541
vn 0.4439 -0.8070 -0.3896
vn 0.4324 0.7564 0.4908
vn -0.3644 0.9285 0.0707
vn -0.4874 -0.7108 -0.5071
vn 0.9613 -0.1484 0.2321
vn -0.9991 0.0410 -0.0085
vn -0.9999 0.0079 -0.0063
vn 0.5454 0.5409 0.6403
vn 0.5002 -0.5096 -0.7001
vn -0.5000 0.5058 0.7029
vn -0.4695 -0.5337 -0.7034
vn -0.4715 -0.6548 -0.5907
vn -0.6125 0.5187 0.5965
vn 0.4863 -0.4616 -0.7419
vn 0.5507 0.4394 0.7097
vn -1.0000 -0.0002 0.0006
vn 0.9978 0.0518 -0.0412
vn 0.1313 -0.9883 0.0774
vn -0.4441 -0.4040 -0.7997
vn -0.0136 -0.9601 -0.2792
vn -0.6732 0.0193 -0.7392
vn -0.1151 0.9904 0.0770
vn 0.3784 0.8642 0.3316
vn 0.1869 -0.9785 0.0873
vn 0.9050 -0.1443 0.4001
vn 0.0009 0.9878 -0.1558
vn 0.4999 -0.5303 -0.6847
vn 0.4962 0.6008 0.6267
vn -0.4467 0.6116 0.6530
vn -0.4590 -0.5387 -0.7065
vn 0.9992 0.0321 -0.0230
vn 0.9968 0.0458 -0.0660
vn -1.0000 0.0001 0.0006
vn 0.4769 0.8682 0.1372
vn 0.5124 -0.7442 -0.4286
vn -0.5076 0.8216 0.2596
vn -0.5077 -0.7836 -0.3579
vn 0.9972 0.0521 -0.0541
vn -1.0000 -0.0001 0.0007
vn 0.4498 0.8303 0.3290
vn 0.5134 -0.6847 -0.5173
vn -0.4892 0.7171 0.4964
vn -0.4861 -0.7695 -0.4143
vn 0.2816 0.9562 0.0806
vn 0.2181 -0.9730 -0.0752
vn 0.7556 0.1434 0.6392
vn 0.8931 0.4499 -0.0000
vn 0.8377 -0.5461 -0.0000
vn 0.5488 0.8323 0.0777
vn 0.5165 -0.8562 -0.0132
vn -0.2171 0.8930 -0.3943
vn -0.2332 0.9724 -0.0047
vn -0.2282 0.8287 0.5111
vn -0.5362 0.7239 0.4341
vn -0.6140 0.7893 -0.0094
vn -0.5575 0.7416 -0.3731
vn -0.4335 0.6757 -0.5962
vn -0.2244 0.7535 -0.6180
vn -0.9486 0.1818 -0.2589
vn -0.9832 0.1706 0.0645
vn -0.9679 -0.1309 -0.2144
vn -0.9842 -0.1492 0.0957
vn -0.7191 0.4598 -0.5211
vn -0.8258 0.4724 -0.3080
vn -0.8791 0.4760 0.0239
vn -0.8176 0.4547 0.3533
vn -0.8813 0.1551 0.4463
vn -0.8704 -0.1617 0.4650
vn -0.7756 -0.4470 0.4457
vn -0.8474 -0.5145 0.1312
vn -0.8444 -0.5089 -0.1672
vn -0.7852 -0.4383 -0.4373
vn -0.8583 -0.1214 -0.4987
vn -0.8209 0.2013 -0.5345
vn -0.1488 -0.9784 0.1435
vn -0.5095 -0.7887 -0.3441
vn -0.5440 -0.8308 -0.1171
vn -0.5063 -0.8464 0.1648
vn -0.4808 -0.7739 0.4123
vn -0.1500 -0.8611 0.4857
vn -0.1482 -0.9172 -0.3698
vn -0.3082 0.2745 -0.9109
vn -0.3444 -0.1614 -0.9248
vn -0.2408 0.5577 -0.7943
vn -0.4461 0.4620 -0.7665
vn -0.5707 0.2336 -0.7872
vn -0.6232 -0.1271 -0.7717
vn -0.5828 -0.4680 -0.6643
vn -0.3026 -0.6356 -0.7102
vn -0.1783 0.1347 0.9747
vn -0.1652 -0.1814 0.9694
vn -0.5146 0.4458 0.7324
vn -0.1947 0.4737 0.8589
vn -0.1601 -0.5446 0.8233
vn -0.5064 -0.4648 0.7263
vn -0.5466 -0.1746 0.8190
vn -0.5630 0.1438 0.8139
vn -0.6237 0.6944 0.3588
vn -0.7220 0.5506 -0.4190
vn -0.3616 0.0569 -0.9306
vn 0.6237 -0.6944 -0.3589
vn -0.6532 -0.7421 0.1505
vn 0.7220 -0.5506 0.4190
vn 0.3616 -0.0569 0.9306
vn 0.6532 0.7421 -0.1505
vn -0.2647 0.9445 0.1943
vn -0.3961 -0.8951 -0.2049
vn -0.2639 -0.9609 -0.0841
vn -0.9205 -0.3705 -0.1243
vn -0.9455 0.3063 -0.1108
vn -0.1510 0.9855 -0.0774
vn -0.3973 -0.9174 0.0230
vn -0.8794 -0.3940 0.2671
vn -0.8226 0.5521 -0.1361
vn 0.0004 0.9992 -0.0412
vn -0.4630 0.3551 0.8122
vn -0.2666 0.8034 0.5324
vn -0.5771 -0.2861 0.7649
vn -0.1955 -0.8796 0.4338
vn -0.5620 0.4332 0.7046
vn -0.9497 -0.2958 -0.1027
vn -0.2610 0.7574 0.5986
vn -0.8589 -0.2240 -0.4605
vn -0.9912 -0.0701 0.1119
vn 0.9961 0.0488 -0.0729
vn -0.8734 -0.4867 0.0207
vn 0.8173 -0.0015 -0.5763
vn 0.0172 0.7729 0.6342
vn -0.8301 0.2058 0.5183
vn 0.8525 0.5213 0.0399
vn -0.0976 -0.6651 -0.7403
vn -0.8476 0.3515 0.3975
vn 0.8025 0.5839 -0.1228
vn 0.0069 -0.9207 -0.3902
vn -0.8882 -0.4483 0.1008
vn 0.8632 -0.2118 -0.4582
vn -0.0207 0.9382 0.3455
vn -0.2391 -0.3766 0.8950
vn 0.9585 -0.2835 0.0289
vn 0.0866 0.7963 0.5987
vn -0.2106 -0.2530 0.9443
vn 0.4545 0.6603 -0.5979
vn 0.1769 -0.9493 0.2600
vn -0.7720 0.2935 0.5639
vn 0.8234 0.3336 -0.4591
vn -0.0930 -0.9762 -0.1957
vn -0.8026 -0.4389 0.4041
vn 0.8291 0.1038 -0.5494
vn 0.1303 0.9040 0.4073
vn 0.9912 -0.0504 -0.1222
vn 0.3107 0.9259 0.2150
vn -0.9741 0.2256 -0.0113
vn 0.9814 0.1858 -0.0487
vn -0.2012 -0.8475 -0.4911
vn -0.9797 -0.1410 -0.1427
vn 0.9384 -0.1850 -0.2918
vn 0.1766 0.9760 0.1272
vn -0.9918 0.1110 -0.0633
vn 0.5382 -0.8304 -0.1438
vn 0.5876 -0.7142 -0.3804
vn 0.5744 -0.7476 -0.3334
vn -0.9911 0.0347 0.1287
vn 0.1081 0.9904 0.0867
vn -0.0369 -0.0323 -0.9988
vn -0.9767 0.0078 0.2143
vn 0.1106 0.9911 0.0739
vn 0.9218 -0.1819 -0.3425
vn -0.2328 -0.1859 0.9546
vn -0.2202 0.5224 0.8238
vn 0.0424 -0.6891 0.7235
vn -0.2454 0.0663 0.9671
vn 0.4946 0.1625 -0.8538
vn 0.4594 0.5595 -0.6899
vn -0.2362 -0.7722 -0.5899
vn 0.9518 0.2460 -0.1834
vn -0.6311 0.4418 0.6376
vn -0.1213 0.7494 0.6509
vn 0.9490 0.1041 -0.2977
vn -0.8970 -0.4404 0.0375
vn -0.0744 0.9234 0.3766
vn 0.7195 -0.0196 -0.6942
vn -0.8505 -0.5073 0.1393
vn 0.0628 -0.9095 -0.4110
vn 0.7856 0.6151 -0.0662
vn -0.8311 0.2726 0.4847
vn -0.4918 0.5417 -0.6817
vn -0.9943 -0.0491 -0.0941
vn -0.4385 -0.7453 0.5023
vn 0.5111 -0.6983 0.5012
vn 0.6611 -0.4070 0.6303
vn 0.3049 0.5975 -0.7417
vn -0.7109 0.6332 0.3061
vn -0.9956 -0.0250 -0.0899
vn 0.9734 -0.1360 0.1845
vn -0.9990 0.0243 0.0377
vn -0.5783 0.6075 -0.5445
vn -0.3454 -0.5310 0.7738
vn -0.1203 0.0075 0.9927
vn -0.2969 -0.5883 0.7522
vn -0.5725 0.7923 -0.2110
vn -0.0440 0.8714 -0.4885
vn 0.6591 -0.3951 0.6399
vn -0.9235 0.1646 0.3464
vn 0.9995 -0.0068 -0.0301
vn 0.9996 -0.0078 -0.0279
vn -0.5449 0.7950 -0.2665
vn -0.5182 -0.8382 0.1701
vn 0.6153 0.7580 -0.2163
vn 0.4556 -0.8668 0.2028
vn 0.4744 -0.8029 0.3611
vn 0.4885 0.8664 -0.1034
vn -0.4735 -0.8227 0.3146
vn -0.4938 0.8425 -0.2155
vn 1.0000 0.0005 0.0005
vn -0.9981 -0.0238 -0.0570
vn 0.1012 -0.9918 0.0777
vn 0.0338 -0.4506 -0.8921
vn 0.1376 -0.9511 -0.2766
vn -0.0960 0.0259 -0.9950
vn -0.3491 0.9209 0.1733
vn -0.3496 0.8781 0.3268
vn -0.3127 -0.9491 -0.0369
vn -0.8188 0.0058 0.5740
vn -0.0000 -0.3219 -0.9468
vn -0.4997 -0.8373 0.2219
vn -0.4978 0.8205 -0.2811
vn 0.4978 0.8205 -0.2811
vn 0.4997 -0.8373 0.2219
vn -0.9995 -0.0068 -0.0301
vn -0.9984 -0.0347 -0.0447
vn 1.0000 0.0006 0.0001
vn -0.4873 0.5210 -0.7008
vn -0.5066 -0.6904 0.5165
vn 0.4839 0.5430 -0.6863
vn 0.5094 -0.6585 0.5540
vn -0.9984 -0.0288 -0.0487
vn 1.0000 0.0006 0.0003
vn -0.5398 0.7436 -0.3945
vn -0.5111 -0.7146 0.4776
vn 0.5133 0.6475 -0.5633
vn 0.4878 -0.6978 0.5245
vn -0.2667 0.9599 0.0861
vn -0.2587 -0.9640 -0.0615
vn -0.7573 0.1442 0.6369
vn -0.8931 0.4499 -0.0000
vn -0.8377 -0.5461 -0.0000
vn -0.5999 0.7948 0.0921
vn -0.5165 -0.8562 -0.0132
vn -0.3168 0.1772 -0.9318
vn 0.9804 0.0089 -0.1966
vn 0.0263 0.7053 -0.7084
vn 0.1086 0.5672 -0.8164
vn 0.2158 0.8929 -0.3952
vn 0.2332 0.9724 -0.0047
vn 0.2114 0.8407 0.4986
vn 0.5362 0.7239 0.4341
vn 0.6140 0.7893 -0.0094
vn 0.5575 0.7416 -0.3731
vn 0.4895 0.6746 -0.5525
vn 0.2088 0.7506 -0.6269
vn 0.9486 0.1818 -0.2589
vn 0.9832 0.1706 0.0645
vn 0.9679 -0.1309 -0.2144
vn 0.9842 -0.1492 0.0957
vn 0.7191 0.4598 -0.5211
vn 0.8258 0.4724 -0.3080
vn 0.8791 0.4760 0.0239
vn 0.8171 0.4050 0.4103
vn 0.8813 0.1551 0.4463
vn 0.8704 -0.1617 0.4650
vn 0.7756 -0.4470 0.4457
vn 0.8474 -0.5145 0.1312
vn 0.8444 -0.5089 -0.1672
vn 0.7820 -0.4824 -0.3947
vn 0.8583 -0.1214 -0.4987
vn 0.8209 0.2013 -0.5345
vn 0.1806 -0.9804 -0.0786
vn 0.1607 -0.9818 -0.1015
vn 0.1488 -0.9784 0.1435
vn 0.5095 -0.7887 -0.3441
vn 0.5440 -0.8308 -0.1171
vn 0.5063 -0.8464 0.1648
vn 0.4448 -0.7758 0.4475
vn 0.1542 -0.8626 0.4818
vn 0.1482 -0.9172 -0.3698
vn 0.3082 0.2745 -0.9109
vn 0.3444 -0.1614 -0.9248
vn 0.2408 0.5577 -0.7943
vn 0.4461 0.4620 -0.7665
vn 0.5707 0.2336 -0.7872
vn 0.6232 -0.1271 -0.7717
vn 0.5828 -0.4680 -0.6643
vn 0.2684 -0.6184 -0.7387
vn 0.1783 0.1347 0.9747
vn 0.1652 -0.1814 0.9694
vn 0.5146 0.4458 0.7324
vn 0.1947 0.4737 0.8589
vn 0.1626 -0.5423 0.8243
vn 0.4611 -0.5075 0.7279
vn 0.5466 -0.1746 0.8190
vn 0.5630 0.1438 0.8139
vn -0.6237 -0.6944 -0.3588
vn 0.3713 0.9094 0.1874
vn 0.2613 -0.9497 0.1726
vn 0.1967 -0.9602 -0.1984
vn 0.8282 -0.5034 -0.2463
vn 0.9077 0.4077 -0.0989
vn 0.3525 0.9329 -0.0733
vn 0.1266 -0.9894 -0.0707
vn 0.8771 -0.4689 -0.1041
vn 0.9668 0.2093 0.1463
vn 0.4792 0.8769 -0.0362
vn 0.7230 0.4682 0.5080
vn 0.2606 0.8353 0.4841
vn 0.5086 -0.0382 0.8601
vn 0.0304 -0.8286 0.5591
vn 0.7786 0.6093 -0.1499
vn 0.9431 -0.2434 0.2265
vn 0.9449 0.2966 -0.1382
vn 0.2169 -0.9590 0.1823
vn -0.2574 -0.6536 -0.7117
vn 0.9983 0.0497 -0.0316
vn 0.8646 -0.1939 0.4636
vn -0.8996 -0.4306 -0.0726
vn -0.0083 0.9128 -0.4083
vn 0.8049 0.5871 0.0860
vn -0.8432 0.2659 -0.4672
vn 0.0690 -0.9475 0.3122
vn 0.8917 0.4454 -0.0808
vn -0.8177 0.2181 -0.5327
vn -0.0043 -0.8130 0.5822
vn 0.9006 -0.1675 0.4012
vn -0.8741 -0.4854 -0.0191
vn -0.0008 0.7831 -0.6219
vn 0.5223 0.3281 0.7871
vn -0.9781 -0.0954 0.1847
vn -0.4985 0.8624 -0.0882
vn 0.2524 0.6673 0.7007
vn -0.6769 -0.3414 -0.6521
vn -0.1519 -0.2692 0.9510
vn 0.7896 0.6133 0.0173
vn 0.0042 -0.7867 0.6174
vn 0.8248 0.0940 0.5575
vn -0.1273 0.8226 -0.5542
vn -0.9926 -0.1133 0.0432
vn -0.3157 0.6750 -0.6669
vn 0.9811 -0.0291 -0.1915
vn -0.9852 0.0817 -0.1505
vn -0.1566 -0.9092 0.3857
vn 0.9751 -0.2214 0.0125
vn -0.1341 0.5416 -0.8298
vn 0.9828 -0.0586 -0.1754
vn -0.5310 -0.5417 0.6516
vn -0.5917 -0.6815 0.4308
vn -0.1195 0.5938 -0.7957
vn -0.0031 -0.8693 -0.4943
vn 0.9874 0.1414 0.0711
vn -0.0550 0.5625 -0.8250
vn -0.9371 -0.3434 -0.0626
vn 0.2243 -0.1043 0.9689
vn 0.5591 0.6305 0.5384
vn 0.0129 -0.3478 0.9375
vn 0.5048 -0.0394 0.8623
vn -0.5312 -0.6298 -0.5667
vn -0.4954 -0.2838 -0.8210
vn 0.0245 -0.9247 0.3799
vn -0.9400 -0.0199 -0.3406
vn 0.6585 0.7493 -0.0701
vn 0.3662 0.8970 -0.2475
vn -0.9176 -0.3833 -0.1057
vn 0.8738 -0.2089 0.4391
vn -0.0283 0.8690 -0.4941
vn -0.8753 -0.4827 -0.0300
vn 0.8628 -0.1415 0.4853
vn -0.0372 -0.8359 0.5476
vn -0.7924 0.2383 -0.5615
vn 0.8235 0.5674 0.0012
vn 0.3749 0.8892 0.2623
vn 0.9943 0.0627 -0.0857
vn 0.4551 -0.7692 -0.4484
vn -0.5030 -0.7557 -0.4194
vn -0.5187 -0.7044 -0.4845
vn 1.0000 -0.0029 -0.0049
vn -0.9854 0.1358 0.1031
vn 0.9973 0.0601 -0.0431
vn -0.9687 -0.1943 -0.1546
vn 0.9990 -0.0215 0.0397
vn 0.4053 0.9013 0.1529
vn 0.4703 -0.7488 -0.4671
vn -0.4951 -0.2822 0.8217
vn -0.5532 -0.1622 0.8171
vn -0.3991 -0.2465 0.8832
vn 0.4691 -0.8345 -0.2891
vn 0.4256 0.7113 0.5594
vn 0.0854 0.8771 -0.4727
vn -0.4936 -0.7004 -0.5155
vn 0.9377 -0.1189 0.3264
vn -0.9992 0.0321 -0.0230
vn -0.9999 0.0082 -0.0059
vn 0.4993 0.5480 0.6711
vn 0.5309 -0.4913 -0.6905
vn -0.6154 0.4807 0.6247
vn -0.4989 -0.5191 -0.6940
vn -0.4919 -0.5474 -0.6770
vn -0.4844 0.4264 0.7639
vn 0.4698 -0.6216 -0.6268
vn 0.4910 0.5236 0.6963
vn -1.0000 -0.0006 0.0005
vn 0.9981 0.0428 -0.0445
vn -0.3214 -0.4765 -0.8183
vn 0.2543 -0.9669 -0.0216
vn 0.3629 0.7288 0.5807
vn 0.3355 0.8322 0.4415
vn 0.2494 -0.9653 -0.0775
vn 0.8730 -0.1124 0.4745
vn 0.0011 0.9717 -0.2361
vn -0.0059 0.9883 -0.1521
vn -0.0862 0.9756 -0.2019
vn 0.4533 -0.5405 -0.7088
vn 0.4441 0.6121 0.6543
vn -0.4962 0.6008 0.6267
vn -0.4987 -0.5301 -0.6858
vn 0.9991 0.0422 -0.0065
vn 0.9984 0.0248 -0.0501
vn -1.0000 -0.0002 0.0008
vn 0.4790 0.8663 0.1421
vn 0.5071 -0.7630 -0.4008
vn -0.4849 0.8534 0.1914
vn -0.4960 -0.8105 -0.3117
vn 0.9984 0.0319 -0.0460
vn -1.0000 -0.0004 0.0008
vn 0.5390 0.6578 0.5261
vn 0.5096 -0.7347 -0.4477
vn -0.5113 0.7818 0.3569
vn -0.4942 -0.6893 -0.5298
vn 0.2821 0.9563 0.0765
vn 0.1816 -0.9832 0.0202
vn 0.7539 -0.3391 0.5628
vn 0.9088 -0.0972 0.4058
vn 0.8391 0.5429 0.0335
vn 0.5999 0.7948 0.0921
vn 0.5513 -0.8343 -0.0000
vn -0.2158 0.8929 -0.3952
vn -0.2309 0.9730 -0.0026
vn -0.2114 0.8407 0.4986
vn -0.5934 0.7171 0.3657
vn -0.6038 0.7971 0.0039
vn -0.5368 0.7678 -0.3497
vn -0.4895 0.6746 -0.5525
vn -0.2088 0.7506 -0.6269
vn -0.9488 0.1900 -0.2522
vn -0.9829 0.1719 0.0657
vn -0.9669 -0.1341 -0.2169
vn -0.9843 -0.1466 0.0981
vn -0.7198 0.4412 -0.5359
vn -0.8218 0.4872 -0.2955
vn -0.8739 0.4848 0.0339
vn -0.8171 0.4050 0.4103
vn -0.8793 0.1584 0.4492
vn -0.8717 -0.1659 0.4611
vn -0.7717 -0.4987 0.3948
vn -0.8452 -0.5193 0.1267
vn -0.8441 -0.5094 -0.1677
vn -0.7820 -0.4824 -0.3947
vn -0.8572 -0.1236 -0.4999
vn -0.8229 0.2097 -0.5281
vn -0.1607 -0.9818 -0.1015
vn -0.1806 -0.9804 -0.0786
vn -0.1564 -0.9765 0.1485
vn -0.4800 -0.7943 -0.3725
vn -0.5169 -0.8425 -0.1518
vn -0.4664 -0.8756 0.1262
vn -0.4448 -0.7758 0.4475
vn -0.1542 -0.8626 0.4818
vn -0.2261 -0.9220 -0.3144
vn -0.3148 0.2794 -0.9071
vn -0.3250 -0.1799 -0.9284
vn -0.2669 0.5681 -0.7785
vn -0.4934 0.5045 -0.7086
vn -0.5804 0.2495 -0.7751
vn -0.6137 -0.1420 -0.7766
vn -0.5175 -0.5489 -0.6564
vn -0.2683 -0.6184 -0.7387
vn -0.1733 0.1395 0.9749
vn -0.1703 -0.1865 0.9676
vn -0.5492 0.4099 0.7283
vn -0.1876 0.4801 0.8569
vn -0.1626 -0.5423 0.8243
vn -0.4611 -0.5075 0.7279
vn -0.5518 -0.1809 0.8141
vn -0.5611 0.1458 0.8148
vn 0.6237 -0.6944 -0.3588
vn -0.1950 0.9262 0.3227
vn -0.4737 -0.8763 -0.0878
vn -0.3951 -0.8996 -0.1859
vn -0.9415 -0.3209 -0.1025
vn -0.8086 0.5426 -0.2275
vn -0.2204 0.9660 -0.1349
vn -0.4791 -0.8755 -0.0623
vn -0.9912 -0.1188 -0.0587
vn -0.6295 0.7253 -0.2788
vn -0.1592 0.9730 -0.1674
vn -0.5685 0.3053 0.7640
vn -0.2965 0.8263 0.4790
vn -0.4793 -0.3434 0.8077
vn -0.0541 -0.8343 0.5487
vn -0.7203 0.6321 0.2857
vn -0.8780 -0.4745 0.0623
vn 0.9427 0.2388 0.2329
vn -0.6436 -0.7320 -0.2235
vn 0.9409 0.0964 -0.3247
vn -0.5008 0.7219 -0.4775
vn -0.8943 -0.4474 -0.0031
vn 0.9070 -0.1532 -0.3923
vn 0.0009 0.8358 0.5491
vn -0.7980 0.2034 0.5674
vn 0.8507 0.5246 0.0323
vn -0.0845 -0.7058 -0.7034
vn -0.8817 0.2879 0.3739
vn 0.8409 0.5103 -0.1802
vn -0.0155 -0.9212 -0.3888
vn -0.8966 -0.4295 0.1074
vn 0.8597 -0.2239 -0.4592
vn 0.0007 0.9389 0.3443
vn -0.4863 -0.5078 0.7111
vn 0.9810 -0.1925 -0.0247
vn 0.5181 0.5329 0.6690
vn -0.6106 0.2208 0.7605
vn 0.6450 0.3881 -0.6583
vn 0.5356 -0.7579 0.3724
vn -0.7899 -0.0480 0.6114
vn 0.8234 0.3335 -0.4591
vn -0.0042 -0.9372 -0.3487
vn -0.8666 -0.3048 0.3950
vn 0.2586 0.9504 0.1731
vn 0.9901 -0.0810 -0.1143
vn 0.6862 0.7267 0.0323
vn -0.9874 0.1333 -0.0848
vn 0.9656 0.2600 0.0109
vn 0.1453 -0.8012 -0.5804
vn -0.9888 -0.0317 -0.1460
vn 0.1202 0.9925 0.0238
vn -0.9894 0.1041 -0.1015
vn 0.5294 -0.8238 -0.2025
vn 0.5457 -0.7252 -0.4198
vn 0.2122 0.2577 -0.9426
vn -0.9803 -0.0018 0.1976
vn 0.0419 0.9980 0.0473
vn 0.9249 -0.1117 -0.3634
vn -0.2595 -0.1692 0.9508
vn -0.5591 0.6305 0.5384
vn -0.0516 -0.4039 0.9134
vn -0.4382 -0.0841 0.8949
vn 0.4784 0.1755 -0.8604
vn 0.5887 0.3909 -0.7075
vn -0.0637 -0.7130 -0.6983
vn 0.8871 0.4528 0.0896
vn -0.8081 0.1620 0.5663
vn -0.0101 0.8048 0.5935
vn 0.9142 -0.0834 -0.3966
vn -0.8826 -0.4701 -0.0064
vn 0.0461 0.8485 0.5271
vn 0.8709 -0.2158 -0.4416
vn -0.8953 -0.4399 0.0703
vn -0.0814 -0.7773 -0.6239
vn 0.7542 0.6262 -0.1975
vn -0.8074 0.2725 0.5234
vn -0.5871 0.5256 -0.6157
vn -0.9941 -0.0663 -0.0854
vn -0.5065 -0.7028 0.4996
vn 0.6984 -0.5366 0.4736
vn 0.6594 -0.3959 0.6391
vn 0.4806 0.5202 -0.7060
vn -0.5090 0.8120 0.2857
vn -0.9957 -0.0204 -0.0905
vn 0.9848 -0.1530 0.0824
vn -0.9992 0.0201 0.0342
vn -0.5968 0.6341 -0.4917
vn -0.3785 -0.6988 0.6070
vn 0.6475 0.2691 0.7130
vn 0.5516 0.0196 0.8339
vn 0.5503 0.1742 0.8166
vn -0.3202 -0.7800 0.5377
vn -0.5826 0.8075 -0.0923
vn -0.0410 0.8795 -0.4741
vn 0.7538 -0.6046 0.2572
vn -0.9657 -0.0012 0.2596
vn 0.9995 -0.0101 -0.0296
vn 0.9996 -0.0064 -0.0285
vn -0.4987 0.8263 -0.2617
vn -0.5000 -0.8476 0.1776
vn 0.4999 0.8401 -0.2108
vn 0.5000 -0.8452 0.1886
vn 0.4926 -0.8363 0.2407
vn 0.6131 0.7497 -0.2490
vn -0.4884 -0.8616 0.1384
vn -0.5517 0.8229 -0.1360
vn 1.0000 0.0002 0.0008
vn -0.9978 -0.0177 -0.0635
vn -0.1811 -0.5752 -0.7977
vn -0.0585 -0.6075 0.7922
vn -0.2103 0.9747 0.0757
vn -0.2933 0.8445 0.4481
vn -0.2494 -0.9646 0.0861
vn -0.8885 -0.0724 0.4531
vn -0.0000 -0.1441 -0.9896
vn -0.4991 -0.8376 0.2219
vn -0.4988 0.8199 -0.2810
vn 0.4988 0.8199 -0.2810
vn 0.4991 -0.8376 0.2219
vn -0.9995 -0.0101 -0.0296
vn -0.9970 -0.0393 -0.0664
vn 1.0000 0.0007 0.0005
vn -0.4943 0.5330 -0.6867
vn -0.5122 -0.7094 0.4842
vn 0.4984 0.5726 -0.6509
vn 0.4968 -0.6258 0.6013
vn -0.9973 -0.0282 -0.0676
vn 1.0000 0.0006 0.0007
vn -0.4543 0.6428 -0.6168
vn -0.5142 -0.7522 0.4120
vn 0.4916 0.7417 -0.4563
vn 0.4953 -0.7636 0.4142
vn -0.2691 0.9600 0.0768
vn -0.2653 -0.9613 -0.0743
vn -0.8997 -0.0692 0.4309
vn -0.7388 -0.3400 0.5819
vn -0.8391 0.5429 0.0335
vn -0.5488 0.8323 0.0777
vn -0.5513 -0.8343 -0.0000
vn -0.9862 0.1563 0.0549
vn 0.8586 -0.1644 -0.4856
vn -0.7311 0.6769 0.0855
vn 0.2554 0.7066 -0.6599
vt 0.500000 0.375000
vt 0.437500 0.437500
vt 0.437500 0.375000
vt 0.562500 0.437500
vt 0.500000 0.437500
vt 0.625000 0.375000
vt 0.562500 0.375000
vt 0.625000 0.500000
vt 0.562500 0.500000
vt 0.500000 0.500000
vt 0.437500 0.500000
vt 0.375000 0.500000
vt 0.375000 0.437500
vt 0.375000 0.375000
vt 0.437500 0.562500
vt 0.500000 0.625000
vt 0.437500 0.625000
vt 0.500000 0.562500
vt 0.562500 0.625000
vt 0.500000 0.687500
vt 0.437500 0.687500
vt 0.562500 0.687500
vt 0.375000 0.562500
vt 0.562500 0.562500
vt 0.625000 0.625000
vt 0.625000 0.687500
vt 0.625000 0.750000
vt 0.562500 0.750000
vt 0.500000 0.750000
vt 0.437500 0.750000
vt 0.375000 0.750000
vt 0.375000 0.687500
vt 0.375000 0.625000
vt 0.500000 0.875000
vt 0.468750 0.875000
vt 0.437500 0.875000
vt 0.500000 0.812500
vt 0.562500 0.875000
vt 0.437500 0.812500
vt 0.375000 0.812500
vt 0.562500 0.812500
vt 0.625000 0.812500
vt 0.375000 0.875000
vt 0.250000 0.562500
vt 0.312500 0.625000
vt 0.250000 0.625000
vt 0.312500 0.687500
vt 0.250000 0.687500
vt 0.250000 0.500000
vt 0.312500 0.562500
vt 0.312500 0.500000
vt 0.312500 0.750000
vt 0.250000 0.750000
vt 0.687500 0.562500
vt 0.750000 0.625000
vt 0.687500 0.625000
vt 0.750000 0.687500
vt 0.687500 0.687500
vt 0.625000 0.562500
vt 0.687500 0.500000
vt 0.750000 0.562500
vt 0.687500 0.750000
vt 1.000000 0.500000
vt 0.833333 1.000000
vt 0.833333 0.500000
vt 0.666667 1.000000
vt 0.666667 0.500000
vt 0.500000 1.000000
vt 0.500000 0.500000
vt 0.333333 0.500000
vt 0.042154 0.130000
vt 0.250000 0.010000
vt 0.457846 0.130000
vt 0.333333 1.000000
vt 0.166667 0.500000
vt 0.166667 1.000000
vt -0.000000 0.500000
vt 0.542154 0.130000
vt 0.542154 0.370000
vt 0.957846 0.370000
vt 1.000000 0.828637
vt 0.875000 1.000000
vt 0.875000 0.828637
vt 0.625000 0.828637
vt 0.500000 1.000000
vt 0.500000 0.828637
vt 0.625000 0.645722
vt 0.500000 0.500000
vt 0.750000 0.500000
vt 0.875000 0.645722
vt 0.875000 0.500000
vt 0.500000 0.645722
vt 0.750000 0.828637
vt 0.750000 0.645722
vt 1.000000 0.645722
vt 0.750000 1.000000
vt 1.000000 1.000000
vt 0.625000 1.000000
vt 0.749520 0.964446
vt 0.653402 0.965669
vt 0.844587 0.863513
vt 0.844268 0.965118
vt 0.647775 0.863148
vt 0.750840 0.864057
vt 0.749520 0.964446
vt 0.750840 0.864057
vt 0.647775 0.863149
vt 0.844587 0.863513
vt 0.844267 0.965117
vt 0.653402 0.965669
vt 0.749520 0.964446
vt 0.844268 0.965117
vt 0.750840 0.864057
vt 0.653402 0.965669
vt 0.844587 0.863513
vt 0.000000 0.000000
vt 0.833333 0.500000
vt -0.000000 1.000000
vt 0.500000 0.500000
vt 0.500000 0.500000
vt 0.166667 0.500000
vt -0.000000 0.500000
vt 0.833333 0.500000
vt 0.042154 0.370000
vt 0.457846 0.370000
vt 0.750000 0.010000
vt 0.333333 0.500000
vt 0.457846 0.250000
vt 0.625000 0.437500
vt 0.750000 0.500000
vt 0.957846 0.130000
vt 0.250000 0.490000
vt 0.625000 0.875000
vt 0.750000 0.750000
vt 0.250000 0.490000
vt 0.750000 0.490000
vt 0.750000 0.490000
s 0
f 26/1/1 28/2/1 25/3/1
f 26/1/2 30/4/2 29/5/2
f 7/6/3 30/4/3 27/7/3
f 30/4/4 4/8/4 9/9/4
f 29/5/5 9/9/5 10/10/5
f 28/2/6 10/10/6 11/11/6
f 28/2/7 3/12/7 5/13/7
f 25/3/8 5/13/8 6/14/8
f 31/15/9 35/16/9 34/17/9
f 32/18/10 36/19/10 35/16/10
f 34/17/11 38/20/11 37/21/11
f 35/16/12 39/22/12 38/20/12
f 3/12/13 31/15/13 14/23/13
f 11/11/14 32/18/14 31/15/14
f 10/10/15 33/24/15 32/18/15
f 4/8/16 33/24/16 9/9/16
f 33/24/17 16/25/17 36/19/17
f 36/19/18 17/26/18 39/22/18
f 39/22/19 2/27/19 18/28/19
f 38/20/20 18/28/20 19/29/20
f 37/21/21 19/29/21 20/30/21
f 37/21/22 1/31/22 12/32/22
f 13/33/23 37/21/23 12/32/23
f 14/23/24 34/17/24 13/33/24
f 44/34/25 58/35/25 43/36/25
f 41/37/26 45/38/26 44/34/26
f 1/31/27 40/39/27 22/40/27
f 20/30/28 41/37/28 40/39/28
f 19/29/29 42/41/29 41/37/29
f 2/27/30 42/41/30 18/28/30
f 23/42/31 45/38/31 42/41/31
f 22/40/32 43/36/32 21/43/32
f 46/44/33 49/45/33 48/46/33
f 48/46/34 51/47/34 50/48/34
f 6/49/35 47/50/35 46/44/35
f 5/51/36 14/23/36 47/50/36
f 47/50/37 13/33/37 49/45/37
f 49/45/38 12/32/38 51/47/38
f 51/47/39 1/31/39 22/52/39
f 51/47/40 21/53/40 50/48/40
f 52/54/41 55/55/41 54/56/41
f 54/56/42 57/57/42 56/58/42
f 4/8/43 52/54/43 15/59/43
f 8/60/44 53/61/44 52/54/44
f 57/57/45 23/62/45 56/58/45
f 56/58/46 2/27/46 17/26/46
f 16/25/47 56/58/47 17/26/47
f 15/59/48 54/56/48 16/25/48
f 59/63/49 62/64/49 61/65/49
f 61/65/50 64/66/50 63/67/50
f 63/67/51 66/68/51 65/69/51
f 66/68/52 67/70/52 65/69/52
f 68/71/53 66/72/53 64/73/53
f 68/74/54 69/75/54 67/70/54
f 70/76/55 59/77/55 69/75/55
f 67/78/56 69/79/56 61/80/56
f 86/81/57 97/82/57 99/83/57
f 100/84/58 80/85/58 90/86/58
f 84/87/59 79/88/59 77/8/59
f 75/89/60 84/87/60 77/8/60
f 82/90/61 75/89/61 73/91/61
f 71/63/62 82/90/62 73/91/62
f 100/84/63 85/92/63 84/87/63
f 101/93/64 84/87/64 83/94/64
f 99/83/65 83/94/65 82/90/65
f 81/95/66 99/83/66 82/90/66
f 97/82/67 93/96/67 96/96/67
f 72/97/68 92/82/68 97/82/68
f 98/98/69 93/96/69 94/98/69
f 80/85/70 94/98/70 95/85/70
f 76/99/71 97/82/71 96/96/71
f 78/100/72 96/96/72 98/98/72
f 87/101/73 97/82/73 74/102/73
f 78/100/74 100/84/74 89/103/74
f 89/103/75 101/93/75 88/104/75
f 87/101/76 101/93/76 99/83/76
f 150/105/77 104/100/77 103/99/77
f 151/106/78 107/103/78 152/107/78
f 154/108/79 102/102/79 105/101/79
f 150/105/80 102/102/80 153/109/80
f 151/106/81 105/101/81 106/104/81
f 152/107/82 104/100/82 149/110/82
f 155/111/83 108/102/83 156/112/83
f 158/113/84 111/101/84 112/104/84
f 160/114/85 113/103/85 110/100/85
f 155/111/86 110/100/86 109/99/86
f 158/113/87 113/103/87 159/107/87
f 156/112/88 111/101/88 157/115/88
f 110/100/89 115/99/89 109/99/89
f 112/104/90 133/103/90 113/103/90
f 108/102/91 117/101/91 111/101/91
f 108/102/92 115/99/92 114/102/92
f 111/101/93 118/104/93 112/104/93
f 110/100/94 119/103/94 116/100/94
f 114/102/95 121/99/95 120/102/95
f 117/101/96 124/104/96 118/104/96
f 119/103/97 122/100/97 116/100/97
f 115/99/98 122/100/98 121/99/98
f 119/103/99 124/104/99 125/103/99
f 117/101/100 120/102/100 123/101/100
f 124/104/101 131/103/101 125/103/101
f 123/101/102 126/102/102 129/101/102
f 121/99/103 126/102/103 120/102/103
f 124/104/104 129/101/104 130/104/104
f 125/103/105 128/100/105 122/100/105
f 121/99/106 128/100/106 127/99/106
f 132/104/107 137/103/107 133/103/107
f 118/104/108 132/104/108 112/104/108
f 119/103/109 134/104/109 118/104/109
f 119/103/110 133/103/110 135/103/110
f 139/103/111 141/103/111 143/103/111
f 135/103/112 137/103/112 139/103/112
f 135/103/113 138/104/113 134/104/113
f 134/104/114 136/104/114 132/104/114
f 141/103/115 142/104/115 143/103/115
f 139/103/116 142/104/116 138/104/116
f 138/104/117 140/104/117 136/104/117
f 136/104/118 141/103/118 137/103/118
f 94/98/119 146/96/119 147/98/119
f 91/97/120 145/82/120 92/82/120
f 94/98/121 148/85/121 95/85/121
f 92/82/122 146/96/122 93/96/122
f 128/100/123 130/104/123 127/99/123
f 127/99/124 129/101/124 126/102/124
f 89/103/125 149/110/125 78/100/125
f 88/104/126 154/108/126 151/106/126
f 74/102/127 150/105/127 153/109/127
f 87/101/128 153/109/128 154/108/128
f 88/104/129 152/107/129 89/103/129
f 78/100/130 150/105/130 76/99/130
f 102/102/131 157/115/131 105/101/131
f 106/104/132 159/107/132 107/103/132
f 103/99/133 160/114/133 155/111/133
f 104/100/134 159/107/134 160/114/134
f 106/104/135 157/115/135 158/113/135
f 103/99/136 156/112/136 102/102/136
f 162/97/137 163/65/137 161/63/137
f 163/65/138 166/66/138 165/67/138
f 165/67/139 168/68/139 167/69/139
f 168/68/140 169/70/140 167/69/140
f 170/74/141 175/68/141 176/74/141
f 368/74/142 369/75/142 416/116/142
f 170/74/143 171/75/143 169/70/143
f 190/67/144 185/65/144 191/117/144
f 177/76/145 182/74/145 183/76/145
f 164/64/146 174/66/146 166/66/146
f 164/64/147 172/97/147 173/64/147
f 166/66/148 175/68/148 168/68/148
f 182/71/149 181/72/149 180/73/149
f 174/66/150 181/68/150 175/68/150
f 173/64/151 178/97/151 179/64/151
f 177/76/152 178/118/152 172/118/152
f 175/68/153 182/74/153 176/74/153
f 173/64/154 180/66/154 174/66/154
f 188/70/155 210/75/155 209/70/155
f 192/75/156 188/70/156 193/70/156
f 191/117/157 184/63/157 194/63/157
f 190/67/158 187/69/158 186/67/158
f 192/75/159 184/77/159 189/75/159
f 193/70/160 187/69/160 195/119/160
f 221/70/161 195/119/161 219/120/161
f 218/121/162 194/122/162 192/75/162
f 217/67/163 195/119/163 190/67/163
f 222/63/164 191/117/164 194/63/164
f 218/121/165 193/70/165 221/70/165
f 220/123/166 190/67/166 191/117/166
f 183/76/167 178/118/167 200/116/167
f 182/116/168 197/116/168 196/116/168
f 181/116/169 198/116/169 197/116/169
f 196/116/170 183/124/170 182/71/170
f 199/116/171 178/116/171 200/116/171
f 199/116/172 201/116/172 179/116/172
f 198/116/173 202/116/173 203/116/173
f 179/125/174 202/73/174 180/73/174
f 206/80/175 208/126/175 210/79/175
f 187/69/176 207/67/176 186/67/176
f 185/65/177 205/63/177 184/63/177
f 189/75/178 205/77/178 210/75/178
f 187/69/179 209/70/179 208/69/179
f 186/67/180 206/65/180 185/65/180
f 163/65/181 214/67/181 211/123/181
f 171/75/182 212/127/182 169/70/182
f 161/63/183 211/123/183 213/63/183
f 165/67/184 216/69/184 214/67/184
f 161/77/185 215/121/185 171/75/185
f 169/70/186 216/69/186 167/69/186
f 211/123/187 217/67/187 220/123/187
f 215/121/188 221/70/188 212/127/188
f 213/63/189 220/123/189 222/63/189
f 214/67/190 219/120/190 217/67/190
f 215/121/191 222/77/191 218/121/191
f 212/127/192 219/120/192 216/69/192
f 204/116/193 73/116/193 201/116/193
f 203/116/194 77/116/194 79/116/194
f 201/125/195 73/125/195 75/128/195
f 145/82/196 225/96/196 146/96/196
f 146/96/197 226/98/197 147/98/197
f 145/82/198 223/97/198 224/82/198
f 147/98/199 227/85/199 148/85/199
f 248/2/200 26/1/200 25/3/200
f 26/1/201 250/4/201 27/7/201
f 250/4/202 7/6/202 27/7/202
f 250/4/203 231/8/203 233/129/203
f 249/5/204 234/9/204 250/4/204
f 248/2/205 235/10/205 249/5/205
f 230/12/206 248/2/206 232/13/206
f 232/13/207 25/3/207 6/14/207
f 251/15/208 255/16/208 252/18/208
f 252/18/209 256/19/209 253/24/209
f 254/17/210 258/20/210 255/16/210
f 255/16/211 259/22/211 256/19/211
f 230/12/212 251/15/212 236/11/212
f 236/11/213 252/18/213 235/10/213
f 235/10/214 253/24/214 234/9/214
f 253/24/215 231/8/215 234/9/215
f 253/24/216 241/25/216 240/59/216
f 256/19/217 242/26/217 241/25/217
f 259/22/218 229/27/218 242/26/218
f 258/20/219 243/28/219 259/22/219
f 257/21/220 244/29/220 258/20/220
f 228/31/221 257/21/221 237/32/221
f 238/33/222 257/21/222 254/17/222
f 239/23/223 254/17/223 251/15/223
f 261/37/224 45/38/224 262/41/224
f 228/31/225 260/39/225 245/30/225
f 245/30/226 261/37/226 244/29/226
f 244/29/227 262/41/227 243/28/227
f 262/41/228 229/27/228 243/28/228
f 45/38/229 247/42/229 262/41/229
f 246/40/230 43/36/230 260/39/230
f 46/44/231 264/45/231 263/50/231
f 48/46/232 265/47/232 264/45/232
f 6/49/233 263/50/233 232/51/233
f 232/51/234 239/23/234 230/12/234
f 263/50/235 238/33/235 239/23/235
f 264/45/236 237/32/236 238/33/236
f 265/47/237 228/31/237 237/32/237
f 21/53/238 265/47/238 50/48/238
f 266/54/239 55/55/239 53/61/239
f 267/56/240 57/57/240 55/55/240
f 231/8/241 266/54/241 233/60/241
f 233/60/242 53/61/242 7/130/242
f 247/62/243 57/57/243 268/58/243
f 229/27/244 268/58/244 242/26/244
f 241/25/245 268/58/245 267/56/245
f 240/59/246 267/56/246 266/54/246
f 269/63/247 272/64/247 270/97/247
f 271/65/248 274/66/248 272/64/248
f 273/67/249 276/68/249 274/66/249
f 277/70/250 276/68/250 275/69/250
f 278/71/251 280/124/251 274/73/251
f 279/75/252 278/74/252 277/70/252
f 269/77/253 280/76/253 279/75/253
f 271/80/254 277/78/254 273/131/254
f 86/81/255 297/82/255 72/97/255
f 300/84/256 80/85/256 298/98/256
f 79/88/257 289/87/257 285/8/257
f 283/89/258 289/87/258 288/94/258
f 283/89/259 287/90/259 281/91/259
f 71/63/260 287/90/260 81/95/260
f 85/92/261 300/84/261 289/87/261
f 289/87/262 301/93/262 288/94/262
f 288/94/263 299/83/263 287/90/263
f 81/95/264 299/83/264 86/81/264
f 294/96/265 297/82/265 296/96/265
f 293/82/266 72/97/266 297/82/266
f 298/98/267 294/96/267 296/96/267
f 80/85/268 295/98/268 298/98/268
f 284/99/269 297/82/269 282/102/269
f 286/100/270 296/96/270 284/99/270
f 297/82/271 290/101/271 282/102/271
f 300/84/272 286/100/272 292/103/272
f 301/93/273 292/103/273 291/104/273
f 290/101/274 301/93/274 291/104/274
f 348/105/275 304/100/275 347/110/275
f 307/103/276 349/106/276 350/107/276
f 352/108/277 302/102/277 351/109/277
f 302/102/278 348/105/278 351/109/278
f 349/106/279 305/101/279 352/108/279
f 304/100/280 350/107/280 347/110/280
f 308/102/281 353/111/281 354/112/281
f 356/113/282 311/101/282 355/115/282
f 358/114/283 313/103/283 357/107/283
f 353/111/284 310/100/284 358/114/284
f 313/103/285 356/113/285 357/107/285
f 311/101/286 354/112/286 355/115/286
f 315/99/287 310/100/287 309/99/287
f 333/103/288 312/104/288 313/103/288
f 317/101/289 308/102/289 311/101/289
f 308/102/290 315/99/290 309/99/290
f 318/104/291 311/101/291 312/104/291
f 310/100/292 319/103/292 313/103/292
f 314/102/293 321/99/293 315/99/293
f 324/104/294 317/101/294 318/104/294
f 322/100/295 319/103/295 316/100/295
f 315/99/296 322/100/296 316/100/296
f 319/103/297 324/104/297 318/104/297
f 317/101/298 320/102/298 314/102/298
f 331/103/299 324/104/299 325/103/299
f 323/101/300 326/102/300 320/102/300
f 326/102/301 321/99/301 320/102/301
f 324/104/302 329/101/302 323/101/302
f 328/100/303 325/103/303 322/100/303
f 321/99/304 328/100/304 322/100/304
f 337/103/305 332/104/305 333/103/305
f 332/104/306 318/104/306 312/104/306
f 334/104/307 319/103/307 318/104/307
f 319/103/308 333/103/308 313/103/308
f 339/103/309 341/103/309 337/103/309
f 335/103/310 337/103/310 333/103/310
f 338/104/311 335/103/311 334/104/311
f 336/104/312 334/104/312 332/104/312
f 341/103/313 342/104/313 340/104/313
f 342/104/314 339/103/314 338/104/314
f 340/104/315 338/104/315 336/104/315
f 341/103/316 336/104/316 337/103/316
f 295/98/317 345/96/317 294/96/317
f 344/82/318 91/97/318 293/82/318
f 148/85/319 295/98/319 95/85/319
f 345/96/320 293/82/320 294/96/320
f 328/100/321 330/104/321 331/103/321
f 327/99/322 329/101/322 330/104/322
f 347/110/323 292/103/323 286/100/323
f 291/104/324 352/108/324 290/101/324
f 282/102/325 348/105/325 284/99/325
f 290/101/326 351/109/326 282/102/326
f 350/107/327 291/104/327 292/103/327
f 348/105/328 286/100/328 284/99/328
f 355/115/329 302/102/329 305/101/329
f 357/107/330 306/104/330 307/103/330
f 303/99/331 358/114/331 304/100/331
f 304/100/332 357/107/332 307/103/332
f 306/104/333 355/115/333 305/101/333
f 354/112/334 303/99/334 302/102/334
f 361/65/335 360/97/335 359/63/335
f 361/65/336 364/66/336 362/64/336
f 363/67/337 366/68/337 364/66/337
f 367/70/338 366/68/338 365/69/338
f 368/74/339 373/68/339 366/68/339
f 416/116/340 359/63/340 360/97/340
f 162/97/341 171/75/341 415/116/341
f 381/65/342 386/67/342 387/117/342
f 177/76/343 379/74/343 374/74/343
f 372/66/344 362/64/344 364/66/344
f 362/64/345 370/97/345 360/97/345
f 373/68/346 364/66/346 366/68/346
f 379/71/347 183/124/347 375/132/347
f 378/68/348 372/66/348 373/68/348
f 371/64/349 375/97/349 370/97/349
f 375/118/350 177/76/350 370/118/350
f 379/74/351 373/68/351 374/74/351
f 377/66/352 371/64/352 372/66/352
f 384/70/353 399/75/353 385/75/353
f 384/70/354 388/75/354 389/70/354
f 380/63/355 387/117/355 390/63/355
f 386/67/356 383/69/356 391/119/356
f 388/75/357 380/77/357 390/122/357
f 383/69/358 389/70/358 391/119/358
f 391/119/359 410/70/359 408/120/359
f 407/121/360 390/122/360 411/77/360
f 406/67/361 391/119/361 408/120/361
f 411/63/362 387/117/362 409/123/362
f 389/70/363 407/121/363 410/70/363
f 409/123/364 386/67/364 406/67/364
f 183/76/365 200/116/365 375/118/365
f 197/116/366 379/116/366 196/116/366
f 198/116/367 378/116/367 197/116/367
f 196/116/368 379/71/368 183/124/368
f 199/116/369 375/116/369 376/116/369
f 392/116/370 199/116/370 376/116/370
f 198/116/371 393/116/371 377/116/371
f 393/73/372 376/125/372 377/73/372
f 399/79/373 397/126/373 395/80/373
f 396/67/374 383/69/374 382/67/374
f 394/63/375 381/65/375 380/63/375
f 385/75/376 394/77/376 380/77/376
f 383/69/377 398/70/377 384/70/377
f 395/65/378 382/67/378 381/65/378
f 361/65/379 403/67/379 363/67/379
f 401/127/380 369/75/380 367/70/380
f 359/63/381 400/123/381 361/65/381
f 363/67/382 405/69/382 365/69/382
f 404/121/383 359/77/383 369/75/383
f 405/69/384 367/70/384 365/69/384
f 400/123/385 406/67/385 403/67/385
f 410/70/386 404/121/386 401/127/386
f 402/63/387 409/123/387 400/123/387
f 403/67/388 408/120/388 405/69/388
f 404/121/389 411/77/389 402/77/389
f 408/120/390 401/127/390 405/69/390
f 281/116/391 204/116/391 392/116/391
f 203/116/392 285/116/392 393/116/392
f 283/128/393 281/125/393 392/125/393
f 413/96/394 344/82/394 345/96/394
f 414/98/395 345/96/395 346/98/395
f 344/82/396 223/97/396 144/97/396
f 227/85/397 346/98/397 148/85/397
f 415/116/398 176/74/398 177/76/398
f 416/116/399 374/74/399 368/74/399
f 172/118/400 415/116/400 177/76/400
f 416/116/401 370/118/401 177/76/401
f 26/1/402 29/5/402 28/2/402
f 26/1/403 27/7/403 30/4/403
f 7/6/404 8/129/404 30/4/404
f 30/4/405 8/129/405 4/8/405
f 29/5/406 30/4/406 9/9/406
f 28/2/407 29/5/407 10/10/407
f 28/2/408 11/11/408 3/12/408
f 25/3/409 28/2/409 5/13/409
f 31/15/410 32/18/410 35/16/410
f 32/18/411 33/24/411 36/19/411
f 34/17/412 35/16/412 38/20/412
f 35/16/413 36/19/413 39/22/413
f 3/12/414 11/11/414 31/15/414
f 11/11/415 10/10/415 32/18/415
f 10/10/416 9/9/416 33/24/416
f 4/8/417 15/59/417 33/24/417
f 33/24/418 15/59/418 16/25/418
f 36/19/419 16/25/419 17/26/419
f 39/22/420 17/26/420 2/27/420
f 38/20/421 39/22/421 18/28/421
f 37/21/422 38/20/422 19/29/422
f 37/21/423 20/30/423 1/31/423
f 13/33/424 34/17/424 37/21/424
f 14/23/425 31/15/425 34/17/425
f 43/36/426 40/39/426 44/34/426
f 40/39/427 41/37/427 44/34/427
f 41/37/428 42/41/428 45/38/428
f 1/31/429 20/30/429 40/39/429
f 20/30/430 19/29/430 41/37/430
f 19/29/431 18/28/431 42/41/431
f 2/27/432 23/42/432 42/41/432
f 23/42/433 24/133/433 45/38/433
f 22/40/434 40/39/434 43/36/434
f 46/44/435 47/50/435 49/45/435
f 48/46/436 49/45/436 51/47/436
f 6/49/437 5/51/437 47/50/437
f 5/51/438 3/12/438 14/23/438
f 47/50/439 14/23/439 13/33/439
f 49/45/440 13/33/440 12/32/440
f 51/47/441 12/32/441 1/31/441
f 51/47/442 22/52/442 21/53/442
f 52/54/443 53/61/443 55/55/443
f 54/56/444 55/55/444 57/57/444
f 4/8/445 8/60/445 52/54/445
f 8/60/446 7/130/446 53/61/446
f 57/57/447 24/134/447 23/62/447
f 56/58/448 23/62/448 2/27/448
f 16/25/449 54/56/449 56/58/449
f 15/59/450 52/54/450 54/56/450
f 59/63/49 60/97/49 62/64/49
f 61/65/50 62/64/50 64/66/50
f 63/67/51 64/66/51 66/68/51
f 66/68/451 68/74/451 67/70/451
f 64/73/53 62/125/53 68/71/53
f 62/125/53 60/135/53 70/124/53
f 68/71/53 62/125/53 70/124/53
f 68/74/54 70/76/54 69/75/54
f 70/76/55 60/118/55 59/77/55
f 69/79/56 59/136/56 61/80/56
f 61/80/56 63/131/56 67/78/56
f 63/131/56 65/126/56 67/78/56
f 86/81/452 72/97/452 97/82/452
f 100/84/453 98/98/453 80/85/453
f 84/87/454 85/92/454 79/88/454
f 75/89/455 83/94/455 84/87/455
f 82/90/456 83/94/456 75/89/456
f 71/63/457 81/95/457 82/90/457
f 100/84/458 90/86/458 85/92/458
f 101/93/459 100/84/459 84/87/459
f 99/83/460 101/93/460 83/94/460
f 81/95/461 86/81/461 99/83/461
f 97/82/462 92/82/462 93/96/462
f 72/97/463 91/97/463 92/82/463
f 98/98/464 96/96/464 93/96/464
f 80/85/465 98/98/465 94/98/465
f 76/99/466 74/102/466 97/82/466
f 78/100/467 76/99/467 96/96/467
f 87/101/468 99/83/468 97/82/468
f 78/100/469 98/98/469 100/84/469
f 89/103/470 100/84/470 101/93/470
f 87/101/471 88/104/471 101/93/471
f 150/105/472 149/110/472 104/100/472
f 151/106/473 106/104/473 107/103/473
f 154/108/474 153/109/474 102/102/474
f 150/105/475 103/99/475 102/102/475
f 151/106/476 154/108/476 105/101/476
f 152/107/477 107/103/477 104/100/477
f 155/111/478 109/99/478 108/102/478
f 158/113/479 157/115/479 111/101/479
f 160/114/480 159/107/480 113/103/480
f 155/111/481 160/114/481 110/100/481
f 158/113/482 112/104/482 113/103/482
f 156/112/483 108/102/483 111/101/483
f 110/100/484 116/100/484 115/99/484
f 112/104/485 132/104/485 133/103/485
f 108/102/486 114/102/486 117/101/486
f 108/102/487 109/99/487 115/99/487
f 111/101/488 117/101/488 118/104/488
f 110/100/489 113/103/489 119/103/489
f 114/102/490 115/99/490 121/99/490
f 117/101/96 123/101/96 124/104/96
f 119/103/491 125/103/491 122/100/491
f 115/99/492 116/100/492 122/100/492
f 119/103/99 118/104/99 124/104/99
f 117/101/493 114/102/493 120/102/493
f 124/104/494 130/104/494 131/103/494
f 123/101/495 120/102/495 126/102/495
f 121/99/496 127/99/496 126/102/496
f 124/104/497 123/101/497 129/101/497
f 125/103/498 131/103/498 128/100/498
f 121/99/499 122/100/499 128/100/499
f 132/104/107 136/104/107 137/103/107
f 118/104/500 134/104/500 132/104/500
f 119/103/501 135/103/501 134/104/501
f 119/103/502 113/103/502 133/103/502
f 139/103/503 137/103/503 141/103/503
f 135/103/112 133/103/112 137/103/112
f 135/103/113 139/103/113 138/104/113
f 134/104/504 138/104/504 136/104/504
f 141/103/505 140/104/505 142/104/505
f 139/103/506 143/103/506 142/104/506
f 138/104/507 142/104/507 140/104/507
f 136/104/508 140/104/508 141/103/508
f 94/98/509 93/96/509 146/96/509
f 91/97/510 144/97/510 145/82/510
f 94/98/511 147/98/511 148/85/511
f 92/82/512 145/82/512 146/96/512
f 128/100/513 131/103/513 130/104/513
f 127/99/514 130/104/514 129/101/514
f 89/103/515 152/107/515 149/110/515
f 88/104/516 87/101/516 154/108/516
f 74/102/517 76/99/517 150/105/517
f 87/101/518 74/102/518 153/109/518
f 88/104/519 151/106/519 152/107/519
f 78/100/520 149/110/520 150/105/520
f 102/102/521 156/112/521 157/115/521
f 106/104/522 158/113/522 159/107/522
f 103/99/523 104/100/523 160/114/523
f 104/100/524 107/103/524 159/107/524
f 106/104/525 105/101/525 157/115/525
f 103/99/526 155/111/526 156/112/526
f 162/97/527 164/64/527 163/65/527
f 163/65/528 164/64/528 166/66/528
f 165/67/529 166/66/529 168/68/529
f 168/68/530 170/74/530 169/70/530
f 170/74/531 168/68/531 175/68/531
f 368/74/532 367/70/532 369/75/532
f 170/74/533 415/116/533 171/75/533
f 190/67/534 186/67/534 185/65/534
f 177/76/535 176/74/535 182/74/535
f 164/64/536 173/64/536 174/66/536
f 164/64/537 162/97/537 172/97/537
f 166/66/538 174/66/538 175/68/538
f 180/73/539 179/125/539 182/71/539
f 179/125/540 178/132/540 182/71/540
f 178/132/541 183/124/541 182/71/541
f 174/66/542 180/66/542 181/68/542
f 173/64/543 172/97/543 178/97/543
f 177/76/544 183/76/544 178/118/544
f 175/68/545 181/68/545 182/74/545
f 173/64/546 179/64/546 180/66/546
f 188/70/547 189/75/547 210/75/547
f 192/75/548 189/75/548 188/70/548
f 191/117/549 185/65/549 184/63/549
f 190/67/550 195/119/550 187/69/550
f 192/75/551 194/122/551 184/77/551
f 193/70/552 188/70/552 187/69/552
f 221/70/553 193/70/553 195/119/553
f 218/121/554 222/77/554 194/122/554
f 217/67/555 219/120/555 195/119/555
f 222/63/556 220/123/556 191/117/556
f 218/121/557 192/75/557 193/70/557
f 220/123/558 217/67/558 190/67/558
f 182/116/559 181/116/559 197/116/559
f 181/116/560 180/116/560 198/116/560
f 199/116/561 179/116/561 178/116/561
f 199/116/562 204/116/562 201/116/562
f 198/116/563 180/116/563 202/116/563
f 179/125/564 201/125/564 202/73/564
f 210/79/565 205/137/565 206/80/565
f 206/80/566 207/131/566 208/126/566
f 208/126/567 209/78/567 210/79/567
f 187/69/568 208/69/568 207/67/568
f 185/65/569 206/65/569 205/63/569
f 189/75/570 184/77/570 205/77/570
f 187/69/571 188/70/571 209/70/571
f 186/67/572 207/67/572 206/65/572
f 163/65/573 165/67/573 214/67/573
f 171/75/574 215/121/574 212/127/574
f 161/63/575 163/65/575 211/123/575
f 165/67/576 167/69/576 216/69/576
f 161/77/577 213/77/577 215/121/577
f 169/70/578 212/127/578 216/69/578
f 211/123/579 214/67/579 217/67/579
f 215/121/580 218/121/580 221/70/580
f 213/63/581 211/123/581 220/123/581
f 214/67/582 216/69/582 219/120/582
f 215/121/583 213/77/583 222/77/583
f 212/127/584 221/70/584 219/120/584
f 204/116/585 71/116/585 73/116/585
f 203/116/586 202/116/586 77/116/586
f 77/73/587 202/73/587 75/128/587
f 202/73/588 201/125/588 75/128/588
f 145/82/589 224/82/589 225/96/589
f 146/96/197 225/96/197 226/98/197
f 145/82/590 144/97/590 223/97/590
f 147/98/591 226/98/591 227/85/591
f 248/2/592 249/5/592 26/1/592
f 26/1/593 249/5/593 250/4/593
f 250/4/594 233/129/594 7/6/594
f 250/4/595 234/9/595 231/8/595
f 249/5/596 235/10/596 234/9/596
f 248/2/597 236/11/597 235/10/597
f 230/12/598 236/11/598 248/2/598
f 232/13/599 248/2/599 25/3/599
f 251/15/600 254/17/600 255/16/600
f 252/18/601 255/16/601 256/19/601
f 254/17/602 257/21/602 258/20/602
f 255/16/603 258/20/603 259/22/603
f 230/12/604 239/23/604 251/15/604
f 236/11/605 251/15/605 252/18/605
f 235/10/606 252/18/606 253/24/606
f 253/24/607 240/59/607 231/8/607
f 253/24/608 256/19/608 241/25/608
f 256/19/609 259/22/609 242/26/609
f 259/22/610 243/28/610 229/27/610
f 258/20/611 244/29/611 243/28/611
f 257/21/612 245/30/612 244/29/612
f 228/31/613 245/30/613 257/21/613
f 238/33/614 237/32/614 257/21/614
f 239/23/615 238/33/615 254/17/615
f 261/37/616 260/39/616 44/34/616
f 260/39/617 43/36/617 44/34/617
f 261/37/618 44/34/618 45/38/618
f 228/31/619 246/40/619 260/39/619
f 245/30/620 260/39/620 261/37/620
f 244/29/621 261/37/621 262/41/621
f 262/41/622 247/42/622 229/27/622
f 45/38/623 24/133/623 247/42/623
f 246/40/624 21/43/624 43/36/624
f 46/44/625 48/46/625 264/45/625
f 48/46/626 50/48/626 265/47/626
f 6/49/627 46/44/627 263/50/627
f 232/51/628 263/50/628 239/23/628
f 263/50/629 264/45/629 238/33/629
f 264/45/630 265/47/630 237/32/630
f 265/47/631 246/52/631 228/31/631
f 21/53/632 246/52/632 265/47/632
f 266/54/633 267/56/633 55/55/633
f 267/56/634 268/58/634 57/57/634
f 231/8/635 240/59/635 266/54/635
f 233/60/636 266/54/636 53/61/636
f 247/62/637 24/134/637 57/57/637
f 229/27/638 247/62/638 268/58/638
f 241/25/639 242/26/639 268/58/639
f 240/59/640 241/25/640 267/56/640
f 269/63/247 271/65/247 272/64/247
f 271/65/248 273/67/248 274/66/248
f 273/67/249 275/69/249 276/68/249
f 277/70/641 278/74/641 276/68/641
f 270/135/251 272/125/251 280/124/251
f 272/125/251 274/73/251 280/124/251
f 274/73/251 276/72/251 278/71/251
f 279/75/252 280/76/252 278/74/252
f 269/77/253 270/118/253 280/76/253
f 271/80/254 269/136/254 279/79/254
f 279/79/254 277/78/254 271/80/254
f 277/78/254 275/126/254 273/131/254
f 86/81/642 299/83/642 297/82/642
f 300/84/643 90/86/643 80/85/643
f 79/88/644 85/92/644 289/87/644
f 283/89/645 285/8/645 289/87/645
f 283/89/646 288/94/646 287/90/646
f 71/63/647 281/91/647 287/90/647
f 85/92/648 90/86/648 300/84/648
f 289/87/649 300/84/649 301/93/649
f 288/94/650 301/93/650 299/83/650
f 81/95/651 287/90/651 299/83/651
f 294/96/652 293/82/652 297/82/652
f 293/82/653 91/97/653 72/97/653
f 298/98/654 295/98/654 294/96/654
f 80/85/655 95/85/655 295/98/655
f 284/99/656 296/96/656 297/82/656
f 286/100/657 298/98/657 296/96/657
f 297/82/658 299/83/658 290/101/658
f 300/84/659 298/98/659 286/100/659
f 301/93/660 300/84/660 292/103/660
f 290/101/661 299/83/661 301/93/661
f 348/105/662 303/99/662 304/100/662
f 307/103/663 306/104/663 349/106/663
f 352/108/664 305/101/664 302/102/664
f 302/102/665 303/99/665 348/105/665
f 349/106/666 306/104/666 305/101/666
f 304/100/667 307/103/667 350/107/667
f 308/102/668 309/99/668 353/111/668
f 356/113/669 312/104/669 311/101/669
f 358/114/670 310/100/670 313/103/670
f 353/111/671 309/99/671 310/100/671
f 313/103/672 312/104/672 356/113/672
f 311/101/673 308/102/673 354/112/673
f 315/99/674 316/100/674 310/100/674
f 333/103/675 332/104/675 312/104/675
f 317/101/676 314/102/676 308/102/676
f 308/102/677 314/102/677 315/99/677
f 318/104/678 317/101/678 311/101/678
f 310/100/679 316/100/679 319/103/679
f 314/102/680 320/102/680 321/99/680
f 324/104/681 323/101/681 317/101/681
f 322/100/682 325/103/682 319/103/682
f 315/99/683 321/99/683 322/100/683
f 319/103/297 325/103/297 324/104/297
f 317/101/684 323/101/684 320/102/684
f 331/103/685 330/104/685 324/104/685
f 323/101/686 329/101/686 326/102/686
f 326/102/687 327/99/687 321/99/687
f 324/104/688 330/104/688 329/101/688
f 328/100/689 331/103/689 325/103/689
f 321/99/690 327/99/690 328/100/690
f 337/103/305 336/104/305 332/104/305
f 332/104/691 334/104/691 318/104/691
f 334/104/692 335/103/692 319/103/692
f 319/103/693 335/103/693 333/103/693
f 339/103/694 343/103/694 341/103/694
f 335/103/310 339/103/310 337/103/310
f 338/104/311 339/103/311 335/103/311
f 336/104/312 338/104/312 334/104/312
f 341/103/695 343/103/695 342/104/695
f 342/104/696 343/103/696 339/103/696
f 340/104/697 342/104/697 338/104/697
f 341/103/698 340/104/698 336/104/698
f 295/98/699 346/98/699 345/96/699
f 344/82/700 144/97/700 91/97/700
f 148/85/701 346/98/701 295/98/701
f 345/96/702 344/82/702 293/82/702
f 328/100/703 327/99/703 330/104/703
f 327/99/704 326/102/704 329/101/704
f 347/110/705 350/107/705 292/103/705
f 291/104/706 349/106/706 352/108/706
f 282/102/707 351/109/707 348/105/707
f 290/101/708 352/108/708 351/109/708
f 350/107/709 349/106/709 291/104/709
f 348/105/710 347/110/710 286/100/710
f 355/115/711 354/112/711 302/102/711
f 357/107/712 356/113/712 306/104/712
f 303/99/713 353/111/713 358/114/713
f 304/100/714 358/114/714 357/107/714
f 306/104/715 356/113/715 355/115/715
f 354/112/716 353/111/716 303/99/716
f 361/65/717 362/64/717 360/97/717
f 361/65/718 363/67/718 364/66/718
f 363/67/719 365/69/719 366/68/719
f 367/70/720 368/74/720 366/68/720
f 368/74/721 374/74/721 373/68/721
f 416/116/722 369/75/722 359/63/722
f 162/97/723 161/63/723 171/75/723
f 381/65/724 382/67/724 386/67/724
f 177/76/725 183/76/725 379/74/725
f 372/66/726 371/64/726 362/64/726
f 362/64/727 371/64/727 370/97/727
f 373/68/728 372/66/728 364/66/728
f 375/132/729 376/125/729 379/71/729
f 376/125/730 377/73/730 379/71/730
f 377/73/731 378/72/731 379/71/731
f 378/68/732 377/66/732 372/66/732
f 371/64/733 376/64/733 375/97/733
f 375/118/734 183/76/734 177/76/734
f 379/74/735 378/68/735 373/68/735
f 377/66/736 376/64/736 371/64/736
f 384/70/737 398/70/737 399/75/737
f 384/70/738 385/75/738 388/75/738
f 380/63/739 381/65/739 387/117/739
f 386/67/740 382/67/740 383/69/740
f 388/75/741 385/75/741 380/77/741
f 383/69/742 384/70/742 389/70/742
f 391/119/743 389/70/743 410/70/743
f 407/121/744 388/75/744 390/122/744
f 406/67/745 386/67/745 391/119/745
f 411/63/746 390/63/746 387/117/746
f 389/70/747 388/75/747 407/121/747
f 409/123/748 387/117/748 386/67/748
f 197/116/749 378/116/749 379/116/749
f 198/116/750 377/116/750 378/116/750
f 199/116/751 200/116/751 375/116/751
f 392/116/752 204/116/752 199/116/752
f 198/116/753 203/116/753 393/116/753
f 393/73/754 392/125/754 376/125/754
f 395/80/755 394/137/755 399/79/755
f 399/79/373 398/78/373 397/126/373
f 397/126/373 396/131/373 395/80/373
f 396/67/756 397/69/756 383/69/756
f 394/63/757 395/65/757 381/65/757
f 385/75/758 399/75/758 394/77/758
f 383/69/759 397/69/759 398/70/759
f 395/65/760 396/67/760 382/67/760
f 361/65/761 400/123/761 403/67/761
f 401/127/762 404/121/762 369/75/762
f 359/63/763 402/63/763 400/123/763
f 363/67/764 403/67/764 405/69/764
f 404/121/765 402/77/765 359/77/765
f 405/69/766 401/127/766 367/70/766
f 400/123/767 409/123/767 406/67/767
f 410/70/768 407/121/768 404/121/768
f 402/63/769 411/63/769 409/123/769
f 403/67/770 406/67/770 408/120/770
f 404/121/771 407/121/771 411/77/771
f 408/120/772 410/70/772 401/127/772
f 281/116/773 71/116/773 204/116/773
f 203/116/774 79/116/774 285/116/774
f 392/125/775 393/73/775 283/128/775
f 393/73/776 285/73/776 283/128/776
f 413/96/777 412/82/777 344/82/777
f 414/98/395 413/96/395 345/96/395
f 344/82/778 412/82/778 223/97/778
f 227/85/779 414/98/779 346/98/779
f 415/116/780 170/74/780 176/74/780
f 416/116/781 177/76/781 374/74/781
f 172/118/782 162/97/782 415/116/782
f 416/116/783 360/97/783 370/118/783
