# Blender 5.0.0
# www.blender.org
o body
v 0.496492 -0.836496 9.635028
v 0.583336 -0.739346 10.905966
v 0.476577 0.278155 9.702286
v 0.565221 0.486405 10.941678
v 0.246627 0.341087 9.606398
v -0.000000 0.369678 9.551716
v -0.000000 0.658669 11.075323
v 0.340386 0.599495 11.030808
v 0.631619 0.554538 10.700345
v 0.646511 0.545035 10.341454
v 0.576865 0.424382 9.969674
v 0.562963 -0.631520 9.548931
v 0.591550 -0.317049 9.520228
v 0.550611 0.022595 9.591325
v 0.654626 0.225672 11.021012
v 0.703310 -0.145584 11.053907
v 0.665741 -0.502555 11.000063
v 0.654036 -0.830154 10.653063
v 0.671875 -0.892060 10.280386
v 0.600616 -0.885222 9.900891
v -0.000000 -0.970373 9.469133
v 0.267098 -0.925012 9.528193
v 0.358752 -0.817454 10.993770
v -0.000000 -0.856364 11.038958
v -0.000000 0.674132 9.922955
v -0.000000 0.858995 10.341650
v -0.000000 0.860968 10.747344
v 0.290903 0.614872 9.948907
v 0.337850 0.778809 10.344927
v 0.344425 0.778265 10.727668
v 0.749642 0.108478 9.929358
v 0.841644 0.194318 10.326781
v 0.811618 0.221480 10.712476
v 0.812126 -0.260920 9.886203
v 0.912852 -0.205322 10.306994
v 0.878665 -0.167071 10.718214
v 0.764291 -0.610047 9.888885
v 0.857600 -0.587272 10.290709
v 0.825386 -0.539852 10.684843
v 0.317045 -1.052687 9.864833
v 0.365526 -1.074154 10.149095
v 0.369003 -0.996871 10.672521
v -0.000000 -1.112858 9.887013
v -0.000000 -1.133465 10.144166
v -0.000000 -1.050112 10.692118
v -0.000000 0.004889 9.285539
v 0.255090 0.002208 9.371037
v -0.000000 -0.369841 9.170127
v 0.272938 -0.355472 9.269275
v -0.000000 -0.709899 9.236021
v 0.266506 -0.681007 9.323707
v 0.373244 0.271110 11.207621
v -0.000000 0.302962 11.271476
v 0.399412 -0.129140 11.260244
v -0.000000 -0.120306 11.329974
v 0.383312 -0.515706 11.188585
v -0.000000 -0.530811 11.253153
v -0.000000 -1.256592 9.955275
v 0.899103 0.129188 10.316125
v 0.964296 0.059743 10.337211
v 0.972883 0.157159 10.133766
v 1.038076 0.087714 10.154852
v 0.910948 0.053346 9.890625
v 0.976141 -0.016100 9.911711
v 0.775233 -0.078439 9.829841
v 0.840426 -0.147884 9.850925
v 0.701452 -0.106409 10.012198
v 0.766645 -0.175854 10.033284
v 0.763387 -0.002596 10.255341
v 0.828580 -0.072041 10.276426
v 0.000000 0.608116 6.698787
v -0.000045 0.614702 8.847254
v 0.504716 0.474076 6.513169
v 0.828603 0.502968 8.665986
v 0.598099 0.170519 6.470867
v 0.958572 0.165228 8.740338
v 0.495931 -0.117207 6.432576
v 0.866807 -0.028510 8.475698
v 0.000000 -0.261992 6.559881
v 0.000045 -0.515310 8.533862
v -0.000000 0.657830 7.331845
v 0.570473 0.581205 7.401706
v 0.767003 0.300529 7.406048
v 0.571976 -0.165458 7.350317
v -0.000000 -0.421473 7.331845
v 0.000176 0.702059 8.422184
v 0.703747 0.808776 8.370313
v 0.718558 0.672776 8.096948
v 0.697318 0.317715 8.006454
v 0.000480 -0.480352 8.206268
v -0.000000 0.515979 9.018123
v 0.439945 0.371050 8.990488
v 0.633971 0.086126 8.960053
v 0.435110 -0.214055 8.948302
v -0.000000 -0.334731 8.810505
v 0.958142 0.159724 8.751296
v 0.710218 0.429326 8.780810
v 0.738425 -0.237203 8.754054
v 0.614287 0.700328 8.114519
v 0.622165 -0.118143 8.066378
v 0.716524 0.619092 8.065511
v 1.568441 1.618522 7.425765
v 1.659582 1.489317 7.331923
v 1.563794 1.309465 7.204948
v 1.164474 1.717751 7.303147
v 1.097276 1.630230 7.160375
v 1.161230 1.412649 7.077150
v 1.945185 2.334569 6.149689
v 2.010603 2.209931 6.077429
v 1.943154 2.063504 6.011805
v 1.639176 2.371104 6.081866
v 1.585649 2.267416 5.978033
v 1.637696 2.101772 5.940858
v 1.971247 2.433440 6.112138
v 2.060306 2.226396 6.070399
v 1.988831 2.000773 5.911577
v 1.817264 2.498871 5.974797
v 1.787555 2.336511 5.877322
v 1.816069 2.047409 5.732248
v 2.245011 2.694184 5.774098
v 2.301643 2.462014 5.643811
v 2.243384 2.177430 5.499075
v 2.084432 2.712849 5.587390
v 2.054723 2.550489 5.489915
v 2.083237 2.261386 5.344842
v 2.184870 2.897728 5.223534
v 2.196077 2.756760 5.103857
v 2.184936 2.539023 5.033175
v 2.094474 2.803650 5.241937
v 2.068184 2.720695 5.172677
v 2.093803 2.510384 5.083775
v 1.576284 2.327052 5.766778
v 1.607773 2.180056 5.744390
v 1.771216 2.360996 5.726195
v 1.791621 2.110464 5.607575
v 1.629030 2.384878 5.555226
v 1.654831 2.264430 5.536883
v 1.788756 2.412692 5.521973
v 1.805476 2.207407 5.424778
v 1.704787 2.445355 5.332951
v 1.715627 2.357811 5.322912
v 1.822592 2.451885 5.333323
v 1.831815 2.304324 5.266231
v -0.000000 0.404501 9.148664
v 0.158780 0.287954 9.120268
v 0.252719 0.101461 9.056747
v 0.182110 -0.006843 9.056747
v -0.000000 -0.116119 9.018720
v 1.513457 1.223361 7.273615
v 1.609217 1.389145 7.428978
v 1.078577 1.592970 7.208968
v 1.131938 1.366339 7.115202
v 1.519667 1.524601 7.526601
v 1.135871 1.664861 7.370523
v 1.698689 1.566516 7.237522
v 1.610076 1.699985 7.320673
v 1.199386 1.762956 7.218863
v 1.127148 1.658550 7.092937
v 1.197586 1.438669 7.035639
v 1.606353 1.374541 7.137674
v 0.508210 -0.956256 4.146610
v 0.519508 0.358595 5.008744
v 0.863355 -1.125925 4.262738
v 1.026829 0.106417 5.292391
v 0.863355 -1.323967 4.438372
v 1.028275 -0.311149 5.573877
v 0.508191 -1.487625 4.569682
v 0.513592 -0.569651 5.624713
v 0.152952 -1.324542 4.442481
v 0.144936 -0.232581 5.415811
v 0.153066 -1.098625 4.276690
v 0.512164 0.595525 5.243618
v 1.018174 0.269837 5.451071
v 1.020134 -0.178828 5.702604
v 0.515757 -0.490120 5.685195
v 0.136937 -0.143796 5.452329
v -0.000000 0.792811 5.476711
v 0.418974 0.729040 5.446717
v 0.879472 0.485759 5.955595
v 0.876436 0.011443 5.980027
v 0.449170 -0.303592 5.827381
v 0.134332 -0.045051 5.499466
v -0.000000 0.830963 5.578977
v 0.430883 -1.321296 1.999251
v 0.691277 -1.471105 2.011851
v 0.691277 -1.770725 2.037047
v 0.430883 -1.920559 2.049642
v 0.170489 -1.770874 2.037031
v 0.170489 -1.471105 2.011851
v 0.822906 -1.533899 3.798781
v 0.822906 -1.289092 3.766004
v 0.152560 -1.330623 3.773366
v 0.152560 -1.576688 3.807214
v 0.487733 -1.068454 3.766490
v 0.487733 -1.709116 4.191133
v -0.000000 0.001265 5.525920
v -0.000000 -0.192339 5.628779
v -0.000000 -0.263774 5.878033
v -0.000000 0.807560 6.108910
v -0.000000 0.831661 5.802927
v 0.713104 0.436537 6.274188
v 0.709689 -0.045105 6.205320
v -0.000000 -0.233015 6.221914
v 0.000000 0.628045 6.449783
v 0.430883 -1.660097 0.399987
v 0.625711 -1.773971 0.391421
v 0.625711 -2.004858 0.398404
v 0.430883 -2.117388 0.402705
v 0.236055 -2.003174 0.401954
v 0.236055 -1.774261 0.391276
v 0.856043 -1.220238 4.223726
v 0.152881 -1.439752 4.345645
v 0.504509 -1.015819 4.137863
v 0.856043 -1.417609 4.337318
v 0.152975 -1.204376 4.231550
v 0.504493 -1.549018 4.505923
v 0.847217 -1.506985 4.200795
v 0.152864 -1.264567 4.133442
v 0.500029 -1.616944 4.422781
v 0.847217 -1.264216 4.126311
v 0.152796 -1.512146 4.210629
v 0.500040 -1.075382 4.082353
v -0.000000 0.330200 9.789566
v 0.182652 0.209765 9.789565
v 0.252719 0.101461 9.789565
v 0.182110 -0.006843 9.789565
v -0.000000 -0.127186 9.734492
v -0.496493 -0.836496 9.635028
v -0.583336 -0.739346 10.905966
v -0.476577 0.278155 9.702286
v -0.565221 0.486405 10.941678
v -0.246627 0.341087 9.606398
v -0.340386 0.599495 11.030808
v -0.631619 0.554538 10.700345
v -0.646511 0.545035 10.341454
v -0.576865 0.424382 9.969674
v -0.562963 -0.631520 9.548931
v -0.591550 -0.317049 9.520228
v -0.550611 0.022595 9.591325
v -0.654626 0.225672 11.021012
v -0.703310 -0.145584 11.053907
v -0.665741 -0.502555 11.000063
v -0.654036 -0.830154 10.653063
v -0.671875 -0.892060 10.280386
v -0.600616 -0.885222 9.900891
v -0.267098 -0.925012 9.528193
v -0.358752 -0.817454 10.993770
v -0.290903 0.614872 9.948907
v -0.337850 0.778809 10.344927
v -0.344425 0.778265 10.727668
v -0.749642 0.108478 9.929358
v -0.841644 0.194318 10.326781
v -0.811618 0.221480 10.712476
v -0.812126 -0.260920 9.886203
v -0.912852 -0.205322 10.306994
v -0.878665 -0.167071 10.718214
v -0.764291 -0.610047 9.888885
v -0.857600 -0.587272 10.290709
v -0.825386 -0.539852 10.684843
v -0.317045 -1.052687 9.864833
v -0.365526 -1.074154 10.149095
v -0.369003 -0.996871 10.672521
v -0.255090 0.002208 9.371037
v -0.272938 -0.355472 9.269275
v -0.266506 -0.681007 9.323707
v -0.373244 0.271110 11.207621
v -0.399412 -0.129140 11.260244
v -0.383312 -0.515706 11.188585
v -0.899103 0.129188 10.316125
v -0.964296 0.059743 10.337211
v -0.972883 0.157159 10.133766
v -1.038076 0.087714 10.154852
v -0.910948 0.053346 9.890625
v -0.976141 -0.016100 9.911711
v -0.775233 -0.078439 9.829841
v -0.840426 -0.147884 9.850925
v -0.701452 -0.106409 10.012198
v -0.766645 -0.175854 10.033284
v -0.763387 -0.002596 10.255341
v -0.828580 -0.072041 10.276426
v -0.504526 0.476274 6.578967
v -0.822505 0.165964 8.422762
v -0.598793 0.169840 6.536264
v -0.956841 0.090327 8.762583
v -0.495657 -0.144553 6.485611
v -0.863580 -0.240678 8.795937
v -0.567869 0.439574 7.341775
v -0.761796 0.004845 7.367887
v -0.569688 -0.314337 7.372175
v -0.689795 0.090084 8.003362
v -0.701801 -0.223799 7.988371
v -0.684088 -0.462619 8.234453
v -0.440485 0.412113 8.960176
v -0.634112 0.104137 8.968366
v -0.435371 -0.197511 8.982609
v -0.956574 0.097241 8.771414
v -0.708770 0.370019 8.608144
v -0.738417 -0.247328 8.893261
v -0.607038 0.334974 7.896259
v -0.616771 -0.409114 8.216363
v -0.701344 -0.192966 7.968892
v -1.529066 -0.596427 6.917933
v -1.619987 -0.727660 7.007040
v -1.524346 -0.909797 7.130188
v -1.124939 -0.677745 6.781914
v -1.058161 -0.843746 6.812107
v -1.121630 -0.995528 6.987331
v -1.960648 -1.562781 5.849454
v -2.026148 -1.668675 5.947087
v -1.958199 -1.779046 6.063267
v -1.658254 -1.624605 5.783784
v -1.606552 -1.757347 5.847850
v -1.656510 -1.843271 5.994989
v -1.990167 -1.566484 5.744670
v -2.076414 -1.668694 5.930830
v -2.006324 -1.892545 6.092748
v -1.842893 -1.680680 5.634559
v -1.813523 -1.825174 5.757048
v -1.841487 -2.053044 5.986684
v -2.281909 -1.796949 5.399740
v -2.338591 -1.992026 5.580893
v -2.279945 -2.220703 5.803598
v -2.128942 -1.972903 5.318283
v -2.099574 -2.117398 5.440771
v -2.127538 -2.345267 5.670408
v -2.246920 -2.256856 5.031733
v -2.259716 -2.414470 5.128244
v -2.246729 -2.550450 5.312282
v -2.153952 -2.271699 5.123916
v -2.128584 -2.364310 5.180034
v -2.153169 -2.514154 5.352465
v -1.606442 -1.939231 5.724598
v -1.635688 -2.005857 5.858038
v -1.803435 -1.961301 5.685818
v -1.823099 -2.152162 5.886912
v -1.668357 -2.120140 5.604939
v -1.692321 -2.174733 5.714278
v -1.829772 -2.138225 5.573162
v -1.845884 -2.294615 5.737938
v -1.753722 -2.309711 5.480124
v -1.763110 -2.346498 5.560379
v -1.871540 -2.303836 5.477778
v -1.880223 -2.413703 5.597003
v -0.158780 0.287954 9.120268
v -0.252719 0.101461 9.056747
v -0.182110 -0.006843 9.056747
v -1.478600 -0.883842 7.230486
v -1.574350 -0.679275 7.131596
v -1.039357 -0.807569 6.867792
v -1.093795 -0.977498 7.044011
v -1.484691 -0.539003 7.042097
v -1.097741 -0.630996 6.859962
v -1.658344 -0.783086 6.909572
v -1.569628 -0.663315 6.808417
v -1.162624 -0.749008 6.705165
v -1.092665 -0.903855 6.761742
v -1.160447 -1.025935 6.952986
v -1.565621 -0.942307 7.055121
v -0.508053 1.331050 4.064277
v -0.519458 0.999843 5.416533
v -0.866564 1.151914 3.954749
v -1.031588 0.689649 5.507330
v -0.866564 0.907381 3.841550
v -1.033048 0.263545 5.235273
v -0.508034 0.718775 3.745097
v -0.513485 0.088816 5.011169
v -0.149427 0.903756 3.844860
v -0.141336 0.258522 5.201167
v -0.149542 1.147008 3.977192
v -0.512044 0.936885 5.677907
v -1.022851 0.593318 5.674767
v -1.024829 0.159356 5.411334
v -0.515671 0.006919 5.129718
v -0.133260 0.175302 5.304286
v -0.417970 0.886570 5.808579
v -0.882834 0.473670 6.039750
v -0.879769 -0.051575 5.865660
v -0.448454 -0.154137 5.422641
v -0.130631 0.083374 5.449016
v -0.429993 3.088151 2.700753
v -0.658826 3.018631 2.588407
v -0.658826 2.879590 2.363715
v -0.429993 2.810068 2.251369
v -0.201160 2.879589 2.363714
v -0.201160 3.018631 2.588407
v -0.825732 1.391764 3.365393
v -0.825732 1.534032 3.571767
v -0.149032 1.508411 3.537760
v -0.149031 1.365278 3.331034
v -0.487381 1.634835 3.771171
v -0.487381 0.960580 3.386320
v -0.714889 0.433622 6.339689
v -0.711441 -0.112405 6.218386
v -0.429993 4.360649 1.644403
v -0.608103 4.354603 1.546030
v -0.608103 4.380946 1.311464
v -0.429993 4.393188 1.208835
v -0.251884 4.367978 1.320848
v -0.251884 4.355079 1.544676
v -0.859183 1.152543 3.849570
v -0.149356 0.942856 3.699182
v -0.504316 1.319685 4.000428
v -0.859183 0.961112 3.715156
v -0.149450 1.151477 3.867619
v -0.504300 0.750352 3.664487
v -0.850273 1.044721 3.574836
v -0.149339 1.214943 3.766053
v -0.499794 0.795495 3.569469
v -0.850273 1.222441 3.762223
v -0.149269 1.033287 3.573673
v -0.499806 1.346768 3.915779
v -0.182652 0.209765 9.789565
v -0.252719 0.101461 9.789565
v -0.182110 -0.006843 9.789565
v 0.213411 0.496211 5.255379
v -0.199640 0.800224 5.393709
vn 0.2171 0.8930 -0.3943
vn 0.2309 0.9730 -0.0026
vn 0.2282 0.8287 0.5111
vn 0.5934 0.7171 0.3657
vn 0.6038 0.7971 0.0039
vn 0.5368 0.7678 -0.3497
vn 0.4335 0.6757 -0.5962
vn 0.2244 0.7535 -0.6180
vn 0.9488 0.1900 -0.2522
vn 0.9829 0.1719 0.0657
vn 0.9669 -0.1341 -0.2169
vn 0.9843 -0.1466 0.0981
vn 0.7198 0.4412 -0.5359
vn 0.8218 0.4872 -0.2955
vn 0.8739 0.4848 0.0339
vn 0.8176 0.4547 0.3533
vn 0.8793 0.1584 0.4492
vn 0.8717 -0.1659 0.4611
vn 0.7717 -0.4987 0.3948
vn 0.8452 -0.5193 0.1267
vn 0.8441 -0.5094 -0.1677
vn 0.7852 -0.4383 -0.4373
vn 0.8572 -0.1236 -0.4999
vn 0.8229 0.2097 -0.5281
vn 1.0000 -0.0000 -0.0000
vn 0.1564 -0.9765 0.1485
vn 0.4800 -0.7943 -0.3725
vn 0.5169 -0.8425 -0.1518
vn 0.4664 -0.8756 0.1262
vn 0.4808 -0.7739 0.4123
vn 0.1500 -0.8611 0.4857
vn 0.2261 -0.9220 -0.3144
vn 0.3148 0.2794 -0.9071
vn 0.3250 -0.1799 -0.9284
vn 0.2669 0.5681 -0.7785
vn 0.4934 0.5045 -0.7086
vn 0.5804 0.2495 -0.7751
vn 0.6137 -0.1420 -0.7766
vn 0.5175 -0.5489 -0.6564
vn 0.3026 -0.6356 -0.7102
vn 0.1733 0.1395 0.9749
vn 0.1703 -0.1865 0.9676
vn 0.5492 0.4099 0.7283
vn 0.1876 0.4801 0.8569
vn 0.1601 -0.5446 0.8233
vn 0.5064 -0.4648 0.7263
vn 0.5518 -0.1809 0.8141
vn 0.5611 0.1458 0.8148
vn 0.6237 0.6944 0.3588
vn 0.7220 0.5506 -0.4190
vn 0.3616 0.0569 -0.9306
vn -0.6237 -0.6944 -0.3589
vn 0.6532 -0.7421 0.1505
vn -0.7220 -0.5506 0.4190
vn -0.3616 -0.0569 0.9306
vn -0.6532 0.7421 -0.1505
vn 0.1773 0.9203 0.3488
vn 0.4857 -0.8692 -0.0921
vn 0.2624 -0.9623 -0.0723
vn 0.9420 -0.3219 -0.0950
vn 0.9460 0.3059 -0.1069
vn 0.2087 0.9690 -0.1323
vn 0.4075 -0.9127 0.0317
vn 0.8792 -0.3991 0.2601
vn 0.8116 0.5661 -0.1445
vn 0.1518 0.9733 -0.1720
vn 0.4570 0.3299 0.8260
vn 0.2584 0.7919 0.5532
vn 0.4854 -0.3529 0.7999
vn 0.0590 -0.8359 0.5457
vn 0.7110 0.6168 0.3377
vn 0.8743 -0.4837 0.0406
vn 0.1951 0.7217 0.6641
vn 0.8586 -0.2122 -0.4667
vn 0.9949 -0.0763 0.0660
vn 0.3982 0.7862 -0.4726
vn 0.8871 -0.4613 -0.0158
vn -0.8174 0.0451 -0.5743
vn 0.0051 0.7855 0.6188
vn 0.8254 0.1543 0.5430
vn -0.8474 0.5254 0.0768
vn 0.0724 -0.6474 -0.7587
vn 0.8559 0.3107 0.4133
vn -0.8553 0.5131 -0.0715
vn 0.0135 -0.8547 -0.5190
vn 0.9066 -0.4220 0.0097
vn -0.8772 -0.1633 -0.4516
vn 0.0166 0.8790 0.4766
vn 0.2808 -0.4973 0.8209
vn -0.9522 -0.3045 0.0237
vn -0.0741 0.6992 0.7111
vn 0.6376 0.1209 0.7608
vn -0.4882 0.7304 -0.4777
vn -0.5087 -0.8148 0.2782
vn 0.8147 -0.1197 0.5674
vn -0.8463 0.3794 -0.3740
vn 0.0996 -0.9354 -0.3392
vn 0.8864 -0.3408 0.3133
vn -0.8522 0.1651 -0.4965
vn -0.2655 0.9097 0.3193
vn -0.9945 -0.0527 -0.0905
vn -0.6951 0.7000 0.1638
vn 0.9694 0.2450 -0.0153
vn -0.9681 0.2356 0.0853
vn 0.1937 -0.7631 -0.6166
vn 0.9824 0.0103 -0.1865
vn -0.9466 -0.1602 -0.2798
vn -0.1859 0.9434 0.2746
vn 0.9866 0.1395 -0.0841
vn -0.5248 -0.7966 -0.3000
vn -0.5513 -0.6679 -0.4999
vn -0.5762 -0.7032 -0.4166
vn 0.9949 0.0362 0.0946
vn -0.1193 0.9649 0.2340
vn -0.2542 0.3871 -0.8863
vn 0.9844 -0.0031 0.1759
vn -0.1223 0.9674 0.2215
vn -0.9321 -0.1494 -0.3300
vn 0.2651 -0.1728 0.9486
vn 0.2243 0.5242 0.8215
vn -0.0380 -0.6892 0.7236
vn 0.2478 0.0655 0.9666
vn -0.5155 0.2883 -0.8069
vn -0.6227 0.4770 -0.6202
vn 0.2480 -0.7346 -0.6316
vn -0.8841 0.4537 0.1117
vn 0.8034 0.1093 0.5853
vn 0.0111 0.7572 0.6531
vn -0.9436 0.1336 -0.3029
vn 0.8920 -0.4515 0.0212
vn 0.0639 0.8682 0.4921
vn -0.7598 0.0252 -0.6497
vn 0.8984 -0.4390 0.0132
vn 0.0537 -0.7345 -0.6765
vn -0.7732 0.6293 -0.0782
vn 0.8347 0.2230 0.5036
vn 0.4714 0.4807 -0.7394
vn 0.9942 -0.0715 -0.0806
vn 0.5084 -0.6509 0.5638
vn -0.5026 -0.6509 0.5690
vn -0.6934 -0.3266 0.6422
vn 0.9946 0.0870 0.0565
vn -1.0000 -0.0030 -0.0048
vn 0.9972 -0.0099 -0.0738
vn -0.9860 -0.1565 0.0584
vn 0.9990 0.0272 0.0352
vn 0.5986 0.5741 -0.5586
vn 0.3597 -0.5710 0.7380
vn -0.5291 0.3411 0.7770
vn 0.2888 -0.5131 0.8083
vn 0.6003 0.7816 -0.1695
vn 0.0925 0.8510 -0.5170
vn -0.6930 -0.3254 0.6434
vn 0.9191 0.1957 0.3419
vn -0.9992 -0.0019 -0.0398
vn -0.9999 -0.0014 -0.0100
vn 0.5446 0.8276 -0.1359
vn 0.5000 -0.8624 0.0786
vn -0.5000 0.8629 -0.0739
vn -0.4619 -0.8813 0.0993
vn -0.4598 -0.8164 0.3493
vn -0.6116 0.7782 -0.1423
vn 0.4893 -0.8716 0.0288
vn 0.5498 0.8353 -0.0031
vn -1.0000 0.0004 0.0005
vn 0.9977 -0.0089 -0.0667
vn -0.2355 -0.9719 0.0030
vn -0.3182 -0.4448 -0.8372
vn -0.1155 -0.9549 -0.2737
vn -0.1719 0.0629 -0.9831
vn 0.2969 0.9520 0.0750
vn 0.3746 0.8667 0.3295
vn 0.2569 -0.9626 0.0861
vn 0.8004 0.0257 0.5989
vn 0.0004 -0.0331 -0.9995
vn 0.4998 -0.8600 0.1029
vn 0.4971 0.8489 -0.1798
vn -0.4914 0.8523 -0.1793
vn -0.5034 -0.8580 0.1025
vn 0.9992 -0.0033 -0.0398
vn 0.9959 -0.0449 -0.0781
vn -1.0000 0.0006 0.0001
vn 0.3010 0.1202 -0.9460
vn 0.5125 -0.6480 0.5634
vn -0.4431 0.3523 -0.8243
vn -0.5001 -0.6091 0.6155
vn 0.9966 -0.0243 -0.0793
vn -1.0000 0.0006 0.0003
vn 0.4145 0.6036 -0.6810
vn 0.5164 -0.7314 0.4454
vn -0.4762 0.7498 -0.4595
vn -0.4699 -0.6710 0.5735
vn 0.2797 0.9555 0.0938
vn 0.2597 -0.9622 -0.0825
vn 0.7569 0.1440 0.6374
vn 0.8931 0.4499 -0.0000
vn 0.8377 -0.5461 -0.0000
vn 0.5488 0.8323 0.0777
vn 0.5165 -0.8562 -0.0132
vn -0.2171 0.8930 -0.3943
vn -0.2332 0.9724 -0.0047
vn -0.2282 0.8287 0.5111
vn -0.5362 0.7239 0.4341
vn -0.6140 0.7893 -0.0094
vn -0.5575 0.7416 -0.3731
vn -0.4335 0.6757 -0.5962
vn -0.2244 0.7535 -0.6180
vn -0.9486 0.1818 -0.2589
vn -0.9832 0.1706 0.0645
vn -0.9679 -0.1309 -0.2144
vn -0.9842 -0.1492 0.0957
vn -0.7191 0.4598 -0.5211
vn -0.8258 0.4724 -0.3080
vn -0.8791 0.4760 0.0239
vn -0.8176 0.4547 0.3533
vn -0.8813 0.1551 0.4463
vn -0.8704 -0.1617 0.4650
vn -0.7756 -0.4470 0.4457
vn -0.8474 -0.5145 0.1312
vn -0.8444 -0.5089 -0.1672
vn -0.7852 -0.4383 -0.4373
vn -0.8583 -0.1214 -0.4987
vn -0.8209 0.2013 -0.5345
vn -0.1488 -0.9784 0.1435
vn -0.5095 -0.7887 -0.3441
vn -0.5440 -0.8308 -0.1171
vn -0.5063 -0.8464 0.1648
vn -0.4808 -0.7739 0.4123
vn -0.1500 -0.8611 0.4857
vn -0.1482 -0.9172 -0.3698
vn -0.3082 0.2745 -0.9109
vn -0.3444 -0.1614 -0.9248
vn -0.2408 0.5577 -0.7943
vn -0.4461 0.4620 -0.7665
vn -0.5707 0.2336 -0.7872
vn -0.6232 -0.1271 -0.7717
vn -0.5828 -0.4680 -0.6643
vn -0.3026 -0.6356 -0.7102
vn -0.1783 0.1347 0.9747
vn -0.1652 -0.1814 0.9694
vn -0.5146 0.4458 0.7324
vn -0.1947 0.4737 0.8589
vn -0.1601 -0.5446 0.8233
vn -0.5064 -0.4648 0.7263
vn -0.5466 -0.1746 0.8190
vn -0.5630 0.1438 0.8139
vn -0.6237 0.6944 0.3588
vn -0.7220 0.5506 -0.4190
vn -0.3616 0.0569 -0.9306
vn 0.6237 -0.6944 -0.3589
vn -0.6532 -0.7421 0.1505
vn 0.7220 -0.5506 0.4190
vn 0.3616 -0.0569 0.9306
vn 0.6532 0.7421 -0.1505
vn -0.3762 0.9076 0.1863
vn -0.2565 -0.9495 0.1808
vn -0.1974 -0.9597 -0.2003
vn -0.8255 -0.5004 -0.2611
vn -0.9512 0.3016 -0.0645
vn -0.3589 0.9305 -0.0731
vn -0.1917 -0.9741 -0.1201
vn -0.8533 -0.5147 -0.0836
vn -0.9129 0.4080 0.0125
vn -0.4946 0.8684 -0.0351
vn -0.3809 0.7045 0.5989
vn -0.3738 0.9107 0.1760
vn -0.5206 -0.0278 0.8533
vn -0.0286 -0.8286 0.5591
vn -0.7828 0.5967 -0.1766
vn -0.9446 -0.2440 0.2196
vn -0.6635 0.6708 -0.3313
vn 0.6264 -0.6355 0.4514
vn 0.9649 -0.1504 -0.2154
vn -0.9987 0.0366 0.0344
vn -0.8732 -0.1921 0.4480
vn 0.8234 -0.5137 -0.2410
vn 0.0155 0.9054 -0.4243
vn -0.8303 0.5560 0.0396
vn 0.8520 0.2616 -0.4536
vn -0.0921 -0.9530 0.2886
vn -0.8475 0.5131 -0.1357
vn 0.8029 0.1521 -0.5764
vn 0.0058 -0.7622 0.6473
vn -0.8886 -0.1106 0.4451
vn 0.8631 -0.5047 -0.0163
vn -0.0196 0.7300 -0.6832
vn -0.2391 0.6303 0.7386
vn 0.9586 -0.1015 0.2662
vn 0.0864 0.8927 -0.4424
vn -0.2106 0.7299 0.6503
vn 0.4545 -0.2374 -0.8586
vn 0.1770 -0.1943 0.9648
vn -0.7720 0.6355 -0.0088
vn 0.8234 -0.2602 -0.5043
vn -0.0928 -0.6136 0.7842
vn -0.8026 0.1637 0.5737
vn 0.8291 -0.4440 -0.3396
vn 0.1301 0.7701 -0.6246
vn 0.9912 -0.1317 -0.0100
vn 0.3106 0.6082 -0.7305
vn -0.9742 0.0912 -0.2066
vn 0.9814 0.0401 -0.1880
vn -0.2010 -0.8196 0.5365
vn -0.9796 -0.1909 0.0619
vn 0.9385 -0.3437 0.0341
vn 0.1765 0.5522 -0.8148
vn -0.9918 -0.0068 -0.1275
vn 0.5383 -0.5015 0.6772
vn 0.5877 -0.6607 0.4670
vn 0.5745 -0.6337 0.5181
vn -0.9911 0.1304 0.0269
vn 0.1080 0.5225 -0.8458
vn -0.0369 -0.9068 -0.4200
vn -0.9768 0.1948 0.0894
vn 0.1105 0.5114 -0.8522
vn 0.9218 -0.3875 0.0085
vn -0.2252 -0.1027 0.9689
vn -0.2319 0.5276 0.8172
vn 0.0687 -0.6880 0.7224
vn -0.2216 0.1649 0.9611
vn 0.4947 -0.6897 -0.5288
vn 0.4594 -0.3649 -0.8098
vn 0.0203 -0.9276 0.3731
vn 0.9457 -0.0207 -0.3244
vn -0.6646 0.7407 -0.0979
vn -0.3677 0.8878 -0.2770
vn 0.9511 -0.1845 -0.2475
vn -0.8796 -0.2045 0.4295
vn -0.0715 0.7482 -0.6596
vn 0.7318 -0.6235 -0.2750
vn -0.8526 -0.1011 0.5126
vn 0.0562 -0.7782 0.6255
vn 0.7860 0.2104 -0.5813
vn -0.8313 0.5549 -0.0310
vn -0.4867 0.8494 0.2039
vn -0.9943 0.0596 -0.0880
vn -0.4465 -0.7908 -0.4186
vn 0.5054 -0.7734 -0.3826
vn 0.5530 -0.6902 -0.4666
vn 0.5287 0.8234 0.2061
vn -0.4028 0.4897 -0.7732
vn -0.9956 0.0768 -0.0530
vn 0.9762 -0.1747 -0.1287
vn -0.9992 -0.0191 0.0353
vn -0.4769 0.8513 0.2186
vn -0.4635 -0.7250 -0.5094
vn 0.4452 -0.2283 0.8658
vn -0.4418 -0.8250 -0.3522
vn -0.4548 0.6709 0.5857
vn 0.3167 0.9391 0.1336
vn 0.5256 -0.7138 -0.4629
vn -0.9602 -0.1418 0.2408
vn 0.9995 0.0256 -0.0158
vn 0.9996 0.0239 -0.0165
vn -0.5443 0.5113 0.6651
vn -0.5120 -0.4377 -0.7391
vn 0.6148 0.4518 0.6464
vn 0.4479 -0.4777 -0.7558
vn 0.4638 -0.6735 -0.5756
vn 0.4802 0.3769 0.7921
vn -0.4655 -0.6415 -0.6098
vn -0.4894 0.4825 0.7264
vn 1.0000 -0.0003 0.0006
vn -0.9981 0.0449 -0.0426
vn -0.1302 -0.9915 0.0031
vn 0.2195 -0.4577 -0.8616
vn 0.0447 -0.9603 -0.2752
vn 0.5316 0.0541 -0.8453
vn -0.3177 0.7097 0.6288
vn -0.3571 0.8785 0.3173
vn -0.2334 -0.9708 -0.0561
vn -0.9028 -0.1401 0.4067
vn -0.0009 0.9936 0.1132
vn -0.4997 -0.4858 -0.7172
vn -0.4964 0.5545 0.6679
vn 0.4964 0.5545 0.6679
vn 0.4997 -0.4856 -0.7173
vn -0.9995 0.0256 -0.0158
vn -0.9986 0.0226 -0.0487
vn 1.0000 0.0002 0.0005
vn -0.4406 0.8974 -0.0256
vn -0.5077 -0.7940 -0.3345
vn 0.4634 0.8854 0.0365
vn 0.5016 -0.8131 -0.2953
vn -0.9985 0.0314 -0.0447
vn 1.0000 -0.0001 0.0006
vn -0.5334 0.6861 0.4946
vn -0.5109 -0.7668 -0.3885
vn 0.4961 0.8189 0.2884
vn 0.4717 -0.8049 -0.3600
vn -0.2715 0.9601 0.0676
vn -0.1672 -0.9858 0.0164
vn -0.7558 0.1435 0.6389
vn -0.8931 0.4499 -0.0000
vn -0.8377 -0.5461 -0.0000
vn -0.5999 0.7948 0.0921
vn -0.5165 -0.8562 -0.0132
vn -0.7786 -0.0977 -0.6198
vn 0.9945 0.1047 0.0066
vn -0.1968 0.4915 -0.8484
vn 0.1539 0.9459 -0.2857
vn 0.2158 0.8929 -0.3952
vn 0.2332 0.9724 -0.0047
vn 0.2114 0.8407 0.4986
vn 0.5362 0.7239 0.4341
vn 0.6140 0.7893 -0.0094
vn 0.5575 0.7416 -0.3731
vn 0.4895 0.6746 -0.5525
vn 0.2088 0.7506 -0.6269
vn 0.9486 0.1818 -0.2589
vn 0.9832 0.1706 0.0645
vn 0.9679 -0.1309 -0.2144
vn 0.9842 -0.1492 0.0957
vn 0.7191 0.4598 -0.5211
vn 0.8258 0.4724 -0.3080
vn 0.8791 0.4760 0.0239
vn 0.8171 0.4050 0.4103
vn 0.8813 0.1551 0.4463
vn 0.8704 -0.1617 0.4650
vn 0.7756 -0.4470 0.4457
vn 0.8474 -0.5145 0.1312
vn 0.8444 -0.5089 -0.1672
vn 0.7820 -0.4824 -0.3947
vn 0.8583 -0.1214 -0.4987
vn 0.8209 0.2013 -0.5345
vn 0.1806 -0.9804 -0.0786
vn 0.1607 -0.9818 -0.1015
vn 0.1488 -0.9784 0.1435
vn 0.5095 -0.7887 -0.3441
vn 0.5440 -0.8308 -0.1171
vn 0.5063 -0.8464 0.1648
vn 0.4448 -0.7758 0.4475
vn 0.1542 -0.8626 0.4818
vn 0.1482 -0.9172 -0.3698
vn 0.3082 0.2745 -0.9109
vn 0.3444 -0.1614 -0.9248
vn 0.2408 0.5577 -0.7943
vn 0.4461 0.4620 -0.7665
vn 0.5707 0.2336 -0.7872
vn 0.6232 -0.1271 -0.7717
vn 0.5828 -0.4680 -0.6643
vn 0.2684 -0.6184 -0.7387
vn 0.1783 0.1347 0.9747
vn 0.1652 -0.1814 0.9694
vn 0.5146 0.4458 0.7324
vn 0.1947 0.4737 0.8589
vn 0.1626 -0.5423 0.8243
vn 0.4611 -0.5075 0.7279
vn 0.5466 -0.1746 0.8190
vn 0.5630 0.1438 0.8139
vn -0.6237 -0.6944 -0.3588
vn 0.2647 0.9446 0.1943
vn 0.4009 -0.8889 -0.2217
vn 0.4065 -0.8948 -0.1849
vn 0.9212 -0.3718 -0.1147
vn 0.8003 0.5570 -0.2220
vn 0.1420 0.9868 -0.0775
vn 0.4926 -0.8682 -0.0587
vn 0.9901 -0.1268 -0.0610
vn 0.4719 0.8075 -0.3539
vn -0.0175 0.9990 -0.0405
vn 0.5472 0.2887 0.7856
vn 0.3019 0.8255 0.4769
vn 0.5636 -0.3066 0.7670
vn 0.2051 -0.8815 0.4254
vn 0.5184 0.3693 0.7713
vn 0.9484 -0.2966 -0.1118
vn -0.9444 0.2339 0.2311
vn 0.6561 -0.7171 -0.2351
vn -0.9438 0.1204 -0.3077
vn -0.9900 0.0972 -0.1020
vn 0.8645 -0.5026 0.0035
vn -0.8997 -0.1021 -0.4245
vn -0.0082 0.7337 0.6794
vn 0.8050 0.1511 0.5737
vn -0.8432 0.5341 0.0613
vn 0.0689 -0.6590 -0.7490
vn 0.8918 0.2490 0.3779
vn -0.8176 0.5757 -0.0083
vn -0.0044 -0.8545 -0.5194
vn 0.9005 -0.4348 0.0033
vn -0.8742 -0.1728 -0.4539
vn -0.0006 0.8793 0.4763
vn 0.5223 -0.5953 0.6106
vn -0.9782 -0.2072 -0.0151
vn -0.4984 0.4195 0.7587
vn 0.2525 -0.3827 0.8887
vn -0.6769 0.4660 -0.5698
vn -0.1520 -0.9804 0.1255
vn 0.7897 0.2246 0.5708
vn 0.0041 -0.8765 -0.4813
vn 0.8248 -0.4761 0.3051
vn -0.1272 0.8325 0.5392
vn -0.9926 -0.0841 -0.0872
vn -0.3155 0.8783 0.3592
vn 0.9811 0.1646 -0.1020
vn -0.9852 0.1706 0.0162
vn -0.1567 -0.7115 -0.6850
vn 0.9751 -0.0985 -0.1988
vn -0.1340 0.9758 0.1726
vn 0.9828 0.1382 -0.1228
vn -0.5311 -0.8118 -0.2426
vn -0.5918 -0.6635 -0.4577
vn -0.0031 0.1135 -0.9935
vn 0.9874 -0.0101 0.1579
vn -0.0549 0.9795 0.1937
vn -0.9371 -0.0770 -0.3404
vn 0.2340 -0.1923 0.9530
vn 0.5591 0.6305 0.5384
vn 0.0553 -0.4091 0.9108
vn 0.4380 -0.0842 0.8950
vn -0.5312 0.2742 -0.8016
vn -0.4954 0.6439 -0.5831
vn 0.0626 -0.6613 -0.7475
vn -0.9469 0.2644 -0.1829
vn 0.6268 0.3897 0.6747
vn 0.0952 0.7118 0.6959
vn -0.9095 -0.0431 -0.4134
vn 0.8768 -0.4800 -0.0282
vn -0.0281 0.7954 0.6054
vn -0.8754 -0.1617 -0.4556
vn 0.8628 -0.5020 0.0602
vn -0.0373 -0.8317 -0.5540
vn -0.7924 0.6100 -0.0010
vn 0.8236 0.2214 0.5222
vn 0.5969 0.4663 -0.6529
vn 0.9943 -0.0570 -0.0897
vn 0.4125 -0.7088 0.5723
vn -0.7185 -0.4657 0.5166
vn -0.7057 -0.4166 0.5731
vn 1.0000 0.0030 -0.0046
vn -0.9946 0.0787 -0.0669
vn 0.9973 -0.0062 -0.0737
vn -0.9561 -0.1464 0.2538
vn 0.9993 0.0221 0.0317
vn 0.5981 0.5735 -0.5598
vn 0.3693 -0.6362 0.6774
vn -0.5455 0.0466 0.8368
vn -0.6395 0.2838 0.7144
vn 0.2915 -0.0420 0.9557
vn 0.2949 -0.7099 0.6396
vn 0.5923 0.7707 -0.2349
vn 0.1168 0.9305 -0.3471
vn -0.7803 -0.5307 0.3308
vn 0.9650 0.0073 0.2622
vn -0.9992 -0.0033 -0.0398
vn -0.9999 -0.0008 -0.0101
vn 0.4993 0.8572 -0.1264
vn 0.5251 -0.8482 0.0698
vn -0.6146 0.7834 -0.0923
vn -0.4996 -0.8616 0.0895
vn -0.4962 -0.8573 0.1374
vn -0.4739 0.8798 0.0378
vn 0.4602 -0.8331 0.3070
vn 0.4848 0.8697 -0.0928
vn -1.0000 0.0001 0.0008
vn 0.9981 -0.0181 -0.0591
vn 0.1257 -0.7168 -0.6859
vn 0.0541 -0.4939 0.8679
vn 0.3592 0.9258 0.1175
vn 0.3323 0.8345 0.4395
vn 0.3013 -0.9534 -0.0163
vn 0.8886 -0.0711 0.4531
vn 0.0003 0.0756 -0.9971
vn -0.0046 -0.0302 -0.9995
vn -0.0235 -0.0466 -0.9986
vn 0.4992 -0.8604 0.1028
vn 0.4906 0.8528 -0.1792
vn -0.4971 0.8489 -0.1798
vn -0.4995 -0.8603 0.1022
vn 0.9992 -0.0012 -0.0398
vn 0.9986 -0.0352 -0.0397
vn -1.0000 0.0006 0.0005
vn 0.4281 0.3169 -0.8463
vn 0.5078 -0.6351 0.5821
vn -0.3322 0.1572 -0.9300
vn -0.4812 -0.5639 0.6712
vn 0.9985 -0.0270 -0.0469
vn -1.0000 0.0005 0.0008
vn 0.5323 0.7524 -0.3879
vn 0.5078 -0.6803 0.5285
vn -0.4932 0.6126 -0.6176
vn -0.4852 -0.7705 0.4134
vn 0.2821 0.9563 0.0765
vn 0.2539 -0.9649 -0.0673
vn 0.7365 -0.3394 0.5851
vn 0.8987 -0.0683 0.4331
vn 0.8391 0.5429 0.0335
vn 0.5999 0.7948 0.0921
vn 0.5513 -0.8343 -0.0000
vn -0.2158 0.8929 -0.3952
vn -0.2309 0.9730 -0.0026
vn -0.2114 0.8407 0.4986
vn -0.5934 0.7171 0.3657
vn -0.6038 0.7971 0.0039
vn -0.5368 0.7678 -0.3497
vn -0.4895 0.6746 -0.5525
vn -0.2088 0.7506 -0.6269
vn -0.9488 0.1900 -0.2522
vn -0.9829 0.1719 0.0657
vn -0.9669 -0.1341 -0.2169
vn -0.9843 -0.1466 0.0981
vn -0.7198 0.4412 -0.5359
vn -0.8218 0.4872 -0.2955
vn -0.8739 0.4848 0.0339
vn -0.8171 0.4050 0.4103
vn -0.8793 0.1584 0.4492
vn -0.8717 -0.1659 0.4611
vn -0.7717 -0.4987 0.3948
vn -0.8452 -0.5193 0.1267
vn -0.8441 -0.5094 -0.1677
vn -0.7820 -0.4824 -0.3947
vn -0.8572 -0.1236 -0.4999
vn -0.8229 0.2097 -0.5281
vn -0.1607 -0.9818 -0.1015
vn -0.1806 -0.9804 -0.0786
vn -0.1564 -0.9765 0.1485
vn -0.4800 -0.7943 -0.3725
vn -0.5169 -0.8425 -0.1518
vn -0.4664 -0.8756 0.1262
vn -0.4448 -0.7758 0.4475
vn -0.1542 -0.8626 0.4818
vn -0.2261 -0.9220 -0.3144
vn -0.3148 0.2794 -0.9071
vn -0.3250 -0.1799 -0.9284
vn -0.2669 0.5681 -0.7785
vn -0.4934 0.5045 -0.7086
vn -0.5804 0.2495 -0.7751
vn -0.6137 -0.1420 -0.7766
vn -0.5175 -0.5489 -0.6564
vn -0.2683 -0.6184 -0.7387
vn -0.1733 0.1395 0.9749
vn -0.1703 -0.1865 0.9676
vn -0.5492 0.4099 0.7283
vn -0.1876 0.4801 0.8569
vn -0.1626 -0.5423 0.8243
vn -0.4611 -0.5075 0.7279
vn -0.5518 -0.1809 0.8141
vn -0.5611 0.1458 0.8148
vn 0.6237 -0.6944 -0.3588
vn -0.4446 0.8893 -0.1073
vn -0.1157 -0.9877 -0.1055
vn -0.1947 -0.9606 -0.1984
vn -0.9478 -0.2892 -0.1345
vn -0.9110 0.4004 -0.0991
vn -0.2583 0.9657 0.0250
vn -0.1155 -0.9911 -0.0667
vn -0.8819 -0.4606 -0.1009
vn -0.9674 0.1950 0.1615
vn -0.3525 0.9238 0.1494
vn -0.7279 0.4709 0.4984
vn -0.2606 0.8359 0.4830
vn -0.2613 -0.1269 0.9569
vn -0.0478 -0.8364 0.5460
vn -0.7874 0.4967 -0.3651
vn -0.6137 -0.1122 0.7815
vn -0.9547 0.2574 -0.1491
vn -0.2013 -0.9603 0.1933
vn 0.3337 -0.6505 -0.6822
vn -0.8792 0.0928 -0.4673
vn -0.8936 -0.1963 0.4037
vn 0.9074 -0.4189 -0.0342
vn -0.0003 0.8579 -0.5138
vn -0.8004 0.5963 0.0616
vn 0.8513 0.2595 -0.4561
vn -0.0799 -0.9379 0.3376
vn -0.8818 0.4632 -0.0892
vn 0.8409 0.0685 -0.5368
vn -0.0153 -0.7613 0.6483
vn -0.8966 -0.0972 0.4321
vn 0.8597 -0.5108 -0.0064
vn 0.0005 0.7293 -0.6842
vn -0.4863 0.4070 0.7732
vn 0.9810 -0.1084 0.1609
vn 0.5180 0.8372 -0.1755
vn -0.6107 0.7786 0.1445
vn 0.6450 -0.4136 -0.6426
vn 0.5357 -0.0078 0.8444
vn -0.7899 0.5245 0.3177
vn -0.0040 -0.7327 0.6806
vn -0.8666 0.2159 0.4498
vn 0.2585 0.5817 -0.7712
vn 0.9902 -0.1384 0.0209
vn 0.6861 0.3555 -0.6347
vn -0.9875 -0.0160 -0.1571
vn 0.9655 0.1267 -0.2274
vn 0.1454 -0.8786 0.4550
vn -0.9888 -0.1448 -0.0372
vn 0.1201 0.4672 -0.8759
vn -0.9894 -0.0441 -0.1386
vn 0.5295 -0.5510 0.6450
vn 0.5458 -0.7009 0.4592
vn 0.2123 -0.7263 -0.6538
vn -0.9803 0.1756 0.0904
vn 0.0418 0.4907 -0.8703
vn 0.9250 -0.3747 -0.0635
vn -0.1912 -0.1246 0.9736
vn -0.5591 0.6305 0.5384
vn -0.0128 -0.3476 0.9376
vn -0.5064 -0.0383 0.8614
vn 0.4785 -0.6898 -0.5434
vn 0.5887 -0.4563 -0.6672
vn -0.0265 -0.9142 0.4045
vn 0.8736 0.2709 -0.4043
vn -0.8107 0.5780 0.0937
vn -0.0431 0.8519 -0.5219
vn 0.9220 -0.3788 -0.0804
vn -0.8797 -0.2041 0.4295
vn 0.0430 0.8455 -0.5323
vn 0.8697 -0.4935 -0.0068
vn -0.8949 -0.1311 0.4267
vn -0.0768 -0.8988 0.4315
vn 0.7567 0.1062 -0.6451
vn -0.8096 0.5869 -0.0151
vn -0.4807 0.8531 0.2029
vn -0.9942 0.0453 -0.0978
vn -0.5087 -0.7699 -0.3853
vn 0.5343 -0.7621 -0.3657
vn 0.5342 -0.6369 -0.5558
vn 0.4876 0.8439 0.2238
vn -0.4660 0.4880 -0.7381
vn -0.9957 0.0788 -0.0488
vn 0.9807 -0.1832 0.0684
vn -0.9990 -0.0201 0.0406
vn -0.4999 0.7392 0.4513
vn -0.4699 -0.7691 -0.4332
vn 0.5539 -0.1670 0.8157
vn 0.5047 -0.2690 0.8203
vn 0.4500 -0.6680 0.5927
vn -0.4589 -0.8528 -0.2494
vn -0.4690 0.7701 0.4324
vn -0.0672 0.9348 -0.3487
vn 0.5457 -0.6751 -0.4964
vn -0.9395 -0.1127 0.3235
vn 0.9994 0.0355 0.0020
vn 0.9996 0.0248 -0.0154
vn -0.4986 0.5169 0.6958
vn -0.5000 -0.4444 -0.7434
vn 0.4999 0.4732 0.7254
vn 0.5000 -0.4539 -0.7375
vn 0.4980 -0.5119 -0.7000
vn 0.6121 0.4852 0.6245
vn -0.4930 -0.4237 -0.7599
vn -0.5510 0.3933 0.7361
vn 1.0000 -0.0007 0.0005
vn -0.9977 0.0553 -0.0381
vn 0.3582 -0.3849 -0.8506
vn -0.2344 -0.9721 -0.0032
vn 0.1309 0.9883 0.0778
vn -0.2982 0.8446 0.4448
vn -0.1669 -0.9820 0.0878
vn -0.8734 -0.1109 0.4742
vn -0.0016 0.9983 -0.0585
vn 0.1046 0.9929 0.0572
vn -0.0040 0.9937 0.1116
vn -0.4054 -0.5028 -0.7635
vn -0.4119 0.5702 0.7108
vn 0.4150 0.5697 0.7094
vn 0.4084 -0.5020 -0.7624
vn -0.9993 0.0366 0.0041
vn -0.9964 0.0489 -0.0696
vn 1.0000 -0.0002 0.0008
vn -0.3537 0.9171 -0.1839
vn -0.5138 -0.7783 -0.3609
vn 0.3807 0.9140 -0.1404
vn 0.4814 -0.8466 -0.2270
vn -0.9968 0.0581 -0.0551
vn 1.0000 -0.0005 0.0008
vn -0.4209 0.8702 0.2560
vn -0.5187 -0.7196 -0.4617
vn 0.4789 0.7443 0.4656
vn 0.4870 -0.7088 -0.5104
vn -0.2691 0.9600 0.0768
vn -0.2179 -0.9724 -0.0834
vn -0.9082 -0.0962 0.4073
vn -0.7517 -0.3379 0.5664
vn -0.8391 0.5429 0.0335
vn -0.5488 0.8323 0.0777
vn -0.5513 -0.8343 -0.0000
vn -0.9597 0.0286 -0.2797
vn 0.3837 0.1706 -0.9076
vn -0.2524 0.6773 -0.6911
vn 0.5298 0.8278 0.1844
vt 0.500000 0.375000
vt 0.437500 0.437500
vt 0.437500 0.375000
vt 0.562500 0.437500
vt 0.500000 0.437500
vt 0.625000 0.375000
vt 0.562500 0.375000
vt 0.625000 0.500000
vt 0.562500 0.500000
vt 0.500000 0.500000
vt 0.437500 0.500000
vt 0.375000 0.500000
vt 0.375000 0.437500
vt 0.375000 0.375000
vt 0.437500 0.562500
vt 0.500000 0.625000
vt 0.437500 0.625000
vt 0.500000 0.562500
vt 0.562500 0.625000
vt 0.500000 0.687500
vt 0.437500 0.687500
vt 0.562500 0.687500
vt 0.375000 0.562500
vt 0.562500 0.562500
vt 0.625000 0.625000
vt 0.625000 0.687500
vt 0.625000 0.750000
vt 0.562500 0.750000
vt 0.500000 0.750000
vt 0.437500 0.750000
vt 0.375000 0.750000
vt 0.375000 0.687500
vt 0.375000 0.625000
vt 0.500000 0.875000
vt 0.468750 0.875000
vt 0.437500 0.875000
vt 0.500000 0.812500
vt 0.562500 0.875000
vt 0.437500 0.812500
vt 0.375000 0.812500
vt 0.562500 0.812500
vt 0.625000 0.812500
vt 0.375000 0.875000
vt 0.250000 0.562500
vt 0.312500 0.625000
vt 0.250000 0.625000
vt 0.312500 0.687500
vt 0.250000 0.687500
vt 0.250000 0.500000
vt 0.312500 0.562500
vt 0.312500 0.500000
vt 0.312500 0.750000
vt 0.250000 0.750000
vt 0.687500 0.562500
vt 0.750000 0.625000
vt 0.687500 0.625000
vt 0.750000 0.687500
vt 0.687500 0.687500
vt 0.625000 0.562500
vt 0.687500 0.500000
vt 0.750000 0.562500
vt 0.687500 0.750000
vt 1.000000 0.500000
vt 0.833333 1.000000
vt 0.833333 0.500000
vt 0.666667 1.000000
vt 0.666667 0.500000
vt 0.500000 1.000000
vt 0.500000 0.500000
vt 0.333333 0.500000
vt 0.042154 0.130000
vt 0.250000 0.010000
vt 0.457846 0.130000
vt 0.333333 1.000000
vt 0.166667 0.500000
vt 0.166667 1.000000
vt -0.000000 0.500000
vt 0.542154 0.130000
vt 0.542154 0.370000
vt 0.957846 0.370000
vt 1.000000 0.828637
vt 0.875000 1.000000
vt 0.875000 0.828637
vt 0.625000 0.828637
vt 0.500000 1.000000
vt 0.500000 0.828637
vt 0.625000 0.645722
vt 0.500000 0.500000
vt 0.750000 0.500000
vt 0.875000 0.645722
vt 0.875000 0.500000
vt 0.500000 0.645722
vt 0.750000 0.828637
vt 0.750000 0.645722
vt 1.000000 0.645722
vt 0.750000 1.000000
vt 1.000000 1.000000
vt 0.625000 1.000000
vt 0.749520 0.964446
vt 0.653402 0.965669
vt 0.844587 0.863513
vt 0.844268 0.965118
vt 0.647775 0.863148
vt 0.750840 0.864057
vt 0.749520 0.964446
vt 0.750840 0.864057
vt 0.647775 0.863149
vt 0.844587 0.863513
vt 0.844267 0.965117
vt 0.653402 0.965669
vt 0.749520 0.964446
vt 0.844268 0.965117
vt 0.750840 0.864057
vt 0.653402 0.965669
vt 0.844587 0.863513
vt 0.000000 0.000000
vt 0.833333 0.500000
vt -0.000000 1.000000
vt 0.500000 0.500000
vt 0.500000 0.500000
vt 0.166667 0.500000
vt -0.000000 0.500000
vt 0.833333 0.500000
vt 0.042154 0.370000
vt 0.457846 0.370000
vt 0.750000 0.010000
vt 0.333333 0.500000
vt 0.457846 0.250000
vt 0.625000 0.437500
vt 0.750000 0.500000
vt 0.957846 0.130000
vt 0.250000 0.490000
vt 0.625000 0.875000
vt 0.750000 0.750000
vt 0.250000 0.490000
vt 0.750000 0.490000
vt 0.750000 0.490000
s 0
f 26/1/1 28/2/1 25/3/1
f 26/1/2 30/4/2 29/5/2
f 7/6/3 30/4/3 27/7/3
f 30/4/4 4/8/4 9/9/4
f 29/5/5 9/9/5 10/10/5
f 28/2/6 10/10/6 11/11/6
f 28/2/7 3/12/7 5/13/7
f 25/3/8 5/13/8 6/14/8
f 31/15/9 35/16/9 34/17/9
f 32/18/10 36/19/10 35/16/10
f 34/17/11 38/20/11 37/21/11
f 35/16/12 39/22/12 38/20/12
f 3/12/13 31/15/13 14/23/13
f 11/11/14 32/18/14 31/15/14
f 10/10/15 33/24/15 32/18/15
f 4/8/16 33/24/16 9/9/16
f 33/24/17 16/25/17 36/19/17
f 36/19/18 17/26/18 39/22/18
f 39/22/19 2/27/19 18/28/19
f 38/20/20 18/28/20 19/29/20
f 37/21/21 19/29/21 20/30/21
f 37/21/22 1/31/22 12/32/22
f 13/33/23 37/21/23 12/32/23
f 14/23/24 34/17/24 13/33/24
f 44/34/25 58/35/25 43/36/25
f 41/37/26 45/38/26 44/34/26
f 1/31/27 40/39/27 22/40/27
f 20/30/28 41/37/28 40/39/28
f 19/29/29 42/41/29 41/37/29
f 2/27/30 42/41/30 18/28/30
f 23/42/31 45/38/31 42/41/31
f 22/40/32 43/36/32 21/43/32
f 46/44/33 49/45/33 48/46/33
f 48/46/34 51/47/34 50/48/34
f 6/49/35 47/50/35 46/44/35
f 5/51/36 14/23/36 47/50/36
f 47/50/37 13/33/37 49/45/37
f 49/45/38 12/32/38 51/47/38
f 51/47/39 1/31/39 22/52/39
f 51/47/40 21/53/40 50/48/40
f 52/54/41 55/55/41 54/56/41
f 54/56/42 57/57/42 56/58/42
f 4/8/43 52/54/43 15/59/43
f 8/60/44 53/61/44 52/54/44
f 57/57/45 23/62/45 56/58/45
f 56/58/46 2/27/46 17/26/46
f 16/25/47 56/58/47 17/26/47
f 15/59/48 54/56/48 16/25/48
f 59/63/49 62/64/49 61/65/49
f 61/65/50 64/66/50 63/67/50
f 63/67/51 66/68/51 65/69/51
f 66/68/52 67/70/52 65/69/52
f 68/71/53 66/72/53 64/73/53
f 68/74/54 69/75/54 67/70/54
f 70/76/55 59/77/55 69/75/55
f 67/78/56 69/79/56 61/80/56
f 86/81/57 97/82/57 99/83/57
f 100/84/58 80/85/58 90/86/58
f 84/87/59 79/88/59 77/8/59
f 75/89/60 84/87/60 77/8/60
f 82/90/61 75/89/61 73/91/61
f 71/63/62 82/90/62 73/91/62
f 100/84/63 85/92/63 84/87/63
f 101/93/64 84/87/64 83/94/64
f 99/83/65 83/94/65 82/90/65
f 81/95/66 99/83/66 82/90/66
f 97/82/67 93/96/67 96/96/67
f 72/97/68 92/82/68 97/82/68
f 98/98/69 93/96/69 94/98/69
f 80/85/70 94/98/70 95/85/70
f 76/99/71 97/82/71 96/96/71
f 78/100/72 96/96/72 98/98/72
f 87/101/73 97/82/73 74/102/73
f 78/100/74 100/84/74 89/103/74
f 89/103/75 101/93/75 88/104/75
f 87/101/76 101/93/76 99/83/76
f 150/105/77 104/100/77 103/99/77
f 151/106/78 107/103/78 152/107/78
f 154/108/79 102/102/79 105/101/79
f 150/105/80 102/102/80 153/109/80
f 151/106/81 105/101/81 106/104/81
f 152/107/82 104/100/82 149/110/82
f 155/111/83 108/102/83 156/112/83
f 158/113/84 111/101/84 112/104/84
f 160/114/85 113/103/85 110/100/85
f 155/111/86 110/100/86 109/99/86
f 158/113/87 113/103/87 159/107/87
f 156/112/88 111/101/88 157/115/88
f 110/100/89 115/99/89 109/99/89
f 112/104/90 133/103/90 113/103/90
f 108/102/91 117/101/91 111/101/91
f 108/102/92 115/99/92 114/102/92
f 111/101/93 118/104/93 112/104/93
f 110/100/94 119/103/94 116/100/94
f 114/102/95 121/99/95 120/102/95
f 117/101/96 124/104/96 118/104/96
f 119/103/97 122/100/97 116/100/97
f 115/99/98 122/100/98 121/99/98
f 119/103/99 124/104/99 125/103/99
f 117/101/100 120/102/100 123/101/100
f 124/104/101 131/103/101 125/103/101
f 123/101/102 126/102/102 129/101/102
f 121/99/103 126/102/103 120/102/103
f 124/104/104 129/101/104 130/104/104
f 125/103/105 128/100/105 122/100/105
f 121/99/106 128/100/106 127/99/106
f 132/104/107 137/103/107 133/103/107
f 118/104/108 132/104/108 112/104/108
f 119/103/109 134/104/109 118/104/109
f 119/103/110 133/103/110 135/103/110
f 139/103/111 141/103/111 143/103/111
f 135/103/112 137/103/112 139/103/112
f 135/103/113 138/104/113 134/104/113
f 134/104/114 136/104/114 132/104/114
f 141/103/115 142/104/115 143/103/115
f 139/103/116 142/104/116 138/104/116
f 138/104/117 140/104/117 136/104/117
f 136/104/118 141/103/118 137/103/118
f 94/98/119 146/96/119 147/98/119
f 91/97/120 145/82/120 92/82/120
f 94/98/121 148/85/121 95/85/121
f 92/82/122 146/96/122 93/96/122
f 128/100/123 130/104/123 127/99/123
f 127/99/124 129/101/124 126/102/124
f 89/103/125 149/110/125 78/100/125
f 88/104/126 154/108/126 151/106/126
f 74/102/127 150/105/127 153/109/127
f 87/101/128 153/109/128 154/108/128
f 88/104/129 152/107/129 89/103/129
f 78/100/130 150/105/130 76/99/130
f 102/102/131 157/115/131 105/101/131
f 106/104/132 159/107/132 107/103/132
f 103/99/133 160/114/133 155/111/133
f 104/100/134 159/107/134 160/114/134
f 106/104/135 157/115/135 158/113/135
f 103/99/136 156/112/136 102/102/136
f 162/97/137 163/65/137 161/63/137
f 163/65/138 166/66/138 165/67/138
f 165/67/139 168/68/139 167/69/139
f 168/68/140 169/70/140 167/69/140
f 170/74/141 175/68/141 176/74/141
f 368/74/142 369/75/142 416/116/142
f 170/74/143 171/75/143 169/70/143
f 190/67/144 185/65/144 191/117/144
f 177/76/145 182/74/145 183/76/145
f 164/64/146 174/66/146 166/66/146
f 164/64/147 172/97/147 173/64/147
f 166/66/148 175/68/148 168/68/148
f 182/71/149 181/72/149 180/73/149
f 174/66/150 181/68/150 175/68/150
f 173/64/151 178/97/151 179/64/151
f 177/76/152 178/118/152 172/118/152
f 175/68/153 182/74/153 176/74/153
f 173/64/154 180/66/154 174/66/154
f 188/70/155 210/75/155 209/70/155
f 192/75/156 188/70/156 193/70/156
f 191/117/157 184/63/157 194/63/157
f 190/67/158 187/69/158 186/67/158
f 192/75/159 184/77/159 189/75/159
f 193/70/160 187/69/160 195/119/160
f 221/70/161 195/119/161 219/120/161
f 218/121/162 194/122/162 192/75/162
f 217/67/163 195/119/163 190/67/163
f 222/63/164 191/117/164 194/63/164
f 218/121/165 193/70/165 221/70/165
f 220/123/166 190/67/166 191/117/166
f 183/76/167 178/118/167 200/116/167
f 182/116/168 197/116/168 196/116/168
f 181/116/169 198/116/169 197/116/169
f 196/116/170 183/124/170 182/71/170
f 199/116/171 178/116/171 200/116/171
f 199/116/172 201/116/172 179/116/172
f 198/116/173 202/116/173 203/116/173
f 179/125/174 202/73/174 180/73/174
f 206/80/175 208/126/175 210/79/175
f 187/69/176 207/67/176 186/67/176
f 185/65/177 205/63/177 184/63/177
f 189/75/178 205/77/178 210/75/178
f 187/69/179 209/70/179 208/69/179
f 186/67/180 206/65/180 185/65/180
f 163/65/181 214/67/181 211/123/181
f 171/75/182 212/127/182 169/70/182
f 161/63/183 211/123/183 213/63/183
f 165/67/184 216/69/184 214/67/184
f 161/77/185 215/121/185 171/75/185
f 169/70/186 216/69/186 167/69/186
f 211/123/187 217/67/187 220/123/187
f 215/121/188 221/70/188 212/127/188
f 213/63/189 220/123/189 222/63/189
f 214/67/190 219/120/190 217/67/190
f 215/121/191 222/77/191 218/121/191
f 212/127/192 219/120/192 216/69/192
f 204/116/193 73/116/193 201/116/193
f 203/116/194 77/116/194 79/116/194
f 201/125/195 73/125/195 75/128/195
f 145/82/196 225/96/196 146/96/196
f 146/96/197 226/98/197 147/98/197
f 145/82/198 223/97/198 224/82/198
f 147/98/199 227/85/199 148/85/199
f 248/2/200 26/1/200 25/3/200
f 26/1/201 250/4/201 27/7/201
f 250/4/202 7/6/202 27/7/202
f 250/4/203 231/8/203 233/129/203
f 249/5/204 234/9/204 250/4/204
f 248/2/205 235/10/205 249/5/205
f 230/12/206 248/2/206 232/13/206
f 232/13/207 25/3/207 6/14/207
f 251/15/208 255/16/208 252/18/208
f 252/18/209 256/19/209 253/24/209
f 254/17/210 258/20/210 255/16/210
f 255/16/211 259/22/211 256/19/211
f 230/12/212 251/15/212 236/11/212
f 236/11/213 252/18/213 235/10/213
f 235/10/214 253/24/214 234/9/214
f 253/24/215 231/8/215 234/9/215
f 253/24/216 241/25/216 240/59/216
f 256/19/217 242/26/217 241/25/217
f 259/22/218 229/27/218 242/26/218
f 258/20/219 243/28/219 259/22/219
f 257/21/220 244/29/220 258/20/220
f 228/31/221 257/21/221 237/32/221
f 238/33/222 257/21/222 254/17/222
f 239/23/223 254/17/223 251/15/223
f 261/37/224 45/38/224 262/41/224
f 228/31/225 260/39/225 245/30/225
f 245/30/226 261/37/226 244/29/226
f 244/29/227 262/41/227 243/28/227
f 262/41/228 229/27/228 243/28/228
f 45/38/229 247/42/229 262/41/229
f 246/40/230 43/36/230 260/39/230
f 46/44/231 264/45/231 263/50/231
f 48/46/232 265/47/232 264/45/232
f 6/49/233 263/50/233 232/51/233
f 232/51/234 239/23/234 230/12/234
f 263/50/235 238/33/235 239/23/235
f 264/45/236 237/32/236 238/33/236
f 265/47/237 228/31/237 237/32/237
f 21/53/238 265/47/238 50/48/238
f 266/54/239 55/55/239 53/61/239
f 267/56/240 57/57/240 55/55/240
f 231/8/241 266/54/241 233/60/241
f 233/60/242 53/61/242 7/130/242
f 247/62/243 57/57/243 268/58/243
f 229/27/244 268/58/244 242/26/244
f 241/25/245 268/58/245 267/56/245
f 240/59/246 267/56/246 266/54/246
f 269/63/247 272/64/247 270/97/247
f 271/65/248 274/66/248 272/64/248
f 273/67/249 276/68/249 274/66/249
f 277/70/250 276/68/250 275/69/250
f 278/71/251 280/124/251 274/73/251
f 279/75/252 278/74/252 277/70/252
f 269/77/253 280/76/253 279/75/253
f 271/80/254 277/78/254 273/131/254
f 86/81/255 297/82/255 72/97/255
f 300/84/256 80/85/256 298/98/256
f 79/88/257 289/87/257 285/8/257
f 283/89/258 289/87/258 288/94/258
f 283/89/259 287/90/259 281/91/259
f 71/63/260 287/90/260 81/95/260
f 85/92/261 300/84/261 289/87/261
f 289/87/262 301/93/262 288/94/262
f 288/94/263 299/83/263 287/90/263
f 81/95/264 299/83/264 86/81/264
f 294/96/265 297/82/265 296/96/265
f 293/82/266 72/97/266 297/82/266
f 298/98/267 294/96/267 296/96/267
f 80/85/268 295/98/268 298/98/268
f 284/99/269 297/82/269 282/102/269
f 286/100/270 296/96/270 284/99/270
f 297/82/271 290/101/271 282/102/271
f 300/84/272 286/100/272 292/103/272
f 301/93/273 292/103/273 291/104/273
f 290/101/274 301/93/274 291/104/274
f 348/105/275 304/100/275 347/110/275
f 307/103/276 349/106/276 350/107/276
f 352/108/277 302/102/277 351/109/277
f 302/102/278 348/105/278 351/109/278
f 349/106/279 305/101/279 352/108/279
f 304/100/280 350/107/280 347/110/280
f 308/102/281 353/111/281 354/112/281
f 356/113/282 311/101/282 355/115/282
f 358/114/283 313/103/283 357/107/283
f 353/111/284 310/100/284 358/114/284
f 313/103/285 356/113/285 357/107/285
f 311/101/286 354/112/286 355/115/286
f 315/99/287 310/100/287 309/99/287
f 333/103/288 312/104/288 313/103/288
f 317/101/289 308/102/289 311/101/289
f 308/102/290 315/99/290 309/99/290
f 318/104/291 311/101/291 312/104/291
f 310/100/292 319/103/292 313/103/292
f 314/102/293 321/99/293 315/99/293
f 324/104/294 317/101/294 318/104/294
f 322/100/295 319/103/295 316/100/295
f 315/99/296 322/100/296 316/100/296
f 319/103/297 324/104/297 318/104/297
f 317/101/298 320/102/298 314/102/298
f 331/103/299 324/104/299 325/103/299
f 323/101/300 326/102/300 320/102/300
f 326/102/301 321/99/301 320/102/301
f 324/104/302 329/101/302 323/101/302
f 328/100/303 325/103/303 322/100/303
f 321/99/304 328/100/304 322/100/304
f 337/103/305 332/104/305 333/103/305
f 332/104/306 318/104/306 312/104/306
f 334/104/307 319/103/307 318/104/307
f 319/103/308 333/103/308 313/103/308
f 339/103/309 341/103/309 337/103/309
f 335/103/310 337/103/310 333/103/310
f 338/104/311 335/103/311 334/104/311
f 336/104/312 334/104/312 332/104/312
f 341/103/313 342/104/313 340/104/313
f 342/104/314 339/103/314 338/104/314
f 340/104/315 338/104/315 336/104/315
f 341/103/316 336/104/316 337/103/316
f 295/98/317 345/96/317 294/96/317
f 344/82/318 91/97/318 293/82/318
f 148/85/319 295/98/319 95/85/319
f 345/96/320 293/82/320 294/96/320
f 328/100/321 330/104/321 331/103/321
f 327/99/322 329/101/322 330/104/322
f 347/110/323 292/103/323 286/100/323
f 291/104/324 352/108/324 290/101/324
f 282/102/325 348/105/325 284/99/325
f 290/101/326 351/109/326 282/102/326
f 350/107/327 291/104/327 292/103/327
f 348/105/328 286/100/328 284/99/328
f 355/115/329 302/102/329 305/101/329
f 357/107/330 306/104/330 307/103/330
f 303/99/331 358/114/331 304/100/331
f 304/100/332 357/107/332 307/103/332
f 306/104/333 355/115/333 305/101/333
f 354/112/334 303/99/334 302/102/334
f 361/65/335 360/97/335 359/63/335
f 361/65/336 364/66/336 362/64/336
f 363/67/337 366/68/337 364/66/337
f 367/70/338 366/68/338 365/69/338
f 368/74/339 373/68/339 366/68/339
f 416/116/340 359/63/340 360/97/340
f 162/97/341 171/75/341 415/116/341
f 381/65/342 386/67/342 387/117/342
f 177/76/343 379/74/343 374/74/343
f 372/66/344 362/64/344 364/66/344
f 362/64/345 370/97/345 360/97/345
f 373/68/346 364/66/346 366/68/346
f 379/71/347 183/124/347 375/132/347
f 378/68/348 372/66/348 373/68/348
f 371/64/349 375/97/349 370/97/349
f 375/118/350 177/76/350 370/118/350
f 379/74/351 373/68/351 374/74/351
f 377/66/352 371/64/352 372/66/352
f 384/70/353 399/75/353 385/75/353
f 384/70/354 388/75/354 389/70/354
f 380/63/355 387/117/355 390/63/355
f 386/67/356 383/69/356 391/119/356
f 388/75/357 380/77/357 390/122/357
f 383/69/358 389/70/358 391/119/358
f 391/119/359 410/70/359 408/120/359
f 407/121/360 390/122/360 411/77/360
f 406/67/361 391/119/361 408/120/361
f 411/63/362 387/117/362 409/123/362
f 389/70/363 407/121/363 410/70/363
f 409/123/364 386/67/364 406/67/364
f 183/76/365 200/116/365 375/118/365
f 197/116/366 379/116/366 196/116/366
f 198/116/367 378/116/367 197/116/367
f 196/116/368 379/71/368 183/124/368
f 199/116/369 375/116/369 376/116/369
f 392/116/370 199/116/370 376/116/370
f 198/116/371 393/116/371 377/116/371
f 393/73/372 376/125/372 377/73/372
f 399/79/373 397/126/373 395/80/373
f 396/67/374 383/69/374 382/67/374
f 394/63/375 381/65/375 380/63/375
f 385/75/376 394/77/376 380/77/376
f 383/69/377 398/70/377 384/70/377
f 395/65/378 382/67/378 381/65/378
f 361/65/379 403/67/379 363/67/379
f 401/127/380 369/75/380 367/70/380
f 359/63/381 400/123/381 361/65/381
f 363/67/382 405/69/382 365/69/382
f 404/121/383 359/77/383 369/75/383
f 405/69/384 367/70/384 365/69/384
f 400/123/385 406/67/385 403/67/385
f 410/70/386 404/121/386 401/127/386
f 402/63/387 409/123/387 400/123/387
f 403/67/388 408/120/388 405/69/388
f 404/121/389 411/77/389 402/77/389
f 408/120/390 401/127/390 405/69/390
f 281/116/391 204/116/391 392/116/391
f 203/116/392 285/116/392 393/116/392
f 283/128/393 281/125/393 392/125/393
f 413/96/394 344/82/394 345/96/394
f 414/98/395 345/96/395 346/98/395
f 344/82/396 223/97/396 144/97/396
f 227/85/397 346/98/397 148/85/397
f 415/116/398 176/74/398 177/76/398
f 416/116/399 374/74/399 368/74/399
f 172/118/400 415/116/400 177/76/400
f 416/116/401 370/118/401 177/76/401
f 26/1/402 29/5/402 28/2/402
f 26/1/403 27/7/403 30/4/403
f 7/6/404 8/129/404 30/4/404
f 30/4/405 8/129/405 4/8/405
f 29/5/406 30/4/406 9/9/406
f 28/2/407 29/5/407 10/10/407
f 28/2/408 11/11/408 3/12/408
f 25/3/409 28/2/409 5/13/409
f 31/15/410 32/18/410 35/16/410
f 32/18/411 33/24/411 36/19/411
f 34/17/412 35/16/412 38/20/412
f 35/16/413 36/19/413 39/22/413
f 3/12/414 11/11/414 31/15/414
f 11/11/415 10/10/415 32/18/415
f 10/10/416 9/9/416 33/24/416
f 4/8/417 15/59/417 33/24/417
f 33/24/418 15/59/418 16/25/418
f 36/19/419 16/25/419 17/26/419
f 39/22/420 17/26/420 2/27/420
f 38/20/421 39/22/421 18/28/421
f 37/21/422 38/20/422 19/29/422
f 37/21/423 20/30/423 1/31/423
f 13/33/424 34/17/424 37/21/424
f 14/23/425 31/15/425 34/17/425
f 43/36/426 40/39/426 44/34/426
f 40/39/427 41/37/427 44/34/427
f 41/37/428 42/41/428 45/38/428
f 1/31/429 20/30/429 40/39/429
f 20/30/430 19/29/430 41/37/430
f 19/29/431 18/28/431 42/41/431
f 2/27/432 23/42/432 42/41/432
f 23/42/433 24/133/433 45/38/433
f 22/40/434 40/39/434 43/36/434
f 46/44/435 47/50/435 49/45/435
f 48/46/436 49/45/436 51/47/436
f 6/49/437 5/51/437 47/50/437
f 5/51/438 3/12/438 14/23/438
f 47/50/439 14/23/439 13/33/439
f 49/45/440 13/33/440 12/32/440
f 51/47/441 12/32/441 1/31/441
f 51/47/442 22/52/442 21/53/442
f 52/54/443 53/61/443 55/55/443
f 54/56/444 55/55/444 57/57/444
f 4/8/445 8/60/445 52/54/445
f 8/60/446 7/130/446 53/61/446
f 57/57/447 24/134/447 23/62/447
f 56/58/448 23/62/448 2/27/448
f 16/25/449 54/56/449 56/58/449
f 15/59/450 52/54/450 54/56/450
f 59/63/49 60/97/49 62/64/49
f 61/65/50 62/64/50 64/66/50
f 63/67/51 64/66/51 66/68/51
f 66/68/451 68/74/451 67/70/451
f 64/73/53 62/125/53 68/71/53
f 62/125/53 60/135/53 70/124/53
f 68/71/53 62/125/53 70/124/53
f 68/74/54 70/76/54 69/75/54
f 70/76/55 60/118/55 59/77/55
f 69/79/56 59/136/56 61/80/56
f 61/80/56 63/131/56 67/78/56
f 63/131/56 65/126/56 67/78/56
f 86/81/452 72/97/452 97/82/452
f 100/84/453 98/98/453 80/85/453
f 84/87/454 85/92/454 79/88/454
f 75/89/455 83/94/455 84/87/455
f 82/90/456 83/94/456 75/89/456
f 71/63/457 81/95/457 82/90/457
f 100/84/458 90/86/458 85/92/458
f 101/93/459 100/84/459 84/87/459
f 99/83/460 101/93/460 83/94/460
f 81/95/461 86/81/461 99/83/461
f 97/82/462 92/82/462 93/96/462
f 72/97/463 91/97/463 92/82/463
f 98/98/464 96/96/464 93/96/464
f 80/85/465 98/98/465 94/98/465
f 76/99/466 74/102/466 97/82/466
f 78/100/467 76/99/467 96/96/467
f 87/101/468 99/83/468 97/82/468
f 78/100/469 98/98/469 100/84/469
f 89/103/470 100/84/470 101/93/470
f 87/101/471 88/104/471 101/93/471
f 150/105/472 149/110/472 104/100/472
f 151/106/473 106/104/473 107/103/473
f 154/108/474 153/109/474 102/102/474
f 150/105/475 103/99/475 102/102/475
f 151/106/476 154/108/476 105/101/476
f 152/107/477 107/103/477 104/100/477
f 155/111/478 109/99/478 108/102/478
f 158/113/479 157/115/479 111/101/479
f 160/114/480 159/107/480 113/103/480
f 155/111/481 160/114/481 110/100/481
f 158/113/482 112/104/482 113/103/482
f 156/112/483 108/102/483 111/101/483
f 110/100/484 116/100/484 115/99/484
f 112/104/485 132/104/485 133/103/485
f 108/102/486 114/102/486 117/101/486
f 108/102/487 109/99/487 115/99/487
f 111/101/488 117/101/488 118/104/488
f 110/100/489 113/103/489 119/103/489
f 114/102/490 115/99/490 121/99/490
f 117/101/96 123/101/96 124/104/96
f 119/103/491 125/103/491 122/100/491
f 115/99/492 116/100/492 122/100/492
f 119/103/99 118/104/99 124/104/99
f 117/101/493 114/102/493 120/102/493
f 124/104/494 130/104/494 131/103/494
f 123/101/495 120/102/495 126/102/495
f 121/99/496 127/99/496 126/102/496
f 124/104/497 123/101/497 129/101/497
f 125/103/498 131/103/498 128/100/498
f 121/99/499 122/100/499 128/100/499
f 132/104/107 136/104/107 137/103/107
f 118/104/500 134/104/500 132/104/500
f 119/103/501 135/103/501 134/104/501
f 119/103/502 113/103/502 133/103/502
f 139/103/503 137/103/503 141/103/503
f 135/103/112 133/103/112 137/103/112
f 135/103/113 139/103/113 138/104/113
f 134/104/114 138/104/114 136/104/114
f 141/103/504 140/104/504 142/104/504
f 139/103/505 143/103/505 142/104/505
f 138/104/506 142/104/506 140/104/506
f 136/104/507 140/104/507 141/103/507
f 94/98/508 93/96/508 146/96/508
f 91/97/509 144/97/509 145/82/509
f 94/98/510 147/98/510 148/85/510
f 92/82/511 145/82/511 146/96/511
f 128/100/512 131/103/512 130/104/512
f 127/99/513 130/104/513 129/101/513
f 89/103/514 152/107/514 149/110/514
f 88/104/515 87/101/515 154/108/515
f 74/102/516 76/99/516 150/105/516
f 87/101/517 74/102/517 153/109/517
f 88/104/518 151/106/518 152/107/518
f 78/100/519 149/110/519 150/105/519
f 102/102/520 156/112/520 157/115/520
f 106/104/521 158/113/521 159/107/521
f 103/99/522 104/100/522 160/114/522
f 104/100/523 107/103/523 159/107/523
f 106/104/524 105/101/524 157/115/524
f 103/99/525 155/111/525 156/112/525
f 162/97/526 164/64/526 163/65/526
f 163/65/527 164/64/527 166/66/527
f 165/67/528 166/66/528 168/68/528
f 168/68/529 170/74/529 169/70/529
f 170/74/530 168/68/530 175/68/530
f 368/74/531 367/70/531 369/75/531
f 170/74/532 415/116/532 171/75/532
f 190/67/533 186/67/533 185/65/533
f 177/76/534 176/74/534 182/74/534
f 164/64/535 173/64/535 174/66/535
f 164/64/536 162/97/536 172/97/536
f 166/66/537 174/66/537 175/68/537
f 180/73/538 179/125/538 182/71/538
f 179/125/539 178/132/539 182/71/539
f 178/132/540 183/124/540 182/71/540
f 174/66/541 180/66/541 181/68/541
f 173/64/542 172/97/542 178/97/542
f 177/76/543 183/76/543 178/118/543
f 175/68/544 181/68/544 182/74/544
f 173/64/545 179/64/545 180/66/545
f 188/70/546 189/75/546 210/75/546
f 192/75/547 189/75/547 188/70/547
f 191/117/548 185/65/548 184/63/548
f 190/67/549 195/119/549 187/69/549
f 192/75/550 194/122/550 184/77/550
f 193/70/551 188/70/551 187/69/551
f 221/70/552 193/70/552 195/119/552
f 218/121/553 222/77/553 194/122/553
f 217/67/554 219/120/554 195/119/554
f 222/63/555 220/123/555 191/117/555
f 218/121/556 192/75/556 193/70/556
f 220/123/557 217/67/557 190/67/557
f 182/116/558 181/116/558 197/116/558
f 181/116/559 180/116/559 198/116/559
f 199/116/560 179/116/560 178/116/560
f 199/116/561 204/116/561 201/116/561
f 198/116/562 180/116/562 202/116/562
f 179/125/563 201/125/563 202/73/563
f 210/79/564 205/137/564 206/80/564
f 206/80/565 207/131/565 208/126/565
f 208/126/566 209/78/566 210/79/566
f 187/69/567 208/69/567 207/67/567
f 185/65/568 206/65/568 205/63/568
f 189/75/569 184/77/569 205/77/569
f 187/69/570 188/70/570 209/70/570
f 186/67/571 207/67/571 206/65/571
f 163/65/572 165/67/572 214/67/572
f 171/75/573 215/121/573 212/127/573
f 161/63/574 163/65/574 211/123/574
f 165/67/575 167/69/575 216/69/575
f 161/77/576 213/77/576 215/121/576
f 169/70/577 212/127/577 216/69/577
f 211/123/578 214/67/578 217/67/578
f 215/121/579 218/121/579 221/70/579
f 213/63/580 211/123/580 220/123/580
f 214/67/581 216/69/581 219/120/581
f 215/121/582 213/77/582 222/77/582
f 212/127/583 221/70/583 219/120/583
f 204/116/584 71/116/584 73/116/584
f 203/116/585 202/116/585 77/116/585
f 77/73/586 202/73/586 75/128/586
f 202/73/587 201/125/587 75/128/587
f 145/82/588 224/82/588 225/96/588
f 146/96/197 225/96/197 226/98/197
f 145/82/589 144/97/589 223/97/589
f 147/98/590 226/98/590 227/85/590
f 248/2/591 249/5/591 26/1/591
f 26/1/592 249/5/592 250/4/592
f 250/4/593 233/129/593 7/6/593
f 250/4/594 234/9/594 231/8/594
f 249/5/595 235/10/595 234/9/595
f 248/2/596 236/11/596 235/10/596
f 230/12/597 236/11/597 248/2/597
f 232/13/598 248/2/598 25/3/598
f 251/15/599 254/17/599 255/16/599
f 252/18/600 255/16/600 256/19/600
f 254/17/601 257/21/601 258/20/601
f 255/16/602 258/20/602 259/22/602
f 230/12/603 239/23/603 251/15/603
f 236/11/604 251/15/604 252/18/604
f 235/10/605 252/18/605 253/24/605
f 253/24/606 240/59/606 231/8/606
f 253/24/607 256/19/607 241/25/607
f 256/19/608 259/22/608 242/26/608
f 259/22/609 243/28/609 229/27/609
f 258/20/610 244/29/610 243/28/610
f 257/21/611 245/30/611 244/29/611
f 228/31/612 245/30/612 257/21/612
f 238/33/613 237/32/613 257/21/613
f 239/23/614 238/33/614 254/17/614
f 261/37/615 260/39/615 44/34/615
f 260/39/616 43/36/616 44/34/616
f 261/37/617 44/34/617 45/38/617
f 228/31/618 246/40/618 260/39/618
f 245/30/619 260/39/619 261/37/619
f 244/29/620 261/37/620 262/41/620
f 262/41/621 247/42/621 229/27/621
f 45/38/622 24/133/622 247/42/622
f 246/40/623 21/43/623 43/36/623
f 46/44/624 48/46/624 264/45/624
f 48/46/625 50/48/625 265/47/625
f 6/49/626 46/44/626 263/50/626
f 232/51/627 263/50/627 239/23/627
f 263/50/628 264/45/628 238/33/628
f 264/45/629 265/47/629 237/32/629
f 265/47/630 246/52/630 228/31/630
f 21/53/631 246/52/631 265/47/631
f 266/54/632 267/56/632 55/55/632
f 267/56/633 268/58/633 57/57/633
f 231/8/634 240/59/634 266/54/634
f 233/60/635 266/54/635 53/61/635
f 247/62/636 24/134/636 57/57/636
f 229/27/637 247/62/637 268/58/637
f 241/25/638 242/26/638 268/58/638
f 240/59/639 241/25/639 267/56/639
f 269/63/247 271/65/247 272/64/247
f 271/65/248 273/67/248 274/66/248
f 273/67/249 275/69/249 276/68/249
f 277/70/640 278/74/640 276/68/640
f 270/135/251 272/125/251 280/124/251
f 272/125/251 274/73/251 280/124/251
f 274/73/251 276/72/251 278/71/251
f 279/75/252 280/76/252 278/74/252
f 269/77/253 270/118/253 280/76/253
f 271/80/254 269/136/254 279/79/254
f 279/79/254 277/78/254 271/80/254
f 277/78/254 275/126/254 273/131/254
f 86/81/641 299/83/641 297/82/641
f 300/84/642 90/86/642 80/85/642
f 79/88/643 85/92/643 289/87/643
f 283/89/644 285/8/644 289/87/644
f 283/89/645 288/94/645 287/90/645
f 71/63/646 281/91/646 287/90/646
f 85/92/647 90/86/647 300/84/647
f 289/87/648 300/84/648 301/93/648
f 288/94/649 301/93/649 299/83/649
f 81/95/650 287/90/650 299/83/650
f 294/96/651 293/82/651 297/82/651
f 293/82/652 91/97/652 72/97/652
f 298/98/653 295/98/653 294/96/653
f 80/85/654 95/85/654 295/98/654
f 284/99/655 296/96/655 297/82/655
f 286/100/656 298/98/656 296/96/656
f 297/82/657 299/83/657 290/101/657
f 300/84/658 298/98/658 286/100/658
f 301/93/659 300/84/659 292/103/659
f 290/101/660 299/83/660 301/93/660
f 348/105/661 303/99/661 304/100/661
f 307/103/662 306/104/662 349/106/662
f 352/108/663 305/101/663 302/102/663
f 302/102/664 303/99/664 348/105/664
f 349/106/665 306/104/665 305/101/665
f 304/100/666 307/103/666 350/107/666
f 308/102/667 309/99/667 353/111/667
f 356/113/668 312/104/668 311/101/668
f 358/114/669 310/100/669 313/103/669
f 353/111/670 309/99/670 310/100/670
f 313/103/671 312/104/671 356/113/671
f 311/101/672 308/102/672 354/112/672
f 315/99/673 316/100/673 310/100/673
f 333/103/674 332/104/674 312/104/674
f 317/101/675 314/102/675 308/102/675
f 308/102/676 314/102/676 315/99/676
f 318/104/677 317/101/677 311/101/677
f 310/100/678 316/100/678 319/103/678
f 314/102/679 320/102/679 321/99/679
f 324/104/294 323/101/294 317/101/294
f 322/100/680 325/103/680 319/103/680
f 315/99/681 321/99/681 322/100/681
f 319/103/297 325/103/297 324/104/297
f 317/101/682 323/101/682 320/102/682
f 331/103/683 330/104/683 324/104/683
f 323/101/684 329/101/684 326/102/684
f 326/102/685 327/99/685 321/99/685
f 324/104/686 330/104/686 329/101/686
f 328/100/687 331/103/687 325/103/687
f 321/99/688 327/99/688 328/100/688
f 337/103/305 336/104/305 332/104/305
f 332/104/689 334/104/689 318/104/689
f 334/104/690 335/103/690 319/103/690
f 319/103/691 335/103/691 333/103/691
f 339/103/692 343/103/692 341/103/692
f 335/103/310 339/103/310 337/103/310
f 338/104/311 339/103/311 335/103/311
f 336/104/312 338/104/312 334/104/312
f 341/103/693 343/103/693 342/104/693
f 342/104/694 343/103/694 339/103/694
f 340/104/695 342/104/695 338/104/695
f 341/103/696 340/104/696 336/104/696
f 295/98/697 346/98/697 345/96/697
f 344/82/698 144/97/698 91/97/698
f 148/85/699 346/98/699 295/98/699
f 345/96/700 344/82/700 293/82/700
f 328/100/701 327/99/701 330/104/701
f 327/99/702 326/102/702 329/101/702
f 347/110/703 350/107/703 292/103/703
f 291/104/704 349/106/704 352/108/704
f 282/102/705 351/109/705 348/105/705
f 290/101/706 352/108/706 351/109/706
f 350/107/707 349/106/707 291/104/707
f 348/105/708 347/110/708 286/100/708
f 355/115/709 354/112/709 302/102/709
f 357/107/710 356/113/710 306/104/710
f 303/99/711 353/111/711 358/114/711
f 304/100/712 358/114/712 357/107/712
f 306/104/713 356/113/713 355/115/713
f 354/112/714 353/111/714 303/99/714
f 361/65/715 362/64/715 360/97/715
f 361/65/716 363/67/716 364/66/716
f 363/67/717 365/69/717 366/68/717
f 367/70/718 368/74/718 366/68/718
f 368/74/719 374/74/719 373/68/719
f 416/116/720 369/75/720 359/63/720
f 162/97/721 161/63/721 171/75/721
f 381/65/722 382/67/722 386/67/722
f 177/76/723 183/76/723 379/74/723
f 372/66/724 371/64/724 362/64/724
f 362/64/725 371/64/725 370/97/725
f 373/68/726 372/66/726 364/66/726
f 375/132/727 376/125/727 379/71/727
f 376/125/728 377/73/728 379/71/728
f 377/73/729 378/72/729 379/71/729
f 378/68/730 377/66/730 372/66/730
f 371/64/731 376/64/731 375/97/731
f 375/118/732 183/76/732 177/76/732
f 379/74/733 378/68/733 373/68/733
f 377/66/734 376/64/734 371/64/734
f 384/70/735 398/70/735 399/75/735
f 384/70/736 385/75/736 388/75/736
f 380/63/737 381/65/737 387/117/737
f 386/67/738 382/67/738 383/69/738
f 388/75/739 385/75/739 380/77/739
f 383/69/740 384/70/740 389/70/740
f 391/119/741 389/70/741 410/70/741
f 407/121/742 388/75/742 390/122/742
f 406/67/743 386/67/743 391/119/743
f 411/63/744 390/63/744 387/117/744
f 389/70/745 388/75/745 407/121/745
f 409/123/746 387/117/746 386/67/746
f 197/116/747 378/116/747 379/116/747
f 198/116/748 377/116/748 378/116/748
f 199/116/749 200/116/749 375/116/749
f 392/116/750 204/116/750 199/116/750
f 198/116/751 203/116/751 393/116/751
f 393/73/752 392/125/752 376/125/752
f 395/80/753 394/137/753 399/79/753
f 399/79/754 398/78/754 397/126/754
f 397/126/755 396/131/755 395/80/755
f 396/67/756 397/69/756 383/69/756
f 394/63/757 395/65/757 381/65/757
f 385/75/758 399/75/758 394/77/758
f 383/69/759 397/69/759 398/70/759
f 395/65/760 396/67/760 382/67/760
f 361/65/761 400/123/761 403/67/761
f 401/127/762 404/121/762 369/75/762
f 359/63/763 402/63/763 400/123/763
f 363/67/764 403/67/764 405/69/764
f 404/121/765 402/77/765 359/77/765
f 405/69/766 401/127/766 367/70/766
f 400/123/767 409/123/767 406/67/767
f 410/70/768 407/121/768 404/121/768
f 402/63/769 411/63/769 409/123/769
f 403/67/770 406/67/770 408/120/770
f 404/121/771 407/121/771 411/77/771
f 408/120/772 410/70/772 401/127/772
f 281/116/773 71/116/773 204/116/773
f 203/116/774 79/116/774 285/116/774
f 392/125/775 393/73/775 283/128/775
f 393/73/776 285/73/776 283/128/776
f 413/96/777 412/82/777 344/82/777
f 414/98/395 413/96/395 345/96/395
f 344/82/778 412/82/778 223/97/778
f 227/85/779 414/98/779 346/98/779
f 415/116/780 170/74/780 176/74/780
f 416/116/781 177/76/781 374/74/781
f 172/118/782 162/97/782 415/116/782
f 416/116/783 360/97/783 370/118/783
