# Blender 5.0.0
# www.blender.org
o body
v 0.496492 -0.836496 10.599059
v 0.583336 -0.739346 11.869997
v 0.476577 0.278155 10.666317
v 0.565221 0.486406 11.905709
v 0.246627 0.341088 10.570428
v -0.000000 0.369678 10.515747
v -0.000000 0.658669 12.039354
v 0.340386 0.599495 11.994840
v 0.631619 0.554539 11.664376
v 0.646511 0.545035 11.305485
v 0.576865 0.424383 10.933705
v 0.562963 -0.631520 10.512962
v 0.591550 -0.317049 10.484260
v 0.550611 0.022595 10.555356
v 0.654626 0.225672 11.985044
v 0.703310 -0.145583 12.017939
v 0.665741 -0.502555 11.964094
v 0.654036 -0.830154 11.617094
v 0.671875 -0.892060 11.244417
v 0.600616 -0.885222 10.864923
v -0.000000 -0.970373 10.433165
v 0.267098 -0.925011 10.492225
v 0.358752 -0.817453 11.957801
v -0.000000 -0.856363 12.002989
v -0.000000 0.674132 10.886986
v -0.000000 0.858995 11.305681
v -0.000000 0.860968 11.711375
v 0.290903 0.614872 10.912938
v 0.337850 0.778810 11.308958
v 0.344425 0.778265 11.691699
v 0.749642 0.108478 10.893390
v 0.841644 0.194318 11.290812
v 0.811618 0.221480 11.676507
v 0.812126 -0.260919 10.850234
v 0.912852 -0.205322 11.271026
v 0.878665 -0.167071 11.682245
v 0.764291 -0.610047 10.852916
v 0.857600 -0.587271 11.254741
v 0.825386 -0.539852 11.648874
v 0.317045 -1.052687 10.828864
v 0.365526 -1.074153 11.113126
v 0.369003 -0.996871 11.636551
v -0.000000 -1.112858 10.851045
v -0.000000 -1.133464 11.108197
v -0.000000 -1.050112 11.656149
v -0.000000 0.004889 10.249570
v 0.255090 0.002209 10.335069
v -0.000000 -0.369841 10.134157
v 0.272938 -0.355472 10.233306
v -0.000000 -0.709899 10.200052
v 0.266506 -0.681006 10.287738
v 0.373244 0.271111 12.171651
v -0.000000 0.302962 12.235507
v 0.399412 -0.129139 12.224276
v -0.000000 -0.120306 12.294005
v 0.383312 -0.515705 12.152617
v -0.000000 -0.530811 12.217184
v -0.000000 -1.256591 10.919306
v 0.899103 0.129189 11.280156
v 0.964296 0.059744 11.301242
v 0.972883 0.157159 11.097797
v 1.038076 0.087714 11.118883
v 0.910948 0.053346 10.854656
v 0.976141 -0.016099 10.875742
v 0.775233 -0.078438 10.793871
v 0.840426 -0.147883 10.814957
v 0.701452 -0.106409 10.976230
v 0.766645 -0.175854 10.997315
v 0.763387 -0.002596 11.219372
v 0.828580 -0.072040 11.240458
v 0.000000 0.608116 7.662818
v -0.000045 0.616784 9.811602
v 0.504716 0.474076 7.477201
v 0.828603 0.412444 9.492584
v 0.598099 0.170519 7.434898
v 0.958572 0.134301 9.704843
v 0.495931 -0.115892 7.396415
v 0.866807 -0.153701 9.530646
v -0.000000 -0.261991 7.523912
v 0.000046 -0.520783 9.499589
v -0.000000 0.657830 8.295877
v 0.570473 0.537140 8.322696
v 0.767003 0.195988 8.312958
v 0.571976 -0.224170 8.300752
v -0.000000 -0.421472 8.295877
v 0.000174 0.708307 9.381482
v 0.703747 0.594552 9.095037
v 0.718558 0.355253 8.892186
v 0.697318 -0.005561 8.943486
v 0.000477 -0.495490 9.168028
v -0.000000 0.515979 9.982153
v 0.439945 0.390709 9.949162
v 0.633971 0.091694 9.929953
v 0.435110 -0.212838 9.927560
v -0.000000 -0.334730 9.774536
v 0.958142 0.133741 9.716794
v 0.710218 0.432121 9.672350
v 0.738425 -0.261054 9.768898
v 0.614287 0.596021 8.944355
v 0.622165 -0.247748 9.043859
v 0.716525 0.331251 8.877100
v 1.568441 0.865548 7.887074
v 1.659582 0.708299 7.859274
v 1.563794 0.491008 7.823859
v 1.164474 0.901076 7.733388
v 1.097276 0.759879 7.643347
v 1.161230 0.527824 7.663785
v 1.945185 0.950620 6.426301
v 2.010603 0.806924 6.415905
v 1.943154 0.646546 6.421013
v 1.639176 0.953772 6.349328
v 1.585649 0.815089 6.301373
v 1.637696 0.649889 6.340473
v 1.971248 1.023070 6.349253
v 2.060306 0.818650 6.402375
v 1.988831 0.546265 6.358368
v 1.817264 1.021764 6.197127
v 1.787555 0.833116 6.180577
v 1.816069 0.509679 6.176723
v 2.245011 1.109491 5.931174
v 2.301643 0.843714 5.915688
v 2.243384 0.524487 5.910159
v 2.084432 1.044527 5.755140
v 2.054723 0.855878 5.738590
v 2.083236 0.532441 5.734735
v 2.184870 1.051439 5.347067
v 2.196077 0.872303 5.301189
v 2.184936 0.645598 5.332973
v 2.094473 0.974914 5.404803
v 2.068183 0.870009 5.378854
v 2.093803 0.642004 5.391004
v 1.576285 0.776213 6.085332
v 1.607773 0.634253 6.129563
v 1.771216 0.788962 6.033984
v 1.791621 0.511784 6.037027
v 1.629030 0.735580 5.869817
v 1.654831 0.619258 5.906059
v 1.788756 0.746026 5.827743
v 1.805476 0.518908 5.830236
v 1.704787 0.692634 5.643498
v 1.715627 0.609531 5.672802
v 1.822593 0.698667 5.640975
v 1.831815 0.536627 5.645260
v -0.000000 0.404502 10.112695
v 0.158780 0.287954 10.084299
v 0.252719 0.101461 10.020779
v 0.182110 -0.006843 10.020779
v -0.000000 -0.116119 9.982751
v 1.513457 0.443659 7.923293
v 1.609217 0.660731 7.990390
v 1.078577 0.747656 7.703347
v 1.131938 0.502848 7.718271
v 1.519667 0.825256 8.018852
v 1.135871 0.883024 7.817121
v 1.698690 0.736374 7.740602
v 1.610076 0.892776 7.756925
v 1.199386 0.904816 7.637820
v 1.127148 0.755815 7.570316
v 1.197586 0.533042 7.615071
v 1.606353 0.520061 7.734883
v 0.508210 -1.098646 5.222174
v 0.519509 0.306818 5.963408
v 0.863355 -1.245615 5.319453
v 1.026829 0.075167 6.267554
v 0.863355 -1.421924 5.488258
v 1.028275 -0.325391 6.572760
v 0.508191 -1.589723 5.603717
v 0.513592 -0.581675 6.638812
v 0.152952 -1.443669 5.483951
v 0.144936 -0.262626 6.410106
v 0.153066 -1.239298 5.338972
v 0.512164 0.563215 6.190755
v 1.018175 0.249808 6.418023
v 1.020134 -0.184193 6.692390
v 0.515757 -0.499457 6.694710
v 0.136937 -0.172483 6.441318
v 0.000000 0.774679 6.406313
v 0.418974 0.709675 6.390604
v 0.879472 0.485537 6.918256
v 0.876436 0.018702 6.950011
v 0.449171 -0.302781 6.821704
v 0.134332 -0.072684 6.483251
v 0.000000 0.820846 6.512108
v 0.430883 -0.227088 3.542867
v 0.691277 -0.355583 3.464825
v 0.691277 -0.612575 3.308742
v 0.430883 -0.741112 3.230642
v 0.170489 -0.612848 3.308405
v 0.170489 -0.355583 3.464825
v 0.822906 -1.458668 4.872046
v 0.822906 -1.241513 4.989723
v 0.152560 -1.279413 4.971216
v 0.152560 -1.499782 4.854969
v 0.487733 -1.065374 5.118635
v 0.487733 -1.817418 5.104284
v -0.000000 -0.026947 6.508706
v -0.000000 -0.206796 6.617699
v -0.000000 -0.263670 6.855894
v 0.000000 0.812368 7.065081
v 0.000000 0.832532 6.745008
v 0.713104 0.436639 7.238024
v 0.709689 -0.041042 7.169613
v -0.000000 -0.229281 7.191442
v 0.000000 0.628045 7.413815
v 0.430883 0.422558 2.043474
v 0.625711 0.349300 1.958284
v 0.625711 0.197465 1.769768
v 0.430883 0.125856 1.683086
v 0.236055 0.193690 1.780450
v 0.236055 0.349002 1.957398
v 0.856043 -1.407701 5.324647
v 0.152881 -1.606791 5.365226
v 0.504508 -1.217236 5.303746
v 0.856043 -1.551025 5.373190
v 0.152974 -1.394193 5.332510
v 0.504492 -1.677291 5.510160
v 0.847217 -1.649828 5.218780
v 0.152864 -1.432226 5.269195
v 0.500029 -1.766661 5.388314
v 0.847217 -1.430492 5.270075
v 0.152795 -1.656674 5.224900
v 0.500040 -1.261716 5.310008
v -0.000000 0.330200 10.753596
v 0.182652 0.209765 10.753596
v 0.252719 0.101461 10.753596
v 0.182110 -0.006843 10.753596
v -0.000000 -0.127185 10.698523
v -0.496493 -0.836496 10.599059
v -0.583336 -0.739346 11.869997
v -0.476577 0.278155 10.666317
v -0.565221 0.486406 11.905709
v -0.246627 0.341088 10.570428
v -0.340386 0.599495 11.994840
v -0.631619 0.554539 11.664376
v -0.646511 0.545035 11.305485
v -0.576865 0.424383 10.933705
v -0.562963 -0.631520 10.512962
v -0.591550 -0.317049 10.484260
v -0.550611 0.022595 10.555356
v -0.654626 0.225672 11.985044
v -0.703310 -0.145583 12.017939
v -0.665741 -0.502555 11.964094
v -0.654036 -0.830154 11.617094
v -0.671875 -0.892060 11.244417
v -0.600616 -0.885222 10.864923
v -0.267098 -0.925011 10.492225
v -0.358752 -0.817453 11.957801
v -0.290903 0.614872 10.912938
v -0.337850 0.778810 11.308958
v -0.344425 0.778265 11.691699
v -0.749642 0.108478 10.893390
v -0.841644 0.194318 11.290812
v -0.811618 0.221480 11.676507
v -0.812126 -0.260919 10.850234
v -0.912852 -0.205322 11.271026
v -0.878665 -0.167071 11.682245
v -0.764291 -0.610047 10.852916
v -0.857600 -0.587271 11.254741
v -0.825386 -0.539852 11.648874
v -0.317045 -1.052687 10.828864
v -0.365526 -1.074153 11.113126
v -0.369003 -0.996871 11.636551
v -0.255090 0.002209 10.335069
v -0.272938 -0.355472 10.233306
v -0.266506 -0.681006 10.287738
v -0.373244 0.271111 12.171651
v -0.399412 -0.129139 12.224276
v -0.383312 -0.515705 12.152617
v -0.899103 0.129189 11.280156
v -0.964296 0.059744 11.301242
v -0.972883 0.157159 11.097797
v -1.038076 0.087714 11.118883
v -0.910948 0.053346 10.854656
v -0.976141 -0.016099 10.875742
v -0.775233 -0.078438 10.793871
v -0.840426 -0.147883 10.814957
v -0.701452 -0.106409 10.976230
v -0.766645 -0.175854 10.997315
v -0.763387 -0.002596 11.219372
v -0.828580 -0.072040 11.240458
v -0.504526 0.476275 7.542998
v -0.822574 0.269677 9.403308
v -0.598793 0.169840 7.500296
v -0.956853 0.105444 9.711552
v -0.495657 -0.142737 7.452141
v -0.863596 -0.227522 9.662181
v -0.567895 0.478463 8.303880
v -0.761846 0.076448 8.307869
v -0.569711 -0.282997 8.314865
v -0.689933 0.294992 8.970571
v -0.701952 -0.006763 8.876794
v -0.684200 -0.309854 9.059219
v -0.440480 0.406114 9.935707
v -0.634109 0.099199 9.932432
v -0.435366 -0.205057 9.940691
v -0.956583 0.109774 9.722207
v -0.708789 0.402597 9.604096
v -0.738411 -0.260391 9.824038
v -0.607110 0.442594 8.869603
v -0.616809 -0.359120 9.113685
v -0.701481 0.003395 8.864167
v -1.529452 -0.038394 7.757265
v -1.620363 -0.193361 7.798183
v -1.524707 -0.407119 7.854555
v -1.125355 -0.072506 7.600231
v -1.058579 -0.239585 7.574107
v -1.122022 -0.442662 7.691275
v -1.961278 -0.495369 6.399602
v -2.026765 -0.631964 6.445313
v -1.958800 -0.780233 6.506086
v -1.658900 -0.524865 6.314315
v -1.607192 -0.672199 6.318385
v -1.657127 -0.810851 6.417436
v -1.990817 -0.455833 6.302498
v -2.077034 -0.625325 6.430484
v -2.006925 -0.895852 6.486506
v -1.843568 -0.514910 6.155249
v -1.814183 -0.696896 6.207808
v -1.842115 -0.998829 6.323980
v -2.282634 -0.524823 5.893490
v -2.339291 -0.776983 5.978868
v -2.280615 -1.076811 6.088371
v -2.129691 -0.651977 5.747086
v -2.100306 -0.833962 5.799645
v -2.128238 -1.135895 5.915818
v -2.247735 -0.793668 5.369397
v -2.260520 -0.976983 5.392894
v -2.247505 -1.176410 5.505094
v -2.154750 -0.844959 5.447398
v -2.129376 -0.952429 5.460659
v -2.153936 -1.159752 5.556600
v -1.607113 -0.787651 6.131453
v -1.636338 -0.903085 6.225906
v -1.804114 -0.791909 6.087071
v -1.823750 -1.048388 6.192362
v -1.669059 -0.903686 5.948208
v -1.693005 -0.998272 6.025602
v -1.830481 -0.907175 5.911843
v -1.846570 -1.117333 5.998117
v -1.754456 -1.025512 5.756717
v -1.763831 -1.091942 5.814867
v -1.872274 -1.019196 5.757006
v -1.880940 -1.168256 5.820777
v -0.158780 0.287954 10.084299
v -0.252719 0.101461 10.020779
v -0.182110 -0.006843 10.020779
v -1.478942 -0.402254 7.965646
v -1.574701 -0.177507 7.930642
v -1.039763 -0.223873 7.640290
v -1.094175 -0.438229 7.759537
v -1.485052 -0.016555 7.885659
v -1.098140 -0.052065 7.683887
v -1.658740 -0.215992 7.686386
v -1.570038 -0.065896 7.639176
v -1.163057 -0.105227 7.511464
v -1.093095 -0.269626 7.501947
v -1.160846 -0.458968 7.630858
v -1.565998 -0.419793 7.760458
v -0.508053 1.155989 4.910797
v -0.519458 0.952677 6.301209
v -0.866564 0.947548 4.835088
v -1.031588 0.648715 6.426045
v -0.866564 0.678433 4.758961
v -1.033048 0.192823 6.205758
v -0.508034 0.479627 4.704070
v -0.513485 -0.007056 6.003526
v -0.149427 0.685805 4.774076
v -0.141336 0.186863 6.167713
v -0.149542 0.959686 4.860272
v -0.512044 0.923844 6.577144
v -1.022851 0.576299 6.606592
v -1.024829 0.113076 6.390131
v -0.515671 -0.071638 6.126620
v -0.133260 0.118956 6.276636
v -0.417970 0.888961 6.723479
v -0.882834 0.476793 7.002369
v -0.879769 -0.053079 6.849548
v -0.448454 -0.195233 6.425352
v -0.130631 0.045647 6.427243
v -0.429993 2.057253 2.689068
v -0.658826 1.937940 2.632330
v -0.658826 1.699315 2.518852
v -0.429993 1.580002 2.462114
v -0.201160 1.699315 2.518852
v -0.201160 1.937940 2.632330
v -0.825732 0.991810 4.167008
v -0.825732 1.223218 4.263342
v -0.149031 1.183256 4.248648
v -0.149032 0.951776 4.152312
v -0.487381 1.416493 4.377715
v -0.487382 0.637055 4.402756
v -0.714889 0.434353 7.303777
v -0.711441 -0.108371 7.190696
v -0.429992 2.553080 1.110193
v -0.608102 2.496125 1.030366
v -0.608102 2.396103 0.815592
v -0.429992 2.353302 0.721545
v -0.251883 2.389886 0.830909
v -0.251883 2.495800 1.028920
v -0.859183 0.991510 4.730913
v -0.149356 0.729317 4.659016
v -0.504316 1.204059 4.817459
v -0.859183 0.731596 4.649918
v -0.149450 0.994928 4.749110
v -0.504300 0.506802 4.648778
v -0.850273 0.797435 4.518701
v -0.149339 1.042452 4.615644
v -0.499794 0.540168 4.582021
v -0.850273 1.050589 4.606236
v -0.149269 0.786262 4.522649
v -0.499806 1.231406 4.691610
v -0.182652 0.209765 10.753596
v -0.252719 0.101461 10.753596
v -0.182110 -0.006843 10.753596
v 0.213411 0.453783 6.195166
v -0.199640 0.757022 6.301418
vn 0.2171 0.8930 -0.3943
vn 0.2309 0.9730 -0.0026
vn 0.2282 0.8287 0.5111
vn 0.5934 0.7171 0.3657
vn 0.6038 0.7971 0.0039
vn 0.5368 0.7678 -0.3497
vn 0.4335 0.6757 -0.5962
vn 0.2244 0.7535 -0.6180
vn 0.9488 0.1900 -0.2522
vn 0.9829 0.1719 0.0657
vn 0.9669 -0.1341 -0.2169
vn 0.9843 -0.1466 0.0981
vn 0.7198 0.4412 -0.5359
vn 0.8218 0.4872 -0.2955
vn 0.8739 0.4848 0.0339
vn 0.8176 0.4547 0.3533
vn 0.8793 0.1584 0.4492
vn 0.8717 -0.1659 0.4611
vn 0.7717 -0.4987 0.3948
vn 0.8452 -0.5193 0.1267
vn 0.8441 -0.5094 -0.1677
vn 0.7852 -0.4383 -0.4373
vn 0.8572 -0.1236 -0.4999
vn 0.8229 0.2097 -0.5281
vn 1.0000 -0.0000 -0.0000
vn 0.1564 -0.9765 0.1485
vn 0.4800 -0.7943 -0.3725
vn 0.5169 -0.8425 -0.1518
vn 0.4664 -0.8756 0.1262
vn 0.4808 -0.7739 0.4123
vn 0.1500 -0.8611 0.4857
vn 0.2261 -0.9220 -0.3144
vn 0.3148 0.2794 -0.9071
vn 0.3250 -0.1799 -0.9284
vn 0.2669 0.5681 -0.7785
vn 0.4934 0.5045 -0.7086
vn 0.5804 0.2495 -0.7751
vn 0.6137 -0.1420 -0.7766
vn 0.5175 -0.5489 -0.6564
vn 0.3026 -0.6356 -0.7102
vn 0.1733 0.1395 0.9749
vn 0.1703 -0.1865 0.9676
vn 0.5492 0.4099 0.7283
vn 0.1876 0.4801 0.8569
vn 0.1601 -0.5446 0.8233
vn 0.5064 -0.4648 0.7263
vn 0.5518 -0.1809 0.8141
vn 0.5611 0.1458 0.8148
vn 0.6237 0.6944 0.3588
vn 0.7220 0.5506 -0.4190
vn 0.3616 0.0569 -0.9306
vn -0.6237 -0.6944 -0.3589
vn 0.6532 -0.7421 0.1505
vn -0.7220 -0.5506 0.4190
vn -0.3616 -0.0569 0.9306
vn -0.6532 0.7421 -0.1505
vn 0.2948 0.9398 0.1727
vn 0.3571 -0.9314 -0.0706
vn 0.2477 -0.9593 -0.1357
vn 0.9402 -0.3196 -0.1173
vn 0.9475 0.3049 -0.0964
vn 0.2246 0.9703 -0.0898
vn 0.3260 -0.9439 -0.0520
vn 0.8902 -0.4185 0.1800
vn 0.8601 0.4986 -0.1078
vn 0.2106 0.9717 -0.1069
vn 0.4386 0.4778 0.7612
vn 0.3049 0.8522 0.4252
vn 0.4109 -0.2752 0.8692
vn 0.0349 -0.8277 0.5601
vn 0.7636 0.6431 0.0577
vn 0.8574 -0.4425 0.2626
vn 0.4904 0.8404 0.2309
vn 0.8456 -0.4060 -0.3465
vn 0.9974 -0.0635 -0.0335
vn 0.7825 0.4191 -0.4605
vn 0.8871 -0.4217 0.1878
vn -0.8174 -0.2109 -0.5361
vn 0.0051 0.9772 0.2124
vn 0.8254 0.3765 0.4206
vn -0.8474 0.5060 -0.1610
vn 0.0724 -0.9142 -0.3987
vn 0.8559 0.4604 0.2356
vn -0.8553 0.4300 -0.2890
vn 0.0135 -0.9956 -0.0924
vn 0.9066 -0.3751 0.1935
vn -0.8772 -0.3445 -0.3345
vn 0.0166 0.9989 0.0436
vn 0.2808 -0.0877 0.9557
vn -0.9522 -0.2634 0.1546
vn -0.0741 0.9399 0.3332
vn 0.6376 0.4418 0.6311
vn -0.4882 0.4475 -0.7492
vn -0.5087 -0.6108 0.6068
vn 0.8147 0.1408 0.5626
vn -0.8463 0.1773 -0.5024
vn 0.0996 -0.9895 0.1046
vn 0.8864 -0.1692 0.4308
vn -0.8522 -0.0689 -0.5187
vn -0.2655 0.9577 -0.1112
vn -0.9945 -0.0870 -0.0583
vn -0.6951 0.7010 -0.1592
vn 0.9694 0.2136 -0.1210
vn -0.9681 0.2492 -0.0264
vn 0.1937 -0.9560 -0.2202
vn 0.9824 -0.0724 -0.1721
vn -0.9466 -0.2665 -0.1814
vn -0.1859 0.9684 -0.1662
vn 0.9866 0.0886 -0.1367
vn -0.5248 -0.8476 0.0791
vn -0.5513 -0.8194 -0.1570
vn -0.5762 -0.8146 -0.0667
vn 0.9949 0.0740 0.0692
vn -0.1193 0.9699 -0.2121
vn -0.2542 -0.0400 -0.9663
vn 0.9844 0.0742 0.1595
vn -0.1223 0.9668 -0.2244
vn -0.9321 -0.2788 -0.2313
vn 0.2313 -0.1508 0.9611
vn 0.2096 0.5176 0.8296
vn -0.0613 -0.6884 0.7228
vn 0.2330 0.0890 0.9684
vn -0.5155 -0.0941 -0.8517
vn -0.6227 0.1573 -0.7665
vn 0.1631 -0.9444 -0.2854
vn -0.8778 0.4657 -0.1121
vn 0.8042 0.3552 0.4766
vn 0.0263 0.9732 0.2286
vn -0.9435 0.0085 -0.3312
vn 0.8873 -0.4102 0.2108
vn 0.0639 0.9960 0.0623
vn -0.7598 -0.2618 -0.5951
vn 0.8984 -0.3889 0.2041
vn 0.0536 -0.9565 -0.2867
vn -0.7732 0.5315 -0.3458
vn 0.8347 0.4210 0.3551
vn 0.3986 0.4253 -0.8125
vn 0.9943 -0.0736 -0.0768
vn 0.4922 -0.6249 0.6060
vn -0.4681 -0.6319 0.6178
vn -0.6924 -0.2902 0.6606
vn 0.9948 0.0906 0.0473
vn -1.0000 -0.0029 -0.0049
vn 0.9972 0.0355 -0.0655
vn -0.9864 -0.1504 0.0656
vn 0.9990 0.0292 0.0336
vn 0.5996 0.5392 -0.5914
vn 0.3625 -0.5305 0.7663
vn -0.5236 0.3944 0.7552
vn 0.2851 -0.4499 0.8463
vn 0.6025 0.7733 -0.1973
vn 0.1072 0.8251 -0.5547
vn -0.6937 -0.2943 0.6574
vn 0.9153 0.2182 0.3387
vn -0.9992 0.0305 -0.0268
vn -0.9999 0.0047 -0.0089
vn 0.5406 0.7507 0.3798
vn 0.5002 -0.7432 -0.4444
vn -0.5000 0.7409 0.4484
vn -0.4215 -0.7918 -0.4420
vn -0.3726 -0.9106 0.1789
vn -0.6096 0.7051 0.3622
vn 0.4910 -0.7479 -0.4468
vn 0.5421 0.6037 0.5845
vn -1.0000 0.0002 0.0007
vn 0.9974 0.0343 -0.0633
vn -0.2430 -0.9688 0.0486
vn -0.3206 -0.4909 -0.8101
vn -0.1018 -0.9676 -0.2310
vn -0.1849 0.0039 -0.9828
vn 0.3268 0.9432 0.0594
vn 0.3767 0.8661 0.3284
vn 0.2580 -0.9611 0.0985
vn 0.7911 0.0364 0.6106
vn 0.0008 0.7760 -0.6307
vn 0.4999 -0.7575 -0.4200
vn 0.4965 0.7965 0.3451
vn -0.4642 0.8100 0.3584
vn -0.4806 -0.7651 -0.4286
vn 0.9992 0.0206 -0.0339
vn 0.9882 -0.0492 -0.1454
vn -1.0000 0.0005 -0.0001
vn -0.2470 -0.5439 -0.8020
vn 0.4682 -0.6026 0.6463
vn -0.3263 0.0396 -0.9444
vn -0.4683 -0.6358 0.6136
vn 0.9835 0.0412 -0.1763
vn -1.0000 0.0005 0.0004
vn -0.1710 -0.1205 -0.9779
vn 0.4755 -0.7531 0.4547
vn -0.3393 0.8066 -0.4840
vn -0.3778 -0.7399 0.5566
vn 0.2797 0.9555 0.0941
vn 0.2589 -0.9613 -0.0946
vn 0.7572 0.1441 0.6371
vn 0.8931 0.4499 -0.0000
vn 0.8377 -0.5461 -0.0000
vn 0.5488 0.8323 0.0777
vn 0.5165 -0.8562 -0.0132
vn -0.2171 0.8930 -0.3943
vn -0.2332 0.9724 -0.0047
vn -0.2282 0.8287 0.5111
vn -0.5362 0.7239 0.4341
vn -0.6140 0.7893 -0.0094
vn -0.5575 0.7416 -0.3731
vn -0.4335 0.6757 -0.5962
vn -0.2244 0.7535 -0.6180
vn -0.9486 0.1818 -0.2589
vn -0.9832 0.1706 0.0645
vn -0.9679 -0.1309 -0.2144
vn -0.9842 -0.1492 0.0957
vn -0.7191 0.4598 -0.5211
vn -0.8258 0.4724 -0.3080
vn -0.8791 0.4760 0.0239
vn -0.8176 0.4547 0.3533
vn -0.8813 0.1551 0.4463
vn -0.8704 -0.1617 0.4650
vn -0.7756 -0.4470 0.4457
vn -0.8474 -0.5145 0.1312
vn -0.8444 -0.5089 -0.1672
vn -0.7852 -0.4383 -0.4373
vn -0.8583 -0.1214 -0.4987
vn -0.8209 0.2013 -0.5345
vn -0.1488 -0.9784 0.1435
vn -0.5095 -0.7887 -0.3441
vn -0.5440 -0.8308 -0.1171
vn -0.5063 -0.8464 0.1648
vn -0.4808 -0.7739 0.4123
vn -0.1500 -0.8611 0.4857
vn -0.1482 -0.9172 -0.3698
vn -0.3082 0.2745 -0.9109
vn -0.3445 -0.1614 -0.9248
vn -0.2408 0.5577 -0.7943
vn -0.4461 0.4620 -0.7665
vn -0.5707 0.2336 -0.7872
vn -0.6232 -0.1271 -0.7717
vn -0.5828 -0.4680 -0.6643
vn -0.3026 -0.6356 -0.7102
vn -0.1783 0.1347 0.9747
vn -0.1652 -0.1814 0.9694
vn -0.5146 0.4458 0.7324
vn -0.1947 0.4737 0.8589
vn -0.1601 -0.5446 0.8233
vn -0.5064 -0.4648 0.7263
vn -0.5466 -0.1746 0.8190
vn -0.5630 0.1438 0.8139
vn -0.6237 0.6944 0.3588
vn -0.7220 0.5506 -0.4190
vn -0.3616 0.0569 -0.9306
vn 0.6237 -0.6944 -0.3589
vn -0.6532 -0.7421 0.1505
vn 0.7220 -0.5506 0.4190
vn 0.3616 -0.0569 0.9306
vn 0.6532 0.7421 -0.1505
vn -0.3358 0.9213 0.1959
vn -0.2997 -0.9506 0.0808
vn -0.2064 -0.9628 -0.1743
vn -0.8571 -0.4626 -0.2266
vn -0.9496 0.3032 -0.0800
vn -0.3013 0.9506 -0.0747
vn -0.2382 -0.9654 -0.1060
vn -0.8817 -0.4706 0.0339
vn -0.9002 0.4340 -0.0349
vn -0.3698 0.9281 -0.0431
vn -0.4143 0.6195 0.6667
vn -0.3509 0.8953 0.2744
vn -0.5459 -0.0927 0.8327
vn -0.0564 -0.8374 0.5437
vn -0.7661 0.6427 0.0087
vn -0.9478 -0.2863 0.1403
vn -0.6294 0.7628 -0.1483
vn -0.5605 -0.8264 -0.0539
vn -0.9752 -0.1532 -0.1597
vn -0.9991 0.0411 -0.0042
vn -0.8730 -0.3138 0.3734
vn 0.8581 -0.3982 -0.3242
vn 0.0026 0.9857 -0.1685
vn -0.8314 0.5188 0.1993
vn 0.8475 0.3816 -0.3689
vn -0.0572 -0.9961 0.0672
vn -0.8459 0.5265 0.0846
vn 0.8055 0.3696 -0.4632
vn -0.0033 -0.9601 0.2798
vn -0.8919 -0.2756 0.3585
vn 0.8615 -0.4578 -0.2196
vn -0.0112 0.9451 -0.3267
vn -0.2389 0.2725 0.9320
vn 0.9586 -0.2016 0.2011
vn 0.0864 0.9955 -0.0380
vn -0.2104 0.3995 0.8923
vn 0.4543 0.1351 -0.8806
vn 0.1772 -0.5724 0.8006
vn -0.7720 0.5833 0.2524
vn 0.8233 -0.0308 -0.5668
vn -0.0927 -0.8809 0.4641
vn -0.8024 -0.0857 0.5906
vn 0.8291 -0.2659 -0.4919
vn 0.1300 0.9583 -0.2544
vn 0.9912 -0.1160 -0.0632
vn 0.3105 0.8540 -0.4174
vn -0.9742 0.1678 -0.1509
vn 0.9813 0.1136 -0.1552
vn -0.2010 -0.9675 0.1538
vn -0.9796 -0.1996 -0.0215
vn 0.9384 -0.3275 -0.1099
vn 0.1764 0.8375 -0.5172
vn -0.9918 0.0460 -0.1189
vn 0.5384 -0.7349 0.4123
vn 0.5878 -0.7940 0.1554
vn 0.5746 -0.7903 0.2130
vn -0.9911 0.1079 0.0781
vn 0.1078 0.8231 -0.5576
vn -0.0370 -0.6553 -0.7545
vn -0.9767 0.1411 0.1616
vn 0.1103 0.8156 -0.5681
vn 0.9218 -0.3570 -0.1511
vn -0.2234 -0.1196 0.9674
vn -0.2170 0.5209 0.8256
vn 0.0708 -0.6879 0.7223
vn -0.2245 0.1313 0.9656
vn 0.4945 -0.4126 -0.7650
vn 0.4592 -0.0012 -0.8883
vn -0.0504 -0.9914 0.1204
vn 0.9466 0.0607 -0.3167
vn -0.6582 0.7447 0.1100
vn -0.3153 0.9481 -0.0412
vn 0.9503 -0.1178 -0.2881
vn -0.8853 -0.3006 0.3549
vn -0.0477 0.9436 -0.3276
vn 0.7949 -0.4699 -0.3840
vn -0.8655 -0.2773 0.4171
vn 0.0163 -0.9679 0.2508
vn 0.7873 0.3894 -0.4780
vn -0.8318 0.5308 0.1623
vn -0.5178 0.8471 0.1196
vn -0.9944 0.0486 -0.0940
vn -0.4482 -0.8307 -0.3304
vn 0.5188 -0.8013 -0.2979
vn 0.5536 -0.7414 -0.3792
vn 0.5175 0.8461 0.1280
vn -0.4088 0.4234 -0.8085
vn -0.9956 0.0359 -0.0862
vn 0.9785 -0.1783 -0.1039
vn -0.9992 -0.0152 0.0380
vn -0.4888 0.8662 0.1036
vn -0.4633 -0.7813 -0.4182
vn 0.4228 -0.1687 0.8904
vn -0.4438 -0.8589 -0.2555
vn -0.4742 0.7376 0.4807
vn 0.2918 0.9556 0.0402
vn 0.5276 -0.7601 -0.3792
vn -0.9584 -0.1175 0.2601
vn 0.9995 0.0129 -0.0271
vn 0.9996 0.0112 -0.0268
vn -0.5459 0.7894 0.2810
vn -0.5273 -0.7580 -0.3839
vn 0.6162 0.7292 0.2976
vn 0.4670 -0.8007 -0.3752
vn 0.4840 -0.7834 -0.3899
vn 0.4970 0.7387 0.4553
vn -0.4770 -0.7589 -0.4432
vn -0.4955 0.7895 0.3620
vn 1.0000 -0.0000 0.0007
vn -0.9981 0.0202 -0.0585
vn -0.1361 -0.9894 0.0496
vn 0.2382 -0.5034 -0.8306
vn 0.0743 -0.9700 -0.2316
vn 0.5305 0.0034 -0.8477
vn -0.3271 0.7542 0.5694
vn -0.3563 0.8771 0.3220
vn -0.2323 -0.9717 -0.0429
vn -0.8975 -0.1270 0.4223
vn -0.0009 0.9074 -0.4202
vn -0.4997 -0.7964 -0.3407
vn -0.4963 0.8282 0.2601
vn 0.4963 0.8282 0.2601
vn 0.4997 -0.7963 -0.3408
vn -0.9995 0.0129 -0.0272
vn -0.9981 0.0168 -0.0594
vn 1.0000 0.0002 0.0007
vn -0.5260 0.7963 0.2987
vn -0.4894 -0.7691 -0.4110
vn 0.4916 0.8300 0.2635
vn 0.5174 -0.7813 -0.3491
vn -0.9981 0.0183 -0.0586
vn 1.0000 0.0001 0.0007
vn -0.5430 0.7732 0.3276
vn -0.4875 -0.7674 -0.4165
vn 0.5257 0.8272 0.1986
vn 0.5032 -0.7861 -0.3590
vn -0.2709 0.9601 0.0700
vn -0.1676 -0.9858 0.0087
vn -0.7555 0.1433 0.6393
vn -0.8931 0.4499 -0.0000
vn -0.8377 -0.5461 -0.0000
vn -0.5999 0.7948 0.0921
vn -0.5165 -0.8562 -0.0132
vn -0.7929 -0.1366 -0.5938
vn 0.9946 0.1038 -0.0090
vn -0.1794 0.4547 -0.8724
vn 0.1304 0.9068 -0.4009
vn 0.2158 0.8929 -0.3952
vn 0.2332 0.9724 -0.0047
vn 0.2114 0.8407 0.4986
vn 0.5362 0.7239 0.4341
vn 0.6140 0.7893 -0.0094
vn 0.5575 0.7416 -0.3731
vn 0.4895 0.6746 -0.5525
vn 0.2088 0.7506 -0.6269
vn 0.9486 0.1818 -0.2589
vn 0.9832 0.1706 0.0645
vn 0.9679 -0.1309 -0.2144
vn 0.9842 -0.1492 0.0957
vn 0.7191 0.4598 -0.5211
vn 0.8258 0.4724 -0.3080
vn 0.8791 0.4760 0.0239
vn 0.8171 0.4050 0.4103
vn 0.8813 0.1551 0.4463
vn 0.8704 -0.1617 0.4650
vn 0.7756 -0.4470 0.4457
vn 0.8474 -0.5145 0.1312
vn 0.8444 -0.5089 -0.1672
vn 0.7820 -0.4824 -0.3947
vn 0.8583 -0.1214 -0.4987
vn 0.8209 0.2013 -0.5345
vn 0.1806 -0.9804 -0.0786
vn 0.1607 -0.9818 -0.1015
vn 0.1488 -0.9784 0.1435
vn 0.5095 -0.7887 -0.3441
vn 0.5440 -0.8308 -0.1171
vn 0.5063 -0.8464 0.1648
vn 0.4448 -0.7758 0.4475
vn 0.1542 -0.8626 0.4818
vn 0.1482 -0.9172 -0.3698
vn 0.3082 0.2745 -0.9109
vn 0.3445 -0.1614 -0.9248
vn 0.2408 0.5577 -0.7943
vn 0.4461 0.4620 -0.7665
vn 0.5707 0.2336 -0.7872
vn 0.6232 -0.1271 -0.7717
vn 0.5828 -0.4680 -0.6643
vn 0.2684 -0.6184 -0.7387
vn 0.1783 0.1347 0.9747
vn 0.1652 -0.1814 0.9694
vn 0.5146 0.4458 0.7324
vn 0.1947 0.4737 0.8589
vn 0.1626 -0.5423 0.8243
vn 0.4611 -0.5075 0.7279
vn 0.5466 -0.1746 0.8190
vn 0.5630 0.1438 0.8139
vn -0.6237 -0.6944 -0.3588
vn 0.2831 0.9381 0.1998
vn 0.3548 -0.9320 -0.0740
vn 0.3215 -0.9273 -0.1916
vn 0.8970 -0.4117 -0.1606
vn 0.8505 0.4950 -0.1780
vn 0.2098 0.9747 -0.0765
vn 0.3553 -0.9314 -0.0792
vn 0.9809 -0.1806 -0.0720
vn 0.9326 0.3609 -0.0031
vn 0.1479 0.9879 -0.0460
vn 0.6366 0.3696 0.6769
vn 0.2726 0.8283 0.4895
vn 0.5562 -0.2032 0.8058
vn 0.1221 -0.8603 0.4949
vn 0.6875 0.6154 0.3854
vn 0.9492 -0.3142 0.0194
vn -0.4090 0.8772 0.2514
vn 0.5232 -0.8464 -0.0994
vn -0.6471 -0.1117 -0.7541
vn -0.7665 0.3871 -0.5126
vn 0.8645 -0.4504 0.2232
vn -0.8997 -0.2776 -0.3369
vn -0.0082 0.9571 0.2896
vn 0.8050 0.3871 0.4496
vn -0.8432 0.5071 -0.1787
vn 0.0689 -0.9204 -0.3849
vn 0.8918 0.3893 0.2307
vn -0.8176 0.5140 -0.2595
vn -0.0044 -0.9957 -0.0928
vn 0.9005 -0.3895 0.1933
vn -0.8742 -0.3541 -0.3324
vn -0.0006 0.9991 0.0433
vn 0.5223 -0.2679 0.8096
vn -0.9782 -0.1929 0.0771
vn -0.4984 0.7093 0.4984
vn 0.2525 0.0450 0.9666
vn -0.6769 0.1694 -0.7163
vn -0.1520 -0.8265 0.5421
vn 0.7897 0.4519 0.4149
vn 0.0041 -0.9988 -0.0490
vn 0.8248 -0.2944 0.4827
vn -0.1272 0.9846 0.1203
vn -0.9926 -0.1138 -0.0416
vn -0.3155 0.9469 -0.0616
vn 0.9811 0.1033 -0.1637
vn -0.9852 0.1604 -0.0601
vn -0.1567 -0.9396 -0.3043
vn 0.9751 -0.1756 -0.1356
vn -0.1340 0.9529 -0.2721
vn 0.9828 0.0705 -0.1709
vn -0.5311 -0.8361 0.1373
vn -0.5918 -0.7970 -0.1210
vn -0.0031 -0.3329 -0.9430
vn 0.9874 0.0601 0.1464
vn -0.0549 0.9654 -0.2548
vn -0.9371 -0.2183 -0.2723
vn 0.2252 -0.1546 0.9620
vn 0.5591 0.6305 0.5384
vn 0.0334 -0.3777 0.9253
vn 0.4538 -0.0739 0.8880
vn -0.5312 -0.1045 -0.8408
vn -0.4954 0.3236 -0.8062
vn 0.0529 -0.9289 -0.3667
vn -0.9437 0.1780 -0.2789
vn 0.6397 0.6324 0.4369
vn 0.2074 0.9124 0.3528
vn -0.9112 -0.2199 -0.3485
vn 0.8761 -0.4444 0.1873
vn -0.0281 0.9802 0.1961
vn -0.8754 -0.3449 -0.3389
vn 0.8628 -0.4250 0.2739
vn -0.0373 -0.9903 -0.1339
vn -0.7924 0.5480 -0.2680
vn 0.8236 0.4277 0.3726
vn 0.5998 0.4163 -0.6834
vn 0.9944 -0.0616 -0.0856
vn 0.4131 -0.6710 0.6156
vn -0.7154 -0.4342 0.5475
vn -0.7041 -0.3865 0.5957
vn 1.0000 0.0020 -0.0051
vn -0.9946 0.0729 -0.0740
vn 0.9973 0.0384 -0.0632
vn -0.9599 -0.1296 0.2488
vn 0.9993 0.0236 0.0301
vn 0.6003 0.5402 -0.5898
vn 0.3707 -0.5878 0.7190
vn -0.5368 0.0607 0.8415
vn -0.6439 0.3167 0.6965
vn 0.2813 0.0113 0.9596
vn 0.2936 -0.6645 0.6872
vn 0.5929 0.7560 -0.2775
vn 0.1262 0.9092 -0.3968
vn -0.7755 -0.5062 0.3773
vn 0.9650 0.0116 0.2621
vn -0.9992 0.0206 -0.0338
vn -0.9999 0.0053 -0.0087
vn 0.4993 0.7672 0.4026
vn 0.4926 -0.7481 -0.4447
vn -0.6112 0.6894 0.3888
vn -0.4991 -0.7492 -0.4354
vn -0.5033 -0.7957 -0.3371
vn -0.3886 0.6305 0.6719
vn 0.3791 -0.9136 0.1468
vn 0.4277 0.7663 0.4795
vn -1.0000 -0.0004 0.0008
vn 0.9980 0.0145 -0.0620
vn 0.1255 -0.7623 -0.6350
vn 0.0338 -0.4089 0.9119
vn 0.3591 0.9297 0.0815
vn 0.3324 0.8338 0.4407
vn 0.3089 -0.9508 -0.0241
vn 0.8893 -0.0711 0.4518
vn 0.0009 0.7592 -0.6508
vn -0.0072 0.7788 -0.6272
vn -0.0678 0.7498 -0.6581
vn 0.4739 -0.7683 -0.4304
vn 0.4620 0.8109 0.3593
vn -0.4965 0.7965 0.3451
vn -0.4989 -0.7574 -0.4212
vn 0.9992 0.0320 -0.0257
vn 0.9991 -0.0293 -0.0306
vn -1.0000 0.0006 0.0008
vn 0.2477 -0.0422 -0.9679
vn 0.4942 -0.6444 0.5836
vn 0.2153 -0.5580 -0.8014
vn -0.4113 -0.5363 0.7370
vn 0.9988 -0.0159 -0.0469
vn -1.0000 -0.0000 0.0018
vn 0.4541 0.7936 -0.4049
vn 0.4603 -0.7238 0.5140
vn -0.0114 -0.1383 -0.9903
vn -0.4150 -0.8572 0.3050
vn 0.2821 0.9563 0.0765
vn 0.2533 -0.9641 -0.0795
vn 0.7376 -0.3414 0.5825
vn 0.8989 -0.0684 0.4327
vn 0.8391 0.5429 0.0335
vn 0.5999 0.7948 0.0921
vn 0.5513 -0.8343 -0.0000
vn -0.2158 0.8929 -0.3952
vn -0.2309 0.9730 -0.0026
vn -0.2114 0.8407 0.4986
vn -0.5934 0.7171 0.3657
vn -0.6038 0.7971 0.0039
vn -0.5368 0.7678 -0.3497
vn -0.4895 0.6746 -0.5525
vn -0.2088 0.7506 -0.6269
vn -0.9488 0.1900 -0.2522
vn -0.9829 0.1719 0.0657
vn -0.9669 -0.1341 -0.2169
vn -0.9843 -0.1466 0.0981
vn -0.7198 0.4412 -0.5359
vn -0.8218 0.4872 -0.2955
vn -0.8739 0.4848 0.0339
vn -0.8171 0.4050 0.4103
vn -0.8793 0.1584 0.4492
vn -0.8717 -0.1659 0.4611
vn -0.7717 -0.4987 0.3948
vn -0.8452 -0.5193 0.1267
vn -0.8441 -0.5094 -0.1677
vn -0.7820 -0.4824 -0.3947
vn -0.8572 -0.1236 -0.4999
vn -0.8229 0.2097 -0.5281
vn -0.1607 -0.9818 -0.1015
vn -0.1806 -0.9804 -0.0786
vn -0.1564 -0.9765 0.1485
vn -0.4800 -0.7943 -0.3725
vn -0.5169 -0.8425 -0.1518
vn -0.4664 -0.8756 0.1262
vn -0.4448 -0.7758 0.4475
vn -0.1542 -0.8626 0.4818
vn -0.2261 -0.9220 -0.3144
vn -0.3148 0.2794 -0.9071
vn -0.3250 -0.1799 -0.9284
vn -0.2669 0.5681 -0.7785
vn -0.4934 0.5045 -0.7086
vn -0.5804 0.2495 -0.7751
vn -0.6137 -0.1420 -0.7766
vn -0.5175 -0.5489 -0.6564
vn -0.2683 -0.6184 -0.7387
vn -0.1733 0.1395 0.9749
vn -0.1703 -0.1865 0.9676
vn -0.5492 0.4099 0.7283
vn -0.1876 0.4801 0.8569
vn -0.1626 -0.5423 0.8243
vn -0.4611 -0.5075 0.7279
vn -0.5518 -0.1809 0.8141
vn -0.5611 0.1458 0.8148
vn 0.6237 -0.6944 -0.3588
vn -0.3973 0.9177 -0.0050
vn -0.2088 -0.9751 -0.0747
vn -0.2378 -0.9512 -0.1965
vn -0.9475 -0.2928 -0.1289
vn -0.8934 0.4297 -0.1307
vn -0.2476 0.9686 -0.0234
vn -0.2080 -0.9746 -0.0826
vn -0.9562 -0.2806 -0.0831
vn -0.9694 0.2067 0.1323
vn -0.3004 0.9530 0.0396
vn -0.7016 0.4366 0.5631
vn -0.2592 0.8314 0.4915
vn -0.3232 -0.1859 0.9279
vn -0.0328 -0.8278 0.5601
vn -0.7865 0.5788 -0.2153
vn -0.7812 -0.3116 0.5409
vn -0.8954 0.4338 -0.1003
vn -0.3396 -0.9378 0.0722
vn 0.3005 -0.4921 -0.8170
vn -0.8784 0.1941 -0.4367
vn -0.8879 -0.3069 0.3428
vn 0.9092 -0.3810 -0.1680
vn -0.0091 0.9721 -0.2346
vn -0.8159 0.5359 0.2171
vn 0.8550 0.3944 -0.3367
vn -0.0529 -0.9949 0.0862
vn -0.8819 0.4589 0.1077
vn 0.8410 0.2824 -0.4614
vn -0.0150 -0.9597 0.2805
vn -0.8964 -0.2655 0.3548
vn 0.8594 -0.4636 -0.2156
vn -0.0002 0.9449 -0.3273
vn -0.4861 0.0546 0.8722
vn 0.9810 -0.1648 0.1022
vn 0.5180 0.8357 0.1827
vn -0.6106 0.6510 0.4508
vn 0.6448 -0.1141 -0.7558
vn 0.5358 -0.3529 0.7670
vn -0.7898 0.3484 0.5048
vn -0.0039 -0.9471 0.3208
vn -0.8665 0.0126 0.4990
vn 0.2583 0.8466 -0.4654
vn 0.9902 -0.1348 -0.0378
vn 0.6860 0.5843 -0.4336
vn -0.9875 0.0497 -0.1497
vn 0.9655 0.2087 -0.1557
vn 0.1455 -0.9878 0.0552
vn -0.9888 -0.1169 -0.0930
vn 0.1199 0.7850 -0.6078
vn -0.9894 0.0165 -0.1443
vn 0.5296 -0.7668 0.3626
vn 0.5459 -0.8274 0.1318
vn 0.2121 -0.3948 -0.8939
vn -0.9803 0.1231 0.1546
vn 0.0416 0.8041 -0.5930
vn 0.9249 -0.3158 -0.2116
vn -0.2031 -0.1324 0.9702
vn -0.5591 0.6305 0.5384
vn -0.0178 -0.3549 0.9347
vn -0.4835 -0.0540 0.8737
vn 0.4783 -0.4067 -0.7783
vn 0.5886 -0.1430 -0.7957
vn -0.0345 -0.9934 0.1090
vn 0.8755 0.3749 -0.3050
vn -0.8124 0.5240 0.2558
vn -0.0406 0.9679 -0.2482
vn 0.9205 -0.3403 -0.1917
vn -0.8796 -0.3200 0.3520
vn 0.0207 0.9721 -0.2335
vn 0.8608 -0.4584 -0.2209
vn -0.8912 -0.2742 0.3614
vn -0.0464 -0.9871 0.1533
vn 0.7745 0.3597 -0.5203
vn -0.8231 0.5409 0.1731
vn -0.4868 0.8663 0.1122
vn -0.9941 0.0296 -0.1045
vn -0.4971 -0.8119 -0.3062
vn 0.5391 -0.7919 -0.2867
vn 0.5347 -0.6987 -0.4753
vn 0.4906 0.8604 0.1380
vn -0.4300 0.4239 -0.7971
vn -0.9957 0.0398 -0.0837
vn 0.9819 -0.1738 0.0758
vn -0.9990 -0.0154 0.0422
vn -0.5154 0.7864 0.3404
vn -0.4691 -0.8180 -0.3329
vn 0.5710 -0.0920 0.8158
vn 0.5006 -0.2372 0.8325
vn 0.4512 -0.6006 0.6601
vn -0.4565 -0.8730 -0.1716
vn -0.4820 0.7941 0.3702
vn -0.0528 0.9153 -0.3994
vn 0.5492 -0.7213 -0.4220
vn -0.9457 -0.0951 0.3107
vn 0.9993 0.0318 -0.0170
vn 0.9996 0.0125 -0.0264
vn -0.4986 0.8115 0.3046
vn -0.5000 -0.7763 -0.3839
vn 0.4999 0.7908 0.3531
vn 0.5000 -0.7813 -0.3735
vn 0.4803 -0.8009 -0.3576
vn 0.6152 0.7359 0.2829
vn -0.4774 -0.7545 -0.4503
vn -0.5529 0.7272 0.4069
vn 1.0000 -0.0003 0.0007
vn -0.9980 0.0246 -0.0590
vn 0.3430 -0.4461 -0.8266
vn -0.2325 -0.9686 0.0882
vn 0.1304 0.9895 0.0623
vn -0.2974 0.8441 0.4462
vn -0.1668 -0.9809 0.1005
vn -0.8750 -0.1041 0.4729
vn -0.0016 0.8157 -0.5784
vn 0.1079 0.8766 -0.4689
vn -0.0051 0.9065 -0.4222
vn -0.3981 -0.8383 -0.3724
vn -0.4067 0.8666 0.2891
vn 0.4098 0.8655 0.2881
vn 0.4004 -0.8374 -0.3720
vn -0.9993 0.0340 -0.0158
vn -0.9979 0.0195 -0.0625
vn 1.0000 0.0001 0.0009
vn -0.5422 0.7556 0.3674
vn -0.4893 -0.7704 -0.4087
vn 0.5207 0.7504 0.4073
vn 0.5124 -0.8034 -0.3035
vn -0.9979 0.0212 -0.0613
vn 1.0000 -0.0000 0.0008
vn -0.4841 0.8585 0.1692
vn -0.4873 -0.7668 -0.4178
vn 0.5021 0.8146 0.2905
vn 0.5035 -0.7974 -0.3327
vn -0.2691 0.9600 0.0768
vn -0.2198 -0.9709 -0.0955
vn -0.9065 -0.0916 0.4122
vn -0.7478 -0.3350 0.5732
vn -0.8391 0.5429 0.0335
vn -0.5488 0.8323 0.0777
vn -0.5513 -0.8343 -0.0000
vn -0.9616 0.0096 -0.2743
vn 0.4579 0.0820 -0.8852
vn -0.2449 0.6393 -0.7289
vn 0.5204 0.8507 0.0749
vt 0.500000 0.375000
vt 0.437500 0.437500
vt 0.437500 0.375000
vt 0.562500 0.437500
vt 0.500000 0.437500
vt 0.625000 0.375000
vt 0.562500 0.375000
vt 0.625000 0.500000
vt 0.562500 0.500000
vt 0.500000 0.500000
vt 0.437500 0.500000
vt 0.375000 0.500000
vt 0.375000 0.437500
vt 0.375000 0.375000
vt 0.437500 0.562500
vt 0.500000 0.625000
vt 0.437500 0.625000
vt 0.500000 0.562500
vt 0.562500 0.625000
vt 0.500000 0.687500
vt 0.437500 0.687500
vt 0.562500 0.687500
vt 0.375000 0.562500
vt 0.562500 0.562500
vt 0.625000 0.625000
vt 0.625000 0.687500
vt 0.625000 0.750000
vt 0.562500 0.750000
vt 0.500000 0.750000
vt 0.437500 0.750000
vt 0.375000 0.750000
vt 0.375000 0.687500
vt 0.375000 0.625000
vt 0.500000 0.875000
vt 0.468750 0.875000
vt 0.437500 0.875000
vt 0.500000 0.812500
vt 0.562500 0.875000
vt 0.437500 0.812500
vt 0.375000 0.812500
vt 0.562500 0.812500
vt 0.625000 0.812500
vt 0.375000 0.875000
vt 0.250000 0.562500
vt 0.312500 0.625000
vt 0.250000 0.625000
vt 0.312500 0.687500
vt 0.250000 0.687500
vt 0.250000 0.500000
vt 0.312500 0.562500
vt 0.312500 0.500000
vt 0.312500 0.750000
vt 0.250000 0.750000
vt 0.687500 0.562500
vt 0.750000 0.625000
vt 0.687500 0.625000
vt 0.750000 0.687500
vt 0.687500 0.687500
vt 0.625000 0.562500
vt 0.687500 0.500000
vt 0.750000 0.562500
vt 0.687500 0.750000
vt 1.000000 0.500000
vt 0.833333 1.000000
vt 0.833333 0.500000
vt 0.666667 1.000000
vt 0.666667 0.500000
vt 0.500000 1.000000
vt 0.500000 0.500000
vt 0.333333 0.500000
vt 0.042154 0.130000
vt 0.250000 0.010000
vt 0.457846 0.130000
vt 0.333333 1.000000
vt 0.166667 0.500000
vt 0.166667 1.000000
vt -0.000000 0.500000
vt 0.542154 0.130000
vt 0.542154 0.370000
vt 0.957846 0.370000
vt 1.000000 0.828637
vt 0.875000 1.000000
vt 0.875000 0.828637
vt 0.625000 0.828637
vt 0.500000 1.000000
vt 0.500000 0.828637
vt 0.625000 0.645722
vt 0.500000 0.500000
vt 0.750000 0.500000
vt 0.875000 0.645722
vt 0.875000 0.500000
vt 0.500000 0.645722
vt 0.750000 0.828637
vt 0.750000 0.645722
vt 1.000000 0.645722
vt 0.750000 1.000000
vt 1.000000 1.000000
vt 0.625000 1.000000
vt 0.749520 0.964446
vt 0.653402 0.965669
vt 0.844587 0.863513
vt 0.844268 0.965118
vt 0.647775 0.863148
vt 0.750840 0.864057
vt 0.749520 0.964446
vt 0.750840 0.864057
vt 0.647775 0.863149
vt 0.844587 0.863513
vt 0.844267 0.965117
vt 0.653402 0.965669
vt 0.749520 0.964446
vt 0.844268 0.965117
vt 0.750840 0.864057
vt 0.653402 0.965669
vt 0.844587 0.863513
vt 0.000000 0.000000
vt 0.833333 0.500000
vt -0.000000 1.000000
vt 0.500000 0.500000
vt 0.500000 0.500000
vt 0.166667 0.500000
vt -0.000000 0.500000
vt 0.833333 0.500000
vt 0.042154 0.370000
vt 0.457846 0.370000
vt 0.750000 0.010000
vt 0.333333 0.500000
vt 0.457846 0.250000
vt 0.625000 0.437500
vt 0.750000 0.500000
vt 0.957846 0.130000
vt 0.250000 0.490000
vt 0.625000 0.875000
vt 0.750000 0.750000
vt 0.250000 0.490000
vt 0.750000 0.490000
vt 0.750000 0.490000
s 0
f 26/1/1 28/2/1 25/3/1
f 26/1/2 30/4/2 29/5/2
f 7/6/3 30/4/3 27/7/3
f 30/4/4 4/8/4 9/9/4
f 29/5/5 9/9/5 10/10/5
f 28/2/6 10/10/6 11/11/6
f 28/2/7 3/12/7 5/13/7
f 25/3/8 5/13/8 6/14/8
f 31/15/9 35/16/9 34/17/9
f 32/18/10 36/19/10 35/16/10
f 34/17/11 38/20/11 37/21/11
f 35/16/12 39/22/12 38/20/12
f 3/12/13 31/15/13 14/23/13
f 11/11/14 32/18/14 31/15/14
f 10/10/15 33/24/15 32/18/15
f 4/8/16 33/24/16 9/9/16
f 33/24/17 16/25/17 36/19/17
f 36/19/18 17/26/18 39/22/18
f 39/22/19 2/27/19 18/28/19
f 38/20/20 18/28/20 19/29/20
f 37/21/21 19/29/21 20/30/21
f 37/21/22 1/31/22 12/32/22
f 13/33/23 37/21/23 12/32/23
f 14/23/24 34/17/24 13/33/24
f 44/34/25 58/35/25 43/36/25
f 41/37/26 45/38/26 44/34/26
f 1/31/27 40/39/27 22/40/27
f 20/30/28 41/37/28 40/39/28
f 19/29/29 42/41/29 41/37/29
f 2/27/30 42/41/30 18/28/30
f 23/42/31 45/38/31 42/41/31
f 22/40/32 43/36/32 21/43/32
f 46/44/33 49/45/33 48/46/33
f 48/46/34 51/47/34 50/48/34
f 6/49/35 47/50/35 46/44/35
f 5/51/36 14/23/36 47/50/36
f 47/50/37 13/33/37 49/45/37
f 49/45/38 12/32/38 51/47/38
f 51/47/39 1/31/39 22/52/39
f 51/47/40 21/53/40 50/48/40
f 52/54/41 55/55/41 54/56/41
f 54/56/42 57/57/42 56/58/42
f 4/8/43 52/54/43 15/59/43
f 8/60/44 53/61/44 52/54/44
f 57/57/45 23/62/45 56/58/45
f 56/58/46 2/27/46 17/26/46
f 16/25/47 56/58/47 17/26/47
f 15/59/48 54/56/48 16/25/48
f 59/63/49 62/64/49 61/65/49
f 61/65/50 64/66/50 63/67/50
f 63/67/51 66/68/51 65/69/51
f 66/68/52 67/70/52 65/69/52
f 68/71/53 66/72/53 64/73/53
f 68/74/54 69/75/54 67/70/54
f 70/76/55 59/77/55 69/75/55
f 67/78/56 69/79/56 61/80/56
f 86/81/57 97/82/57 99/83/57
f 100/84/58 80/85/58 90/86/58
f 84/87/59 79/88/59 77/8/59
f 75/89/60 84/87/60 77/8/60
f 82/90/61 75/89/61 73/91/61
f 71/63/62 82/90/62 73/91/62
f 100/84/63 85/92/63 84/87/63
f 101/93/64 84/87/64 83/94/64
f 99/83/65 83/94/65 82/90/65
f 81/95/66 99/83/66 82/90/66
f 97/82/67 93/96/67 96/96/67
f 72/97/68 92/82/68 97/82/68
f 98/98/69 93/96/69 94/98/69
f 80/85/70 94/98/70 95/85/70
f 76/99/71 97/82/71 96/96/71
f 78/100/72 96/96/72 98/98/72
f 87/101/73 97/82/73 74/102/73
f 78/100/74 100/84/74 89/103/74
f 89/103/75 101/93/75 88/104/75
f 87/101/76 101/93/76 99/83/76
f 150/105/77 104/100/77 103/99/77
f 151/106/78 107/103/78 152/107/78
f 154/108/79 102/102/79 105/101/79
f 150/105/80 102/102/80 153/109/80
f 151/106/81 105/101/81 106/104/81
f 152/107/82 104/100/82 149/110/82
f 155/111/83 108/102/83 156/112/83
f 158/113/84 111/101/84 112/104/84
f 160/114/85 113/103/85 110/100/85
f 155/111/86 110/100/86 109/99/86
f 158/113/87 113/103/87 159/107/87
f 156/112/88 111/101/88 157/115/88
f 110/100/89 115/99/89 109/99/89
f 112/104/90 133/103/90 113/103/90
f 108/102/91 117/101/91 111/101/91
f 108/102/92 115/99/92 114/102/92
f 111/101/93 118/104/93 112/104/93
f 110/100/94 119/103/94 116/100/94
f 114/102/95 121/99/95 120/102/95
f 117/101/96 124/104/96 118/104/96
f 119/103/97 122/100/97 116/100/97
f 115/99/98 122/100/98 121/99/98
f 119/103/99 124/104/99 125/103/99
f 117/101/100 120/102/100 123/101/100
f 124/104/101 131/103/101 125/103/101
f 123/101/102 126/102/102 129/101/102
f 121/99/103 126/102/103 120/102/103
f 124/104/104 129/101/104 130/104/104
f 125/103/105 128/100/105 122/100/105
f 121/99/106 128/100/106 127/99/106
f 132/104/107 137/103/107 133/103/107
f 118/104/108 132/104/108 112/104/108
f 119/103/109 134/104/109 118/104/109
f 119/103/110 133/103/110 135/103/110
f 139/103/111 141/103/111 143/103/111
f 135/103/112 137/103/112 139/103/112
f 135/103/113 138/104/113 134/104/113
f 134/104/114 136/104/114 132/104/114
f 141/103/115 142/104/115 143/103/115
f 139/103/116 142/104/116 138/104/116
f 138/104/117 140/104/117 136/104/117
f 136/104/118 141/103/118 137/103/118
f 94/98/119 146/96/119 147/98/119
f 91/97/120 145/82/120 92/82/120
f 94/98/121 148/85/121 95/85/121
f 92/82/122 146/96/122 93/96/122
f 128/100/123 130/104/123 127/99/123
f 127/99/124 129/101/124 126/102/124
f 89/103/125 149/110/125 78/100/125
f 88/104/126 154/108/126 151/106/126
f 74/102/127 150/105/127 153/109/127
f 87/101/128 153/109/128 154/108/128
f 88/104/129 152/107/129 89/103/129
f 78/100/130 150/105/130 76/99/130
f 102/102/131 157/115/131 105/101/131
f 106/104/132 159/107/132 107/103/132
f 103/99/133 160/114/133 155/111/133
f 104/100/134 159/107/134 160/114/134
f 106/104/135 157/115/135 158/113/135
f 103/99/136 156/112/136 102/102/136
f 162/97/137 163/65/137 161/63/137
f 163/65/138 166/66/138 165/67/138
f 165/67/139 168/68/139 167/69/139
f 168/68/140 169/70/140 167/69/140
f 170/74/141 175/68/141 176/74/141
f 368/74/142 369/75/142 416/116/142
f 170/74/143 171/75/143 169/70/143
f 190/67/144 185/65/144 191/117/144
f 177/76/145 182/74/145 183/76/145
f 164/64/146 174/66/146 166/66/146
f 164/64/147 172/97/147 173/64/147
f 166/66/148 175/68/148 168/68/148
f 182/71/149 181/72/149 180/73/149
f 174/66/150 181/68/150 175/68/150
f 173/64/151 178/97/151 179/64/151
f 177/76/152 178/118/152 172/118/152
f 175/68/153 182/74/153 176/74/153
f 173/64/154 180/66/154 174/66/154
f 188/70/155 210/75/155 209/70/155
f 192/75/156 188/70/156 193/70/156
f 191/117/157 184/63/157 194/63/157
f 190/67/158 187/69/158 186/67/158
f 192/75/159 184/77/159 189/75/159
f 193/70/160 187/69/160 195/119/160
f 221/70/161 195/119/161 219/120/161
f 218/121/162 194/122/162 192/75/162
f 217/67/163 195/119/163 190/67/163
f 222/63/164 191/117/164 194/63/164
f 218/121/165 193/70/165 221/70/165
f 220/123/166 190/67/166 191/117/166
f 183/76/167 178/118/167 200/116/167
f 182/116/168 197/116/168 196/116/168
f 181/116/169 198/116/169 197/116/169
f 196/116/170 183/124/170 182/71/170
f 199/116/171 178/116/171 200/116/171
f 199/116/172 201/116/172 179/116/172
f 198/116/173 202/116/173 203/116/173
f 179/125/174 202/73/174 180/73/174
f 206/80/175 208/126/175 210/79/175
f 187/69/176 207/67/176 186/67/176
f 185/65/177 205/63/177 184/63/177
f 189/75/178 205/77/178 210/75/178
f 187/69/179 209/70/179 208/69/179
f 186/67/180 206/65/180 185/65/180
f 163/65/181 214/67/181 211/123/181
f 171/75/182 212/127/182 169/70/182
f 161/63/183 211/123/183 213/63/183
f 165/67/184 216/69/184 214/67/184
f 161/77/185 215/121/185 171/75/185
f 169/70/186 216/69/186 167/69/186
f 211/123/187 217/67/187 220/123/187
f 215/121/188 221/70/188 212/127/188
f 213/63/189 220/123/189 222/63/189
f 214/67/190 219/120/190 217/67/190
f 215/121/191 222/77/191 218/121/191
f 212/127/192 219/120/192 216/69/192
f 204/116/193 73/116/193 201/116/193
f 203/116/194 77/116/194 79/116/194
f 201/125/195 73/125/195 75/128/195
f 145/82/196 225/96/196 146/96/196
f 146/96/197 226/98/197 147/98/197
f 145/82/198 223/97/198 224/82/198
f 147/98/199 227/85/199 148/85/199
f 248/2/200 26/1/200 25/3/200
f 26/1/201 250/4/201 27/7/201
f 250/4/202 7/6/202 27/7/202
f 250/4/203 231/8/203 233/129/203
f 249/5/204 234/9/204 250/4/204
f 248/2/205 235/10/205 249/5/205
f 230/12/206 248/2/206 232/13/206
f 232/13/207 25/3/207 6/14/207
f 251/15/208 255/16/208 252/18/208
f 252/18/209 256/19/209 253/24/209
f 254/17/210 258/20/210 255/16/210
f 255/16/211 259/22/211 256/19/211
f 230/12/212 251/15/212 236/11/212
f 236/11/213 252/18/213 235/10/213
f 235/10/214 253/24/214 234/9/214
f 253/24/215 231/8/215 234/9/215
f 253/24/216 241/25/216 240/59/216
f 256/19/217 242/26/217 241/25/217
f 259/22/218 229/27/218 242/26/218
f 258/20/219 243/28/219 259/22/219
f 257/21/220 244/29/220 258/20/220
f 228/31/221 257/21/221 237/32/221
f 238/33/222 257/21/222 254/17/222
f 239/23/223 254/17/223 251/15/223
f 261/37/224 45/38/224 262/41/224
f 228/31/225 260/39/225 245/30/225
f 245/30/226 261/37/226 244/29/226
f 244/29/227 262/41/227 243/28/227
f 262/41/228 229/27/228 243/28/228
f 45/38/229 247/42/229 262/41/229
f 246/40/230 43/36/230 260/39/230
f 46/44/231 264/45/231 263/50/231
f 48/46/232 265/47/232 264/45/232
f 6/49/233 263/50/233 232/51/233
f 232/51/234 239/23/234 230/12/234
f 263/50/235 238/33/235 239/23/235
f 264/45/236 237/32/236 238/33/236
f 265/47/237 228/31/237 237/32/237
f 21/53/238 265/47/238 50/48/238
f 266/54/239 55/55/239 53/61/239
f 267/56/240 57/57/240 55/55/240
f 231/8/241 266/54/241 233/60/241
f 233/60/242 53/61/242 7/130/242
f 247/62/243 57/57/243 268/58/243
f 229/27/244 268/58/244 242/26/244
f 241/25/245 268/58/245 267/56/245
f 240/59/246 267/56/246 266/54/246
f 269/63/247 272/64/247 270/97/247
f 271/65/248 274/66/248 272/64/248
f 273/67/249 276/68/249 274/66/249
f 277/70/250 276/68/250 275/69/250
f 278/71/251 280/124/251 274/73/251
f 279/75/252 278/74/252 277/70/252
f 269/77/253 280/76/253 279/75/253
f 271/80/254 277/78/254 273/131/254
f 86/81/255 297/82/255 72/97/255
f 300/84/256 80/85/256 298/98/256
f 79/88/257 289/87/257 285/8/257
f 283/89/258 289/87/258 288/94/258
f 283/89/259 287/90/259 281/91/259
f 71/63/260 287/90/260 81/95/260
f 85/92/261 300/84/261 289/87/261
f 289/87/262 301/93/262 288/94/262
f 288/94/263 299/83/263 287/90/263
f 81/95/264 299/83/264 86/81/264
f 294/96/265 297/82/265 296/96/265
f 293/82/266 72/97/266 297/82/266
f 298/98/267 294/96/267 296/96/267
f 80/85/268 295/98/268 298/98/268
f 284/99/269 297/82/269 282/102/269
f 286/100/270 296/96/270 284/99/270
f 297/82/271 290/101/271 282/102/271
f 300/84/272 286/100/272 292/103/272
f 301/93/273 292/103/273 291/104/273
f 290/101/274 301/93/274 291/104/274
f 348/105/275 304/100/275 347/110/275
f 307/103/276 349/106/276 350/107/276
f 352/108/277 302/102/277 351/109/277
f 302/102/278 348/105/278 351/109/278
f 349/106/279 305/101/279 352/108/279
f 304/100/280 350/107/280 347/110/280
f 308/102/281 353/111/281 354/112/281
f 356/113/282 311/101/282 355/115/282
f 358/114/283 313/103/283 357/107/283
f 353/111/284 310/100/284 358/114/284
f 313/103/285 356/113/285 357/107/285
f 311/101/286 354/112/286 355/115/286
f 315/99/287 310/100/287 309/99/287
f 333/103/288 312/104/288 313/103/288
f 317/101/289 308/102/289 311/101/289
f 308/102/290 315/99/290 309/99/290
f 318/104/291 311/101/291 312/104/291
f 310/100/292 319/103/292 313/103/292
f 314/102/293 321/99/293 315/99/293
f 324/104/294 317/101/294 318/104/294
f 322/100/295 319/103/295 316/100/295
f 315/99/296 322/100/296 316/100/296
f 319/103/297 324/104/297 318/104/297
f 317/101/298 320/102/298 314/102/298
f 331/103/299 324/104/299 325/103/299
f 323/101/300 326/102/300 320/102/300
f 326/102/301 321/99/301 320/102/301
f 324/104/302 329/101/302 323/101/302
f 328/100/303 325/103/303 322/100/303
f 321/99/304 328/100/304 322/100/304
f 337/103/305 332/104/305 333/103/305
f 332/104/306 318/104/306 312/104/306
f 334/104/307 319/103/307 318/104/307
f 319/103/308 333/103/308 313/103/308
f 339/103/309 341/103/309 337/103/309
f 335/103/310 337/103/310 333/103/310
f 338/104/311 335/103/311 334/104/311
f 336/104/312 334/104/312 332/104/312
f 341/103/313 342/104/313 340/104/313
f 342/104/314 339/103/314 338/104/314
f 340/104/315 338/104/315 336/104/315
f 341/103/316 336/104/316 337/103/316
f 295/98/317 345/96/317 294/96/317
f 344/82/318 91/97/318 293/82/318
f 148/85/319 295/98/319 95/85/319
f 345/96/320 293/82/320 294/96/320
f 328/100/321 330/104/321 331/103/321
f 327/99/322 329/101/322 330/104/322
f 347/110/323 292/103/323 286/100/323
f 291/104/324 352/108/324 290/101/324
f 282/102/325 348/105/325 284/99/325
f 290/101/326 351/109/326 282/102/326
f 350/107/327 291/104/327 292/103/327
f 348/105/328 286/100/328 284/99/328
f 355/115/329 302/102/329 305/101/329
f 357/107/330 306/104/330 307/103/330
f 303/99/331 358/114/331 304/100/331
f 304/100/332 357/107/332 307/103/332
f 306/104/333 355/115/333 305/101/333
f 354/112/334 303/99/334 302/102/334
f 361/65/335 360/97/335 359/63/335
f 361/65/336 364/66/336 362/64/336
f 363/67/337 366/68/337 364/66/337
f 367/70/338 366/68/338 365/69/338
f 368/74/339 373/68/339 366/68/339
f 416/116/340 359/63/340 360/97/340
f 162/97/341 171/75/341 415/116/341
f 381/65/342 386/67/342 387/117/342
f 177/76/343 379/74/343 374/74/343
f 372/66/344 362/64/344 364/66/344
f 362/64/345 370/97/345 360/97/345
f 373/68/346 364/66/346 366/68/346
f 379/71/347 183/124/347 375/132/347
f 378/68/348 372/66/348 373/68/348
f 371/64/349 375/97/349 370/97/349
f 375/118/350 177/76/350 370/118/350
f 379/74/351 373/68/351 374/74/351
f 377/66/352 371/64/352 372/66/352
f 384/70/353 399/75/353 385/75/353
f 384/70/354 388/75/354 389/70/354
f 380/63/355 387/117/355 390/63/355
f 386/67/356 383/69/356 391/119/356
f 388/75/357 380/77/357 390/122/357
f 383/69/358 389/70/358 391/119/358
f 391/119/359 410/70/359 408/120/359
f 407/121/360 390/122/360 411/77/360
f 406/67/361 391/119/361 408/120/361
f 411/63/362 387/117/362 409/123/362
f 389/70/363 407/121/363 410/70/363
f 409/123/364 386/67/364 406/67/364
f 183/76/365 200/116/365 375/118/365
f 197/116/366 379/116/366 196/116/366
f 198/116/367 378/116/367 197/116/367
f 196/116/368 379/71/368 183/124/368
f 199/116/369 375/116/369 376/116/369
f 392/116/370 199/116/370 376/116/370
f 198/116/371 393/116/371 377/116/371
f 393/73/372 376/125/372 377/73/372
f 399/79/373 397/126/373 395/80/373
f 396/67/374 383/69/374 382/67/374
f 394/63/375 381/65/375 380/63/375
f 385/75/376 394/77/376 380/77/376
f 383/69/377 398/70/377 384/70/377
f 395/65/378 382/67/378 381/65/378
f 361/65/379 403/67/379 363/67/379
f 401/127/380 369/75/380 367/70/380
f 359/63/381 400/123/381 361/65/381
f 363/67/382 405/69/382 365/69/382
f 404/121/383 359/77/383 369/75/383
f 405/69/384 367/70/384 365/69/384
f 400/123/385 406/67/385 403/67/385
f 410/70/386 404/121/386 401/127/386
f 402/63/387 409/123/387 400/123/387
f 403/67/388 408/120/388 405/69/388
f 404/121/389 411/77/389 402/77/389
f 408/120/390 401/127/390 405/69/390
f 281/116/391 204/116/391 392/116/391
f 203/116/392 285/116/392 393/116/392
f 283/128/393 281/125/393 392/125/393
f 413/96/394 344/82/394 345/96/394
f 414/98/395 345/96/395 346/98/395
f 344/82/396 223/97/396 144/97/396
f 227/85/397 346/98/397 148/85/397
f 415/116/398 176/74/398 177/76/398
f 416/116/399 374/74/399 368/74/399
f 172/118/400 415/116/400 177/76/400
f 416/116/401 370/118/401 177/76/401
f 26/1/402 29/5/402 28/2/402
f 26/1/403 27/7/403 30/4/403
f 7/6/404 8/129/404 30/4/404
f 30/4/405 8/129/405 4/8/405
f 29/5/406 30/4/406 9/9/406
f 28/2/407 29/5/407 10/10/407
f 28/2/408 11/11/408 3/12/408
f 25/3/409 28/2/409 5/13/409
f 31/15/410 32/18/410 35/16/410
f 32/18/411 33/24/411 36/19/411
f 34/17/412 35/16/412 38/20/412
f 35/16/413 36/19/413 39/22/413
f 3/12/414 11/11/414 31/15/414
f 11/11/415 10/10/415 32/18/415
f 10/10/416 9/9/416 33/24/416
f 4/8/417 15/59/417 33/24/417
f 33/24/418 15/59/418 16/25/418
f 36/19/419 16/25/419 17/26/419
f 39/22/420 17/26/420 2/27/420
f 38/20/421 39/22/421 18/28/421
f 37/21/422 38/20/422 19/29/422
f 37/21/423 20/30/423 1/31/423
f 13/33/424 34/17/424 37/21/424
f 14/23/425 31/15/425 34/17/425
f 43/36/426 40/39/426 44/34/426
f 40/39/427 41/37/427 44/34/427
f 41/37/428 42/41/428 45/38/428
f 1/31/429 20/30/429 40/39/429
f 20/30/430 19/29/430 41/37/430
f 19/29/431 18/28/431 42/41/431
f 2/27/432 23/42/432 42/41/432
f 23/42/433 24/133/433 45/38/433
f 22/40/434 40/39/434 43/36/434
f 46/44/435 47/50/435 49/45/435
f 48/46/436 49/45/436 51/47/436
f 6/49/437 5/51/437 47/50/437
f 5/51/438 3/12/438 14/23/438
f 47/50/439 14/23/439 13/33/439
f 49/45/440 13/33/440 12/32/440
f 51/47/441 12/32/441 1/31/441
f 51/47/442 22/52/442 21/53/442
f 52/54/443 53/61/443 55/55/443
f 54/56/444 55/55/444 57/57/444
f 4/8/445 8/60/445 52/54/445
f 8/60/446 7/130/446 53/61/446
f 57/57/447 24/134/447 23/62/447
f 56/58/448 23/62/448 2/27/448
f 16/25/449 54/56/449 56/58/449
f 15/59/450 52/54/450 54/56/450
f 59/63/49 60/97/49 62/64/49
f 61/65/50 62/64/50 64/66/50
f 63/67/51 64/66/51 66/68/51
f 66/68/451 68/74/451 67/70/451
f 64/73/53 62/125/53 68/71/53
f 62/125/53 60/135/53 70/124/53
f 68/71/53 62/125/53 70/124/53
f 68/74/54 70/76/54 69/75/54
f 70/76/55 60/118/55 59/77/55
f 69/79/56 59/136/56 61/80/56
f 61/80/56 63/131/56 67/78/56
f 63/131/56 65/126/56 67/78/56
f 86/81/452 72/97/452 97/82/452
f 100/84/453 98/98/453 80/85/453
f 84/87/454 85/92/454 79/88/454
f 75/89/455 83/94/455 84/87/455
f 82/90/456 83/94/456 75/89/456
f 71/63/457 81/95/457 82/90/457
f 100/84/458 90/86/458 85/92/458
f 101/93/459 100/84/459 84/87/459
f 99/83/460 101/93/460 83/94/460
f 81/95/461 86/81/461 99/83/461
f 97/82/462 92/82/462 93/96/462
f 72/97/463 91/97/463 92/82/463
f 98/98/464 96/96/464 93/96/464
f 80/85/465 98/98/465 94/98/465
f 76/99/466 74/102/466 97/82/466
f 78/100/467 76/99/467 96/96/467
f 87/101/468 99/83/468 97/82/468
f 78/100/469 98/98/469 100/84/469
f 89/103/470 100/84/470 101/93/470
f 87/101/471 88/104/471 101/93/471
f 150/105/472 149/110/472 104/100/472
f 151/106/473 106/104/473 107/103/473
f 154/108/474 153/109/474 102/102/474
f 150/105/475 103/99/475 102/102/475
f 151/106/476 154/108/476 105/101/476
f 152/107/477 107/103/477 104/100/477
f 155/111/478 109/99/478 108/102/478
f 158/113/479 157/115/479 111/101/479
f 160/114/480 159/107/480 113/103/480
f 155/111/481 160/114/481 110/100/481
f 158/113/482 112/104/482 113/103/482
f 156/112/483 108/102/483 111/101/483
f 110/100/484 116/100/484 115/99/484
f 112/104/485 132/104/485 133/103/485
f 108/102/486 114/102/486 117/101/486
f 108/102/487 109/99/487 115/99/487
f 111/101/488 117/101/488 118/104/488
f 110/100/489 113/103/489 119/103/489
f 114/102/490 115/99/490 121/99/490
f 117/101/96 123/101/96 124/104/96
f 119/103/491 125/103/491 122/100/491
f 115/99/492 116/100/492 122/100/492
f 119/103/99 118/104/99 124/104/99
f 117/101/493 114/102/493 120/102/493
f 124/104/494 130/104/494 131/103/494
f 123/101/495 120/102/495 126/102/495
f 121/99/496 127/99/496 126/102/496
f 124/104/497 123/101/497 129/101/497
f 125/103/498 131/103/498 128/100/498
f 121/99/499 122/100/499 128/100/499
f 132/104/107 136/104/107 137/103/107
f 118/104/500 134/104/500 132/104/500
f 119/103/501 135/103/501 134/104/501
f 119/103/502 113/103/502 133/103/502
f 139/103/503 137/103/503 141/103/503
f 135/103/112 133/103/112 137/103/112
f 135/103/113 139/103/113 138/104/113
f 134/104/114 138/104/114 136/104/114
f 141/103/504 140/104/504 142/104/504
f 139/103/505 143/103/505 142/104/505
f 138/104/506 142/104/506 140/104/506
f 136/104/507 140/104/507 141/103/507
f 94/98/508 93/96/508 146/96/508
f 91/97/509 144/97/509 145/82/509
f 94/98/510 147/98/510 148/85/510
f 92/82/511 145/82/511 146/96/511
f 128/100/512 131/103/512 130/104/512
f 127/99/513 130/104/513 129/101/513
f 89/103/514 152/107/514 149/110/514
f 88/104/515 87/101/515 154/108/515
f 74/102/516 76/99/516 150/105/516
f 87/101/517 74/102/517 153/109/517
f 88/104/518 151/106/518 152/107/518
f 78/100/519 149/110/519 150/105/519
f 102/102/520 156/112/520 157/115/520
f 106/104/521 158/113/521 159/107/521
f 103/99/522 104/100/522 160/114/522
f 104/100/523 107/103/523 159/107/523
f 106/104/524 105/101/524 157/115/524
f 103/99/525 155/111/525 156/112/525
f 162/97/526 164/64/526 163/65/526
f 163/65/527 164/64/527 166/66/527
f 165/67/528 166/66/528 168/68/528
f 168/68/529 170/74/529 169/70/529
f 170/74/530 168/68/530 175/68/530
f 368/74/531 367/70/531 369/75/531
f 170/74/532 415/116/532 171/75/532
f 190/67/533 186/67/533 185/65/533
f 177/76/534 176/74/534 182/74/534
f 164/64/535 173/64/535 174/66/535
f 164/64/536 162/97/536 172/97/536
f 166/66/537 174/66/537 175/68/537
f 180/73/538 179/125/538 182/71/538
f 179/125/539 178/132/539 182/71/539
f 178/132/540 183/124/540 182/71/540
f 174/66/541 180/66/541 181/68/541
f 173/64/542 172/97/542 178/97/542
f 177/76/543 183/76/543 178/118/543
f 175/68/544 181/68/544 182/74/544
f 173/64/545 179/64/545 180/66/545
f 188/70/546 189/75/546 210/75/546
f 192/75/547 189/75/547 188/70/547
f 191/117/548 185/65/548 184/63/548
f 190/67/549 195/119/549 187/69/549
f 192/75/550 194/122/550 184/77/550
f 193/70/551 188/70/551 187/69/551
f 221/70/552 193/70/552 195/119/552
f 218/121/553 222/77/553 194/122/553
f 217/67/554 219/120/554 195/119/554
f 222/63/555 220/123/555 191/117/555
f 218/121/556 192/75/556 193/70/556
f 220/123/557 217/67/557 190/67/557
f 182/116/558 181/116/558 197/116/558
f 181/116/559 180/116/559 198/116/559
f 199/116/560 179/116/560 178/116/560
f 199/116/561 204/116/561 201/116/561
f 198/116/562 180/116/562 202/116/562
f 179/125/563 201/125/563 202/73/563
f 210/79/564 205/137/564 206/80/564
f 206/80/565 207/131/565 208/126/565
f 208/126/566 209/78/566 210/79/566
f 187/69/567 208/69/567 207/67/567
f 185/65/568 206/65/568 205/63/568
f 189/75/569 184/77/569 205/77/569
f 187/69/570 188/70/570 209/70/570
f 186/67/571 207/67/571 206/65/571
f 163/65/572 165/67/572 214/67/572
f 171/75/573 215/121/573 212/127/573
f 161/63/574 163/65/574 211/123/574
f 165/67/575 167/69/575 216/69/575
f 161/77/576 213/77/576 215/121/576
f 169/70/577 212/127/577 216/69/577
f 211/123/578 214/67/578 217/67/578
f 215/121/579 218/121/579 221/70/579
f 213/63/580 211/123/580 220/123/580
f 214/67/581 216/69/581 219/120/581
f 215/121/582 213/77/582 222/77/582
f 212/127/583 221/70/583 219/120/583
f 204/116/584 71/116/584 73/116/584
f 203/116/585 202/116/585 77/116/585
f 77/73/586 202/73/586 75/128/586
f 202/73/587 201/125/587 75/128/587
f 145/82/588 224/82/588 225/96/588
f 146/96/197 225/96/197 226/98/197
f 145/82/589 144/97/589 223/97/589
f 147/98/590 226/98/590 227/85/590
f 248/2/591 249/5/591 26/1/591
f 26/1/592 249/5/592 250/4/592
f 250/4/593 233/129/593 7/6/593
f 250/4/594 234/9/594 231/8/594
f 249/5/595 235/10/595 234/9/595
f 248/2/596 236/11/596 235/10/596
f 230/12/597 236/11/597 248/2/597
f 232/13/598 248/2/598 25/3/598
f 251/15/599 254/17/599 255/16/599
f 252/18/600 255/16/600 256/19/600
f 254/17/601 257/21/601 258/20/601
f 255/16/602 258/20/602 259/22/602
f 230/12/603 239/23/603 251/15/603
f 236/11/604 251/15/604 252/18/604
f 235/10/605 252/18/605 253/24/605
f 253/24/606 240/59/606 231/8/606
f 253/24/607 256/19/607 241/25/607
f 256/19/608 259/22/608 242/26/608
f 259/22/609 243/28/609 229/27/609
f 258/20/610 244/29/610 243/28/610
f 257/21/611 245/30/611 244/29/611
f 228/31/612 245/30/612 257/21/612
f 238/33/613 237/32/613 257/21/613
f 239/23/614 238/33/614 254/17/614
f 261/37/615 260/39/615 44/34/615
f 260/39/616 43/36/616 44/34/616
f 261/37/617 44/34/617 45/38/617
f 228/31/618 246/40/618 260/39/618
f 245/30/619 260/39/619 261/37/619
f 244/29/620 261/37/620 262/41/620
f 262/41/621 247/42/621 229/27/621
f 45/38/622 24/133/622 247/42/622
f 246/40/623 21/43/623 43/36/623
f 46/44/624 48/46/624 264/45/624
f 48/46/625 50/48/625 265/47/625
f 6/49/626 46/44/626 263/50/626
f 232/51/627 263/50/627 239/23/627
f 263/50/628 264/45/628 238/33/628
f 264/45/629 265/47/629 237/32/629
f 265/47/630 246/52/630 228/31/630
f 21/53/631 246/52/631 265/47/631
f 266/54/632 267/56/632 55/55/632
f 267/56/633 268/58/633 57/57/633
f 231/8/634 240/59/634 266/54/634
f 233/60/635 266/54/635 53/61/635
f 247/62/636 24/134/636 57/57/636
f 229/27/637 247/62/637 268/58/637
f 241/25/638 242/26/638 268/58/638
f 240/59/639 241/25/639 267/56/639
f 269/63/247 271/65/247 272/64/247
f 271/65/248 273/67/248 274/66/248
f 273/67/249 275/69/249 276/68/249
f 277/70/640 278/74/640 276/68/640
f 270/135/251 272/125/251 280/124/251
f 272/125/251 274/73/251 280/124/251
f 274/73/251 276/72/251 278/71/251
f 279/75/252 280/76/252 278/74/252
f 269/77/253 270/118/253 280/76/253
f 271/80/254 269/136/254 279/79/254
f 279/79/254 277/78/254 271/80/254
f 277/78/254 275/126/254 273/131/254
f 86/81/641 299/83/641 297/82/641
f 300/84/642 90/86/642 80/85/642
f 79/88/643 85/92/643 289/87/643
f 283/89/644 285/8/644 289/87/644
f 283/89/645 288/94/645 287/90/645
f 71/63/646 281/91/646 287/90/646
f 85/92/647 90/86/647 300/84/647
f 289/87/648 300/84/648 301/93/648
f 288/94/649 301/93/649 299/83/649
f 81/95/650 287/90/650 299/83/650
f 294/96/651 293/82/651 297/82/651
f 293/82/652 91/97/652 72/97/652
f 298/98/653 295/98/653 294/96/653
f 80/85/654 95/85/654 295/98/654
f 284/99/655 296/96/655 297/82/655
f 286/100/656 298/98/656 296/96/656
f 297/82/657 299/83/657 290/101/657
f 300/84/658 298/98/658 286/100/658
f 301/93/659 300/84/659 292/103/659
f 290/101/660 299/83/660 301/93/660
f 348/105/661 303/99/661 304/100/661
f 307/103/662 306/104/662 349/106/662
f 352/108/663 305/101/663 302/102/663
f 302/102/664 303/99/664 348/105/664
f 349/106/665 306/104/665 305/101/665
f 304/100/666 307/103/666 350/107/666
f 308/102/667 309/99/667 353/111/667
f 356/113/668 312/104/668 311/101/668
f 358/114/669 310/100/669 313/103/669
f 353/111/670 309/99/670 310/100/670
f 313/103/671 312/104/671 356/113/671
f 311/101/672 308/102/672 354/112/672
f 315/99/673 316/100/673 310/100/673
f 333/103/674 332/104/674 312/104/674
f 317/101/675 314/102/675 308/102/675
f 308/102/676 314/102/676 315/99/676
f 318/104/677 317/101/677 311/101/677
f 310/100/678 316/100/678 319/103/678
f 314/102/679 320/102/679 321/99/679
f 324/104/294 323/101/294 317/101/294
f 322/100/680 325/103/680 319/103/680
f 315/99/681 321/99/681 322/100/681
f 319/103/297 325/103/297 324/104/297
f 317/101/682 323/101/682 320/102/682
f 331/103/683 330/104/683 324/104/683
f 323/101/684 329/101/684 326/102/684
f 326/102/685 327/99/685 321/99/685
f 324/104/686 330/104/686 329/101/686
f 328/100/687 331/103/687 325/103/687
f 321/99/688 327/99/688 328/100/688
f 337/103/305 336/104/305 332/104/305
f 332/104/689 334/104/689 318/104/689
f 334/104/690 335/103/690 319/103/690
f 319/103/691 335/103/691 333/103/691
f 339/103/692 343/103/692 341/103/692
f 335/103/310 339/103/310 337/103/310
f 338/104/311 339/103/311 335/103/311
f 336/104/312 338/104/312 334/104/312
f 341/103/693 343/103/693 342/104/693
f 342/104/694 343/103/694 339/103/694
f 340/104/695 342/104/695 338/104/695
f 341/103/696 340/104/696 336/104/696
f 295/98/697 346/98/697 345/96/697
f 344/82/698 144/97/698 91/97/698
f 148/85/699 346/98/699 295/98/699
f 345/96/700 344/82/700 293/82/700
f 328/100/701 327/99/701 330/104/701
f 327/99/702 326/102/702 329/101/702
f 347/110/703 350/107/703 292/103/703
f 291/104/704 349/106/704 352/108/704
f 282/102/705 351/109/705 348/105/705
f 290/101/706 352/108/706 351/109/706
f 350/107/707 349/106/707 291/104/707
f 348/105/708 347/110/708 286/100/708
f 355/115/709 354/112/709 302/102/709
f 357/107/710 356/113/710 306/104/710
f 303/99/711 353/111/711 358/114/711
f 304/100/712 358/114/712 357/107/712
f 306/104/713 356/113/713 355/115/713
f 354/112/714 353/111/714 303/99/714
f 361/65/715 362/64/715 360/97/715
f 361/65/716 363/67/716 364/66/716
f 363/67/717 365/69/717 366/68/717
f 367/70/718 368/74/718 366/68/718
f 368/74/719 374/74/719 373/68/719
f 416/116/720 369/75/720 359/63/720
f 162/97/721 161/63/721 171/75/721
f 381/65/722 382/67/722 386/67/722
f 177/76/723 183/76/723 379/74/723
f 372/66/724 371/64/724 362/64/724
f 362/64/725 371/64/725 370/97/725
f 373/68/726 372/66/726 364/66/726
f 375/132/727 376/125/727 379/71/727
f 376/125/728 377/73/728 379/71/728
f 377/73/729 378/72/729 379/71/729
f 378/68/730 377/66/730 372/66/730
f 371/64/731 376/64/731 375/97/731
f 375/118/732 183/76/732 177/76/732
f 379/74/733 378/68/733 373/68/733
f 377/66/734 376/64/734 371/64/734
f 384/70/735 398/70/735 399/75/735
f 384/70/736 385/75/736 388/75/736
f 380/63/737 381/65/737 387/117/737
f 386/67/738 382/67/738 383/69/738
f 388/75/739 385/75/739 380/77/739
f 383/69/740 384/70/740 389/70/740
f 391/119/741 389/70/741 410/70/741
f 407/121/742 388/75/742 390/122/742
f 406/67/743 386/67/743 391/119/743
f 411/63/744 390/63/744 387/117/744
f 389/70/745 388/75/745 407/121/745
f 409/123/746 387/117/746 386/67/746
f 197/116/747 378/116/747 379/116/747
f 198/116/748 377/116/748 378/116/748
f 199/116/749 200/116/749 375/116/749
f 392/116/750 204/116/750 199/116/750
f 198/116/751 203/116/751 393/116/751
f 393/73/752 392/125/752 376/125/752
f 395/80/753 394/137/753 399/79/753
f 399/79/754 398/78/754 397/126/754
f 397/126/755 396/131/755 395/80/755
f 396/67/756 397/69/756 383/69/756
f 394/63/757 395/65/757 381/65/757
f 385/75/758 399/75/758 394/77/758
f 383/69/759 397/69/759 398/70/759
f 395/65/760 396/67/760 382/67/760
f 361/65/761 400/123/761 403/67/761
f 401/127/762 404/121/762 369/75/762
f 359/63/763 402/63/763 400/123/763
f 363/67/764 403/67/764 405/69/764
f 404/121/765 402/77/765 359/77/765
f 405/69/766 401/127/766 367/70/766
f 400/123/767 409/123/767 406/67/767
f 410/70/768 407/121/768 404/121/768
f 402/63/769 411/63/769 409/123/769
f 403/67/770 406/67/770 408/120/770
f 404/121/771 407/121/771 411/77/771
f 408/120/772 410/70/772 401/127/772
f 281/116/773 71/116/773 204/116/773
f 203/116/774 79/116/774 285/116/774
f 392/125/775 393/73/775 283/128/775
f 393/73/776 285/73/776 283/128/776
f 413/96/777 412/82/777 344/82/777
f 414/98/395 413/96/395 345/96/395
f 344/82/778 412/82/778 223/97/778
f 227/85/779 414/98/779 346/98/779
f 415/116/780 170/74/780 176/74/780
f 416/116/781 177/76/781 374/74/781
f 172/118/782 162/97/782 415/116/782
f 416/116/783 360/97/783 370/118/783
