# Blender 4.2.1 LTS
# www.blender.org
o Cube
v 100.000000 100.000000 102.044441
v 100.000000 100.000000 2.044445
v 100.000000 -100.000000 102.044441
v 100.000000 -100.000000 2.044445
v -100.000000 100.000000 102.044441
v -100.000000 100.000000 2.044445
v -100.000000 -100.000000 102.044441
v -100.000000 -100.000000 2.044445
v 100.000000 100.000000 102.044441
v 100.000000 100.000000 2.044445
v 100.000000 -100.000000 102.044441
v 100.000000 -100.000000 2.044445
v -100.000000 100.000000 102.044441
v -100.000000 100.000000 2.044445
v -100.000000 -100.000000 102.044441
v -100.000000 -100.000000 2.044445
v -100.000000 0.000000 2.044445
v 0.000000 100.000000 2.044445
v 100.000000 100.000000 52.044441
v -100.000000 -100.000000 52.044441
v 100.000000 -100.000000 52.044441
v -100.000000 100.000000 52.044441
v 0.000000 -100.000000 102.044441
v 100.000000 0.000000 102.044441
v 0.000000 -100.000000 2.044445
v -100.000000 0.000000 102.044441
v 0.000000 100.000000 102.044441
v 100.000000 0.000000 2.044445
v -100.000000 0.000000 2.044445
v 0.000000 100.000000 2.044445
v 100.000000 100.000000 52.044441
v -100.000000 -100.000000 52.044441
v 100.000000 -100.000000 52.044441
v -100.000000 100.000000 52.044441
v 0.000000 -100.000000 102.044441
v 100.000000 0.000000 102.044441
v 0.000000 -100.000000 2.044445
v -100.000000 0.000000 102.044441
v 0.000000 100.000000 102.044441
v 100.000000 0.000000 2.044445
v 0.000000 100.000000 52.044441
v 100.000000 0.000000 52.044441
v 0.000000 0.000000 2.044445
v -100.000000 0.000000 52.044441
v 0.000000 -100.000000 52.044441
v 0.000000 0.000000 102.044441
v 0.000000 100.000000 52.044441
v 100.000000 0.000000 52.044441
v 0.000000 0.000000 2.044445
v -100.000000 0.000000 52.044441
v 0.000000 -100.000000 52.044441
v 0.000000 0.000000 102.044441
vn -0.0000 -0.0000 -1.0000
vn -0.0000 1.0000 -0.0000
vn 1.0000 -0.0000 -0.0000
vn -0.0000 -0.0000 1.0000
vn -1.0000 -0.0000 -0.0000
vn -0.0000 -1.0000 -0.0000
vt 0.750000 0.750000
vt 0.875000 0.625000
vt 0.750000 0.625000
vt 0.500000 1.000000
vt 0.625000 0.875000
vt 0.500000 0.875000
vt 0.500000 0.250000
vt 0.625000 0.125000
vt 0.500000 0.125000
vt 0.250000 0.750000
vt 0.375000 0.625000
vt 0.250000 0.625000
vt 0.500000 0.750000
vt 0.625000 0.625000
vt 0.500000 0.625000
vt 0.500000 0.500000
vt 0.625000 0.375000
vt 0.500000 0.375000
vt 0.375000 0.500000
vt 0.375000 0.375000
vt 0.375000 0.250000
vt 0.625000 0.250000
vt 0.375000 0.750000
vt 0.625000 0.500000
vt 0.125000 0.750000
vt 0.125000 0.625000
vt 0.250000 0.500000
vt 0.125000 0.500000
vt 0.375000 0.125000
vt 0.500000 0.000000
vt 0.375000 0.000000
vt 0.625000 0.000000
vt 0.375000 1.000000
vt 0.375000 0.875000
vt 0.625000 0.750000
vt 0.750000 0.500000
vt 0.875000 0.500000
vt 0.875000 0.750000
vt 0.625000 1.000000
s 0
f 23/1/1 26/2/1 52/3/1
f 20/4/2 23/5/2 51/6/2
f 22/7/3 26/8/3 50/9/3
f 25/10/4 28/11/4 49/12/4
f 21/13/5 24/14/5 48/15/5
f 19/16/6 27/17/6 47/18/6
f 38/2/4 35/1/4 46/3/4
f 35/5/6 32/4/6 45/6/6
f 38/8/5 34/7/5 44/9/5
f 40/11/1 37/10/1 43/12/1
f 36/14/3 33/13/3 42/15/3
f 39/17/2 31/16/2 41/18/2
f 41/18/2 10/19/2 30/20/2
f 34/7/2 30/20/2 14/21/2
f 13/22/2 41/18/2 34/7/2
f 42/15/3 12/23/3 40/11/3
f 31/16/3 40/11/3 10/19/3
f 9/24/3 42/15/3 31/16/3
f 43/12/1 16/25/1 29/26/1
f 30/27/1 29/26/1 14/28/1
f 10/19/1 43/12/1 30/27/1
f 44/9/5 14/21/5 29/29/5
f 32/30/5 29/29/5 16/31/5
f 15/32/5 44/9/5 32/30/5
f 45/6/6 16/33/6 37/34/6
f 33/13/6 37/34/6 12/23/6
f 11/35/6 45/6/6 33/13/6
f 46/3/4 11/35/4 36/14/4
f 39/36/4 36/14/4 9/24/4
f 13/37/4 46/3/4 39/36/4
f 47/18/6 5/22/6 22/7/6
f 18/20/6 22/7/6 6/21/6
f 2/19/6 47/18/6 18/20/6
f 48/15/5 1/24/5 19/16/5
f 28/11/5 19/16/5 2/19/5
f 4/23/5 48/15/5 28/11/5
f 49/12/4 2/19/4 18/27/4
f 17/26/4 18/27/4 6/28/4
f 8/25/4 49/12/4 17/26/4
f 50/9/3 7/32/3 20/30/3
f 17/29/3 20/30/3 8/31/3
f 6/21/3 50/9/3 17/29/3
f 51/6/2 3/35/2 21/13/2
f 25/34/2 21/13/2 4/23/2
f 8/33/2 51/6/2 25/34/2
f 52/3/1 5/37/1 27/36/1
f 24/14/1 27/36/1 1/24/1
f 3/35/1 52/3/1 24/14/1
f 23/1/1 7/38/1 26/2/1
f 20/4/2 7/39/2 23/5/2
f 22/7/3 5/22/3 26/8/3
f 25/10/4 4/23/4 28/11/4
f 21/13/5 3/35/5 24/14/5
f 19/16/6 1/24/6 27/17/6
f 38/2/4 15/38/4 35/1/4
f 35/5/6 15/39/6 32/4/6
f 38/8/5 13/22/5 34/7/5
f 40/11/1 12/23/1 37/10/1
f 36/14/3 11/35/3 33/13/3
f 39/17/2 9/24/2 31/16/2
f 41/18/2 31/16/2 10/19/2
f 34/7/2 41/18/2 30/20/2
f 13/22/2 39/17/2 41/18/2
f 42/15/3 33/13/3 12/23/3
f 31/16/3 42/15/3 40/11/3
f 9/24/3 36/14/3 42/15/3
f 43/12/1 37/10/1 16/25/1
f 30/27/1 43/12/1 29/26/1
f 10/19/1 40/11/1 43/12/1
f 44/9/5 34/7/5 14/21/5
f 32/30/5 44/9/5 29/29/5
f 15/32/5 38/8/5 44/9/5
f 45/6/6 32/4/6 16/33/6
f 33/13/6 45/6/6 37/34/6
f 11/35/6 35/5/6 45/6/6
f 46/3/4 35/1/4 11/35/4
f 39/36/4 46/3/4 36/14/4
f 13/37/4 38/2/4 46/3/4
f 47/18/6 27/17/6 5/22/6
f 18/20/6 47/18/6 22/7/6
f 2/19/6 19/16/6 47/18/6
f 48/15/5 24/14/5 1/24/5
f 28/11/5 48/15/5 19/16/5
f 4/23/5 21/13/5 48/15/5
f 49/12/4 28/11/4 2/19/4
f 17/26/4 49/12/4 18/27/4
f 8/25/4 25/10/4 49/12/4
f 50/9/3 26/8/3 7/32/3
f 17/29/3 50/9/3 20/30/3
f 6/21/3 22/7/3 50/9/3
f 51/6/2 23/5/2 3/35/2
f 25/34/2 51/6/2 21/13/2
f 8/33/2 20/4/2 51/6/2
f 52/3/1 26/2/1 5/37/1
f 24/14/1 52/3/1 27/36/1
f 3/35/1 23/1/1 52/3/1
