# Blender 4.2.1 LTS
# www.blender.org
o Plane.002
v 400.000000 -37.500000 0.000000
v 75.000000 400.000000 0.000000
v -125.000000 400.000000 0.000000
v 237.500000 400.000000 0.000000
v -100.000000 200.000000 0.000000
v 0.000000 -200.000000 0.000000
v 200.000000 -150.000000 0.000000
v -200.000000 -200.000000 0.000000
v 237.500000 -400.000000 0.000000
v -275.000000 400.000000 0.000000
v 400.000000 75.000000 0.000000
v -50.000000 -200.000000 0.000000
v 75.000000 225.000000 0.000000
v 100.000000 -75.000000 0.000000
v -150.000000 -100.000000 0.000000
v -400.000000 -400.000000 0.000000
v -400.000000 75.000000 0.000000
v -75.000000 -400.000000 0.000000
v -400.000000 -75.000000 0.000000
v 75.000000 -400.000000 0.000000
v -200.000000 -50.000000 0.000000
v -315.625000 -162.500000 0.000000
v -150.000000 -200.000000 0.000000
v -190.625000 325.000000 0.000000
v -400.000000 -225.000000 0.000000
v 400.000000 212.500000 0.000000
v -400.000000 212.500000 0.000000
v -212.500000 -400.000000 0.000000
v 400.000000 -225.000000 0.000000
v 0.000000 -150.000000 0.000000
v 400.000000 -400.000000 0.000000
v 400.000000 400.000000 0.000000
v 300.000000 0.000000 0.000000
v -200.000000 -250.000000 0.000000
v -100.000000 50.000000 0.000000
v 350.000000 300.000000 0.000000
v -400.000000 400.000000 0.000000
v -150.000000 -250.000000 0.000000
v -325.000000 -325.000000 0.000000
v -300.000000 50.000000 0.000000
v -200.000000 -100.000000 0.000000
v 300.000000 -150.000000 0.000000
v -150.000000 -50.000000 0.000000
v -6.250000 306.250000 0.000000
v 150.000000 300.000000 0.000000
v -50.000000 -150.000000 0.000000
v 25.000000 12.500000 0.000000
v 25.000000 -312.500000 0.000000
v 287.500000 -325.000000 0.000000
v -300.000000 200.000000 0.000000
v 150.000000 150.000000 0.000000
v 200.000000 0.000000 0.000000
v 350.000000 150.000000 0.000000
v 131.250000 -287.500000 0.000000
v 0.000000 -175.000000 0.000000
v -25.000000 -200.000000 0.000000
v -50.000000 -175.000000 0.000000
v -25.000000 -150.000000 0.000000
v -25.000000 -175.000000 0.000000
v 0.000000 -162.500000 0.000000
v -12.500000 -200.000000 0.000000
v -50.000000 -187.500000 0.000000
v -37.500000 -150.000000 0.000000
v 0.000000 -187.500000 0.000000
v -37.500000 -200.000000 0.000000
v -50.000000 -162.500000 0.000000
v -12.500000 -150.000000 0.000000
v -37.500000 -175.000000 0.000000
v -12.500000 -175.000000 0.000000
v -25.000000 -187.500000 0.000000
v -25.000000 -162.500000 0.000000
v -12.500000 -162.500000 0.000000
v -12.500000 -187.500000 0.000000
v -37.500000 -187.500000 0.000000
v -175.000000 -100.000000 0.000000
v -200.000000 -75.000000 0.000000
v -150.000000 -75.000000 0.000000
v -175.000000 -50.000000 0.000000
v -175.000000 -75.000000 0.000000
v -162.500000 -100.000000 0.000000
v -200.000000 -87.500000 0.000000
v -150.000000 -62.500000 0.000000
v -187.500000 -50.000000 0.000000
v -187.500000 -100.000000 0.000000
v -200.000000 -62.500000 0.000000
v -150.000000 -87.500000 0.000000
v -162.500000 -50.000000 0.000000
v -175.000000 -62.500000 0.000000
v -175.000000 -87.500000 0.000000
v -187.500000 -75.000000 0.000000
v -162.500000 -75.000000 0.000000
v -162.500000 -87.500000 0.000000
v -187.500000 -87.500000 0.000000
v -187.500000 -62.500000 0.000000
v 175.000000 75.000000 0.000000
v 275.000000 75.000000 0.000000
v 250.000000 150.000000 0.000000
vn -0.0000 -0.0000 1.0000
vt 0.531250 0.515625
vt 0.375000 0.562500
vt 0.437500 0.312500
vt 1.000000 0.453125
vt 0.875000 0.500000
vt 0.875000 0.312500
vt 1.000000 0.765625
vt 0.937500 0.875000
vt 0.937500 0.687500
vt 0.687500 0.687500
vt 0.593750 0.781250
vt 0.375000 0.750000
vt 0.664062 0.140625
vt 0.500000 0.312500
vt 0.531250 0.109375
vt 0.437500 0.250000
vt 0.312500 0.375000
vt 0.312500 0.250000
vt 0.796875 1.000000
vt 0.687500 0.875000
vt 0.437500 0.265625
vt 0.437500 0.281250
vt 0.250000 0.375000
vt 0.250000 0.250000
vt 0.750000 0.312500
vt 0.625000 0.406250
vt 0.796875 0.000000
vt 0.593750 0.000000
vt 1.000000 0.000000
vt 0.859375 0.093750
vt 0.105469 0.296875
vt 0.000000 0.406250
vt 0.000000 0.218750
vt 0.406250 0.000000
vt 0.312500 0.187500
vt 0.234375 0.000000
vt 0.125000 0.750000
vt 0.000000 1.000000
vt 0.000000 0.765625
vt 0.125000 0.562500
vt 0.000000 0.593750
vt 0.492188 0.882812
vt 0.593750 1.000000
vt 0.718750 0.593750
vt 0.750000 0.500000
vt 0.843750 0.593750
vt 0.261719 0.906250
vt 0.156250 1.000000
vt 0.250000 0.187500
vt 0.093750 0.093750
vt 1.000000 0.218750
vt 0.312500 0.437500
vt 0.312500 0.406250
vt 0.312500 0.390625
vt 0.343750 1.000000
vt 0.468750 0.250000
vt 0.453125 0.250000
vt 1.000000 1.000000
vt 0.281250 0.375000
vt 0.265625 0.375000
vt 0.265625 0.437500
vt 0.281250 0.437500
vt 0.453125 0.312500
vt 0.468750 0.312500
vt 0.500000 0.281250
vt 0.500000 0.265625
vt 0.250000 0.437500
vt 1.000000 0.593750
vt 0.250000 0.406250
vt 0.250000 0.421875
vt 0.453125 0.281250
vt 0.453125 0.265625
vt 0.484375 0.281250
vt 0.468750 0.265625
vt 0.484375 0.265625
vt 0.484375 0.312500
vt 0.468750 0.296875
vt 0.484375 0.296875
vt 0.468750 0.281250
vt 0.500000 0.296875
vt 0.484375 0.250000
vt 0.500000 0.250000
vt 0.281250 0.421875
vt 0.265625 0.421875
vt 0.281250 0.390625
vt 0.265625 0.406250
vt 0.265625 0.390625
vt 0.296875 0.406250
vt 0.296875 0.390625
vt 0.281250 0.406250
vt 0.296875 0.375000
vt 0.250000 0.390625
vt 0.812500 0.687500
vt 0.437500 0.296875
vt 0.312500 0.421875
vt 0.000000 0.000000
vt 0.296875 0.437500
s 0
f 47/1/1 35/2/1 46/3/1
f 1/4/1 33/5/1 42/6/1
f 26/7/1 36/8/1 53/9/1
f 51/10/1 13/11/1 5/12/1
f 51/10/1 5/12/1 47/1/1
f 47/1/1 5/12/1 35/2/1
f 54/13/1 30/14/1 48/15/1
f 12/16/1 15/17/1 23/18/1
f 36/8/1 4/19/1 45/20/1
f 15/17/1 62/21/1 57/22/1
f 23/18/1 41/23/1 8/24/1
f 7/25/1 14/26/1 30/14/1
f 14/26/1 47/1/1 46/3/1
f 9/27/1 54/13/1 20/28/1
f 31/29/1 49/30/1 9/27/1
f 49/30/1 7/25/1 54/13/1
f 22/31/1 19/32/1 25/33/1
f 18/34/1 38/35/1 28/36/1
f 50/37/1 37/38/1 27/39/1
f 40/40/1 17/41/1 19/32/1
f 13/11/1 44/42/1 5/12/1
f 45/20/1 2/43/1 44/42/1
f 95/44/1 14/26/1 52/45/1
f 33/5/1 96/46/1 52/45/1
f 24/47/1 10/48/1 37/38/1
f 48/15/1 12/16/1 38/35/1
f 34/49/1 22/31/1 39/50/1
f 29/51/1 42/6/1 49/30/1
f 46/3/1 35/2/1 43/52/1
f 46/3/1 77/53/1 86/54/1
f 44/42/1 3/55/1 24/47/1
f 44/42/1 2/43/1 3/55/1
f 48/15/1 56/56/1 65/57/1
f 24/47/1 3/55/1 10/48/1
f 45/20/1 4/19/1 2/43/1
f 13/11/1 45/20/1 44/42/1
f 38/35/1 12/16/1 23/18/1
f 31/29/1 29/51/1 49/30/1
f 7/25/1 52/45/1 14/26/1
f 29/51/1 1/4/1 42/6/1
f 26/7/1 32/58/1 36/8/1
f 5/12/1 44/42/1 24/47/1
f 39/50/1 28/36/1 34/49/1
f 23/18/1 75/59/1 84/60/1
f 35/2/1 83/61/1 78/62/1
f 14/26/1 63/63/1 58/64/1
f 20/28/1 54/13/1 48/15/1
f 48/15/1 55/65/1 64/66/1
f 9/27/1 49/30/1 54/13/1
f 49/30/1 42/6/1 7/25/1
f 8/24/1 41/23/1 22/31/1
f 22/31/1 40/40/1 19/32/1
f 25/33/1 39/50/1 22/31/1
f 18/34/1 48/15/1 38/35/1
f 17/41/1 50/37/1 27/39/1
f 28/36/1 38/35/1 34/49/1
f 5/12/1 24/47/1 50/37/1
f 21/67/1 35/2/1 40/40/1
f 53/9/1 11/68/1 26/7/1
f 51/10/1 45/20/1 13/11/1
f 14/26/1 51/10/1 47/1/1
f 1/4/1 11/68/1 33/5/1
f 52/45/1 96/46/1 95/44/1
f 22/31/1 76/69/1 85/70/1
f 50/37/1 24/47/1 37/38/1
f 34/49/1 8/24/1 22/31/1
f 54/13/1 7/25/1 30/14/1
f 36/8/1 32/58/1 4/19/1
f 38/35/1 8/24/1 34/49/1
f 42/6/1 33/5/1 7/25/1
f 7/25/1 33/5/1 52/45/1
f 68/71/1 62/21/1 74/72/1
f 69/73/1 70/74/1 73/75/1
f 67/76/1 71/77/1 72/78/1
f 72/78/1 59/79/1 69/73/1
f 60/80/1 69/73/1 55/65/1
f 30/14/1 72/78/1 60/80/1
f 73/75/1 56/56/1 61/81/1
f 64/66/1 61/81/1 6/82/1
f 55/65/1 73/75/1 64/66/1
f 74/72/1 12/16/1 65/57/1
f 70/74/1 65/57/1 56/56/1
f 59/79/1 74/72/1 70/74/1
f 88/83/1 83/61/1 94/84/1
f 89/85/1 90/86/1 93/87/1
f 86/54/1 91/88/1 92/89/1
f 92/89/1 79/90/1 89/85/1
f 80/91/1 89/85/1 75/59/1
f 15/17/1 92/89/1 80/91/1
f 93/87/1 76/69/1 81/92/1
f 84/60/1 81/92/1 41/23/1
f 75/59/1 93/87/1 84/60/1
f 94/84/1 21/67/1 85/70/1
f 90/86/1 85/70/1 76/69/1
f 79/90/1 94/84/1 90/86/1
f 96/46/1 53/9/1 97/93/1
f 95/44/1 96/46/1 97/93/1
f 95/44/1 97/93/1 51/10/1
f 66/94/1 46/3/1 15/17/1
f 15/17/1 12/16/1 62/21/1
f 57/22/1 66/94/1 15/17/1
f 95/44/1 51/10/1 14/26/1
f 33/5/1 53/9/1 96/46/1
f 46/3/1 43/52/1 82/95/1
f 46/3/1 82/95/1 77/53/1
f 86/54/1 15/17/1 46/3/1
f 48/15/1 6/82/1 61/81/1
f 48/15/1 61/81/1 56/56/1
f 65/57/1 12/16/1 48/15/1
f 39/50/1 16/96/1 28/36/1
f 23/18/1 15/17/1 80/91/1
f 23/18/1 80/91/1 75/59/1
f 84/60/1 41/23/1 23/18/1
f 87/97/1 43/52/1 35/2/1
f 35/2/1 21/67/1 83/61/1
f 78/62/1 87/97/1 35/2/1
f 67/76/1 30/14/1 14/26/1
f 14/26/1 46/3/1 63/63/1
f 58/64/1 67/76/1 14/26/1
f 48/15/1 30/14/1 60/80/1
f 48/15/1 60/80/1 55/65/1
f 64/66/1 6/82/1 48/15/1
f 25/33/1 16/96/1 39/50/1
f 18/34/1 20/28/1 48/15/1
f 17/41/1 40/40/1 50/37/1
f 53/9/1 33/5/1 11/68/1
f 21/67/1 40/40/1 22/31/1
f 22/31/1 41/23/1 81/92/1
f 22/31/1 81/92/1 76/69/1
f 85/70/1 21/67/1 22/31/1
f 38/35/1 23/18/1 8/24/1
f 68/71/1 57/22/1 62/21/1
f 69/73/1 59/79/1 70/74/1
f 67/76/1 58/64/1 71/77/1
f 72/78/1 71/77/1 59/79/1
f 60/80/1 72/78/1 69/73/1
f 30/14/1 67/76/1 72/78/1
f 73/75/1 70/74/1 56/56/1
f 64/66/1 73/75/1 61/81/1
f 55/65/1 69/73/1 73/75/1
f 74/72/1 62/21/1 12/16/1
f 70/74/1 74/72/1 65/57/1
f 59/79/1 68/71/1 74/72/1
f 88/83/1 78/62/1 83/61/1
f 89/85/1 79/90/1 90/86/1
f 86/54/1 77/53/1 91/88/1
f 92/89/1 91/88/1 79/90/1
f 80/91/1 92/89/1 89/85/1
f 15/17/1 86/54/1 92/89/1
f 93/87/1 90/86/1 76/69/1
f 84/60/1 93/87/1 81/92/1
f 75/59/1 89/85/1 93/87/1
f 94/84/1 83/61/1 21/67/1
f 90/86/1 94/84/1 85/70/1
f 79/90/1 88/83/1 94/84/1
