{
	"asset":{
		"generator":"Khronos glTF Blender I/O v4.2.60",
		"version":"2.0"
	},
	"scene":0,
	"scenes":[
		{
			"name":"Scene",
			"nodes":[
				0
			]
		}
	],
	"nodes":[
		{
			"mesh":0,
			"name":"Plane.002",
			"scale":[
				400,
				400,
				10
			]
		}
	],
	"meshes":[
		{
			"name":"Plane.002",
			"primitives":[
				{
					"attributes":{
						"POSITION":0,
						"NORMAL":1,
						"TEXCOORD_0":2
					},
					"indices":3
				}
			]
		}
	],
	"accessors":[
		{
			"bufferView":0,
			"componentType":5126,
			"count":275,
			"max":[
				1,
				1,
				0
			],
			"min":[
				-1,
				-1,
				0
			],
			"type":"VEC3"
		},
		{
			"bufferView":1,
			"componentType":5126,
			"count":275,
			"type":"VEC3"
		},
		{
			"bufferView":2,
			"componentType":5126,
			"count":275,
			"type":"VEC2"
		},
		{
			"bufferView":3,
			"componentType":5123,
			"count":1338,
			"type":"SCALAR"
		}
	],
	"bufferViews":[
		{
			"buffer":0,
			"byteLength":3300,
			"byteOffset":0,
			"target":34962
		},
		{
			"buffer":0,
			"byteLength":3300,
			"byteOffset":3300,
			"target":34962
		},
		{
			"buffer":0,
			"byteLength":2200,
			"byteOffset":6600,
			"target":34962
		},
		{
			"buffer":0,
			"byteLength":2676,
			"byteOffset":8800,
			"target":34963
		}
	],
	"buffers":[
		{
			"byteLength":11476,
			"uri":"cityTerrain.bin"
		}
	]
}
