# Blender 4.2.1 LTS
# www.blender.org
o Cube
v 14.481907 10.194426 0.615653
v 14.481907 -13.119535 0.615653
v -8.832054 10.194426 0.615653
v -8.832054 -13.119535 0.615653
v 5.022624 0.735143 56.463707
v 8.483881 4.196399 20.674620
v 0.627229 0.735143 56.463707
v 8.483881 -7.121509 20.674620
v 0.627229 -3.660253 56.463707
v -2.834028 4.196399 20.674620
v 5.022624 -3.660253 56.463707
v -2.834028 -7.121509 20.674620
v -0.633674 0.689807 53.960300
v 0.627229 0.735143 55.618786
v 0.672565 1.996045 53.960300
v 5.022624 0.735143 55.618786
v 6.283526 0.689807 53.960300
v 4.977288 1.996045 53.960300
v 0.627229 -3.660253 55.618786
v -0.633674 -3.614917 53.960300
v 0.672565 -4.921155 53.960300
v 6.283526 -3.614917 53.960300
v 5.022624 -3.660253 55.618786
v 4.977288 -4.921155 53.960300
v 4.977288 1.996045 23.126848
v 6.283526 0.689807 23.126848
v 7.126418 2.838937 22.032082
v 6.283526 -3.614917 23.126848
v 4.977288 -4.921155 23.126848
v 7.126418 -5.764047 22.032082
v -0.633674 0.689807 23.126848
v 0.672565 1.996045 23.126848
v -1.476565 2.838937 22.032082
v 0.672565 -4.921155 23.126848
v -0.633674 -3.614917 23.126848
v -1.476565 -5.764047 22.032082
v 5.022624 0.735143 56.463707
v 5.022624 -3.660253 56.463707
v 0.627229 -3.660253 56.463707
v 0.627229 0.735143 56.463707
v 6.299644 2.012163 58.718060
v 6.299644 -4.937273 58.718060
v -0.649791 -4.937273 58.718060
v -0.649791 2.012163 58.718060
v 6.299644 2.012163 65.593262
v 6.299644 -4.937273 65.593262
v -0.649791 -4.937273 65.593262
v -0.649791 2.012163 65.593262
v 4.169507 -0.117975 66.685516
v 4.169507 -2.807135 66.685516
v 1.480346 -2.807135 66.685516
v 1.480346 -0.117975 66.685516
v 6.299644 -1.462555 58.718060
v 2.824926 -4.937273 58.718060
v 2.824926 2.012163 58.718060
v -0.649791 -1.462555 58.718060
v 6.299644 -1.462555 65.593262
v 2.824926 -4.937273 65.593262
v 2.824926 2.012163 65.593262
v -0.649791 -1.462555 65.593262
v -0.649791 2.012163 62.155659
v 6.299644 2.012163 62.155659
v 6.299644 -4.937273 62.155659
v -0.649791 -4.937273 62.155659
v 6.299644 -3.199914 58.718060
v 1.087568 -4.937273 58.718060
v 4.562285 2.012163 58.718060
v -0.649791 0.274804 58.718060
v 6.299644 -3.199914 65.593262
v 1.087568 -4.937273 65.593262
v 4.562285 2.012163 65.593262
v -0.649791 0.274804 65.593262
v -0.649791 2.012163 63.874454
v 6.299644 2.012163 60.436852
v 6.299644 -4.937273 60.436852
v -0.649791 -4.937273 63.874454
v 6.299644 0.274804 58.718060
v 4.562285 -4.937273 58.718060
v 1.087568 2.012163 58.718060
v -0.649791 -3.199914 58.718060
v 6.299644 0.274804 65.593262
v 4.562285 -4.937273 65.593262
v 1.087568 2.012163 65.593262
v -0.649791 -3.199914 65.593262
v -0.649791 2.012163 60.436852
v 6.299644 2.012163 63.874454
v 6.299644 -4.937273 63.874454
v -0.649791 -4.937273 60.436852
v 2.824926 -4.937273 63.874454
v 2.824926 -4.937273 60.436852
v 1.087568 -4.937273 62.155659
v 4.562285 -4.937273 62.155659
v -0.649791 -1.462555 63.874454
v -0.649791 -1.462555 60.436852
v -0.649791 0.274804 62.155659
v -0.649791 -3.199914 62.155659
v 6.299644 -1.462555 63.874454
v 6.299644 -1.462555 60.436852
v 6.299644 -3.199914 62.155659
v 6.299644 0.274804 62.155659
v 2.824926 2.012163 63.874454
v 2.824926 2.012163 60.436852
v 4.562285 2.012163 62.155659
v 1.087568 2.012163 62.155659
v 1.087568 2.012163 60.436852
v 4.562285 2.012163 60.436852
v 4.562285 2.012163 63.874454
v 6.299644 0.274804 60.436852
v 6.299644 -3.199914 60.436852
v 6.299644 -3.199914 63.874454
v -0.649791 -3.199914 60.436852
v -0.649791 0.274804 60.436852
v -0.649791 0.274804 63.874454
v 4.562285 -4.937273 60.436852
v 1.087568 -4.937273 60.436852
v 1.087568 -4.937273 63.874454
v 4.562285 -4.937273 63.874454
v -0.649791 -3.199914 63.874454
v 6.299644 0.274804 63.874454
v 1.087568 2.012163 63.874454
v 3.336549 -0.950932 56.684124
v 3.336549 -1.974178 56.684124
v 2.313303 -1.974178 56.684124
v 2.313303 -0.950932 56.684124
vn -0.0000 -0.9581 0.2865
vn -0.9581 -0.0000 0.2865
vn -0.0000 1.0000 -0.0000
vn -0.0000 -0.0000 -1.0000
vn -1.0000 -0.0000 -0.0000
vn 0.9581 -0.0000 0.2865
vn -0.7535 0.0131 0.6573
vn -0.0131 -0.7535 0.6573
vn -0.0000 -0.0000 1.0000
vn 0.7535 -0.0131 0.6573
vn -0.0000 0.9581 0.2865
vn -0.0000 -1.0000 -0.0000
vn 0.0131 0.7535 0.6573
vn 1.0000 -0.0000 -0.0000
vn -0.6278 0.6278 0.4601
vn 0.6278 0.6278 0.4601
vn -0.6278 -0.6278 0.4601
vn 0.6278 -0.6278 0.4601
vn 0.3250 0.3250 0.8881
vn 0.3250 -0.3250 0.8881
vn -0.3250 0.3250 0.8881
vn -0.3250 -0.3250 0.8881
vn 0.7071 -0.7071 -0.0000
vn -0.0000 -0.7961 0.6052
vn -0.7071 -0.7071 -0.0000
vn -0.7961 -0.0000 0.6052
vn -0.0000 0.7961 0.6052
vn 0.7071 0.7071 -0.0000
vn 0.7961 -0.0000 0.6052
vn -0.7071 0.7071 -0.0000
vn -0.0000 -0.8701 -0.4929
vn -0.0000 0.8701 -0.4929
vn 0.8701 -0.0000 -0.4929
vn -0.8701 -0.0000 -0.4929
vn -0.4563 -0.0000 0.8898
vn -0.0000 -0.4563 0.8898
vn -0.0000 0.4563 0.8898
vn 0.4563 -0.0000 0.8898
vn -0.0000 0.1296 -0.9916
vn -0.0000 -0.1296 -0.9916
vn -0.1296 -0.0000 -0.9916
vn 0.1296 -0.0000 -0.9916
vn -0.6211 -0.1484 0.7695
vn -0.7924 -0.0000 0.6101
vn -0.7071 -0.0000 0.7071
vn 0.1484 -0.6211 0.7695
vn -0.0000 -0.7924 0.6101
vn -0.0000 -0.7071 0.7071
vn 0.6211 0.1484 0.7695
vn 0.7924 -0.0000 0.6101
vn 0.7071 -0.0000 0.7071
vn -0.1484 0.6211 0.7695
vn -0.0000 0.7924 0.6101
vn -0.0000 0.7071 0.7071
vt 0.379444 0.377580
vt 0.379245 0.376136
vt 0.379388 0.375773
vt 0.377571 0.376794
vt 0.379021 0.376207
vt 0.378700 0.372900
vt 0.481006 0.457775
vt 0.380740 0.374731
vt 0.379029 0.375978
vt 0.123349 0.133722
vt 0.753442 0.000953
vt 0.621046 0.121741
vt 0.380326 0.375721
vt 0.375060 0.376504
vt 0.378025 0.374114
vt 0.378693 0.380198
vt 0.376483 0.377196
vt 0.001692 0.000106
vt 0.754250 0.000106
vt 0.382228 0.376499
vt 0.379562 0.378713
vt 0.378425 0.374919
vt 0.275975 0.295520
vt 0.376696 0.378233
vt 0.381071 0.375618
vt 0.297137 0.479402
vt 0.380450 0.378509
vt 0.459609 0.274203
vt 0.486463 0.297892
vt 0.633881 0.619390
vt 0.457332 0.484680
vt 0.299680 0.268683
vt 0.134743 0.632913
vt 0.270327 0.455813
vt 0.377001 0.374441
vt 0.002539 0.000918
vt 0.001377 0.754624
vt 0.755083 0.751850
vt 0.998131 0.003228
vt 0.878319 0.055544
vt 0.851995 0.066514
vt 0.000106 0.755935
vt 0.755934 0.752658
vt 0.864550 0.136027
vt 0.872263 0.133613
vt 0.870432 0.139615
vt 0.756146 0.246109
vt 0.878610 0.189954
vt 0.904777 0.178364
vt 0.999894 0.241835
vt 0.944524 0.122413
vt 0.933694 0.096776
vt 0.756146 0.000106
vt 0.810564 0.122725
vt 0.821896 0.149123
vt 0.867059 0.116829
vt 0.868651 0.112616
vt 0.874058 0.126472
vt 0.891499 0.135990
vt 0.888902 0.128318
vt 0.895062 0.129975
vt 0.864692 0.109112
vt 0.861075 0.114967
vt 0.891632 0.109409
vt 0.883836 0.111731
vt 0.885753 0.105753
vt 0.881931 0.118813
vt 0.881824 0.126619
vt 0.888031 0.113362
vt 0.874167 0.118649
vt 0.868037 0.132040
vt 0.887420 0.132536
vt 0.878372 0.104244
vt 0.872745 0.111559
vt 0.870924 0.105558
vt 0.906993 0.094362
vt 0.889098 0.097309
vt 0.894517 0.085114
vt 0.859600 0.122351
vt 0.866957 0.127943
vt 0.860954 0.129805
vt 0.849525 0.093627
vt 0.852592 0.111653
vt 0.840270 0.106235
vt 0.895131 0.122907
vt 0.889001 0.117442
vt 0.895323 0.115813
vt 0.906833 0.151291
vt 0.903932 0.133346
vt 0.915825 0.138607
vt 0.877825 0.141051
vt 0.883351 0.133658
vt 0.885275 0.139650
vt 0.849146 0.151343
vt 0.867174 0.148123
vt 0.861858 0.160494
vt 0.852119 0.179124
vt 0.878172 0.165228
vt 0.838185 0.163559
vt 0.894542 0.160854
vt 0.897808 0.142276
vt 0.918966 0.162032
vt 0.888801 0.148343
vt 0.934145 0.148192
vt 0.920104 0.122701
vt 0.916220 0.106700
vt 0.897921 0.103290
vt 0.917936 0.082436
vt 0.903959 0.112294
vt 0.821740 0.096318
vt 0.835385 0.122509
vt 0.837447 0.082573
vt 0.839635 0.138947
vt 0.858289 0.142213
vt 0.852262 0.133246
vt 0.904409 0.066821
vt 0.878360 0.080159
vt 0.861963 0.084257
vt 0.858560 0.102822
vt 0.867547 0.096872
vt 0.878259 0.111050
vt 0.866416 0.122419
vt 0.889294 0.122886
vt 0.877849 0.134231
vt 0.817618 0.246321
vt 0.779793 0.269923
vt 0.756148 0.246321
vt 0.756146 0.307796
vt 0.793971 0.284194
vt 0.817616 0.307796
vt 0.779744 0.284150
vt 0.794021 0.269967
s 0
f 8/1/1 4/2/1 2/3/1
f 12/4/2 3/5/2 4/2/2
f 32/6/3 18/7/3 25/8/3
f 1/9/4 4/2/4 3/5/4
f 19/10/5 7/11/5 14/12/5
f 6/13/6 2/3/6 1/9/6
f 35/14/7 33/15/7 12/4/7
f 29/16/8 36/17/8 8/1/8
f 7/11/9 39/18/9 40/19/9
f 26/20/10 30/21/10 6/13/10
f 10/22/11 1/9/11 3/5/11
f 29/16/12 21/23/12 34/24/12
f 32/6/13 27/25/13 10/22/13
f 26/20/14 22/26/14 28/27/14
f 13/28/15 14/12/15 15/29/15
f 16/30/16 17/31/16 18/7/16
f 19/10/17 20/32/17 21/23/17
f 22/26/18 23/33/18 24/34/18
f 25/8/19 26/20/19 27/25/19
f 28/27/20 29/16/20 30/21/20
f 31/35/21 32/6/21 33/15/21
f 34/24/22 35/14/22 36/17/22
f 29/16/23 22/26/23 24/34/23
f 23/33/24 21/23/24 24/34/24
f 21/23/25 35/14/25 34/24/25
f 19/10/26 13/28/26 20/32/26
f 14/12/27 18/7/27 15/29/27
f 18/7/28 26/20/28 25/8/28
f 16/30/29 22/26/29 17/31/29
f 32/6/30 13/28/30 15/29/30
f 35/14/5 13/28/5 31/35/5
f 23/33/12 9/36/12 19/10/12
f 16/30/14 11/37/14 23/33/14
f 14/12/3 5/38/3 16/30/3
f 38/39/31 54/40/31 66/41/31
f 9/36/9 38/42/9 39/18/9
f 5/38/9 40/19/9 37/43/9
f 11/37/9 37/43/9 38/42/9
f 73/44/3 83/45/3 120/46/3
f 40/47/32 55/48/32 67/49/32
f 37/50/33 53/51/33 65/52/33
f 39/53/34 56/54/34 68/55/34
f 84/56/35 47/57/35 52/58/35
f 86/59/14 81/60/14 119/61/14
f 76/62/5 84/56/5 118/63/5
f 87/64/12 82/65/12 117/66/12
f 52/58/9 50/67/9 49/68/9
f 82/65/36 46/69/36 51/70/36
f 83/45/37 48/71/37 49/68/37
f 81/60/38 45/72/38 50/67/38
f 89/73/12 70/74/12 116/75/12
f 75/76/12 92/77/12 114/78/12
f 93/79/5 72/80/5 113/81/5
f 88/82/5 96/83/5 111/84/5
f 97/85/14 69/86/14 110/87/14
f 74/88/14 100/89/14 108/90/14
f 101/91/3 71/92/3 107/93/3
f 85/94/3 104/95/3 105/96/3
f 79/97/3 102/98/3 55/48/3
f 44/99/3 105/96/3 79/97/3
f 106/100/3 62/101/3 74/88/3
f 67/49/3 74/88/3 41/102/3
f 55/48/3 106/100/3 67/49/3
f 107/93/3 45/72/3 86/59/3
f 103/103/3 86/59/3 62/101/3
f 77/104/14 98/105/14 53/51/14
f 41/102/14 108/90/14 77/104/14
f 109/106/14 63/107/14 75/76/14
f 65/52/14 75/76/14 42/108/14
f 53/51/14 109/106/14 65/52/14
f 110/87/14 46/69/14 87/64/14
f 99/109/14 87/64/14 63/107/14
f 80/110/5 94/111/5 56/54/5
f 43/112/5 111/84/5 80/110/5
f 112/113/5 61/114/5 85/94/5
f 68/55/5 85/94/5 44/99/5
f 56/54/5 112/113/5 68/55/5
f 113/81/5 48/71/5 73/44/5
f 95/115/5 73/44/5 61/114/5
f 78/116/12 90/117/12 54/40/12
f 42/108/12 114/78/12 78/116/12
f 115/118/12 64/119/12 88/82/12
f 66/41/12 88/82/12 43/112/12
f 54/40/12 115/118/12 66/41/12
f 116/75/12 47/57/12 76/62/12
f 91/120/12 76/62/12 64/119/12
f 117/66/12 58/121/12 89/73/12
f 63/107/12 117/66/12 92/77/12
f 118/63/5 60/122/5 93/79/5
f 64/119/5 118/63/5 96/83/5
f 119/61/14 57/123/14 97/85/14
f 62/101/14 119/61/14 100/89/14
f 120/46/3 59/124/3 101/91/3
f 61/114/3 120/46/3 104/95/3
f 39/125/39 122/126/39 38/127/39
f 37/128/40 124/129/40 40/130/40
f 38/127/41 121/131/41 37/128/41
f 40/130/42 123/132/42 39/125/42
f 97/85/9 110/87/9 119/61/9
f 100/89/14 99/109/14 98/105/14
f 92/77/12 91/120/12 90/117/12
f 96/83/5 95/115/5 94/111/5
f 122/126/4 124/129/4 121/131/4
f 104/95/3 103/103/3 102/98/3
f 8/1/1 12/4/1 4/2/1
f 12/4/2 10/22/2 3/5/2
f 32/6/3 15/29/3 18/7/3
f 1/9/4 2/3/4 4/2/4
f 19/10/5 9/36/5 7/11/5
f 6/13/6 8/1/6 2/3/6
f 12/4/43 36/17/43 35/14/43
f 35/14/44 31/35/44 33/15/44
f 33/15/45 10/22/45 12/4/45
f 8/1/46 30/21/46 29/16/46
f 29/16/47 34/24/47 36/17/47
f 36/17/48 12/4/48 8/1/48
f 7/11/9 9/36/9 39/18/9
f 6/13/49 27/25/49 26/20/49
f 26/20/50 28/27/50 30/21/50
f 30/21/51 8/1/51 6/13/51
f 10/22/11 6/13/11 1/9/11
f 29/16/12 24/34/12 21/23/12
f 10/22/52 33/15/52 32/6/52
f 32/6/53 25/8/53 27/25/53
f 27/25/54 6/13/54 10/22/54
f 26/20/14 17/31/14 22/26/14
f 29/16/23 28/27/23 22/26/23
f 23/33/24 19/10/24 21/23/24
f 21/23/25 20/32/25 35/14/25
f 19/10/26 14/12/26 13/28/26
f 14/12/27 16/30/27 18/7/27
f 18/7/28 17/31/28 26/20/28
f 16/30/29 23/33/29 22/26/29
f 32/6/30 31/35/30 13/28/30
f 35/14/5 20/32/5 13/28/5
f 23/33/12 11/37/12 9/36/12
f 16/30/14 5/38/14 11/37/14
f 14/12/3 7/11/3 5/38/3
f 43/112/31 39/53/31 38/39/31
f 38/39/31 42/108/31 78/116/31
f 38/39/31 78/116/31 54/40/31
f 66/41/31 43/112/31 38/39/31
f 9/36/9 11/37/9 38/42/9
f 5/38/9 7/11/9 40/19/9
f 11/37/9 5/38/9 37/43/9
f 73/44/3 48/71/3 83/45/3
f 41/102/32 37/50/32 40/47/32
f 40/47/32 44/99/32 79/97/32
f 40/47/32 79/97/32 55/48/32
f 67/49/32 41/102/32 40/47/32
f 42/108/33 38/39/33 37/50/33
f 37/50/33 41/102/33 77/104/33
f 37/50/33 77/104/33 53/51/33
f 65/52/33 42/108/33 37/50/33
f 44/99/34 40/47/34 39/53/34
f 39/53/34 43/112/34 80/110/34
f 39/53/34 80/110/34 56/54/34
f 68/55/34 44/99/34 39/53/34
f 52/58/35 48/71/35 72/80/35
f 52/58/35 72/80/35 60/122/35
f 47/57/35 51/70/35 52/58/35
f 52/58/35 60/122/35 84/56/35
f 86/59/14 45/72/14 81/60/14
f 76/62/5 47/57/5 84/56/5
f 87/64/12 46/69/12 82/65/12
f 52/58/9 51/70/9 50/67/9
f 51/70/36 47/57/36 70/74/36
f 51/70/36 70/74/36 58/121/36
f 46/69/36 50/67/36 51/70/36
f 51/70/36 58/121/36 82/65/36
f 49/68/37 45/72/37 71/92/37
f 49/68/37 71/92/37 59/124/37
f 48/71/37 52/58/37 49/68/37
f 49/68/37 59/124/37 83/45/37
f 50/67/38 46/69/38 69/86/38
f 50/67/38 69/86/38 57/123/38
f 45/72/38 49/68/38 50/67/38
f 50/67/38 57/123/38 81/60/38
f 89/73/12 58/121/12 70/74/12
f 75/76/12 63/107/12 92/77/12
f 93/79/5 60/122/5 72/80/5
f 88/82/5 64/119/5 96/83/5
f 97/85/14 57/123/14 69/86/14
f 74/88/14 62/101/14 100/89/14
f 101/91/3 59/124/3 71/92/3
f 85/94/3 61/114/3 104/95/3
f 79/97/3 105/96/3 102/98/3
f 44/99/3 85/94/3 105/96/3
f 106/100/3 103/103/3 62/101/3
f 67/49/3 106/100/3 74/88/3
f 55/48/3 102/98/3 106/100/3
f 107/93/3 71/92/3 45/72/3
f 103/103/3 107/93/3 86/59/3
f 77/104/14 108/90/14 98/105/14
f 41/102/14 74/88/14 108/90/14
f 109/106/14 99/109/14 63/107/14
f 65/52/14 109/106/14 75/76/14
f 53/51/14 98/105/14 109/106/14
f 110/87/14 69/86/14 46/69/14
f 99/109/14 110/87/14 87/64/14
f 80/110/5 111/84/5 94/111/5
f 43/112/5 88/82/5 111/84/5
f 112/113/5 95/115/5 61/114/5
f 68/55/5 112/113/5 85/94/5
f 56/54/5 94/111/5 112/113/5
f 113/81/5 72/80/5 48/71/5
f 95/115/5 113/81/5 73/44/5
f 78/116/12 114/78/12 90/117/12
f 42/108/12 75/76/12 114/78/12
f 115/118/12 91/120/12 64/119/12
f 66/41/12 115/118/12 88/82/12
f 54/40/12 90/117/12 115/118/12
f 116/75/12 70/74/12 47/57/12
f 91/120/12 116/75/12 76/62/12
f 117/66/12 82/65/12 58/121/12
f 63/107/12 87/64/12 117/66/12
f 118/63/5 84/56/5 60/122/5
f 64/119/5 76/62/5 118/63/5
f 119/61/14 81/60/14 57/123/14
f 62/101/14 86/59/14 119/61/14
f 120/46/3 83/45/3 59/124/3
f 61/114/3 73/44/3 120/46/3
f 39/125/39 123/132/39 122/126/39
f 37/128/40 121/131/40 124/129/40
f 38/127/41 122/126/41 121/131/41
f 40/130/42 124/129/42 123/132/42
f 100/89/14 119/61/14 110/87/14
f 99/109/14 109/106/14 98/105/14
f 100/89/14 110/87/14 99/109/14
f 98/105/14 108/90/14 100/89/14
f 92/77/12 117/66/12 89/73/12
f 89/73/12 116/75/12 91/120/12
f 91/120/12 115/118/12 90/117/12
f 90/117/12 114/78/12 92/77/12
f 92/77/12 89/73/12 91/120/12
f 96/83/5 118/63/5 93/79/5
f 93/79/5 113/81/5 95/115/5
f 95/115/5 112/113/5 94/111/5
f 94/111/5 111/84/5 96/83/5
f 96/83/5 93/79/5 95/115/5
f 122/126/4 123/132/4 124/129/4
f 104/95/3 120/46/3 101/91/3
f 101/91/3 107/93/3 103/103/3
f 103/103/3 106/100/3 102/98/3
f 102/98/3 105/96/3 104/95/3
f 104/95/3 101/91/3 103/103/3
